<?xml version="1.0" encoding="UTF-8" standalone="no"?>
<!-- Created with Inkscape (http://www.inkscape.org/) -->

<svg
   xmlns:dc="http://purl.org/dc/elements/1.1/"
   xmlns:cc="http://creativecommons.org/ns#"
   xmlns:rdf="http://www.w3.org/1999/02/22-rdf-syntax-ns#"
   xmlns:svg="http://www.w3.org/2000/svg"
   xmlns="http://www.w3.org/2000/svg"
   xmlns:xlink="http://www.w3.org/1999/xlink"
   xmlns:sodipodi="http://sodipodi.sourceforge.net/DTD/sodipodi-0.dtd"
   xmlns:inkscape="http://www.inkscape.org/namespaces/inkscape"
   width="24"
   height="24"
   id="svg5453"
   version="1.1"
   inkscape:version="0.92.2 (5c3e80d, 2017-08-06)"
   sodipodi:docname="folder-remote.svg">
  <defs
     id="defs5455">
    <linearGradient
       inkscape:collect="always"
       id="linearGradient4233">
      <stop
         style="stop-color:#345671;stop-opacity:1;"
         offset="0"
         id="stop4235" />
      <stop
         style="stop-color:#345671;stop-opacity:0;"
         offset="1"
         id="stop4237" />
    </linearGradient>
    <linearGradient
       id="linearGradient4232"
       inkscape:collect="always">
      <stop
         id="stop4234"
         offset="0"
         style="stop-color:#3d6584;stop-opacity:1" />
      <stop
         id="stop4236"
         offset="1"
         style="stop-color:#4a7ba3;stop-opacity:1" />
    </linearGradient>
    <linearGradient
       id="linearGradient4172">
      <stop
         style="stop-color:#7c92ba;stop-opacity:1;"
         offset="0"
         id="stop4174" />
      <stop
         style="stop-color:#8eb7dd;stop-opacity:1"
         offset="1"
         id="stop4176" />
    </linearGradient>
    <linearGradient
       inkscape:collect="always"
       xlink:href="#linearGradient4172"
       id="linearGradient4178"
       x1="414.57144"
       y1="541.79797"
       x2="414.57144"
       y2="499.798"
       gradientUnits="userSpaceOnUse"
       gradientTransform="matrix(0.37500013,0,0,0.37487787,240.3571,342.43998)" />
    <linearGradient
       inkscape:collect="always"
       xlink:href="#linearGradient4232"
       id="linearGradient4182"
       gradientUnits="userSpaceOnUse"
       x1="414.57144"
       y1="523.79797"
       x2="414.57144"
       y2="505.798"
       gradientTransform="matrix(0.37500013,0,0,0.37482908,240.3571,336.46504)" />
    <linearGradient
       inkscape:collect="always"
       xlink:href="#linearGradient4233"
       id="linearGradient4239"
       x1="384.57144"
       y1="477.798"
       x2="404.57144"
       y2="497.798"
       gradientUnits="userSpaceOnUse"
       gradientTransform="matrix(0.37500013,0,0,0.37499991,240.3571,342.37385)" />
  </defs>
  <sodipodi:namedview
     id="base"
     pagecolor="#ffffff"
     bordercolor="#666666"
     borderopacity="1.0"
     inkscape:pageopacity="0"
     inkscape:pageshadow="2"
     inkscape:zoom="22.627416"
     inkscape:cx="-3.5780135"
     inkscape:cy="17.617785"
     inkscape:document-units="px"
     inkscape:current-layer="layer1"
     showgrid="true"
     fit-margin-top="0"
     fit-margin-left="0"
     fit-margin-right="0"
     fit-margin-bottom="0"
     inkscape:window-width="3738"
     inkscape:window-height="2041"
     inkscape:window-x="102"
     inkscape:window-y="55"
     inkscape:window-maximized="1"
     inkscape:showpageshadow="false"
     borderlayer="true"
     showguides="true">
    <sodipodi:guide
       position="6.0000117,57.999996"
       orientation="51.999969,0"
       id="guide4097"
       inkscape:locked="false" />
    <sodipodi:guide
       position="6.0000117,6.0000264"
       orientation="0,52"
       id="guide4099"
       inkscape:locked="false" />
    <sodipodi:guide
       position="58.000012,6.0000264"
       orientation="-51.999969,0"
       id="guide4101"
       inkscape:locked="false" />
    <sodipodi:guide
       position="58.000012,57.999996"
       orientation="0,-52"
       id="guide4103"
       inkscape:locked="false" />
    <sodipodi:guide
       position="3.0000117,60.999996"
       orientation="57.999969,0"
       id="guide4105"
       inkscape:locked="false" />
    <sodipodi:guide
       position="3.0000117,3.0000264"
       orientation="0,58"
       id="guide4107"
       inkscape:locked="false" />
    <sodipodi:guide
       position="61.000012,3.0000264"
       orientation="-57.999969,0"
       id="guide4109"
       inkscape:locked="false" />
    <sodipodi:guide
       position="61.000012,60.999996"
       orientation="0,-58"
       id="guide4111"
       inkscape:locked="false" />
    <inkscape:grid
       type="xygrid"
       id="grid4115" />
  </sodipodi:namedview>
  <metadata
     id="metadata5458">
    <rdf:RDF>
      <cc:Work
         rdf:about="">
        <dc:format>image/svg+xml</dc:format>
        <dc:type
           rdf:resource="http://purl.org/dc/dcmitype/StillImage" />
        <dc:title></dc:title>
      </cc:Work>
    </rdf:RDF>
  </metadata>
  <g
     inkscape:label="Capa 1"
     inkscape:groupmode="layer"
     id="layer1"
     transform="translate(-384.57143,-523.798)">
    <path
       style="fill:url(#linearGradient4182);fill-opacity:1;stroke:none;stroke-width:0.375"
       d="m 386.07144,526.04806 v 1.875 8.25 c 0,0.20765 0.16725,0.375 0.375,0.375 h 20.25001 c 0.20774,0 0.375,-0.16735 0.375,-0.375 v -8.24633 c 0,-10e-4 -7.5e-4,-0.002 -7.5e-4,-0.004 h 7.5e-4 v -0.375 h -10.50001 l -1.125,-1.5 h -9.375 z"
       id="rect4180"
       inkscape:connector-curvature="0" />
    <path
       style="fill:url(#linearGradient4239);fill-opacity:1;fill-rule:evenodd;stroke:none;stroke-width:0.375px;stroke-linecap:butt;stroke-linejoin:miter;stroke-opacity:1"
       d="m 386.07144,526.04806 9.75,9.75 0.375,0.375 10.87501,-6.27868 v -2.34632 h -10.50001 l -1.125,-1.5 z"
       id="path4230"
       inkscape:connector-curvature="0" />
    <path
       style="fill:url(#linearGradient4178);fill-opacity:1;stroke:none;stroke-width:0.375"
       d="m 392.82144,529.79806 -1.125,1.5 h -6 v 0.375 h 7.5e-4 c -2e-5,0.002 -7.5e-4,0.003 -7.5e-4,0.004 v 13.4956 0.375 h 0.375 21.00001 0.375 v -0.375 -13.4956 -0.004 -1.875 z"
       id="rect4113"
       inkscape:connector-curvature="0" />
    <path
       style="fill:#8fb1cc;fill-opacity:1;fill-rule:evenodd;stroke:none;stroke-width:0.375px;stroke-linecap:butt;stroke-linejoin:miter;stroke-opacity:1"
       d="m 407.07145,527.54806 v 0.375 h -10.87501 l -0.75,-1.875 1.125,1.5 z"
       id="path4222"
       inkscape:connector-curvature="0" />
    <path
       style="fill:#ffffff;fill-opacity:0.23529412;fill-rule:evenodd;stroke:none;stroke-width:0.375px;stroke-linecap:butt;stroke-linejoin:miter;stroke-opacity:1"
       d="m 385.69644,531.29806 v 0.375 h 6.375 l 0.75,-1.875 -1.125,1.5 z"
       id="path4224"
       inkscape:connector-curvature="0" />
    <path
       style="fill:#345671;fill-opacity:1;fill-rule:evenodd;stroke:none;stroke-width:0.375px;stroke-linecap:butt;stroke-linejoin:miter;stroke-opacity:1"
       d="m 386.07144,530.92306 v 0.375 h 5.625 l 1.125,-1.5 -1.875,1.125 z"
       id="path4228"
       inkscape:connector-curvature="0" />
    <path
       inkscape:connector-curvature="0"
       style="fill:#466e9a;fill-opacity:1;stroke:none;stroke-width:0.375"
       d="m 385.69644,545.17305 v 0.375 h 0.375 21.00001 0.375 v -0.375 h -0.375 -21.00001 z"
       id="path4151-2" />
    <path
       style="color:#000000;display:inline;overflow:visible;visibility:visible;opacity:0.9;fill:#abbfe8;fill-opacity:0.85098039;fill-rule:nonzero;stroke:none;stroke-width:0.63750005;marker:none;enable-background:accumulate"
       id="path4112-19-69-3-1-46-9-4"
       d="m 396.58542,540.56978 c -0.64159,0 -1.27643,0.34131 -1.53791,0.63439 l 1.53791,1.69771 1.55285,-1.68255 c -0.26149,-0.30824 -0.91126,-0.64955 -1.55285,-0.64955 z m 0,-2.94784 c -1.34148,0 -2.54383,0.54276 -3.53172,1.3716 l 0.96155,1.04185 c 0.65798,-0.47841 1.68191,-0.93953 2.53135,-0.93953 0.87,0 1.94267,0.47153 2.61,0.97136 l 0.99066,-1.08897 c -0.98788,-0.82884 -2.22035,-1.35631 -3.56184,-1.35631 z m 0,-2.94783 c -2.07145,0 -3.96975,0.80796 -5.44466,2.15396 l 0.94078,1.07549 c 1.31523,-1.17062 2.69885,-1.75554 4.50388,-1.75554 1.80503,0 3.14657,0.55088 4.52478,1.77923 l 0.91988,-1.09918 c -1.4749,-1.346 -3.3732,-2.15396 -5.44466,-2.15396 z"
       inkscape:connector-curvature="0" />
    <g
       id="layer1-0-71-6"
       transform="matrix(0.72595458,0,0,0.7369589,390.77779,532.97333)"
       style="color:#000000;display:inline;overflow:visible;visibility:visible;fill:#163950;fill-opacity:0.85098039;fill-rule:nonzero;stroke:none;stroke-width:1.70000005;marker:none;enable-background:accumulate">
      <g
         style="color:#000000;display:inline;overflow:visible;visibility:visible;opacity:0.9;fill:#163950;fill-opacity:0.85098039;fill-rule:nonzero;stroke:none;stroke-width:1.70000005;marker:none;enable-background:accumulate"
         id="layer1-6-9-4"
         transform="translate(-0.02867384,-0.7867384)">
        <path
           style="color:#000000;display:inline;overflow:visible;visibility:visible;fill:#163950;fill-opacity:0.85098039;fill-rule:nonzero;stroke:none;stroke-width:1.70000005;marker:none;enable-background:accumulate"
           id="path4112-19-69-3-1-46-9"
           d="m 8.0286738,10.786738 c -0.8837844,0 -1.7582785,0.463138 -2.1184755,0.860829 l 2.1184755,2.303665 2.1390372,-2.283103 C 9.8075138,11.249876 8.9124582,10.786738 8.0286738,10.786738 Z m 0,-3.9999996 c -1.847888,0 -3.5041267,0.736481 -4.8649357,1.861156 l 1.3245282,1.4137196 c 0.90637,-0.6491716 2.3168195,-1.2748756 3.4869315,-1.2748756 1.198417,0 2.6760272,0.639835 3.5952572,1.3180686 L 12.935091,8.6271534 C 11.574282,7.5024784 9.8765618,6.7867384 8.0286738,6.7867384 Z m 0,-3.999999 c -2.853422,0 -5.468321,1.09634 -7.49999996,2.922777 l 1.29591676,1.459363 c 1.8117159,-1.588448 3.7176605,-2.382141 6.2040832,-2.382141 2.4864232,0 4.3343812,0.747499 6.2328602,2.414286 l 1.26714,-1.491508 C 13.496995,3.8830794 10.882095,2.7867394 8.0286738,2.7867394 Z"
           inkscape:connector-curvature="0" />
      </g>
    </g>
  </g>
</svg>
