<?xml version="1.0" encoding="UTF-8" standalone="no"?>
<!-- Created with Inkscape (http://www.inkscape.org/) -->

<svg
   xmlns:dc="http://purl.org/dc/elements/1.1/"
   xmlns:cc="http://creativecommons.org/ns#"
   xmlns:rdf="http://www.w3.org/1999/02/22-rdf-syntax-ns#"
   xmlns:svg="http://www.w3.org/2000/svg"
   xmlns="http://www.w3.org/2000/svg"
   xmlns:xlink="http://www.w3.org/1999/xlink"
   xmlns:sodipodi="http://sodipodi.sourceforge.net/DTD/sodipodi-0.dtd"
   xmlns:inkscape="http://www.inkscape.org/namespaces/inkscape"
   width="24"
   height="24"
   id="svg5453"
   version="1.1"
   inkscape:version="0.92.2 (5c3e80d, 2017-08-06)"
   sodipodi:docname="folder-videos.svg">
  <defs
     id="defs5455">
    <linearGradient
       inkscape:collect="always"
       id="linearGradient4233">
      <stop
         style="stop-color:#345671;stop-opacity:1;"
         offset="0"
         id="stop4235" />
      <stop
         style="stop-color:#345671;stop-opacity:0;"
         offset="1"
         id="stop4237" />
    </linearGradient>
    <linearGradient
       id="linearGradient4232"
       inkscape:collect="always">
      <stop
         id="stop4234"
         offset="0"
         style="stop-color:#3d6584;stop-opacity:1" />
      <stop
         id="stop4236"
         offset="1"
         style="stop-color:#4a7ba3;stop-opacity:1" />
    </linearGradient>
    <linearGradient
       id="linearGradient4172">
      <stop
         style="stop-color:#7c92ba;stop-opacity:1;"
         offset="0"
         id="stop4174" />
      <stop
         style="stop-color:#8eb7dd;stop-opacity:1"
         offset="1"
         id="stop4176" />
    </linearGradient>
    <linearGradient
       inkscape:collect="always"
       xlink:href="#linearGradient4172"
       id="linearGradient4178"
       x1="414.57144"
       y1="541.79797"
       x2="414.57144"
       y2="499.798"
       gradientUnits="userSpaceOnUse"
       gradientTransform="matrix(0.37500013,0,0,0.37487787,240.3571,342.43998)" />
    <linearGradient
       inkscape:collect="always"
       xlink:href="#linearGradient4232"
       id="linearGradient4182"
       gradientUnits="userSpaceOnUse"
       x1="414.57144"
       y1="523.79797"
       x2="414.57144"
       y2="505.798"
       gradientTransform="matrix(0.37500013,0,0,0.37482908,240.3571,336.46504)" />
    <linearGradient
       inkscape:collect="always"
       xlink:href="#linearGradient4233"
       id="linearGradient4239"
       x1="384.57144"
       y1="477.798"
       x2="404.57144"
       y2="497.798"
       gradientUnits="userSpaceOnUse"
       gradientTransform="matrix(0.37500013,0,0,0.37499991,240.3571,342.37385)" />
  </defs>
  <sodipodi:namedview
     id="base"
     pagecolor="#ffffff"
     bordercolor="#666666"
     borderopacity="1.0"
     inkscape:pageopacity="0"
     inkscape:pageshadow="2"
     inkscape:zoom="11.313708"
     inkscape:cx="-14.478953"
     inkscape:cy="44.691335"
     inkscape:document-units="px"
     inkscape:current-layer="layer1"
     showgrid="true"
     fit-margin-top="0"
     fit-margin-left="0"
     fit-margin-right="0"
     fit-margin-bottom="0"
     inkscape:window-width="3738"
     inkscape:window-height="2041"
     inkscape:window-x="102"
     inkscape:window-y="55"
     inkscape:window-maximized="1"
     inkscape:showpageshadow="false"
     borderlayer="true"
     showguides="true">
    <sodipodi:guide
       position="6.0000117,57.999996"
       orientation="51.999969,0"
       id="guide4097"
       inkscape:locked="false" />
    <sodipodi:guide
       position="6.0000117,6.0000264"
       orientation="0,52"
       id="guide4099"
       inkscape:locked="false" />
    <sodipodi:guide
       position="58.000012,6.0000264"
       orientation="-51.999969,0"
       id="guide4101"
       inkscape:locked="false" />
    <sodipodi:guide
       position="58.000012,57.999996"
       orientation="0,-52"
       id="guide4103"
       inkscape:locked="false" />
    <sodipodi:guide
       position="3.0000117,60.999996"
       orientation="57.999969,0"
       id="guide4105"
       inkscape:locked="false" />
    <sodipodi:guide
       position="3.0000117,3.0000264"
       orientation="0,58"
       id="guide4107"
       inkscape:locked="false" />
    <sodipodi:guide
       position="61.000012,3.0000264"
       orientation="-57.999969,0"
       id="guide4109"
       inkscape:locked="false" />
    <sodipodi:guide
       position="61.000012,60.999996"
       orientation="0,-58"
       id="guide4111"
       inkscape:locked="false" />
    <inkscape:grid
       type="xygrid"
       id="grid4115" />
  </sodipodi:namedview>
  <metadata
     id="metadata5458">
    <rdf:RDF>
      <cc:Work
         rdf:about="">
        <dc:format>image/svg+xml</dc:format>
        <dc:type
           rdf:resource="http://purl.org/dc/dcmitype/StillImage" />
        <dc:title></dc:title>
      </cc:Work>
    </rdf:RDF>
  </metadata>
  <g
     inkscape:label="Capa 1"
     inkscape:groupmode="layer"
     id="layer1"
     transform="translate(-384.57143,-523.798)">
    <path
       style="fill:url(#linearGradient4182);fill-opacity:1;stroke:none;stroke-width:0.375"
       d="m 386.07144,526.04806 v 1.875 8.25 c 0,0.20765 0.16725,0.375 0.375,0.375 h 20.25001 c 0.20774,0 0.375,-0.16735 0.375,-0.375 v -8.24633 c 0,-10e-4 -7.5e-4,-0.002 -7.5e-4,-0.004 h 7.5e-4 v -0.375 h -10.50001 l -1.125,-1.5 h -9.375 z"
       id="rect4180"
       inkscape:connector-curvature="0" />
    <path
       style="fill:url(#linearGradient4239);fill-opacity:1;fill-rule:evenodd;stroke:none;stroke-width:0.375px;stroke-linecap:butt;stroke-linejoin:miter;stroke-opacity:1"
       d="m 386.07144,526.04806 9.75,9.75 0.375,0.375 10.87501,-6.27868 v -2.34632 h -10.50001 l -1.125,-1.5 z"
       id="path4230"
       inkscape:connector-curvature="0" />
    <path
       style="fill:url(#linearGradient4178);fill-opacity:1;stroke:none;stroke-width:0.375"
       d="m 392.82144,529.79806 -1.125,1.5 h -6 v 0.375 h 7.5e-4 c -2e-5,0.002 -7.5e-4,0.003 -7.5e-4,0.004 v 13.4956 0.375 h 0.375 21.00001 0.375 v -0.375 -13.4956 -0.004 -1.875 z"
       id="rect4113"
       inkscape:connector-curvature="0" />
    <path
       style="fill:#8fb1cc;fill-opacity:1;fill-rule:evenodd;stroke:none;stroke-width:0.375px;stroke-linecap:butt;stroke-linejoin:miter;stroke-opacity:1"
       d="m 407.07145,527.54806 v 0.375 h -10.87501 l -0.75,-1.875 1.125,1.5 z"
       id="path4222"
       inkscape:connector-curvature="0" />
    <path
       style="fill:#ffffff;fill-opacity:0.23529412;fill-rule:evenodd;stroke:none;stroke-width:0.375px;stroke-linecap:butt;stroke-linejoin:miter;stroke-opacity:1"
       d="m 385.69644,531.29806 v 0.375 h 6.375 l 0.75,-1.875 -1.125,1.5 z"
       id="path4224"
       inkscape:connector-curvature="0" />
    <path
       style="fill:#345671;fill-opacity:1;fill-rule:evenodd;stroke:none;stroke-width:0.375px;stroke-linecap:butt;stroke-linejoin:miter;stroke-opacity:1"
       d="m 386.07144,530.92306 v 0.375 h 5.625 l 1.125,-1.5 -1.875,1.125 z"
       id="path4228"
       inkscape:connector-curvature="0" />
    <path
       inkscape:connector-curvature="0"
       style="fill:#466e9a;fill-opacity:1;stroke:none;stroke-width:0.375"
       d="m 385.69644,545.17305 v 0.375 h 0.375 21.00001 0.375 v -0.375 h -0.375 -21.00001 z"
       id="path4151-2" />
    <path
       inkscape:connector-curvature="0"
       d="m 392.85605,533.57009 c -0.26991,0 -0.4872,0.21729 -0.4872,0.4872 v 8.76969 c 0,0.26991 0.21729,0.4872 0.4872,0.4872 h 8.12008 c 0.26991,0 0.48721,-0.21729 0.48721,-0.4872 v -8.76969 c 0,-0.26991 -0.2173,-0.4872 -0.48721,-0.4872 z m 0.1624,0.6496 h 0.64961 v 0.64961 h -0.64961 z m 1.62402,0 h 4.54725 c 0.17994,0 0.32479,0.14487 0.32479,0.32481 v 3.24803 c 0,0.17994 -0.14485,0.3248 -0.32479,0.3248 h -4.54725 c -0.17994,0 -0.32481,-0.14486 -0.32481,-0.3248 v -3.24803 c 0,-0.17994 0.14487,-0.32481 0.32481,-0.32481 z m 5.52166,0 h 0.6496 v 0.64961 h -0.6496 z m -7.14568,1.29922 h 0.64961 v 0.6496 h -0.64961 z m 7.14568,0 h 0.6496 v 0.6496 h -0.6496 z m -7.14568,1.29921 h 0.64961 v 0.6496 h -0.64961 z m 7.14568,0 h 0.6496 v 0.6496 h -0.6496 z m -7.14568,1.29921 h 0.64961 v 0.6496 h -0.64961 z m 7.14568,0 h 0.6496 v 0.6496 h -0.6496 z m -5.52166,0.6496 h 4.54725 c 0.17994,0 0.32479,0.14487 0.32479,0.32481 v 3.24803 c 0,0.17994 -0.14485,0.3248 -0.32479,0.3248 h -4.54725 c -0.17994,0 -0.32481,-0.14486 -0.32481,-0.3248 v -3.24803 c 0,-0.17994 0.14487,-0.32481 0.32481,-0.32481 z m -1.62402,0.64961 h 0.64961 v 0.64961 h -0.64961 z m 7.14568,0 h 0.6496 v 0.64961 h -0.6496 z m -7.14568,1.29922 h 0.64961 v 0.6496 h -0.64961 z m 7.14568,0 h 0.6496 v 0.6496 h -0.6496 z m -7.14568,1.29921 h 0.64961 v 0.6496 h -0.64961 z m 7.14568,0 h 0.6496 v 0.6496 h -0.6496 z"
       id="rect3032-7-5-6"
       style="color:#000000;display:inline;overflow:visible;visibility:visible;opacity:0.3;fill:#ffffff;fill-opacity:1;fill-rule:nonzero;stroke:none;stroke-width:0.63750005;marker:none;enable-background:accumulate" />
    <path
       inkscape:connector-curvature="0"
       d="m 392.85605,533.35355 c -0.26991,0 -0.4872,0.2173 -0.4872,0.48721 v 8.76968 c 0,0.26991 0.21729,0.4872 0.4872,0.4872 h 8.12008 c 0.26991,0 0.48721,-0.21729 0.48721,-0.4872 v -8.76968 c 0,-0.26991 -0.2173,-0.48721 -0.48721,-0.48721 z m 0.1624,0.64961 h 0.64961 v 0.64961 h -0.64961 z m 1.62402,0 h 4.54725 c 0.17994,0 0.3248,0.14486 0.3248,0.3248 v 3.24803 c 0,0.17994 -0.14486,0.32481 -0.3248,0.32481 h -4.54725 c -0.17994,0 -0.32481,-0.14487 -0.32481,-0.32481 v -3.24803 c 0,-0.17994 0.14487,-0.3248 0.32481,-0.3248 z m 5.52165,0 h 0.64961 v 0.64961 h -0.64961 z m -7.14567,1.29921 h 0.64961 v 0.6496 h -0.64961 z m 7.14567,0 h 0.64961 v 0.6496 h -0.64961 z m -7.14567,1.29921 h 0.64961 v 0.64961 h -0.64961 z m 7.14567,0 h 0.64961 v 0.64961 h -0.64961 z m -7.14567,1.29922 h 0.64961 v 0.6496 h -0.64961 z m 7.14567,0 h 0.64961 v 0.6496 h -0.64961 z m -5.52165,0.6496 h 4.54725 c 0.17994,0 0.3248,0.14486 0.3248,0.3248 v 3.24804 c 0,0.17994 -0.14486,0.3248 -0.3248,0.3248 h -4.54725 c -0.17994,0 -0.32481,-0.14486 -0.32481,-0.3248 v -3.24804 c 0,-0.17994 0.14487,-0.3248 0.32481,-0.3248 z m -1.62402,0.64961 h 0.64961 v 0.6496 h -0.64961 z m 7.14567,0 h 0.64961 v 0.6496 h -0.64961 z m -7.14567,1.29921 h 0.64961 v 0.6496 h -0.64961 z m 7.14567,0 h 0.64961 v 0.6496 h -0.64961 z m -7.14567,1.29921 h 0.64961 v 0.64961 h -0.64961 z m 7.14567,0 h 0.64961 v 0.64961 h -0.64961 z"
       id="rect3032-7-5"
       style="color:#000000;display:inline;overflow:visible;visibility:visible;fill:#163950;fill-opacity:0.85098039;fill-rule:nonzero;stroke:none;stroke-width:0.63750005;marker:none;enable-background:accumulate" />
  </g>
</svg>
