<?xml version="1.0" encoding="UTF-8" standalone="no"?>
<!-- Created with Inkscape (http://www.inkscape.org/) -->

<svg
   xmlns:dc="http://purl.org/dc/elements/1.1/"
   xmlns:cc="http://creativecommons.org/ns#"
   xmlns:rdf="http://www.w3.org/1999/02/22-rdf-syntax-ns#"
   xmlns:svg="http://www.w3.org/2000/svg"
   xmlns="http://www.w3.org/2000/svg"
   xmlns:xlink="http://www.w3.org/1999/xlink"
   xmlns:sodipodi="http://sodipodi.sourceforge.net/DTD/sodipodi-0.dtd"
   xmlns:inkscape="http://www.inkscape.org/namespaces/inkscape"
   width="96"
   height="96"
   id="svg5453"
   version="1.1"
   inkscape:version="0.92.2 (5c3e80d, 2017-08-06)"
   sodipodi:docname="folder-music.svg">
  <defs
     id="defs5455">
    <linearGradient
       inkscape:collect="always"
       id="linearGradient4233">
      <stop
         style="stop-color:#345671;stop-opacity:1;"
         offset="0"
         id="stop4235" />
      <stop
         style="stop-color:#345671;stop-opacity:0;"
         offset="1"
         id="stop4237" />
    </linearGradient>
    <linearGradient
       id="linearGradient4232"
       inkscape:collect="always">
      <stop
         id="stop4234"
         offset="0"
         style="stop-color:#3d6584;stop-opacity:1" />
      <stop
         id="stop4236"
         offset="1"
         style="stop-color:#4a7ba3;stop-opacity:1" />
    </linearGradient>
    <linearGradient
       id="linearGradient4172">
      <stop
         style="stop-color:#7c92ba;stop-opacity:1;"
         offset="0"
         id="stop4174" />
      <stop
         style="stop-color:#8eb7dd;stop-opacity:1"
         offset="1"
         id="stop4176" />
    </linearGradient>
    <linearGradient
       inkscape:collect="always"
       xlink:href="#linearGradient4172"
       id="linearGradient4178"
       x1="414.57144"
       y1="541.79797"
       x2="414.57144"
       y2="499.798"
       gradientUnits="userSpaceOnUse"
       gradientTransform="matrix(1.5000005,0,0,1.4995114,-192.28593,-273.63414)" />
    <linearGradient
       inkscape:collect="always"
       xlink:href="#linearGradient4232"
       id="linearGradient4182"
       gradientUnits="userSpaceOnUse"
       x1="414.57144"
       y1="523.79797"
       x2="414.57144"
       y2="505.798"
       gradientTransform="matrix(1.5000005,0,0,1.4993163,-192.28593,-297.53388)" />
    <linearGradient
       inkscape:collect="always"
       xlink:href="#linearGradient4233"
       id="linearGradient4239"
       x1="384.57144"
       y1="477.798"
       x2="404.57144"
       y2="497.798"
       gradientUnits="userSpaceOnUse"
       gradientTransform="matrix(1.5000005,0,0,1.4999996,-192.28593,-273.89863)" />
  </defs>
  <sodipodi:namedview
     id="base"
     pagecolor="#ffffff"
     bordercolor="#666666"
     borderopacity="1.0"
     inkscape:pageopacity="0"
     inkscape:pageshadow="2"
     inkscape:zoom="8.0000001"
     inkscape:cx="-42.363764"
     inkscape:cy="33.251337"
     inkscape:document-units="px"
     inkscape:current-layer="layer1"
     showgrid="true"
     fit-margin-top="0"
     fit-margin-left="0"
     fit-margin-right="0"
     fit-margin-bottom="0"
     inkscape:window-width="3738"
     inkscape:window-height="2041"
     inkscape:window-x="102"
     inkscape:window-y="55"
     inkscape:window-maximized="1"
     inkscape:showpageshadow="false"
     borderlayer="true"
     showguides="true">
    <sodipodi:guide
       position="6.0000117,57.999996"
       orientation="51.999969,0"
       id="guide4097"
       inkscape:locked="false" />
    <sodipodi:guide
       position="6.0000117,6.0000264"
       orientation="0,52"
       id="guide4099"
       inkscape:locked="false" />
    <sodipodi:guide
       position="58.000012,6.0000264"
       orientation="-51.999969,0"
       id="guide4101"
       inkscape:locked="false" />
    <sodipodi:guide
       position="58.000012,57.999996"
       orientation="0,-52"
       id="guide4103"
       inkscape:locked="false" />
    <sodipodi:guide
       position="3.0000117,60.999996"
       orientation="57.999969,0"
       id="guide4105"
       inkscape:locked="false" />
    <sodipodi:guide
       position="3.0000117,3.0000264"
       orientation="0,58"
       id="guide4107"
       inkscape:locked="false" />
    <sodipodi:guide
       position="61.000012,3.0000264"
       orientation="-57.999969,0"
       id="guide4109"
       inkscape:locked="false" />
    <sodipodi:guide
       position="61.000012,60.999996"
       orientation="0,-58"
       id="guide4111"
       inkscape:locked="false" />
    <inkscape:grid
       type="xygrid"
       id="grid4115" />
  </sodipodi:namedview>
  <metadata
     id="metadata5458">
    <rdf:RDF>
      <cc:Work
         rdf:about="">
        <dc:format>image/svg+xml</dc:format>
        <dc:type
           rdf:resource="http://purl.org/dc/dcmitype/StillImage" />
        <dc:title></dc:title>
      </cc:Work>
    </rdf:RDF>
  </metadata>
  <g
     inkscape:label="Capa 1"
     inkscape:groupmode="layer"
     id="layer1"
     transform="translate(-384.57143,-451.798)">
    <path
       style="fill:url(#linearGradient4182);fill-opacity:1;stroke:none;stroke-width:1.5"
       d="m 390.57143,460.79819 v 7.5 32.99999 c 0,0.8306 0.669,1.5 1.5,1.5 h 81.00003 c 0.83098,0 1.5,-0.6694 1.5,-1.5 v -32.98534 c 0,-0.005 -0.003,-0.009 -0.003,-0.015 h 0.003 v -1.5 h -42.00002 l -4.5,-5.99999 h -37.50001 z"
       id="rect4180"
       inkscape:connector-curvature="0" />
    <path
       style="fill:url(#linearGradient4239);fill-opacity:1;fill-rule:evenodd;stroke:none;stroke-width:1.5px;stroke-linecap:butt;stroke-linejoin:miter;stroke-opacity:1"
       d="m 390.57143,460.79819 39.00001,38.99999 1.5,1.5 43.50002,-25.11473 v -9.38526 h -42.00002 l -4.5,-6 z"
       id="path4230"
       inkscape:connector-curvature="0" />
    <path
       style="fill:url(#linearGradient4178);fill-opacity:1;stroke:none;stroke-width:1.5"
       d="m 417.57144,475.79819 -4.50001,6 h -24 v 1.5 h 0.003 c -8e-5,0.006 -0.003,0.012 -0.003,0.0176 v 53.9824 1.5 h 1.5 84.00003 1.5 v -1.5 -53.9824 -0.0176 -7.5 z"
       id="rect4113"
       inkscape:connector-curvature="0" />
    <path
       style="fill:#8fb1cc;fill-opacity:1;fill-rule:evenodd;stroke:none;stroke-width:1.5px;stroke-linecap:butt;stroke-linejoin:miter;stroke-opacity:1"
       d="m 474.57146,466.79819 v 1.5 h -43.50002 l -3,-7.5 4.5,6 z"
       id="path4222"
       inkscape:connector-curvature="0" />
    <path
       style="fill:#ffffff;fill-opacity:0.23529412;fill-rule:evenodd;stroke:none;stroke-width:1.5px;stroke-linecap:butt;stroke-linejoin:miter;stroke-opacity:1"
       d="m 389.07144,481.79819 v 1.5 h 25.49999 l 3.00001,-7.5 -4.50001,6 z"
       id="path4224"
       inkscape:connector-curvature="0" />
    <path
       style="fill:#345671;fill-opacity:1;fill-rule:evenodd;stroke:none;stroke-width:1.5px;stroke-linecap:butt;stroke-linejoin:miter;stroke-opacity:1"
       d="m 390.57143,480.29819 v 1.5 h 22.5 l 4.50001,-6 -7.50001,4.5 z"
       id="path4228"
       inkscape:connector-curvature="0" />
    <path
       inkscape:connector-curvature="0"
       style="fill:#466e9a;fill-opacity:1;stroke:none;stroke-width:1.5"
       d="m 389.07143,537.29814 v 1.5 h 1.5 84.00003 1.5 v -1.5 h -1.5 -84.00003 z"
       id="path4151-2" />
    <path
       style="color:#000000;display:inline;overflow:visible;visibility:visible;opacity:0.3;fill:#ffffff;fill-opacity:1;fill-rule:nonzero;stroke:none;stroke-width:2.55000019;marker:none;enable-background:accumulate"
       id="rect2996-4-9-3"
       inkscape:connector-curvature="0"
       d="m 446.05478,486.65143 -18.7546,4.84293 c -1.40881,0.37713 -2.54299,1.87736 -2.54299,3.33449 v 23.10316 c -1.42857,-0.74733 -3.26331,-1.04951 -5.16545,-0.55575 -3.43245,0.891 -5.58338,3.77058 -4.8476,6.43078 0.73579,2.66021 4.11709,4.14609 7.54952,3.25509 2.73839,-0.71085 4.626,-2.72208 4.92705,-4.84294 l 0.0795,-21.83289 17.80098,-4.76353 v 17.22812 c -1.42859,-0.74731 -3.26332,-1.0495 -5.16547,-0.55575 -3.43245,0.89102 -5.58336,3.77058 -4.84758,6.43079 0.73578,2.66022 4.11708,4.14609 7.54952,3.25509 2.73839,-0.71084 4.626,-2.72208 4.92705,-4.84293 l 0.0795,-28.42246 c 0,-1.09284 -0.67605,-1.91046 -1.58938,-2.0642 z" />
    <path
       style="color:#000000;display:inline;overflow:visible;visibility:visible;fill:#163950;fill-opacity:0.85098039;fill-rule:nonzero;stroke:none;stroke-width:2.55000019;marker:none;enable-background:accumulate"
       id="rect2996-4-9"
       inkscape:connector-curvature="0"
       d="m 446.05478,485.80415 -18.7546,4.84292 c -1.40881,0.37713 -2.54299,1.87737 -2.54299,3.33449 v 23.10316 c -1.42857,-0.74732 -3.26331,-1.04951 -5.16546,-0.55575 -3.43244,0.891 -5.58337,3.77058 -4.84759,6.43078 0.73579,2.66021 4.11709,4.14609 7.54952,3.25509 2.73839,-0.71083 4.62602,-2.72208 4.92705,-4.84293 l 0.0795,-21.8329 17.80099,-4.76353 v 17.22812 c -1.42858,-0.74731 -3.26333,-1.0495 -5.16546,-0.55573 -3.43245,0.891 -5.58338,3.77056 -4.8476,6.43077 0.73578,2.66022 4.11708,4.14609 7.54952,3.25509 2.73839,-0.71084 4.62602,-2.72207 4.92707,-4.84293 l 0.0795,-28.42246 c 0,-1.09283 -0.67605,-1.91046 -1.58939,-2.06419 z" />
  </g>
</svg>
