<?xml version="1.0" encoding="UTF-8" standalone="no"?>
<svg
   xmlns:dc="http://purl.org/dc/elements/1.1/"
   xmlns:cc="http://creativecommons.org/ns#"
   xmlns:rdf="http://www.w3.org/1999/02/22-rdf-syntax-ns#"
   xmlns:svg="http://www.w3.org/2000/svg"
   xmlns="http://www.w3.org/2000/svg"
   xmlns:sodipodi="http://sodipodi.sourceforge.net/DTD/sodipodi-0.dtd"
   xmlns:inkscape="http://www.inkscape.org/namespaces/inkscape"
   width="96"
   height="96"
   viewBox="0 0 96 96"
   version="1.1"
   id="svg2"
   inkscape:version="0.92.2 (5c3e80d, 2017-08-06)"
   sodipodi:docname="application-image-ico.svg">
  <metadata
     id="metadata25">
    <rdf:RDF>
      <cc:Work
         rdf:about="">
        <dc:format>image/svg+xml</dc:format>
        <dc:type
           rdf:resource="http://purl.org/dc/dcmitype/StillImage" />
        <dc:title></dc:title>
      </cc:Work>
    </rdf:RDF>
  </metadata>
  <defs
     id="defs23" />
  <sodipodi:namedview
     pagecolor="#ffffff"
     bordercolor="#666666"
     borderopacity="1"
     objecttolerance="10"
     gridtolerance="10"
     guidetolerance="10"
     inkscape:pageopacity="0"
     inkscape:pageshadow="2"
     inkscape:window-width="2495"
     inkscape:window-height="1389"
     id="namedview21"
     showgrid="false"
     inkscape:zoom="1.84375"
     inkscape:cx="-55.59322"
     inkscape:cy="64"
     inkscape:window-x="102"
     inkscape:window-y="55"
     inkscape:window-maximized="0"
     inkscape:current-layer="surface1" />
  <g
     id="surface1"
     transform="translate(0,-32)">
    <path
       style="fill:#075e65;fill-opacity:1;fill-rule:nonzero;stroke:none;stroke-width:0.75"
       d="M 16.007812,32 C 13.945313,32 12,34.033203 12,36.183594 V 123.81641 C 12,125.84961 14.0625,128 16.007812,128 H 79.992187 C 81.9375,128 84,125.84961 84,123.81641 V 59 L 57,32 Z m 0,0"
       id="path5"
       inkscape:connector-curvature="0" />
    <path
       style="fill:#000000;fill-opacity:0.19607801;fill-rule:nonzero;stroke:none;stroke-width:0.75"
       d="M 63,59 84,80 V 59 Z m 0,0"
       id="path7"
       inkscape:connector-curvature="0" />
    <path
       style="fill:#ffffff;fill-opacity:0.39215698;fill-rule:nonzero;stroke:none;stroke-width:0.75"
       d="M 57,32 83.976562,59 H 61.136719 C 59.115234,59 57,56.861328 57,54.839844 Z m 0,0"
       id="path9"
       inkscape:connector-curvature="0" />
    <path
       style="fill:#ffffff;fill-opacity:1;fill-rule:nonzero;stroke:none;stroke-width:0.75"
       d="M 34.933594,65 C 33.878906,65.099609 32.976562,66.21875 33,67.408203 V 92.650391 C 33.01172,93.892578 34.001953,95.011719 35.109375,95 H 60.943359 C 62.033203,94.976562 62.988281,93.880859 63,92.650391 V 67.408203 C 63.023437,66.154296 62.056641,65.011719 60.943359,65 Z M 36,68 h 24 v 17.103516 l -7.054688,-7.97461 -1.769531,1.699219 -2.701172,2.460937 L 46.822266,79.642578 42.580078,73.90625 36,82.396484 Z m 0,0"
       id="path11"
       inkscape:connector-curvature="0" />
    <path
       style="fill:#000000;fill-opacity:0.19607801;fill-rule:nonzero;stroke:none;stroke-width:0.75"
       d="m 12,104 v 20.00391 C 12,125.94922 14.0625,128 15.996094,128 H 80.00391 C 81.9375,128 84,125.94922 84,124.00391 V 104 Z m 0,0"
       id="path13"
       inkscape:connector-curvature="0" />
    <path
       style="fill:#ffffff;fill-opacity:1;fill-rule:nonzero;stroke:none;stroke-width:0.75"
       d="m 27,124.97656 v -2.70117 h 4.066406 v -10.9746 H 27 v -2.70118 h 11.835937 v 2.70118 h -4.042968 v 10.9746 h 4.042968 v 2.70117 H 27"
       id="path15"
       inkscape:connector-curvature="0" />
    <path
       style="fill:#ffffff;fill-opacity:1;fill-rule:nonzero;stroke:none;stroke-width:0.75"
       d="m 49.335937,125.31641 c -2.625,0 -4.628906,-0.73828 -6.017578,-2.22656 -1.388672,-1.47656 -2.080078,-3.58008 -2.080078,-6.32227 0,-1.34766 0.216797,-2.56055 0.638672,-3.61523 0.416016,-1.06056 1.001953,-1.95118 1.740234,-2.67774 0.761719,-0.73828 1.652344,-1.28907 2.677734,-1.66407 1.048829,-0.38671 2.179688,-0.57421 3.404298,-0.57421 0.662109,0 1.248047,0.0527 1.77539,0.15234 0.539062,0.0879 1.013672,0.19922 1.41211,0.32227 0.404297,0.12304 0.738281,0.25195 0.990234,0.38672 0.287109,0.15234 0.503906,0.25195 0.638672,0.32812 l -0.960938,2.58984 c -0.462891,-0.26367 -1.025391,-0.48633 -1.693359,-0.6621 -0.638672,-0.1875 -1.376953,-0.28711 -2.226562,-0.28711 -0.57422,0 -1.148438,0.0996 -1.710938,0.28711 -0.539062,0.17577 -1.025391,0.48633 -1.476562,0.92577 -0.416016,0.42188 -0.767579,1.00196 -1.054688,1.71094 -0.263672,0.72656 -0.386719,1.62891 -0.386719,2.70704 0,1.86327 0.363282,3.29883 1.078125,4.3125 0.75,0.97851 1.951172,1.47656 3.615235,1.47656 0.960937,0 1.751952,-0.0996 2.378906,-0.28711 0.638671,-0.19922 1.148437,-0.38672 1.535156,-0.58593 l 0.925781,2.5664 c -0.509766,0.28711 -1.224609,0.55078 -2.126953,0.79687 -0.884765,0.22852 -1.910156,0.33985 -3.076172,0.33985"
       id="path17"
       inkscape:connector-curvature="0" />
    <path
       style="fill:#ffffff;fill-opacity:1;fill-rule:nonzero;stroke:none;stroke-width:0.75"
       d="m 60.058594,116.76758 c 0,0.80273 0.02344,1.55273 0.08789,2.25586 0.07617,0.68554 0.210937,1.28906 0.416016,1.79883 0.222656,0.51562 0.521484,0.91406 0.908203,1.21289 0.380859,0.30469 0.890625,0.45117 1.529297,0.45117 0.626953,0 1.125,-0.14648 1.511719,-0.45117 0.404297,-0.29883 0.703125,-0.69727 0.902343,-1.21289 0.210938,-0.53321 0.363282,-1.13673 0.416016,-1.82227 0.08789,-0.6914 0.123047,-1.42969 0.123047,-2.23242 0,-0.78516 -0.03515,-1.52344 -0.123047,-2.21485 -0.05273,-0.70898 -0.205078,-1.3125 -0.416016,-1.82226 -0.199218,-0.51562 -0.498046,-0.91406 -0.873046,-1.21875 -0.392579,-0.29883 -0.890625,-0.44531 -1.541016,-0.44531 -0.638672,0 -1.148438,0.14648 -1.529297,0.44531 -0.386719,0.30469 -0.685547,0.71484 -0.908203,1.24219 -0.205079,0.50976 -0.339844,1.11328 -0.416016,1.79882 -0.06446,0.69141 -0.08789,1.42969 -0.08789,2.21485 m -3.767578,0 c 0,-2.8125 0.591796,-4.93945 1.78125,-6.36914 1.171875,-1.44727 2.824218,-2.16211 4.927734,-2.16211 2.191406,0 3.855469,0.71484 5.003906,2.16211 1.142578,1.42969 1.716797,3.55664 1.716797,6.36914 0,2.83008 -0.591797,4.95703 -1.751953,6.41015 -1.166016,1.42383 -2.806641,2.13868 -4.933594,2.13868 -2.185547,0 -3.861328,-0.71485 -5.027344,-2.13868 -1.136718,-1.45312 -1.716796,-3.58007 -1.716796,-6.41015"
       id="path19"
       inkscape:connector-curvature="0" />
  </g>
</svg>
