<?xml version="1.0" encoding="UTF-8" standalone="no"?>
<svg
   xmlns:dc="http://purl.org/dc/elements/1.1/"
   xmlns:cc="http://creativecommons.org/ns#"
   xmlns:rdf="http://www.w3.org/1999/02/22-rdf-syntax-ns#"
   xmlns:svg="http://www.w3.org/2000/svg"
   xmlns="http://www.w3.org/2000/svg"
   xmlns:sodipodi="http://sodipodi.sourceforge.net/DTD/sodipodi-0.dtd"
   xmlns:inkscape="http://www.inkscape.org/namespaces/inkscape"
   width="96"
   height="96"
   viewBox="0 0 96 96"
   version="1.1"
   id="svg2"
   inkscape:version="0.92.2 (5c3e80d, 2017-08-06)"
   sodipodi:docname="application-x-tar.svg">
  <metadata
     id="metadata35">
    <rdf:RDF>
      <cc:Work
         rdf:about="">
        <dc:format>image/svg+xml</dc:format>
        <dc:type
           rdf:resource="http://purl.org/dc/dcmitype/StillImage" />
        <dc:title></dc:title>
      </cc:Work>
    </rdf:RDF>
  </metadata>
  <defs
     id="defs33" />
  <sodipodi:namedview
     pagecolor="#ffffff"
     bordercolor="#666666"
     borderopacity="1"
     objecttolerance="10"
     gridtolerance="10"
     guidetolerance="10"
     inkscape:pageopacity="0"
     inkscape:pageshadow="2"
     inkscape:window-width="2221"
     inkscape:window-height="1299"
     id="namedview31"
     showgrid="false"
     inkscape:zoom="1.84375"
     inkscape:cx="-54.508475"
     inkscape:cy="64"
     inkscape:window-x="527"
     inkscape:window-y="373"
     inkscape:window-maximized="0"
     inkscape:current-layer="surface1" />
  <g
     id="surface1"
     transform="translate(0,-32)">
    <path
       style="fill:#45606e;fill-opacity:1;fill-rule:nonzero;stroke:none;stroke-width:0.75"
       d="M 16.007812,32 C 13.945313,32 12,34.033203 12,36.183594 V 123.81641 C 12,125.84961 14.0625,128 16.007812,128 H 79.992187 C 81.9375,128 84,125.84961 84,123.81641 V 59 L 57,32 Z m 0,0"
       id="path5"
       inkscape:connector-curvature="0" />
    <path
       style="fill:#000000;fill-opacity:0.19607801;fill-rule:nonzero;stroke:none;stroke-width:0.75"
       d="m 12,104 v 20.00391 C 12,125.94922 14.0625,128 15.996094,128 H 80.00391 C 81.9375,128 84,125.94922 84,124.00391 V 104 Z m 0,0"
       id="path7"
       inkscape:connector-curvature="0" />
    <path
       style="fill:#000000;fill-opacity:0.19607801;fill-rule:nonzero;stroke:none;stroke-width:0.75"
       d="M 63,59 84,80 V 59 Z m 0,0"
       id="path9"
       inkscape:connector-curvature="0" />
    <path
       style="fill:#ffffff;fill-opacity:0.39215698;fill-rule:nonzero;stroke:none;stroke-width:0.75"
       d="M 57,32 83.976562,59 H 61.136719 C 59.115234,59 57,56.861328 57,54.839844 Z m 0,0"
       id="path11"
       inkscape:connector-curvature="0" />
    <path
       style="fill:#f8f8f8;fill-opacity:1;fill-rule:evenodd;stroke:none;stroke-width:0.75"
       d="m 27,32 h 9 v 9 h -9 z m 0,0"
       id="path13"
       inkscape:connector-curvature="0" />
    <path
       style="fill:#f8f8f8;fill-opacity:1;fill-rule:evenodd;stroke:none;stroke-width:0.75"
       d="m 36,41 h 9 v 9 h -9 z m 0,0"
       id="path15"
       inkscape:connector-curvature="0" />
    <path
       style="fill:#f8f8f8;fill-opacity:1;fill-rule:evenodd;stroke:none;stroke-width:0.75"
       d="m 27,50 h 9 v 9 h -9 z m 0,0"
       id="path17"
       inkscape:connector-curvature="0" />
    <path
       style="fill:#f8f8f8;fill-opacity:1;fill-rule:evenodd;stroke:none;stroke-width:0.75"
       d="m 36,59 h 9 v 9 h -9 z m 0,0"
       id="path19"
       inkscape:connector-curvature="0" />
    <path
       style="fill:#f8f8f8;fill-opacity:1;fill-rule:evenodd;stroke:none;stroke-width:0.75"
       d="m 27,68 h 9 v 9 h -9 z m 0,0"
       id="path21"
       inkscape:connector-curvature="0" />
    <path
       style="fill:#f8f8f8;fill-opacity:1;fill-rule:evenodd;stroke:none;stroke-width:0.75"
       d="M 27,80 H 45 V 98 H 27 Z m 0,0"
       id="path23"
       inkscape:connector-curvature="0" />
    <path
       style="fill:#ffffff;fill-opacity:1;fill-rule:nonzero;stroke:none;stroke-width:0.75"
       d="m 39.925781,108.38867 v 2.73047 h -4.6875 V 125 h -3.55664 v -13.88086 h -4.675782 v -2.73047 h 12.919922"
       id="path25"
       inkscape:connector-curvature="0" />
    <path
       style="fill:#ffffff;fill-opacity:1;fill-rule:nonzero;stroke:none;stroke-width:0.75"
       d="m 50.941406,125 -0.83789,-3.83789 H 45.380859 L 44.566406,125 h -3.667969 c 0.837891,-3.27539 1.6875,-6.25195 2.548829,-8.93555 0.861328,-2.70117 1.699218,-5.26172 2.496093,-7.67578 h 3.84961 c 0.83789,2.4375 1.675781,5.02149 2.490234,7.75196 0.849609,2.71875 1.658203,5.67187 2.449218,8.85937 h -3.791015 m -3.164062,-13.38867 c -0.181641,0.62695 -0.369141,1.21875 -0.539063,1.79883 -0.152344,0.55078 -0.310547,1.10742 -0.457031,1.6582 -0.134766,0.54492 -0.269531,1.08399 -0.404297,1.64062 -0.111328,0.55079 -0.234375,1.13087 -0.345703,1.72266 H 49.5 c -0.111329,-0.59179 -0.222656,-1.17187 -0.345704,-1.72266 -0.111327,-0.55663 -0.246093,-1.0957 -0.392577,-1.64062 -0.134766,-0.55078 -0.292969,-1.10742 -0.46875,-1.6582 -0.146485,-0.58008 -0.316407,-1.17188 -0.515625,-1.79883"
       id="path27"
       inkscape:connector-curvature="0" />
    <path
       style="fill:#ffffff;fill-opacity:1;fill-rule:nonzero;stroke:none;stroke-width:0.75"
       d="m 61.125,108.20704 c 1.013671,0 1.921875,0.0937 2.748046,0.3164 0.820313,0.21094 1.535157,0.54492 2.126954,0.9961 0.591796,0.44531 1.042969,1.01367 1.341796,1.71093 0.333985,0.67969 0.492188,1.48828 0.492188,2.41407 0,0.97265 -0.210938,1.84569 -0.626953,2.63085 -0.421875,0.79102 -1.11914,1.38867 -2.091797,1.79883 0.316407,0.46875 0.66211,0.98438 1.03125,1.55859 0.357422,0.55664 0.714844,1.14844 1.060547,1.77539 0.345703,0.60352 0.66211,1.21875 0.972656,1.84571 0.316407,0.61523 0.603516,1.19531 0.832032,1.74609 h -3.703125 c -0.439453,-1.07227 -0.955078,-2.10352 -1.546875,-3.08789 -0.580078,-0.99609 -1.195313,-2.00391 -1.869141,-3.0293 H 60.058594 V 125 h -3.533203 v -16.36523 c 0.345703,-0.0703 0.726562,-0.13477 1.11914,-0.19336 0.433594,-0.0762 0.84961,-0.11133 1.265625,-0.14063 0.421875,-0.0352 0.826172,-0.0586 1.207031,-0.0703 0.380859,-0.0234 0.714844,-0.0234 1.007813,-0.0234 m 3.128906,5.41406 c 0,-0.87305 -0.298828,-1.51758 -0.861328,-1.9336 -0.580078,-0.40437 -1.330078,-0.6153 -2.267578,-0.6153 -0.134766,0 -0.304688,0.0117 -0.492188,0.0234 -0.193359,0 -0.380859,0.0234 -0.574218,0.0644 v 4.98047 h 0.773437 c 1.207031,0 2.080078,-0.21094 2.607422,-0.63867 0.544922,-0.44532 0.814453,-1.07227 0.814453,-1.88086"
       id="path29"
       inkscape:connector-curvature="0" />
  </g>
</svg>
