<?xml version="1.0" encoding="UTF-8" standalone="no"?>
<svg
   xmlns:dc="http://purl.org/dc/elements/1.1/"
   xmlns:cc="http://creativecommons.org/ns#"
   xmlns:rdf="http://www.w3.org/1999/02/22-rdf-syntax-ns#"
   xmlns:svg="http://www.w3.org/2000/svg"
   xmlns="http://www.w3.org/2000/svg"
   xmlns:sodipodi="http://sodipodi.sourceforge.net/DTD/sodipodi-0.dtd"
   xmlns:inkscape="http://www.inkscape.org/namespaces/inkscape"
   width="96"
   height="96"
   viewBox="0 0 96 96"
   version="1.1"
   id="svg15"
   sodipodi:docname="application-vnd.oasis.opendocument.formula-template.svg"
   inkscape:version="0.92.2 (5c3e80d, 2017-08-06)">
  <metadata
     id="metadata21">
    <rdf:RDF>
      <cc:Work
         rdf:about="">
        <dc:format>image/svg+xml</dc:format>
        <dc:type
           rdf:resource="http://purl.org/dc/dcmitype/StillImage" />
        <dc:title></dc:title>
      </cc:Work>
    </rdf:RDF>
  </metadata>
  <defs
     id="defs19" />
  <sodipodi:namedview
     pagecolor="#ffffff"
     bordercolor="#666666"
     borderopacity="1"
     objecttolerance="10"
     gridtolerance="10"
     guidetolerance="10"
     inkscape:pageopacity="0"
     inkscape:pageshadow="2"
     inkscape:window-width="2083"
     inkscape:window-height="1286"
     id="namedview17"
     showgrid="false"
     inkscape:zoom="1.84375"
     inkscape:cx="-55.59322"
     inkscape:cy="64"
     inkscape:window-x="102"
     inkscape:window-y="55"
     inkscape:window-maximized="0"
     inkscape:current-layer="svg15" />
  <g
     id="surface1"
     transform="scale(0.75)">
    <path
       style="fill:#78598a;fill-opacity:1;fill-rule:nonzero;stroke:none"
       d="M 21.375,0 C 18.625,0 16,2.757812 16,5.625 v 116.75 c 0,2.70313 2.78125,5.625 5.375,5.625 h 85.25 c 2.59375,0 5.375,-2.92187 5.375,-5.625 V 5.5 C 112,2.804688 109.19531,0 106.5,0 Z m 0,0"
       id="path2"
       inkscape:connector-curvature="0" />
    <path
       style="fill:#000000;fill-opacity:0.19607801;fill-rule:nonzero;stroke:none"
       d="m 16,96 v 26.67188 C 16,125.26563 18.75,128 21.328125,128 H 106.67188 C 109.25,128 112,125.26563 112,122.67188 V 96 Z m 0,0"
       id="path4"
       inkscape:connector-curvature="0" />
    <path
       style="fill:#ffffff;fill-opacity:1;fill-rule:nonzero;stroke:none"
       d="m 48,44 v 24 h -8 l 8,16 h 4 V 48 c 11.8125,0 24.59375,0 36,0 v -4 z m 14.476562,7.523438 -5.65625,5.90625 9.914063,10.328124 L 56.820312,78.09375 62.476562,84 72.390625,73.664062 82.304688,84 87.96875,78.09375 78.054688,67.757812 87.96875,57.429688 82.304688,51.523438 72.390625,61.851562 Z m 0,0"
       id="path6"
       inkscape:connector-curvature="0" />
    <path
       style="fill:#ffffff;fill-opacity:1;fill-rule:nonzero;stroke:none"
       d="m 40.539062,112.70313 c 0,1.0625 0.03125,2.05468 0.117188,2.97656 0.117188,0.91406 0.296875,1.70312 0.5625,2.38281 0.296875,0.67969 0.695312,1.21094 1.1875,1.60156 0.515625,0.39844 1.195312,0.60157 2.039062,0.60157 0.828126,0 1.484376,-0.20313 2,-0.60157 0.53125,-0.39062 0.921876,-0.92187 1.1875,-1.60156 0.296876,-0.71094 0.484376,-1.5 0.5625,-2.41406 0.101563,-0.90625 0.164063,-1.88281 0.164063,-2.94531 0,-1.03907 -0.0625,-2.01563 -0.164063,-2.92188 -0.07812,-0.94531 -0.265624,-1.73437 -0.5625,-2.41406 -0.265624,-0.67969 -0.640624,-1.21094 -1.15625,-1.60938 -0.492187,-0.39062 -1.171874,-0.59375 -2.03125,-0.59375 -0.84375,0 -1.523437,0.20313 -2.039062,0.59375 -0.492188,0.39844 -0.890625,0.94532 -1.1875,1.64063 -0.265625,0.67969 -0.445312,1.46875 -0.5625,2.38281 -0.08594,0.90625 -0.117188,1.88281 -0.117188,2.92188 m -4.992187,0 c 0,-3.71875 0.796875,-6.53125 2.367187,-8.41407 1.570313,-1.91406 3.734376,-2.85937 6.53125,-2.85937 2.90625,0 5.109376,0.94531 6.625,2.85937 1.507813,1.88282 2.265626,4.69532 2.265626,8.41407 0,3.74218 -0.757813,6.55468 -2.3125,8.46875 -1.539063,1.88281 -3.71875,2.82812 -6.53125,2.82812 -2.90625,0 -5.125,-0.94531 -6.664063,-2.82812 -1.523437,-1.91407 -2.28125,-4.72657 -2.28125,-8.46875"
       id="path8"
       inkscape:connector-curvature="0" />
    <path
       style="fill:#ffffff;fill-opacity:1;fill-rule:nonzero;stroke:none"
       d="m 73.367188,101.90625 v 3.57031 h -6.5 v 18.0625 h -4.945313 v -18.0625 h -6.5 v -3.57031 h 17.945313"
       id="path10"
       inkscape:connector-curvature="0" />
    <path
       style="fill:#ffffff;fill-opacity:1;fill-rule:nonzero;stroke:none"
       d="M 76.867188,123.53906 V 101.90625 H 92 v 3.57031 H 81.78125 v 5.24219 h 8.929688 v 3.55469 H 81.78125 v 9.26562 h -4.914062"
       id="path12"
       inkscape:connector-curvature="0" />
  </g>
</svg>
