<?xml version="1.0" encoding="UTF-8" standalone="no"?>
<svg
   xmlns:dc="http://purl.org/dc/elements/1.1/"
   xmlns:cc="http://creativecommons.org/ns#"
   xmlns:rdf="http://www.w3.org/1999/02/22-rdf-syntax-ns#"
   xmlns:svg="http://www.w3.org/2000/svg"
   xmlns="http://www.w3.org/2000/svg"
   xmlns:sodipodi="http://sodipodi.sourceforge.net/DTD/sodipodi-0.dtd"
   xmlns:inkscape="http://www.inkscape.org/namespaces/inkscape"
   width="96"
   height="96"
   viewBox="0 0 96 96"
   version="1.1"
   id="svg2"
   inkscape:version="0.92.2 (5c3e80d, 2017-08-06)"
   sodipodi:docname="application-x-gzip.svg">
  <metadata
     id="metadata37">
    <rdf:RDF>
      <cc:Work
         rdf:about="">
        <dc:format>image/svg+xml</dc:format>
        <dc:type
           rdf:resource="http://purl.org/dc/dcmitype/StillImage" />
        <dc:title></dc:title>
      </cc:Work>
    </rdf:RDF>
  </metadata>
  <defs
     id="defs35" />
  <sodipodi:namedview
     pagecolor="#ffffff"
     bordercolor="#666666"
     borderopacity="1"
     objecttolerance="10"
     gridtolerance="10"
     guidetolerance="10"
     inkscape:pageopacity="0"
     inkscape:pageshadow="2"
     inkscape:window-width="2243"
     inkscape:window-height="1402"
     id="namedview33"
     showgrid="false"
     inkscape:zoom="1.84375"
     inkscape:cx="-55.59322"
     inkscape:cy="64"
     inkscape:window-x="102"
     inkscape:window-y="55"
     inkscape:window-maximized="0"
     inkscape:current-layer="surface1" />
  <g
     id="surface1"
     transform="translate(0,-32)">
    <path
       style="fill:#45606e;fill-opacity:1;fill-rule:nonzero;stroke:none;stroke-width:0.75"
       d="M 16.007812,32 C 13.945313,32 12,34.033203 12,36.183594 V 123.81641 C 12,125.84961 14.0625,128 16.007812,128 H 79.992187 C 81.9375,128 84,125.84961 84,123.81641 V 59 L 57,32 Z m 0,0"
       id="path5"
       inkscape:connector-curvature="0" />
    <path
       style="fill:#000000;fill-opacity:0.19607801;fill-rule:nonzero;stroke:none;stroke-width:0.75"
       d="m 12,104 v 20.00391 C 12,125.94922 14.0625,128 15.996094,128 H 80.00391 C 81.9375,128 84,125.94922 84,124.00391 V 104 Z m 0,0"
       id="path7"
       inkscape:connector-curvature="0" />
    <path
       style="fill:#ffffff;fill-opacity:1;fill-rule:nonzero;stroke:none;stroke-width:0.75"
       d="m 31.03125,111.95117 c -0.726563,0 -1.335938,0.12891 -1.828125,0.39844 -0.492188,0.25781 -0.902344,0.63281 -1.230469,1.11328 -0.316406,0.45703 -0.539062,1.01953 -0.691406,1.67578 -0.128906,0.64454 -0.199219,1.3711 -0.199219,2.15625 0,1.83985 0.292969,3.1875 0.867188,4.06641 0.574218,0.85547 1.417968,1.28906 2.542968,1.28906 0.175782,0 0.375,-0.0117 0.585938,-0.0234 0.222656,-0.0234 0.410156,-0.0469 0.597656,-0.082 v -5.58984 h 3.035156 v 7.65234 c -0.363281,0.12891 -0.925781,0.28125 -1.699218,0.44531 -0.761719,0.16406 -1.6875,0.2461 -2.765625,0.2461 -0.960938,0 -1.816407,-0.16406 -2.589844,-0.49219 -0.761719,-0.35156 -1.40625,-0.85547 -1.957031,-1.51172 -0.539063,-0.67969 -0.960938,-1.51172 -1.253907,-2.50781 C 24.152344,119.7793 24,118.61914 24,117.29492 c 0,-1.30078 0.175781,-2.44921 0.515625,-3.43359 0.351562,-1.00781 0.820312,-1.85156 1.40625,-2.53125 0.597656,-0.67969 1.289062,-1.1836 2.097656,-1.51172 0.808594,-0.35156 1.675781,-0.51563 2.589844,-0.51563 0.597656,0 1.125,0.0469 1.582031,0.14063 0.480469,0.082 0.890625,0.1875 1.230469,0.30469 0.351562,0.11718 0.632812,0.23437 0.84375,0.36328 0.234375,0.14063 0.398437,0.23438 0.515625,0.30469 l -0.785156,2.42578 c -0.363282,-0.23438 -0.808594,-0.43359 -1.335938,-0.62109 -0.527344,-0.17579 -1.066406,-0.26954 -1.628906,-0.26954"
       id="path9"
       inkscape:connector-curvature="0" />
    <path
       style="fill:#000000;fill-opacity:0.19607801;fill-rule:nonzero;stroke:none;stroke-width:0.75"
       d="M 63,59 84,80 V 59 Z m 0,0"
       id="path11"
       inkscape:connector-curvature="0" />
    <path
       style="fill:#ffffff;fill-opacity:1;fill-rule:nonzero;stroke:none;stroke-width:0.75"
       d="m 46.652344,111.77539 c -0.703125,1.08984 -1.359375,2.10938 -1.945313,3.07031 -0.597656,0.96094 -1.148437,1.875 -1.652344,2.75391 -0.515625,0.85547 -0.996093,1.6875 -1.453125,2.49609 -0.445312,0.79688 -0.878906,1.58203 -1.289062,2.35547 h 6.5625 v 2.51953 H 36.808594 v -1.75781 c 0.363281,-0.70312 0.75,-1.45312 1.160156,-2.22656 0.410156,-0.78516 0.867187,-1.62891 1.382812,-2.51954 0.503907,-0.89062 1.054688,-1.86327 1.652344,-2.90625 0.609375,-1.03125 1.277344,-2.16796 2.003906,-3.38671 H 37.125 v -2.53125 h 9.527344 v 2.13281"
       id="path13"
       inkscape:connector-curvature="0" />
    <path
       style="fill:#ffffff;fill-opacity:0.39215698;fill-rule:nonzero;stroke:none;stroke-width:0.75"
       d="M 57,32 83.976562,59 H 61.136719 C 59.115234,59 57,56.861328 57,54.839844 Z m 0,0"
       id="path15"
       inkscape:connector-curvature="0" />
    <path
       style="fill:#ffffff;fill-opacity:1;fill-rule:nonzero;stroke:none;stroke-width:0.75"
       d="m 49.347656,124.9707 v -2.51953 h 3.328125 v -10.27734 h -3.328125 v -2.53125 h 9.691406 v 2.53125 h -3.304687 v 10.27734 h 3.304687 v 2.51953 h -9.691406"
       id="path17"
       inkscape:connector-curvature="0" />
    <path
       style="fill:#f8f8f8;fill-opacity:1;fill-rule:evenodd;stroke:none;stroke-width:0.75"
       d="m 27,32 h 9 v 9 h -9 z m 0,0"
       id="path19"
       inkscape:connector-curvature="0" />
    <path
       style="fill:#ffffff;fill-opacity:1;fill-rule:nonzero;stroke:none;stroke-width:0.75"
       d="m 65.882812,109.4668 c 1.933594,0 3.445313,0.41016 4.511719,1.21875 C 71.460937,111.48242 72,112.78321 72,114.59961 c 0,1.82812 -0.539063,3.16406 -1.628906,3.98437 -1.066407,0.8086 -2.589844,1.21875 -4.570313,1.21875 h -1.078125 v 5.16798 H 61.6875 V 109.8418 c 0.292969,-0.0586 0.621094,-0.11719 0.984375,-0.17578 0.375,-0.0469 0.761719,-0.082 1.136719,-0.0937 0.375,-0.0352 0.75,-0.0586 1.113281,-0.0703 0.351562,-0.0234 0.679687,-0.0352 0.960937,-0.0352 m 0.339844,2.66016 c -0.175781,0 -0.433594,0 -0.761719,0.0234 -0.316406,0 -0.5625,0.0117 -0.738281,0.0469 v 4.95703 h 1.230469 c 0.972656,0 1.699219,-0.19921 2.191406,-0.57421 0.503906,-0.39844 0.75,-1.06641 0.75,-2.00391 0,-0.89063 -0.246094,-1.52344 -0.75,-1.88672 -0.46875,-0.375 -1.113281,-0.5625 -1.921875,-0.5625"
       id="path21"
       inkscape:connector-curvature="0" />
    <path
       style="fill:#f8f8f8;fill-opacity:1;fill-rule:evenodd;stroke:none;stroke-width:0.75"
       d="m 36,41 h 9 v 9 h -9 z m 0,0"
       id="path23"
       inkscape:connector-curvature="0" />
    <path
       style="fill:#f8f8f8;fill-opacity:1;fill-rule:evenodd;stroke:none;stroke-width:0.75"
       d="m 27,50 h 9 v 9 h -9 z m 0,0"
       id="path25"
       inkscape:connector-curvature="0" />
    <path
       style="fill:#f8f8f8;fill-opacity:1;fill-rule:evenodd;stroke:none;stroke-width:0.75"
       d="m 36,59 h 9 v 9 h -9 z m 0,0"
       id="path27"
       inkscape:connector-curvature="0" />
    <path
       style="fill:#f8f8f8;fill-opacity:1;fill-rule:evenodd;stroke:none;stroke-width:0.75"
       d="m 27,68 h 9 v 9 h -9 z m 0,0"
       id="path29"
       inkscape:connector-curvature="0" />
    <path
       style="fill:#f8f8f8;fill-opacity:1;fill-rule:evenodd;stroke:none;stroke-width:0.75"
       d="M 27,80 H 45 V 98 H 27 Z m 0,0"
       id="path31"
       inkscape:connector-curvature="0" />
  </g>
</svg>
