<?xml version="1.0" encoding="UTF-8" standalone="no"?>
<svg
   xmlns:dc="http://purl.org/dc/elements/1.1/"
   xmlns:cc="http://creativecommons.org/ns#"
   xmlns:rdf="http://www.w3.org/1999/02/22-rdf-syntax-ns#"
   xmlns:svg="http://www.w3.org/2000/svg"
   xmlns="http://www.w3.org/2000/svg"
   xmlns:sodipodi="http://sodipodi.sourceforge.net/DTD/sodipodi-0.dtd"
   xmlns:inkscape="http://www.inkscape.org/namespaces/inkscape"
   width="96"
   height="96"
   viewBox="0 0 96 96"
   version="1.1"
   id="svg2"
   inkscape:version="0.92.2 (5c3e80d, 2017-08-06)"
   sodipodi:docname="application-image-jpg.svg">
  <metadata
     id="metadata25">
    <rdf:RDF>
      <cc:Work
         rdf:about="">
        <dc:format>image/svg+xml</dc:format>
        <dc:type
           rdf:resource="http://purl.org/dc/dcmitype/StillImage" />
        <dc:title></dc:title>
      </cc:Work>
    </rdf:RDF>
  </metadata>
  <defs
     id="defs23" />
  <sodipodi:namedview
     pagecolor="#ffffff"
     bordercolor="#666666"
     borderopacity="1"
     objecttolerance="10"
     gridtolerance="10"
     guidetolerance="10"
     inkscape:pageopacity="0"
     inkscape:pageshadow="2"
     inkscape:window-width="2635"
     inkscape:window-height="1446"
     id="namedview21"
     showgrid="false"
     inkscape:zoom="1.84375"
     inkscape:cx="-55.59322"
     inkscape:cy="64"
     inkscape:window-x="102"
     inkscape:window-y="55"
     inkscape:window-maximized="0"
     inkscape:current-layer="surface1" />
  <g
     id="surface1"
     transform="translate(0,-32)">
    <path
       style="fill:#075e65;fill-opacity:1;fill-rule:nonzero;stroke:none;stroke-width:0.75"
       d="M 16.007812,32 C 13.945313,32 12,34.033203 12,36.183594 V 123.81641 C 12,125.84961 14.0625,128 16.007812,128 H 79.992187 C 81.9375,128 84,125.84961 84,123.81641 V 59 L 57,32 Z m 0,0"
       id="path5"
       inkscape:connector-curvature="0" />
    <path
       style="fill:#000000;fill-opacity:0.19607801;fill-rule:nonzero;stroke:none;stroke-width:0.75"
       d="M 63,59 84,80 V 59 Z m 0,0"
       id="path7"
       inkscape:connector-curvature="0" />
    <path
       style="fill:#ffffff;fill-opacity:0.39215698;fill-rule:nonzero;stroke:none;stroke-width:0.75"
       d="M 57,32 83.976562,59 H 61.136719 C 59.115234,59 57,56.861328 57,54.839844 Z m 0,0"
       id="path9"
       inkscape:connector-curvature="0" />
    <path
       style="fill:#ffffff;fill-opacity:1;fill-rule:nonzero;stroke:none;stroke-width:0.75"
       d="M 34.933594,65 C 33.878906,65.099609 32.976562,66.21875 33,67.408203 V 92.650391 C 33.01172,93.892578 34.001953,95.011719 35.109375,95 H 60.943359 C 62.033203,94.976562 62.988281,93.880859 63,92.650391 V 67.408203 C 63.023437,66.154296 62.056641,65.011719 60.943359,65 Z M 36,68 h 24 v 17.103516 l -7.054688,-7.97461 -1.769531,1.699219 -2.701172,2.460937 L 46.822266,79.642578 42.580078,73.90625 36,82.396484 Z m 0,0"
       id="path11"
       inkscape:connector-curvature="0" />
    <path
       style="fill:#000000;fill-opacity:0.19607801;fill-rule:nonzero;stroke:none;stroke-width:0.75"
       d="m 12,104 v 20.00391 C 12,125.94922 14.0625,128 15.996094,128 H 80.00391 C 81.9375,128 84,125.94922 84,124.00391 V 104 Z m 0,0"
       id="path13"
       inkscape:connector-curvature="0" />
    <path
       style="fill:#ffffff;fill-opacity:1;fill-rule:nonzero;stroke:none;stroke-width:0.75"
       d="m 38.794921,119.32227 c 0,0.77343 -0.123046,1.50586 -0.357421,2.20312 -0.222656,0.6914 -0.591797,1.28906 -1.119141,1.8164 -0.515625,0.51563 -1.177734,0.93165 -1.998047,1.24219 -0.832031,0.29297 -1.828125,0.43946 -3.005859,0.43946 -1.236328,0 -2.267578,-0.13477 -3.087891,-0.41602 -0.820312,-0.26953 -1.523437,-0.61523 -2.097656,-1.00781 l 1.388672,-2.53711 c 0.486328,0.26954 1.025391,0.53906 1.617188,0.79688 0.609375,0.25781 1.224609,0.39257 1.851562,0.39257 0.943359,0 1.705078,-0.22266 2.267578,-0.65039 0.591797,-0.45117 0.884765,-1.27734 0.884765,-2.46679 v -7.84571 h -6.09375 v -2.64843 h 9.75 v 10.68164"
       id="path15"
       inkscape:connector-curvature="0" />
    <path
       style="fill:#ffffff;fill-opacity:1;fill-rule:nonzero;stroke:none;stroke-width:0.75"
       d="m 47.203125,108.45313 c 2.320312,0 4.125,0.42773 5.396484,1.27734 1.277344,0.83203 1.916016,2.19726 1.916016,4.0957 0,1.91016 -0.650391,3.31055 -1.951172,4.17188 -1.277344,0.84375 -3.087891,1.27149 -5.443359,1.27149 h -1.289063 v 5.41992 h -3.632812 v -15.84375 c 0.357422,-0.0586 0.75,-0.12305 1.177734,-0.18165 0.457031,-0.0527 0.908203,-0.0879 1.365234,-0.0996 0.451172,-0.0352 0.896484,-0.0586 1.324219,-0.0762 0.427735,-0.0234 0.808594,-0.0352 1.136719,-0.0352 m 0.421875,2.78321 c -0.222656,0 -0.515625,0 -0.908204,0.0234 -0.380859,0 -0.673827,0.0175 -0.884765,0.0527 v 5.18555 h 1.470703 c 1.154297,0 2.027344,-0.20508 2.613282,-0.59766 0.591796,-0.41601 0.884765,-1.11914 0.884765,-2.09766 0,-0.93163 -0.292969,-1.59375 -0.884765,-1.9746 -0.5625,-0.39258 -1.335938,-0.5918 -2.291016,-0.5918"
       id="path17"
       inkscape:connector-curvature="0" />
    <path
       style="fill:#ffffff;fill-opacity:1;fill-rule:nonzero;stroke:none;stroke-width:0.75"
       d="m 64.523437,111.05469 c -0.873046,0 -1.59375,0.13476 -2.185546,0.41601 -0.585938,0.26953 -1.078125,0.66211 -1.470704,1.16602 -0.369141,0.48047 -0.650391,1.0664 -0.820312,1.75195 -0.158204,0.67383 -0.234375,1.43555 -0.234375,2.25586 0,1.92774 0.345703,3.33984 1.03125,4.25976 0.685546,0.89649 1.693359,1.34766 3.029296,1.34766 0.222657,0 0.457032,-0.0117 0.708985,-0.0234 0.246094,-0.0234 0.492188,-0.0527 0.703125,-0.0879 V 116.293 h 3.615235 v 8.0039 c -0.427735,0.14063 -1.101563,0.29883 -2.021485,0.46875 -0.908203,0.16992 -1.998047,0.25782 -3.298828,0.25782 -1.142578,0 -2.173828,-0.16992 -3.09375,-0.51563 -0.908203,-0.36914 -1.675782,-0.89648 -2.326172,-1.58203 -0.638672,-0.70899 -1.142578,-1.58203 -1.5,-2.625 -0.351562,-1.05468 -0.527344,-2.26758 -0.527344,-3.65625 0,-1.35937 0.199219,-2.56055 0.615234,-3.5918 0.416016,-1.05469 0.966798,-1.93945 1.681641,-2.64844 0.708984,-0.70898 1.541016,-1.23632 2.501954,-1.58202 0.955078,-0.36915 1.986328,-0.53907 3.08789,-0.53907 0.714844,0 1.335938,0.0469 1.892578,0.14649 0.5625,0.0879 1.054687,0.19335 1.470703,0.31641 0.404297,0.12304 0.732422,0.24609 0.990234,0.38085 0.28125,0.14649 0.48047,0.24609 0.626954,0.32227 l -0.943359,2.53711 c -0.427735,-0.2461 -0.972657,-0.45117 -1.59375,-0.65039 -0.626954,-0.18165 -1.277345,-0.28125 -1.939454,-0.28125"
       id="path19"
       inkscape:connector-curvature="0" />
  </g>
</svg>
