<?xml version="1.0" encoding="UTF-8" standalone="no"?>
<svg
   xmlns:dc="http://purl.org/dc/elements/1.1/"
   xmlns:cc="http://creativecommons.org/ns#"
   xmlns:rdf="http://www.w3.org/1999/02/22-rdf-syntax-ns#"
   xmlns:svg="http://www.w3.org/2000/svg"
   xmlns="http://www.w3.org/2000/svg"
   xmlns:sodipodi="http://sodipodi.sourceforge.net/DTD/sodipodi-0.dtd"
   xmlns:inkscape="http://www.inkscape.org/namespaces/inkscape"
   width="96"
   height="96"
   viewBox="0 0 96 96"
   version="1.1"
   id="svg2"
   inkscape:version="0.92.2 (5c3e80d, 2017-08-06)"
   sodipodi:docname="application-msword-template.svg">
  <metadata
     id="metadata31">
    <rdf:RDF>
      <cc:Work
         rdf:about="">
        <dc:format>image/svg+xml</dc:format>
        <dc:type
           rdf:resource="http://purl.org/dc/dcmitype/StillImage" />
        <dc:title></dc:title>
      </cc:Work>
    </rdf:RDF>
  </metadata>
  <defs
     id="defs29" />
  <sodipodi:namedview
     pagecolor="#ffffff"
     bordercolor="#666666"
     borderopacity="1"
     objecttolerance="10"
     gridtolerance="10"
     guidetolerance="10"
     inkscape:pageopacity="0"
     inkscape:pageshadow="2"
     inkscape:window-width="2211"
     inkscape:window-height="1562"
     id="namedview27"
     showgrid="true"
     inkscape:zoom="1.3037281"
     inkscape:cx="-312.37657"
     inkscape:cy="23.186833"
     inkscape:window-x="368"
     inkscape:window-y="185"
     inkscape:window-maximized="0"
     inkscape:current-layer="svg2">
    <inkscape:grid
       type="xygrid"
       id="grid3019" />
  </sodipodi:namedview>
  <path
     inkscape:connector-curvature="0"
     id="path5"
     d="M 16.007812,0 C 13.945313,0 12,2.0332035 12,4.1835937 V 91.81641 C 12,93.849608 14.0625,96 16.007812,96 H 79.992187 C 81.9375,96 84,93.849608 84,91.81641 V 27 L 57,0 Z m 0,0"
     style="fill:#35669e;fill-opacity:1;fill-rule:nonzero;stroke:none;stroke-width:0.75" />
  <path
     inkscape:connector-curvature="0"
     id="path7"
     d="M 63,27 84,48 V 27 Z m 0,0"
     style="fill:#000000;fill-opacity:0.19607801;fill-rule:nonzero;stroke:none;stroke-width:0.75" />
  <path
     inkscape:connector-curvature="0"
     id="path9"
     d="M 57,0 83.976562,27 H 61.136719 C 59.115234,27 57,24.861328 57,22.839844 Z m 0,0"
     style="fill:#ffffff;fill-opacity:0.39215698;fill-rule:nonzero;stroke:none;stroke-width:0.75" />
  <path
     inkscape:connector-curvature="0"
     id="path11"
     d="M 32.994141,41.244282 33,53.250141 h 3 v -9 h 9 v -3 z m 0,0"
     style="fill:#ffffff;fill-opacity:1;fill-rule:nonzero;stroke:none;stroke-width:0.75" />
  <path
     inkscape:connector-curvature="0"
     id="path13"
     d="M 63.005859,41.244282 63,53.250141 h -3 v -9 h -9 v -3 z m 0,0"
     style="fill:#ffffff;fill-opacity:1;fill-rule:nonzero;stroke:none;stroke-width:0.75" />
  <path
     inkscape:connector-curvature="0"
     id="path23"
     d="M 63.005859,71.256 63,59.250141 h -3 v 9 h -9 v 3 z m 0,0"
     style="fill:#ffffff;fill-opacity:1;fill-rule:nonzero;stroke:none;stroke-width:0.75" />
  <path
     inkscape:connector-curvature="0"
     id="path25"
     d="M 32.994141,71.256 33,59.250141 h 3 v 9 h 9 v 3 z m 0,0"
     style="fill:#ffffff;fill-opacity:1;fill-rule:nonzero;stroke:none;stroke-width:0.75" />
</svg>
