<?xml version="1.0" encoding="UTF-8" standalone="no"?>
<svg
   xmlns:dc="http://purl.org/dc/elements/1.1/"
   xmlns:cc="http://creativecommons.org/ns#"
   xmlns:rdf="http://www.w3.org/1999/02/22-rdf-syntax-ns#"
   xmlns:svg="http://www.w3.org/2000/svg"
   xmlns="http://www.w3.org/2000/svg"
   xmlns:sodipodi="http://sodipodi.sourceforge.net/DTD/sodipodi-0.dtd"
   xmlns:inkscape="http://www.inkscape.org/namespaces/inkscape"
   width="96"
   height="96"
   viewBox="0 0 96 96"
   version="1.1"
   id="svg2"
   inkscape:version="0.92.2 (5c3e80d, 2017-08-06)"
   sodipodi:docname="application-x-lzma.svg">
  <metadata
     id="metadata37">
    <rdf:RDF>
      <cc:Work
         rdf:about="">
        <dc:format>image/svg+xml</dc:format>
        <dc:type
           rdf:resource="http://purl.org/dc/dcmitype/StillImage" />
        <dc:title></dc:title>
      </cc:Work>
    </rdf:RDF>
  </metadata>
  <defs
     id="defs35" />
  <sodipodi:namedview
     pagecolor="#ffffff"
     bordercolor="#666666"
     borderopacity="1"
     objecttolerance="10"
     gridtolerance="10"
     guidetolerance="10"
     inkscape:pageopacity="0"
     inkscape:pageshadow="2"
     inkscape:window-width="2110"
     inkscape:window-height="1231"
     id="namedview33"
     showgrid="false"
     inkscape:zoom="1.84375"
     inkscape:cx="-54.508475"
     inkscape:cy="64"
     inkscape:window-x="102"
     inkscape:window-y="55"
     inkscape:window-maximized="0"
     inkscape:current-layer="surface1" />
  <g
     id="surface1"
     transform="translate(0,-32)">
    <path
       style="fill:#45606e;fill-opacity:1;fill-rule:nonzero;stroke:none;stroke-width:0.75"
       d="M 16.007812,32 C 13.945313,32 12,34.033203 12,36.183594 V 123.81641 C 12,125.84961 14.0625,128 16.007812,128 H 79.992187 C 81.9375,128 84,125.84961 84,123.81641 V 59 L 57,32 Z m 0,0"
       id="path5"
       inkscape:connector-curvature="0" />
    <path
       style="fill:#000000;fill-opacity:0.19607801;fill-rule:nonzero;stroke:none;stroke-width:0.75"
       d="m 12,104 v 20.00391 C 12,125.94922 14.0625,128 15.996094,128 H 80.00391 C 81.9375,128 84,125.94922 84,124.00391 V 104 Z m 0,0"
       id="path7"
       inkscape:connector-curvature="0" />
    <path
       style="fill:#000000;fill-opacity:0.19607801;fill-rule:nonzero;stroke:none;stroke-width:0.75"
       d="M 63,59 84,80 V 59 Z m 0,0"
       id="path9"
       inkscape:connector-curvature="0" />
    <path
       style="fill:#ffffff;fill-opacity:1;fill-rule:nonzero;stroke:none;stroke-width:0.75"
       d="M 33.726562,125 H 24 v -15.99609 h 3.105469 v 13.35938 h 6.621093 V 125"
       id="path11"
       inkscape:connector-curvature="0" />
    <path
       style="fill:#ffffff;fill-opacity:0.39215698;fill-rule:nonzero;stroke:none;stroke-width:0.75"
       d="M 57,32 83.976562,59 H 61.136719 C 59.115234,59 57,56.861328 57,54.839844 Z m 0,0"
       id="path13"
       inkscape:connector-curvature="0" />
    <path
       style="fill:#ffffff;fill-opacity:1;fill-rule:nonzero;stroke:none;stroke-width:0.75"
       d="m 45.855469,111.21875 c -0.726563,1.13672 -1.382813,2.21485 -1.980469,3.21094 -0.597656,0.9961 -1.160156,1.95703 -1.675781,2.8711 -0.515625,0.89062 -1.007813,1.75781 -1.476563,2.60156 -0.445312,0.83203 -0.878906,1.65234 -1.300781,2.46094 h 6.65625 V 125 H 35.871094 v -1.83984 c 0.375,-0.73828 0.761718,-1.51172 1.183593,-2.32031 0.410157,-0.83204 0.878907,-1.71094 1.394532,-2.63672 0.515625,-0.9375 1.078125,-1.94532 1.675781,-3.02344 0.621094,-1.08984 1.289062,-2.27344 2.027344,-3.53906 h -5.953125 v -2.63672 h 9.65625 v 2.21484"
       id="path15"
       inkscape:connector-curvature="0" />
    <path
       style="fill:#f8f8f8;fill-opacity:1;fill-rule:evenodd;stroke:none;stroke-width:0.75"
       d="m 27,32 h 9 v 9 h -9 z m 0,0"
       id="path17"
       inkscape:connector-curvature="0" />
    <path
       style="fill:#ffffff;fill-opacity:1;fill-rule:nonzero;stroke:none;stroke-width:0.75"
       d="m 51.246094,109.00391 c 0.117187,0.36328 0.257812,0.82031 0.433593,1.39453 0.175782,0.5625 0.375,1.17187 0.574219,1.82812 0.199219,0.65625 0.398438,1.32423 0.597656,1.99219 0.199219,0.67969 0.386719,1.28906 0.574219,1.86329 0.199219,-0.63282 0.410156,-1.28907 0.621094,-1.96875 0.222656,-0.67969 0.433594,-1.33594 0.632812,-1.95704 0.199219,-0.64453 0.375,-1.23046 0.550782,-1.78125 0.164062,-0.55078 0.316406,-1.00781 0.445312,-1.37109 h 2.554688 c 0.117187,1.39453 0.222656,2.7539 0.316406,4.07813 0.117187,1.32421 0.210937,2.64843 0.28125,3.96093 0.08203,1.28907 0.152344,2.60157 0.199219,3.92578 0.04687,1.3125 0.09375,2.64844 0.117187,4.03125 h -2.824219 l 0.152344,-12.43359 -1.898437,6.77344 h -2.25 L 50.496094,112.56641 50.625,125 h -2.824219 c 0.04687,-1.3125 0.09375,-2.67187 0.152344,-4.08984 0.0586,-1.40625 0.128906,-2.8125 0.199219,-4.20703 0.07031,-1.39453 0.140625,-2.75391 0.222656,-4.05469 0.105469,-1.3125 0.210937,-2.53125 0.328125,-3.64453 h 2.542969"
       id="path19"
       inkscape:connector-curvature="0" />
    <path
       style="fill:#f8f8f8;fill-opacity:1;fill-rule:evenodd;stroke:none;stroke-width:0.75"
       d="m 36,41 h 9 v 9 h -9 z m 0,0"
       id="path21"
       inkscape:connector-curvature="0" />
    <path
       style="fill:#ffffff;fill-opacity:1;fill-rule:nonzero;stroke:none;stroke-width:0.75"
       d="m 68.695312,125 -0.714843,-3.6914 h -4.125 L 63.152344,125 h -3.199219 c 0.726562,-3.15234 1.476562,-6.02344 2.226562,-8.61328 0.75,-2.60156 1.464844,-5.0625 2.167969,-7.38281 h 3.351563 c 0.738281,2.34375 1.464843,4.82813 2.179687,7.46484 0.726563,2.625 1.441406,5.46094 2.121094,8.53125 h -3.304688 m -2.742187,-12.90234 c -0.164063,0.60938 -0.328125,1.18359 -0.480469,1.73438 -0.128906,0.53906 -0.269531,1.0664 -0.398437,1.60546 -0.117188,0.51563 -0.234375,1.04297 -0.351563,1.57031 -0.09375,0.53907 -0.199219,1.08985 -0.292969,1.66407 h 3.023438 c -0.105469,-0.57422 -0.199219,-1.125 -0.304688,-1.66407 -0.09375,-0.52734 -0.210937,-1.05468 -0.351562,-1.57031 -0.117188,-0.53906 -0.246094,-1.0664 -0.398438,-1.60546 -0.128906,-0.55079 -0.28125,-1.125 -0.445312,-1.73438"
       id="path23"
       inkscape:connector-curvature="0" />
    <path
       style="fill:#f8f8f8;fill-opacity:1;fill-rule:evenodd;stroke:none;stroke-width:0.75"
       d="m 27,50 h 9 v 9 h -9 z m 0,0"
       id="path25"
       inkscape:connector-curvature="0" />
    <path
       style="fill:#f8f8f8;fill-opacity:1;fill-rule:evenodd;stroke:none;stroke-width:0.75"
       d="m 36,59 h 9 v 9 h -9 z m 0,0"
       id="path27"
       inkscape:connector-curvature="0" />
    <path
       style="fill:#f8f8f8;fill-opacity:1;fill-rule:evenodd;stroke:none;stroke-width:0.75"
       d="m 27,68 h 9 v 9 h -9 z m 0,0"
       id="path29"
       inkscape:connector-curvature="0" />
    <path
       style="fill:#f8f8f8;fill-opacity:1;fill-rule:evenodd;stroke:none;stroke-width:0.75"
       d="M 27,80 H 45 V 98 H 27 Z m 0,0"
       id="path31"
       inkscape:connector-curvature="0" />
  </g>
</svg>
