<?xml version="1.0" encoding="UTF-8" standalone="no"?>
<svg
   xmlns:dc="http://purl.org/dc/elements/1.1/"
   xmlns:cc="http://creativecommons.org/ns#"
   xmlns:rdf="http://www.w3.org/1999/02/22-rdf-syntax-ns#"
   xmlns:svg="http://www.w3.org/2000/svg"
   xmlns="http://www.w3.org/2000/svg"
   xmlns:sodipodi="http://sodipodi.sourceforge.net/DTD/sodipodi-0.dtd"
   xmlns:inkscape="http://www.inkscape.org/namespaces/inkscape"
   width="96"
   height="96"
   viewBox="0 0 96 96"
   version="1.1"
   id="svg31"
   sodipodi:docname="application-vnd.oasis.opendocument.text-web.svg"
   inkscape:version="0.92.2 (5c3e80d, 2017-08-06)">
  <metadata
     id="metadata37">
    <rdf:RDF>
      <cc:Work
         rdf:about="">
        <dc:format>image/svg+xml</dc:format>
        <dc:type
           rdf:resource="http://purl.org/dc/dcmitype/StillImage" />
        <dc:title></dc:title>
      </cc:Work>
    </rdf:RDF>
  </metadata>
  <defs
     id="defs35" />
  <sodipodi:namedview
     pagecolor="#ffffff"
     bordercolor="#666666"
     borderopacity="1"
     objecttolerance="10"
     gridtolerance="10"
     guidetolerance="10"
     inkscape:pageopacity="0"
     inkscape:pageshadow="2"
     inkscape:window-width="2150"
     inkscape:window-height="1483"
     id="namedview33"
     showgrid="false"
     inkscape:zoom="1.84375"
     inkscape:cx="-55.59322"
     inkscape:cy="64"
     inkscape:window-x="102"
     inkscape:window-y="55"
     inkscape:window-maximized="0"
     inkscape:current-layer="svg31" />
  <g
     id="surface1"
     transform="scale(0.75)">
    <path
       style="fill:#6e99c2;fill-opacity:1;fill-rule:nonzero;stroke:none"
       d="M 21.34375,0 C 18.59375,0 16,2.710938 16,5.578125 V 122.42188 C 16,125.13281 18.75,128 21.34375,128 h 85.3125 C 109.25,128 112,125.13281 112,122.42188 V 36 L 76,0 Z m 0,0"
       id="path2"
       inkscape:connector-curvature="0" />
    <path
       style="fill:#000000;fill-opacity:0.19607801;fill-rule:nonzero;stroke:none"
       d="m 84,36 28,28 V 36 Z m 0,0"
       id="path4"
       inkscape:connector-curvature="0" />
    <path
       style="fill:#ffffff;fill-opacity:0.39215698;fill-rule:nonzero;stroke:none"
       d="m 76,0 35.96875,36 H 81.515625 C 78.820312,36 76,33.148438 76,30.453125 Z m 0,0"
       id="path6"
       inkscape:connector-curvature="0" />
    <path
       style="fill:#ffffff;fill-opacity:1;fill-rule:nonzero;stroke:none"
       d="m 44,56 v 4 h 40 v -4 z m 0,0"
       id="path8"
       inkscape:connector-curvature="0" />
    <path
       style="fill:#ffffff;fill-opacity:1;fill-rule:nonzero;stroke:none"
       d="m 42.21875,65.34375 v 4.453125 H 86.640625 V 65.34375 Z m 0,0"
       id="path10"
       inkscape:connector-curvature="0" />
    <path
       style="fill:#ffffff;fill-opacity:1;fill-rule:nonzero;stroke:none"
       d="m 44,76 v 4 h 40 v -4 z m 0,0"
       id="path12"
       inkscape:connector-curvature="0" />
    <path
       style="fill:#ffffff;fill-opacity:1;fill-rule:nonzero;stroke:none"
       d="M 62.6875,45.359375 V 89.78125 h 3.492188 V 45.359375 Z m 0,0"
       id="path14"
       inkscape:connector-curvature="0" />
    <path
       style="fill:none;stroke:#ffffff;stroke-width:2;stroke-linecap:butt;stroke-linejoin:miter;stroke-miterlimit:4;stroke-opacity:1"
       d="m 20.440089,33.003471 c -1.997443,-6.003188 -1.997443,-12.002859 0,-18.006047"
       transform="matrix(2.22159,0,0,2.221476,11.11394,14.253894)"
       id="path16"
       inkscape:connector-curvature="0" />
    <path
       style="fill:none;stroke:#ffffff;stroke-width:2;stroke-linecap:butt;stroke-linejoin:miter;stroke-miterlimit:4;stroke-opacity:1"
       d="m 27.466307,33.003471 c 2.004476,-5.000898 2.004476,-12.002859 0,-18.006047"
       transform="matrix(2.22159,0,0,2.221476,11.11394,14.253894)"
       id="path18"
       inkscape:connector-curvature="0" />
    <path
       style="fill:none;stroke:#ffffff;stroke-width:1.82099998;stroke-linecap:round;stroke-linejoin:miter;stroke-miterlimit:4;stroke-opacity:1"
       d="m 33.054327,27.317604 c 0,5.026686 -4.075571,9.102463 -9.102001,9.102463 -5.02643,0 -9.102,-4.075777 -9.102,-9.102463 0,-5.026685 4.07557,-9.102463 9.102,-9.102463 5.02643,0 9.102001,4.075778 9.102001,9.102463 z m 0,0"
       transform="matrix(2.440226,0,0,2.440102,5.980598,0.912572)"
       id="path20"
       inkscape:connector-curvature="0" />
    <path
       style="fill:#000000;fill-opacity:0.19607801;fill-rule:nonzero;stroke:none"
       d="m 16,96 v 26.67188 C 16,125.26563 18.75,128 21.328125,128 H 106.67188 C 109.25,128 112,125.26563 112,122.67188 V 96 Z m 0,0"
       id="path22"
       inkscape:connector-curvature="0" />
    <path
       style="fill:#ffffff;fill-opacity:1;fill-rule:nonzero;stroke:none"
       d="m 40.210938,113.10938 c 0,1.0625 0.04687,2.0625 0.117187,2.99218 0.117187,0.91407 0.296875,1.71094 0.5625,2.39063 0.28125,0.6875 0.679687,1.21875 1.179687,1.61719 0.515626,0.39843 1.179688,0.59375 2.03125,0.59375 0.828126,0 1.492188,-0.19532 1.992188,-0.59375 0.53125,-0.39844 0.9375,-0.92969 1.203125,-1.61719 0.28125,-0.71094 0.460937,-1.50781 0.546875,-2.42188 0.101562,-0.92187 0.164062,-1.89843 0.164062,-2.96093 0,-1.05469 -0.0625,-2.03125 -0.164062,-2.94532 -0.08594,-0.95312 -0.265625,-1.75 -0.546875,-2.42968 -0.265625,-0.67969 -0.648437,-1.21094 -1.164063,-1.61719 -0.5,-0.39844 -1.1875,-0.59375 -2.03125,-0.59375 -0.851562,0 -1.515624,0.19531 -2.03125,0.59375 -0.5,0.40625 -0.898437,0.95312 -1.179687,1.64844 -0.265625,0.67968 -0.445313,1.48437 -0.5625,2.39843 -0.07031,0.91407 -0.117187,1.89063 -0.117187,2.94532 m -4.976563,0 c 0,-3.74219 0.78125,-6.57032 2.34375,-8.46875 1.5625,-1.92969 3.742187,-2.875 6.523437,-2.875 2.890626,0 5.085938,0.94531 6.601563,2.875 1.515625,1.89843 2.265625,4.72656 2.265625,8.46875 0,3.75781 -0.765625,6.58593 -2.296875,8.51562 -1.546875,1.89063 -3.710937,2.84375 -6.523437,2.84375 -2.890626,0 -5.101563,-0.95312 -6.632813,-2.84375 -1.515625,-1.92969 -2.28125,-4.75781 -2.28125,-8.51562"
       id="path24"
       inkscape:connector-curvature="0" />
    <path
       style="fill:#ffffff;fill-opacity:1;fill-rule:nonzero;stroke:none"
       d="m 72.921875,102.24219 v 3.59375 h -6.46875 V 124 h -4.9375 v -18.16406 h -6.46875 v -3.59375 h 17.875"
       id="path26"
       inkscape:connector-curvature="0" />
    <path
       style="fill:#ffffff;fill-opacity:1;fill-rule:nonzero;stroke:none"
       d="M 92.015625,102.24219 V 124 H 87.125 v -9.57812 H 80.609375 V 124 H 75.71875 v -21.75781 h 4.890625 v 8.58594 H 87.125 v -8.58594 h 4.890625"
       id="path28"
       inkscape:connector-curvature="0" />
  </g>
</svg>
