<?xml version="1.0" encoding="UTF-8" standalone="no"?>
<svg
   xmlns:dc="http://purl.org/dc/elements/1.1/"
   xmlns:cc="http://creativecommons.org/ns#"
   xmlns:rdf="http://www.w3.org/1999/02/22-rdf-syntax-ns#"
   xmlns:svg="http://www.w3.org/2000/svg"
   xmlns="http://www.w3.org/2000/svg"
   xmlns:sodipodi="http://sodipodi.sourceforge.net/DTD/sodipodi-0.dtd"
   xmlns:inkscape="http://www.inkscape.org/namespaces/inkscape"
   width="96"
   height="96"
   viewBox="0 0 96 96"
   version="1.1"
   id="svg2"
   inkscape:version="0.92.2 (5c3e80d, 2017-08-06)"
   sodipodi:docname="application-image-tga.svg">
  <metadata
     id="metadata25">
    <rdf:RDF>
      <cc:Work
         rdf:about="">
        <dc:format>image/svg+xml</dc:format>
        <dc:type
           rdf:resource="http://purl.org/dc/dcmitype/StillImage" />
        <dc:title></dc:title>
      </cc:Work>
    </rdf:RDF>
  </metadata>
  <defs
     id="defs23" />
  <sodipodi:namedview
     pagecolor="#ffffff"
     bordercolor="#666666"
     borderopacity="1"
     objecttolerance="10"
     gridtolerance="10"
     guidetolerance="10"
     inkscape:pageopacity="0"
     inkscape:pageshadow="2"
     inkscape:window-width="1971"
     inkscape:window-height="1252"
     id="namedview21"
     showgrid="false"
     inkscape:zoom="1.84375"
     inkscape:cx="80.641185"
     inkscape:cy="64"
     inkscape:window-x="505"
     inkscape:window-y="254"
     inkscape:window-maximized="0"
     inkscape:current-layer="surface1" />
  <g
     id="surface1"
     transform="translate(0,-32)">
    <path
       style="fill:#075e65;fill-opacity:1;fill-rule:nonzero;stroke:none;stroke-width:0.75"
       d="M 16.007812,32 C 13.945313,32 12,34.033203 12,36.183594 V 123.81641 C 12,125.84961 14.0625,128 16.007812,128 H 79.992187 C 81.9375,128 84,125.84961 84,123.81641 V 59 L 57,32 Z m 0,0"
       id="path5"
       inkscape:connector-curvature="0" />
    <path
       style="fill:#000000;fill-opacity:0.19607801;fill-rule:nonzero;stroke:none;stroke-width:0.75"
       d="M 63,59 84,80 V 59 Z m 0,0"
       id="path7"
       inkscape:connector-curvature="0" />
    <path
       style="fill:#ffffff;fill-opacity:0.39215698;fill-rule:nonzero;stroke:none;stroke-width:0.75"
       d="M 57,32 83.976562,59 H 61.136719 C 59.115234,59 57,56.861328 57,54.839844 Z m 0,0"
       id="path9"
       inkscape:connector-curvature="0" />
    <path
       style="fill:#ffffff;fill-opacity:1;fill-rule:nonzero;stroke:none;stroke-width:0.75"
       d="M 34.933594,65 C 33.878906,65.099609 32.976562,66.21875 33,67.408203 V 92.650391 C 33.01172,93.892578 34.001953,95.011719 35.109375,95 H 60.943359 C 62.033203,94.976562 62.988281,93.880859 63,92.650391 V 67.408203 C 63.023437,66.154296 62.056641,65.011719 60.943359,65 Z M 36,68 h 24 v 17.103516 l -7.054688,-7.97461 -1.769531,1.699219 -2.701172,2.460937 L 46.822266,79.642578 42.580078,73.90625 36,82.396484 Z m 0,0"
       id="path11"
       inkscape:connector-curvature="0" />
    <path
       style="fill:#000000;fill-opacity:0.19607801;fill-rule:nonzero;stroke:none;stroke-width:0.75"
       d="m 12,104 v 20.00391 C 12,125.94922 14.0625,128 15.996094,128 H 80.00391 C 81.9375,128 84,125.94922 84,124.00391 V 104 Z m 0,0"
       id="path13"
       inkscape:connector-curvature="0" />
    <path
       style="fill:#ffffff;fill-opacity:1;fill-rule:nonzero;stroke:none;stroke-width:0.75"
       d="m 40.013671,108.67579 v 2.68944 h -4.722655 v 13.61133 H 31.6875 v -13.61133 h -4.740234 v -2.68944 h 13.066405"
       id="path15"
       inkscape:connector-curvature="0" />
    <path
       style="fill:#ffffff;fill-opacity:1;fill-rule:nonzero;stroke:none;stroke-width:0.75"
       d="m 49.798828,111.13086 c -0.861328,0 -1.570312,0.13477 -2.15625,0.42187 -0.574219,0.2754 -1.060547,0.67383 -1.447266,1.1836 -0.363281,0.48633 -0.632812,1.08398 -0.808593,1.78125 -0.164063,0.68555 -0.240235,1.45898 -0.240235,2.29688 0,1.95702 0.339844,3.39258 1.025391,4.32421 0.673828,0.90821 1.669921,1.3711 2.988281,1.3711 0.216797,0 0.439453,-0.0117 0.691406,-0.0234 0.257813,-0.0234 0.480469,-0.0527 0.697266,-0.0879 v -5.94727 h 3.574218 v 8.13868 c -0.421875,0.14062 -1.095702,0.30468 -2.003905,0.4746 -0.884766,0.17578 -1.96875,0.26367 -3.257813,0.26367 -1.119141,0 -2.126953,-0.17577 -3.041016,-0.52148 -0.896484,-0.375 -1.658203,-0.91406 -2.291016,-1.61133 -0.638671,-0.7207 -1.136718,-1.60546 -1.482421,-2.66602 -0.351563,-1.07226 -0.527344,-2.30859 -0.527344,-3.71484 0,-1.38281 0.199219,-2.60742 0.615235,-3.65039 0.410155,-1.07227 0.955078,-1.97461 1.658203,-2.69531 0.697265,-0.72071 1.517577,-1.25977 2.466797,-1.60547 0.943359,-0.375 1.95703,-0.55078 3.041015,-0.55078 0.697265,0 1.31836,0.0527 1.857422,0.15235 0.5625,0.082 1.048828,0.19921 1.458984,0.32226 0.398438,0.12305 0.732422,0.24609 0.984375,0.38672 0.263672,0.14648 0.474609,0.24609 0.609375,0.32227 l -0.931641,2.57812 c -0.427734,-0.2461 -0.949218,-0.45703 -1.570312,-0.65625 -0.615234,-0.1875 -1.248047,-0.28711 -1.910156,-0.28711"
       id="path17"
       inkscape:connector-curvature="0" />
    <path
       style="fill:#ffffff;fill-opacity:1;fill-rule:nonzero;stroke:none;stroke-width:0.75"
       d="m 65.666016,124.97656 -0.832032,-3.76171 h -4.787109 l -0.826172,3.76171 h -3.714844 c 0.861328,-3.19921 1.722657,-6.1289 2.595703,-8.75976 0.861329,-2.6543 1.705079,-5.17383 2.519532,-7.54101 h 3.884765 c 0.84961,2.39062 1.699219,4.92187 2.53125,7.61718 0.84961,2.66601 1.669922,5.57226 2.472657,8.68359 h -3.84375 m -3.1875,-13.13671 c -0.1875,0.60937 -0.375,1.19531 -0.550782,1.75781 -0.146484,0.55078 -0.310547,1.0957 -0.46289,1.63476 -0.134766,0.53321 -0.269532,1.07227 -0.410157,1.60547 -0.111328,0.55078 -0.222656,1.11328 -0.345703,1.69922 h 3.509766 c -0.111329,-0.58594 -0.234375,-1.14844 -0.345704,-1.69922 -0.111327,-0.5332 -0.251952,-1.07226 -0.410155,-1.60547 -0.128907,-0.53906 -0.28711,-1.08398 -0.462891,-1.63476 -0.152344,-0.5625 -0.322266,-1.14844 -0.521484,-1.75781"
       id="path19"
       inkscape:connector-curvature="0" />
  </g>
</svg>
