<?xml version="1.0" encoding="UTF-8" standalone="no"?>
<svg
   xmlns:dc="http://purl.org/dc/elements/1.1/"
   xmlns:cc="http://creativecommons.org/ns#"
   xmlns:rdf="http://www.w3.org/1999/02/22-rdf-syntax-ns#"
   xmlns:svg="http://www.w3.org/2000/svg"
   xmlns="http://www.w3.org/2000/svg"
   xmlns:sodipodi="http://sodipodi.sourceforge.net/DTD/sodipodi-0.dtd"
   xmlns:inkscape="http://www.inkscape.org/namespaces/inkscape"
   width="96"
   height="96"
   viewBox="0 0 96 96"
   version="1.1"
   id="svg2"
   inkscape:version="0.92.2 (5c3e80d, 2017-08-06)"
   sodipodi:docname="application-x-arj.svg">
  <metadata
     id="metadata35">
    <rdf:RDF>
      <cc:Work
         rdf:about="">
        <dc:format>image/svg+xml</dc:format>
        <dc:type
           rdf:resource="http://purl.org/dc/dcmitype/StillImage" />
        <dc:title></dc:title>
      </cc:Work>
    </rdf:RDF>
  </metadata>
  <defs
     id="defs33" />
  <sodipodi:namedview
     pagecolor="#ffffff"
     bordercolor="#666666"
     borderopacity="1"
     objecttolerance="10"
     gridtolerance="10"
     guidetolerance="10"
     inkscape:pageopacity="0"
     inkscape:pageshadow="2"
     inkscape:window-width="2167"
     inkscape:window-height="1349"
     id="namedview31"
     showgrid="false"
     inkscape:zoom="1.84375"
     inkscape:cx="-55.59322"
     inkscape:cy="64"
     inkscape:window-x="103"
     inkscape:window-y="55"
     inkscape:window-maximized="0"
     inkscape:current-layer="surface1" />
  <g
     id="surface1"
     transform="translate(0,-32)">
    <path
       style="fill:#45606e;fill-opacity:1;fill-rule:nonzero;stroke:none;stroke-width:0.75"
       d="M 16.007812,32 C 13.945313,32 12,34.033203 12,36.183594 V 123.81641 C 12,125.84961 14.0625,128 16.007812,128 H 79.992187 C 81.9375,128 84,125.84961 84,123.81641 V 59 L 57,32 Z m 0,0"
       id="path5"
       inkscape:connector-curvature="0" />
    <path
       style="fill:#000000;fill-opacity:0.19607801;fill-rule:nonzero;stroke:none;stroke-width:0.75"
       d="m 12,104 v 20.00391 C 12,125.94922 14.0625,128 15.996094,128 H 80.00391 C 81.9375,128 84,125.94922 84,124.00391 V 104 Z m 0,0"
       id="path7"
       inkscape:connector-curvature="0" />
    <path
       style="fill:#ffffff;fill-opacity:1;fill-rule:nonzero;stroke:none;stroke-width:0.75"
       d="m 37.283203,124.98242 -0.849609,-3.75 h -4.845703 l -0.826172,3.75 H 27 c 0.861328,-3.19921 1.734375,-6.12304 2.619141,-8.74804 0.884765,-2.64258 1.734375,-5.1504 2.560546,-7.51172 h 3.9375 c 0.861329,2.37305 1.710938,4.9043 2.560547,7.58789 0.855469,2.67187 1.681641,5.56055 2.496094,8.67187 h -3.890625 m -3.222657,-13.11328 c -0.193359,0.61524 -0.380859,1.20703 -0.5625,1.75782 -0.164062,0.54492 -0.310546,1.08398 -0.46875,1.64062 -0.134765,0.51563 -0.26953,1.05469 -0.404296,1.59375 -0.123047,0.54492 -0.246094,1.10742 -0.357422,1.6875 h 3.550781 c -0.123047,-0.58008 -0.228515,-1.14258 -0.351563,-1.6875 -0.111327,-0.53906 -0.246093,-1.07812 -0.410155,-1.59375 -0.134766,-0.55664 -0.29297,-1.0957 -0.46875,-1.64062 -0.158204,-0.55079 -0.328125,-1.14258 -0.527345,-1.75782"
       id="path9"
       inkscape:connector-curvature="0" />
    <path
       style="fill:#000000;fill-opacity:0.19607801;fill-rule:nonzero;stroke:none;stroke-width:0.75"
       d="M 63,59 84,80 V 59 Z m 0,0"
       id="path11"
       inkscape:connector-curvature="0" />
    <path
       style="fill:#ffffff;fill-opacity:1;fill-rule:nonzero;stroke:none;stroke-width:0.75"
       d="m 47.71875,108.53516 c 1.042969,0 1.980469,0.0996 2.830078,0.31055 0.832031,0.20508 1.558593,0.53906 2.162109,0.96679 0.615234,0.44531 1.072266,1.01367 1.388672,1.6875 0.333985,0.66211 0.492187,1.45313 0.492187,2.36133 0,0.94922 -0.205077,1.81055 -0.638671,2.58398 -0.427734,0.76173 -1.142579,1.35352 -2.150391,1.75782 0.328125,0.45703 0.685547,0.96093 1.054687,1.52929 0.38086,0.53906 0.738282,1.11914 1.095704,1.73438 0.345703,0.5918 0.679687,1.18945 0.996094,1.80468 0.333984,0.60352 0.615234,1.17188 0.849609,1.71094 h -3.791016 c -0.451171,-1.04296 -0.984375,-2.05078 -1.582031,-3.02344 -0.591797,-0.97265 -1.21875,-1.96875 -1.910156,-2.96484 h -1.880859 v 5.98828 h -3.615235 v -16.03125 c 0.357422,-0.0703 0.738281,-0.13476 1.142578,-0.18163 0.427735,-0.0762 0.861328,-0.11133 1.289062,-0.13477 0.433595,-0.0352 0.84961,-0.0644 1.242188,-0.0762 0.398437,-0.0234 0.726562,-0.0234 1.025391,-0.0234 m 3.210937,5.30273 c 0,-0.86133 -0.298828,-1.48828 -0.884766,-1.89258 -0.591796,-0.39844 -1.371093,-0.60352 -2.326171,-0.60352 -0.134766,0 -0.298829,0.0117 -0.492188,0.0234 -0.199218,0 -0.392578,0.0234 -0.591796,0.0586 v 4.88671 h 0.785155 c 1.242188,0 2.132813,-0.21093 2.683595,-0.62694 0.539062,-0.44532 0.826171,-1.06056 0.826171,-1.84571"
       id="path13"
       inkscape:connector-curvature="0" />
    <path
       style="fill:#ffffff;fill-opacity:0.39215698;fill-rule:nonzero;stroke:none;stroke-width:0.75"
       d="M 57,32 83.976562,59 H 61.136719 C 59.115234,59 57,56.861328 57,54.839844 Z m 0,0"
       id="path15"
       inkscape:connector-curvature="0" />
    <path
       style="fill:#ffffff;fill-opacity:1;fill-rule:nonzero;stroke:none;stroke-width:0.75"
       d="m 69,119.54492 c 0,0.79102 -0.123047,1.54102 -0.357422,2.23829 -0.222657,0.70312 -0.591797,1.30664 -1.119141,1.83398 -0.503906,0.52735 -1.166016,0.94922 -1.992187,1.26562 -0.826172,0.29883 -1.822266,0.44532 -3,0.44532 -1.230469,0 -2.267579,-0.13477 -3.087891,-0.41602 -0.826172,-0.28711 -1.517578,-0.62695 -2.080078,-1.03711 l 1.376953,-2.57227 c 0.492187,0.28712 1.03125,0.55665 1.611328,0.81446 0.615234,0.26953 1.230469,0.39258 1.857422,0.39258 0.9375,0 1.699219,-0.21094 2.261719,-0.65039 0.591797,-0.45703 0.873047,-1.29493 0.873047,-2.49609 v -7.9629 h -6.076172 v -2.67773 H 69 v 10.82226"
       id="path17"
       inkscape:connector-curvature="0" />
    <path
       style="fill:#f8f8f8;fill-opacity:1;fill-rule:evenodd;stroke:none;stroke-width:0.75"
       d="m 27,32 h 9 v 9 h -9 z m 0,0"
       id="path19"
       inkscape:connector-curvature="0" />
    <path
       style="fill:#f8f8f8;fill-opacity:1;fill-rule:evenodd;stroke:none;stroke-width:0.75"
       d="m 36,41 h 9 v 9 h -9 z m 0,0"
       id="path21"
       inkscape:connector-curvature="0" />
    <path
       style="fill:#f8f8f8;fill-opacity:1;fill-rule:evenodd;stroke:none;stroke-width:0.75"
       d="m 27,50 h 9 v 9 h -9 z m 0,0"
       id="path23"
       inkscape:connector-curvature="0" />
    <path
       style="fill:#f8f8f8;fill-opacity:1;fill-rule:evenodd;stroke:none;stroke-width:0.75"
       d="m 36,59 h 9 v 9 h -9 z m 0,0"
       id="path25"
       inkscape:connector-curvature="0" />
    <path
       style="fill:#f8f8f8;fill-opacity:1;fill-rule:evenodd;stroke:none;stroke-width:0.75"
       d="m 27,68 h 9 v 9 h -9 z m 0,0"
       id="path27"
       inkscape:connector-curvature="0" />
    <path
       style="fill:#f8f8f8;fill-opacity:1;fill-rule:evenodd;stroke:none;stroke-width:0.75"
       d="M 27,80 H 45 V 98 H 27 Z m 0,0"
       id="path29"
       inkscape:connector-curvature="0" />
  </g>
</svg>
