<?xml version="1.0" encoding="UTF-8" standalone="no"?>
<svg
   xmlns:dc="http://purl.org/dc/elements/1.1/"
   xmlns:cc="http://creativecommons.org/ns#"
   xmlns:rdf="http://www.w3.org/1999/02/22-rdf-syntax-ns#"
   xmlns:svg="http://www.w3.org/2000/svg"
   xmlns="http://www.w3.org/2000/svg"
   xmlns:sodipodi="http://sodipodi.sourceforge.net/DTD/sodipodi-0.dtd"
   xmlns:inkscape="http://www.inkscape.org/namespaces/inkscape"
   width="96"
   height="96"
   viewBox="0 0 96 96"
   version="1.1"
   id="svg11"
   sodipodi:docname="application-rss.svg"
   inkscape:version="0.92.2 (5c3e80d, 2017-08-06)">
  <metadata
     id="metadata17">
    <rdf:RDF>
      <cc:Work
         rdf:about="">
        <dc:format>image/svg+xml</dc:format>
        <dc:type
           rdf:resource="http://purl.org/dc/dcmitype/StillImage" />
        <dc:title></dc:title>
      </cc:Work>
    </rdf:RDF>
  </metadata>
  <defs
     id="defs15" />
  <sodipodi:namedview
     pagecolor="#ffffff"
     bordercolor="#666666"
     borderopacity="1"
     objecttolerance="10"
     gridtolerance="10"
     guidetolerance="10"
     inkscape:pageopacity="0"
     inkscape:pageshadow="2"
     inkscape:window-width="2238"
     inkscape:window-height="1219"
     id="namedview13"
     showgrid="false"
     inkscape:zoom="1.84375"
     inkscape:cx="-54.508475"
     inkscape:cy="64"
     inkscape:window-x="102"
     inkscape:window-y="55"
     inkscape:window-maximized="0"
     inkscape:current-layer="svg11" />
  <g
     id="surface1"
     transform="scale(0.75)">
    <path
       style="fill:#ff6300;fill-opacity:1;fill-rule:nonzero;stroke:none"
       d="M 21.34375,0 C 18.59375,0 16,2.710938 16,5.578125 V 122.42188 C 16,125.13281 18.75,128 21.34375,128 h 85.3125 C 109.25,128 112,125.13281 112,122.42188 V 36 L 76,0 Z m 0,0"
       id="path2"
       inkscape:connector-curvature="0" />
    <path
       style="fill:#000000;fill-opacity:0.19607801;fill-rule:nonzero;stroke:none"
       d="m 84,36 28,28 V 36 Z m 0,0"
       id="path4"
       inkscape:connector-curvature="0" />
    <path
       style="fill:#ffffff;fill-opacity:0.39215698;fill-rule:nonzero;stroke:none"
       d="m 76,0 35.96875,36 H 81.515625 C 78.820312,36 76,33.148438 76,30.453125 Z m 0,0"
       id="path6"
       inkscape:connector-curvature="0" />
    <path
       style="fill:#ffffff;fill-opacity:1;fill-rule:nonzero;stroke:none"
       d="m 36.203125,89.851562 c 0,-1.726562 0.59375,-3.171874 1.789063,-4.335937 1.179687,-1.179687 2.625,-1.78125 4.34375,-1.78125 1.679687,0 3.101562,0.601563 4.265624,1.78125 1.1875,1.164063 1.773438,2.609375 1.773438,4.335937 0,1.671876 -0.585938,3.09375 -1.773438,4.296876 -1.164062,1.164062 -2.585937,1.734374 -4.265624,1.734374 -1.71875,0 -3.164063,-0.570312 -4.34375,-1.734374 -1.195313,-1.164063 -1.789063,-2.609376 -1.789063,-4.296876 M 35.84375,62.242188 v 10.171874 c 12.992188,0 23.554688,10.5625 23.554688,23.585938 h 10.203124 c 0,-18.648438 -15.140624,-33.757812 -33.757812,-33.757812 z M 35.859375,40 v 11.234375 c 24.671875,0 44.695313,20.0625 44.695313,44.75 H 91.84375 C 91.84375,65.0625 66.75,40 35.859375,40 Z m 0,0"
       id="path8"
       inkscape:connector-curvature="0" />
  </g>
</svg>
