<?xml version="1.0" encoding="UTF-8" standalone="no"?>
<svg
   xmlns:dc="http://purl.org/dc/elements/1.1/"
   xmlns:cc="http://creativecommons.org/ns#"
   xmlns:rdf="http://www.w3.org/1999/02/22-rdf-syntax-ns#"
   xmlns:svg="http://www.w3.org/2000/svg"
   xmlns="http://www.w3.org/2000/svg"
   xmlns:sodipodi="http://sodipodi.sourceforge.net/DTD/sodipodi-0.dtd"
   xmlns:inkscape="http://www.inkscape.org/namespaces/inkscape"
   width="96"
   height="96"
   viewBox="0 0 96 96"
   version="1.1"
   id="svg15"
   sodipodi:docname="application-x-rpm.svg"
   inkscape:version="0.92.2 (5c3e80d, 2017-08-06)">
  <metadata
     id="metadata21">
    <rdf:RDF>
      <cc:Work
         rdf:about="">
        <dc:format>image/svg+xml</dc:format>
        <dc:type
           rdf:resource="http://purl.org/dc/dcmitype/StillImage" />
        <dc:title></dc:title>
      </cc:Work>
    </rdf:RDF>
  </metadata>
  <defs
     id="defs19" />
  <sodipodi:namedview
     pagecolor="#ffffff"
     bordercolor="#666666"
     borderopacity="1"
     objecttolerance="10"
     gridtolerance="10"
     guidetolerance="10"
     inkscape:pageopacity="0"
     inkscape:pageshadow="2"
     inkscape:window-width="1756"
     inkscape:window-height="1097"
     id="namedview17"
     showgrid="false"
     inkscape:zoom="1.84375"
     inkscape:cx="19.515586"
     inkscape:cy="62.915254"
     inkscape:window-x="859"
     inkscape:window-y="342"
     inkscape:window-maximized="0"
     inkscape:current-layer="svg15" />
  <g
     id="surface1"
     transform="scale(0.75)">
    <path
       style="fill:#bf9451;fill-opacity:1;fill-rule:nonzero;stroke:none"
       d="M 21.484375,16 C 18.75,16 16,18.75 16,21.484375 V 106.67188 C 16,109.25 18.75,112 21.328125,112 H 106.67188 C 109.25,112 112,109.25 112,106.67188 V 21.328125 C 112,18.75 109.25,16 106.67188,16 Z m 0,0"
       id="path2"
       inkscape:connector-curvature="0" />
    <path
       style="fill:#ffffff;fill-opacity:0.19607801;fill-rule:nonzero;stroke:none"
       d="M 21.484375,16 C 18.75,16 16,18.75 16,21.484375 V 48 c 10.671875,0 85.32813,0 96,0 V 21.328125 C 112,18.75 109.25,16 106.67188,16 Z m 0,0"
       id="path4"
       inkscape:connector-curvature="0" />
    <path
       style="fill:#ffffff;fill-opacity:0.39215698;fill-rule:nonzero;stroke:none"
       d="M 56,28 V 68 H 72 V 28 Z m 0,0"
       id="path6"
       inkscape:connector-curvature="0" />
    <path
       style="fill:#ffffff;fill-opacity:1;fill-rule:nonzero;stroke:none"
       d="m 43.328125,80 c 1.328125,0 2.53125,0.140625 3.59375,0.40625 1.078125,0.28125 2,0.6875 2.78125,1.265625 0.765625,0.5625 1.359375,1.296875 1.765625,2.171875 0.421875,0.875 0.625,1.890625 0.625,3.078125 0,1.21875 -0.265625,2.328125 -0.8125,3.328125 -0.5625,1 -1.46875,1.765625 -2.734375,2.296875 0.421875,0.578125 0.875,1.25 1.34375,1.96875 0.46875,0.703125 0.9375,1.453125 1.390625,2.25 0.4375,0.765625 0.875,1.5625 1.265625,2.359375 0.421875,0.765625 0.796875,1.5 1.09375,2.20313 h -4.84375 c -0.5625,-1.35938 -1.25,-2.67188 -2.015625,-3.92188 -0.75,-1.265625 -1.5625,-2.546875 -2.4375,-3.84375 H 41.9375 v 7.76563 H 37.328125 V 80.546875 C 37.78125,80.453125 38.265625,80.375 38.796875,80.3125 39.34375,80.21875 39.890625,80.15625 40.4375,80.140625 41,80.09375 41.515625,80.0625 42.015625,80.03125 42.515625,80.015625 42.953125,80 43.328125,80 m 4.09375,6.890625 c 0,-1.125 -0.375,-1.9375 -1.125,-2.453125 -0.75,-0.53125 -1.75,-0.796875 -2.96875,-0.796875 -0.171875,0 -0.390625,0.01563 -0.640625,0.04687 -0.25,0 -0.5,0.01563 -0.75,0.0625 v 6.34375 h 1.015625 c 1.578125,0 2.71875,-0.28125 3.40625,-0.828125 0.703125,-0.5625 1.0625,-1.359375 1.0625,-2.375"
       id="path8"
       inkscape:connector-curvature="0" />
    <path
       style="fill:#ffffff;fill-opacity:1;fill-rule:nonzero;stroke:none"
       d="m 62.4375,80 c 2.953125,0 5.234375,0.5625 6.859375,1.671875 1.625,1.09375 2.4375,2.890625 2.4375,5.375 0,2.53125 -0.8125,4.359375 -2.46875,5.5 -1.625,1.109375 -3.9375,1.65625 -6.9375,1.65625 H 60.6875 v 7.125005 H 56.078125 V 80.515625 c 0.4375,-0.09375 0.9375,-0.171875 1.5,-0.25 0.5625,-0.0625 1.140625,-0.109375 1.71875,-0.125 C 59.875,80.09375 60.4375,80.0625 60.984375,80.03125 61.53125,80.015625 62.015625,80 62.4375,80 m 0.53125,3.640625 c -0.28125,0 -0.65625,0.01563 -1.15625,0.04687 -0.484375,0 -0.859375,0.01563 -1.125,0.0625 v 6.8125 h 1.875 c 1.46875,0 2.578125,-0.265625 3.328125,-0.78125 0.75,-0.546875 1.125,-1.46875 1.125,-2.765625 0,-1.21875 -0.375,-2.078125 -1.125,-2.578125 C 65.171875,83.906245 64.1875,83.64062 62.96875,83.64062"
       id="path10"
       inkscape:connector-curvature="0" />
    <path
       style="fill:#ffffff;fill-opacity:1;fill-rule:nonzero;stroke:none"
       d="m 78.828125,80.234375 c 0.171875,0.484375 0.375,1.09375 0.625,1.84375 0.28125,0.75 0.5625,1.5625 0.875,2.421875 0.296875,0.859375 0.59375,1.734375 0.890625,2.625 0.296875,0.890625 0.59375,1.703125 0.859375,2.453125 0.3125,-0.84375 0.625,-1.703125 0.9375,-2.59375 0.328125,-0.90625 0.640625,-1.765625 0.9375,-2.59375 0.296875,-0.828125 0.578125,-1.625 0.828125,-2.34375 0.25,-0.734375 0.46875,-1.328125 0.671875,-1.8125 h 3.828125 c 0.171875,1.84375 0.34375,3.640625 0.484375,5.390625 0.171875,1.75 0.3125,3.484375 0.40625,5.21875 0.125,1.703125 0.234375,3.421875 0.3125,5.171875 0.0625,1.734375 0.125,3.5 0.1875,5.312505 H 86.4375 L 86.65625,84.9375 83.8125,93.875 h -3.375 l -2.734375,-8.9375 0.1875,16.39063 H 73.65625 c 0.0625,-1.718755 0.140625,-3.51563 0.21875,-5.375005 0.09375,-1.875 0.203125,-3.71875 0.296875,-5.5625 0.109375,-1.84375 0.21875,-3.625 0.34375,-5.34375 C 74.65625,83.3125 74.828125,81.71875 75,80.234375 h 3.828125"
       id="path12"
       inkscape:connector-curvature="0" />
  </g>
</svg>
