<?xml version="1.0" encoding="UTF-8" standalone="no"?>
<svg
   xmlns:dc="http://purl.org/dc/elements/1.1/"
   xmlns:cc="http://creativecommons.org/ns#"
   xmlns:rdf="http://www.w3.org/1999/02/22-rdf-syntax-ns#"
   xmlns:svg="http://www.w3.org/2000/svg"
   xmlns="http://www.w3.org/2000/svg"
   xmlns:sodipodi="http://sodipodi.sourceforge.net/DTD/sodipodi-0.dtd"
   xmlns:inkscape="http://www.inkscape.org/namespaces/inkscape"
   width="96"
   height="96"
   viewBox="0 0 96 96"
   version="1.1"
   id="svg23"
   sodipodi:docname="application-vnd.oasis.opendocument.database.svg"
   inkscape:version="0.92.2 (5c3e80d, 2017-08-06)">
  <metadata
     id="metadata29">
    <rdf:RDF>
      <cc:Work
         rdf:about="">
        <dc:format>image/svg+xml</dc:format>
        <dc:type
           rdf:resource="http://purl.org/dc/dcmitype/StillImage" />
        <dc:title></dc:title>
      </cc:Work>
    </rdf:RDF>
  </metadata>
  <defs
     id="defs27" />
  <sodipodi:namedview
     pagecolor="#ffffff"
     bordercolor="#666666"
     borderopacity="1"
     objecttolerance="10"
     gridtolerance="10"
     guidetolerance="10"
     inkscape:pageopacity="0"
     inkscape:pageshadow="2"
     inkscape:window-width="2083"
     inkscape:window-height="1171"
     id="namedview25"
     showgrid="false"
     inkscape:zoom="1.84375"
     inkscape:cx="-55.59322"
     inkscape:cy="64"
     inkscape:window-x="423"
     inkscape:window-y="204"
     inkscape:window-maximized="0"
     inkscape:current-layer="svg23" />
  <g
     id="surface1"
     transform="scale(0.75)">
    <path
       style="fill:#a13538;fill-opacity:1;fill-rule:nonzero;stroke:none"
       d="M 21.34375,0 C 18.59375,0 16,2.710938 16,5.578125 V 122.42188 C 16,125.13281 18.75,128 21.34375,128 h 85.3125 C 109.25,128 112,125.13281 112,122.42188 V 36 L 76,0 Z m 0,0"
       id="path2"
       inkscape:connector-curvature="0" />
    <path
       style="fill:#000000;fill-opacity:0.19607801;fill-rule:nonzero;stroke:none"
       d="m 16,96 v 26.67188 C 16,125.26563 18.75,128 21.328125,128 H 106.67188 C 109.25,128 112,125.26563 112,122.67188 V 96 Z m 0,0"
       id="path4"
       inkscape:connector-curvature="0" />
    <path
       style="fill:#000000;fill-opacity:0.19607801;fill-rule:nonzero;stroke:none"
       d="m 84,36 28,28 V 36 Z m 0,0"
       id="path6"
       inkscape:connector-curvature="0" />
    <path
       style="fill:#ffffff;fill-opacity:1;fill-rule:nonzero;stroke:none"
       d="m 41.226562,112.4375 c 0,1.07031 0.05469,2.07813 0.117188,3.01563 0.117188,0.92187 0.304688,1.73437 0.554688,2.42187 0.304687,0.6875 0.6875,1.21875 1.195312,1.625 0.5,0.39844 1.1875,0.60156 2.023438,0.60156 0.820312,0 1.492187,-0.20312 2,-0.60156 0.515624,-0.40625 0.921874,-0.9375 1.1875,-1.625 0.28125,-0.72656 0.46875,-1.53125 0.554687,-2.45312 0.101563,-0.92188 0.148437,-1.91407 0.148437,-2.98438 0,-1.05469 -0.04687,-2.04687 -0.148437,-2.96875 -0.08594,-0.95312 -0.273437,-1.75781 -0.554687,-2.44531 -0.265626,-0.6875 -0.65625,-1.22656 -1.15625,-1.625 -0.5,-0.40625 -1.171876,-0.60938 -2.03125,-0.60938 -0.835938,0 -1.523438,0.20313 -2.023438,0.60938 -0.507812,0.39844 -0.890625,0.95312 -1.195312,1.65625 -0.25,0.6875 -0.4375,1.49219 -0.554688,2.41406 -0.0625,0.92188 -0.117188,1.91406 -0.117188,2.96875 m -4.960937,0 c 0,-3.77344 0.789063,-6.625 2.34375,-8.53125 1.5625,-1.94531 3.726563,-2.90625 6.507813,-2.90625 2.882812,0 5.085937,0.96094 6.59375,2.90625 1.507812,1.90625 2.257812,4.75781 2.257812,8.53125 0,3.78906 -0.765625,6.64063 -2.296875,8.58594 -1.539063,1.91406 -3.703125,2.86719 -6.5,2.86719 -2.890625,0 -5.101563,-0.95313 -6.640625,-2.86719 -1.507812,-1.94531 -2.265625,-4.79688 -2.265625,-8.58594"
       id="path8"
       inkscape:connector-curvature="0" />
    <path
       style="fill:#ffffff;fill-opacity:1;fill-rule:nonzero;stroke:none"
       d="m 62.070312,119.88281 c 0.132813,0.0312 0.289063,0.0312 0.4375,0.0312 0.148438,0 0.296876,0 0.4375,0 1.101563,0 2.039063,-0.17968 2.78125,-0.54687 0.75,-0.39063 1.375,-0.90625 1.828126,-1.5625 0.46875,-0.67188 0.804687,-1.44531 0.984374,-2.35156 0.203126,-0.92188 0.320313,-1.92188 0.320313,-3.01563 0,-0.9375 -0.07813,-1.85937 -0.234375,-2.75 -0.164062,-0.90625 -0.453125,-1.69531 -0.835938,-2.38281 -0.40625,-0.6875 -0.9375,-1.21875 -1.625,-1.625 -0.6875,-0.4375 -1.578124,-0.63281 -2.671874,-0.63281 -0.195313,0 -0.453126,0 -0.703126,0.0312 -0.265624,0 -0.5,0.0156 -0.71875,0.0703 v 14.73437 m 11.757813,-7.44531 c 0,2.04688 -0.304687,3.77344 -0.875,5.21875 -0.570313,1.42188 -1.34375,2.57813 -2.351563,3.46875 -1,0.90625 -2.210937,1.55469 -3.617187,1.99219 -1.375,0.40625 -2.882813,0.58594 -4.5625,0.58594 -0.875,0 -1.726563,-0.0312 -2.578125,-0.13282 -0.828125,-0.0625 -1.695312,-0.20312 -2.65625,-0.38281 v -21.41406 c 1.109375,-0.20313 2.148438,-0.35156 3.140625,-0.42188 0.96875,-0.0625 1.890625,-0.0937 2.734375,-0.0937 1.609375,0 3.085938,0.19532 4.40625,0.63282 1.34375,0.42187 2.484375,1.09375 3.40625,2.01562 0.9375,0.90625 1.640625,2.0625 2.140625,3.46875 0.539063,1.39063 0.8125,3.08594 0.8125,5.0625"
       id="path10"
       inkscape:connector-curvature="0" />
    <path
       style="fill:#ffffff;fill-opacity:1;fill-rule:nonzero;stroke:none"
       d="m 93.507812,116.79688 c 0,1.32812 -0.25,2.42968 -0.75,3.33593 -0.507812,0.875 -1.195312,1.57813 -2.0625,2.13282 -0.859374,0.51562 -1.882812,0.89062 -3.070312,1.125 -1.15625,0.21875 -2.414062,0.3125 -3.773438,0.3125 -1.070312,0 -2.195312,-0.0469 -3.367187,-0.16407 -1.164063,-0.10156 -2.320313,-0.25 -3.460937,-0.46875 v -21.29687 c 0.945312,-0.13281 1.945312,-0.25 3.070312,-0.35156 1.109375,-0.11719 2.195312,-0.16407 3.289062,-0.16407 1.859376,0 3.351563,0.16407 4.523438,0.51563 1.15625,0.33594 2.078125,0.78906 2.734375,1.35937 0.671875,0.53907 1.125,1.15625 1.359375,1.82813 0.234375,0.6875 0.351562,1.375 0.351562,2.0625 0,1.03906 -0.28125,1.96094 -0.875,2.76562 -0.546874,0.80469 -1.304687,1.44532 -2.257812,1.91407 1.65625,0.53125 2.796875,1.27343 3.367188,2.19531 0.625,0.92187 0.921874,1.89062 0.921874,2.89844 M 81.90625,113.82813 v 5.95312 c 0.351562,0.0547 0.71875,0.0859 1.125,0.10156 0.414062,0.0312 0.820312,0.0312 1.21875,0.0312 0.554688,0 1.109375,-0.0312 1.632812,-0.10156 0.53125,-0.0937 0.984376,-0.25 1.390626,-0.44531 0.414062,-0.25781 0.765624,-0.57031 1.039062,-0.97656 0.25,-0.42188 0.382812,-0.95313 0.382812,-1.59375 0,-1.05469 -0.382812,-1.8125 -1.140624,-2.26563 -0.75,-0.46875 -1.757813,-0.70312 -3.015626,-0.70312 H 81.90625 m 1.914062,-3.61719 c 1.234376,0 2.179688,-0.23438 2.8125,-0.70313 0.640626,-0.50781 0.960938,-1.17968 0.960938,-2.03125 0,-0.52343 -0.101562,-0.92187 -0.289062,-1.22656 -0.1875,-0.33594 -0.4375,-0.58594 -0.757813,-0.75 -0.3125,-0.1875 -0.6875,-0.30469 -1.101563,-0.35156 -0.421874,-0.0703 -0.859374,-0.10156 -1.3125,-0.10156 -0.367187,0 -0.75,0 -1.15625,0.0312 -0.382812,0.0156 -0.75,0.0469 -1.070312,0.10156 v 5.03125 h 1.914062"
       id="path12"
       inkscape:connector-curvature="0" />
    <path
       style="fill:#ffffff;fill-opacity:0.39215698;fill-rule:nonzero;stroke:none"
       d="m 76,0 35.96875,36 H 81.515625 C 78.820312,36 76,33.148438 76,30.453125 Z m 0,0"
       id="path14"
       inkscape:connector-curvature="0" />
    <path
       style="fill:#ffffff;fill-opacity:1;fill-rule:nonzero;stroke:none"
       d="m 64,43.984375 c -11.046875,0 -20,2.796875 -20,6.257813 v 4.992187 c 0,3.460937 8.953125,6.257813 20,6.257813 11.046875,0 20,-2.796876 20,-6.257813 V 50.242188 C 84,46.78125 75.046875,43.984375 64,43.984375 Z m 0,0"
       id="path16"
       inkscape:connector-curvature="0" />
    <path
       style="fill:#ffffff;fill-opacity:1;fill-rule:nonzero;stroke:none"
       d="m 63.9375,63.984375 c -8.960938,0 -16.507812,-1.828125 -19.054688,-4.367187 C 44.28125,60.203125 44,60.835938 44,61.492188 v 5 C 44,69.945312 52.953125,72.75 64,72.75 c 11.046875,0 20,-2.804688 20,-6.257812 v -5 c 0,-0.65625 -0.351562,-1.289063 -0.9375,-1.875 -2.546875,2.539062 -10.171875,4.367187 -19.125,4.367187 z m 0,0"
       id="path18"
       inkscape:connector-curvature="0" />
    <path
       style="fill:#ffffff;fill-opacity:1;fill-rule:nonzero;stroke:none"
       d="M 63.9375,75.234375 C 54.976562,75.234375 47.429688,73.40625 44.882812,70.875 44.28125,71.460938 44,72.085938 44,72.75 v 4.992188 C 44,81.203125 52.953125,84 64,84 75.046875,84 84,81.203125 84,77.742188 V 72.75 c 0,-0.664062 -0.351562,-1.289062 -0.9375,-1.875 -2.546875,2.53125 -10.171875,4.359375 -19.125,4.359375 z m 0,0"
       id="path20"
       inkscape:connector-curvature="0" />
  </g>
</svg>
