<?xml version="1.0" encoding="UTF-8" standalone="no"?>
<svg
   xmlns:dc="http://purl.org/dc/elements/1.1/"
   xmlns:cc="http://creativecommons.org/ns#"
   xmlns:rdf="http://www.w3.org/1999/02/22-rdf-syntax-ns#"
   xmlns:svg="http://www.w3.org/2000/svg"
   xmlns="http://www.w3.org/2000/svg"
   xmlns:sodipodi="http://sodipodi.sourceforge.net/DTD/sodipodi-0.dtd"
   xmlns:inkscape="http://www.inkscape.org/namespaces/inkscape"
   width="96"
   height="96"
   viewBox="0 0 96 96"
   version="1.1"
   id="svg15"
   sodipodi:docname="application-x-deb.svg"
   inkscape:version="0.92.2 (5c3e80d, 2017-08-06)">
  <metadata
     id="metadata21">
    <rdf:RDF>
      <cc:Work
         rdf:about="">
        <dc:format>image/svg+xml</dc:format>
        <dc:type
           rdf:resource="http://purl.org/dc/dcmitype/StillImage" />
        <dc:title></dc:title>
      </cc:Work>
    </rdf:RDF>
  </metadata>
  <defs
     id="defs19" />
  <sodipodi:namedview
     pagecolor="#ffffff"
     bordercolor="#666666"
     borderopacity="1"
     objecttolerance="10"
     gridtolerance="10"
     guidetolerance="10"
     inkscape:pageopacity="0"
     inkscape:pageshadow="2"
     inkscape:window-width="2057"
     inkscape:window-height="1109"
     id="namedview17"
     showgrid="false"
     inkscape:zoom="1.84375"
     inkscape:cx="-54.508475"
     inkscape:cy="62.915254"
     inkscape:window-x="102"
     inkscape:window-y="55"
     inkscape:window-maximized="0"
     inkscape:current-layer="svg15" />
  <g
     id="surface1"
     transform="scale(0.75)">
    <path
       style="fill:#bf9451;fill-opacity:1;fill-rule:nonzero;stroke:none"
       d="M 21.484375,16 C 18.75,16 16,18.75 16,21.484375 V 106.67188 C 16,109.25 18.75,112 21.328125,112 H 106.67188 C 109.25,112 112,109.25 112,106.67188 V 21.328125 C 112,18.75 109.25,16 106.67188,16 Z m 0,0"
       id="path2"
       inkscape:connector-curvature="0" />
    <path
       style="fill:#ffffff;fill-opacity:0.19607801;fill-rule:nonzero;stroke:none"
       d="M 21.484375,16 C 18.75,16 16,18.75 16,21.484375 V 48 c 10.671875,0 85.32813,0 96,0 V 21.328125 C 112,18.75 109.25,16 106.67188,16 Z m 0,0"
       id="path4"
       inkscape:connector-curvature="0" />
    <path
       style="fill:#ffffff;fill-opacity:0.39215698;fill-rule:nonzero;stroke:none"
       d="M 56,28 V 68 H 72 V 28 Z m 0,0"
       id="path6"
       inkscape:connector-curvature="0" />
    <path
       style="fill:#ffffff;fill-opacity:1;fill-rule:nonzero;stroke:none"
       d="m 41.96875,97.703125 c 0.125,0.01563 0.265625,0.03125 0.421875,0.03125 0.140625,0 0.28125,0 0.40625,0 1.0625,0 1.9375,-0.1875 2.640625,-0.546875 0.734375,-0.359375 1.3125,-0.84375 1.734375,-1.46875 0.453125,-0.640625 0.765625,-1.375 0.9375,-2.21875 0.203125,-0.875 0.3125,-1.828125 0.3125,-2.859375 0,-0.90625 -0.07813,-1.78125 -0.234375,-2.625 C 48.03125,87.15625 47.78125,86.40625 47.390625,85.75 47.015625,85.109375 46.5,84.59375 45.859375,84.203125 c -0.65625,-0.40625 -1.5,-0.609375 -2.53125,-0.609375 -0.203125,0 -0.421875,0.01563 -0.6875,0.04687 -0.25,0 -0.46875,0.01563 -0.671875,0.0625 v 14 M 53.125,90.64062 c 0,1.921875 -0.28125,3.5625 -0.828125,4.9375 -0.53125,1.34375 -1.265625,2.453125 -2.21875,3.296875 -0.953125,0.859375 -2.109375,1.484385 -3.4375,1.890635 -1.296875,0.375 -2.75,0.5625 -4.328125,0.5625 -0.828125,0 -1.65625,-0.0469 -2.453125,-0.125 -0.78125,-0.0781 -1.625,-0.1875 -2.53125,-0.375 V 80.5 C 38.390625,80.296875 39.375,80.171875 40.3125,80.09375 41.234375,80.03125 42.109375,80 42.90625,80 c 1.53125,0 2.9375,0.203125 4.1875,0.609375 1.28125,0.40625 2.359375,1.046875 3.25,1.921875 0.875,0.84375 1.546875,1.9375 2.03125,3.296875 0.5,1.3125 0.75,2.921875 0.75,4.8125"
       id="path8"
       inkscape:connector-curvature="0" />
    <path
       style="fill:#ffffff;fill-opacity:1;fill-rule:nonzero;stroke:none"
       d="M 56.515625,101.0625 V 80.234375 H 70.65625 v 3.4375 h -9.5 v 4.671875 h 8.25 v 3.4375 h -8.25 V 97.625 h 10.328125 v 3.4375 h -14.96875"
       id="path10"
       inkscape:connector-curvature="0" />
    <path
       style="fill:#ffffff;fill-opacity:1;fill-rule:nonzero;stroke:none"
       d="m 90.671875,94.765625 c 0,1.265625 -0.25,2.3125 -0.71875,3.171875 -0.484375,0.828125 -1.140625,1.5 -1.96875,2.015625 -0.796875,0.500005 -1.765625,0.859375 -2.890625,1.078125 -1.109375,0.20313 -2.296875,0.29688 -3.578125,0.29688 -1.03125,0 -2.109375,-0.0469 -3.21875,-0.15625 -1.09375,-0.0937 -2.1875,-0.25 -3.265625,-0.4375 V 80.5 c 0.875,-0.125 1.84375,-0.234375 2.890625,-0.328125 C 78.984375,80.0625 80.03125,80 81.0625,80 c 1.75,0 3.1875,0.171875 4.296875,0.5 1.09375,0.3125 1.96875,0.75 2.59375,1.28125 0.625,0.515625 1.0625,1.09375 1.28125,1.75 0.21875,0.65625 0.34375,1.296875 0.34375,1.953125 0,0.984375 -0.28125,1.859375 -0.828125,2.625 -0.53125,0.765625 -1.25,1.375 -2.15625,1.8125 1.578125,0.515625 2.65625,1.21875 3.203125,2.09375 0.578125,0.875 0.875,1.796875 0.875,2.75 M 79.65625,91.9375 v 5.65625 c 0.328125,0.04687 0.6875,0.07813 1.0625,0.109375 0.40625,0.01563 0.796875,0.03125 1.171875,0.03125 0.515625,0 1.03125,-0.03125 1.546875,-0.109375 0.5,-0.07813 0.9375,-0.234375 1.3125,-0.4375 0.40625,-0.21875 0.734375,-0.515625 0.984375,-0.90625 0.25,-0.40625 0.375,-0.90625 0.375,-1.515625 0,-1 -0.375,-1.71875 -1.09375,-2.140625 -0.703125,-0.453125 -1.65625,-0.6875 -2.859375,-0.6875 h -2.5 m 1.8125,-3.421875 c 1.1875,0 2.078125,-0.234375 2.671875,-0.671875 0.609375,-0.46875 0.90625,-1.109375 0.90625,-1.921875 0,-0.5 -0.07813,-0.890625 -0.265625,-1.171875 -0.171875,-0.3125 -0.40625,-0.5625 -0.703125,-0.71875 -0.3125,-0.171875 -0.65625,-0.28125 -1.0625,-0.328125 -0.40625,-0.0625 -0.8125,-0.109375 -1.25,-0.109375 -0.34375,0 -0.703125,0.01563 -1.09375,0.04687 -0.375,0.01563 -0.703125,0.04687 -1.015625,0.09375 v 4.78125 h 1.8125"
       id="path12"
       inkscape:connector-curvature="0" />
  </g>
</svg>
