<?xml version="1.0" encoding="UTF-8" standalone="no"?>
<svg
   xmlns:dc="http://purl.org/dc/elements/1.1/"
   xmlns:cc="http://creativecommons.org/ns#"
   xmlns:rdf="http://www.w3.org/1999/02/22-rdf-syntax-ns#"
   xmlns:svg="http://www.w3.org/2000/svg"
   xmlns="http://www.w3.org/2000/svg"
   xmlns:sodipodi="http://sodipodi.sourceforge.net/DTD/sodipodi-0.dtd"
   xmlns:inkscape="http://www.inkscape.org/namespaces/inkscape"
   width="96"
   height="96"
   viewBox="0 0 96 96"
   version="1.1"
   id="svg11"
   sodipodi:docname="application-font.svg"
   inkscape:version="0.92.2 (5c3e80d, 2017-08-06)">
  <metadata
     id="metadata17">
    <rdf:RDF>
      <cc:Work
         rdf:about="">
        <dc:format>image/svg+xml</dc:format>
        <dc:type
           rdf:resource="http://purl.org/dc/dcmitype/StillImage" />
        <dc:title></dc:title>
      </cc:Work>
    </rdf:RDF>
  </metadata>
  <defs
     id="defs15" />
  <sodipodi:namedview
     pagecolor="#ffffff"
     bordercolor="#666666"
     borderopacity="1"
     objecttolerance="10"
     gridtolerance="10"
     guidetolerance="10"
     inkscape:pageopacity="0"
     inkscape:pageshadow="2"
     inkscape:window-width="2106"
     inkscape:window-height="1210"
     id="namedview13"
     showgrid="false"
     inkscape:zoom="1.84375"
     inkscape:cx="-55.59322"
     inkscape:cy="64"
     inkscape:window-x="570"
     inkscape:window-y="367"
     inkscape:window-maximized="0"
     inkscape:current-layer="svg11" />
  <g
     id="surface1"
     transform="scale(0.75)">
    <path
       style="fill:#dcdcdc;fill-opacity:1;fill-rule:nonzero;stroke:none"
       d="M 21.34375,0 C 18.59375,0 16,2.710938 16,5.578125 V 122.42188 C 16,125.13281 18.75,128 21.34375,128 h 85.3125 C 109.25,128 112,125.13281 112,122.42188 V 36 L 76,0 Z m 0,0"
       id="path2"
       inkscape:connector-curvature="0" />
    <path
       style="fill:#000000;fill-opacity:0.19607801;fill-rule:nonzero;stroke:none"
       d="m 84,36 28,28 V 36 Z m 0,0"
       id="path4"
       inkscape:connector-curvature="0" />
    <path
       style="fill:#ffffff;fill-opacity:0.39215698;fill-rule:nonzero;stroke:none"
       d="m 76,0 35.96875,36 H 81.515625 C 78.820312,36 76,33.148438 76,30.453125 Z m 0,0"
       id="path6"
       inkscape:connector-curvature="0" />
    <path
       style="fill:#515151;fill-opacity:1;fill-rule:nonzero;stroke:none"
       d="m 81.71875,40 -3.789062,45.546875 c -0.195313,2.132813 -0.296876,3.53125 -0.296876,4.203125 0,1.0625 0.195313,1.898438 0.554688,2.460938 0.460938,0.789062 1.085938,1.359374 1.875,1.734374 0.804688,0.382813 2.148438,0.5625 4.039062,0.5625 L 83.703125,96 h -19.625 l 0.414063,-1.492188 h 0.851562 c 1.59375,0 2.890625,-0.375 3.890625,-1.132812 0.703125,-0.507812 1.257813,-1.34375 1.65625,-2.546875 0.257813,-0.835937 0.523437,-2.789063 0.773437,-5.890625 L 72.234375,78 H 57.992188 l -5.070313,7.546875 c -1.148437,1.6875 -1.867187,2.921875 -2.164063,3.679687 -0.296874,0.71875 -0.445312,1.40625 -0.445312,2.046876 0,0.867187 0.328125,1.609374 0.953125,2.234374 0.640625,0.601563 1.6875,0.953126 3.164063,1 L 54.023438,96 h -14.71875 l 0.390624,-1.492188 c 1.820313,-0.08594 3.414063,-0.742187 4.78125,-1.96875 C 45.867188,91.273438 47.9375,88.585938 50.6875,84.5 L 80.4375,40 h 1.28125 M 74.453125,53.4375 60.007812,75.046875 H 72.53125 L 74.453125,53.4375"
       id="path8"
       inkscape:connector-curvature="0" />
  </g>
</svg>
