<?xml version="1.0" encoding="UTF-8" standalone="no"?>
<svg
   xmlns:dc="http://purl.org/dc/elements/1.1/"
   xmlns:cc="http://creativecommons.org/ns#"
   xmlns:rdf="http://www.w3.org/1999/02/22-rdf-syntax-ns#"
   xmlns:svg="http://www.w3.org/2000/svg"
   xmlns="http://www.w3.org/2000/svg"
   xmlns:sodipodi="http://sodipodi.sourceforge.net/DTD/sodipodi-0.dtd"
   xmlns:inkscape="http://www.inkscape.org/namespaces/inkscape"
   width="96"
   height="96"
   viewBox="0 0 96 96"
   version="1.1"
   id="svg11"
   sodipodi:docname="application-flash.svg"
   inkscape:version="0.92.2 (5c3e80d, 2017-08-06)">
  <metadata
     id="metadata17">
    <rdf:RDF>
      <cc:Work
         rdf:about="">
        <dc:format>image/svg+xml</dc:format>
        <dc:type
           rdf:resource="http://purl.org/dc/dcmitype/StillImage" />
        <dc:title></dc:title>
      </cc:Work>
    </rdf:RDF>
  </metadata>
  <defs
     id="defs15" />
  <sodipodi:namedview
     pagecolor="#ffffff"
     bordercolor="#666666"
     borderopacity="1"
     objecttolerance="10"
     gridtolerance="10"
     guidetolerance="10"
     inkscape:pageopacity="0"
     inkscape:pageshadow="2"
     inkscape:window-width="1964"
     inkscape:window-height="1183"
     id="namedview13"
     showgrid="false"
     inkscape:zoom="1.84375"
     inkscape:cx="-55.59322"
     inkscape:cy="64"
     inkscape:window-x="601"
     inkscape:window-y="349"
     inkscape:window-maximized="0"
     inkscape:current-layer="svg11" />
  <g
     id="surface1"
     transform="scale(0.75)">
    <path
       style="fill:#cc2828;fill-opacity:1;fill-rule:nonzero;stroke:none"
       d="M 21.34375,0 C 18.59375,0 16,2.710938 16,5.578125 V 122.42188 C 16,125.13281 18.75,128 21.34375,128 h 85.3125 C 109.25,128 112,125.13281 112,122.42188 V 36 L 76,0 Z m 0,0"
       id="path2"
       inkscape:connector-curvature="0" />
    <path
       style="fill:#ffffff;fill-opacity:1;fill-rule:evenodd;stroke:none"
       d="m 38.78125,89.882812 1.398438,10.710938 c 0,0 18.4375,5.82031 27.695312,-20.59375 H 84 V 68.203125 H 73.953125 c 0,0 4.6875,-12.296875 15.070313,-13.34375 0,-0.257813 -1.125,-10.195313 -1.125,-10.195313 0,0 -17.109376,-2.359374 -27.515626,23.007813 C 51.40625,92.5 38.78125,89.882812 38.78125,89.882812 Z m 0,0"
       id="path4"
       inkscape:connector-curvature="0" />
    <path
       style="fill:#000000;fill-opacity:0.19607801;fill-rule:nonzero;stroke:none"
       d="m 84,36 28,28 V 36 Z m 0,0"
       id="path6"
       inkscape:connector-curvature="0" />
    <path
       style="fill:#ffffff;fill-opacity:0.39215698;fill-rule:nonzero;stroke:none"
       d="m 76,0 35.96875,36 H 81.515625 C 78.820312,36 76,33.148438 76,30.453125 Z m 0,0"
       id="path8"
       inkscape:connector-curvature="0" />
  </g>
</svg>
