<?xml version="1.0" encoding="UTF-8" standalone="no"?>
<svg
   xmlns:dc="http://purl.org/dc/elements/1.1/"
   xmlns:cc="http://creativecommons.org/ns#"
   xmlns:rdf="http://www.w3.org/1999/02/22-rdf-syntax-ns#"
   xmlns:svg="http://www.w3.org/2000/svg"
   xmlns="http://www.w3.org/2000/svg"
   xmlns:sodipodi="http://sodipodi.sourceforge.net/DTD/sodipodi-0.dtd"
   xmlns:inkscape="http://www.inkscape.org/namespaces/inkscape"
   width="96"
   height="96"
   viewBox="0 0 96 96"
   version="1.1"
   id="svg11"
   sodipodi:docname="application-torrent.svg"
   inkscape:version="0.92.2 (5c3e80d, 2017-08-06)">
  <metadata
     id="metadata17">
    <rdf:RDF>
      <cc:Work
         rdf:about="">
        <dc:format>image/svg+xml</dc:format>
        <dc:type
           rdf:resource="http://purl.org/dc/dcmitype/StillImage" />
        <dc:title></dc:title>
      </cc:Work>
    </rdf:RDF>
  </metadata>
  <defs
     id="defs15" />
  <sodipodi:namedview
     pagecolor="#ffffff"
     bordercolor="#666666"
     borderopacity="1"
     objecttolerance="10"
     gridtolerance="10"
     guidetolerance="10"
     inkscape:pageopacity="0"
     inkscape:pageshadow="2"
     inkscape:window-width="2464"
     inkscape:window-height="1512"
     id="namedview13"
     showgrid="false"
     inkscape:zoom="1.84375"
     inkscape:cx="-55.59322"
     inkscape:cy="62.915254"
     inkscape:window-x="102"
     inkscape:window-y="70"
     inkscape:window-maximized="0"
     inkscape:current-layer="svg11" />
  <g
     id="surface1"
     transform="scale(0.75)">
    <path
       style="fill:#00853a;fill-opacity:1;fill-rule:nonzero;stroke:none"
       d="M 21.34375,0 C 18.59375,0 16,2.710938 16,5.578125 V 122.42188 C 16,125.13281 18.75,128 21.34375,128 h 85.3125 C 109.25,128 112,125.13281 112,122.42188 V 36 L 76,0 Z m 0,0"
       id="path2"
       inkscape:connector-curvature="0" />
    <path
       style="fill:#000000;fill-opacity:0.19607801;fill-rule:nonzero;stroke:none"
       d="m 84,36 28,28 V 36 Z m 0,0"
       id="path4"
       inkscape:connector-curvature="0" />
    <path
       style="fill:#ffffff;fill-opacity:0.39215698;fill-rule:nonzero;stroke:none"
       d="m 76,0 35.96875,36 H 81.515625 C 78.820312,36 76,33.148438 76,30.453125 Z m 0,0"
       id="path6"
       inkscape:connector-curvature="0" />
    <path
       style="fill:#ffffff;fill-opacity:1;fill-rule:nonzero;stroke:none"
       d="M 77.367188,96.554688 H 67.046875 c -3.132813,0 -6.21875,0.05469 -9.203125,-1.09375 -2.445312,-0.945313 -4.742188,-2.382813 -6.5625,-4.296876 C 45.242188,84.851562 44.4375,74.828125 49.914062,67.867188 53.25,63.625 58.390625,60.90625 63.835938,60.90625 c 1.476562,0 4.59375,-0.234375 5.21875,1.515625 0.328124,0.890625 -0.351563,1.914063 -1.28125,2.078125 -0.875,0.140625 -1.875,-0.296875 -2.765626,-0.3125 -2.609374,-0.03906 -4.960937,0.328125 -7.351562,1.40625 -8.859375,4.007812 -11.0625,17 -3.828125,23.578125 1.882813,1.71875 3.992187,3.007813 6.453125,3.648437 2.171875,0.585938 4.414062,0.453126 6.640625,0.453126 h 13.414063 c 0.570312,0 1.367187,0.148437 1.898437,-0.03125 C 82.65625,93.09375 83,92.65625 83.289062,92.34375 84.023438,91.617188 85.117188,90.8125 85.53125,89.851562 H 68.6875 c -2.023438,0 -4.15625,0.195313 -6.179688,-0.09375 -2.367187,-0.34375 -4.484374,-1.460937 -6.234374,-3.078124 -0.914063,-0.835938 -1.640626,-1.914063 -2.1875,-3.007813 C 50.75,76.984375 55.03125,69 62.328125,67.726562 c 1.257813,-0.242187 2.625,-0.164062 3.859375,0.08594 1.242188,0.242188 2.789062,0.695312 3.757812,1.53125 0.695313,0.601562 0.765626,1.585938 0.164063,2.28125 -0.875,1 -1.765625,0.382812 -2.734375,-0.03906 -0.75,-0.328126 -1.53125,-0.5625 -2.351562,-0.671876 -3.515626,-0.421874 -6.90625,1.546876 -8.257813,4.789063 -1.710937,4.085937 0.4375,8.992187 4.632813,10.445313 2.023437,0.695312 4.335937,0.421874 6.453124,0.421874 h 17.539063 c 0.6875,0 1.859375,0.21875 2.492187,-0.05469 0.257813,-0.09375 0.382813,-0.453125 0.515626,-0.671875 L 89.4375,83.796875 c 1.234375,-2.84375 2.078125,-5.742187 2.40625,-8.820313 1.382812,-12.851562 -6.453125,-25.09375 -18.617188,-29.4375 -9.5,-3.390624 -20.546874,-1.054687 -28,5.6875 -3.46875,3.15625 -5.960937,7.070313 -7.601562,11.445313 -2.171875,5.820313 -2.171875,12.945313 0.03125,18.757813 0.492188,1.328124 1.023438,2.640624 1.71875,3.882812 0.179688,0.328125 0.414062,1.078125 0.796875,1.203125 0.804687,0.3125 0.132813,-1.460937 0.05469,-1.734375 C 39.679688,82.578125 39.5,80.390625 39.5,78.132812 c 0,-9.625 6.507812,-18.46875 15.257812,-22.148437 2.625,-1.09375 5.632813,-1.804687 8.476563,-1.804687 0.40625,0 0.859375,-0.05469 1.257813,0.07031 0.898437,0.3125 1.445312,1.351562 0.984374,2.242188 -0.601562,1.1875 -1.820312,0.898437 -2.898437,0.984374 -2.328125,0.242188 -4.59375,0.695313 -6.757813,1.609376 -6.257812,2.625 -11.140624,8.3125 -12.546874,14.976562 -2.023438,9.460938 2.5,19.359375 11.210937,23.734375 3.6875,1.84375 7.710937,2.421877 11.78125,2.132813 2.859375,-0.203126 5.6875,-0.875 8.351563,-1.953126 0.820312,-0.34375 2.164062,-0.726562 2.75,-1.421874 z m 0,0"
       id="path8"
       inkscape:connector-curvature="0" />
  </g>
</svg>
