<?xml version="1.0" encoding="UTF-8" standalone="no"?>
<svg
   xmlns:dc="http://purl.org/dc/elements/1.1/"
   xmlns:cc="http://creativecommons.org/ns#"
   xmlns:rdf="http://www.w3.org/1999/02/22-rdf-syntax-ns#"
   xmlns:svg="http://www.w3.org/2000/svg"
   xmlns="http://www.w3.org/2000/svg"
   xmlns:sodipodi="http://sodipodi.sourceforge.net/DTD/sodipodi-0.dtd"
   xmlns:inkscape="http://www.inkscape.org/namespaces/inkscape"
   width="96"
   height="96"
   viewBox="0 0 96 96"
   version="1.1"
   id="svg15"
   sodipodi:docname="application-vnd.oasis.opendocument.spreadsheet-template.svg"
   inkscape:version="0.92.2 (5c3e80d, 2017-08-06)">
  <metadata
     id="metadata21">
    <rdf:RDF>
      <cc:Work
         rdf:about="">
        <dc:format>image/svg+xml</dc:format>
        <dc:type
           rdf:resource="http://purl.org/dc/dcmitype/StillImage" />
        <dc:title></dc:title>
      </cc:Work>
    </rdf:RDF>
  </metadata>
  <defs
     id="defs19" />
  <sodipodi:namedview
     pagecolor="#ffffff"
     bordercolor="#666666"
     borderopacity="1"
     objecttolerance="10"
     gridtolerance="10"
     guidetolerance="10"
     inkscape:pageopacity="0"
     inkscape:pageshadow="2"
     inkscape:window-width="2231"
     inkscape:window-height="1395"
     id="namedview17"
     showgrid="false"
     inkscape:zoom="1.84375"
     inkscape:cx="-55.59322"
     inkscape:cy="64"
     inkscape:window-x="102"
     inkscape:window-y="55"
     inkscape:window-maximized="0"
     inkscape:current-layer="svg15" />
  <g
     id="surface1"
     transform="scale(0.75)">
    <path
       style="fill:#1e7045;fill-opacity:1;fill-rule:nonzero;stroke:none"
       d="M 21.375,0 C 18.625,0 16,2.757812 16,5.625 v 116.75 c 0,2.70313 2.78125,5.625 5.375,5.625 h 85.25 c 2.59375,0 5.375,-2.92187 5.375,-5.625 V 5.5 C 112,2.804688 109.19531,0 106.5,0 Z m 0,0"
       id="path2"
       inkscape:connector-curvature="0" />
    <path
       style="fill:#ffffff;fill-opacity:1;fill-rule:nonzero;stroke:none"
       d="M 92,36 V 88 H 36 V 36 Z m -4,4 H 60 V 52 H 88 Z M 56,40 H 40 V 52 H 56 Z M 88,56 H 60 V 68 H 88 Z M 56,56 H 40 V 68 H 56 Z M 88,72 H 60 V 84 H 88 Z M 56,72 H 40 v 12 h 16 z m 0,0"
       id="path4"
       inkscape:connector-curvature="0" />
    <path
       style="fill:#000000;fill-opacity:0.19607801;fill-rule:nonzero;stroke:none"
       d="m 16,96 v 26.67188 C 16,125.26563 18.75,128 21.328125,128 H 106.67188 C 109.25,128 112,125.26563 112,122.67188 V 96 Z m 0,0"
       id="path6"
       inkscape:connector-curvature="0" />
    <path
       style="fill:#ffffff;fill-opacity:1;fill-rule:nonzero;stroke:none"
       d="m 40.945312,111.88281 c 0,1.13282 0.03125,2.19532 0.125,3.1875 0.125,0.97657 0.320313,1.82813 0.601563,2.5625 0.304687,0.72657 0.726563,1.28907 1.257813,1.71875 0.53125,0.42188 1.265624,0.64063 2.164062,0.64063 0.875,0 1.5625,-0.21875 2.117188,-0.64063 0.546874,-0.42968 0.976562,-0.99218 1.257812,-1.71875 0.320312,-0.76562 0.515625,-1.61718 0.585938,-2.59375 0.125,-0.97656 0.179687,-2.02343 0.179687,-3.15625 0,-1.125 -0.05469,-2.17187 -0.179687,-3.14062 -0.07031,-1.01563 -0.265626,-1.86719 -0.585938,-2.59375 -0.28125,-0.72656 -0.695312,-1.29688 -1.226562,-1.71875 -0.53125,-0.42969 -1.257813,-0.64063 -2.148438,-0.64063 -0.898438,0 -1.632812,0.21094 -2.164062,0.64063 -0.53125,0.42187 -0.953126,1.00781 -1.257813,1.75 -0.28125,0.73437 -0.476563,1.58594 -0.601563,2.5625 -0.09375,0.96875 -0.125,2.01562 -0.125,3.14062 m -5.289062,0 c 0,-4 0.835938,-7.01562 2.5,-9.03906 1.671875,-2.05469 3.976562,-3.070312 6.9375,-3.070312 3.070312,0 5.398438,1.015622 7.015625,3.070312 1.59375,2.02344 2.414063,5.03906 2.414063,9.03906 0,4.00782 -0.820313,7.02344 -2.453126,9.08594 -1.648437,2.02344 -3.953124,3.03125 -6.9375,3.03125 -3.070312,0 -5.429687,-1.00781 -7.0625,-3.03125 -1.601562,-2.0625 -2.414062,-5.07812 -2.414062,-9.08594"
       id="path8"
       inkscape:connector-curvature="0" />
    <path
       style="fill:#ffffff;fill-opacity:1;fill-rule:nonzero;stroke:none"
       d="M 75.726562,100.28906 V 104.125 H 68.84375 v 19.39844 H 63.609375 V 104.125 H 56.71875 v -3.83594 h 19.007812"
       id="path10"
       inkscape:connector-curvature="0" />
    <path
       style="fill:#ffffff;fill-opacity:1;fill-rule:nonzero;stroke:none"
       d="m 86.601562,120.13281 c 0.875,0 1.585938,-0.0703 2.148438,-0.21093 0.585938,-0.17969 1.070312,-0.41407 1.40625,-0.67969 0.335938,-0.29688 0.546875,-0.64063 0.671875,-0.97656 0.140625,-0.36719 0.210937,-0.75782 0.210937,-1.13282 0,-0.47656 -0.15625,-0.89062 -0.460937,-1.28125 -0.320313,-0.36718 -0.710937,-0.6875 -1.1875,-0.97656 -0.476563,-0.28125 -1.007813,-0.54687 -1.617187,-0.77344 -0.585938,-0.25 -1.171876,-0.48437 -1.773438,-0.67968 -0.78125,-0.25 -1.59375,-0.53125 -2.445312,-0.86719 -0.851563,-0.32031 -1.617188,-0.72656 -2.328126,-1.22656 -0.671874,-0.51563 -1.242187,-1.11719 -1.6875,-1.84375 -0.460937,-0.74219 -0.671874,-1.67188 -0.671874,-2.76563 0,-2.1875 0.78125,-3.89062 2.359374,-5.11719 1.617188,-1.21875 3.796876,-1.828122 6.601563,-1.828122 1.601563,0 3,0.164062 4.171875,0.484372 1.226562,0.32032 2.234375,0.6875 3.054688,1.07813 l -1.53125,3.57031 c -0.6875,-0.35937 -1.484376,-0.64062 -2.359376,-0.90625 -0.851562,-0.25 -1.828124,-0.375 -2.960937,-0.375 -2.765625,0 -4.132813,0.89063 -4.132813,2.66406 0,0.46094 0.140626,0.85157 0.421876,1.21094 0.265624,0.3125 0.625,0.61719 1.046874,0.89844 0.445313,0.25 0.945313,0.48437 1.476563,0.67969 0.5625,0.19531 1.117187,0.39062 1.648437,0.5625 0.8125,0.26562 1.664063,0.58593 2.539063,0.92187 0.90625,0.34375 1.71875,0.78125 2.445313,1.35156 0.765624,0.55469 1.382812,1.25782 1.867187,2.10938 0.476563,0.82031 0.726563,1.86719 0.726563,3.14062 0,2.1875 -0.820313,3.875 -2.414063,5.07813 C 92.25,123.41406 89.835938,124 86.601562,124 c -2.179687,0 -3.898437,-0.19531 -5.195312,-0.60156 -1.296875,-0.42969 -2.273438,-0.82031 -2.929688,-1.15625 L 80,118.48438 c 0.765625,0.40625 1.671875,0.78125 2.703125,1.13281 1.078125,0.33594 2.375,0.51562 3.898437,0.51562"
       id="path12"
       inkscape:connector-curvature="0" />
  </g>
</svg>
