<?xml version="1.0" encoding="UTF-8" standalone="no"?>
<svg
   xmlns:dc="http://purl.org/dc/elements/1.1/"
   xmlns:cc="http://creativecommons.org/ns#"
   xmlns:rdf="http://www.w3.org/1999/02/22-rdf-syntax-ns#"
   xmlns:svg="http://www.w3.org/2000/svg"
   xmlns="http://www.w3.org/2000/svg"
   xmlns:sodipodi="http://sodipodi.sourceforge.net/DTD/sodipodi-0.dtd"
   xmlns:inkscape="http://www.inkscape.org/namespaces/inkscape"
   width="96"
   height="96"
   viewBox="0 0 96 96"
   version="1.1"
   id="svg2"
   inkscape:version="0.92.2 (5c3e80d, 2017-08-06)"
   sodipodi:docname="application-image-psd.svg">
  <metadata
     id="metadata25">
    <rdf:RDF>
      <cc:Work
         rdf:about="">
        <dc:format>image/svg+xml</dc:format>
        <dc:type
           rdf:resource="http://purl.org/dc/dcmitype/StillImage" />
        <dc:title></dc:title>
      </cc:Work>
    </rdf:RDF>
  </metadata>
  <defs
     id="defs23" />
  <sodipodi:namedview
     pagecolor="#ffffff"
     bordercolor="#666666"
     borderopacity="1"
     objecttolerance="10"
     gridtolerance="10"
     guidetolerance="10"
     inkscape:pageopacity="0"
     inkscape:pageshadow="2"
     inkscape:window-width="2057"
     inkscape:window-height="1057"
     id="namedview21"
     showgrid="false"
     inkscape:zoom="1.84375"
     inkscape:cx="-55.59322"
     inkscape:cy="64"
     inkscape:window-x="441"
     inkscape:window-y="266"
     inkscape:window-maximized="0"
     inkscape:current-layer="surface1" />
  <g
     id="surface1"
     transform="translate(0,-32)">
    <path
       style="fill:#075e65;fill-opacity:1;fill-rule:nonzero;stroke:none;stroke-width:0.75"
       d="M 16.007812,32 C 13.945313,32 12,34.033203 12,36.183594 V 123.81641 C 12,125.84961 14.0625,128 16.007812,128 H 79.992187 C 81.9375,128 84,125.84961 84,123.81641 V 59 L 57,32 Z m 0,0"
       id="path5"
       inkscape:connector-curvature="0" />
    <path
       style="fill:#000000;fill-opacity:0.19607801;fill-rule:nonzero;stroke:none;stroke-width:0.75"
       d="M 63,59 84,80 V 59 Z m 0,0"
       id="path7"
       inkscape:connector-curvature="0" />
    <path
       style="fill:#ffffff;fill-opacity:0.39215698;fill-rule:nonzero;stroke:none;stroke-width:0.75"
       d="M 57,32 83.976562,59 H 61.136719 C 59.115234,59 57,56.861328 57,54.839844 Z m 0,0"
       id="path9"
       inkscape:connector-curvature="0" />
    <path
       style="fill:#ffffff;fill-opacity:1;fill-rule:nonzero;stroke:none;stroke-width:0.75"
       d="M 34.933594,65 C 33.878906,65.099609 32.976562,66.21875 33,67.408203 V 92.650391 C 33.01172,93.892578 34.001953,95.011719 35.109375,95 H 60.943359 C 62.033203,94.976562 62.988281,93.880859 63,92.650391 V 67.408203 C 63.023437,66.154296 62.056641,65.011719 60.943359,65 Z M 36,68 h 24 v 17.103516 l -7.054688,-7.97461 -1.769531,1.699219 -2.701172,2.460937 L 46.822266,79.642578 42.580078,73.90625 36,82.396484 Z m 0,0"
       id="path11"
       inkscape:connector-curvature="0" />
    <path
       style="fill:#000000;fill-opacity:0.19607801;fill-rule:nonzero;stroke:none;stroke-width:0.75"
       d="m 12,104 v 20.00391 C 12,125.94922 14.0625,128 15.996094,128 H 80.00391 C 81.9375,128 84,125.94922 84,124.00391 V 104 Z m 0,0"
       id="path13"
       inkscape:connector-curvature="0" />
    <path
       style="fill:#ffffff;fill-opacity:1;fill-rule:nonzero;stroke:none;stroke-width:0.75"
       d="m 32.115234,108.42383 c 2.361328,0 4.201172,0.43945 5.501953,1.30078 1.3125,0.84961 1.962891,2.23828 1.962891,4.17774 0,1.95117 -0.662109,3.375 -1.992187,4.24804 -1.294922,0.86133 -3.158204,1.30078 -5.560547,1.30078 h -1.324219 v 5.52539 H 27 v -16.15429 c 0.363281,-0.0586 0.761719,-0.12305 1.212891,-0.1875 0.451171,-0.0469 0.914062,-0.0879 1.376953,-0.0996 0.46289,-0.0352 0.914062,-0.0586 1.347656,-0.0762 0.451171,-0.0234 0.837891,-0.0352 1.177734,-0.0352 m 0.421875,2.83593 c -0.222656,0 -0.533203,0 -0.9375,0.0293 -0.375,0 -0.673828,0.0117 -0.896484,0.0469 v 5.29101 h 1.5 c 1.183594,0 2.074219,-0.21094 2.689453,-0.61523 0.597656,-0.42187 0.896484,-1.13672 0.896484,-2.13868 0,-0.94921 -0.298828,-1.62304 -0.896484,-2.00976 -0.591797,-0.39843 -1.365234,-0.60352 -2.355469,-0.60352"
       id="path15"
       inkscape:connector-curvature="0" />
    <path
       style="fill:#ffffff;fill-opacity:1;fill-rule:nonzero;stroke:none;stroke-width:0.75"
       d="m 47.396484,122.5918 c 0.621094,0 1.136719,-0.0527 1.535157,-0.15234 0.427734,-0.12305 0.75,-0.28711 0.990234,-0.47461 0.246094,-0.21094 0.398437,-0.45118 0.486328,-0.68555 0.09961,-0.26367 0.146484,-0.53907 0.146484,-0.80274 0,-0.33398 -0.111328,-0.62695 -0.333984,-0.90234 -0.210937,-0.25781 -0.503907,-0.48633 -0.837891,-0.68555 -0.339843,-0.19921 -0.726562,-0.38671 -1.136718,-0.55078 -0.427735,-0.17578 -0.84961,-0.33398 -1.265625,-0.4746 -0.5625,-0.17579 -1.148438,-0.375 -1.751953,-0.60938 -0.597657,-0.22852 -1.148438,-0.51562 -1.646485,-0.86719 -0.492187,-0.36328 -0.890625,-0.78516 -1.201172,-1.30078 -0.328125,-0.52149 -0.486328,-1.17188 -0.486328,-1.95117 0,-1.53516 0.5625,-2.73633 1.6875,-3.59766 1.136719,-0.86133 2.701172,-1.28907 4.6875,-1.28907 1.136719,0 2.138672,0.11133 2.976563,0.33985 0.861327,0.22265 1.58789,0.48633 2.162109,0.76172 l -1.078125,2.51367 c -0.498047,-0.24024 -1.060547,-0.45117 -1.6875,-0.62695 -0.597657,-0.1875 -1.300782,-0.27539 -2.097657,-0.27539 -1.974609,0 -2.953125,0.62695 -2.953125,1.875 0,0.32812 0.09961,0.60351 0.298829,0.84961 0.205078,0.22851 0.451171,0.43945 0.755859,0.63867 0.322266,0.17578 0.673828,0.33984 1.048828,0.47461 0.398438,0.14063 0.796875,0.27539 1.171875,0.4043 0.591797,0.1875 1.189454,0.41016 1.804688,0.65039 0.650391,0.23437 1.224609,0.54492 1.746094,0.94921 0.539062,0.38673 0.990234,0.88477 1.330077,1.48829 0.333985,0.57421 0.509766,1.32421 0.509766,2.20898 0,1.54102 -0.574218,2.73047 -1.710937,3.58008 -1.125,0.82617 -2.841797,1.23633 -5.150391,1.23633 -1.541015,0 -2.777343,-0.13477 -3.703125,-0.42774 -0.914063,-0.29882 -1.611328,-0.57421 -2.074218,-0.80859 l 1.083984,-2.65429 c 0.539062,0.2871 1.189453,0.55077 1.927734,0.80273 0.761719,0.23437 1.6875,0.36328 2.765625,0.36328"
       id="path17"
       inkscape:connector-curvature="0" />
    <path
       style="fill:#ffffff;fill-opacity:1;fill-rule:nonzero;stroke:none;stroke-width:0.75"
       d="m 60.785156,122.32813 c 0.09961,0.0234 0.199219,0.0234 0.328125,0.0234 0.123047,0 0.234375,0 0.333985,0 0.83789,0 1.541015,-0.13476 2.103515,-0.42187 0.574219,-0.27539 1.03711,-0.66211 1.388672,-1.16602 0.345703,-0.48632 0.609375,-1.06054 0.75,-1.73437 0.158203,-0.6914 0.234375,-1.4414 0.234375,-2.25586 0,-0.69727 -0.06445,-1.38281 -0.175782,-2.05078 -0.123046,-0.67379 -0.333984,-1.25973 -0.638671,-1.77535 -0.298829,-0.50977 -0.708984,-0.90821 -1.236329,-1.21289 -0.509765,-0.32227 -1.189452,-0.47461 -2.009765,-0.47461 -0.164062,0 -0.339844,0 -0.539062,0.0293 -0.199219,0 -0.386719,0.0117 -0.539063,0.0469 v 10.99218 m 8.90039,-5.55468 c 0,1.52929 -0.222655,2.81836 -0.662109,3.89062 -0.421875,1.06641 -1.007812,1.92774 -1.775391,2.58985 -0.761718,0.67382 -1.67578,1.16015 -2.736327,1.48828 -1.03711,0.28711 -2.203125,0.4336 -3.462891,0.4336 -0.662109,0 -1.3125,-0.0234 -1.951172,-0.0996 -0.626953,-0.0469 -1.289062,-0.14648 -2.015625,-0.28711 V 108.8223 c 0.83789,-0.14648 1.628906,-0.26367 2.378906,-0.31055 0.738282,-0.0527 1.423829,-0.0879 2.074219,-0.0879 1.22461,0 2.33789,0.16406 3.339844,0.48633 1.025391,0.3164 1.886719,0.81445 2.589844,1.5 0.697265,0.67382 1.236327,1.54101 1.623047,2.58984 0.398437,1.03711 0.597655,2.30273 0.597655,3.77344"
       id="path19"
       inkscape:connector-curvature="0" />
  </g>
</svg>
