<?xml version="1.0" encoding="UTF-8" standalone="no"?>
<svg
   xmlns:dc="http://purl.org/dc/elements/1.1/"
   xmlns:cc="http://creativecommons.org/ns#"
   xmlns:rdf="http://www.w3.org/1999/02/22-rdf-syntax-ns#"
   xmlns:svg="http://www.w3.org/2000/svg"
   xmlns="http://www.w3.org/2000/svg"
   xmlns:sodipodi="http://sodipodi.sourceforge.net/DTD/sodipodi-0.dtd"
   xmlns:inkscape="http://www.inkscape.org/namespaces/inkscape"
   width="96"
   height="96"
   viewBox="0 0 96 96"
   version="1.1"
   id="svg2"
   inkscape:version="0.92.2 (5c3e80d, 2017-08-06)"
   sodipodi:docname="application-x-bzip-compressed-tar.svg">
  <metadata
     id="metadata35">
    <rdf:RDF>
      <cc:Work
         rdf:about="">
        <dc:format>image/svg+xml</dc:format>
        <dc:type
           rdf:resource="http://purl.org/dc/dcmitype/StillImage" />
        <dc:title></dc:title>
      </cc:Work>
    </rdf:RDF>
  </metadata>
  <defs
     id="defs33" />
  <sodipodi:namedview
     pagecolor="#ffffff"
     bordercolor="#666666"
     borderopacity="1"
     objecttolerance="10"
     gridtolerance="10"
     guidetolerance="10"
     inkscape:pageopacity="0"
     inkscape:pageshadow="2"
     inkscape:window-width="2426"
     inkscape:window-height="1332"
     id="namedview31"
     showgrid="false"
     inkscape:zoom="1.84375"
     inkscape:cx="-55.59322"
     inkscape:cy="64"
     inkscape:window-x="102"
     inkscape:window-y="55"
     inkscape:window-maximized="0"
     inkscape:current-layer="surface1" />
  <g
     id="surface1"
     transform="translate(0,-32)">
    <path
       style="fill:#45606e;fill-opacity:1;fill-rule:nonzero;stroke:none;stroke-width:0.75"
       d="M 16.007812,32 C 13.945313,32 12,34.033203 12,36.183594 V 123.81641 C 12,125.84961 14.0625,128 16.007812,128 H 79.992187 C 81.9375,128 84,125.84961 84,123.81641 V 59 L 57,32 Z m 0,0"
       id="path5"
       inkscape:connector-curvature="0" />
    <path
       style="fill:#000000;fill-opacity:0.19607801;fill-rule:nonzero;stroke:none;stroke-width:0.75"
       d="m 12,104 v 20.00391 C 12,125.94922 14.0625,128 15.996094,128 H 80.00391 C 81.9375,128 84,125.94922 84,124.00391 V 104 Z m 0,0"
       id="path7"
       inkscape:connector-curvature="0" />
    <path
       style="fill:#000000;fill-opacity:0.19607801;fill-rule:nonzero;stroke:none;stroke-width:0.75"
       d="M 63,59 84,80 V 59 Z m 0,0"
       id="path9"
       inkscape:connector-curvature="0" />
    <path
       style="fill:#ffffff;fill-opacity:1;fill-rule:nonzero;stroke:none;stroke-width:0.75"
       d="m 40.3125,108.49414 v 2.71289 H 35.496094 V 125 H 31.828125 V 111.20704 H 27 v -2.7129 h 13.3125"
       id="path11"
       inkscape:connector-curvature="0" />
    <path
       style="fill:#ffffff;fill-opacity:0.39215698;fill-rule:nonzero;stroke:none;stroke-width:0.75"
       d="M 57,32 83.976562,59 H 61.136719 C 59.115234,59 57,56.861328 57,54.839844 Z m 0,0"
       id="path13"
       inkscape:connector-curvature="0" />
    <path
       style="fill:#ffffff;fill-opacity:1;fill-rule:nonzero;stroke:none;stroke-width:0.75"
       d="m 54.919921,120.00781 c 0,0.99024 -0.18164,1.83399 -0.55664,2.50196 -0.36914,0.66796 -0.890625,1.20117 -1.535156,1.61133 -0.632813,0.38085 -1.400391,0.66796 -2.279297,0.85546 -0.867187,0.15821 -1.804687,0.23438 -2.806641,0.23438 -0.820312,0 -1.646484,-0.0527 -2.513671,-0.13477 -0.867188,-0.0762 -1.734375,-0.1875 -2.578125,-0.3457 v -16.02539 c 0.691405,-0.11133 1.447265,-0.19922 2.279296,-0.26954 0.832032,-0.0879 1.646484,-0.1289 2.449219,-0.1289 1.388672,0 2.501953,0.1289 3.36914,0.39844 0.867188,0.24609 1.546875,0.58008 2.044923,1.01367 0.492187,0.41016 0.826172,0.86719 1.001952,1.38867 0.1875,0.50977 0.269532,1.02539 0.269532,1.54688 0,0.7793 -0.222657,1.47656 -0.65625,2.08008 -0.404297,0.59766 -0.960937,1.07812 -1.681641,1.43554 1.253907,0.41016 2.080079,0.95508 2.513672,1.64649 0.457032,0.69726 0.679687,1.42382 0.679687,2.1914 m -8.630859,-2.23827 v 4.48242 c 0.251954,0.0352 0.533204,0.0586 0.832032,0.0762 0.310547,0.0234 0.621093,0.0352 0.914062,0.0352 0.410156,0 0.820313,-0.0352 1.21289,-0.0879 0.38672,-0.0762 0.732423,-0.1875 1.03125,-0.34571 0.322266,-0.17577 0.56836,-0.42187 0.767579,-0.7207 0.199219,-0.32226 0.298828,-0.71484 0.298828,-1.20117 0,-0.80273 -0.287109,-1.37109 -0.855469,-1.70508 -0.55664,-0.36328 -1.300781,-0.5332 -2.255859,-0.5332 h -1.945313 m 1.412109,-2.72461 c 0.931641,0 1.634766,-0.17578 2.109375,-0.5332 0.46875,-0.36914 0.703125,-0.87891 0.703125,-1.51172 0,-0.39258 -0.06445,-0.70313 -0.199218,-0.9375 -0.146484,-0.25196 -0.333984,-0.43359 -0.568359,-0.55665 -0.234375,-0.14062 -0.509766,-0.24023 -0.832032,-0.26367 -0.304687,-0.0586 -0.626953,-0.0879 -0.978516,-0.0879 -0.26953,0 -0.55664,0.0175 -0.849609,0.0293 -0.298828,0.0234 -0.556641,0.0469 -0.796875,0.082 v 3.7793 h 1.412109"
       id="path15"
       inkscape:connector-curvature="0" />
    <path
       style="fill:#f8f8f8;fill-opacity:1;fill-rule:evenodd;stroke:none;stroke-width:0.75"
       d="m 27,32 h 9 v 9 h -9 z m 0,0"
       id="path17"
       inkscape:connector-curvature="0" />
    <path
       style="fill:#ffffff;fill-opacity:1;fill-rule:nonzero;stroke:none;stroke-width:0.75"
       d="m 69,110.78516 c -0.84375,1.17773 -1.623047,2.2793 -2.337891,3.30469 -0.708984,1.03125 -1.365234,2.02148 -1.986328,2.95898 -0.603515,0.93164 -1.183594,1.82227 -1.728515,2.68946 -0.533204,0.85546 -1.054688,1.71093 -1.552735,2.5371 h 7.875 V 125 H 57.199219 v -1.89258 c 0.433593,-0.76757 0.902343,-1.57617 1.388672,-2.40234 0.492187,-0.85547 1.048828,-1.75781 1.658203,-2.72461 0.621093,-0.95508 1.277343,-1.99218 1.980468,-3.12305 0.732422,-1.11328 1.535157,-2.32617 2.402344,-3.65038 h -7.042969 v -2.7129 H 69 v 2.29102"
       id="path19"
       inkscape:connector-curvature="0" />
    <path
       style="fill:#f8f8f8;fill-opacity:1;fill-rule:evenodd;stroke:none;stroke-width:0.75"
       d="m 36,41 h 9 v 9 h -9 z m 0,0"
       id="path21"
       inkscape:connector-curvature="0" />
    <path
       style="fill:#f8f8f8;fill-opacity:1;fill-rule:evenodd;stroke:none;stroke-width:0.75"
       d="m 27,50 h 9 v 9 h -9 z m 0,0"
       id="path23"
       inkscape:connector-curvature="0" />
    <path
       style="fill:#f8f8f8;fill-opacity:1;fill-rule:evenodd;stroke:none;stroke-width:0.75"
       d="m 36,59 h 9 v 9 h -9 z m 0,0"
       id="path25"
       inkscape:connector-curvature="0" />
    <path
       style="fill:#f8f8f8;fill-opacity:1;fill-rule:evenodd;stroke:none;stroke-width:0.75"
       d="m 27,68 h 9 v 9 h -9 z m 0,0"
       id="path27"
       inkscape:connector-curvature="0" />
    <path
       style="fill:#f8f8f8;fill-opacity:1;fill-rule:evenodd;stroke:none;stroke-width:0.75"
       d="M 27,80 H 45 V 98 H 27 Z m 0,0"
       id="path29"
       inkscape:connector-curvature="0" />
  </g>
</svg>
