<?xml version="1.0" encoding="UTF-8" standalone="no"?>
<svg
   xmlns:dc="http://purl.org/dc/elements/1.1/"
   xmlns:cc="http://creativecommons.org/ns#"
   xmlns:rdf="http://www.w3.org/1999/02/22-rdf-syntax-ns#"
   xmlns:svg="http://www.w3.org/2000/svg"
   xmlns="http://www.w3.org/2000/svg"
   xmlns:sodipodi="http://sodipodi.sourceforge.net/DTD/sodipodi-0.dtd"
   xmlns:inkscape="http://www.inkscape.org/namespaces/inkscape"
   width="96"
   height="96"
   viewBox="0 0 96 96"
   version="1.1"
   id="svg2"
   inkscape:version="0.92.2 (5c3e80d, 2017-08-06)"
   sodipodi:docname="application-image-png.svg">
  <metadata
     id="metadata25">
    <rdf:RDF>
      <cc:Work
         rdf:about="">
        <dc:format>image/svg+xml</dc:format>
        <dc:type
           rdf:resource="http://purl.org/dc/dcmitype/StillImage" />
        <dc:title></dc:title>
      </cc:Work>
    </rdf:RDF>
  </metadata>
  <defs
     id="defs23" />
  <sodipodi:namedview
     pagecolor="#ffffff"
     bordercolor="#666666"
     borderopacity="1"
     objecttolerance="10"
     gridtolerance="10"
     guidetolerance="10"
     inkscape:pageopacity="0"
     inkscape:pageshadow="2"
     inkscape:window-width="2314"
     inkscape:window-height="1292"
     id="namedview21"
     showgrid="false"
     inkscape:zoom="1.84375"
     inkscape:cx="-55.59322"
     inkscape:cy="64"
     inkscape:window-x="216"
     inkscape:window-y="162"
     inkscape:window-maximized="0"
     inkscape:current-layer="surface1" />
  <g
     id="surface1"
     transform="translate(0,-32)">
    <path
       style="fill:#075e65;fill-opacity:1;fill-rule:nonzero;stroke:none;stroke-width:0.75"
       d="M 16.007812,32 C 13.945313,32 12,34.033203 12,36.183594 V 123.81641 C 12,125.84961 14.0625,128 16.007812,128 H 79.992187 C 81.9375,128 84,125.84961 84,123.81641 V 59 L 57,32 Z m 0,0"
       id="path5"
       inkscape:connector-curvature="0" />
    <path
       style="fill:#000000;fill-opacity:0.19607801;fill-rule:nonzero;stroke:none;stroke-width:0.75"
       d="M 63,59 84,80 V 59 Z m 0,0"
       id="path7"
       inkscape:connector-curvature="0" />
    <path
       style="fill:#ffffff;fill-opacity:0.39215698;fill-rule:nonzero;stroke:none;stroke-width:0.75"
       d="M 57,32 83.976562,59 H 61.136719 C 59.115234,59 57,56.861328 57,54.839844 Z m 0,0"
       id="path9"
       inkscape:connector-curvature="0" />
    <path
       style="fill:#ffffff;fill-opacity:1;fill-rule:nonzero;stroke:none;stroke-width:0.75"
       d="M 34.933594,65 C 33.878906,65.099609 32.976562,66.21875 33,67.408203 V 92.650391 C 33.01172,93.892578 34.001953,95.011719 35.109375,95 H 60.943359 C 62.033203,94.976562 62.988281,93.880859 63,92.650391 V 67.408203 C 63.023437,66.154296 62.056641,65.011719 60.943359,65 Z M 36,68 h 24 v 17.103516 l -7.054688,-7.97461 -1.769531,1.699219 -2.701172,2.460937 L 46.822266,79.642578 42.580078,73.90625 36,82.396484 Z m 0,0"
       id="path11"
       inkscape:connector-curvature="0" />
    <path
       style="fill:#000000;fill-opacity:0.19607801;fill-rule:nonzero;stroke:none;stroke-width:0.75"
       d="m 12,104 v 20.00391 C 12,125.94922 14.0625,128 15.996094,128 H 80.00391 C 81.9375,128 84,125.94922 84,124.00391 V 104 Z m 0,0"
       id="path13"
       inkscape:connector-curvature="0" />
    <path
       style="fill:#ffffff;fill-opacity:1;fill-rule:nonzero;stroke:none;stroke-width:0.75"
       d="m 32.068359,108.69336 c 2.337891,0 4.160157,0.4336 5.449219,1.2832 1.294922,0.83789 1.933593,2.20313 1.933593,4.10742 0,1.92188 -0.65039,3.32227 -1.96875,4.1836 -1.283202,0.84961 -3.123046,1.27734 -5.501952,1.27734 h -1.3125 v 5.4375 H 27 V 109.0918 c 0.357421,-0.0644 0.761719,-0.12305 1.195312,-0.1875 0.451172,-0.0469 0.908204,-0.0879 1.376954,-0.0996 0.451171,-0.0352 0.896484,-0.0586 1.330078,-0.0703 0.439452,-0.0234 0.820312,-0.041 1.166015,-0.041 m 0.416016,2.79493 c -0.216797,0 -0.527344,0 -0.919922,0.0234 -0.380859,0 -0.679687,0.0117 -0.896484,0.0527 v 5.20313 h 1.488281 c 1.166016,0 2.050781,-0.21094 2.654296,-0.60352 0.591798,-0.41602 0.884766,-1.11914 0.884766,-2.10352 0,-0.9375 -0.292968,-1.59961 -0.884766,-1.98046 -0.574218,-0.39258 -1.353515,-0.5918 -2.326171,-0.5918"
       id="path15"
       inkscape:connector-curvature="0" />
    <path
       style="fill:#ffffff;fill-opacity:1;fill-rule:nonzero;stroke:none;stroke-width:0.75"
       d="m 50.853516,124.98242 c -0.826172,-1.79296 -1.746095,-3.56836 -2.73047,-5.33788 -0.972655,-1.78125 -2.027343,-3.56837 -3.164062,-5.34962 v 10.6875 h -3.304688 v -16.10156 h 2.953125 c 0.550782,0.76172 1.101563,1.59961 1.669923,2.4961 0.55664,0.88476 1.083984,1.77539 1.599609,2.66015 0.539063,0.88477 1.019531,1.73437 1.464843,2.56641 0.457032,0.83789 0.84961,1.56445 1.154298,2.1914 v -9.91406 h 3.310547 v 16.10156 h -2.953125"
       id="path17"
       inkscape:connector-curvature="0" />
    <path
       style="fill:#ffffff;fill-opacity:1;fill-rule:nonzero;stroke:none;stroke-width:0.75"
       d="m 64.470703,111.30664 c -0.873047,0 -1.611328,0.13477 -2.197266,0.41602 -0.603516,0.26953 -1.095703,0.66211 -1.494141,1.16601 -0.380859,0.48047 -0.662109,1.07227 -0.83203,1.76368 -0.164063,0.67382 -0.246095,1.43554 -0.246095,2.26171 0,1.9336 0.357423,3.34571 1.04297,4.27148 0.703125,0.89649 1.722655,1.34766 3.064453,1.34766 0.222656,0 0.46875,-0.0117 0.726562,-0.0234 0.257813,-0.0234 0.492188,-0.0469 0.714844,-0.082 v -5.87109 h 3.650391 v 8.03321 c -0.427735,0.13476 -1.119141,0.29882 -2.050782,0.46875 -0.914063,0.16992 -2.021484,0.25781 -3.333984,0.25781 -1.148438,0 -2.191406,-0.16993 -3.128906,-0.51563 -0.908203,-0.36914 -1.69336,-0.89649 -2.34961,-1.58789 -0.65039,-0.71485 -1.166015,-1.58789 -1.523438,-2.63086 -0.357421,-1.06055 -0.527343,-2.2793 -0.527343,-3.66797 0,-1.36523 0.205078,-2.57227 0.626953,-3.60352 0.416015,-1.06054 0.984375,-1.94531 1.69336,-2.66015 0.714843,-0.70898 1.552734,-1.24219 2.52539,-1.58789 0.972656,-0.36914 2.015625,-0.53906 3.134765,-0.53906 0.714845,0 1.341798,0.0469 1.898438,0.14648 0.574219,0.0879 1.078125,0.19922 1.5,0.32227 0.404297,0.12304 0.75,0.24609 1.007812,0.38085 0.269532,0.14649 0.48047,0.2461 0.626954,0.32227 l -0.960938,2.54297 c -0.427734,-0.24609 -0.972656,-0.45703 -1.611328,-0.65039 -0.626953,-0.1875 -1.277343,-0.28125 -1.957031,-0.28125"
       id="path19"
       inkscape:connector-curvature="0" />
  </g>
</svg>
