<?xml version="1.0" encoding="UTF-8" standalone="no"?>
<svg
   xmlns:dc="http://purl.org/dc/elements/1.1/"
   xmlns:cc="http://creativecommons.org/ns#"
   xmlns:rdf="http://www.w3.org/1999/02/22-rdf-syntax-ns#"
   xmlns:svg="http://www.w3.org/2000/svg"
   xmlns="http://www.w3.org/2000/svg"
   xmlns:sodipodi="http://sodipodi.sourceforge.net/DTD/sodipodi-0.dtd"
   xmlns:inkscape="http://www.inkscape.org/namespaces/inkscape"
   width="96"
   height="96"
   viewBox="0 0 96 96"
   version="1.1"
   id="svg7"
   sodipodi:docname="application-vector-template.svg"
   inkscape:version="0.92.2 (5c3e80d, 2017-08-06)">
  <metadata
     id="metadata13">
    <rdf:RDF>
      <cc:Work
         rdf:about="">
        <dc:format>image/svg+xml</dc:format>
        <dc:type
           rdf:resource="http://purl.org/dc/dcmitype/StillImage" />
        <dc:title></dc:title>
      </cc:Work>
    </rdf:RDF>
  </metadata>
  <defs
     id="defs11" />
  <sodipodi:namedview
     pagecolor="#ffffff"
     bordercolor="#666666"
     borderopacity="1"
     objecttolerance="10"
     gridtolerance="10"
     guidetolerance="10"
     inkscape:pageopacity="0"
     inkscape:pageshadow="2"
     inkscape:window-width="2232"
     inkscape:window-height="1292"
     id="namedview9"
     showgrid="false"
     inkscape:zoom="1.84375"
     inkscape:cx="-55.59322"
     inkscape:cy="64"
     inkscape:window-x="549"
     inkscape:window-y="364"
     inkscape:window-maximized="0"
     inkscape:current-layer="svg7" />
  <g
     id="surface1"
     transform="scale(0.75)">
    <path
       style="fill:#02a89c;fill-opacity:1;fill-rule:nonzero;stroke:none"
       d="M 21.375,0 C 18.625,0 16,2.757812 16,5.625 v 116.75 c 0,2.70313 2.78125,5.625 5.375,5.625 h 85.25 c 2.59375,0 5.375,-2.92187 5.375,-5.625 V 5.5 C 112,2.804688 109.19531,0 106.5,0 Z m 0,0"
       id="path2"
       inkscape:connector-curvature="0" />
    <path
       style="fill:#ffffff;fill-opacity:1;fill-rule:nonzero;stroke:none"
       d="m 80,41.546875 c -1.6875,0 -3.203125,1.148437 -4,2.453125 H 60 c 0,0 -3.890625,-0.296875 -7.28125,1.335938 -3.40625,1.640624 -7.007812,5.390624 -7.007812,11.640624 0,6.257813 3.601562,10.007813 7.007812,11.648438 1.601562,0.773438 3.1875,1.101562 4.429688,1.304688 v 0.96875 l -6.289063,6.0625 C 50.671875,76.90625 50.5,76.820312 50.289062,76.820312 49.015625,76.820312 48,77.804688 48,79.023438 c 0,1.226562 1.015625,2.203124 2.289062,2.203124 1.257813,0 2.273438,-0.976562 2.273438,-2.203124 0,-0.203126 -0.08594,-0.359376 -0.132812,-0.546876 l 6.28125,-6.0625 h 7.578124 V 70.203125 H 68.5625 c 0,0 2.414062,0.05469 4.71875,1.171875 2.328125,1.125 4.429688,2.875 4.429688,7.648438 0,4.773437 -2.101563,6.53125 -4.429688,7.648437 C 70.976562,87.789062 68,88 68,88 H 52 c -0.789062,-1.304688 -2.3125,-2.359375 -4,-2.359375 -2.53125,0 -4.578125,1.976563 -4.578125,4.40625 0,2.429687 2.046875,4.40625 4.578125,4.40625 1.6875,0 3.210938,-1.140625 4,-2.453125 h 16 c 0,0 3.890625,0.304688 7.28125,-1.335938 3.414062,-1.632812 7.007812,-5.390624 7.007812,-11.640624 0,-6.25 -3.59375,-10.007813 -7.007812,-11.640626 -3.390625,-1.640624 -6.71875,-1.585937 -6.71875,-1.585937 h -2.273438 v -0.6875 l 6.289063,-6.0625 c 0.1875,0.04687 0.359375,0.140625 0.570313,0.140625 1.257812,0 2.289062,-0.984375 2.289062,-2.210938 0,-1.21875 -1.03125,-2.203124 -2.289062,-2.203124 -1.257813,0 -2.289063,0.984374 -2.289063,2.203124 0,0.210938 0.08594,0.367188 0.148437,0.554688 l -6.296874,6.0625 h -7.5625 v 1.859375 C 56.390625,65.28125 55.5625,65.039062 54.71875,64.625 52.390625,63.507812 50.289062,61.75 50.289062,56.976562 c 0,-4.765624 2.101563,-6.523437 4.429688,-7.640624 C 57.023438,48.210938 60,48 60,48 h 16 c 0.796875,1.3125 2.3125,2.367188 4,2.367188 2.53125,0 4.585938,-1.984376 4.585938,-4.414063 0,-2.421875 -2.054688,-4.40625 -4.585938,-4.40625 z m 0,0"
       id="path4"
       inkscape:connector-curvature="0" />
  </g>
</svg>
