<?xml version="1.0" encoding="UTF-8" standalone="no"?>
<svg
   xmlns:dc="http://purl.org/dc/elements/1.1/"
   xmlns:cc="http://creativecommons.org/ns#"
   xmlns:rdf="http://www.w3.org/1999/02/22-rdf-syntax-ns#"
   xmlns:svg="http://www.w3.org/2000/svg"
   xmlns="http://www.w3.org/2000/svg"
   xmlns:sodipodi="http://sodipodi.sourceforge.net/DTD/sodipodi-0.dtd"
   xmlns:inkscape="http://www.inkscape.org/namespaces/inkscape"
   width="96"
   height="96"
   viewBox="0 0 96 96"
   version="1.1"
   id="svg2"
   inkscape:version="0.92.2 (5c3e80d, 2017-08-06)"
   sodipodi:docname="application-x-lha.svg">
  <metadata
     id="metadata35">
    <rdf:RDF>
      <cc:Work
         rdf:about="">
        <dc:format>image/svg+xml</dc:format>
        <dc:type
           rdf:resource="http://purl.org/dc/dcmitype/StillImage" />
        <dc:title></dc:title>
      </cc:Work>
    </rdf:RDF>
  </metadata>
  <defs
     id="defs33" />
  <sodipodi:namedview
     pagecolor="#ffffff"
     bordercolor="#666666"
     borderopacity="1"
     objecttolerance="10"
     gridtolerance="10"
     guidetolerance="10"
     inkscape:pageopacity="0"
     inkscape:pageshadow="2"
     inkscape:window-width="2290"
     inkscape:window-height="1386"
     id="namedview31"
     showgrid="false"
     inkscape:zoom="1.84375"
     inkscape:cx="-55.59322"
     inkscape:cy="64"
     inkscape:window-x="614"
     inkscape:window-y="230"
     inkscape:window-maximized="0"
     inkscape:current-layer="surface1" />
  <g
     id="surface1"
     transform="translate(0,-32)">
    <path
       style="fill:#45606e;fill-opacity:1;fill-rule:nonzero;stroke:none;stroke-width:0.75"
       d="M 16.007812,32 C 13.945313,32 12,34.033203 12,36.183594 V 123.81641 C 12,125.84961 14.0625,128 16.007812,128 H 79.992187 C 81.9375,128 84,125.84961 84,123.81641 V 59 L 57,32 Z m 0,0"
       id="path5"
       inkscape:connector-curvature="0" />
    <path
       style="fill:#000000;fill-opacity:0.19607801;fill-rule:nonzero;stroke:none;stroke-width:0.75"
       d="m 12,104 v 20.00391 C 12,125.94922 14.0625,128 15.996094,128 H 80.00391 C 81.9375,128 84,125.94922 84,124.00391 V 104 Z m 0,0"
       id="path7"
       inkscape:connector-curvature="0" />
    <path
       style="fill:#000000;fill-opacity:0.19607801;fill-rule:nonzero;stroke:none;stroke-width:0.75"
       d="M 63,59 84,80 V 59 Z m 0,0"
       id="path9"
       inkscape:connector-curvature="0" />
    <path
       style="fill:#ffffff;fill-opacity:1;fill-rule:nonzero;stroke:none;stroke-width:0.75"
       d="M 38.560546,125 H 27 v -16.875 h 3.685546 v 14.0918 h 7.875 V 125"
       id="path11"
       inkscape:connector-curvature="0" />
    <path
       style="fill:#ffffff;fill-opacity:0.39215698;fill-rule:nonzero;stroke:none;stroke-width:0.75"
       d="M 57,32 83.976562,59 H 61.136719 C 59.115234,59 57,56.861328 57,54.839844 Z m 0,0"
       id="path13"
       inkscape:connector-curvature="0" />
    <path
       style="fill:#ffffff;fill-opacity:1;fill-rule:nonzero;stroke:none;stroke-width:0.75"
       d="M 53.273437,108.125 V 125 h -3.650391 v -7.4414 H 44.742187 V 125 h -3.650391 v -16.875 h 3.650391 v 6.65039 h 4.880859 V 108.125 h 3.650391"
       id="path15"
       inkscape:connector-curvature="0" />
    <path
       style="fill:#f8f8f8;fill-opacity:1;fill-rule:evenodd;stroke:none;stroke-width:0.75"
       d="m 27,32 h 9 v 9 h -9 z m 0,0"
       id="path17"
       inkscape:connector-curvature="0" />
    <path
       style="fill:#ffffff;fill-opacity:1;fill-rule:nonzero;stroke:none;stroke-width:0.75"
       d="m 65.273437,125 -0.849609,-3.89648 H 59.513671 L 58.6875,125 h -3.808594 c 0.878906,-3.32812 1.751953,-6.35156 2.642578,-9.07617 0.890625,-2.75391 1.757812,-5.34961 2.583985,-7.79883 h 3.984375 c 0.873047,2.47266 1.728515,5.0918 2.583984,7.875 0.873047,2.77148 1.716797,5.75977 2.53125,9 h -3.931641 m -3.263671,-13.61133 c -0.19922,0.64454 -0.38086,1.24805 -0.56836,1.82813 -0.158203,0.56836 -0.310547,1.125 -0.46875,1.69336 -0.134765,0.54492 -0.28711,1.10156 -0.421875,1.6582 -0.111328,0.56836 -0.234375,1.14844 -0.357422,1.75781 h 3.597657 c -0.111329,-0.60937 -0.234375,-1.18945 -0.357422,-1.75781 -0.111328,-0.55664 -0.246094,-1.11328 -0.410157,-1.6582 -0.146484,-0.56836 -0.292968,-1.125 -0.480468,-1.69336 -0.158203,-0.58008 -0.333985,-1.18359 -0.533203,-1.82813"
       id="path19"
       inkscape:connector-curvature="0" />
    <path
       style="fill:#f8f8f8;fill-opacity:1;fill-rule:evenodd;stroke:none;stroke-width:0.75"
       d="m 36,41 h 9 v 9 h -9 z m 0,0"
       id="path21"
       inkscape:connector-curvature="0" />
    <path
       style="fill:#f8f8f8;fill-opacity:1;fill-rule:evenodd;stroke:none;stroke-width:0.75"
       d="m 27,50 h 9 v 9 h -9 z m 0,0"
       id="path23"
       inkscape:connector-curvature="0" />
    <path
       style="fill:#f8f8f8;fill-opacity:1;fill-rule:evenodd;stroke:none;stroke-width:0.75"
       d="m 36,59 h 9 v 9 h -9 z m 0,0"
       id="path25"
       inkscape:connector-curvature="0" />
    <path
       style="fill:#f8f8f8;fill-opacity:1;fill-rule:evenodd;stroke:none;stroke-width:0.75"
       d="m 27,68 h 9 v 9 h -9 z m 0,0"
       id="path27"
       inkscape:connector-curvature="0" />
    <path
       style="fill:#f8f8f8;fill-opacity:1;fill-rule:evenodd;stroke:none;stroke-width:0.75"
       d="M 27,80 H 45 V 98 H 27 Z m 0,0"
       id="path29"
       inkscape:connector-curvature="0" />
  </g>
</svg>
