<?xml version="1.0" encoding="UTF-8" standalone="no"?>
<svg
   xmlns:dc="http://purl.org/dc/elements/1.1/"
   xmlns:cc="http://creativecommons.org/ns#"
   xmlns:rdf="http://www.w3.org/1999/02/22-rdf-syntax-ns#"
   xmlns:svg="http://www.w3.org/2000/svg"
   xmlns="http://www.w3.org/2000/svg"
   xmlns:sodipodi="http://sodipodi.sourceforge.net/DTD/sodipodi-0.dtd"
   xmlns:inkscape="http://www.inkscape.org/namespaces/inkscape"
   width="96"
   height="96"
   viewBox="0 0 96 96"
   version="1.1"
   id="svg2"
   inkscape:version="0.92.2 (5c3e80d, 2017-08-06)"
   sodipodi:docname="application-rtf.svg">
  <metadata
     id="metadata37">
    <rdf:RDF>
      <cc:Work
         rdf:about="">
        <dc:format>image/svg+xml</dc:format>
        <dc:type
           rdf:resource="http://purl.org/dc/dcmitype/StillImage" />
        <dc:title></dc:title>
      </cc:Work>
    </rdf:RDF>
  </metadata>
  <defs
     id="defs35" />
  <sodipodi:namedview
     pagecolor="#ffffff"
     bordercolor="#666666"
     borderopacity="1"
     objecttolerance="10"
     gridtolerance="10"
     guidetolerance="10"
     inkscape:pageopacity="0"
     inkscape:pageshadow="2"
     inkscape:window-width="2041"
     inkscape:window-height="1465"
     id="namedview33"
     showgrid="false"
     inkscape:zoom="1.84375"
     inkscape:cx="-154.30509"
     inkscape:cy="64"
     inkscape:window-x="909"
     inkscape:window-y="162"
     inkscape:window-maximized="0"
     inkscape:current-layer="surface1" />
  <g
     id="surface1"
     transform="translate(0,-32)">
    <path
       style="fill:#5062b0;fill-opacity:1;fill-rule:nonzero;stroke:none;stroke-width:0.75"
       d="M 16.007812,32 C 13.945313,32 12,34.033203 12,36.183594 V 123.81641 C 12,125.84961 14.0625,128 16.007812,128 H 79.992187 C 81.9375,128 84,125.84961 84,123.81641 V 59 L 57,32 Z m 0,0"
       id="path5"
       inkscape:connector-curvature="0" />
    <path
       style="fill:#000000;fill-opacity:0.19607801;fill-rule:nonzero;stroke:none;stroke-width:0.75"
       d="M 63,59 84,80 V 59 Z m 0,0"
       id="path7"
       inkscape:connector-curvature="0" />
    <path
       style="fill:#ffffff;fill-opacity:0.39215698;fill-rule:nonzero;stroke:none;stroke-width:0.75"
       d="M 57,32 83.976562,59 H 61.136719 C 59.115234,59 57,56.861328 57,54.839844 Z m 0,0"
       id="path9"
       inkscape:connector-curvature="0" />
    <path
       style="fill:#000000;fill-opacity:0.19607801;fill-rule:nonzero;stroke:none;stroke-width:0.75"
       d="m 12,104 v 20.00391 C 12,125.94922 14.0625,128 15.996094,128 H 80.00391 C 81.9375,128 84,125.94922 84,124.00391 V 104 Z m 0,0"
       id="path15"
       inkscape:connector-curvature="0" />
    <path
       style="fill:#ffffff;fill-opacity:1;fill-rule:nonzero;stroke:none;stroke-width:0.75"
       d="m 31.845703,108.20704 c 1.072266,0 2.033203,0.0996 2.90625,0.32226 0.861328,0.20508 1.611328,0.53906 2.238281,0.99609 0.626953,0.43946 1.095703,1.00782 1.41211,1.71094 0.345702,0.67383 0.521484,1.48828 0.521484,2.40821 0,0.97265 -0.222657,1.84569 -0.667969,2.63085 -0.439453,0.79102 -1.177734,1.39453 -2.203125,1.79883 0.345703,0.46875 0.703125,0.98438 1.083985,1.56445 0.380859,0.55079 0.761718,1.14258 1.11914,1.76954 0.369141,0.60351 0.714844,1.21875 1.03125,1.8457 0.345703,0.61523 0.632812,1.19531 0.878907,1.74609 h -3.902345 c -0.46875,-1.07227 -1.007812,-2.10352 -1.634765,-3.08789 -0.603515,-0.99609 -1.253906,-2.0039 -1.96875,-3.02344 H 30.726562 V 125 H 27 v -16.35937 c 0.369141,-0.0762 0.761719,-0.14063 1.183594,-0.19922 0.439452,-0.0762 0.884765,-0.11133 1.324218,-0.13477 0.457032,-0.0352 0.873047,-0.0644 1.283204,-0.0762 0.404296,-0.0234 0.75,-0.0234 1.054687,-0.0234 m 3.298828,5.41407 c 0,-0.87306 -0.310547,-1.51173 -0.908203,-1.9336 -0.603516,-0.4043 -1.40625,-0.61523 -2.390625,-0.61523 -0.146484,0 -0.316407,0.0117 -0.515625,0.0234 -0.199219,0 -0.404297,0.0293 -0.603516,0.0644 v 4.98046 h 0.814454 c 1.265625,0 2.185546,-0.20508 2.753905,-0.63867 0.56836,-0.43945 0.84961,-1.07226 0.84961,-1.88085"
       id="path19"
       inkscape:connector-curvature="0" />
    <path
       style="fill:#ffffff;fill-opacity:1;fill-rule:nonzero;stroke:none;stroke-width:0.75"
       d="M 54.867187,108.39454 V 111.125 H 49.933594 V 125 h -3.75586 v -13.875 h -4.921875 v -2.73046 h 13.611328"
       id="path21"
       inkscape:connector-curvature="0" />
    <path
       style="fill:#ffffff;fill-opacity:1;fill-rule:nonzero;stroke:none;stroke-width:0.75"
       d="M 57.533203,125 V 108.39454 H 69 v 2.73046 h -7.751954 v 4.03125 h 6.779298 v 2.73047 H 61.248046 V 125 h -3.714843"
       id="path23"
       inkscape:connector-curvature="0" />
    <text
       xml:space="preserve"
       style="font-style:normal;font-variant:normal;font-weight:normal;font-stretch:normal;font-size:8.99999905px;line-height:0%;font-family:Ubuntu;-inkscape-font-specification:Ubuntu;text-align:start;letter-spacing:0px;word-spacing:0px;writing-mode:lr-tb;text-anchor:start;fill:#ffffff;fill-opacity:1;stroke:none;stroke-width:0.75"
       x="17.656019"
       y="99.075584"
       id="text3043"><tspan
         sodipodi:role="line"
         id="tspan3045"
         x="17.656019"
         y="99.075584"
         style="font-size:47.37629318px;line-height:1.25;stroke-width:0.75">W</tspan></text>
  </g>
</svg>
