<?xml version="1.0" encoding="UTF-8" standalone="no"?>
<svg
   xmlns:dc="http://purl.org/dc/elements/1.1/"
   xmlns:cc="http://creativecommons.org/ns#"
   xmlns:rdf="http://www.w3.org/1999/02/22-rdf-syntax-ns#"
   xmlns:svg="http://www.w3.org/2000/svg"
   xmlns="http://www.w3.org/2000/svg"
   xmlns:sodipodi="http://sodipodi.sourceforge.net/DTD/sodipodi-0.dtd"
   xmlns:inkscape="http://www.inkscape.org/namespaces/inkscape"
   width="96"
   height="96"
   viewBox="0 0 96 96"
   version="1.1"
   id="svg19"
   sodipodi:docname="application-vnd.oasis.opendocument.spreadsheet.svg"
   inkscape:version="0.92.2 (5c3e80d, 2017-08-06)">
  <metadata
     id="metadata25">
    <rdf:RDF>
      <cc:Work
         rdf:about="">
        <dc:format>image/svg+xml</dc:format>
        <dc:type
           rdf:resource="http://purl.org/dc/dcmitype/StillImage" />
        <dc:title></dc:title>
      </cc:Work>
    </rdf:RDF>
  </metadata>
  <defs
     id="defs23" />
  <sodipodi:namedview
     pagecolor="#ffffff"
     bordercolor="#666666"
     borderopacity="1"
     objecttolerance="10"
     gridtolerance="10"
     guidetolerance="10"
     inkscape:pageopacity="0"
     inkscape:pageshadow="2"
     inkscape:window-width="2093"
     inkscape:window-height="1247"
     id="namedview21"
     showgrid="false"
     inkscape:zoom="1.84375"
     inkscape:cx="-55.59322"
     inkscape:cy="64"
     inkscape:window-x="102"
     inkscape:window-y="55"
     inkscape:window-maximized="0"
     inkscape:current-layer="svg19" />
  <g
     id="surface1"
     transform="scale(0.75)">
    <path
       style="fill:#1e7045;fill-opacity:1;fill-rule:nonzero;stroke:none"
       d="M 21.34375,0 C 18.59375,0 16,2.710938 16,5.578125 V 122.42188 C 16,125.13281 18.75,128 21.34375,128 h 85.3125 C 109.25,128 112,125.13281 112,122.42188 V 36 L 76,0 Z m 0,0"
       id="path2"
       inkscape:connector-curvature="0" />
    <path
       style="fill:#000000;fill-opacity:0.19607801;fill-rule:nonzero;stroke:none"
       d="m 84,36 28,28 V 36 Z m 0,0"
       id="path4"
       inkscape:connector-curvature="0" />
    <path
       style="fill:#ffffff;fill-opacity:1;fill-rule:nonzero;stroke:none"
       d="M 88,44 V 84 H 40 V 44 Z m -4,4 H 60 v 8 H 84 Z M 56,48 H 44 v 8 H 56 Z M 84,60 H 60 v 8 H 84 Z M 56,60 H 44 v 8 H 56 Z M 84,72 H 60 v 8 H 84 Z M 56,72 H 44 v 8 h 12 z m 0,0"
       id="path6"
       inkscape:connector-curvature="0" />
    <path
       style="fill:#000000;fill-opacity:0.19607801;fill-rule:nonzero;stroke:none"
       d="m 16,96 v 26.67188 C 16,125.26563 18.75,128 21.328125,128 H 106.67188 C 109.25,128 112,125.26563 112,122.67188 V 96 Z m 0,0"
       id="path8"
       inkscape:connector-curvature="0" />
    <path
       style="fill:#ffffff;fill-opacity:0.39215698;fill-rule:nonzero;stroke:none"
       d="m 76,0 35.96875,36 H 81.515625 C 78.820312,36 76,33.148438 76,30.453125 Z m 0,0"
       id="path10"
       inkscape:connector-curvature="0" />
    <path
       style="fill:#ffffff;fill-opacity:1;fill-rule:nonzero;stroke:none"
       d="m 40.671875,112.5 c 0,1.07813 0.03125,2.08594 0.117187,3.03125 0.117188,0.92969 0.304688,1.73438 0.570313,2.42188 0.289063,0.69531 0.695313,1.23437 1.195313,1.63281 0.507812,0.40625 1.195312,0.60937 2.054687,0.60937 0.828125,0 1.484375,-0.20312 2.007813,-0.60937 0.523437,-0.39844 0.921874,-0.9375 1.195312,-1.63281 0.304688,-0.71875 0.484375,-1.53125 0.554688,-2.45313 0.117187,-0.92969 0.164062,-1.92187 0.164062,-3 0,-1.05469 -0.04687,-2.05469 -0.164062,-2.97656 -0.07031,-0.96094 -0.25,-1.76563 -0.554688,-2.46094 -0.273438,-0.6875 -0.65625,-1.22656 -1.164062,-1.63281 -0.507813,-0.39844 -1.195313,-0.60156 -2.039063,-0.60156 -0.859375,0 -1.546875,0.20312 -2.054687,0.60156 -0.5,0.40625 -0.90625,0.96094 -1.195313,1.67187 -0.265625,0.6875 -0.453125,1.49219 -0.570313,2.42188 -0.08594,0.92187 -0.117187,1.92187 -0.117187,2.97656 m -5.015625,0 c 0,-3.78906 0.789062,-6.64844 2.375,-8.5625 1.578125,-1.95312 3.765625,-2.91406 6.578125,-2.91406 2.914063,0 5.117187,0.96094 6.648437,2.91406 1.515626,1.91406 2.296876,4.77344 2.296876,8.5625 0,3.80469 -0.78125,6.67188 -2.328126,8.625 -1.5625,1.91406 -3.75,2.875 -6.578124,2.875 -2.914063,0 -5.15625,-0.96094 -6.703126,-2.875 -1.515624,-1.95312 -2.289062,-4.82031 -2.289062,-8.625"
       id="path12"
       inkscape:connector-curvature="0" />
    <path
       style="fill:#ffffff;fill-opacity:1;fill-rule:nonzero;stroke:none"
       d="m 61.734375,119.97656 c 0.132813,0.0312 0.265625,0.0312 0.4375,0.0312 0.148437,0 0.304687,0 0.4375,0 1.125,0 2.054687,-0.17968 2.8125,-0.57031 0.773437,-0.36719 1.375,-0.89062 1.828125,-1.5625 0.492188,-0.65625 0.828125,-1.42969 1.015625,-2.34375 0.21875,-0.92187 0.320313,-1.9375 0.320313,-3.03125 0,-0.9375 -0.08594,-1.86719 -0.234376,-2.77344 -0.171874,-0.89062 -0.460937,-1.6875 -0.84375,-2.375 -0.40625,-0.6875 -0.960937,-1.22656 -1.648437,-1.63281 -0.695313,-0.4375 -1.601563,-0.64062 -2.695313,-0.64062 -0.203124,0 -0.453124,0 -0.726562,0.0312 -0.25,0 -0.5,0.0156 -0.703125,0.0703 v 14.79687 M 73.601562,112.5 c 0,2.05469 -0.304687,3.78906 -0.890624,5.23438 -0.554688,1.4375 -1.351563,2.59375 -2.359376,3.48437 -1.023437,0.91406 -2.242187,1.57031 -3.65625,2.00781 -1.390624,0.38282 -2.929687,0.58594 -4.609374,0.58594 -0.875,0 -1.75,-0.0312 -2.609376,-0.13281 -0.828124,-0.0703 -1.71875,-0.20313 -2.679687,-0.39063 v -21.49218 c 1.117187,-0.21875 2.171875,-0.35157 3.164063,-0.42188 1,-0.0703 1.90625,-0.11719 2.765624,-0.11719 1.632813,0 3.109376,0.21875 4.460938,0.65625 1.359375,0.42188 2.507812,1.09375 3.429688,2.02344 0.945312,0.90625 1.671874,2.07031 2.171874,3.48438 0.539063,1.39062 0.8125,3.09375 0.8125,5.07812"
       id="path14"
       inkscape:connector-curvature="0" />
    <path
       style="fill:#ffffff;fill-opacity:1;fill-rule:nonzero;stroke:none"
       d="m 83.984375,120.32813 c 0.828125,0 1.5,-0.0625 2.039063,-0.20313 0.554687,-0.16406 1.007812,-0.38281 1.328124,-0.63281 0.320313,-0.28906 0.523438,-0.60938 0.640626,-0.92969 0.132812,-0.35156 0.203124,-0.72656 0.203124,-1.07812 0,-0.45313 -0.148437,-0.84375 -0.4375,-1.21094 -0.304687,-0.35156 -0.671874,-0.65625 -1.125,-0.92969 -0.460937,-0.26562 -0.960937,-0.51562 -1.53125,-0.73437 -0.5625,-0.24219 -1.117187,-0.46094 -1.6875,-0.64063 -0.742187,-0.23437 -1.515624,-0.50781 -2.320312,-0.82812 -0.8125,-0.30469 -1.53125,-0.6875 -2.210938,-1.16407 -0.632812,-0.48437 -1.171874,-1.05468 -1.59375,-1.75 -0.4375,-0.70312 -0.640624,-1.57812 -0.640624,-2.625 0,-2.07031 0.742187,-3.6875 2.234374,-4.84375 1.539063,-1.16406 3.609376,-1.73437 6.265626,-1.73437 1.515624,0 2.84375,0.14844 3.953124,0.45312 1.164063,0.30469 2.125,0.65625 2.898438,1.02344 l -1.445312,3.38281 c -0.65625,-0.33593 -1.414063,-0.60156 -2.242188,-0.85156 -0.804688,-0.24219 -1.734375,-0.35937 -2.8125,-0.35937 -2.625,0 -3.921875,0.84375 -3.921875,2.53125 0,0.4375 0.132813,0.80468 0.40625,1.14062 0.25,0.30469 0.585937,0.58594 0.992187,0.85938 0.421876,0.23437 0.890626,0.45312 1.398438,0.64062 0.539062,0.1875 1.0625,0.36719 1.5625,0.53906 0.773438,0.25 1.585938,0.55469 2.40625,0.875 0.859375,0.32032 1.632812,0.74219 2.328125,1.28125 0.71875,0.51563 1.3125,1.19532 1.765625,2 0.453125,0.77344 0.6875,1.76563 0.6875,2.97657 0,2.07031 -0.773438,3.67187 -2.289062,4.82031 C 89.34375,123.44531 87.046875,124 83.984375,124 c -2.070313,0 -3.703125,-0.1875 -4.929687,-0.57031 -1.226563,-0.40625 -2.15625,-0.77344 -2.78125,-1.09375 l 1.453124,-3.57031 c 0.71875,0.38281 1.578126,0.74218 2.554688,1.07812 1.03125,0.32031 2.257812,0.48438 3.703125,0.48438"
       id="path16"
       inkscape:connector-curvature="0" />
  </g>
</svg>
