<?xml version="1.0" encoding="UTF-8" standalone="no"?>
<svg
   xmlns:dc="http://purl.org/dc/elements/1.1/"
   xmlns:cc="http://creativecommons.org/ns#"
   xmlns:rdf="http://www.w3.org/1999/02/22-rdf-syntax-ns#"
   xmlns:svg="http://www.w3.org/2000/svg"
   xmlns="http://www.w3.org/2000/svg"
   xmlns:sodipodi="http://sodipodi.sourceforge.net/DTD/sodipodi-0.dtd"
   xmlns:inkscape="http://www.inkscape.org/namespaces/inkscape"
   width="96"
   height="96"
   viewBox="0 0 96 96"
   version="1.1"
   id="svg2"
   inkscape:version="0.92.2 (5c3e80d, 2017-08-06)"
   sodipodi:docname="application-vnd.oasis.opendocument.text-template.svg">
  <metadata
     id="metadata33">
    <rdf:RDF>
      <cc:Work
         rdf:about="">
        <dc:format>image/svg+xml</dc:format>
        <dc:type
           rdf:resource="http://purl.org/dc/dcmitype/StillImage" />
        <dc:title></dc:title>
      </cc:Work>
    </rdf:RDF>
  </metadata>
  <defs
     id="defs31" />
  <sodipodi:namedview
     pagecolor="#ffffff"
     bordercolor="#666666"
     borderopacity="1"
     objecttolerance="10"
     gridtolerance="10"
     guidetolerance="10"
     inkscape:pageopacity="0"
     inkscape:pageshadow="2"
     inkscape:window-width="1740"
     inkscape:window-height="1298"
     id="namedview29"
     showgrid="false"
     inkscape:zoom="1.84375"
     inkscape:cx="-118.50847"
     inkscape:cy="64"
     inkscape:window-x="770"
     inkscape:window-y="339"
     inkscape:window-maximized="0"
     inkscape:current-layer="surface1" />
  <g
     id="surface1"
     transform="translate(0,-32)">
    <path
       style="fill:#5062b0;fill-opacity:1;fill-rule:nonzero;stroke:none;stroke-width:0.75"
       d="M 16.03125,32 C 13.96875,32 12,34.068359 12,36.21875 v 87.5625 C 12,125.8086 14.085938,128 16.03125,128 h 63.9375 C 81.914062,128 84,125.8086 84,123.78125 V 36.125 C 84,34.103516 81.896483,32 79.875,32 Z m 0,0"
       id="path5"
       inkscape:connector-curvature="0" />
    <path
       style="fill:#000000;fill-opacity:0.19607801;fill-rule:nonzero;stroke:none;stroke-width:0.75"
       d="m 12,104 v 20.00391 C 12,125.94922 14.0625,128 15.996094,128 H 80.00391 C 81.9375,128 84,125.94922 84,124.00391 V 104 Z m 0,0"
       id="path21"
       inkscape:connector-curvature="0" />
    <path
       style="fill:#ffffff;fill-opacity:1;fill-rule:nonzero;stroke:none;stroke-width:0.75"
       d="m 30.46875,116.89648 c 0,0.78516 0.02344,1.52931 0.08789,2.22071 0.07617,0.67969 0.210937,1.27148 0.410155,1.78125 0.205079,0.50391 0.503907,0.90235 0.873048,1.19531 0.375,0.29883 0.867187,0.44531 1.482422,0.44531 0.609375,0 1.089843,-0.14648 1.458984,-0.44531 0.386719,-0.29296 0.679687,-0.6914 0.878906,-1.19531 0.210938,-0.53321 0.345703,-1.125 0.410156,-1.80469 0.07031,-0.67969 0.105469,-1.41211 0.105469,-2.19727 0,-0.77929 -0.03515,-1.51171 -0.105469,-2.1914 -0.06446,-0.70312 -0.199218,-1.29492 -0.410156,-1.80469 -0.199219,-0.50391 -0.480469,-0.90234 -0.855469,-1.19531 -0.369141,-0.29883 -0.861328,-0.44531 -1.482421,-0.44531 -0.615235,0 -1.107422,0.14648 -1.482422,0.44531 -0.369141,0.29297 -0.667969,0.70313 -0.873048,1.22461 -0.199218,0.50391 -0.333984,1.0957 -0.410155,1.77539 -0.06445,0.67969 -0.08789,1.41211 -0.08789,2.1914 m -3.644531,0 c 0,-2.78319 0.580077,-4.88671 1.716797,-6.29296 1.148437,-1.43555 2.742187,-2.13867 4.78125,-2.13867 2.115234,0 3.732421,0.70312 4.833984,2.13867 1.113281,1.40625 1.669921,3.50977 1.669921,6.29296 0,2.78907 -0.568359,4.89258 -1.693359,6.32227 -1.125,1.41211 -2.71875,2.11523 -4.78125,2.11523 -2.115234,0 -3.732421,-0.70312 -4.857421,-2.11523 -1.113282,-1.42969 -1.669922,-3.5332 -1.669922,-6.32227"
       id="path23"
       inkscape:connector-curvature="0" />
    <path
       style="fill:#ffffff;fill-opacity:1;fill-rule:nonzero;stroke:none;stroke-width:0.75"
       d="m 54.445312,108.82227 v 2.67187 H 49.699219 V 125 h -3.621094 v -13.50586 h -4.746094 v -2.67187 h 13.113281"
       id="path25"
       inkscape:connector-curvature="0" />
    <path
       style="fill:#ffffff;fill-opacity:1;fill-rule:nonzero;stroke:none;stroke-width:0.75"
       d="m 69.011719,108.82227 v 2.67187 H 64.253906 V 125 h -3.609375 v -13.50586 h -4.746094 v -2.67187 h 13.113282"
       id="path27"
       inkscape:connector-curvature="0" />
    <text
       xml:space="preserve"
       style="font-style:normal;font-variant:normal;font-weight:normal;font-stretch:normal;font-size:8.99999905px;line-height:0%;font-family:Ubuntu;-inkscape-font-specification:Ubuntu;text-align:start;letter-spacing:0px;word-spacing:0px;writing-mode:lr-tb;text-anchor:start;fill:#ffffff;fill-opacity:1;stroke:none;stroke-width:0.75"
       x="17.656019"
       y="99.075584"
       id="text3043"><tspan
         sodipodi:role="line"
         id="tspan3045"
         x="17.656019"
         y="99.075584"
         style="font-size:47.37629318px;line-height:1.25;stroke-width:0.75">W</tspan></text>
  </g>
</svg>
