<?xml version="1.0" encoding="UTF-8" standalone="no"?>
<svg
   xmlns:dc="http://purl.org/dc/elements/1.1/"
   xmlns:cc="http://creativecommons.org/ns#"
   xmlns:rdf="http://www.w3.org/1999/02/22-rdf-syntax-ns#"
   xmlns:svg="http://www.w3.org/2000/svg"
   xmlns="http://www.w3.org/2000/svg"
   xmlns:sodipodi="http://sodipodi.sourceforge.net/DTD/sodipodi-0.dtd"
   xmlns:inkscape="http://www.inkscape.org/namespaces/inkscape"
   width="96"
   height="96"
   viewBox="0 0 96 96"
   version="1.1"
   id="svg15"
   sodipodi:docname="application-pdf.svg"
   inkscape:version="0.92.2 (5c3e80d, 2017-08-06)">
  <metadata
     id="metadata21">
    <rdf:RDF>
      <cc:Work
         rdf:about="">
        <dc:format>image/svg+xml</dc:format>
        <dc:type
           rdf:resource="http://purl.org/dc/dcmitype/StillImage" />
        <dc:title></dc:title>
      </cc:Work>
    </rdf:RDF>
  </metadata>
  <defs
     id="defs19" />
  <sodipodi:namedview
     pagecolor="#ffffff"
     bordercolor="#666666"
     borderopacity="1"
     objecttolerance="10"
     gridtolerance="10"
     guidetolerance="10"
     inkscape:pageopacity="0"
     inkscape:pageshadow="2"
     inkscape:window-width="2057"
     inkscape:window-height="1225"
     id="namedview17"
     showgrid="false"
     inkscape:zoom="1.84375"
     inkscape:cx="-54.508475"
     inkscape:cy="64"
     inkscape:window-x="102"
     inkscape:window-y="55"
     inkscape:window-maximized="0"
     inkscape:current-layer="svg15" />
  <g
     id="surface1"
     transform="scale(0.75)">
    <path
       style="fill:#de1717;fill-opacity:1;fill-rule:nonzero;stroke:none"
       d="M 21.34375,0 C 18.59375,0 16,2.710938 16,5.578125 V 122.42188 C 16,125.13281 18.75,128 21.34375,128 h 85.3125 C 109.25,128 112,125.13281 112,122.42188 V 36 L 76,0 Z m 0,0"
       id="path2"
       inkscape:connector-curvature="0" />
    <path
       style="fill:#000000;fill-opacity:0.19607801;fill-rule:nonzero;stroke:none"
       d="m 84,36 28,28 V 36 Z m 0,0"
       id="path4"
       inkscape:connector-curvature="0" />
    <path
       style="fill:#ffffff;fill-opacity:0.39215698;fill-rule:nonzero;stroke:none"
       d="m 76,0 35.96875,36 H 81.515625 C 78.820312,36 76,33.148438 76,30.453125 Z m 0,0"
       id="path6"
       inkscape:connector-curvature="0" />
    <path
       style="fill:#ffffff;fill-opacity:1;fill-rule:nonzero;stroke:none"
       d="m 62.75,42.703125 c 0,0 1.84375,16.984375 -11.171875,39.421875 C 38.5625,104.54688 34.734375,101.53125 33.375,100.76563 32,99.984375 30.234375,97.453125 36.015625,92.40625 c 5.765625,-5.046875 8.015625,-4.953125 8.015625,-4.953125 0,0 -5.28125,3.203125 -7.328125,6.3125 -2.0625,3.109375 -3.71875,5.046875 -3.234375,5.921875 0.484375,0.875 6.390625,-3.578125 8.828125,-7.359375 C 46.1875,86.3125 53.53125,75.125 56.953125,64.453125 60.375,53.765625 62.75,42.703125 62.75,42.703125 Z m 0,0"
       id="path8"
       inkscape:connector-curvature="0" />
    <path
       style="fill:#ffffff;fill-opacity:1;fill-rule:nonzero;stroke:none"
       d="m 94.828125,82.015625 c 0,0 -0.296875,0.78125 -3.71875,0.5 C 87.6875,82.21875 74.375,78.046875 67.234375,69.5 60.09375,60.953125 59.5,49.203125 59.015625,43.09375 c -0.5,-6.109375 2.21875,-4.40625 2.609375,-3.640625 0.609375,0.515625 0.90625,2.1875 0.90625,2.1875 0,0 -0.21875,-2.5 -1.296875,-3.578125 C 60.15625,37 59.203125,36.984375 58.125,38.828125 c -1.078125,1.84375 -1.5625,6.984375 -0.6875,11.9375 0.890625,4.953125 4.515625,16.3125 9.015625,21.546875 4.5,5.25 13.5,9.8125 20.15625,11.171875 6.65625,1.359375 8.21875,-1.453125 8.21875,-1.453125 z m 0,0"
       id="path10"
       inkscape:connector-curvature="0" />
    <path
       style="fill:#ffffff;fill-opacity:1;fill-rule:nonzero;stroke:none"
       d="m 51.46875,84.25 c 0,0 12.921875,-4.171875 25.15625,-5.328125 12.234375,-1.171875 16.453125,0.09375 17.515625,0.96875 1.078125,0.875 1.078125,1.84375 1.078125,1.84375 0,0 1.375,-1.359375 0.46875,-2.734375 C 94.921875,77.5625 93.75,76.390625 84.0625,76.6875 74.375,76.96875 73.6875,77.359375 64.78125,79.015625 55.875,80.671875 51.46875,84.25 51.46875,84.25 Z m 0,0"
       id="path12"
       inkscape:connector-curvature="0" />
  </g>
</svg>
