<?xml version="1.0" encoding="UTF-8" standalone="no"?>
<svg
   xmlns:dc="http://purl.org/dc/elements/1.1/"
   xmlns:cc="http://creativecommons.org/ns#"
   xmlns:rdf="http://www.w3.org/1999/02/22-rdf-syntax-ns#"
   xmlns:svg="http://www.w3.org/2000/svg"
   xmlns="http://www.w3.org/2000/svg"
   xmlns:sodipodi="http://sodipodi.sourceforge.net/DTD/sodipodi-0.dtd"
   xmlns:inkscape="http://www.inkscape.org/namespaces/inkscape"
   width="96"
   height="96"
   viewBox="0 0 96 96"
   version="1.1"
   id="svg15"
   sodipodi:docname="application-x-ms-dos-executable.svg"
   inkscape:version="0.92.2 (5c3e80d, 2017-08-06)">
  <metadata
     id="metadata21">
    <rdf:RDF>
      <cc:Work
         rdf:about="">
        <dc:format>image/svg+xml</dc:format>
        <dc:type
           rdf:resource="http://purl.org/dc/dcmitype/StillImage" />
        <dc:title></dc:title>
      </cc:Work>
    </rdf:RDF>
  </metadata>
  <defs
     id="defs19" />
  <sodipodi:namedview
     pagecolor="#ffffff"
     bordercolor="#666666"
     borderopacity="1"
     objecttolerance="10"
     gridtolerance="10"
     guidetolerance="10"
     inkscape:pageopacity="0"
     inkscape:pageshadow="2"
     inkscape:window-width="2161"
     inkscape:window-height="1148"
     id="namedview17"
     showgrid="false"
     inkscape:zoom="1.84375"
     inkscape:cx="-54.508475"
     inkscape:cy="64"
     inkscape:window-x="652"
     inkscape:window-y="436"
     inkscape:window-maximized="0"
     inkscape:current-layer="svg15" />
  <g
     id="surface1"
     transform="scale(0.75)">
    <path
       style="fill:#eeeeee;fill-opacity:1;fill-rule:nonzero;stroke:none"
       d="M 21.484375,16 C 18.75,16 16,18.75 16,21.484375 V 106.67188 C 16,109.25 18.75,112 21.328125,112 H 106.67188 C 109.25,112 112,109.25 112,106.67188 V 21.328125 C 112,18.75 109.25,16 106.67188,16 Z m 0,0"
       id="path2"
       inkscape:connector-curvature="0" />
    <path
       style="fill:#878787;fill-opacity:1;fill-rule:nonzero;stroke:none"
       d="M 32,64 46.21875,49.78125 60.4375,64 46.21875,78.21875 Z m 0,0"
       id="path4"
       inkscape:connector-curvature="0" />
    <path
       style="fill:#878787;fill-opacity:1;fill-rule:nonzero;stroke:none"
       d="M 49.78125,46.21875 64,32 78.21875,46.21875 64,60.4375 Z m 0,0"
       id="path6"
       inkscape:connector-curvature="0" />
    <path
       style="fill:#878787;fill-opacity:1;fill-rule:nonzero;stroke:none"
       d="M 67.5625,64 81.78125,49.78125 96,64 81.78125,78.21875 Z m 0,0"
       id="path8"
       inkscape:connector-curvature="0" />
    <path
       style="fill:#878787;fill-opacity:1;fill-rule:nonzero;stroke:none"
       d="M 49.78125,81.78125 64,67.5625 78.21875,81.78125 64,96 Z m 0,0"
       id="path10"
       inkscape:connector-curvature="0" />
    <path
       style="fill:#a8a8a8;fill-opacity:1;fill-rule:nonzero;stroke:none"
       d="m 22.671875,16 c -1.78125,0 -3.140625,0 -4.9375,1.703125 C 16,19.28125 16,20.890625 16,22.671875 V 105.5 c 0,1.73438 -0.03906,3.27344 1.695312,4.77344 C 19.6875,112 20.765625,112 22.5,112 h 83 c 1.73438,0 2.95313,0 4.89063,-1.75 C 112.03906,108.75781 112,107.23438 112,105.5 v -83 c 0,-1.734375 -0.0312,-3.195312 -1.67187,-4.78125 C 108.54688,16 107.23438,16 105.5,16 Z M 24,20 h 80.08594 c 0.78125,0 1.79687,0.46875 2.57812,1.25 0.78125,0.78125 1.25,1.796875 1.25,2.578125 v 80.257815 c 0,0.78125 -0.46875,1.79687 -1.25,2.57812 -0.78125,0.78125 -1.79687,1.25 -2.57812,1.25 H 23.914062 c -0.78125,0 -1.796874,-0.46875 -2.578124,-1.25 -0.78125,-0.78125 -1.25,-1.79687 -1.25,-2.57812 L 20,24 c 0,-0.890625 0.453125,-1.96875 1.25,-2.75 C 22.03125,20.453125 23.109375,20 24,20 Z m 0,0"
       id="path12"
       inkscape:connector-curvature="0" />
  </g>
</svg>
