<?xml version="1.0" encoding="UTF-8" standalone="no"?>
<svg
   xmlns:dc="http://purl.org/dc/elements/1.1/"
   xmlns:cc="http://creativecommons.org/ns#"
   xmlns:rdf="http://www.w3.org/1999/02/22-rdf-syntax-ns#"
   xmlns:svg="http://www.w3.org/2000/svg"
   xmlns="http://www.w3.org/2000/svg"
   xmlns:sodipodi="http://sodipodi.sourceforge.net/DTD/sodipodi-0.dtd"
   xmlns:inkscape="http://www.inkscape.org/namespaces/inkscape"
   width="96"
   height="96"
   viewBox="0 0 96 96"
   version="1.1"
   id="svg27"
   sodipodi:docname="application-vnd.ms-access.svg"
   inkscape:version="0.92.2 (5c3e80d, 2017-08-06)">
  <metadata
     id="metadata33">
    <rdf:RDF>
      <cc:Work
         rdf:about="">
        <dc:format>image/svg+xml</dc:format>
        <dc:type
           rdf:resource="http://purl.org/dc/dcmitype/StillImage" />
        <dc:title></dc:title>
      </cc:Work>
    </rdf:RDF>
  </metadata>
  <defs
     id="defs31" />
  <sodipodi:namedview
     pagecolor="#ffffff"
     bordercolor="#666666"
     borderopacity="1"
     objecttolerance="10"
     gridtolerance="10"
     guidetolerance="10"
     inkscape:pageopacity="0"
     inkscape:pageshadow="2"
     inkscape:window-width="2357"
     inkscape:window-height="1275"
     id="namedview29"
     showgrid="false"
     inkscape:zoom="1.84375"
     inkscape:cx="-55.59322"
     inkscape:cy="64"
     inkscape:window-x="309"
     inkscape:window-y="244"
     inkscape:window-maximized="0"
     inkscape:current-layer="svg27" />
  <g
     id="surface1"
     transform="scale(0.75)">
    <path
       style="fill:#a13538;fill-opacity:1;fill-rule:nonzero;stroke:none"
       d="M 21.34375,0 C 18.59375,0 16,2.710938 16,5.578125 V 122.42188 C 16,125.13281 18.75,128 21.34375,128 h 85.3125 C 109.25,128 112,125.13281 112,122.42188 V 36 L 76,0 Z m 0,0"
       id="path2"
       inkscape:connector-curvature="0" />
    <path
       style="fill:#000000;fill-opacity:0.19607801;fill-rule:nonzero;stroke:none"
       d="m 16,96 v 26.67188 C 16,125.26563 18.75,128 21.328125,128 H 106.67188 C 109.25,128 112,125.26563 112,122.67188 V 96 Z m 0,0"
       id="path4"
       inkscape:connector-curvature="0" />
    <path
       style="fill:#ffffff;fill-opacity:1;fill-rule:nonzero;stroke:none"
       d="M 41.109375,119.66406 40.34375,116 H 36.0625 l -0.734375,3.66406 H 32 c 0.765625,-3.125 1.53125,-5.96875 2.3125,-8.53125 0.78125,-2.58593 1.53125,-5.03125 2.265625,-7.33593 H 40.0625 c 0.765625,2.32812 1.515625,4.78906 2.265625,7.40625 0.765625,2.60156 1.5,5.42187 2.21875,8.46093 h -3.4375 M 38.25,106.875 c -0.171875,0.59375 -0.34375,1.16406 -0.5,1.71094 -0.140625,0.53125 -0.28125,1.07031 -0.421875,1.58594 -0.109375,0.52343 -0.234375,1.04687 -0.359375,1.57031 -0.109375,0.53125 -0.203125,1.07812 -0.3125,1.64844 h 3.15625 c -0.109375,-0.57032 -0.21875,-1.11719 -0.3125,-1.64844 -0.109375,-0.52344 -0.234375,-1.04688 -0.375,-1.57031 -0.125,-0.51563 -0.25,-1.05469 -0.40625,-1.58594 -0.140625,-0.54688 -0.296875,-1.11719 -0.46875,-1.71094"
       id="path6"
       inkscape:connector-curvature="0" />
    <path
       style="fill:#ffffff;fill-opacity:1;fill-rule:nonzero;stroke:none"
       d="m 52.46875,120 c -2.265625,0 -4,-0.71875 -5.203125,-2.15625 -1.1875,-1.4375 -1.796875,-3.46875 -1.796875,-6.125 0,-1.3125 0.1875,-2.49219 0.546875,-3.50781 0.375,-1.03125 0.875,-1.89063 1.515625,-2.59375 0.65625,-0.71875 1.4375,-1.25 2.3125,-1.61719 0.90625,-0.375 1.890625,-0.55469 2.9375,-0.55469 0.578125,0 1.09375,0.0469 1.546875,0.14063 0.46875,0.0859 0.875,0.19531 1.21875,0.32031 0.34375,0.11719 0.625,0.24219 0.859375,0.375 0.234375,0.14063 0.421875,0.24219 0.546875,0.3125 l -0.84375,2.50781 c -0.390625,-0.25 -0.875,-0.46875 -1.453125,-0.64062 -0.546875,-0.17969 -1.1875,-0.28125 -1.921875,-0.28125 -0.5,0 -1,0.10156 -1.484375,0.28125 -0.46875,0.17187 -0.890625,0.47656 -1.265625,0.89844 -0.375,0.41406 -0.671875,0.96875 -0.921875,1.66406 -0.21875,0.70312 -0.328125,1.57812 -0.328125,2.61719 0,1.8125 0.3125,3.20312 0.9375,4.17187 0.640625,0.96094 1.671875,1.44531 3.109375,1.44531 0.84375,0 1.515625,-0.0937 2.0625,-0.28125 0.546875,-0.1875 1,-0.375 1.328125,-0.57031 l 0.796875,2.49219 c -0.4375,0.27344 -1.0625,0.53125 -1.84375,0.76562 C 54.359375,119.89063 53.484375,120 52.46875,120"
       id="path8"
       inkscape:connector-curvature="0" />
    <path
       style="fill:#ffffff;fill-opacity:1;fill-rule:nonzero;stroke:none"
       d="m 65.484375,120 c -2.28125,0 -4.015625,-0.71875 -5.203125,-2.15625 -1.203125,-1.4375 -1.796875,-3.46875 -1.796875,-6.125 0,-1.3125 0.1875,-2.49219 0.546875,-3.50781 0.359375,-1.03125 0.859375,-1.89063 1.515625,-2.59375 0.65625,-0.71875 1.421875,-1.25 2.3125,-1.61719 0.890625,-0.375 1.875,-0.55469 2.9375,-0.55469 0.578125,0 1.078125,0.0469 1.53125,0.14063 0.46875,0.0859 0.875,0.19531 1.21875,0.32031 0.359375,0.11719 0.640625,0.24219 0.859375,0.375 0.25,0.14063 0.4375,0.24219 0.546875,0.3125 L 69.125,107.10156 c -0.40625,-0.25 -0.890625,-0.46875 -1.453125,-0.64062 -0.5625,-0.17969 -1.203125,-0.28125 -1.921875,-0.28125 -0.515625,0 -1,0.10156 -1.484375,0.28125 -0.46875,0.17187 -0.90625,0.47656 -1.28125,0.89844 -0.359375,0.41406 -0.671875,0.96875 -0.90625,1.66406 -0.234375,0.70312 -0.34375,1.57812 -0.34375,2.61719 0,1.8125 0.3125,3.20312 0.9375,4.17187 0.640625,0.96094 1.6875,1.44531 3.125,1.44531 0.828125,0 1.515625,-0.0937 2.046875,-0.28125 0.5625,-0.1875 1,-0.375 1.328125,-0.57031 l 0.8125,2.49219 c -0.453125,0.27344 -1.0625,0.53125 -1.84375,0.76562 C 67.375,119.89063 66.484375,120 65.484375,120"
       id="path10"
       inkscape:connector-curvature="0" />
    <path
       style="fill:#ffffff;fill-opacity:1;fill-rule:nonzero;stroke:none"
       d="m 75.390625,117.10156 c 0.09375,0.0234 0.1875,0.0234 0.296875,0.0234 0.09375,0 0.1875,0 0.28125,0 0.734375,0 1.328125,-0.13281 1.8125,-0.41406 0.515625,-0.26563 0.90625,-0.64063 1.203125,-1.125 0.3125,-0.47656 0.53125,-1.04688 0.65625,-1.6875 0.140625,-0.66406 0.203125,-1.39844 0.203125,-2.17969 0,-0.67969 -0.04687,-1.35156 -0.15625,-2.00781 C 79.578125,109.07031 79.40625,108.5 79.140625,108 c -0.265625,-0.49219 -0.609375,-0.88281 -1.0625,-1.17187 -0.453125,-0.32032 -1.03125,-0.46094 -1.75,-0.46094 -0.140625,0 -0.296875,0 -0.46875,0.0234 -0.171875,0 -0.328125,0.008 -0.46875,0.0469 v 10.66406 m 7.703125,-5.39062 c 0,1.46875 -0.1875,2.73437 -0.578125,3.77344 -0.359375,1.03125 -0.875,1.875 -1.53125,2.51562 -0.65625,0.65625 -1.4375,1.125 -2.359375,1.42969 -0.90625,0.28906 -1.90625,0.4375 -3,0.4375 -0.5625,0 -1.125,-0.0234 -1.6875,-0.10156 -0.53125,-0.0469 -1.125,-0.14063 -1.75,-0.27344 V 104 c 0.734375,-0.15625 1.421875,-0.25781 2.0625,-0.30469 0.640625,-0.0469 1.234375,-0.0859 1.796875,-0.0859 1.0625,0 2.015625,0.15625 2.890625,0.46093 0.875,0.32032 1.625,0.80469 2.234375,1.46875 0.609375,0.64063 1.078125,1.49219 1.40625,2.51563 0.34375,1 0.515625,2.22656 0.515625,3.66406"
       id="path12"
       inkscape:connector-curvature="0" />
    <path
       style="fill:#ffffff;fill-opacity:1;fill-rule:nonzero;stroke:none"
       d="m 96,114.86719 c 0,0.96094 -0.171875,1.75781 -0.5,2.41406 -0.328125,0.63281 -0.78125,1.14063 -1.34375,1.53906 -0.5625,0.38282 -1.21875,0.64844 -2,0.8125 -0.765625,0.16407 -1.59375,0.23438 -2.484375,0.23438 -0.703125,0 -1.4375,-0.0391 -2.203125,-0.125 -0.765625,-0.0703 -1.515625,-0.17969 -2.265625,-0.33594 V 104 c 0.609375,-0.0937 1.28125,-0.17969 2,-0.25781 0.734375,-0.0781 1.453125,-0.13281 2.15625,-0.13281 1.21875,0 2.203125,0.13281 2.96875,0.39062 0.765625,0.24219 1.359375,0.57031 1.796875,0.96875 0.4375,0.39844 0.734375,0.83594 0.890625,1.33594 0.15625,0.5 0.234375,0.99219 0.234375,1.49219 0,0.75 -0.203125,1.42187 -0.578125,2 -0.359375,0.58593 -0.859375,1.04687 -1.484375,1.38281 1.09375,0.39062 1.828125,0.92187 2.21875,1.59375 C 95.796875,113.4375 96,114.14063 96,114.86719 m -7.59375,-2.14844 v 4.3125 c 0.21875,0.0312 0.46875,0.0547 0.71875,0.0703 0.28125,0.0234 0.546875,0.0234 0.8125,0.0234 0.359375,0 0.71875,-0.0234 1.0625,-0.0703 0.34375,-0.0781 0.65625,-0.1875 0.921875,-0.34375 0.265625,-0.17188 0.5,-0.39844 0.671875,-0.6875 0.171875,-0.30469 0.265625,-0.69531 0.265625,-1.15625 0,-0.76563 -0.265625,-1.30469 -0.765625,-1.63281 -0.484375,-0.34375 -1.140625,-0.51563 -1.96875,-0.51563 h -1.71875 m 1.25,-2.61719 c 0.8125,0 1.421875,-0.17187 1.84375,-0.50781 0.421875,-0.36719 0.625,-0.85156 0.625,-1.46875 0,-0.375 -0.0625,-0.66406 -0.1875,-0.89844 C 91.8125,107 91.65625,106.8125 91.453125,106.69531 91.234375,106.5625 91,106.47656 90.71875,106.4375 c -0.28125,-0.0469 -0.5625,-0.0703 -0.859375,-0.0703 -0.25,0 -0.5,0 -0.75,0.0234 -0.265625,0.008 -0.5,0.0391 -0.703125,0.0703 v 3.64062 h 1.25"
       id="path14"
       inkscape:connector-curvature="0" />
    <path
       style="fill:#000000;fill-opacity:0.19607801;fill-rule:nonzero;stroke:none"
       d="m 84,36 28,28 V 36 Z m 0,0"
       id="path16"
       inkscape:connector-curvature="0" />
    <path
       style="fill:#ffffff;fill-opacity:0.39215698;fill-rule:nonzero;stroke:none"
       d="m 76,0 35.96875,36 H 81.515625 C 78.820312,36 76,33.148438 76,30.453125 Z m 0,0"
       id="path18"
       inkscape:connector-curvature="0" />
    <path
       style="fill:#ffffff;fill-opacity:1;fill-rule:nonzero;stroke:none"
       d="m 64,43.984375 c -11.046875,0 -20,2.796875 -20,6.257813 v 4.992187 c 0,3.460937 8.953125,6.257813 20,6.257813 11.046875,0 20,-2.796876 20,-6.257813 V 50.242188 C 84,46.78125 75.046875,43.984375 64,43.984375 Z m 0,0"
       id="path20"
       inkscape:connector-curvature="0" />
    <path
       style="fill:#ffffff;fill-opacity:1;fill-rule:nonzero;stroke:none"
       d="m 63.9375,63.984375 c -8.960938,0 -16.507812,-1.828125 -19.054688,-4.367187 C 44.28125,60.203125 44,60.835938 44,61.492188 v 5 C 44,69.945312 52.953125,72.75 64,72.75 c 11.046875,0 20,-2.804688 20,-6.257812 v -5 c 0,-0.65625 -0.351562,-1.289063 -0.9375,-1.875 -2.546875,2.539062 -10.171875,4.367187 -19.125,4.367187 z m 0,0"
       id="path22"
       inkscape:connector-curvature="0" />
    <path
       style="fill:#ffffff;fill-opacity:1;fill-rule:nonzero;stroke:none"
       d="M 63.9375,75.234375 C 54.976562,75.234375 47.429688,73.40625 44.882812,70.875 44.28125,71.460938 44,72.085938 44,72.75 v 4.992188 C 44,81.203125 52.953125,84 64,84 75.046875,84 84,81.203125 84,77.742188 V 72.75 c 0,-0.664062 -0.351562,-1.289062 -0.9375,-1.875 -2.546875,2.53125 -10.171875,4.359375 -19.125,4.359375 z m 0,0"
       id="path24"
       inkscape:connector-curvature="0" />
  </g>
</svg>
