<?xml version="1.0" encoding="UTF-8" standalone="no"?>
<svg
   xmlns:dc="http://purl.org/dc/elements/1.1/"
   xmlns:cc="http://creativecommons.org/ns#"
   xmlns:rdf="http://www.w3.org/1999/02/22-rdf-syntax-ns#"
   xmlns:svg="http://www.w3.org/2000/svg"
   xmlns="http://www.w3.org/2000/svg"
   xmlns:sodipodi="http://sodipodi.sourceforge.net/DTD/sodipodi-0.dtd"
   xmlns:inkscape="http://www.inkscape.org/namespaces/inkscape"
   width="96"
   height="96"
   viewBox="0 0 96 96"
   version="1.1"
   id="svg3012"
   inkscape:version="0.92.2 (5c3e80d, 2017-08-06)"
   sodipodi:docname="application-x-arc.svg">
  <metadata
     id="metadata3045">
    <rdf:RDF>
      <cc:Work
         rdf:about="">
        <dc:format>image/svg+xml</dc:format>
        <dc:type
           rdf:resource="http://purl.org/dc/dcmitype/StillImage" />
        <dc:title></dc:title>
      </cc:Work>
    </rdf:RDF>
  </metadata>
  <defs
     id="defs3043" />
  <sodipodi:namedview
     pagecolor="#ffffff"
     bordercolor="#666666"
     borderopacity="1"
     objecttolerance="10"
     gridtolerance="10"
     guidetolerance="10"
     inkscape:pageopacity="0"
     inkscape:pageshadow="2"
     inkscape:window-width="3738"
     inkscape:window-height="2041"
     id="namedview3041"
     showgrid="true"
     inkscape:zoom="1.3037281"
     inkscape:cx="-610.8508"
     inkscape:cy="215.55699"
     inkscape:window-x="102"
     inkscape:window-y="55"
     inkscape:window-maximized="1"
     inkscape:current-layer="svg3012">
    <inkscape:grid
       type="xygrid"
       id="grid3084" />
  </sodipodi:namedview>
  <path
     inkscape:connector-curvature="0"
     id="path3015"
     d="M 16.007812,0 C 13.945313,0 12,2.0332035 12,4.1835937 V 91.81641 C 12,93.849608 14.0625,96 16.007812,96 H 79.992187 C 81.9375,96 84,93.849608 84,91.81641 V 27 L 57,0 Z m 0,0"
     style="fill:#45606e;fill-opacity:1;fill-rule:nonzero;stroke:none;stroke-width:0.75" />
  <path
     inkscape:connector-curvature="0"
     id="path3017"
     d="M 12,72 V 92.00391 C 12,93.949223 14.0625,96 15.996094,96 H 80.00391 C 81.9375,96 84,93.949223 84,92.00391 V 72 Z m 0,0"
     style="fill:#000000;fill-opacity:0.19607801;fill-rule:nonzero;stroke:none;stroke-width:0.75" />
  <path
     inkscape:connector-curvature="0"
     id="path3019"
     d="m 37.283203,92.98242 -0.849609,-3.75 h -4.845703 l -0.826172,3.75 H 27 c 0.861328,-3.199215 1.734375,-6.123045 2.619141,-8.748045 0.884765,-2.64258 1.734375,-5.150392 2.560546,-7.511715 h 3.9375 c 0.861329,2.373045 1.710938,4.904295 2.560547,7.587885 0.855469,2.671875 1.681641,5.560553 2.496094,8.671875 H 37.283203 M 34.060546,79.869142 c -0.193359,0.615233 -0.380859,1.207028 -0.5625,1.757813 -0.164062,0.54492 -0.310546,1.083982 -0.46875,1.640625 -0.134765,0.515625 -0.26953,1.054687 -0.404296,1.59375 -0.123047,0.54492 -0.246094,1.10742 -0.357422,1.6875 h 3.550781 c -0.123047,-0.58008 -0.228515,-1.14258 -0.351563,-1.6875 -0.111327,-0.539063 -0.246093,-1.078125 -0.410155,-1.59375 -0.134766,-0.556643 -0.29297,-1.095705 -0.46875,-1.640625 -0.158204,-0.550785 -0.328125,-1.14258 -0.527345,-1.757813"
     style="fill:#ffffff;fill-opacity:1;fill-rule:nonzero;stroke:none;stroke-width:0.75" />
  <path
     inkscape:connector-curvature="0"
     id="path3021"
     d="M 63,27 84,48 V 27 Z m 0,0"
     style="fill:#000000;fill-opacity:0.19607801;fill-rule:nonzero;stroke:none;stroke-width:0.75" />
  <path
     inkscape:connector-curvature="0"
     id="path3023"
     d="m 47.71875,76.53516 c 1.042969,0 1.980469,0.09961 2.830078,0.310545 0.832031,0.20508 1.558593,0.539063 2.162109,0.966795 0.615234,0.445313 1.072266,1.01367 1.388672,1.6875 0.333985,0.662108 0.492187,1.453125 0.492187,2.36133 0,0.949215 -0.205077,1.810545 -0.638671,2.583983 -0.427734,0.761722 -1.142579,1.353517 -2.150391,1.757812 0.328125,0.457035 0.685547,0.960938 1.054687,1.529295 0.38086,0.539063 0.738282,1.119143 1.095704,1.734375 0.345703,0.591803 0.679687,1.189455 0.996094,1.804688 0.333984,0.603517 0.615234,1.171875 0.849609,1.710937 h -3.791016 c -0.451171,-1.042965 -0.984375,-2.050777 -1.582031,-3.023437 -0.591797,-0.972653 -1.21875,-1.96875 -1.910156,-2.96484 H 46.634766 V 92.98242 H 43.019531 V 76.95117 c 0.357422,-0.07028 0.738281,-0.13476 1.142578,-0.181635 0.427735,-0.07618 0.861328,-0.11133 1.289062,-0.134767 0.433595,-0.03517 0.84961,-0.06442 1.242188,-0.07617 0.398437,-0.0234 0.726562,-0.0234 1.025391,-0.0234 m 3.210937,5.302732 c 0,-0.86133 -0.298828,-1.488285 -0.884766,-1.89258 -0.591796,-0.398437 -1.371093,-0.603517 -2.326171,-0.603517 -0.134766,0 -0.298829,0.0117 -0.492188,0.0234 -0.199218,0 -0.392578,0.0234 -0.591796,0.05857 v 4.886715 h 0.785155 c 1.242188,0 2.132813,-0.210938 2.683595,-0.626948 0.539062,-0.445312 0.826171,-1.060552 0.826171,-1.845705"
     style="fill:#ffffff;fill-opacity:1;fill-rule:nonzero;stroke:none;stroke-width:0.75" />
  <path
     inkscape:connector-curvature="0"
     id="path3025"
     d="M 57,0 83.976562,27 H 61.136719 C 59.115234,27 57,24.861328 57,22.839844 Z m 0,0"
     style="fill:#ffffff;fill-opacity:0.39215698;fill-rule:nonzero;stroke:none;stroke-width:0.75" />
  <path
     inkscape:connector-curvature="0"
     id="path3029"
     d="m 27,0 h 9 v 9 h -9 z m 0,0"
     style="fill:#f8f8f8;fill-opacity:1;fill-rule:evenodd;stroke:none;stroke-width:0.75" />
  <path
     inkscape:connector-curvature="0"
     id="path3031"
     d="m 36,9 h 9 v 9 h -9 z m 0,0"
     style="fill:#f8f8f8;fill-opacity:1;fill-rule:evenodd;stroke:none;stroke-width:0.75" />
  <path
     inkscape:connector-curvature="0"
     id="path3033"
     d="m 27,18 h 9 v 9 h -9 z m 0,0"
     style="fill:#f8f8f8;fill-opacity:1;fill-rule:evenodd;stroke:none;stroke-width:0.75" />
  <path
     inkscape:connector-curvature="0"
     id="path3035"
     d="m 36,27 h 9 v 9 h -9 z m 0,0"
     style="fill:#f8f8f8;fill-opacity:1;fill-rule:evenodd;stroke:none;stroke-width:0.75" />
  <path
     inkscape:connector-curvature="0"
     id="path3037"
     d="m 27,36 h 9 v 9 h -9 z m 0,0"
     style="fill:#f8f8f8;fill-opacity:1;fill-rule:evenodd;stroke:none;stroke-width:0.75" />
  <path
     inkscape:connector-curvature="0"
     id="path3039"
     d="M 27,48 H 45 V 66 H 27 Z m 0,0"
     style="fill:#f8f8f8;fill-opacity:1;fill-rule:evenodd;stroke:none;stroke-width:0.75" />
  <path
     inkscape:connector-curvature="0"
     id="path27"
     d="m 65.255859,93.351562 c -2.578125,0 -4.535156,-0.738277 -5.888672,-2.226562 -1.347656,-1.470705 -2.021484,-3.568358 -2.021484,-6.304688 0,-1.347652 0.199218,-2.560545 0.609375,-3.609375 0.416016,-1.066402 0.990234,-1.95117 1.716797,-2.677732 0.732421,-0.73242 1.611328,-1.283205 2.607421,-1.658205 1.025391,-0.386715 2.126954,-0.574215 3.322266,-0.574215 0.650391,0 1.224609,0.04687 1.740234,0.146483 0.521485,0.08789 0.984375,0.199215 1.371095,0.328125 0.398437,0.123045 0.714843,0.24609 0.972655,0.386715 0.275391,0.14649 0.47461,0.246097 0.615235,0.322267 l -0.9375,2.589848 C 68.912109,79.810545 68.361328,79.582035 67.716796,79.412108 67.089844,79.224608 66.363281,79.125 65.542969,79.125 c -0.5625,0 -1.125,0.09961 -1.675782,0.287108 -0.527343,0.169927 -1.013671,0.486329 -1.435546,0.919927 -0.416016,0.427733 -0.76172,1.001948 -1.03711,1.710938 -0.251953,0.726562 -0.375,1.628902 -0.375,2.70117 0,1.863277 0.351563,3.29883 1.060547,4.29492 0.726563,0.990232 1.898438,1.488285 3.521484,1.488285 0.9375,0 1.710938,-0.09962 2.326172,-0.287115 0.621094,-0.199215 1.125,-0.386715 1.5,-0.585938 l 0.908203,2.560553 C 69.826171,92.501955 69.128906,92.765625 68.25,93 c -0.861329,0.240233 -1.857422,0.351562 -2.994141,0.351562"
     style="fill:#ffffff;fill-opacity:1;fill-rule:nonzero;stroke:none;stroke-width:0.75" />
</svg>
