<?xml version="1.0" encoding="UTF-8" standalone="no"?>
<svg
   xmlns:dc="http://purl.org/dc/elements/1.1/"
   xmlns:cc="http://creativecommons.org/ns#"
   xmlns:rdf="http://www.w3.org/1999/02/22-rdf-syntax-ns#"
   xmlns:svg="http://www.w3.org/2000/svg"
   xmlns="http://www.w3.org/2000/svg"
   xmlns:sodipodi="http://sodipodi.sourceforge.net/DTD/sodipodi-0.dtd"
   xmlns:inkscape="http://www.inkscape.org/namespaces/inkscape"
   width="96"
   height="96"
   viewBox="0 0 96 96"
   version="1.1"
   id="svg2"
   inkscape:version="0.92.2 (5c3e80d, 2017-08-06)"
   sodipodi:docname="application-x-compressed-tar.svg">
  <metadata
     id="metadata35">
    <rdf:RDF>
      <cc:Work
         rdf:about="">
        <dc:format>image/svg+xml</dc:format>
        <dc:type
           rdf:resource="http://purl.org/dc/dcmitype/StillImage" />
        <dc:title></dc:title>
      </cc:Work>
    </rdf:RDF>
  </metadata>
  <defs
     id="defs33" />
  <sodipodi:namedview
     pagecolor="#ffffff"
     bordercolor="#666666"
     borderopacity="1"
     objecttolerance="10"
     gridtolerance="10"
     guidetolerance="10"
     inkscape:pageopacity="0"
     inkscape:pageshadow="2"
     inkscape:window-width="2189"
     inkscape:window-height="1357"
     id="namedview31"
     showgrid="false"
     inkscape:zoom="1.84375"
     inkscape:cx="-54.508475"
     inkscape:cy="64"
     inkscape:window-x="102"
     inkscape:window-y="55"
     inkscape:window-maximized="0"
     inkscape:current-layer="surface1" />
  <g
     id="surface1"
     transform="translate(0,-32)">
    <path
       style="fill:#45606e;fill-opacity:1;fill-rule:nonzero;stroke:none;stroke-width:0.75"
       d="M 16.007812,32 C 13.945313,32 12,34.033203 12,36.183594 V 123.81641 C 12,125.84961 14.0625,128 16.007812,128 H 79.992187 C 81.9375,128 84,125.84961 84,123.81641 V 59 L 57,32 Z m 0,0"
       id="path5"
       inkscape:connector-curvature="0" />
    <path
       style="fill:#000000;fill-opacity:0.19607801;fill-rule:nonzero;stroke:none;stroke-width:0.75"
       d="m 12,104 v 20.00391 C 12,125.94922 14.0625,128 15.996094,128 H 80.00391 C 81.9375,128 84,125.94922 84,124.00391 V 104 Z m 0,0"
       id="path7"
       inkscape:connector-curvature="0" />
    <path
       style="fill:#ffffff;fill-opacity:1;fill-rule:nonzero;stroke:none;stroke-width:0.75"
       d="m 40.318359,108.79297 v 2.67188 h -4.816406 v 13.51757 h -3.662109 v -13.51757 h -4.828125 v -2.67188 h 13.30664"
       id="path9"
       inkscape:connector-curvature="0" />
    <path
       style="fill:#000000;fill-opacity:0.19607801;fill-rule:nonzero;stroke:none;stroke-width:0.75"
       d="M 63,59 84,80 V 59 Z m 0,0"
       id="path11"
       inkscape:connector-curvature="0" />
    <path
       style="fill:#ffffff;fill-opacity:1;fill-rule:nonzero;stroke:none;stroke-width:0.75"
       d="m 50.285156,111.23047 c -0.867187,0 -1.59961,0.13476 -2.191406,0.42188 -0.585938,0.26953 -1.078125,0.66796 -1.476563,1.17187 -0.369141,0.48633 -0.65625,1.07813 -0.826171,1.76953 -0.164063,0.68555 -0.234375,1.45313 -0.234375,2.2793 0,1.94531 0.345703,3.36914 1.037109,4.29492 0.679687,0.90234 1.699219,1.36524 3.046875,1.36524 0.210937,0 0.445312,-0.0175 0.703125,-0.0293 0.263671,-0.0234 0.498046,-0.0469 0.708984,-0.082 v -5.90625 h 3.638672 v 8.08008 c -0.433594,0.14062 -1.113281,0.29883 -2.044922,0.4746 -0.902343,0.16992 -2.003906,0.25782 -3.304688,0.25782 -1.148437,0 -2.179687,-0.17578 -3.105468,-0.52149 -0.902344,-0.36914 -1.681641,-0.90234 -2.337891,-1.59375 -0.644531,-0.7207 -1.154296,-1.5996 -1.511718,-2.64843 -0.345703,-1.06641 -0.533203,-2.29102 -0.533203,-3.69141 0,-1.37109 0.210937,-2.58399 0.632812,-3.62695 0.404297,-1.06641 0.966797,-1.95704 1.681641,-2.67188 0.708984,-0.7207 1.546875,-1.25391 2.513672,-1.59961 0.966796,-0.36914 1.992187,-0.54492 3.105468,-0.54492 0.708985,0 1.335937,0.0527 1.88086,0.15235 0.585937,0.082 1.066406,0.19335 1.488281,0.32226 0.410156,0.12305 0.744141,0.24609 1.001953,0.38086 0.269531,0.14648 0.480468,0.24609 0.621093,0.32226 l -0.943359,2.56055 c -0.433593,-0.24609 -0.966796,-0.45703 -1.59375,-0.65625 -0.632812,-0.18164 -1.289062,-0.28125 -1.957031,-0.28125"
       id="path13"
       inkscape:connector-curvature="0" />
    <path
       style="fill:#ffffff;fill-opacity:0.39215698;fill-rule:nonzero;stroke:none;stroke-width:0.75"
       d="M 57,32 83.976562,59 H 61.136719 C 59.115234,59 57,56.861328 57,54.839844 Z m 0,0"
       id="path15"
       inkscape:connector-curvature="0" />
    <path
       style="fill:#ffffff;fill-opacity:1;fill-rule:nonzero;stroke:none;stroke-width:0.75"
       d="m 69,111.04297 c -0.84375,1.1543 -1.623047,2.22657 -2.337891,3.24609 -0.708984,1.01367 -1.365234,1.98048 -1.980468,2.90625 -0.609375,0.90235 -1.189454,1.78125 -1.734375,2.63673 -0.533204,0.84375 -1.054688,1.66992 -1.546875,2.49023 h 7.86914 v 2.66015 H 57.205078 V 123.125 c 0.433593,-0.74414 0.902343,-1.53515 1.382813,-2.34961 0.498046,-0.83203 1.054687,-1.72266 1.658203,-2.66601 0.621093,-0.9375 1.277343,-1.96875 1.980468,-3.07032 0.732422,-1.08398 1.535157,-2.28515 2.402344,-3.57421 h -7.042969 v -2.67188 H 69 v 2.25"
       id="path17"
       inkscape:connector-curvature="0" />
    <path
       style="fill:#f8f8f8;fill-opacity:1;fill-rule:evenodd;stroke:none;stroke-width:0.75"
       d="m 27,32 h 9 v 9 h -9 z m 0,0"
       id="path19"
       inkscape:connector-curvature="0" />
    <path
       style="fill:#f8f8f8;fill-opacity:1;fill-rule:evenodd;stroke:none;stroke-width:0.75"
       d="m 36,41 h 9 v 9 h -9 z m 0,0"
       id="path21"
       inkscape:connector-curvature="0" />
    <path
       style="fill:#f8f8f8;fill-opacity:1;fill-rule:evenodd;stroke:none;stroke-width:0.75"
       d="m 27,50 h 9 v 9 h -9 z m 0,0"
       id="path23"
       inkscape:connector-curvature="0" />
    <path
       style="fill:#f8f8f8;fill-opacity:1;fill-rule:evenodd;stroke:none;stroke-width:0.75"
       d="m 36,59 h 9 v 9 h -9 z m 0,0"
       id="path25"
       inkscape:connector-curvature="0" />
    <path
       style="fill:#f8f8f8;fill-opacity:1;fill-rule:evenodd;stroke:none;stroke-width:0.75"
       d="m 27,68 h 9 v 9 h -9 z m 0,0"
       id="path27"
       inkscape:connector-curvature="0" />
    <path
       style="fill:#f8f8f8;fill-opacity:1;fill-rule:evenodd;stroke:none;stroke-width:0.75"
       d="M 27,80 H 45 V 98 H 27 Z m 0,0"
       id="path29"
       inkscape:connector-curvature="0" />
  </g>
</svg>
