<?xml version="1.0" encoding="UTF-8" standalone="no"?>
<svg
   xmlns:dc="http://purl.org/dc/elements/1.1/"
   xmlns:cc="http://creativecommons.org/ns#"
   xmlns:rdf="http://www.w3.org/1999/02/22-rdf-syntax-ns#"
   xmlns:svg="http://www.w3.org/2000/svg"
   xmlns="http://www.w3.org/2000/svg"
   xmlns:sodipodi="http://sodipodi.sourceforge.net/DTD/sodipodi-0.dtd"
   xmlns:inkscape="http://www.inkscape.org/namespaces/inkscape"
   width="96"
   height="96"
   viewBox="0 0 96 96"
   version="1.1"
   id="svg2"
   inkscape:version="0.92.2 (5c3e80d, 2017-08-06)"
   sodipodi:docname="application-x-zoo.svg">
  <metadata
     id="metadata35">
    <rdf:RDF>
      <cc:Work
         rdf:about="">
        <dc:format>image/svg+xml</dc:format>
        <dc:type
           rdf:resource="http://purl.org/dc/dcmitype/StillImage" />
        <dc:title></dc:title>
      </cc:Work>
    </rdf:RDF>
  </metadata>
  <defs
     id="defs33" />
  <sodipodi:namedview
     pagecolor="#ffffff"
     bordercolor="#666666"
     borderopacity="1"
     objecttolerance="10"
     gridtolerance="10"
     guidetolerance="10"
     inkscape:pageopacity="0"
     inkscape:pageshadow="2"
     inkscape:window-width="2336"
     inkscape:window-height="1341"
     id="namedview31"
     showgrid="false"
     inkscape:zoom="1.84375"
     inkscape:cx="-55.59322"
     inkscape:cy="64"
     inkscape:window-x="103"
     inkscape:window-y="55"
     inkscape:window-maximized="0"
     inkscape:current-layer="surface1" />
  <g
     id="surface1"
     transform="translate(0,-32)">
    <path
       style="fill:#45606e;fill-opacity:1;fill-rule:nonzero;stroke:none;stroke-width:0.75"
       d="M 16.007812,32 C 13.945313,32 12,34.033203 12,36.183594 V 123.81641 C 12,125.84961 14.0625,128 16.007812,128 H 79.992187 C 81.9375,128 84,125.84961 84,123.81641 V 59 L 57,32 Z m 0,0"
       id="path5"
       inkscape:connector-curvature="0" />
    <path
       style="fill:#000000;fill-opacity:0.19607801;fill-rule:nonzero;stroke:none;stroke-width:0.75"
       d="m 12,104 v 20.00391 C 12,125.94922 14.0625,128 15.996094,128 H 80.00391 C 81.9375,128 84,125.94922 84,124.00391 V 104 Z m 0,0"
       id="path7"
       inkscape:connector-curvature="0" />
    <path
       style="fill:#000000;fill-opacity:0.19607801;fill-rule:nonzero;stroke:none;stroke-width:0.75"
       d="M 63,59 84,80 V 59 Z m 0,0"
       id="path9"
       inkscape:connector-curvature="0" />
    <path
       style="fill:#ffffff;fill-opacity:1;fill-rule:nonzero;stroke:none;stroke-width:0.75"
       d="m 38.701171,111.1836 c -0.84375,1.14257 -1.617187,2.20898 -2.314452,3.21094 -0.708985,1.00781 -1.359375,1.96288 -1.97461,2.88281 -0.597656,0.89648 -1.171875,1.76367 -1.728515,2.60742 -0.521485,0.83789 -1.025391,1.6582 -1.517578,2.46679 h 7.792968 v 2.63086 H 27 v -1.83398 c 0.427734,-0.73828 0.896484,-1.52344 1.382812,-2.33203 0.492188,-0.82031 1.03125,-1.69922 1.646484,-2.63086 0.597657,-0.93164 1.259766,-1.95117 1.957032,-3.04101 0.726563,-1.07813 1.523438,-2.26758 2.378906,-3.53907 h -6.984375 v -2.64843 h 11.320312 v 2.22656"
       id="path11"
       inkscape:connector-curvature="0" />
    <path
       style="fill:#ffffff;fill-opacity:0.39215698;fill-rule:nonzero;stroke:none;stroke-width:0.75"
       d="M 57,32 83.976562,59 H 61.136719 C 59.115234,59 57,56.861328 57,54.839844 Z m 0,0"
       id="path13"
       inkscape:connector-curvature="0" />
    <path
       style="fill:#ffffff;fill-opacity:1;fill-rule:nonzero;stroke:none;stroke-width:0.75"
       d="m 44.771484,116.96094 c 0,0.77929 0.02344,1.51758 0.08203,2.20312 0.07617,0.67383 0.222655,1.25977 0.416015,1.76367 0.210938,0.50391 0.503906,0.89649 0.873047,1.18946 0.380859,0.29297 0.867188,0.43945 1.494141,0.43945 0.615234,0 1.101562,-0.14648 1.470702,-0.43945 0.392579,-0.29297 0.685548,-0.68555 0.884766,-1.18946 0.205079,-0.52734 0.339844,-1.11327 0.404297,-1.7871 0.07031,-0.67383 0.117187,-1.4004 0.117187,-2.17969 0,-0.77344 -0.04687,-1.5 -0.117187,-2.17383 -0.06446,-0.69726 -0.199218,-1.2832 -0.404297,-1.78711 -0.199218,-0.5039 -0.480468,-0.89648 -0.861328,-1.18945 -0.36914,-0.29297 -0.867188,-0.43945 -1.49414,-0.43945 -0.626953,0 -1.113282,0.14648 -1.494141,0.43945 -0.369141,0.29297 -0.662109,0.69726 -0.873047,1.21289 -0.19336,0.50391 -0.339844,1.08985 -0.416015,1.76367 -0.0586,0.67383 -0.08203,1.40039 -0.08203,2.17383 m -3.667968,0 c 0,-2.75977 0.580078,-4.84571 1.728515,-6.24024 1.154297,-1.42382 2.759765,-2.12109 4.804688,-2.12109 2.132812,0 3.75,0.69726 4.863281,2.12109 1.119141,1.39453 1.681641,3.48047 1.681641,6.24024 0,2.76562 -0.57422,4.85156 -1.705079,6.26953 -1.136718,1.40039 -2.730468,2.09766 -4.804687,2.09766 -2.132813,0 -3.761719,-0.69727 -4.898438,-2.09766 -1.119141,-1.41797 -1.669921,-3.50391 -1.669921,-6.26953"
       id="path15"
       inkscape:connector-curvature="0" />
    <path
       style="fill:#f8f8f8;fill-opacity:1;fill-rule:evenodd;stroke:none;stroke-width:0.75"
       d="m 27,32 h 9 v 9 h -9 z m 0,0"
       id="path17"
       inkscape:connector-curvature="0" />
    <path
       style="fill:#ffffff;fill-opacity:1;fill-rule:nonzero;stroke:none;stroke-width:0.75"
       d="m 59.425781,116.96094 c 0,0.77929 0.02344,1.51758 0.08789,2.20312 0.07031,0.67383 0.216798,1.25977 0.416016,1.76367 0.205079,0.50391 0.498047,0.89649 0.867188,1.18946 0.380859,0.29297 0.873046,0.43945 1.494141,0.43945 0.615234,0 1.107421,-0.14648 1.470703,-0.43945 0.392577,-0.29297 0.685547,-0.68555 0.884765,-1.18946 0.205078,-0.52734 0.339844,-1.11327 0.404297,-1.7871 0.07617,-0.67383 0.123047,-1.4004 0.123047,-2.17969 0,-0.77344 -0.04687,-1.5 -0.123047,-2.17383 -0.0586,-0.69726 -0.199219,-1.2832 -0.404297,-1.78711 -0.199218,-0.5039 -0.480468,-0.89648 -0.855468,-1.18945 -0.369141,-0.29297 -0.873047,-0.43945 -1.5,-0.43945 -0.621095,0 -1.113282,0.14648 -1.494141,0.43945 -0.369141,0.29297 -0.662109,0.69726 -0.867188,1.21289 -0.199218,0.50391 -0.345703,1.08985 -0.416016,1.76367 -0.06445,0.67383 -0.08789,1.40039 -0.08789,2.17383 m -3.66211,0 c 0,-2.75977 0.57422,-4.84571 1.728516,-6.24024 1.148438,-1.42382 2.753907,-2.12109 4.798829,-2.12109 2.132812,0 3.75,0.69726 4.86914,2.12109 1.113281,1.39453 1.675781,3.48047 1.675781,6.24024 0,2.76562 -0.574218,4.85156 -1.699218,6.26953 -1.142578,1.40039 -2.736328,2.09766 -4.804688,2.09766 -2.132812,0 -3.761719,-0.69727 -4.904297,-2.09766 -1.113281,-1.41797 -1.664063,-3.50391 -1.664063,-6.26953"
       id="path19"
       inkscape:connector-curvature="0" />
    <path
       style="fill:#f8f8f8;fill-opacity:1;fill-rule:evenodd;stroke:none;stroke-width:0.75"
       d="m 36,41 h 9 v 9 h -9 z m 0,0"
       id="path21"
       inkscape:connector-curvature="0" />
    <path
       style="fill:#f8f8f8;fill-opacity:1;fill-rule:evenodd;stroke:none;stroke-width:0.75"
       d="m 27,50 h 9 v 9 h -9 z m 0,0"
       id="path23"
       inkscape:connector-curvature="0" />
    <path
       style="fill:#f8f8f8;fill-opacity:1;fill-rule:evenodd;stroke:none;stroke-width:0.75"
       d="m 36,59 h 9 v 9 h -9 z m 0,0"
       id="path25"
       inkscape:connector-curvature="0" />
    <path
       style="fill:#f8f8f8;fill-opacity:1;fill-rule:evenodd;stroke:none;stroke-width:0.75"
       d="m 27,68 h 9 v 9 h -9 z m 0,0"
       id="path27"
       inkscape:connector-curvature="0" />
    <path
       style="fill:#f8f8f8;fill-opacity:1;fill-rule:evenodd;stroke:none;stroke-width:0.75"
       d="M 27,80 H 45 V 98 H 27 Z m 0,0"
       id="path29"
       inkscape:connector-curvature="0" />
  </g>
</svg>
