<?xml version="1.0" encoding="UTF-8" standalone="no"?>
<svg
   xmlns:dc="http://purl.org/dc/elements/1.1/"
   xmlns:cc="http://creativecommons.org/ns#"
   xmlns:rdf="http://www.w3.org/1999/02/22-rdf-syntax-ns#"
   xmlns:svg="http://www.w3.org/2000/svg"
   xmlns="http://www.w3.org/2000/svg"
   xmlns:sodipodi="http://sodipodi.sourceforge.net/DTD/sodipodi-0.dtd"
   xmlns:inkscape="http://www.inkscape.org/namespaces/inkscape"
   width="96"
   height="96"
   viewBox="0 0 96 96"
   version="1.1"
   id="svg13"
   sodipodi:docname="application-x-mono-develop.svg"
   inkscape:version="0.92.2 (5c3e80d, 2017-08-06)">
  <metadata
     id="metadata19">
    <rdf:RDF>
      <cc:Work
         rdf:about="">
        <dc:format>image/svg+xml</dc:format>
        <dc:type
           rdf:resource="http://purl.org/dc/dcmitype/StillImage" />
        <dc:title></dc:title>
      </cc:Work>
    </rdf:RDF>
  </metadata>
  <defs
     id="defs17" />
  <sodipodi:namedview
     pagecolor="#ffffff"
     bordercolor="#666666"
     borderopacity="1"
     objecttolerance="10"
     gridtolerance="10"
     guidetolerance="10"
     inkscape:pageopacity="0"
     inkscape:pageshadow="2"
     inkscape:window-width="1958"
     inkscape:window-height="1112"
     id="namedview15"
     showgrid="false"
     inkscape:zoom="1.84375"
     inkscape:cx="-54.508475"
     inkscape:cy="62.915254"
     inkscape:window-x="102"
     inkscape:window-y="55"
     inkscape:window-maximized="0"
     inkscape:current-layer="svg13" />
  <g
     id="surface1"
     transform="scale(0.75)">
    <path
       style="fill:#668ab8;fill-opacity:1;fill-rule:nonzero;stroke:none"
       d="M 21.34375,0 C 18.59375,0 16,2.710938 16,5.578125 V 122.42188 C 16,125.13281 18.75,128 21.34375,128 h 85.3125 C 109.25,128 112,125.13281 112,122.42188 V 36 L 76,0 Z m 0,0"
       id="path2"
       inkscape:connector-curvature="0" />
    <path
       style="fill:#000000;fill-opacity:0.19607801;fill-rule:nonzero;stroke:none"
       d="m 84,36 28,28 V 36 Z m 0,0"
       id="path4"
       inkscape:connector-curvature="0" />
    <path
       style="fill:#ffffff;fill-opacity:0.39215698;fill-rule:nonzero;stroke:none"
       d="m 76,0 35.96875,36 H 81.515625 C 78.820312,36 76,33.148438 76,30.453125 Z m 0,0"
       id="path6"
       inkscape:connector-curvature="0" />
    <path
       style="fill:#ffffff;fill-opacity:1;fill-rule:nonzero;stroke:none"
       d="m 51.585938,45.476562 c -9.195313,0 -20.773438,8.695313 -20.664063,22.164063 0.09375,13.039063 4.429687,20.101563 7.75,28.09375 l 9.835937,-4.085937 C 46.25,87.054688 43.296875,82.507812 42.25,80.226562 39.328125,73.859375 38.335938,70.992188 38.585938,66.140625 38.8125,61.453125 40.375,58.585938 43.25,55.8125 c 2.867188,-2.765625 6.851562,-4.164062 11.585938,-3.507812 6.835937,0.9375 10.4375,4.765624 12.171874,8.257812 0.976563,-0.140625 1.976563,-0.257812 3.085938,-0.25 0.859375,0 1.726562,0.0625 2.578125,0.25 C 70.835938,53.304688 61.789062,45.476562 51.585938,45.476562 Z m 4.171874,12.664063 c -4.1875,-0.273437 -10.289062,1.765625 -10.25,8.171875 0.02344,6.054688 3.820313,10.59375 8.328126,12.414062 -0.09375,-1.523437 0.0078,-3.210937 0.25,-4.914062 -2.445313,-1.328125 -3.929688,-3.695312 -4.164063,-7 -0.28125,-3.671875 3.367187,-7.382812 9.164063,-5.5 0.9375,0.296875 0.96875,-1.320312 -0.07813,-2.171875 -0.6875,-0.539063 -1.859374,-0.90625 -3.25,-1 z m 14.335938,4.835937 c -0.734375,0 -1.429688,0.02344 -2.085938,0.08594 0.171876,0.648438 0.296876,1.304688 0.335938,1.828125 0.421875,-0.02344 0.882812,-0.01563 1.328125,0 1.234375,0.0625 2.375,0.257813 3.421875,0.585937 0.03906,-0.6875 0.01563,-1.34375 0,-2 -0.992188,-0.3125 -2,-0.492187 -3,-0.5 z m -2,4.5 c -0.65625,2.820313 -2.632812,6.28125 -6.671875,7.25 -0.09375,0.585938 -0.1875,1.132813 -0.164063,1.5 0.04688,0.773438 0.210938,1.851563 0.664063,3 6.914063,-1.265624 9.882813,-6.117187 10.835937,-11.085937 -0.921874,-0.367187 -1.976562,-0.601563 -3.25,-0.664063 -0.492187,-0.02344 -0.984374,-0.03906 -1.414062,0 z M 56.671875,74.8125 c -0.140625,1.289062 -0.242187,2.570312 -0.164063,3.75 0.01563,0.28125 0.03125,0.546875 0.07813,0.835938 0.515624,0.07031 0.992187,0.242187 1.5,0.25 0.4375,0 0.84375,-0.0625 1.25,-0.08594 -0.40625,-1.148438 -0.6875,-2.242188 -0.75,-3.164062 -0.02344,-0.398438 -0.03125,-0.867188 0,-1.335938 -0.664063,-0.03125 -1.320313,-0.132812 -1.914063,-0.25 z m 0,0"
       id="path8"
       inkscape:connector-curvature="0" />
    <path
       style="fill:#a8bfe3;fill-opacity:1;fill-rule:nonzero;stroke:none"
       d="m 89.53125,45.515625 c 3.328125,7.976563 7.734375,15.007813 7.828125,28.054687 C 97.460938,87.039062 85.828125,95.75 76.625,95.75 65.492188,95.75 55.695312,86.414062 55.179688,78.6875 54.710938,71.710938 57.210938,61.5625 70.125,61.632812 c 6.164062,0.03906 12.570312,5.359376 12.601562,13.28125 0.04688,8.546876 -10.75,9.390626 -13.46875,7.210938 -1.046874,-0.84375 -1.015624,-2.523438 -0.09375,-2.21875 5.8125,1.875 9.398438,-1.828125 9.132813,-5.5 -0.359375,-5.007812 -3.34375,-7.976562 -8.695313,-8.21875 -7.71875,-0.367188 -9.875,7.078125 -9.679687,10.109375 0.242187,3.679687 3.46875,11.242187 13.515625,12.617187 4.742188,0.65625 8.679688,-0.75 11.539062,-3.515624 C 87.84375,82.625 89.46875,79.765625 89.703125,75.078125 89.945312,70.234375 88.882812,67.390625 85.960938,61.023438 84.914062,58.742188 82,54.171875 79.734375,49.578125 l 9.804687,-4.0625 m -0.0078,0"
       id="path10"
       inkscape:connector-curvature="0" />
  </g>
</svg>
