<?xml version="1.0" encoding="UTF-8" standalone="no"?>
<svg
   xmlns:dc="http://purl.org/dc/elements/1.1/"
   xmlns:cc="http://creativecommons.org/ns#"
   xmlns:rdf="http://www.w3.org/1999/02/22-rdf-syntax-ns#"
   xmlns:svg="http://www.w3.org/2000/svg"
   xmlns="http://www.w3.org/2000/svg"
   xmlns:sodipodi="http://sodipodi.sourceforge.net/DTD/sodipodi-0.dtd"
   xmlns:inkscape="http://www.inkscape.org/namespaces/inkscape"
   width="96"
   height="96"
   viewBox="0 0 96 96"
   version="1.1"
   id="svg2"
   inkscape:version="0.92.2 (5c3e80d, 2017-08-06)"
   sodipodi:docname="application-audio-playlist.svg">
  <metadata
     id="metadata29">
    <rdf:RDF>
      <cc:Work
         rdf:about="">
        <dc:format>image/svg+xml</dc:format>
        <dc:type
           rdf:resource="http://purl.org/dc/dcmitype/StillImage" />
        <dc:title></dc:title>
      </cc:Work>
    </rdf:RDF>
  </metadata>
  <defs
     id="defs27" />
  <sodipodi:namedview
     pagecolor="#ffffff"
     bordercolor="#666666"
     borderopacity="1"
     objecttolerance="10"
     gridtolerance="10"
     guidetolerance="10"
     inkscape:pageopacity="0"
     inkscape:pageshadow="2"
     inkscape:window-width="2269"
     inkscape:window-height="1403"
     id="namedview25"
     showgrid="false"
     inkscape:zoom="1.84375"
     inkscape:cx="-54.508475"
     inkscape:cy="64"
     inkscape:window-x="500"
     inkscape:window-y="203"
     inkscape:window-maximized="0"
     inkscape:current-layer="surface1" />
  <g
     id="surface1"
     transform="translate(0,-32)">
    <path
       style="fill:#2e4c7e;fill-opacity:1;fill-rule:nonzero;stroke:none;stroke-width:0.75"
       d="M 16.007812,32 C 13.945313,32 12,34.033203 12,36.183594 V 123.81641 C 12,125.84961 14.0625,128 16.007812,128 H 79.992187 C 81.9375,128 84,125.84961 84,123.81641 V 59 L 57,32 Z m 0,0"
       id="path5"
       inkscape:connector-curvature="0" />
    <path
       style="fill:#000000;fill-opacity:0.19607801;fill-rule:nonzero;stroke:none;stroke-width:0.75"
       d="M 63,59 84,80 V 59 Z m 0,0"
       id="path7"
       inkscape:connector-curvature="0" />
    <path
       style="fill:#ffffff;fill-opacity:0.39215698;fill-rule:nonzero;stroke:none;stroke-width:0.75"
       d="M 57,32 83.976562,59 H 61.136719 C 59.115234,59 57,56.861328 57,54.839844 Z m 0,0"
       id="path9"
       inkscape:connector-curvature="0" />
    <path
       style="fill:#ffffff;fill-opacity:1;fill-rule:nonzero;stroke:none;stroke-width:0.75"
       d="m 40.40625,72.359375 c -2.332031,0.585937 -4.289063,2.730469 -4.289063,2.730469 l 0.0586,0.0586 3.738281,13.875 c -2.671881,-1.453129 -6.480474,-1.089847 -9.632818,1.195309 -4.078125,2.941406 -5.496094,7.957031 -3.140625,11.191407 2.367187,3.24609 7.570312,3.46875 11.648437,0.52734 C 42,99.605469 43.78125,95.949219 43.136719,92.949219 c -0.01172,-0.09375 -0.04687,-0.1875 -0.07031,-0.28125 l -3.58594,-13.863282 c 0.08203,-0.117187 1.136718,-0.597656 4.511718,-0.832031 3.585938,-0.234375 6.011719,-5.976562 6.011719,-5.976562 0,0 -4.03125,1.546875 -7.195312,0.433593 -0.796875,-0.28125 -1.628907,-0.269531 -2.402344,-0.07031 z m 0,0"
       id="path11"
       inkscape:connector-curvature="0" />
    <path
       style="fill:#ffffff;fill-opacity:1;fill-rule:nonzero;stroke:none;stroke-width:0.75"
       d="m 54,74 v -3 h 15 v 3 z m 0,0"
       id="path13"
       inkscape:connector-curvature="0" />
    <path
       style="fill:#ffffff;fill-opacity:1;fill-rule:nonzero;stroke:none;stroke-width:0.75"
       d="m 45,83 v 3 h 24 v -3 z m 0,0"
       id="path15"
       inkscape:connector-curvature="0" />
    <path
       style="fill:#ffffff;fill-opacity:1;fill-rule:nonzero;stroke:none;stroke-width:0.75"
       d="m 51,80 v -3 h 18 v 3 z m 0,0"
       id="path17"
       inkscape:connector-curvature="0" />
    <path
       style="fill:#ffffff;fill-opacity:1;fill-rule:nonzero;stroke:none;stroke-width:0.75"
       d="m 48,89 v 3 h 21 v -3 z m 0,0"
       id="path19"
       inkscape:connector-curvature="0" />
    <path
       style="fill:#ffffff;fill-opacity:1;fill-rule:nonzero;stroke:none;stroke-width:0.75"
       d="m 48,95 v 3 h 21 v -3 z m 0,0"
       id="path21"
       inkscape:connector-curvature="0" />
    <path
       style="fill:#ffffff;fill-opacity:1;fill-rule:nonzero;stroke:none;stroke-width:0.75"
       d="m 45,101 v 3 h 24 v -3 z m 0,0"
       id="path23"
       inkscape:connector-curvature="0" />
  </g>
</svg>
