<?xml version="1.0" encoding="UTF-8" standalone="no"?>
<svg
   xmlns:dc="http://purl.org/dc/elements/1.1/"
   xmlns:cc="http://creativecommons.org/ns#"
   xmlns:rdf="http://www.w3.org/1999/02/22-rdf-syntax-ns#"
   xmlns:svg="http://www.w3.org/2000/svg"
   xmlns="http://www.w3.org/2000/svg"
   xmlns:sodipodi="http://sodipodi.sourceforge.net/DTD/sodipodi-0.dtd"
   xmlns:inkscape="http://www.inkscape.org/namespaces/inkscape"
   width="96"
   height="96"
   viewBox="0 0 96 96"
   version="1.1"
   id="svg25"
   sodipodi:docname="gnome-mime-application-magicpoint.svg"
   inkscape:version="0.92.2 (5c3e80d, 2017-08-06)">
  <metadata
     id="metadata31">
    <rdf:RDF>
      <cc:Work
         rdf:about="">
        <dc:format>image/svg+xml</dc:format>
        <dc:type
           rdf:resource="http://purl.org/dc/dcmitype/StillImage" />
        <dc:title></dc:title>
      </cc:Work>
    </rdf:RDF>
  </metadata>
  <defs
     id="defs29" />
  <sodipodi:namedview
     pagecolor="#ffffff"
     bordercolor="#666666"
     borderopacity="1"
     objecttolerance="10"
     gridtolerance="10"
     guidetolerance="10"
     inkscape:pageopacity="0"
     inkscape:pageshadow="2"
     inkscape:window-width="2703"
     inkscape:window-height="1545"
     id="namedview27"
     showgrid="false"
     inkscape:zoom="2.6074563"
     inkscape:cx="88.240891"
     inkscape:cy="50.658625"
     inkscape:window-x="345"
     inkscape:window-y="159"
     inkscape:window-maximized="0"
     inkscape:current-layer="svg25" />
  <g
     id="surface1"
     transform="scale(0.75)">
    <path
       style="fill:#cf4523;fill-opacity:1;fill-rule:nonzero;stroke:none"
       d="M 21.34375,0 C 18.59375,0 16,2.710938 16,5.578125 V 122.42188 C 16,125.13281 18.75,128 21.34375,128 h 85.3125 C 109.25,128 112,125.13281 112,122.42188 V 36 L 76,0 Z m 0,0"
       id="path2"
       inkscape:connector-curvature="0" />
    <path
       style="fill:#000000;fill-opacity:0.19607801;fill-rule:nonzero;stroke:none"
       d="m 16,96 v 26.67188 C 16,125.26563 18.75,128 21.328125,128 H 106.67188 C 109.25,128 112,125.26563 112,122.67188 V 96 Z m 0,0"
       id="path4"
       inkscape:connector-curvature="0" />
    <path
       style="fill:#ffffff;fill-opacity:1;fill-rule:nonzero;stroke:none"
       d="m 41.328125,102.53906 c 0.179687,0.49219 0.40625,1.11719 0.65625,1.86719 0.289063,0.77344 0.585937,1.59375 0.898437,2.46094 0.296876,0.88281 0.609376,1.77344 0.921876,2.67187 0.304687,0.89844 0.601562,1.73438 0.882812,2.49219 0.3125,-0.85156 0.640625,-1.71875 0.96875,-2.625 0.34375,-0.92969 0.65625,-1.79687 0.960938,-2.63281 0.3125,-0.85938 0.59375,-1.65625 0.851562,-2.39844 0.265625,-0.73437 0.492188,-1.34375 0.695312,-1.83594 h 3.945313 c 0.179687,1.86719 0.34375,3.70313 0.492187,5.47657 0.179688,1.78906 0.328126,3.53906 0.429688,5.3125 0.125,1.71875 0.226562,3.46875 0.3125,5.25781 0.07813,1.75781 0.140625,3.55469 0.195312,5.39062 h -4.359374 l 0.226562,-16.64843 -2.929688,9.07812 H 43 L 40.179688,107.32813 40.375,123.97656 H 36 c 0.07813,-1.75 0.164062,-3.57031 0.226562,-5.45312 0.117188,-1.90625 0.21875,-3.78906 0.3125,-5.65625 0.117188,-1.86719 0.234376,-3.6875 0.359376,-5.44531 0.148437,-1.75 0.3125,-3.375 0.492187,-4.88282 h 3.9375"
       id="path6"
       inkscape:connector-curvature="0" />
    <path
       style="fill:#ffffff;fill-opacity:1;fill-rule:nonzero;stroke:none"
       d="m 66.46875,105.77344 c -1.132812,0 -2.085938,0.17969 -2.851562,0.55469 -0.773438,0.35937 -1.429688,0.88281 -1.9375,1.55468 -0.492188,0.64063 -0.851563,1.42969 -1.078126,2.34375 -0.210937,0.90625 -0.3125,1.92188 -0.3125,3.01563 0,2.57812 0.460938,4.46094 1.34375,5.6875 0.898438,1.19531 2.226563,1.80469 3.984376,1.80469 0.273437,0 0.585937,-0.0156 0.929687,-0.0312 0.328125,-0.0312 0.640625,-0.0703 0.921875,-0.11719 v -7.82031 h 4.75 v 10.70312 c -0.570312,0.17969 -1.453125,0.39844 -2.671875,0.625 -1.179687,0.22656 -2.617187,0.34375 -4.304687,0.34375 -1.507813,0 -2.851563,-0.22656 -4.070313,-0.6875 -1.179687,-0.49219 -2.195313,-1.19531 -3.046875,-2.11719 -0.851562,-0.94531 -1.507812,-2.10937 -1.96875,-3.50781 -0.453125,-1.40625 -0.6875,-3.03125 -0.6875,-4.88281 0,-1.82031 0.265625,-3.42188 0.804688,-4.79688 0.539062,-1.41406 1.28125,-2.59375 2.195312,-3.54687 0.9375,-0.94531 2.03125,-1.64844 3.296875,-2.10938 1.257813,-0.49218 2.601563,-0.72656 4.046875,-0.72656 0.914062,0 1.75,0.0703 2.476562,0.20313 0.734376,0.10937 1.375,0.25781 1.914063,0.42187 0.539063,0.16406 0.984375,0.32813 1.328125,0.50781 0.359375,0.19532 0.625,0.32813 0.804688,0.42969 l -1.226563,3.39063 c -0.578125,-0.32813 -1.265625,-0.60938 -2.101563,-0.86719 -0.820312,-0.25 -1.671874,-0.375 -2.539062,-0.375"
       id="path8"
       inkscape:connector-curvature="0" />
    <path
       style="fill:#ffffff;fill-opacity:1;fill-rule:nonzero;stroke:none"
       d="m 82.367188,102.29688 c 3.046874,0 5.390624,0.57031 7.078124,1.70312 1.671876,1.11719 2.507813,2.9375 2.507813,5.47656 0,2.55469 -0.851563,4.42188 -2.554687,5.57032 C 87.726562,116.17969 85.351562,116.75 82.25,116.75 h -1.6875 v 7.22656 h -4.75 v -21.15625 c 0.453125,-0.0859 0.984375,-0.16406 1.539062,-0.25 0.585938,-0.0625 1.179688,-0.10937 1.789063,-0.125 0.585937,-0.0547 1.15625,-0.0859 1.734375,-0.10156 0.554688,-0.0312 1.0625,-0.0469 1.492188,-0.0469 m 0.539062,3.71875 c -0.28125,0 -0.671875,0 -1.195312,0.0312 -0.476563,0 -0.867188,0.0156 -1.148438,0.0703 v 6.92969 H 82.5 c 1.507812,0 2.648438,-0.28125 3.421875,-0.80469 0.773437,-0.55469 1.164063,-1.49219 1.164063,-2.80469 0,-1.24219 -0.390626,-2.125 -1.164063,-2.63281 -0.734375,-0.52344 -1.75,-0.78906 -3.015625,-0.78906"
       id="path10"
       inkscape:connector-curvature="0" />
    <path
       style="fill:#000000;fill-opacity:0.19607801;fill-rule:nonzero;stroke:none"
       d="m 84,36 28,28 V 36 Z m 0,0"
       id="path12"
       inkscape:connector-curvature="0" />
    <path
       style="fill:#ffffff;fill-opacity:0.39215698;fill-rule:nonzero;stroke:none"
       d="m 76,0 35.96875,36 H 81.515625 C 78.820312,36 76,33.148438 76,30.453125 Z m 0,0"
       id="path14"
       inkscape:connector-curvature="0" />
    <path
       style="fill:#ffffff;fill-opacity:1;fill-rule:nonzero;stroke:none"
       d="M 32,48 H 52 V 60 H 32 Z m 0,0"
       id="path16"
       inkscape:connector-curvature="0" />
    <path
       style="fill:#ffffff;fill-opacity:1;fill-rule:nonzero;stroke:none"
       d="M 32,68 H 52 V 80 H 32 Z m 0,0"
       id="path18"
       inkscape:connector-curvature="0" />
    <path
       style="fill:#ffffff;fill-opacity:1;fill-rule:nonzero;stroke:none"
       d="M 80,43.96875 V 60 H 96 C 96,51.140625 88.835938,43.96875 80,43.96875 Z m 0,0"
       id="path20"
       inkscape:connector-curvature="0" />
    <path
       style="fill:#ffffff;fill-opacity:1;fill-rule:nonzero;stroke:none"
       d="M 76.007812,48 C 67.171875,48 60,55.15625 60,64 60,72.84375 67.171875,80 76.007812,80 84.84375,80 92,72.84375 92,64 H 76.007812 Z m 0,0"
       id="path22"
       inkscape:connector-curvature="0" />
  </g>
</svg>
