<?xml version="1.0" encoding="UTF-8" standalone="no"?>
<svg
   xmlns:dc="http://purl.org/dc/elements/1.1/"
   xmlns:cc="http://creativecommons.org/ns#"
   xmlns:rdf="http://www.w3.org/1999/02/22-rdf-syntax-ns#"
   xmlns:svg="http://www.w3.org/2000/svg"
   xmlns="http://www.w3.org/2000/svg"
   xmlns:sodipodi="http://sodipodi.sourceforge.net/DTD/sodipodi-0.dtd"
   xmlns:inkscape="http://www.inkscape.org/namespaces/inkscape"
   width="96"
   height="96"
   viewBox="0 0 96 96"
   version="1.1"
   id="svg2"
   inkscape:version="0.92.2 (5c3e80d, 2017-08-06)"
   sodipodi:docname="image-x-compressed-xcf.svg">
  <metadata
     id="metadata25">
    <rdf:RDF>
      <cc:Work
         rdf:about="">
        <dc:format>image/svg+xml</dc:format>
        <dc:type
           rdf:resource="http://purl.org/dc/dcmitype/StillImage" />
        <dc:title></dc:title>
      </cc:Work>
    </rdf:RDF>
  </metadata>
  <defs
     id="defs23" />
  <sodipodi:namedview
     pagecolor="#ffffff"
     bordercolor="#666666"
     borderopacity="1"
     objecttolerance="10"
     gridtolerance="10"
     guidetolerance="10"
     inkscape:pageopacity="0"
     inkscape:pageshadow="2"
     inkscape:window-width="2094"
     inkscape:window-height="1176"
     id="namedview21"
     showgrid="false"
     inkscape:zoom="1.84375"
     inkscape:cx="-154.30509"
     inkscape:cy="64"
     inkscape:window-x="102"
     inkscape:window-y="55"
     inkscape:window-maximized="0"
     inkscape:current-layer="surface1" />
  <g
     id="surface1"
     transform="translate(0,-32)">
    <path
       style="fill:#3e6578;fill-opacity:1;fill-rule:nonzero;stroke:none;stroke-width:0.75"
       d="M 16.007812,32 C 13.945313,32 12,34.033203 12,36.183594 V 123.81641 C 12,125.84961 14.0625,128 16.007812,128 H 79.992187 C 81.9375,128 84,125.84961 84,123.81641 V 59 L 57,32 Z m 0,0"
       id="path5"
       inkscape:connector-curvature="0" />
    <path
       style="fill:#000000;fill-opacity:0.19607801;fill-rule:nonzero;stroke:none;stroke-width:0.75"
       d="M 63,59 84,80 V 59 Z m 0,0"
       id="path7"
       inkscape:connector-curvature="0" />
    <path
       style="fill:#ffffff;fill-opacity:0.39215698;fill-rule:nonzero;stroke:none;stroke-width:0.75"
       d="M 57,32 83.976562,59 H 61.136719 C 59.115234,59 57,56.861328 57,54.839844 Z m 0,0"
       id="path9"
       inkscape:connector-curvature="0" />
    <path
       style="fill:#f8f8f8;fill-opacity:1;fill-rule:evenodd;stroke:none;stroke-width:0.75"
       d="m 27,32 h 9 v 9 h -9 z m 0,0"
       id="path11"
       inkscape:connector-curvature="0" />
    <path
       style="fill:#f8f8f8;fill-opacity:1;fill-rule:evenodd;stroke:none;stroke-width:0.75"
       d="m 36,41 h 9 v 9 h -9 z m 0,0"
       id="path13"
       inkscape:connector-curvature="0" />
    <path
       style="fill:#f8f8f8;fill-opacity:1;fill-rule:evenodd;stroke:none;stroke-width:0.75"
       d="m 27,50 h 9 v 9 h -9 z m 0,0"
       id="path15"
       inkscape:connector-curvature="0" />
    <path
       style="fill:#f8f8f8;fill-opacity:1;fill-rule:evenodd;stroke:none;stroke-width:0.75"
       d="M 27,62 H 45 V 80 H 27 Z m 0,0"
       id="path17"
       inkscape:connector-curvature="0" />
    <path
       style="fill:#ffffff;fill-opacity:1;fill-rule:nonzero;stroke:none;stroke-width:0.75"
       d="m 63.082031,84.03125 c -0.152344,0.07031 -0.292969,0.316406 -0.421875,0.714844 -0.339844,1.054687 -2.777344,8.34375 -16.59375,8.695312 -6.585937,0.164063 -9.386719,-5.71875 -9.386719,-5.71875 l -0.164062,7.570313 c 0,0 0.703125,1.675781 -0.703125,3.433593 -0.08203,-0.117187 -0.128906,-0.257812 -0.210938,-0.375 -0.503906,-0.714843 -1.101562,-1.3125 -1.734375,-1.757812 -0.726562,-0.515625 -1.488281,-0.855469 -2.238281,-0.972656 -0.855469,-0.128907 -1.699219,0.05859 -2.355469,0.550781 -0.667968,0.480469 -1.054687,1.230469 -1.207031,2.097656 -0.128906,0.761719 -0.08203,1.570313 0.175781,2.437499 0.210938,0.75 0.5625,1.51172 1.066407,2.22656 0.539062,0.75 1.207031,1.42969 1.910156,1.88672 0.785156,0.52735 1.617187,0.84375 2.4375,0.89063 0.257812,0.0117 0.515625,-0.0469 0.75,-0.0937 5.296875,4.27735 15.820312,8.25 22.792969,3.70312 0.152343,0.0469 0.304687,0.11719 0.457031,0.16407 0,0.082 -0.02344,0.15234 0,0.21093 l 0.328125,-0.1289 c 0.0586,0.0234 0.105469,0.0703 0.164062,0.0937 0.01172,0 0.03515,-0.0117 0.04687,0 l 0.117188,0.11719 3.152344,1.13671 c -0.128907,1.11329 0.410156,2.36719 1.78125,2.90625 2.460937,0.94923 4.757812,2.17969 4.757812,2.17969 -1.183594,-4.05469 -1.605469,-7.30078 -4.675781,-7.01953 -0.574219,0.0586 -1.007813,0.29297 -1.324219,0.63282 L 59.226557,107.8086 H 59.10937 l -0.04687,-0.0469 c 3.738281,-3.72656 5.917969,-10.734376 4.59375,-22.933595 -0.08203,-0.609375 -0.328125,-0.925781 -0.574219,-0.796875 z m 0,0"
       id="path19"
       inkscape:connector-curvature="0" />
  </g>
</svg>
