<?xml version="1.0" encoding="UTF-8" standalone="no"?>
<svg
   xmlns:dc="http://purl.org/dc/elements/1.1/"
   xmlns:cc="http://creativecommons.org/ns#"
   xmlns:rdf="http://www.w3.org/1999/02/22-rdf-syntax-ns#"
   xmlns:svg="http://www.w3.org/2000/svg"
   xmlns="http://www.w3.org/2000/svg"
   xmlns:sodipodi="http://sodipodi.sourceforge.net/DTD/sodipodi-0.dtd"
   xmlns:inkscape="http://www.inkscape.org/namespaces/inkscape"
   width="96"
   height="96"
   viewBox="0 0 96 96"
   version="1.1"
   id="svg13"
   sodipodi:docname="text-x-python.svg"
   inkscape:version="0.92.2 (5c3e80d, 2017-08-06)">
  <metadata
     id="metadata19">
    <rdf:RDF>
      <cc:Work
         rdf:about="">
        <dc:format>image/svg+xml</dc:format>
        <dc:type
           rdf:resource="http://purl.org/dc/dcmitype/StillImage" />
        <dc:title></dc:title>
      </cc:Work>
    </rdf:RDF>
  </metadata>
  <defs
     id="defs17" />
  <sodipodi:namedview
     pagecolor="#ffffff"
     bordercolor="#666666"
     borderopacity="1"
     objecttolerance="10"
     gridtolerance="10"
     guidetolerance="10"
     inkscape:pageopacity="0"
     inkscape:pageshadow="2"
     inkscape:window-width="2057"
     inkscape:window-height="1331"
     id="namedview15"
     showgrid="false"
     inkscape:zoom="1.84375"
     inkscape:cx="-55.59322"
     inkscape:cy="64"
     inkscape:window-x="530"
     inkscape:window-y="278"
     inkscape:window-maximized="0"
     inkscape:current-layer="svg13" />
  <g
     id="surface1"
     transform="scale(0.75)">
    <path
       style="fill:#356894;fill-opacity:1;fill-rule:nonzero;stroke:none"
       d="M 21.34375,0 C 18.59375,0 16,2.710938 16,5.578125 V 122.42188 C 16,125.13281 18.75,128 21.34375,128 h 85.3125 C 109.25,128 112,125.13281 112,122.42188 V 36 L 76,0 Z m 0,0"
       id="path2"
       inkscape:connector-curvature="0" />
    <path
       style="fill:#000000;fill-opacity:0.19607801;fill-rule:nonzero;stroke:none"
       d="m 84,36 28,28 V 36 Z m 0,0"
       id="path4"
       inkscape:connector-curvature="0" />
    <path
       style="fill:#ffffff;fill-opacity:0.39215698;fill-rule:nonzero;stroke:none"
       d="m 76,0 35.96875,36 H 81.515625 C 78.820312,36 76,33.148438 76,30.453125 Z m 0,0"
       id="path6"
       inkscape:connector-curvature="0" />
    <path
       style="fill:#ffffff;fill-opacity:1;fill-rule:nonzero;stroke:none"
       d="m 64.578125,44 c -2.171875,0.01563 -4.265625,0.1875 -6.09375,0.5 -5.359375,0.9375 -6.5,1.21875 -6.5,4.828125 v 8 h 13.34375 V 60 h -18.6875 c -3.671875,0 -6.078125,2.25 -7.078125,6.421875 -1.171875,4.78125 -1.21875,7.75 0,12.75 0.890625,3.703125 3.40625,7.5 7.078125,7.5 H 49.3125 v -8 c 0,-4.140625 3.71875,-8 8,-8 H 70.65625 C 74.1875,70.671875 76,68.84375 76,65.328125 V 52 C 76,48.59375 74.59375,45.0625 71.15625,44.5 68.984375,44.140625 66.734375,43.984375 64.578125,44 Z m -4.59375,5.328125 c 1.484375,0 2.671875,1.203125 2.671875,2.671875 0,1.46875 -1.1875,2.671875 -2.671875,2.671875 -1.46875,0 -2.671875,-1.203125 -2.671875,-2.671875 0,-1.46875 1.203125,-2.671875 2.671875,-2.671875 z m 0,0"
       id="path8"
       inkscape:connector-curvature="0" />
    <path
       style="fill:#ffffff;fill-opacity:1;fill-rule:nonzero;stroke:none"
       d="m 63.421875,100 c 2.171875,-0.01563 4.265625,-0.1875 6.09375,-0.5 5.359375,-0.9375 6.5,-1.21875 6.5,-4.828125 v -8 H 62.671875 V 84 h 18.6875 c 3.671875,0 6.078125,-2.25 7.078125,-6.421875 1.171875,-4.78125 1.21875,-7.75 0,-12.75 -0.890625,-3.703125 -3.40625,-7.5 -7.078125,-7.5 H 78.6875 v 8 c 0,4.140625 -3.71875,8 -8,8 H 57.34375 C 53.8125,73.328125 52,75.15625 52,78.671875 V 92 c 0,3.40625 1.40625,6.9375 4.84375,7.5 2.171875,0.359375 4.421875,0.51563 6.578125,0.5 z m 4.59375,-5.328125 C 66.53125,94.671875 65.34375,93.46875 65.34375,92 c 0,-1.46875 1.1875,-2.671875 2.671875,-2.671875 1.46875,0 2.671875,1.203125 2.671875,2.671875 0,1.46875 -1.203125,2.671875 -2.671875,2.671875 z m 0,0"
       id="path10"
       inkscape:connector-curvature="0" />
  </g>
</svg>
