<?xml version="1.0" encoding="UTF-8" standalone="no"?>
<svg
   xmlns:dc="http://purl.org/dc/elements/1.1/"
   xmlns:cc="http://creativecommons.org/ns#"
   xmlns:rdf="http://www.w3.org/1999/02/22-rdf-syntax-ns#"
   xmlns:svg="http://www.w3.org/2000/svg"
   xmlns="http://www.w3.org/2000/svg"
   xmlns:sodipodi="http://sodipodi.sourceforge.net/DTD/sodipodi-0.dtd"
   xmlns:inkscape="http://www.inkscape.org/namespaces/inkscape"
   width="96"
   height="96"
   viewBox="0 0 96 96"
   version="1.1"
   id="svg11"
   sodipodi:docname="text-x-css.svg"
   inkscape:version="0.92.2 (5c3e80d, 2017-08-06)">
  <metadata
     id="metadata17">
    <rdf:RDF>
      <cc:Work
         rdf:about="">
        <dc:format>image/svg+xml</dc:format>
        <dc:type
           rdf:resource="http://purl.org/dc/dcmitype/StillImage" />
        <dc:title></dc:title>
      </cc:Work>
    </rdf:RDF>
  </metadata>
  <defs
     id="defs15" />
  <sodipodi:namedview
     pagecolor="#ffffff"
     bordercolor="#666666"
     borderopacity="1"
     objecttolerance="10"
     gridtolerance="10"
     guidetolerance="10"
     inkscape:pageopacity="0"
     inkscape:pageshadow="2"
     inkscape:window-width="2277"
     inkscape:window-height="1495"
     id="namedview13"
     showgrid="false"
     inkscape:zoom="1.84375"
     inkscape:cx="-55.59322"
     inkscape:cy="64"
     inkscape:window-x="102"
     inkscape:window-y="55"
     inkscape:window-maximized="0"
     inkscape:current-layer="svg11" />
  <g
     id="surface1"
     transform="scale(0.75)">
    <path
       style="fill:#0a70b8;fill-opacity:1;fill-rule:nonzero;stroke:none"
       d="M 21.34375,0 C 18.59375,0 16,2.710938 16,5.578125 V 122.42188 C 16,125.13281 18.75,128 21.34375,128 h 85.3125 C 109.25,128 112,125.13281 112,122.42188 V 36 L 76,0 Z m 0,0"
       id="path2"
       inkscape:connector-curvature="0" />
    <path
       style="fill:#000000;fill-opacity:0.19607801;fill-rule:nonzero;stroke:none"
       d="m 84,36 28,28 V 36 Z m 0,0"
       id="path4"
       inkscape:connector-curvature="0" />
    <path
       style="fill:#ffffff;fill-opacity:0.39215698;fill-rule:nonzero;stroke:none"
       d="m 76,0 35.96875,36 H 81.515625 C 78.820312,36 76,33.148438 76,30.453125 Z m 0,0"
       id="path6"
       inkscape:connector-curvature="0" />
    <path
       style="fill:#ffffff;fill-opacity:1;fill-rule:nonzero;stroke:none"
       d="m 40,48 v 12 h 36 l -1.039062,8 H 56 V 80 H 73.765625 L 72,93.335938 64,96.257812 56,93.460938 V 88 H 44 v 14.14063 L 64,108 85.007812,102.14063 87.984375,48 Z m 0,0"
       id="path8"
       inkscape:connector-curvature="0" />
  </g>
</svg>
