<?xml version="1.0" encoding="UTF-8" standalone="no"?>
<svg
   xmlns:dc="http://purl.org/dc/elements/1.1/"
   xmlns:cc="http://creativecommons.org/ns#"
   xmlns:rdf="http://www.w3.org/1999/02/22-rdf-syntax-ns#"
   xmlns:svg="http://www.w3.org/2000/svg"
   xmlns="http://www.w3.org/2000/svg"
   xmlns:sodipodi="http://sodipodi.sourceforge.net/DTD/sodipodi-0.dtd"
   xmlns:inkscape="http://www.inkscape.org/namespaces/inkscape"
   width="96"
   height="96"
   viewBox="0 0 96 96"
   version="1.1"
   id="svg13"
   sodipodi:docname="text-x-copying.svg"
   inkscape:version="0.92.2 (5c3e80d, 2017-08-06)">
  <metadata
     id="metadata19">
    <rdf:RDF>
      <cc:Work
         rdf:about="">
        <dc:format>image/svg+xml</dc:format>
        <dc:type
           rdf:resource="http://purl.org/dc/dcmitype/StillImage" />
        <dc:title></dc:title>
      </cc:Work>
    </rdf:RDF>
  </metadata>
  <defs
     id="defs17" />
  <sodipodi:namedview
     pagecolor="#ffffff"
     bordercolor="#666666"
     borderopacity="1"
     objecttolerance="10"
     gridtolerance="10"
     guidetolerance="10"
     inkscape:pageopacity="0"
     inkscape:pageshadow="2"
     inkscape:window-width="2215"
     inkscape:window-height="1377"
     id="namedview15"
     showgrid="false"
     inkscape:zoom="1.84375"
     inkscape:cx="-55.59322"
     inkscape:cy="62.915254"
     inkscape:window-x="102"
     inkscape:window-y="55"
     inkscape:window-maximized="0"
     inkscape:current-layer="svg13" />
  <g
     id="surface1"
     transform="scale(0.75)">
    <path
       style="fill:#dcdcdc;fill-opacity:1;fill-rule:nonzero;stroke:none"
       d="M 21.34375,0 C 18.59375,0 16,2.710938 16,5.578125 V 122.42188 C 16,125.13281 18.75,128 21.34375,128 h 85.3125 C 109.25,128 112,125.13281 112,122.42188 V 36 L 76,0 Z m 0,0"
       id="path2"
       inkscape:connector-curvature="0" />
    <path
       style="fill:#000000;fill-opacity:0.19607801;fill-rule:nonzero;stroke:none"
       d="m 84,36 28,28 V 36 Z m 0,0"
       id="path4"
       inkscape:connector-curvature="0" />
    <path
       style="fill:#ffffff;fill-opacity:0.39215698;fill-rule:nonzero;stroke:none"
       d="m 76,0 35.96875,36 H 81.515625 C 78.820312,36 76,33.148438 76,30.453125 Z m 0,0"
       id="path6"
       inkscape:connector-curvature="0" />
    <path
       style="fill:#878787;fill-opacity:1;fill-rule:nonzero;stroke:none"
       d="M 64,48 C 48.53125,48 36,60.539062 36,75.992188 36,91.460938 48.53125,104 64,104 79.46875,104 92,91.460938 92,75.992188 92,60.539062 79.46875,48 64,48 Z m 0,5.59375 c 12.367188,0 22.390625,10.023438 22.390625,22.398438 0,12.375 -10.023437,22.414062 -22.390625,22.414062 -12.367188,0 -22.390625,-10.039062 -22.390625,-22.414062 0,-12.375 10.023437,-22.398438 22.390625,-22.398438 z m 0,0"
       id="path8"
       inkscape:connector-curvature="0" />
    <path
       style="fill:#878787;fill-opacity:1;fill-rule:nonzero;stroke:none"
       d="m 64.445312,64.96875 c -2.9375,0 -5.203124,0.984375 -6.8125,2.953125 -1.601562,1.953125 -2.40625,4.671875 -2.40625,8.171875 0,7.296875 3.0625,10.9375 9.21875,10.9375 2.570313,0 5.703126,-0.570312 9.367188,-1.71875 v 5.804688 c -3.007812,1.117187 -6.382812,1.679687 -10.09375,1.679687 -5.34375,0 -9.429688,-1.429687 -12.265625,-4.320313 -2.835937,-2.882812 -4.25,-7.023437 -4.25,-12.421874 0,-3.390626 0.6875,-6.382813 2.085937,-8.921876 1.390626,-2.5625 3.375,-4.53125 5.984376,-5.875 2.609374,-1.375 5.671874,-2.070312 9.171874,-2.070312 3.570313,0 7.148438,0.773438 10.757813,2.3125 l -2.523437,5.632812 C 71.3125,66.554688 69.921875,66.046875 68.546875,65.609375 67.148438,65.179688 65.789062,64.96875 64.445312,64.96875"
       id="path10"
       inkscape:connector-curvature="0" />
  </g>
</svg>
