<?xml version="1.0" encoding="UTF-8" standalone="no"?>
<svg
   xmlns:dc="http://purl.org/dc/elements/1.1/"
   xmlns:cc="http://creativecommons.org/ns#"
   xmlns:rdf="http://www.w3.org/1999/02/22-rdf-syntax-ns#"
   xmlns:svg="http://www.w3.org/2000/svg"
   xmlns="http://www.w3.org/2000/svg"
   xmlns:sodipodi="http://sodipodi.sourceforge.net/DTD/sodipodi-0.dtd"
   xmlns:inkscape="http://www.inkscape.org/namespaces/inkscape"
   width="96"
   height="96"
   viewBox="0 0 96 96"
   version="1.1"
   id="svg15"
   sodipodi:docname="text-x-c++.svg"
   inkscape:version="0.92.2 (5c3e80d, 2017-08-06)">
  <metadata
     id="metadata21">
    <rdf:RDF>
      <cc:Work
         rdf:about="">
        <dc:format>image/svg+xml</dc:format>
        <dc:type
           rdf:resource="http://purl.org/dc/dcmitype/StillImage" />
        <dc:title></dc:title>
      </cc:Work>
    </rdf:RDF>
  </metadata>
  <defs
     id="defs19" />
  <sodipodi:namedview
     pagecolor="#ffffff"
     bordercolor="#666666"
     borderopacity="1"
     objecttolerance="10"
     gridtolerance="10"
     guidetolerance="10"
     inkscape:pageopacity="0"
     inkscape:pageshadow="2"
     inkscape:window-width="1769"
     inkscape:window-height="1046"
     id="namedview17"
     showgrid="false"
     inkscape:zoom="1.84375"
     inkscape:cx="-55.59322"
     inkscape:cy="62.915254"
     inkscape:window-x="102"
     inkscape:window-y="61"
     inkscape:window-maximized="0"
     inkscape:current-layer="svg15" />
  <g
     id="surface1"
     transform="scale(0.75)">
    <path
       style="fill:#2b2b2b;fill-opacity:1;fill-rule:nonzero;stroke:none"
       d="M 21.34375,0 C 18.59375,0 16,2.710938 16,5.578125 V 122.42188 C 16,125.13281 18.75,128 21.34375,128 h 85.3125 C 109.25,128 112,125.13281 112,122.42188 V 36 L 76,0 Z m 0,0"
       id="path2"
       inkscape:connector-curvature="0" />
    <path
       style="fill:#000000;fill-opacity:0.19607801;fill-rule:nonzero;stroke:none"
       d="m 84,36 28,28 V 36 Z m 0,0"
       id="path4"
       inkscape:connector-curvature="0" />
    <path
       style="fill:#ffffff;fill-opacity:0.39215698;fill-rule:nonzero;stroke:none"
       d="m 76,0 35.96875,36 H 81.515625 C 78.820312,36 76,33.148438 76,30.453125 Z m 0,0"
       id="path6"
       inkscape:connector-curvature="0" />
    <path
       style="fill:#dcdcdc;fill-opacity:1;fill-rule:nonzero;stroke:none"
       d="m 32,74.375 c 0,-2.078125 0.375,-4.132812 1.109375,-6.164062 0.734375,-2.046876 1.796875,-3.875 3.1875,-5.484376 1.421875,-1.601562 3.140625,-2.90625 5.15625,-3.898437 2.03125,-0.992187 4.34375,-1.5 6.953125,-1.5 3.0625,0 5.703125,0.695313 7.921875,2.070313 2.25,1.382812 3.90625,3.1875 4.96875,5.398437 l -5.125,3.515625 c -0.375,-0.96875 -0.875,-1.765625 -1.484375,-2.414062 C 54.0625,65.226562 53.390625,64.703125 52.65625,64.3125 51.953125,63.929688 51.203125,63.648438 50.4375,63.5 c -0.78125,-0.195312 -1.515625,-0.296875 -2.21875,-0.296875 -1.578125,0 -2.96875,0.34375 -4.15625,1.015625 -1.1875,0.679688 -2.1875,1.554688 -2.984375,2.640625 -0.78125,1.070313 -1.375,2.289063 -1.796875,3.65625 -0.375,1.359375 -0.578125,2.710937 -0.578125,4.054687 0,1.507813 0.234375,2.96875 0.6875,4.375 0.46875,1.390626 1.140625,2.609376 1.96875,3.65625 0.875,1.070313 1.90625,1.921876 3.09375,2.554688 1.1875,0.648438 2.484375,0.96875 3.90625,0.96875 0.734375,0 1.5,-0.09375 2.265625,-0.28125 0.78125,-0.203125 1.515625,-0.507812 2.21875,-0.929688 0.75,-0.40625 1.421875,-0.9375 2.03125,-1.585937 0.609375,-0.671875 1.109375,-1.46875 1.5,-2.398437 l 5.453125,3.125 c -0.515625,1.28125 -1.28125,2.421874 -2.265625,3.414062 -0.96875,0.960938 -2.078125,1.789062 -3.34375,2.460938 -1.25,0.671874 -2.5625,1.179687 -3.953125,1.539062 -1.375,0.351562 -2.75,0.53125 -4.09375,0.53125 -2.390625,0 -4.578125,-0.507812 -6.5625,-1.539062 -1.96875,-1.023438 -3.671875,-2.359376 -5.125,-4 C 35.078125,84.789062 33.96875,82.90625 33.15625,80.828125 32.390625,78.710938 32,76.5625 32,74.375"
       id="path8"
       inkscape:connector-curvature="0" />
    <path
       style="fill:#dcdcdc;fill-opacity:1;fill-rule:nonzero;stroke:none"
       d="m 80,76 h -8 v 8 h -4 v -8 h -8 v -4 h 8 v -8 h 4 v 8 h 8"
       id="path10"
       inkscape:connector-curvature="0" />
    <path
       style="fill:#dcdcdc;fill-opacity:1;fill-rule:nonzero;stroke:none"
       d="m 104,72 v 4 h -8 v 8 h -4 v -8 h -8 v -4 h 8 v -8 h 4 v 8 h 4"
       id="path12"
       inkscape:connector-curvature="0" />
  </g>
</svg>
