<?xml version="1.0" encoding="UTF-8" standalone="no"?>
<svg
   xmlns:dc="http://purl.org/dc/elements/1.1/"
   xmlns:cc="http://creativecommons.org/ns#"
   xmlns:rdf="http://www.w3.org/1999/02/22-rdf-syntax-ns#"
   xmlns:svg="http://www.w3.org/2000/svg"
   xmlns="http://www.w3.org/2000/svg"
   xmlns:sodipodi="http://sodipodi.sourceforge.net/DTD/sodipodi-0.dtd"
   xmlns:inkscape="http://www.inkscape.org/namespaces/inkscape"
   width="96"
   height="96"
   viewBox="0 0 96 96"
   version="1.1"
   id="svg23"
   sodipodi:docname="text-x-sql.svg"
   inkscape:version="0.92.2 (5c3e80d, 2017-08-06)">
  <metadata
     id="metadata29">
    <rdf:RDF>
      <cc:Work
         rdf:about="">
        <dc:format>image/svg+xml</dc:format>
        <dc:type
           rdf:resource="http://purl.org/dc/dcmitype/StillImage" />
        <dc:title></dc:title>
      </cc:Work>
    </rdf:RDF>
  </metadata>
  <defs
     id="defs27" />
  <sodipodi:namedview
     pagecolor="#ffffff"
     bordercolor="#666666"
     borderopacity="1"
     objecttolerance="10"
     gridtolerance="10"
     guidetolerance="10"
     inkscape:pageopacity="0"
     inkscape:pageshadow="2"
     inkscape:window-width="2225"
     inkscape:window-height="1502"
     id="namedview25"
     showgrid="false"
     inkscape:zoom="1.84375"
     inkscape:cx="-55.59322"
     inkscape:cy="64"
     inkscape:window-x="102"
     inkscape:window-y="55"
     inkscape:window-maximized="0"
     inkscape:current-layer="svg23" />
  <g
     id="surface1"
     transform="scale(0.75)">
    <path
       style="fill:#a13538;fill-opacity:1;fill-rule:nonzero;stroke:none"
       d="M 21.34375,0 C 18.59375,0 16,2.710938 16,5.578125 V 122.42188 C 16,125.13281 18.75,128 21.34375,128 h 85.3125 C 109.25,128 112,125.13281 112,122.42188 V 36 L 76,0 Z m 0,0"
       id="path2"
       inkscape:connector-curvature="0" />
    <path
       style="fill:#000000;fill-opacity:0.19607801;fill-rule:nonzero;stroke:none"
       d="m 16,96 v 26.67188 C 16,125.26563 18.75,128 21.328125,128 H 106.67188 C 109.25,128 112,125.26563 112,122.67188 V 96 Z m 0,0"
       id="path4"
       inkscape:connector-curvature="0" />
    <path
       style="fill:#ffffff;fill-opacity:1;fill-rule:nonzero;stroke:none"
       d="m 43.578125,117.15625 c 0.820313,0 1.476563,-0.0547 2,-0.17969 0.5625,-0.15625 1,-0.34375 1.3125,-0.58593 0.3125,-0.24219 0.523437,-0.52344 0.625,-0.82032 0.132813,-0.32031 0.195313,-0.63281 0.195313,-0.95312 0,-0.41406 -0.148438,-0.76563 -0.421876,-1.08594 -0.296874,-0.3125 -0.65625,-0.59375 -1.101562,-0.82031 -0.460938,-0.25781 -0.953125,-0.48438 -1.507812,-0.67188 -0.546876,-0.20312 -1.101563,-0.39062 -1.65625,-0.5625 -0.742188,-0.22656 -1.492188,-0.46875 -2.28125,-0.75 -0.789063,-0.25781 -1.507813,-0.61718 -2.164063,-1.04687 -0.640625,-0.40625 -1.164063,-0.92969 -1.59375,-1.54688 -0.414063,-0.64062 -0.625,-1.42187 -0.625,-2.35937 0,-1.82813 0.742187,-3.26563 2.21875,-4.3125 1.492187,-1.04688 3.539063,-1.55469 6.148437,-1.55469 1.492188,0 2.789063,0.13281 3.90625,0.41406 1.109376,0.28125 2.0625,0.57813 2.835938,0.91407 l -1.429688,3.03125 c -0.65625,-0.30469 -1.390624,-0.5625 -2.210937,-0.77344 -0.789063,-0.21875 -1.710937,-0.3125 -2.757813,-0.3125 -2.578124,0 -3.851562,0.74219 -3.851562,2.25781 0,0.375 0.125,0.71094 0.390625,1.00781 0.265625,0.28125 0.59375,0.52344 0.984375,0.77344 0.414062,0.20313 0.867188,0.39063 1.375,0.55469 0.53125,0.17187 1.039062,0.33594 1.546875,0.49219 0.75,0.21875 1.539063,0.5 2.359375,0.78125 0.835938,0.28125 1.609375,0.67187 2.28125,1.15625 0.71875,0.46875 1.296875,1.04687 1.742188,1.78125 0.4375,0.6875 0.671874,1.58593 0.671874,2.67187 0,1.82813 -0.757812,3.27344 -2.25,4.28125 -1.476562,0.99219 -3.726562,1.49219 -6.742187,1.49219 -2.03125,0 -3.640625,-0.16406 -4.851563,-0.5 C 37.507812,119.57031 36.609375,119.23438 36,118.9375 l 1.429688,-3.17969 c 0.703124,0.33594 1.539062,0.65625 2.523437,0.95313 1,0.29687 2.195313,0.44531 3.625,0.44531"
       id="path6"
       inkscape:connector-curvature="0" />
    <path
       style="fill:#ffffff;fill-opacity:1;fill-rule:nonzero;stroke:none"
       d="m 55.210938,110.26563 c 0,-3.39063 0.765624,-5.94532 2.328124,-7.66407 C 59.078125,100.85938 61.242188,100 64,100 c 2.867188,0 5.054688,0.85938 6.546875,2.60156 1.492187,1.71875 2.242187,4.27344 2.242187,7.66407 0,2.96875 -0.585937,5.30468 -1.765624,7.02343 -1.1875,1.6875 -2.890626,2.71094 -5.140626,3.08594 0.296876,0.52344 0.984376,0.95313 2.101563,1.28906 1.132813,0.375 2.65625,0.69532 4.609375,0.95313 l -1.015625,2.80469 c -3.085937,-0.33594 -5.414063,-0.91407 -6.984375,-1.71875 -1.546875,-0.78907 -2.476562,-1.90625 -2.757812,-3.40625 -2.132813,-0.40625 -3.773438,-1.47657 -4.9375,-3.14063 -1.132813,-1.69531 -1.6875,-4 -1.6875,-6.89062 m 4.914062,0 c 0,0.95312 0.05469,1.84375 0.132812,2.67187 0.101563,0.82031 0.28125,1.54688 0.546876,2.1875 0.289062,0.61719 0.6875,1.10156 1.179687,1.45313 0.507813,0.375 1.179687,0.54687 2.015625,0.54687 0.820312,0 1.476562,-0.17187 1.96875,-0.54687 0.523438,-0.35157 0.921875,-0.83594 1.179688,-1.45313 0.296874,-0.64062 0.476562,-1.36719 0.5625,-2.1875 0.09375,-0.82812 0.164062,-1.71875 0.164062,-2.67187 0,-0.95313 -0.07031,-1.85157 -0.164062,-2.67969 -0.08594,-0.83594 -0.265626,-1.57031 -0.5625,-2.1875 -0.257813,-0.60938 -0.640626,-1.10156 -1.132813,-1.45313 -0.507813,-0.375 -1.179687,-0.54687 -2.015625,-0.54687 -0.835938,0 -1.507812,0.17187 -2.015625,0.54687 -0.492187,0.35157 -0.890625,0.85938 -1.179687,1.49219 -0.265626,0.60156 -0.445313,1.32813 -0.546876,2.14844 -0.07812,0.82812 -0.132812,1.72656 -0.132812,2.67969"
       id="path8"
       inkscape:connector-curvature="0" />
    <path
       style="fill:#ffffff;fill-opacity:1;fill-rule:nonzero;stroke:none"
       d="M 92,120.02344 H 76.664062 v -19.6875 h 4.890626 v 16.45312 H 92 v 3.23438"
       id="path10"
       inkscape:connector-curvature="0" />
    <path
       style="fill:#000000;fill-opacity:0.19607801;fill-rule:nonzero;stroke:none"
       d="m 84,36 28,28 V 36 Z m 0,0"
       id="path12"
       inkscape:connector-curvature="0" />
    <path
       style="fill:#ffffff;fill-opacity:0.39215698;fill-rule:nonzero;stroke:none"
       d="m 76,0 35.96875,36 H 81.515625 C 78.820312,36 76,33.148438 76,30.453125 Z m 0,0"
       id="path14"
       inkscape:connector-curvature="0" />
    <path
       style="fill:#ffffff;fill-opacity:1;fill-rule:nonzero;stroke:none"
       d="m 64,43.984375 c -11.046875,0 -20,2.796875 -20,6.257813 v 4.992187 c 0,3.460937 8.953125,6.257813 20,6.257813 11.046875,0 20,-2.796876 20,-6.257813 V 50.242188 C 84,46.78125 75.046875,43.984375 64,43.984375 Z m 0,0"
       id="path16"
       inkscape:connector-curvature="0" />
    <path
       style="fill:#ffffff;fill-opacity:1;fill-rule:nonzero;stroke:none"
       d="m 63.9375,63.984375 c -8.960938,0 -16.507812,-1.828125 -19.054688,-4.367187 C 44.28125,60.203125 44,60.835938 44,61.492188 v 5 C 44,69.945312 52.953125,72.75 64,72.75 c 11.046875,0 20,-2.804688 20,-6.257812 v -5 c 0,-0.65625 -0.351562,-1.289063 -0.9375,-1.875 -2.546875,2.539062 -10.171875,4.367187 -19.125,4.367187 z m 0,0"
       id="path18"
       inkscape:connector-curvature="0" />
    <path
       style="fill:#ffffff;fill-opacity:1;fill-rule:nonzero;stroke:none"
       d="M 63.9375,75.234375 C 54.976562,75.234375 47.429688,73.40625 44.882812,70.875 44.28125,71.460938 44,72.085938 44,72.75 v 4.992188 C 44,81.203125 52.953125,84 64,84 75.046875,84 84,81.203125 84,77.742188 V 72.75 c 0,-0.664062 -0.351562,-1.289062 -0.9375,-1.875 -2.546875,2.53125 -10.171875,4.359375 -19.125,4.359375 z m 0,0"
       id="path20"
       inkscape:connector-curvature="0" />
  </g>
</svg>
