<?xml version="1.0" encoding="UTF-8" standalone="no"?>
<svg
   xmlns:dc="http://purl.org/dc/elements/1.1/"
   xmlns:cc="http://creativecommons.org/ns#"
   xmlns:rdf="http://www.w3.org/1999/02/22-rdf-syntax-ns#"
   xmlns:svg="http://www.w3.org/2000/svg"
   xmlns="http://www.w3.org/2000/svg"
   xmlns:sodipodi="http://sodipodi.sourceforge.net/DTD/sodipodi-0.dtd"
   xmlns:inkscape="http://www.inkscape.org/namespaces/inkscape"
   width="96"
   height="96"
   viewBox="0 0 96 96"
   version="1.1"
   id="svg11"
   sodipodi:docname="unknown.svg"
   inkscape:version="0.92.2 (5c3e80d, 2017-08-06)">
  <metadata
     id="metadata17">
    <rdf:RDF>
      <cc:Work
         rdf:about="">
        <dc:format>image/svg+xml</dc:format>
        <dc:type
           rdf:resource="http://purl.org/dc/dcmitype/StillImage" />
        <dc:title></dc:title>
      </cc:Work>
    </rdf:RDF>
  </metadata>
  <defs
     id="defs15" />
  <sodipodi:namedview
     pagecolor="#ffffff"
     bordercolor="#666666"
     borderopacity="1"
     objecttolerance="10"
     gridtolerance="10"
     guidetolerance="10"
     inkscape:pageopacity="0"
     inkscape:pageshadow="2"
     inkscape:window-width="2451"
     inkscape:window-height="1629"
     id="namedview13"
     showgrid="false"
     inkscape:zoom="1.84375"
     inkscape:cx="-55.59322"
     inkscape:cy="64"
     inkscape:window-x="102"
     inkscape:window-y="55"
     inkscape:window-maximized="0"
     inkscape:current-layer="svg11" />
  <g
     id="surface1"
     transform="scale(0.75)">
    <path
       style="fill:#dcdcdc;fill-opacity:1;fill-rule:nonzero;stroke:none"
       d="M 21.34375,0 C 18.59375,0 16,2.710938 16,5.578125 V 122.42188 C 16,125.13281 18.75,128 21.34375,128 h 85.3125 C 109.25,128 112,125.13281 112,122.42188 V 36 L 76,0 Z m 0,0"
       id="path2"
       inkscape:connector-curvature="0" />
    <path
       style="fill:#000000;fill-opacity:0.19607801;fill-rule:nonzero;stroke:none"
       d="m 84,36 28,28 V 36 Z m 0,0"
       id="path4"
       inkscape:connector-curvature="0" />
    <path
       style="fill:#ffffff;fill-opacity:0.39215698;fill-rule:nonzero;stroke:none"
       d="m 76,0 35.96875,36 H 81.515625 C 78.820312,36 76,33.148438 76,30.453125 Z m 0,0"
       id="path6"
       inkscape:connector-curvature="0" />
    <path
       style="fill:#878787;fill-opacity:1;fill-rule:nonzero;stroke:none"
       d="m 58.5,84.765625 v -1.90625 c 0,-2.75 0.484375,-5.015625 1.453125,-6.78125 0.953125,-1.78125 2.75,-3.65625 5.375,-5.640625 3.625,-2.703125 5.921875,-4.734375 6.859375,-6.09375 0.953125,-1.375 1.4375,-3.015625 1.4375,-4.9375 0,-2.40625 -0.890625,-4.25 -2.640625,-5.546875 -1.75,-1.3125 -4.25,-1.96875 -7.546875,-1.96875 -2.109375,0 -4.171875,0.21875 -6.171875,0.671875 -2,0.421875 -4.3125,1.203125 -6.90625,2.359375 L 48,50.15625 c 5.046875,-2.328125 10.328125,-3.484375 15.84375,-3.484375 5.109375,0 9.078125,1.09375 11.90625,3.3125 2.828125,2.203125 4.25,5.328125 4.25,9.34375 0,1.71875 -0.265625,3.234375 -0.796875,4.546875 -0.515625,1.296875 -1.28125,2.53125 -2.296875,3.703125 -1.015625,1.15625 -3.203125,3.03125 -6.5625,5.609375 -2.703125,2.03125 -4.5,3.703125 -5.375,5.046875 -0.859375,1.34375 -1.296875,3.125 -1.296875,5.359375 v 1.171875 H 58.5 m -1.953125,10.46875 c 0,-3.1875 1.59375,-4.796875 4.8125,-4.796875 1.546875,0 2.734375,0.421875 3.5625,1.234375 0.859375,0.828125 1.28125,2.015625 1.28125,3.5625 0,1.515625 -0.421875,2.6875 -1.28125,3.53125 C 64.0625,99.59375 62.875,100 61.359375,100 59.96875,100 58.8125,99.640625 57.90625,98.90625 57,98.15625 56.546875,96.9375 56.546875,95.234375"
       id="path8"
       inkscape:connector-curvature="0" />
  </g>
</svg>
