<?xml version="1.0" encoding="UTF-8" standalone="no"?>
<svg
   xmlns:dc="http://purl.org/dc/elements/1.1/"
   xmlns:cc="http://creativecommons.org/ns#"
   xmlns:rdf="http://www.w3.org/1999/02/22-rdf-syntax-ns#"
   xmlns:svg="http://www.w3.org/2000/svg"
   xmlns="http://www.w3.org/2000/svg"
   xmlns:sodipodi="http://sodipodi.sourceforge.net/DTD/sodipodi-0.dtd"
   xmlns:inkscape="http://www.inkscape.org/namespaces/inkscape"
   width="96"
   height="96"
   viewBox="0 0 96 96"
   version="1.1"
   id="svg2"
   inkscape:version="0.92.2 (5c3e80d, 2017-08-06)"
   sodipodi:docname="wps-office-dot.svg">
  <metadata
     id="metadata33">
    <rdf:RDF>
      <cc:Work
         rdf:about="">
        <dc:format>image/svg+xml</dc:format>
        <dc:type
           rdf:resource="http://purl.org/dc/dcmitype/StillImage" />
        <dc:title></dc:title>
      </cc:Work>
    </rdf:RDF>
  </metadata>
  <defs
     id="defs31" />
  <sodipodi:namedview
     pagecolor="#ffffff"
     bordercolor="#666666"
     borderopacity="1"
     objecttolerance="10"
     gridtolerance="10"
     guidetolerance="10"
     inkscape:pageopacity="0"
     inkscape:pageshadow="2"
     inkscape:window-width="2130"
     inkscape:window-height="1537"
     id="namedview29"
     showgrid="false"
     inkscape:zoom="2.6074563"
     inkscape:cx="-44.736342"
     inkscape:cy="147.01989"
     inkscape:window-x="827"
     inkscape:window-y="112"
     inkscape:window-maximized="0"
     inkscape:current-layer="surface1" />
  <g
     id="surface1"
     transform="translate(0,-32)">
    <path
       style="fill:#5062b0;fill-opacity:1;fill-rule:nonzero;stroke:none;stroke-width:0.75"
       d="M 16.03125,32 C 13.96875,32 12,34.068359 12,36.21875 v 87.5625 C 12,125.8086 14.085938,128 16.03125,128 h 63.9375 C 81.914062,128 84,125.8086 84,123.78125 V 36.125 C 84,34.103516 81.896483,32 79.875,32 Z m 0,0"
       id="path5"
       inkscape:connector-curvature="0" />
    <path
       style="fill:#000000;fill-opacity:0.19607801;fill-rule:nonzero;stroke:none;stroke-width:0.75"
       d="m 12,104 v 20.00391 C 12,125.94922 14.0625,128 15.996094,128 H 80.00391 C 81.9375,128 84,125.94922 84,124.00391 V 104 Z m 0,0"
       id="path21"
       inkscape:connector-curvature="0" />
    <path
       style="fill:#ffffff;fill-opacity:1;fill-rule:nonzero;stroke:none;stroke-width:0.75"
       d="m 30.585937,122.38672 c 0.09961,0.0234 0.210938,0.0234 0.322266,0.0234 0.123047,0 0.234375,0 0.333984,0 0.826172,0 1.511719,-0.13476 2.068359,-0.41601 0.56836,-0.26954 1.025391,-0.6504 1.353516,-1.14844 0.357422,-0.48047 0.603516,-1.04297 0.738282,-1.71094 0.164062,-0.67383 0.246093,-1.41797 0.246093,-2.21485 0,-0.6914 -0.0586,-1.37109 -0.181641,-2.03319 -0.111327,-0.65625 -0.322265,-1.23048 -0.615234,-1.74024 -0.298828,-0.50391 -0.703125,-0.89649 -1.21875,-1.19532 -0.509766,-0.3164 -1.171875,-0.46288 -1.986328,-0.46288 -0.158203,0 -0.333984,0 -0.527343,0.0234 -0.19922,0 -0.369141,0.0117 -0.533204,0.0469 v 10.82813 m 8.759766,-5.4668 c 0,1.5 -0.222657,2.77148 -0.650391,3.83203 -0.421875,1.04297 -1.001953,1.89258 -1.751953,2.54883 -0.75,0.66211 -1.634765,1.14257 -2.683593,1.46484 -1.03711,0.28125 -2.16797,0.4336 -3.416016,0.4336 -0.638672,0 -1.277344,-0.0293 -1.916016,-0.0996 -0.609375,-0.0527 -1.271484,-0.14648 -1.986328,-0.28711 v -15.72656 c 0.83789,-0.15234 1.611328,-0.26367 2.33789,-0.31054 0.732423,-0.0469 1.41797,-0.0879 2.044923,-0.0879 1.21289,0 2.296875,0.16407 3.28125,0.48048 1.007812,0.31054 1.857422,0.80273 2.548827,1.48242 0.691407,0.66211 1.21875,1.51171 1.59961,2.54883 0.398438,1.01952 0.591797,2.26757 0.591797,3.7207"
       id="path23"
       inkscape:connector-curvature="0" />
    <path
       style="fill:#ffffff;fill-opacity:1;fill-rule:nonzero;stroke:none;stroke-width:0.75"
       d="m 44.642578,116.91992 c 0,0.78516 0.02929,1.52344 0.08789,2.21485 0.07617,0.67969 0.222656,1.27148 0.421875,1.77539 0.205077,0.5039 0.503906,0.89648 0.884765,1.19531 0.369141,0.29297 0.873047,0.44532 1.5,0.44532 0.621094,0 1.113282,-0.15235 1.482422,-0.44532 0.392578,-0.29883 0.685547,-0.69141 0.884765,-1.19531 0.222657,-0.52735 0.357423,-1.11914 0.421875,-1.79883 0.07031,-0.67969 0.123048,-1.40625 0.123048,-2.19141 0,-0.77929 -0.05273,-1.50586 -0.123048,-2.17969 -0.06445,-0.70312 -0.199218,-1.29492 -0.421875,-1.79882 -0.199218,-0.50977 -0.480468,-0.90235 -0.849609,-1.19531 -0.380859,-0.29883 -0.884766,-0.44531 -1.517578,-0.44531 -0.626953,0 -1.130859,0.14648 -1.5,0.44531 -0.380859,0.29296 -0.679688,0.70312 -0.884765,1.21875 -0.199219,0.5039 -0.345703,1.0957 -0.421875,1.77538 -0.0586,0.67383 -0.08789,1.4004 -0.08789,2.17969 m -3.691407,0 c 0,-2.77148 0.57422,-4.86913 1.734375,-6.26953 1.171875,-1.42968 2.783204,-2.13281 4.851563,-2.13281 2.15625,0 3.796875,0.70313 4.916016,2.13281 1.125,1.4004 1.6875,3.49805 1.6875,6.26953 0,2.78321 -0.574219,4.875 -1.710938,6.30469 -1.142578,1.40625 -2.771484,2.10937 -4.851562,2.10937 -2.15625,0 -3.808594,-0.70312 -4.951172,-2.10937 -1.125,-1.42969 -1.675782,-3.52148 -1.675782,-6.30469"
       id="path25"
       inkscape:connector-curvature="0" />
    <path
       style="fill:#ffffff;fill-opacity:1;fill-rule:nonzero;stroke:none;stroke-width:0.75"
       d="m 69,108.875 v 2.66016 H 64.171875 V 125 H 60.498046 V 111.53516 H 55.681641 V 108.875 H 69"
       id="path27"
       inkscape:connector-curvature="0" />
    <text
       xml:space="preserve"
       style="font-style:normal;font-variant:normal;font-weight:normal;font-stretch:normal;font-size:8.99999905px;line-height:0%;font-family:Ubuntu;-inkscape-font-specification:Ubuntu;text-align:start;letter-spacing:0px;word-spacing:0px;writing-mode:lr-tb;text-anchor:start;fill:#ffffff;fill-opacity:1;stroke:none;stroke-width:0.75"
       x="17.656019"
       y="99.075584"
       id="text3043"><tspan
         sodipodi:role="line"
         id="tspan3045"
         x="17.656019"
         y="99.075584"
         style="font-size:47.37629318px;line-height:1.25;stroke-width:0.75">W</tspan></text>
  </g>
</svg>
