<?xml version="1.0" encoding="UTF-8" standalone="no"?>
<svg
   xmlns:dc="http://purl.org/dc/elements/1.1/"
   xmlns:cc="http://creativecommons.org/ns#"
   xmlns:rdf="http://www.w3.org/1999/02/22-rdf-syntax-ns#"
   xmlns:svg="http://www.w3.org/2000/svg"
   xmlns="http://www.w3.org/2000/svg"
   xmlns:sodipodi="http://sodipodi.sourceforge.net/DTD/sodipodi-0.dtd"
   xmlns:inkscape="http://www.inkscape.org/namespaces/inkscape"
   width="96"
   height="96"
   viewBox="0 0 96 96"
   version="1.1"
   id="svg25"
   sodipodi:docname="wps-office-dps.svg"
   inkscape:version="0.92.2 (5c3e80d, 2017-08-06)">
  <metadata
     id="metadata31">
    <rdf:RDF>
      <cc:Work
         rdf:about="">
        <dc:format>image/svg+xml</dc:format>
        <dc:type
           rdf:resource="http://purl.org/dc/dcmitype/StillImage" />
        <dc:title></dc:title>
      </cc:Work>
    </rdf:RDF>
  </metadata>
  <defs
     id="defs29" />
  <sodipodi:namedview
     pagecolor="#ffffff"
     bordercolor="#666666"
     borderopacity="1"
     objecttolerance="10"
     gridtolerance="10"
     guidetolerance="10"
     inkscape:pageopacity="0"
     inkscape:pageshadow="2"
     inkscape:window-width="2120"
     inkscape:window-height="1244"
     id="namedview27"
     showgrid="false"
     inkscape:zoom="1.84375"
     inkscape:cx="-54.508475"
     inkscape:cy="64"
     inkscape:window-x="102"
     inkscape:window-y="55"
     inkscape:window-maximized="0"
     inkscape:current-layer="svg25" />
  <g
     id="surface1"
     transform="scale(0.75)">
    <path
       style="fill:#cf4523;fill-opacity:1;fill-rule:nonzero;stroke:none"
       d="M 21.34375,0 C 18.59375,0 16,2.710938 16,5.578125 V 122.42188 C 16,125.13281 18.75,128 21.34375,128 h 85.3125 C 109.25,128 112,125.13281 112,122.42188 V 36 L 76,0 Z m 0,0"
       id="path2"
       inkscape:connector-curvature="0" />
    <path
       style="fill:#000000;fill-opacity:0.19607801;fill-rule:nonzero;stroke:none"
       d="m 84,36 28,28 V 36 Z m 0,0"
       id="path4"
       inkscape:connector-curvature="0" />
    <path
       style="fill:#ffffff;fill-opacity:0.39215698;fill-rule:nonzero;stroke:none"
       d="m 76,0 35.96875,36 H 81.515625 C 78.820312,36 76,33.148438 76,30.453125 Z m 0,0"
       id="path6"
       inkscape:connector-curvature="0" />
    <path
       style="fill:#000000;fill-opacity:0.19607801;fill-rule:nonzero;stroke:none"
       d="m 16,96 v 26.67188 C 16,125.26563 18.75,128 21.328125,128 H 106.67188 C 109.25,128 112,125.26563 112,122.67188 V 96 Z m 0,0"
       id="path8"
       inkscape:connector-curvature="0" />
    <path
       style="fill:#ffffff;fill-opacity:1;fill-rule:nonzero;stroke:none"
       d="M 32,48 H 52 V 60 H 32 Z m 0,0"
       id="path10"
       inkscape:connector-curvature="0" />
    <path
       style="fill:#ffffff;fill-opacity:1;fill-rule:nonzero;stroke:none"
       d="m 40.90625,120.51563 c 0.125,0.0391 0.273438,0.0391 0.4375,0.0391 0.148438,0 0.296875,0 0.429688,0 1.117187,0 2.046874,-0.1875 2.789062,-0.5625 0.765625,-0.35938 1.375,-0.86719 1.835938,-1.52344 0.476562,-0.64062 0.804687,-1.39062 1,-2.28125 0.210937,-0.89844 0.3125,-1.88281 0.3125,-2.95312 0,-0.91407 -0.08594,-1.82032 -0.234376,-2.70313 -0.164062,-0.86719 -0.4375,-1.64062 -0.835937,-2.3125 C 46.234375,107.54688 45.695312,107.02344 45,106.625 c -0.6875,-0.42187 -1.570312,-0.61719 -2.671875,-0.61719 -0.210937,0 -0.4375,0 -0.703125,0.0312 -0.28125,0 -0.507812,0.0156 -0.71875,0.0625 v 14.41407 m 11.789062,-7.28125 c 0,1.98437 -0.296874,3.69531 -0.890624,5.10156 -0.554688,1.39844 -1.34375,2.52344 -2.34375,3.39844 -1.015626,0.88281 -2.210938,1.52343 -3.625,1.92968 -1.375,0.39844 -2.898438,0.59375 -4.570313,0.59375 -0.890625,0 -1.742187,-0.0312 -2.59375,-0.13281 C 37.851562,124.0625 36.96875,123.92969 36,123.75 v -20.94531 c 1.117188,-0.21094 2.164062,-0.34375 3.148438,-0.40625 0.984374,-0.0703 1.898437,-0.11719 2.757812,-0.11719 1.601562,0 3.078125,0.21094 4.40625,0.625 1.367188,0.42969 2.492188,1.08594 3.429688,1.98438 0.9375,0.86718 1.640624,2.01562 2.148437,3.39062 0.523437,1.36719 0.804687,3.02344 0.804687,4.95313"
       id="path12"
       inkscape:connector-curvature="0" />
    <path
       style="fill:#ffffff;fill-opacity:1;fill-rule:nonzero;stroke:none"
       d="m 62.679688,102.28125 c 3.132812,0 5.5625,0.57813 7.28125,1.71094 1.71875,1.10937 2.59375,2.92969 2.59375,5.47656 0,2.55469 -0.875,4.42188 -2.625,5.57031 C 68.203125,116.17188 65.75,116.75 62.5625,116.75 h -1.75 v 7.22656 h -4.90625 v -21.17187 c 0.476562,-0.0781 1.015625,-0.16406 1.59375,-0.24219 0.625,-0.0625 1.226562,-0.11719 1.835938,-0.13281 0.609374,-0.0469 1.210937,-0.0781 1.789062,-0.0937 0.585938,-0.0391 1.09375,-0.0547 1.554688,-0.0547 m 0.554687,3.72656 c -0.289063,0 -0.703125,0 -1.226563,0.0312 -0.507812,0 -0.898437,0.0156 -1.195312,0.0625 v 6.9375 h 1.984375 c 1.570313,0 2.75,-0.28125 3.539063,-0.80468 0.804687,-0.55469 1.195312,-1.49219 1.195312,-2.80469 0,-1.24219 -0.390625,-2.125 -1.195312,-2.64063 -0.765626,-0.52343 -1.804688,-0.78125 -3.101563,-0.78125"
       id="path14"
       inkscape:connector-curvature="0" />
    <path
       style="fill:#ffffff;fill-opacity:1;fill-rule:nonzero;stroke:none"
       d="m 82.898438,120.85938 c 0.820312,0 1.507812,-0.0625 2.03125,-0.19532 0.5625,-0.16406 1.007812,-0.375 1.3125,-0.625 0.3125,-0.27343 0.53125,-0.58593 0.640624,-0.89843 0.132813,-0.35938 0.195313,-0.70313 0.195313,-1.04688 0,-0.44531 -0.140625,-0.83594 -0.4375,-1.17969 -0.28125,-0.35156 -0.65625,-0.64062 -1.117187,-0.90625 -0.445313,-0.28125 -0.953126,-0.50781 -1.507813,-0.71875 -0.554687,-0.23437 -1.117187,-0.44531 -1.671875,-0.625 -0.742188,-0.22656 -1.507812,-0.49218 -2.3125,-0.80468 -0.789062,-0.29688 -1.523438,-0.67188 -2.179688,-1.13282 -0.640624,-0.47656 -1.164062,-1.03125 -1.59375,-1.70312 -0.421874,-0.6875 -0.640624,-1.53906 -0.640624,-2.55469 0,-2.02344 0.742187,-3.59375 2.234374,-4.72656 1.507813,-1.13281 3.570313,-1.6875 6.210938,-1.6875 1.507812,0 2.820312,0.14844 3.9375,0.44531 1.132812,0.28906 2.101562,0.63281 2.867188,1 l -1.4375,3.28906 c -0.65625,-0.32812 -1.398438,-0.58593 -2.234376,-0.83593 -0.789062,-0.22657 -1.71875,-0.34375 -2.789062,-0.34375 -2.585938,0 -3.898438,0.82031 -3.898438,2.46093 0,0.42969 0.148438,0.78907 0.40625,1.11719 0.265626,0.29688 0.59375,0.57031 0.984376,0.83594 0.429687,0.22656 0.90625,0.44531 1.398437,0.625 0.539063,0.17969 1.046875,0.35937 1.554687,0.50781 0.773438,0.25781 1.570313,0.55469 2.390626,0.86719 0.859374,0.3125 1.609374,0.71875 2.3125,1.25 0.710937,0.50781 1.296874,1.16406 1.742187,1.94531 0.460937,0.75781 0.6875,1.72656 0.6875,2.90625 0,2.01563 -0.75,3.57031 -2.28125,4.6875 -1.476563,1.08594 -3.75,1.625 -6.804687,1.625 -2.03125,0 -3.671876,-0.17969 -4.882813,-0.55469 -1.234375,-0.39843 -2.148437,-0.75781 -2.757813,-1.07031 l 1.429688,-3.47656 c 0.71875,0.375 1.570312,0.72656 2.554688,1.05469 1,0.30468 2.234374,0.46875 3.65625,0.46875"
       id="path16"
       inkscape:connector-curvature="0" />
    <path
       style="fill:#ffffff;fill-opacity:1;fill-rule:nonzero;stroke:none"
       d="M 32,68 H 52 V 80 H 32 Z m 0,0"
       id="path18"
       inkscape:connector-curvature="0" />
    <path
       style="fill:#ffffff;fill-opacity:1;fill-rule:nonzero;stroke:none"
       d="M 80,43.96875 V 60 H 96 C 96,51.140625 88.835938,43.96875 80,43.96875 Z m 0,0"
       id="path20"
       inkscape:connector-curvature="0" />
    <path
       style="fill:#ffffff;fill-opacity:1;fill-rule:nonzero;stroke:none"
       d="M 76.007812,48 C 67.171875,48 60,55.15625 60,64 60,72.84375 67.171875,80 76.007812,80 84.84375,80 92,72.84375 92,64 H 76.007812 Z m 0,0"
       id="path22"
       inkscape:connector-curvature="0" />
  </g>
</svg>
