<?xml version="1.0" encoding="UTF-8" standalone="no"?>
<svg
   xmlns:dc="http://purl.org/dc/elements/1.1/"
   xmlns:cc="http://creativecommons.org/ns#"
   xmlns:rdf="http://www.w3.org/1999/02/22-rdf-syntax-ns#"
   xmlns:svg="http://www.w3.org/2000/svg"
   xmlns="http://www.w3.org/2000/svg"
   xmlns:sodipodi="http://sodipodi.sourceforge.net/DTD/sodipodi-0.dtd"
   xmlns:inkscape="http://www.inkscape.org/namespaces/inkscape"
   width="96"
   height="96"
   viewBox="0 0 96 96"
   version="1.1"
   id="svg19"
   sodipodi:docname="wps-office-xls.svg"
   inkscape:version="0.92.2 (5c3e80d, 2017-08-06)">
  <metadata
     id="metadata25">
    <rdf:RDF>
      <cc:Work
         rdf:about="">
        <dc:format>image/svg+xml</dc:format>
        <dc:type
           rdf:resource="http://purl.org/dc/dcmitype/StillImage" />
        <dc:title></dc:title>
      </cc:Work>
    </rdf:RDF>
  </metadata>
  <defs
     id="defs23" />
  <sodipodi:namedview
     pagecolor="#ffffff"
     bordercolor="#666666"
     borderopacity="1"
     objecttolerance="10"
     gridtolerance="10"
     guidetolerance="10"
     inkscape:pageopacity="0"
     inkscape:pageshadow="2"
     inkscape:window-width="2064"
     inkscape:window-height="1083"
     id="namedview21"
     showgrid="false"
     inkscape:zoom="1.84375"
     inkscape:cx="-54.508475"
     inkscape:cy="64"
     inkscape:window-x="102"
     inkscape:window-y="55"
     inkscape:window-maximized="0"
     inkscape:current-layer="svg19" />
  <g
     id="surface1"
     transform="scale(0.75)">
    <path
       style="fill:#1e7045;fill-opacity:1;fill-rule:nonzero;stroke:none"
       d="M 21.34375,0 C 18.59375,0 16,2.710938 16,5.578125 V 122.42188 C 16,125.13281 18.75,128 21.34375,128 h 85.3125 C 109.25,128 112,125.13281 112,122.42188 V 36 L 76,0 Z m 0,0"
       id="path2"
       inkscape:connector-curvature="0" />
    <path
       style="fill:#000000;fill-opacity:0.19607801;fill-rule:nonzero;stroke:none"
       d="m 84,36 28,28 V 36 Z m 0,0"
       id="path4"
       inkscape:connector-curvature="0" />
    <path
       style="fill:#ffffff;fill-opacity:1;fill-rule:nonzero;stroke:none"
       d="M 88,44 V 84 H 40 V 44 Z m -4,4 H 60 v 8 H 84 Z M 56,48 H 44 v 8 H 56 Z M 84,60 H 60 v 8 H 84 Z M 56,60 H 44 v 8 H 56 Z M 84,72 H 60 v 8 H 84 Z M 56,72 H 44 v 8 h 12 z m 0,0"
       id="path6"
       inkscape:connector-curvature="0" />
    <path
       style="fill:#000000;fill-opacity:0.19607801;fill-rule:nonzero;stroke:none"
       d="m 16,96 v 26.67188 C 16,125.26563 18.75,128 21.328125,128 H 106.67188 C 109.25,128 112,125.26563 112,122.67188 V 96 Z m 0,0"
       id="path8"
       inkscape:connector-curvature="0" />
    <path
       style="fill:#ffffff;fill-opacity:0.39215698;fill-rule:nonzero;stroke:none"
       d="m 76,0 35.96875,36 H 81.515625 C 78.820312,36 76,33.148438 76,30.453125 Z m 0,0"
       id="path10"
       inkscape:connector-curvature="0" />
    <path
       style="fill:#ffffff;fill-opacity:1;fill-rule:nonzero;stroke:none"
       d="m 49.601562,123.96875 c -0.507812,-1.20312 -1.125,-2.53906 -1.859374,-4 -0.703126,-1.46875 -1.453126,-2.92187 -2.242188,-4.375 -0.765625,1.38281 -1.523438,2.82031 -2.289062,4.34375 -0.757813,1.47656 -1.40625,2.82813 -1.960938,4.03125 H 36 c 0.265625,-0.64844 0.648438,-1.40625 1.15625,-2.30469 0.515625,-0.89062 1.085938,-1.85937 1.6875,-2.89843 0.632812,-1.03125 1.289062,-2.10157 1.976562,-3.17188 0.679688,-1.125 1.335938,-2.17969 1.953126,-3.19531 l -6.375,-10.32031 h 5.242187 l 3.859375,7.00781 4.0625,-7.00781 h 4.890625 l -6.226563,10.21875 c 0.703126,1.01562 1.40625,2.07031 2.078126,3.17968 0.679687,1.11719 1.320312,2.1875 1.882812,3.25782 0.625,1.03906 1.140625,2.00781 1.59375,2.92968 0.4375,0.89844 0.804688,1.65625 1.054688,2.30469 h -5.234376"
       id="path12"
       inkscape:connector-curvature="0" />
    <path
       style="fill:#ffffff;fill-opacity:1;fill-rule:nonzero;stroke:none"
       d="M 73.398438,123.96875 H 58.0625 v -21.89062 h 4.898438 v 18.28125 h 10.4375 v 3.60937"
       id="path14"
       inkscape:connector-curvature="0" />
    <path
       style="fill:#ffffff;fill-opacity:1;fill-rule:nonzero;stroke:none"
       d="m 84.125,120.77344 c 0.796875,0 1.46875,-0.0625 2.007812,-0.19531 0.546876,-0.17188 0.984376,-0.39063 1.28125,-0.64063 0.320313,-0.28125 0.539063,-0.60156 0.640626,-0.92187 0.132812,-0.36719 0.195312,-0.71875 0.195312,-1.07032 0,-0.44531 -0.148438,-0.83593 -0.429688,-1.20312 -0.289062,-0.35156 -0.65625,-0.64844 -1.109374,-0.91406 -0.445313,-0.27344 -0.953126,-0.52344 -1.484376,-0.74219 -0.554687,-0.23438 -1.101562,-0.44531 -1.65625,-0.63281 -0.734374,-0.23438 -1.507812,-0.5 -2.289062,-0.82032 -0.789062,-0.29687 -1.507812,-0.6875 -2.179688,-1.15625 -0.617187,-0.48437 -1.148437,-1.05468 -1.570312,-1.73437 -0.414062,-0.70313 -0.632812,-1.57813 -0.632812,-2.60938 0,-2.0625 0.734374,-3.66406 2.203124,-4.82031 1.507813,-1.15625 3.546876,-1.71875 6.15625,-1.71875 1.492188,0 2.796876,0.14844 3.898438,0.44531 1.140625,0.30469 2.078125,0.65625 2.84375,1.02344 l -1.421875,3.35938 c -0.648437,-0.33594 -1.390625,-0.60157 -2.210937,-0.85157 -0.78125,-0.23437 -1.703126,-0.35156 -2.757813,-0.35156 -2.578125,0 -3.859375,0.83594 -3.859375,2.50781 0,0.4375 0.132812,0.80469 0.398438,1.14063 0.25,0.29687 0.585937,0.58594 0.984374,0.85156 0.421876,0.23438 0.875,0.45313 1.375,0.63281 0.53125,0.1875 1.039063,0.375 1.539063,0.53907 0.765625,0.25 1.554687,0.55468 2.359375,0.86718 0.851562,0.32032 1.601562,0.73438 2.289062,1.27344 0.703126,0.51563 1.289063,1.1875 1.742188,1.99219 0.429688,0.76562 0.664062,1.75781 0.664062,2.96094 0,2.05468 -0.75,3.64062 -2.257812,4.78125 -1.46875,1.10156 -3.710938,1.65625 -6.71875,1.65625 -2.023438,0 -3.648438,-0.1875 -4.851562,-0.57032 -1.203126,-0.39843 -2.125,-0.76562 -2.726563,-1.08593 l 1.421875,-3.54688 c 0.703125,0.38281 1.554688,0.73438 2.523438,1.07031 1,0.32032 2.210937,0.48438 3.632812,0.48438"
       id="path16"
       inkscape:connector-curvature="0" />
  </g>
</svg>
