<?xml version="1.0" encoding="UTF-8" standalone="no"?>
<svg
   xmlns:dc="http://purl.org/dc/elements/1.1/"
   xmlns:cc="http://creativecommons.org/ns#"
   xmlns:rdf="http://www.w3.org/1999/02/22-rdf-syntax-ns#"
   xmlns:svg="http://www.w3.org/2000/svg"
   xmlns="http://www.w3.org/2000/svg"
   xmlns:sodipodi="http://sodipodi.sourceforge.net/DTD/sodipodi-0.dtd"
   xmlns:inkscape="http://www.inkscape.org/namespaces/inkscape"
   width="96"
   height="96"
   viewBox="0 0 96 96"
   version="1.1"
   id="svg25"
   sodipodi:docname="wps-office-ppt.svg"
   inkscape:version="0.92.2 (5c3e80d, 2017-08-06)">
  <metadata
     id="metadata31">
    <rdf:RDF>
      <cc:Work
         rdf:about="">
        <dc:format>image/svg+xml</dc:format>
        <dc:type
           rdf:resource="http://purl.org/dc/dcmitype/StillImage" />
        <dc:title></dc:title>
      </cc:Work>
    </rdf:RDF>
  </metadata>
  <defs
     id="defs29" />
  <sodipodi:namedview
     pagecolor="#ffffff"
     bordercolor="#666666"
     borderopacity="1"
     objecttolerance="10"
     gridtolerance="10"
     guidetolerance="10"
     inkscape:pageopacity="0"
     inkscape:pageshadow="2"
     inkscape:window-width="2446"
     inkscape:window-height="1585"
     id="namedview27"
     showgrid="false"
     inkscape:zoom="1.84375"
     inkscape:cx="-55.59322"
     inkscape:cy="64"
     inkscape:window-x="102"
     inkscape:window-y="55"
     inkscape:window-maximized="0"
     inkscape:current-layer="svg25" />
  <g
     id="surface1"
     transform="scale(0.75)">
    <path
       style="fill:#cf4523;fill-opacity:1;fill-rule:nonzero;stroke:none"
       d="M 21.34375,0 C 18.59375,0 16,2.710938 16,5.578125 V 122.42188 C 16,125.13281 18.75,128 21.34375,128 h 85.3125 C 109.25,128 112,125.13281 112,122.42188 V 36 L 76,0 Z m 0,0"
       id="path2"
       inkscape:connector-curvature="0" />
    <path
       style="fill:#000000;fill-opacity:0.19607801;fill-rule:nonzero;stroke:none"
       d="m 84,36 28,28 V 36 Z m 0,0"
       id="path4"
       inkscape:connector-curvature="0" />
    <path
       style="fill:#ffffff;fill-opacity:0.39215698;fill-rule:nonzero;stroke:none"
       d="m 76,0 35.96875,36 H 81.515625 C 78.820312,36 76,33.148438 76,30.453125 Z m 0,0"
       id="path6"
       inkscape:connector-curvature="0" />
    <path
       style="fill:#000000;fill-opacity:0.19607801;fill-rule:nonzero;stroke:none"
       d="m 16,96 v 26.67188 C 16,125.26563 18.75,128 21.328125,128 H 106.67188 C 109.25,128 112,125.26563 112,122.67188 V 96 Z m 0,0"
       id="path8"
       inkscape:connector-curvature="0" />
    <path
       style="fill:#ffffff;fill-opacity:1;fill-rule:nonzero;stroke:none"
       d="M 32,48 H 52 V 60 H 32 Z m 0,0"
       id="path10"
       inkscape:connector-curvature="0" />
    <path
       style="fill:#ffffff;fill-opacity:1;fill-rule:nonzero;stroke:none"
       d="m 42.710938,101.60938 c 3.101562,0 5.492187,0.57812 7.195312,1.75781 1.710938,1.13281 2.5625,3.01562 2.5625,5.64062 0,2.65625 -0.851562,4.57813 -2.59375,5.75782 -1.703125,1.17968 -4.132812,1.75781 -7.296875,1.75781 H 40.851562 V 124 H 36 v -21.86719 c 0.476562,-0.0781 1,-0.17968 1.578125,-0.24218 0.601563,-0.0703 1.210937,-0.11719 1.820313,-0.14844 0.601562,-0.0469 1.195312,-0.0859 1.765624,-0.10156 0.578126,-0.0312 1.085938,-0.0312 1.546876,-0.0312 M 43.25,105.42969 c -0.28125,0 -0.6875,0.0156 -1.210938,0.0312 -0.507812,0 -0.90625,0.0391 -1.1875,0.0859 v 7.14843 h 1.96875 c 1.546876,0 2.726563,-0.27343 3.515626,-0.82031 0.789062,-0.57031 1.179687,-1.53906 1.179687,-2.89844 0,-1.29687 -0.390625,-2.20312 -1.179687,-2.72656 C 45.5625,105.71094 44.546875,105.42969 43.25,105.42969"
       id="path12"
       inkscape:connector-curvature="0" />
    <path
       style="fill:#ffffff;fill-opacity:1;fill-rule:nonzero;stroke:none"
       d="m 62.40625,101.60938 c 3.101562,0 5.5,0.57812 7.203125,1.75781 1.703125,1.13281 2.5625,3.01562 2.5625,5.64062 0,2.65625 -0.859375,4.57813 -2.59375,5.75782 -1.703125,1.17968 -4.132813,1.75781 -7.28125,1.75781 H 60.554688 V 124 h -4.851563 v -21.86719 c 0.46875,-0.0781 1,-0.17968 1.570313,-0.24218 0.609374,-0.0703 1.21875,-0.11719 1.820312,-0.14844 0.609375,-0.0469 1.195312,-0.0859 1.773438,-0.10156 0.570312,-0.0312 1.101562,-0.0312 1.539062,-0.0312 m 0.546875,3.82031 c -0.28125,0 -0.695313,0.0156 -1.21875,0.0312 -0.507813,0 -0.898437,0.0391 -1.179687,0.0859 v 7.14843 h 1.96875 c 1.539062,0 2.726562,-0.27343 3.507812,-0.82031 0.789062,-0.57031 1.1875,-1.53906 1.1875,-2.89844 0,-1.29687 -0.398438,-2.20312 -1.1875,-2.72656 -0.765625,-0.53906 -1.789062,-0.82031 -3.078125,-0.82031"
       id="path14"
       inkscape:connector-curvature="0" />
    <path
       style="fill:#ffffff;fill-opacity:1;fill-rule:nonzero;stroke:none"
       d="M 92,101.85938 V 105.5 H 85.570312 V 124 h -4.890624 v -18.5 h -6.414063 v -3.64062 H 92"
       id="path16"
       inkscape:connector-curvature="0" />
    <path
       style="fill:#ffffff;fill-opacity:1;fill-rule:nonzero;stroke:none"
       d="M 32,68 H 52 V 80 H 32 Z m 0,0"
       id="path18"
       inkscape:connector-curvature="0" />
    <path
       style="fill:#ffffff;fill-opacity:1;fill-rule:nonzero;stroke:none"
       d="M 80,43.96875 V 60 H 96 C 96,51.140625 88.835938,43.96875 80,43.96875 Z m 0,0"
       id="path20"
       inkscape:connector-curvature="0" />
    <path
       style="fill:#ffffff;fill-opacity:1;fill-rule:nonzero;stroke:none"
       d="M 76.007812,48 C 67.171875,48 60,55.15625 60,64 60,72.84375 67.171875,80 76.007812,80 84.84375,80 92,72.84375 92,64 H 76.007812 Z m 0,0"
       id="path22"
       inkscape:connector-curvature="0" />
  </g>
</svg>
