<?xml version="1.0" encoding="UTF-8" standalone="no"?>
<svg
   xmlns:dc="http://purl.org/dc/elements/1.1/"
   xmlns:cc="http://creativecommons.org/ns#"
   xmlns:rdf="http://www.w3.org/1999/02/22-rdf-syntax-ns#"
   xmlns:svg="http://www.w3.org/2000/svg"
   xmlns="http://www.w3.org/2000/svg"
   xmlns:sodipodi="http://sodipodi.sourceforge.net/DTD/sodipodi-0.dtd"
   xmlns:inkscape="http://www.inkscape.org/namespaces/inkscape"
   width="96"
   height="96"
   viewBox="0 0 96 96"
   version="1.1"
   id="svg2"
   inkscape:version="0.92.2 (5c3e80d, 2017-08-06)"
   sodipodi:docname="wps-office-doc.svg">
  <metadata
     id="metadata37">
    <rdf:RDF>
      <cc:Work
         rdf:about="">
        <dc:format>image/svg+xml</dc:format>
        <dc:type
           rdf:resource="http://purl.org/dc/dcmitype/StillImage" />
        <dc:title></dc:title>
      </cc:Work>
    </rdf:RDF>
  </metadata>
  <defs
     id="defs35" />
  <sodipodi:namedview
     pagecolor="#ffffff"
     bordercolor="#666666"
     borderopacity="1"
     objecttolerance="10"
     gridtolerance="10"
     guidetolerance="10"
     inkscape:pageopacity="0"
     inkscape:pageshadow="2"
     inkscape:window-width="1959"
     inkscape:window-height="1282"
     id="namedview33"
     showgrid="false"
     inkscape:zoom="1.84375"
     inkscape:cx="-34.747038"
     inkscape:cy="64"
     inkscape:window-x="748"
     inkscape:window-y="366"
     inkscape:window-maximized="0"
     inkscape:current-layer="surface1" />
  <g
     id="surface1"
     transform="translate(0,-32)">
    <path
       style="fill:#5062b0;fill-opacity:1;fill-rule:nonzero;stroke:none;stroke-width:0.75"
       d="M 16.007812,32 C 13.945313,32 12,34.033203 12,36.183594 V 123.81641 C 12,125.84961 14.0625,128 16.007812,128 H 79.992187 C 81.9375,128 84,125.84961 84,123.81641 V 59 L 57,32 Z m 0,0"
       id="path5"
       inkscape:connector-curvature="0" />
    <path
       style="fill:#000000;fill-opacity:0.19607801;fill-rule:nonzero;stroke:none;stroke-width:0.75"
       d="M 63,59 84,80 V 59 Z m 0,0"
       id="path7"
       inkscape:connector-curvature="0" />
    <path
       style="fill:#ffffff;fill-opacity:0.39215698;fill-rule:nonzero;stroke:none;stroke-width:0.75"
       d="M 57,32 83.976562,59 H 61.136719 C 59.115234,59 57,56.861328 57,54.839844 Z m 0,0"
       id="path9"
       inkscape:connector-curvature="0" />
    <path
       style="fill:#000000;fill-opacity:0.19607801;fill-rule:nonzero;stroke:none;stroke-width:0.75"
       d="m 12,104 v 20.00391 C 12,125.94922 14.0625,128 15.996094,128 H 80.00391 C 81.9375,128 84,125.94922 84,124.00391 V 104 Z m 0,0"
       id="path15"
       inkscape:connector-curvature="0" />
    <path
       style="fill:#ffffff;fill-opacity:1;fill-rule:nonzero;stroke:none;stroke-width:0.75"
       d="m 30.580078,122.22852 c 0.09961,0.0234 0.210938,0.0234 0.333984,0.0234 0.111329,0 0.222657,0 0.322266,0 0.837891,0 1.529297,-0.13477 2.085938,-0.42188 0.580078,-0.26953 1.037109,-0.65039 1.365234,-1.14258 0.363281,-0.48633 0.609375,-1.06054 0.744141,-1.71679 0.158203,-0.67969 0.246093,-1.41797 0.246093,-2.22071 0,-0.6914 -0.06446,-1.37109 -0.1875,-2.03906 -0.123047,-0.65039 -0.316406,-1.23046 -0.626953,-1.73438 -0.298828,-0.50976 -0.703125,-0.90233 -1.207031,-1.20117 -0.521484,-0.3164 -1.189454,-0.46875 -1.998047,-0.46875 -0.164062,0 -0.333984,0 -0.544922,0.0293 -0.199219,0 -0.36914,0.0117 -0.533203,0.0469 v 10.84571 m 8.8125,-5.47851 c 0,1.49414 -0.222657,2.77735 -0.65625,3.83789 -0.416016,1.04883 -0.996094,1.89844 -1.751953,2.55469 -0.75,0.66211 -1.664063,1.14258 -2.712891,1.45312 -1.02539,0.29883 -2.173828,0.44532 -3.416015,0.44532 -0.65625,0 -1.3125,-0.0234 -1.939453,-0.0996 -0.615235,-0.0469 -1.283204,-0.14649 -1.998047,-0.28125 V 108.9043 c 0.83789,-0.16406 1.617187,-0.25781 2.355468,-0.31054 0.726563,-0.0469 1.417969,-0.0879 2.050782,-0.0879 1.207031,0 2.320312,0.16406 3.304687,0.46875 1.013672,0.32226 1.863281,0.81445 2.566406,1.49414 0.691407,0.65625 1.21875,1.51758 1.605469,2.55469 0.392578,1.02539 0.591797,2.26758 0.591797,3.72656"
       id="path19"
       inkscape:connector-curvature="0" />
    <path
       style="fill:#ffffff;fill-opacity:1;fill-rule:nonzero;stroke:none;stroke-width:0.75"
       d="m 44.71875,116.75 c 0,0.79102 0.02344,1.5293 0.08789,2.2207 0.08789,0.67969 0.222655,1.27149 0.421875,1.7754 0.222655,0.5039 0.515625,0.90234 0.884765,1.19531 0.38086,0.29882 0.890625,0.44531 1.517578,0.44531 0.615235,0 1.113282,-0.14649 1.494141,-0.44531 0.392578,-0.29297 0.691406,-0.69141 0.890625,-1.19531 0.216796,-0.52735 0.357421,-1.11915 0.416016,-1.79883 0.07617,-0.67969 0.123046,-1.40625 0.123046,-2.19727 0,-0.7793 -0.04687,-1.50586 -0.123046,-2.18555 -0.0586,-0.70312 -0.19922,-1.29492 -0.416016,-1.79882 -0.199219,-0.50977 -0.486329,-0.90234 -0.867188,-1.19532 -0.36914,-0.29883 -0.873045,-0.44531 -1.517577,-0.44531 -0.626953,0 -1.136718,0.14648 -1.517578,0.44531 -0.36914,0.29298 -0.66211,0.70313 -0.884765,1.21875 -0.19922,0.50391 -0.333985,1.09571 -0.421875,1.77539 -0.05859,0.67969 -0.08789,1.40625 -0.08789,2.18555 m -3.726563,0 c 0,-2.77734 0.591797,-4.875 1.769532,-6.28125 1.171875,-1.42969 2.783202,-2.13281 4.86914,-2.13281 2.173828,0 3.814453,0.70312 4.951172,2.13281 1.11914,1.40625 1.6875,3.50391 1.6875,6.28125 0,2.78906 -0.56836,4.88672 -1.728515,6.31641 -1.148438,1.40625 -2.777345,2.10938 -4.869141,2.10938 -2.173829,0 -3.826172,-0.70313 -4.974609,-2.10938 -1.13672,-1.42969 -1.705079,-3.52735 -1.705079,-6.31641"
       id="path21"
       inkscape:connector-curvature="0" />
    <path
       style="fill:#ffffff;fill-opacity:1;fill-rule:nonzero;stroke:none;stroke-width:0.75"
       d="m 63.878906,125.17579 c -2.589844,0 -4.576172,-0.72657 -5.947265,-2.19727 C 56.566406,121.52539 55.875,119.45117 55.875,116.75 c 0,-1.33008 0.210937,-2.53125 0.626953,-3.56836 0.421875,-1.04883 1.001953,-1.92187 1.728516,-2.63672 0.75,-0.72656 1.640625,-1.27148 2.654297,-1.64063 1.01953,-0.38085 2.14453,-0.56835 3.351562,-0.56835 0.65625,0 1.248047,0.0469 1.763672,0.14648 0.533203,0.0879 1.001953,0.19922 1.394531,0.32227 0.398438,0.12304 0.732422,0.24609 0.990235,0.38085 0.26953,0.14649 0.480468,0.2461 0.615234,0.32227 l -0.949219,2.55469 c -0.457031,-0.25781 -1.013672,-0.48046 -1.664062,-0.65625 -0.632813,-0.18164 -1.371094,-0.28125 -2.208985,-0.28125 -0.568359,0 -1.136718,0.0996 -1.693359,0.28125 -0.527344,0.17579 -1.019531,0.48047 -1.453125,0.91406 -0.421875,0.42188 -0.767579,0.98438 -1.048829,1.6875 -0.257812,0.72071 -0.380859,1.60548 -0.380859,2.66602 0,1.83984 0.357422,3.25781 1.072266,4.24805 0.726563,0.97266 1.921875,1.46484 3.5625,1.46484 0.949218,0 1.740234,-0.0996 2.355468,-0.28125 0.632813,-0.19922 1.13672,-0.38672 1.517579,-0.58008 l 0.925781,2.5254 c -0.515625,0.2871 -1.21875,0.54492 -2.121094,0.77929 -0.861328,0.23438 -1.875,0.34571 -3.035156,0.34571"
       id="path23"
       inkscape:connector-curvature="0" />
    <text
       xml:space="preserve"
       style="font-style:normal;font-variant:normal;font-weight:normal;font-stretch:normal;font-size:8.99999905px;line-height:0%;font-family:Ubuntu;-inkscape-font-specification:Ubuntu;text-align:start;letter-spacing:0px;word-spacing:0px;writing-mode:lr-tb;text-anchor:start;fill:#ffffff;fill-opacity:1;stroke:none;stroke-width:0.75"
       x="17.656019"
       y="99.075584"
       id="text3043"><tspan
         sodipodi:role="line"
         id="tspan3045"
         x="17.656019"
         y="99.075584"
         style="font-size:47.37629318px;line-height:1.25;stroke-width:0.75">W</tspan></text>
  </g>
</svg>
