<?xml version="1.0" encoding="UTF-8" standalone="no"?>
<!-- Created with Inkscape (http://www.inkscape.org/) -->

<svg
   xmlns:dc="http://purl.org/dc/elements/1.1/"
   xmlns:cc="http://creativecommons.org/ns#"
   xmlns:rdf="http://www.w3.org/1999/02/22-rdf-syntax-ns#"
   xmlns:svg="http://www.w3.org/2000/svg"
   xmlns="http://www.w3.org/2000/svg"
   xmlns:xlink="http://www.w3.org/1999/xlink"
   xmlns:sodipodi="http://sodipodi.sourceforge.net/DTD/sodipodi-0.dtd"
   xmlns:inkscape="http://www.inkscape.org/namespaces/inkscape"
   version="1.0"
   width="96"
   height="96"
   id="svg2"
   style="display:inline"
   sodipodi:docname="avatar-default.svg"
   inkscape:version="0.92.2 (5c3e80d, 2017-08-06)">
  <sodipodi:namedview
     pagecolor="#ffffff"
     bordercolor="#666666"
     borderopacity="1"
     objecttolerance="10"
     gridtolerance="10"
     guidetolerance="10"
     inkscape:pageopacity="0"
     inkscape:pageshadow="2"
     inkscape:window-width="1421"
     inkscape:window-height="862"
     id="namedview35"
     showgrid="false"
     inkscape:zoom="2.7915986"
     inkscape:cx="14.582445"
     inkscape:cy="45.199423"
     inkscape:window-x="775"
     inkscape:window-y="307"
     inkscape:window-maximized="0"
     inkscape:current-layer="layer1" />
  <defs
     id="defs4">
    <linearGradient
       x1="10.710332"
       y1="1.9963325"
       x2="10.710332"
       y2="18.974037"
       id="DarkGradient"
       gradientUnits="userSpaceOnUse"
       gradientTransform="matrix(0.9984539,0,0,0.9984539,-0.0459776,0.05767558)">
      <stop
         id="stop3277"
         style="stop-color:#000000;stop-opacity:0.86274511"
         offset="0" />
      <stop
         id="stop3279"
         style="stop-color:#000000;stop-opacity:0.47058824"
         offset="1" />
    </linearGradient>
    <linearGradient
       x1="10.710332"
       y1="1.9963325"
       x2="10.710332"
       y2="18.974037"
       id="LightGradient"
       gradientUnits="userSpaceOnUse"
       gradientTransform="matrix(0.9984539,0,0,0.9984539,-0.0459776,0.05767558)">
      <stop
         id="stop3277-0"
         style="stop-color:#ebebeb;stop-opacity:1"
         offset="0" />
      <stop
         id="stop3279-4"
         style="stop-color:#aaaaaa;stop-opacity:1"
         offset="1" />
    </linearGradient>
    <linearGradient
       x1="25"
       y1="2"
       x2="29"
       y2="2"
       id="linearGradient3843"
       xlink:href="#DarkGradient"
       gradientUnits="userSpaceOnUse"
       gradientTransform="translate(-25,-29)" />
    <linearGradient
       x1="25"
       y1="2"
       x2="29"
       y2="2"
       id="linearGradient3847"
       xlink:href="#LightGradient"
       gradientUnits="userSpaceOnUse"
       gradientTransform="translate(-20,-29)" />
    <clipPath
       id="clipPath3910">
      <path
         d="M 0,19 V 41 H 22 V 19 Z m 10.96875,2 c 2.688706,0 4.906254,2.01253 4.90625,4.5 -0.01073,0.312615 -0.06808,0.634228 -0.09375,1 0.367348,0.273322 0.391688,1.095693 0.03125,1.9375 -0.130093,0.303837 -0.261269,0.567734 -0.4375,0.78125 -0.05701,0.264083 -0.08285,0.504956 -0.15625,0.8125 -0.199702,0.593858 -0.996956,1.743723 -1.59375,2.65625 -0.03849,0.606892 -0.01307,1.19633 0.0625,1.8125 1.866195,1.60856 6.71115,2.498287 6.71875,3.875 L 20.5,39 H 1.5 L 1.59375,38.375 C 1.58655,36.766441 6.391892,36.053785 8.28125,34.5 8.41295,33.738867 8.37796,33.106639 8.3125,32.4375 7.656093,31.570098 6.930389,30.567676 6.75,30.03125 6.69177,29.767067 6.67315,29.546709 6.625,29.3125 6.6182,29.3052 6.60045,29.32 6.59375,29.3125 6.392039,29.087562 6.177606,28.779315 6.03125,28.4375 5.651701,27.551057 5.699491,26.693597 6.125,26.46875 6.0951,26.114173 6.1315,25.785068 6.125,25.5 6.125,23.012529 8.280046,21 10.96875,21 Z"
         inkscape:connector-curvature="0"
         id="path3912"
         style="color:#000000;display:inline;overflow:visible;visibility:visible;opacity:0.07999998;fill:#ff00ff;fill-opacity:1;fill-rule:nonzero;stroke:none;stroke-width:2;marker:none;enable-background:accumulate" />
    </clipPath>
    <clipPath
       id="clipPath3924">
      <path
         d="M -30,0 V 22 H -8 V 0 Z m 10.96875,2 c 2.688706,0 4.906254,2.01253 4.90625,4.5 -0.01073,0.312615 -0.06808,0.634228 -0.09375,1 0.367348,0.273322 0.391688,1.095693 0.03125,1.9375 -0.130093,0.303837 -0.261269,0.567734 -0.4375,0.78125 -0.05701,0.264083 -0.08285,0.504956 -0.15625,0.8125 -0.199702,0.593858 -0.996956,1.743723 -1.59375,2.65625 -0.03849,0.606892 -0.01307,1.19633 0.0625,1.8125 1.866195,1.60856 6.71115,2.498287 6.71875,3.875 L -9.5,20 h -19 l 0.09375,-0.625 c -0.0072,-1.608559 4.798142,-2.321215 6.6875,-3.875 0.1317,-0.761133 0.09671,-1.393361 0.03125,-2.0625 -0.656407,-0.867402 -1.382111,-1.869824 -1.5625,-2.40625 -0.05823,-0.264183 -0.07685,-0.484541 -0.125,-0.71875 -0.0068,-0.0073 -0.02455,0.0075 -0.03125,0 -0.201711,-0.224938 -0.416144,-0.533185 -0.5625,-0.875 -0.379549,-0.886443 -0.331759,-1.743903 0.09375,-1.96875 -0.0299,-0.354577 0.0065,-0.683682 0,-0.96875 0,-2.487471 2.155046,-4.5 4.84375,-4.5 z"
         inkscape:connector-curvature="0"
         id="path3927"
         style="color:#000000;display:inline;overflow:visible;visibility:visible;opacity:0.07999998;fill:#ff00ff;fill-opacity:1;fill-rule:nonzero;stroke:none;stroke-width:2;marker:none;enable-background:accumulate" />
    </clipPath>
    <linearGradient
       inkscape:collect="always"
       xlink:href="#LightGradient"
       id="linearGradient4535"
       gradientUnits="userSpaceOnUse"
       gradientTransform="matrix(4.1674598,0,0,4.1674598,1.9867966,-71.764057)"
       x1="10.710332"
       y1="1.9963325"
       x2="10.710332"
       y2="18.974037" />
  </defs>
  <metadata
     id="metadata7">
    <rdf:RDF>
      <cc:Work
         rdf:about="">
        <dc:format>image/svg+xml</dc:format>
        <dc:type
           rdf:resource="http://purl.org/dc/dcmitype/StillImage" />
        <dc:title></dc:title>
      </cc:Work>
    </rdf:RDF>
  </metadata>
  <g
     id="layer1"
     style="display:inline"
     transform="translate(0,74)">
    <g
       transform="matrix(4.1739131,0,0,4.1739132,127.39609,-72.004791)"
       clip-path="url(#clipPath3924)"
       id="g3918"
       style="opacity:0.2">
      <path
         d="M 10.96875,1 C 8.2059067,0.93268261 5.5015885,2.943941 5.15625,5.78125 a 0.48122411,0.48122411 0 0 0 0,0.09375 c 0.064508,0.7840142 -0.2065407,1.5004344 -0.375,2.40625 a 0.48122411,0.48122411 0 0 0 0,0.03125 C 4.713164,8.9085383 4.9044025,9.4222442 5.125,9.84375 c 0.2205975,0.421506 0.4693523,0.791225 0.59375,1.09375 0.1127037,0.717042 0.5162498,1.278808 0.78125,1.75 a 0.48122411,0.48122411 0 0 0 0.0625,0.09375 c 0.313157,0.312288 0.6676618,0.830052 0.78125,1.28125 0.056794,0.225599 0.042192,0.442002 0,0.59375 -0.042192,0.151748 -0.099187,0.256171 -0.28125,0.375 -1.620056,0.969803 -3.6594469,1.355382 -5.4375,2.53125 -0.00808,0.0053 -0.023182,-0.0054 -0.03125,0 v 0.03125 c -0.67645873,0.461789 -0.94828288,1.219372 -1,1.9375 H 0.5625 c -0.007588,0.02847 0.006745,0.06465 0,0.09375 -0.0386709,0.166864 -0.083409,0.337255 -0.0625,0.53125 0.0202587,0.187961 0.11963555,0.433543 0.3125,0.59375 0.0371616,0.0355 0.0861782,0.03561 0.125,0.0625 0.2564282,0.177581 0.5401292,0.223858 0.75,0.21875 C 1.929144,21.025369 2.1373722,20.989171 2.21875,21 a 0.48122411,0.48122411 0 0 0 0.0625,0 h 18.375 A 0.48122411,0.48122411 0 0 0 20.875,20.96875 c 0.122641,-0.0664 0.278179,-0.146398 0.40625,-0.28125 0.128071,-0.134852 0.197978,-0.335647 0.21875,-0.53125 a 0.48122411,0.48122411 0 0 0 0,-0.09375 c -0.02749,-0.343313 -0.05805,-0.750532 -0.1875,-1.15625 -0.125533,-0.393435 -0.36256,-0.793775 -0.78125,-1.0625 -0.0063,-0.0041 0.0064,-0.02725 0,-0.03125 -0.0076,-0.0054 -0.02367,0.0054 -0.03125,0 -1.907409,-1.351423 -4.132221,-1.7707 -5.84375,-2.90625 -0.09358,-0.417361 -0.03883,-0.757468 0.15625,-1.15625 0.220333,-0.4504 0.589976,-0.925771 0.90625,-1.46875 0.305092,-0.508895 0.493872,-1.024486 0.59375,-1.625 0.01196,-0.01789 0.01937,-0.04429 0.03125,-0.0625 C 16.632431,10.151103 16.87939,9.6151487 17,9.03125 17.112781,8.4852542 17.065678,7.8894116 16.78125,7.34375 17.203982,5.0426857 15.920782,2.7095516 13.875,1.6875 12.978144,1.2128751 11.976718,0.99889428 10.96875,1 Z"
         transform="translate(-30)"
         id="path3926"
         style="display:inline;opacity:0.2;fill:#000000;fill-opacity:1;stroke:none;enable-background:new"
         inkscape:connector-curvature="0" />
      <path
         d="M 10.96875,1.21875 C 8.3268796,1.1543802 5.7036173,3.1125728 5.375,5.8125 a 0.24584315,0.24584315 0 0 0 0,0.0625 C 5.4444966,6.7196488 5.1636539,7.4637733 5,8.34375 4.9393773,8.8744558 5.1325396,9.3464305 5.34375,9.75 c 0.1993582,0.380923 0.4204687,0.710651 0.5625,1.03125 0.00844,0.01906 0.023472,0.04358 0.03125,0.0625 0.08262,0.684504 0.463659,1.209613 0.75,1.71875 a 0.24584315,0.24584315 0 0 0 0.03125,0.03125 0.24584315,0.24584315 0 0 0 0,0.03125 c 0.3432737,0.342321 0.7157376,0.866506 0.84375,1.375 0.064006,0.254247 0.056363,0.516033 0,0.71875 -0.056363,0.202717 -0.1497313,0.352972 -0.375,0.5 C 5.5120033,16.221741 3.4811805,16.596555 1.75,17.75 c -0.6351534,0.413652 -0.92624515,1.155321 -0.96875,1.84375 -0.001219,0.01974 8.4031e-4,0.04283 0,0.0625 C 0.7445607,19.810753 0.7325968,19.963532 0.75,20.125 c 0.0183064,0.169848 0.0783145,0.361733 0.25,0.46875 0.011299,0.01079 0.019601,0.02154 0.03125,0.03125 0.200942,0.167454 0.4451182,0.161389 0.65625,0.15625 0.2233713,-0.0054 0.432162,-0.01734 0.5625,0 a 0.24584315,0.24584315 0 0 0 0.03125,0 h 18.375 a 0.24584315,0.24584315 0 0 0 0.0625,0 0.24584315,0.24584315 0 0 0 0.0625,-0.03125 c 0.117105,-0.06341 0.216285,-0.117441 0.3125,-0.21875 0.09622,-0.101309 0.171064,-0.25148 0.1875,-0.40625 a 0.24584315,0.24584315 0 0 0 0,-0.0625 c -0.02743,-0.342512 -0.06928,-0.723222 -0.1875,-1.09375 -0.114152,-0.357766 -0.325153,-0.703367 -0.6875,-0.9375 C 20.39451,18.02285 20.38678,18.00831 20.375,18 18.493684,16.673098 16.211829,16.28199 14.4375,15.0625 14.297574,14.546221 14.40356,14.077672 14.625,13.625 c 0.235484,-0.481371 0.601076,-0.944828 0.90625,-1.46875 0.317204,-0.5291 0.510391,-1.03417 0.59375,-1.65625 0.0075,-0.01127 0.02375,-0.01985 0.03125,-0.03125 0.0027,-0.02158 -0.0024,-0.04062 0,-0.0625 0.269149,-0.4184623 0.515029,-0.9051058 0.625,-1.4375 0.108562,-0.5255715 0.06063,-1.0621607 -0.21875,-1.5625 0.451907,-2.2139884 -0.802688,-4.5115307 -2.78125,-5.5 -0.861068,-0.4556855 -1.841998,-0.6885646 -2.8125,-0.6875 z"
         transform="translate(-30)"
         id="path3924"
         style="display:inline;opacity:0.3;fill:#000000;fill-opacity:1;stroke:none;enable-background:new"
         inkscape:connector-curvature="0" />
      <path
         d="m 10.96875,1.46875 c -2.9590682,0 -5.375,2.2318143 -5.375,5.03125 0.00414,0.1814796 -0.00773,0.475785 0,0.78125 C 5.3835076,7.5251775 5.2670366,7.8473209 5.25,8.1875 5.226965,8.647462 5.313395,9.1474469 5.53125,9.65625 c 0.1522951,0.355686 0.3919532,0.635768 0.59375,0.875 0.00499,0.0059 -0.00498,0.0254 0,0.03125 1.127e-4,5.52e-4 -2.128e-4,0.03078 0,0.03125 4.91e-5,1.07e-4 -0.00357,0.02578 0,0.03125 0.020978,0.146505 0.046111,0.315124 0.09375,0.53125 a 0.25985533,0.25985533 0 0 0 0,0.03125 0.25985533,0.25985533 0 0 0 0.03125,0.03125 0.25985533,0.25985533 0 0 0 0,0.03125 c 0.00391,0.01127 0.027138,0.0199 0.03125,0.03125 0.00411,0.01135 0.026936,0.01983 0.03125,0.03125 0.1296272,0.343224 0.3200716,0.717309 0.59375,1.125 0.2721342,0.405391 0.5770517,0.793836 0.875,1.1875 0.046051,0.51577 0.039012,0.991717 -0.03125,1.53125 -0.8419563,0.619098 -2.3436655,1.201103 -3.71875,1.75 -0.7255903,0.289637 -1.4237725,0.576509 -1.96875,0.9375 -0.535019,0.354395 -0.9845331,0.848131 -1,1.5 -4.225e-4,0.01781 -3.59e-5,0.02327 0,0.03125 l -0.09375,0.5625 a 0.25985533,0.25985533 0 0 0 0,0.03125 c -5.28e-6,1.89e-4 0,0.03106 0,0.03125 1.08e-6,2.35e-4 -9.21e-6,0.03102 0,0.03125 1.733e-5,2.34e-4 -2.543e-5,0.03102 0,0.03125 3.351e-5,2.33e-4 -4.154e-5,0.03102 0,0.03125 4.154e-5,2.31e-4 -4.952e-5,0.03102 0,0.03125 5.744e-5,2.28e-4 -6.529e-5,0.03102 0,0.03125 6.529e-5,2.26e-4 0.0311769,-2.23e-4 0.03125,0 7.31e-5,2.23e-4 -8.075e-5,0.03103 0,0.03125 8.83e-5,2.18e-4 -9.582e-5,0.03103 0,0.03125 9.58e-5,2.15e-4 -1.0319e-4,0.03104 0,0.03125 1.032e-4,2.11e-4 0.03114,-2.07e-4 0.03125,0 1.104e-4,2.07e-4 -1.176e-4,0.03105 0,0.03125 1.245e-4,1.99e-4 0.031119,0.03105 0.03125,0.03125 1.38e-4,1.9e-4 -1.445e-4,0.03107 0,0.03125 1.445e-4,1.85e-4 0.031099,-1.8e-4 0.03125,0 1.508e-4,1.8e-4 -1.57e-4,0.03108 0,0.03125 1.57e-4,1.75e-4 0.031087,-1.69e-4 0.03125,0 1.687e-4,1.64e-4 -1.743e-4,0.03109 0,0.03125 1.743e-4,1.58e-4 0.03107,-1.51e-4 0.03125,0 1.796e-4,1.51e-4 -1.848e-4,0.03111 0,0.03125 1.848e-4,1.45e-4 0.03106,-1.39e-4 0.03125,0 1.944e-4,1.32e-4 0.031051,0.03112 0.03125,0.03125 2.03e-4,1.18e-4 0.031043,-1.11e-4 0.03125,0 2.641e-4,1.44e-4 0.03098,0.03112 0.03125,0.03125 2.758e-4,1.2e-4 0.030969,-1.08e-4 0.03125,0 2.808e-4,1.08e-4 0.030965,0.03115 0.03125,0.03125 2.853e-4,9.5e-5 0.030961,-8.2e-5 0.03125,0 2.926e-4,6.9e-5 0.030955,-5.6e-5 0.03125,0 2.954e-4,5.6e-5 0.030952,-4.3e-5 0.03125,0 a 0.25985533,0.25985533 0 0 0 0.03125,0 c 1.892e-4,5e-6 0.031061,0 0.03125,0 h 19 c 1.97e-4,-3e-6 0.03105,8e-6 0.03125,0 1.96e-4,-1.4e-5 0.03105,2e-5 0.03125,0 1.95e-4,-2.5e-5 0.03106,3.1e-5 0.03125,0 1.93e-4,-3.7e-5 0.03106,4.2e-5 0.03125,0 1.91e-4,-4.8e-5 0.03106,5.3e-5 0.03125,0 1.88e-4,-5.9e-5 0.03106,-0.03119 0.03125,-0.03125 1.82e-4,-7.5e-5 0.03107,8e-5 0.03125,0 1.77e-4,-8.5e-5 0.03108,-0.03116 0.03125,-0.03125 3.11e-4,-1.45e-4 0.03095,1.61e-4 0.03125,0 2.95e-4,-1.76e-4 0.03096,-0.03106 0.03125,-0.03125 2.86e-4,-1.9e-4 0.03097,2.05e-4 0.03125,0 2.76e-4,-2.05e-4 0.03099,-0.03103 0.03125,-0.03125 2.65e-4,-2.18e-4 -2.54e-4,-0.03102 0,-0.03125 2.54e-4,-2.32e-4 0.03101,2.44e-4 0.03125,0 a 0.25985533,0.25985533 0 0 0 0,-0.03125 c 1.4e-4,-1.61e-4 0.03111,1.66e-4 0.03125,0 1.3e-4,-1.7e-4 -1.24e-4,-0.03108 0,-0.03125 1.24e-4,-1.74e-4 0.03113,1.78e-4 0.03125,0 1.19e-4,-1.78e-4 -1.13e-4,-0.03107 0,-0.03125 1.07e-4,-1.85e-4 -1.02e-4,-0.03106 0,-0.03125 1.02e-4,-1.88e-4 0.03115,1.91e-4 0.03125,0 9.6e-5,-1.91e-4 -9e-5,-0.03106 0,-0.03125 8.3e-5,-1.97e-4 -7.7e-5,-0.03105 0,-0.03125 7.7e-5,-1.99e-4 0.03118,2.02e-4 0.03125,0 7.1e-5,-2.02e-4 -6.4e-5,-0.03105 0,-0.03125 5.8e-5,-2.06e-4 -5.1e-5,-0.03104 0,-0.03125 a 0.25985533,0.25985533 0 0 0 0,-0.03125 c 3.6e-5,-2.83e-4 -2.4e-5,-0.03097 0,-0.03125 2.4e-5,-2.84e-4 -1.2e-5,-0.03096 0,-0.03125 1.2e-5,-2.85e-4 0,-0.03096 0,-0.03125 -1.2e-5,-2.85e-4 2.4e-5,-0.03097 0,-0.03125 -2.4e-5,-2.84e-4 3.6e-5,-0.03097 0,-0.03125 L 20.9375,19.375 c -5e-6,-9.5e-4 0.0011,-0.0053 0,-0.03125 -0.01282,-0.315984 -0.155259,-0.593193 -0.34375,-0.8125 C 20.392153,18.296693 20.132414,18.129298 19.875,17.96875 19.341222,17.635834 18.67181,17.302566 17.9375,17 16.565577,16.434711 15.056596,15.861236 14.21875,15.21875 14.17028,14.760574 14.13769,14.315814 14.15625,13.875 c 0.280252,-0.427708 0.594931,-0.929174 0.875,-1.375 0.282549,-0.449774 0.487613,-0.820837 0.625,-1.1875 0.0043,-0.01156 0.0271,-0.01975 0.03125,-0.03125 1.82e-4,-1.97e-4 -1.74e-4,-0.03105 0,-0.03125 a 0.25985533,0.25985533 0 0 0 0.03125,0 c 0.0026,-0.0074 -0.0025,-0.02383 0,-0.03125 A 0.25985533,0.25985533 0 0 0 15.75,11.1875 a 0.25985533,0.25985533 0 0 0 0,-0.03125 c 0.07097,-0.297379 0.08357,-0.509064 0.125,-0.71875 0.0133,-0.01841 0.01829,-0.04393 0.03125,-0.0625 0.0044,-0.02098 -7.08e-4,-0.0183 0,-0.03125 0.146689,-0.213206 0.297812,-0.4342394 0.40625,-0.6875 C 16.519783,9.1721371 16.602628,8.6907576 16.59375,8.25 16.587366,7.9330272 16.475149,7.6513802 16.3125,7.40625 16.34013,7.1255274 16.395494,6.8133725 16.40625,6.5 c 4e-6,-2.8079422 -2.478717,-5.03125 -5.4375,-5.03125 z"
         transform="translate(-30)"
         id="path3910"
         style="display:inline;opacity:0.4;fill:#000000;fill-opacity:1;stroke:none;enable-background:new"
         inkscape:connector-curvature="0" />
      <path
         d="m 10.96875,1.71875 c -2.8285051,0 -5.125,2.1319673 -5.125,4.78125 0.00511,0.2242845 -0.014794,0.5461799 0,0.875 C 5.6339645,7.5776679 5.5163715,7.8606008 5.5,8.1875 c -0.020456,0.4084609 0.076936,0.8978202 0.28125,1.375 0.157503,0.3678489 0.3778878,0.662113 0.59375,0.90625 0.00526,0.006 -0.00525,0.02539 0,0.03125 0.030818,0.180726 0.042194,0.359854 0.09375,0.59375 A 0.28018576,0.28018576 0 0 0 6.5,11.125 c 0.1095674,0.325822 0.3336306,0.722205 0.625,1.15625 C 7.3962676,12.68535 7.722385,13.090356 8.03125,13.5 8.090941,14.118511 8.104417,14.672816 8,15.34375 7.1101132,16.030815 5.5290334,16.595797 4.125,17.15625 3.4014102,17.445088 2.7312192,17.723042 2.21875,18.0625 1.7162191,18.395375 1.3249939,18.81718 1.3125,19.34375 c -2.471e-4,0.01041 -4.73e-5,0.02074 0,0.03125 L 1.21875,19.96875 A 0.28018576,0.28018576 0 0 0 1.21875,20 0.28018576,0.28018576 0 0 0 1.375,20.25 0.28018576,0.28018576 0 0 0 1.5,20.28125 h 19 a 0.28018576,0.28018576 0 0 0 0.28125,-0.21875 0.28018576,0.28018576 0 0 0 0,-0.09375 L 20.6875,19.375 c -5.5e-5,-0.01 4.01e-4,-0.02136 0,-0.03125 -0.0098,-0.242377 -0.122373,-0.471398 -0.28125,-0.65625 -0.165361,-0.192397 -0.399428,-0.339821 -0.65625,-0.5 -0.513644,-0.320359 -1.18011,-0.6383 -1.90625,-0.9375 -1.408982,-0.580559 -2.99339,-1.191795 -3.875,-1.90625 -0.0596,-0.534028 -0.09187,-1.038731 -0.0625,-1.5625 0.288679,-0.440151 0.615756,-0.943828 0.90625,-1.40625 0.302561,-0.481631 0.53791,-0.898091 0.65625,-1.25 A 0.28018576,0.28018576 0 0 0 15.5,11.09375 c 0.07474,-0.31317 0.106741,-0.543529 0.15625,-0.78125 0.0019,-0.0092 -0.002,-0.0221 0,-0.03125 C 15.816568,10.059218 15.948045,9.8298133 16.0625,9.5625 16.25661,9.1091533 16.351706,8.6449806 16.34375,8.25 16.337347,7.9321067 16.239889,7.653969 16.0625,7.4375 16.08967,7.1247637 16.145625,6.8095579 16.15625,6.5 c 4e-6,-2.653975 -2.358993,-4.78125 -5.1875,-4.78125 z"
         transform="translate(-30)"
         id="path3906"
         style="display:inline;opacity:0.5;fill:#000000;fill-opacity:1;stroke:none;enable-background:new"
         inkscape:connector-curvature="0" />
    </g>
    <path
       d="m 47.985328,-63.656964 c -11.222416,0 -20.219236,8.346912 -20.219236,18.7294 0.02713,1.189849 -0.1248,2.563876 0,4.04385 -1.776037,0.938492 -2.009872,4.600595 -0.425668,8.300531 0.610877,1.426707 1.499249,2.6793 2.341173,3.618172 0.02796,0.03151 0.184571,-0.03064 0.212827,0 0.200975,0.977569 0.182609,1.877004 0.425665,2.979685 0.752928,2.238994 3.858073,6.382736 6.597859,10.0032 0.273224,2.792926 0.336876,5.549294 -0.212828,8.7261982 C 28.819104,-0.77056213 8.7936248,2.2054771 8.8238523,8.9194632 L 8.3981882,11.473471 H 87.785305 L 87.359657,8.9194632 C 87.327936,3.1731816 67.05489,-0.54193734 59.265554,-7.2559278 c -0.315423,-2.5718418 -0.37344,-5.1289132 -0.212787,-7.6620272 2.490967,-3.808807 5.764321,-8.588662 6.59786,-11.067371 0.306364,-1.283663 0.40057,-2.303093 0.638537,-3.405349 0.735573,-0.891199 1.372508,-1.924318 1.915505,-3.192508 1.504437,-3.513629 1.32045,-6.946881 -0.212828,-8.087704 0.107144,-1.5267 0.380869,-2.95185 0.425656,-4.256677 1.7e-5,-10.382484 -9.209643,-18.7294 -20.432068,-18.7294 z"
       inkscape:connector-curvature="0"
       id="path3798"
       style="display:inline;fill:url(#linearGradient4535);fill-opacity:1;stroke:none;stroke-width:4.173913;enable-background:new" />
    <path
       d="m 47.961312,-63.656964 c -11.222417,0 -20.217392,8.400118 -20.217392,18.782609 0.02726,1.189847 -0.1248,2.563504 0,4.043478 0.07422,-10.322495 9.041528,-18.652174 20.217392,-18.652174 10.373731,0 19.098269,7.155436 20.347825,16.434783 0.07391,-0.613986 0.110881,-1.25641 0.130436,-1.826087 1.6e-5,-10.382484 -9.255836,-18.782609 -20.478261,-18.782609 z M 27.74392,-40.830877 c -1.395456,0.737389 -1.816399,3.072113 -1.173912,5.869566 0.242885,-0.77714 0.602116,-1.393503 1.173912,-1.695653 -0.1248,-1.479974 0.02726,-2.853631 0,-4.043478 0,-0.04306 -3.09e-4,-0.08743 0,-0.130435 z m 40.695653,0.652174 c -0.08361,1.169016 -0.297434,2.314649 -0.391305,3.652174 0.435677,0.32416 0.572594,0.921628 0.782609,1.565218 0.49912,-2.193224 0.38425,-4.123494 -0.391304,-5.217392 z M 37.00479,-10.048267 c -0.06464,0.9148797 -0.091,1.7574246 -0.260869,2.7391295 C 28.857905,-0.8237718 8.8006483,2.1507926 8.830877,8.8647743 L 8.4395726,11.473471 H 9.3526161 C 12.212229,5.8555917 29.522823,2.8033179 36.743921,-3.1352241 c 0.437942,-2.5310132 0.397356,-4.6847271 0.260869,-6.9130429 z m 22.043478,0 c -0.112153,2.3187083 -0.02754,4.5626485 0.26087,6.9130429 7.019612,6.0505283 24.045608,9.7477429 27.391304,14.6086951 H 87.74392 L 87.352616,8.8647743 C 87.320894,3.118497 67.098474,-0.59514701 59.309138,-7.3091375 59.195027,-8.2395409 59.096836,-9.1221659 59.048268,-10.048267 Z"
       inkscape:connector-curvature="0"
       id="path3850"
       style="display:inline;opacity:0.15;fill:#ffffff;fill-opacity:1;stroke:none;stroke-width:4.173913;enable-background:new" />
    <path
       d="m 47.961312,-63.656964 c -11.222417,0 -20.217392,8.400118 -20.217392,18.782609 0.02112,0.921172 -0.01782,2.02478 0,3.130435 0,-10.382491 8.994975,-18.782609 20.217392,-18.782609 10.521023,0 19.294939,7.354164 20.347825,16.826087 0.04011,-0.386254 0.117818,-0.806339 0.130436,-1.173913 1.6e-5,-10.382484 -9.255836,-18.782609 -20.478261,-18.782609 z M 27.74392,-40.830877 c -1.332026,0.703871 -1.823666,2.843393 -1.304348,5.478261 0.189803,-1.119307 0.57444,-1.962128 1.304348,-2.347826 -0.09662,-1.145787 -0.02359,-2.147955 0,-3.130435 z m 40.565217,0.52174 c -0.10201,0.909235 -0.190538,1.737095 -0.260869,2.73913 0.545999,0.406241 0.724554,1.199213 0.913044,2.086956 0.375527,-2.086668 0.162365,-3.854764 -0.652175,-4.826086 z M 37.00479,-10.439571 c -0.05898,1.0361702 -0.06694,2.0096561 -0.260869,3.1304335 C 28.857905,-0.8237718 8.8006483,2.1507926 8.830877,8.8647743 L 8.4395726,11.473471 H 8.9613117 C 9.9969397,5.1446311 29.07825,2.1254525 36.743921,-4.1787035 c 0.395165,-2.2837839 0.349632,-4.2419157 0.260869,-6.2608675 z m 22.043478,0.13042 c -0.06194,2.0603582 0.005,4.0457775 0.26087,6.1304344 7.545917,6.5041803 26.687724,10.2036882 27.913043,15.6521746 H 87.74392 L 87.352616,8.8647743 C 87.320894,3.118497 67.098474,-0.59514701 59.309138,-7.3091375 59.184267,-8.3272856 59.094857,-9.2961893 59.048268,-10.309138 Z"
       inkscape:connector-curvature="0"
       id="path3859"
       style="display:inline;opacity:0.3;fill:#ffffff;fill-opacity:1;stroke:none;stroke-width:4.173913;enable-background:new" />
    <path
       d="m 47.961312,-63.656964 c -11.222417,0 -20.217392,8.400118 -20.217392,18.782609 0.01407,0.614115 0.01874,1.385472 0,2.086957 0,-10.382491 8.994975,-18.782609 20.217392,-18.782609 10.800342,0 19.690931,7.772654 20.347825,17.608695 0.02776,-0.298154 0.120594,-0.62631 0.130436,-0.913043 1.6e-5,-10.382484 -9.255836,-18.782609 -20.478261,-18.782609 z M 27.74392,-40.830877 c -1.192201,0.629984 -1.585426,2.423516 -1.304348,4.695652 0.155104,-1.260152 0.513796,-2.190951 1.304348,-2.608695 -0.06441,-0.763858 -0.02037,-1.390302 0,-2.086957 z m 40.434783,0.391304 c -0.07736,0.626271 -0.08366,1.159542 -0.130435,1.826088 0.63014,0.468849 0.892671,1.388571 1.043478,2.47826 0.222095,-1.906155 -0.08629,-3.47612 -0.913043,-4.304348 z M 37.00479,-10.830876 c -0.05026,1.1560919 -0.04287,2.2618842 -0.260869,3.5217385 C 28.857905,-0.8237718 8.8006483,2.1507926 8.830877,8.8647743 L 8.4395726,11.473471 H 8.7004421 L 8.830877,10.951733 C 8.8006573,4.2377471 28.857905,1.2631827 36.743921,-5.2221786 37.096307,-7.2587375 37.05014,-9.019541 37.00479,-10.830876 Z m 21.913044,0.260884 c -0.02045,1.7994003 0.168417,3.5304304 0.391304,5.3478266 7.789336,6.713986 28.011756,10.4276301 28.043478,16.1739114 l 0.130435,0.521738 H 87.74392 L 87.352616,8.8647743 C 87.320894,3.118497 67.098474,-0.59514701 59.309138,-7.3091375 59.172943,-8.4195645 58.961159,-9.465823 58.917834,-10.570005 Z"
       inkscape:connector-curvature="0"
       id="path3868"
       style="display:inline;opacity:0.45;fill:#ffffff;fill-opacity:1;stroke:none;stroke-width:4.173913;enable-background:new" />
    <path
       d="m 47.961312,-63.656964 c -10.893441,0 -19.580599,7.912538 -20.086957,17.869565 1.029518,-9.471927 9.565942,-16.826087 20.086957,-16.826087 10.521023,0 19.294939,7.354164 20.347825,16.826087 -0.518099,-9.957022 -9.454376,-17.869565 -20.347825,-17.869565 z M 27.74392,-40.830877 c -1.027843,0.543135 -1.493456,1.935642 -1.434782,3.782609 0.13011,-1.347823 0.60741,-2.301929 1.434782,-2.739131 -0.03222,-0.381929 0.0031,-0.677005 0,-1.043478 z m 40.434783,0.26087 c -0.03548,0.325481 -0.106894,0.577553 -0.130435,0.913043 0.682497,0.507804 0.925574,1.518 1.043478,2.739131 0.06177,-1.624496 -0.143331,-2.957276 -0.913043,-3.652174 z m -31.043478,29.217394 c -0.03381,1.31772 -0.140519,2.5940962 -0.391304,4.0434755 C 28.857905,-0.8237718 8.8006483,2.1507926 8.830877,8.8647743 L 8.4395726,11.473471 H 8.5700074 L 8.830877,9.9082537 C 8.8006573,3.1942676 28.857905,0.21970327 36.743921,-6.265658 c 0.317626,-1.8356857 0.405341,-3.4439063 0.391304,-5.086955 z m 21.782609,0.521737 c 0.01127,1.5388882 0.201015,3.0135594 0.391304,4.565218 7.789336,6.71399044 28.011756,10.4276301 28.043478,16.1739117 l 0.26087,1.5652173 H 87.74392 L 87.352616,8.8647743 C 87.320894,3.118497 67.098474,-0.59514701 59.309138,-7.3091375 59.162174,-8.5073136 58.956985,-9.6400433 58.917834,-10.830876 Z"
       inkscape:connector-curvature="0"
       id="path3877"
       style="display:inline;opacity:0.6;fill:#ffffff;fill-opacity:1;stroke:none;stroke-width:4.173913;enable-background:new" />
    <g
       transform="matrix(4.1739131,0,0,4.1739132,2.1787031,-151.30914)"
       clip-path="url(#clipPath3910)"
       id="g3904"
       style="opacity:0.5">
      <path
         d="m 10.974504,22 c -2.688704,0 -4.844192,1.999781 -4.844192,4.487252 0.0065,0.285068 -0.0299,0.614262 0,0.968839 -0.425509,0.224847 -0.481532,1.102226 -0.101983,1.988669 0.146356,0.341815 0.359195,0.641916 0.560906,0.866854 0.0067,0.0075 0.04422,-0.0073 0.05099,0 0.04815,0.234209 0.04375,0.449699 0.101982,0.713882 0.180389,0.536426 0.92433,1.529198 1.580737,2.3966 0.06546,0.669139 0.08071,1.329519 -0.05099,2.090652 -1.889358,1.553785 -6.687129,2.266795 -6.679887,3.875354 L 1.490085,40 h 19.01983 l -0.101978,-0.611898 c -0.0076,-1.376713 -4.864684,-2.266794 -6.730879,-3.875354 -0.07557,-0.61617 -0.08947,-1.228802 -0.05098,-1.835694 0.596794,-0.912527 1.381035,-2.0577 1.580737,-2.651558 0.0734,-0.307544 0.09597,-0.551782 0.152983,-0.815865 0.176231,-0.213516 0.32883,-0.461034 0.458923,-0.764871 0.360438,-0.841807 0.316358,-1.664357 -0.05099,-1.937679 0.02567,-0.365772 0.09125,-0.707214 0.10198,-1.019829 C 15.869715,23.999782 13.663234,22 10.974528,22 Z"
         inkscape:connector-curvature="0"
         id="path3849"
         style="display:inline;opacity:0.25;fill:#000000;fill-opacity:1;stroke:none;enable-background:new" />
      <path
         d="m 10.974504,21.75 c -2.688704,0 -4.844192,1.999781 -4.844192,4.487252 0.0065,0.285068 -0.0299,0.614262 0,0.968839 -0.425509,0.224847 -0.481532,1.102226 -0.101983,1.988669 0.146356,0.341815 0.359195,0.641916 0.560906,0.866854 0.0067,0.0075 0.04422,-0.0073 0.05099,0 0.04815,0.234209 0.04375,0.449699 0.101982,0.713882 0.180389,0.536426 0.92433,1.529198 1.580737,2.3966 0.06546,0.669139 0.08071,1.329519 -0.05099,2.090652 -1.889358,1.553785 -6.687129,2.266795 -6.679887,3.875354 L 1.490085,39.75 h 19.01983 l -0.101978,-0.611898 c -0.0076,-1.376713 -4.864684,-2.266794 -6.730879,-3.875354 -0.07557,-0.61617 -0.08947,-1.228802 -0.05098,-1.835694 0.596794,-0.912527 1.381035,-2.0577 1.580737,-2.651558 0.0734,-0.307544 0.09597,-0.551782 0.152983,-0.815865 0.176231,-0.213516 0.32883,-0.461034 0.458923,-0.764871 0.360438,-0.841807 0.316358,-1.664357 -0.05099,-1.937679 0.02567,-0.365772 0.09125,-0.707214 0.10198,-1.019829 4e-6,-2.48747 -2.206477,-4.487252 -4.895183,-4.487252 z"
         inkscape:connector-curvature="0"
         id="path3853"
         style="display:inline;opacity:0.5;fill:#000000;fill-opacity:1;stroke:none;enable-background:new" />
      <path
         d="m 10.974504,21.5 c -2.688704,0 -4.844192,1.999781 -4.844192,4.487252 0.0065,0.285068 -0.0299,0.614262 0,0.968839 -0.425509,0.224847 -0.481532,1.102226 -0.101983,1.988669 0.146356,0.341815 0.359195,0.641916 0.560906,0.866854 0.0067,0.0075 0.04422,-0.0073 0.05099,0 0.04815,0.234209 0.04375,0.449699 0.101982,0.713882 0.180389,0.536426 0.92433,1.529198 1.580737,2.3966 0.06546,0.669139 0.08071,1.329519 -0.05099,2.090652 -1.889358,1.553785 -6.687129,2.266795 -6.679887,3.875354 L 1.490085,39.5 h 19.01983 l -0.101978,-0.611898 c -0.0076,-1.376713 -4.864684,-2.266794 -6.730879,-3.875354 -0.07557,-0.61617 -0.08947,-1.228802 -0.05098,-1.835694 0.596794,-0.912527 1.381035,-2.0577 1.580737,-2.651558 0.0734,-0.307544 0.09597,-0.551782 0.152983,-0.815865 0.176231,-0.213516 0.32883,-0.461034 0.458923,-0.764871 0.360438,-0.841807 0.316358,-1.664357 -0.05099,-1.937679 0.02567,-0.365772 0.09125,-0.707214 0.10198,-1.019829 C 15.869715,23.499782 13.663234,21.5 10.974528,21.5 Z"
         inkscape:connector-curvature="0"
         id="path3855"
         style="display:inline;opacity:0.75;fill:#000000;fill-opacity:1;stroke:none;enable-background:new" />
      <path
         d="m 10.974504,21.25 c -2.688704,0 -4.844192,1.999781 -4.844192,4.487252 0.0065,0.285068 -0.0299,0.614262 0,0.968839 -0.425509,0.224847 -0.481532,1.102226 -0.101983,1.988669 0.146356,0.341815 0.359195,0.641916 0.560906,0.866854 0.0067,0.0075 0.04422,-0.0073 0.05099,0 0.04815,0.234209 0.04375,0.449699 0.101982,0.713882 0.180389,0.536426 0.92433,1.529198 1.580737,2.3966 0.06546,0.669139 0.08071,1.329519 -0.05099,2.090652 -1.889358,1.553785 -6.687129,2.266795 -6.679887,3.875354 L 1.490085,39.25 h 19.01983 l -0.101978,-0.611898 c -0.0076,-1.376713 -4.864684,-2.266794 -6.730879,-3.875354 -0.07557,-0.61617 -0.08947,-1.228802 -0.05098,-1.835694 0.596794,-0.912527 1.381035,-2.0577 1.580737,-2.651558 0.0734,-0.307544 0.09597,-0.551782 0.152983,-0.815865 0.176231,-0.213516 0.32883,-0.461034 0.458923,-0.764871 0.360438,-0.841807 0.316358,-1.664357 -0.05099,-1.937679 0.02567,-0.365772 0.09125,-0.707214 0.10198,-1.019829 4e-6,-2.48747 -2.206477,-4.487252 -4.895183,-4.487252 z"
         inkscape:connector-curvature="0"
         id="path3857"
         style="display:inline;fill:#000000;fill-opacity:1;stroke:none;enable-background:new" />
    </g>
  </g>
</svg>
