<?xml version="1.0" encoding="UTF-8" standalone="no"?>
<!-- Created with Inkscape (http://www.inkscape.org/) -->

<svg
   xmlns:dc="http://purl.org/dc/elements/1.1/"
   xmlns:cc="http://creativecommons.org/ns#"
   xmlns:rdf="http://www.w3.org/1999/02/22-rdf-syntax-ns#"
   xmlns:svg="http://www.w3.org/2000/svg"
   xmlns="http://www.w3.org/2000/svg"
   xmlns:xlink="http://www.w3.org/1999/xlink"
   xmlns:sodipodi="http://sodipodi.sourceforge.net/DTD/sodipodi-0.dtd"
   xmlns:inkscape="http://www.inkscape.org/namespaces/inkscape"
   width="24"
   height="24"
   id="svg5453"
   version="1.1"
   inkscape:version="0.92.2 (5c3e80d, 2017-08-06)"
   sodipodi:docname="folder-saved-search.svg">
  <defs
     id="defs5455">
    <linearGradient
       inkscape:collect="always"
       id="linearGradient4233">
      <stop
         style="stop-color:#345671;stop-opacity:1;"
         offset="0"
         id="stop4235" />
      <stop
         style="stop-color:#345671;stop-opacity:0;"
         offset="1"
         id="stop4237" />
    </linearGradient>
    <linearGradient
       id="linearGradient4232"
       inkscape:collect="always">
      <stop
         id="stop4234"
         offset="0"
         style="stop-color:#3d6584;stop-opacity:1" />
      <stop
         id="stop4236"
         offset="1"
         style="stop-color:#4a7ba3;stop-opacity:1" />
    </linearGradient>
    <linearGradient
       id="linearGradient4172">
      <stop
         style="stop-color:#7c92ba;stop-opacity:1;"
         offset="0"
         id="stop4174" />
      <stop
         style="stop-color:#8eb7dd;stop-opacity:1"
         offset="1"
         id="stop4176" />
    </linearGradient>
    <linearGradient
       inkscape:collect="always"
       xlink:href="#linearGradient4172"
       id="linearGradient4178"
       x1="414.57144"
       y1="541.79797"
       x2="414.57144"
       y2="499.798"
       gradientUnits="userSpaceOnUse"
       gradientTransform="matrix(0.37500013,0,0,0.37487787,240.3571,342.43998)" />
    <linearGradient
       inkscape:collect="always"
       xlink:href="#linearGradient4232"
       id="linearGradient4182"
       gradientUnits="userSpaceOnUse"
       x1="414.57144"
       y1="523.79797"
       x2="414.57144"
       y2="505.798"
       gradientTransform="matrix(0.37500013,0,0,0.37482908,240.3571,336.46504)" />
    <linearGradient
       inkscape:collect="always"
       xlink:href="#linearGradient4233"
       id="linearGradient4239"
       x1="384.57144"
       y1="477.798"
       x2="404.57144"
       y2="497.798"
       gradientUnits="userSpaceOnUse"
       gradientTransform="matrix(0.37500013,0,0,0.37499991,240.3571,342.37385)" />
  </defs>
  <sodipodi:namedview
     id="base"
     pagecolor="#ffffff"
     bordercolor="#666666"
     borderopacity="1.0"
     inkscape:pageopacity="0"
     inkscape:pageshadow="2"
     inkscape:zoom="15.999999"
     inkscape:cx="4.862914"
     inkscape:cy="22.848668"
     inkscape:document-units="px"
     inkscape:current-layer="layer1"
     showgrid="true"
     fit-margin-top="0"
     fit-margin-left="0"
     fit-margin-right="0"
     fit-margin-bottom="0"
     inkscape:window-width="3738"
     inkscape:window-height="2041"
     inkscape:window-x="102"
     inkscape:window-y="55"
     inkscape:window-maximized="1"
     inkscape:showpageshadow="false"
     borderlayer="true"
     showguides="true">
    <sodipodi:guide
       position="6.0000117,57.999996"
       orientation="51.999969,0"
       id="guide4097"
       inkscape:locked="false" />
    <sodipodi:guide
       position="6.0000117,6.0000264"
       orientation="0,52"
       id="guide4099"
       inkscape:locked="false" />
    <sodipodi:guide
       position="58.000012,6.0000264"
       orientation="-51.999969,0"
       id="guide4101"
       inkscape:locked="false" />
    <sodipodi:guide
       position="58.000012,57.999996"
       orientation="0,-52"
       id="guide4103"
       inkscape:locked="false" />
    <sodipodi:guide
       position="3.0000117,60.999996"
       orientation="57.999969,0"
       id="guide4105"
       inkscape:locked="false" />
    <sodipodi:guide
       position="3.0000117,3.0000264"
       orientation="0,58"
       id="guide4107"
       inkscape:locked="false" />
    <sodipodi:guide
       position="61.000012,3.0000264"
       orientation="-57.999969,0"
       id="guide4109"
       inkscape:locked="false" />
    <sodipodi:guide
       position="61.000012,60.999996"
       orientation="0,-58"
       id="guide4111"
       inkscape:locked="false" />
    <inkscape:grid
       type="xygrid"
       id="grid4115" />
  </sodipodi:namedview>
  <metadata
     id="metadata5458">
    <rdf:RDF>
      <cc:Work
         rdf:about="">
        <dc:format>image/svg+xml</dc:format>
        <dc:type
           rdf:resource="http://purl.org/dc/dcmitype/StillImage" />
        <dc:title></dc:title>
      </cc:Work>
    </rdf:RDF>
  </metadata>
  <g
     inkscape:label="Capa 1"
     inkscape:groupmode="layer"
     id="layer1"
     transform="translate(-384.57143,-523.798)">
    <path
       style="fill:url(#linearGradient4182);fill-opacity:1;stroke:none;stroke-width:0.375"
       d="m 386.07144,526.04806 v 1.875 8.25 c 0,0.20765 0.16725,0.375 0.375,0.375 h 20.25001 c 0.20774,0 0.375,-0.16735 0.375,-0.375 v -8.24633 c 0,-10e-4 -7.5e-4,-0.002 -7.5e-4,-0.004 h 7.5e-4 v -0.375 h -10.50001 l -1.125,-1.5 h -9.375 z"
       id="rect4180"
       inkscape:connector-curvature="0" />
    <path
       style="fill:url(#linearGradient4239);fill-opacity:1;fill-rule:evenodd;stroke:none;stroke-width:0.375px;stroke-linecap:butt;stroke-linejoin:miter;stroke-opacity:1"
       d="m 386.07144,526.04806 9.75,9.75 0.375,0.375 10.87501,-6.27868 v -2.34632 h -10.50001 l -1.125,-1.5 z"
       id="path4230"
       inkscape:connector-curvature="0" />
    <path
       style="fill:url(#linearGradient4178);fill-opacity:1;stroke:none;stroke-width:0.375"
       d="m 392.82144,529.79806 -1.125,1.5 h -6 v 0.375 h 7.5e-4 c -2e-5,0.002 -7.5e-4,0.003 -7.5e-4,0.004 v 13.4956 0.375 h 0.375 21.00001 0.375 v -0.375 -13.4956 -0.004 -1.875 z"
       id="rect4113"
       inkscape:connector-curvature="0" />
    <path
       style="fill:#8fb1cc;fill-opacity:1;fill-rule:evenodd;stroke:none;stroke-width:0.375px;stroke-linecap:butt;stroke-linejoin:miter;stroke-opacity:1"
       d="m 407.07145,527.54806 v 0.375 h -10.87501 l -0.75,-1.875 1.125,1.5 z"
       id="path4222"
       inkscape:connector-curvature="0" />
    <path
       style="fill:#ffffff;fill-opacity:0.23529412;fill-rule:evenodd;stroke:none;stroke-width:0.375px;stroke-linecap:butt;stroke-linejoin:miter;stroke-opacity:1"
       d="m 385.69644,531.29806 v 0.375 h 6.375 l 0.75,-1.875 -1.125,1.5 z"
       id="path4224"
       inkscape:connector-curvature="0" />
    <path
       style="fill:#345671;fill-opacity:1;fill-rule:evenodd;stroke:none;stroke-width:0.375px;stroke-linecap:butt;stroke-linejoin:miter;stroke-opacity:1"
       d="m 386.07144,530.92306 v 0.375 h 5.625 l 1.125,-1.5 -1.875,1.125 z"
       id="path4228"
       inkscape:connector-curvature="0" />
    <path
       inkscape:connector-curvature="0"
       style="fill:#466e9a;fill-opacity:1;stroke:none;stroke-width:0.375"
       d="m 385.69644,545.17305 v 0.375 h 0.375 21.00001 0.375 v -0.375 h -0.375 -21.00001 z"
       id="path4151-2" />
    <path
       d="m 395.84564,533.21997 c -0.16421,0 -0.29645,0.1322 -0.29645,0.29641 v 1.00043 c -0.32526,0.0834 -0.62545,0.22291 -0.90778,0.38905 l -0.72252,-0.72253 c -0.11609,-0.11612 -0.29143,-0.11612 -0.40758,0 l -0.85218,0.85222 c -0.11615,0.11612 -0.11615,0.29145 0,0.40758 l 0.72245,0.72252 c -0.1661,0.28233 -0.30559,0.58254 -0.38897,0.90779 h -1.00042 c -0.16424,0 -0.29643,0.13221 -0.29643,0.29642 v 1.18569 c 0,0.16422 0.13219,0.29642 0.29643,0.29642 h 1.00042 c 0.0834,0.32525 0.22287,0.62546 0.38897,0.90779 l -0.72245,0.72252 c -0.11615,0.11612 -0.11615,0.29146 0,0.40758 l 0.85218,0.85221 c 0.11615,0.11612 0.29149,0.11612 0.40758,0 l 0.72252,-0.72253 c 0.28233,0.16614 0.58252,0.30562 0.90778,0.38906 v 1.00042 c 0,0.16422 0.13224,0.29642 0.29645,0.29642 h 1.18571 c 0.16419,0 0.29637,-0.1322 0.29637,-0.29642 v -1.00042 c 0.32526,-0.0834 0.62548,-0.22292 0.90776,-0.38906 l 0.72259,0.72253 c 0.11613,0.11612 0.29148,0.11612 0.40758,0 l 0.85218,-0.85221 c 0.11616,-0.11612 0.11616,-0.29146 0,-0.40758 l -0.72254,-0.72252 c 0.1662,-0.28233 0.30564,-0.58254 0.38906,-0.90779 h 1.00045 c 0.16421,0 0.29644,-0.1322 0.29644,-0.29642 v -1.18569 c 0,-0.16421 -0.13223,-0.29642 -0.29644,-0.29642 h -1.00045 c -0.0834,-0.32525 -0.22284,-0.62546 -0.38906,-0.90779 l 0.72254,-0.72252 c 0.11616,-0.11613 0.11616,-0.29146 0,-0.40758 l -0.85218,-0.85222 c -0.1161,-0.11612 -0.29145,-0.11612 -0.40758,0 l -0.72259,0.72253 c -0.28228,-0.16614 -0.5825,-0.30562 -0.90776,-0.38905 v -1.00043 c 0,-0.16421 -0.13218,-0.29641 -0.29637,-0.29641 z m 0.59286,2.96421 c 0.98223,0 1.77853,0.79627 1.77853,1.77852 0,0.98225 -0.7963,1.77853 -1.77853,1.77853 -0.98229,0 -1.77855,-0.79628 -1.77855,-1.77853 0,-0.98225 0.79626,-1.77852 1.77855,-1.77852 z"
       id="path3575-5-8-4-7-7-5"
       style="color:#000000;display:inline;overflow:visible;visibility:visible;opacity:0.3;fill:#ffffff;fill-opacity:1;fill-rule:nonzero;stroke:none;stroke-width:0.63750005;marker:none;enable-background:accumulate"
       inkscape:connector-curvature="0" />
    <path
       d="m 395.84564,532.99412 c -0.16421,0 -0.29645,0.1322 -0.29645,0.29642 v 1.00042 c -0.32526,0.0834 -0.62545,0.22292 -0.90778,0.38906 l -0.72252,-0.72253 c -0.11609,-0.11612 -0.29143,-0.11612 -0.40758,0 l -0.85218,0.85221 c -0.11615,0.11612 -0.11615,0.29146 0,0.40758 l 0.72245,0.72253 c -0.1661,0.28233 -0.30559,0.58253 -0.38897,0.90778 h -1.00042 c -0.16424,0 -0.29643,0.13221 -0.29643,0.29643 v 1.18568 c 0,0.16422 0.13219,0.29642 0.29643,0.29642 h 1.00042 c 0.0834,0.32526 0.22287,0.62546 0.38897,0.90779 l -0.72245,0.72253 c -0.11615,0.11612 -0.11615,0.29146 0,0.40758 l 0.85218,0.85221 c 0.11615,0.11612 0.29149,0.11612 0.40758,0 l 0.72252,-0.72253 c 0.28233,0.16614 0.58252,0.30562 0.90778,0.38905 v 1.00043 c 0,0.16421 0.13224,0.29641 0.29645,0.29641 h 1.18571 c 0.16419,0 0.29637,-0.1322 0.29637,-0.29641 v -1.00043 c 0.32526,-0.0834 0.62548,-0.22291 0.90776,-0.38905 l 0.72259,0.72253 c 0.11613,0.11612 0.29148,0.11612 0.40758,0 l 0.85218,-0.85221 c 0.11616,-0.11612 0.11616,-0.29146 0,-0.40758 l -0.72254,-0.72253 c 0.1662,-0.28233 0.30564,-0.58253 0.38906,-0.90779 h 1.00045 c 0.16421,0 0.29644,-0.1322 0.29644,-0.29642 v -1.18568 c 0,-0.16422 -0.13223,-0.29643 -0.29644,-0.29643 h -1.00045 c -0.0834,-0.32525 -0.22284,-0.62545 -0.38906,-0.90778 l 0.72254,-0.72253 c 0.11616,-0.11612 0.11616,-0.29146 0,-0.40758 l -0.85218,-0.85221 c -0.1161,-0.11612 -0.29145,-0.11612 -0.40758,0 l -0.72259,0.72253 c -0.28228,-0.16614 -0.5825,-0.30562 -0.90776,-0.38906 v -1.00042 c 0,-0.16422 -0.13218,-0.29642 -0.29637,-0.29642 z m 0.59286,2.96421 c 0.98223,0 1.77853,0.79628 1.77853,1.77853 0,0.98225 -0.7963,1.77853 -1.77853,1.77853 -0.98229,0 -1.77855,-0.79628 -1.77855,-1.77853 0,-0.98225 0.79626,-1.77853 1.77855,-1.77853 z"
       id="path3575-5-8-4-7-7"
       style="color:#000000;display:inline;overflow:visible;visibility:visible;fill:#163950;fill-opacity:0.85098039;fill-rule:nonzero;stroke:none;stroke-width:0.63750005;marker:none;enable-background:accumulate"
       inkscape:connector-curvature="0" />
  </g>
</svg>
