<?xml version="1.0" encoding="UTF-8" standalone="no"?>
<!-- Created with Inkscape (http://www.inkscape.org/) -->

<svg
   xmlns:dc="http://purl.org/dc/elements/1.1/"
   xmlns:cc="http://creativecommons.org/ns#"
   xmlns:rdf="http://www.w3.org/1999/02/22-rdf-syntax-ns#"
   xmlns:svg="http://www.w3.org/2000/svg"
   xmlns="http://www.w3.org/2000/svg"
   xmlns:xlink="http://www.w3.org/1999/xlink"
   xmlns:sodipodi="http://sodipodi.sourceforge.net/DTD/sodipodi-0.dtd"
   xmlns:inkscape="http://www.inkscape.org/namespaces/inkscape"
   width="96"
   height="96"
   id="svg5453"
   version="1.1"
   inkscape:version="0.92.2 (5c3e80d, 2017-08-06)"
   sodipodi:docname="folder-videos.svg">
  <defs
     id="defs5455">
    <linearGradient
       inkscape:collect="always"
       id="linearGradient4233">
      <stop
         style="stop-color:#345671;stop-opacity:1;"
         offset="0"
         id="stop4235" />
      <stop
         style="stop-color:#345671;stop-opacity:0;"
         offset="1"
         id="stop4237" />
    </linearGradient>
    <linearGradient
       id="linearGradient4232"
       inkscape:collect="always">
      <stop
         id="stop4234"
         offset="0"
         style="stop-color:#3d6584;stop-opacity:1" />
      <stop
         id="stop4236"
         offset="1"
         style="stop-color:#4a7ba3;stop-opacity:1" />
    </linearGradient>
    <linearGradient
       id="linearGradient4172">
      <stop
         style="stop-color:#7c92ba;stop-opacity:1;"
         offset="0"
         id="stop4174" />
      <stop
         style="stop-color:#8eb7dd;stop-opacity:1"
         offset="1"
         id="stop4176" />
    </linearGradient>
    <linearGradient
       inkscape:collect="always"
       xlink:href="#linearGradient4172"
       id="linearGradient4178"
       x1="414.57144"
       y1="541.79797"
       x2="414.57144"
       y2="499.798"
       gradientUnits="userSpaceOnUse"
       gradientTransform="matrix(1.5000005,0,0,1.4995114,-192.28593,-273.63414)" />
    <linearGradient
       inkscape:collect="always"
       xlink:href="#linearGradient4232"
       id="linearGradient4182"
       gradientUnits="userSpaceOnUse"
       x1="414.57144"
       y1="523.79797"
       x2="414.57144"
       y2="505.798"
       gradientTransform="matrix(1.5000005,0,0,1.4993163,-192.28593,-297.53388)" />
    <linearGradient
       inkscape:collect="always"
       xlink:href="#linearGradient4233"
       id="linearGradient4239"
       x1="384.57144"
       y1="477.798"
       x2="404.57144"
       y2="497.798"
       gradientUnits="userSpaceOnUse"
       gradientTransform="matrix(1.5000005,0,0,1.4999996,-192.28593,-273.89863)" />
  </defs>
  <sodipodi:namedview
     id="base"
     pagecolor="#ffffff"
     bordercolor="#666666"
     borderopacity="1.0"
     inkscape:pageopacity="0"
     inkscape:pageshadow="2"
     inkscape:zoom="5.656854"
     inkscape:cx="-112.62905"
     inkscape:cy="18.811031"
     inkscape:document-units="px"
     inkscape:current-layer="layer1"
     showgrid="true"
     fit-margin-top="0"
     fit-margin-left="0"
     fit-margin-right="0"
     fit-margin-bottom="0"
     inkscape:window-width="3738"
     inkscape:window-height="2041"
     inkscape:window-x="102"
     inkscape:window-y="55"
     inkscape:window-maximized="1"
     inkscape:showpageshadow="false"
     borderlayer="true"
     showguides="true">
    <sodipodi:guide
       position="6.0000117,57.999996"
       orientation="51.999969,0"
       id="guide4097"
       inkscape:locked="false" />
    <sodipodi:guide
       position="6.0000117,6.0000264"
       orientation="0,52"
       id="guide4099"
       inkscape:locked="false" />
    <sodipodi:guide
       position="58.000012,6.0000264"
       orientation="-51.999969,0"
       id="guide4101"
       inkscape:locked="false" />
    <sodipodi:guide
       position="58.000012,57.999996"
       orientation="0,-52"
       id="guide4103"
       inkscape:locked="false" />
    <sodipodi:guide
       position="3.0000117,60.999996"
       orientation="57.999969,0"
       id="guide4105"
       inkscape:locked="false" />
    <sodipodi:guide
       position="3.0000117,3.0000264"
       orientation="0,58"
       id="guide4107"
       inkscape:locked="false" />
    <sodipodi:guide
       position="61.000012,3.0000264"
       orientation="-57.999969,0"
       id="guide4109"
       inkscape:locked="false" />
    <sodipodi:guide
       position="61.000012,60.999996"
       orientation="0,-58"
       id="guide4111"
       inkscape:locked="false" />
    <inkscape:grid
       type="xygrid"
       id="grid4115" />
  </sodipodi:namedview>
  <metadata
     id="metadata5458">
    <rdf:RDF>
      <cc:Work
         rdf:about="">
        <dc:format>image/svg+xml</dc:format>
        <dc:type
           rdf:resource="http://purl.org/dc/dcmitype/StillImage" />
        <dc:title></dc:title>
      </cc:Work>
    </rdf:RDF>
  </metadata>
  <g
     inkscape:label="Capa 1"
     inkscape:groupmode="layer"
     id="layer1"
     transform="translate(-384.57143,-451.798)">
    <path
       style="fill:url(#linearGradient4182);fill-opacity:1;stroke:none;stroke-width:1.5"
       d="m 390.57143,460.79819 v 7.5 32.99999 c 0,0.8306 0.669,1.5 1.5,1.5 h 81.00003 c 0.83098,0 1.5,-0.6694 1.5,-1.5 v -32.98534 c 0,-0.005 -0.003,-0.009 -0.003,-0.015 h 0.003 v -1.5 h -42.00002 l -4.5,-5.99999 h -37.50001 z"
       id="rect4180"
       inkscape:connector-curvature="0" />
    <path
       style="fill:url(#linearGradient4239);fill-opacity:1;fill-rule:evenodd;stroke:none;stroke-width:1.5px;stroke-linecap:butt;stroke-linejoin:miter;stroke-opacity:1"
       d="m 390.57143,460.79819 39.00001,38.99999 1.5,1.5 43.50002,-25.11473 v -9.38526 h -42.00002 l -4.5,-6 z"
       id="path4230"
       inkscape:connector-curvature="0" />
    <path
       style="fill:url(#linearGradient4178);fill-opacity:1;stroke:none;stroke-width:1.5"
       d="m 417.57144,475.79819 -4.50001,6 h -24 v 1.5 h 0.003 c -8e-5,0.006 -0.003,0.012 -0.003,0.0176 v 53.9824 1.5 h 1.5 84.00003 1.5 v -1.5 -53.9824 -0.0176 -7.5 z"
       id="rect4113"
       inkscape:connector-curvature="0" />
    <path
       style="fill:#8fb1cc;fill-opacity:1;fill-rule:evenodd;stroke:none;stroke-width:1.5px;stroke-linecap:butt;stroke-linejoin:miter;stroke-opacity:1"
       d="m 474.57146,466.79819 v 1.5 h -43.50002 l -3,-7.5 4.5,6 z"
       id="path4222"
       inkscape:connector-curvature="0" />
    <path
       style="fill:#ffffff;fill-opacity:0.23529412;fill-rule:evenodd;stroke:none;stroke-width:1.5px;stroke-linecap:butt;stroke-linejoin:miter;stroke-opacity:1"
       d="m 389.07144,481.79819 v 1.5 h 25.49999 l 3.00001,-7.5 -4.50001,6 z"
       id="path4224"
       inkscape:connector-curvature="0" />
    <path
       style="fill:#345671;fill-opacity:1;fill-rule:evenodd;stroke:none;stroke-width:1.5px;stroke-linecap:butt;stroke-linejoin:miter;stroke-opacity:1"
       d="m 390.57143,480.29819 v 1.5 h 22.5 l 4.50001,-6 -7.50001,4.5 z"
       id="path4228"
       inkscape:connector-curvature="0" />
    <path
       inkscape:connector-curvature="0"
       style="fill:#466e9a;fill-opacity:1;stroke:none;stroke-width:1.5"
       d="m 389.07143,537.29814 v 1.5 h 1.5 84.00003 1.5 v -1.5 h -1.5 -84.00003 z"
       id="path4151-2" />
    <path
       inkscape:connector-curvature="0"
       d="m 417.70987,490.88629 c -1.07965,0 -1.94881,0.86918 -1.94881,1.94882 v 35.07874 c 0,1.07963 0.86916,1.94881 1.94881,1.94881 h 32.48034 c 1.07962,0 1.94881,-0.86918 1.94881,-1.94881 v -35.07874 c 0,-1.07964 -0.86919,-1.94882 -1.94881,-1.94882 z m 0.64962,2.59842 h 2.59842 v 2.59842 h -2.59842 z m 6.49607,0 h 18.18898 c 0.71976,0 1.29919,0.57947 1.29919,1.29921 v 12.99214 c 0,0.71976 -0.57943,1.29921 -1.29919,1.29921 h -18.18898 c -0.71978,0 -1.29923,-0.57945 -1.29923,-1.29921 v -12.99214 c 0,-0.71974 0.57945,-1.29921 1.29923,-1.29921 z m 22.08662,0 h 2.59841 v 2.59842 h -2.59841 z m -28.58269,5.19686 h 2.59842 v 2.59842 h -2.59842 z m 28.58269,0 h 2.59841 v 2.59842 h -2.59841 z m -28.58269,5.19685 h 2.59842 v 2.59841 h -2.59842 z m 28.58269,0 h 2.59841 v 2.59841 h -2.59841 z m -28.58269,5.19685 h 2.59842 v 2.59841 h -2.59842 z m 28.58269,0 h 2.59841 v 2.59841 h -2.59841 z m -22.08662,2.59841 h 18.18898 c 0.71976,0 1.29919,0.57946 1.29919,1.29924 v 12.9921 c 0,0.71976 -0.57943,1.29922 -1.29919,1.29922 h -18.18898 c -0.71978,0 -1.29923,-0.57946 -1.29923,-1.29922 v -12.9921 c 0,-0.71978 0.57945,-1.29924 1.29923,-1.29924 z m -6.49607,2.59843 h 2.59842 v 2.59842 h -2.59842 z m 28.58269,0 h 2.59841 v 2.59842 h -2.59841 z m -28.58269,5.19686 h 2.59842 v 2.59842 h -2.59842 z m 28.58269,0 h 2.59841 v 2.59842 h -2.59841 z m -28.58269,5.19684 h 2.59842 v 2.59843 h -2.59842 z m 28.58269,0 h 2.59841 v 2.59843 h -2.59841 z"
       id="rect3032-7-5-6"
       style="color:#000000;display:inline;overflow:visible;visibility:visible;opacity:0.3;fill:#ffffff;fill-opacity:1;fill-rule:nonzero;stroke:none;stroke-width:2.55000019;marker:none;enable-background:accumulate" />
    <path
       inkscape:connector-curvature="0"
       d="m 417.70987,490.02015 c -1.07964,0 -1.94881,0.86917 -1.94881,1.94881 v 35.07874 c 0,1.07964 0.86917,1.94881 1.94881,1.94881 h 32.48034 c 1.07964,0 1.94881,-0.86917 1.94881,-1.94881 v -35.07874 c 0,-1.07964 -0.86917,-1.94881 -1.94881,-1.94881 z m 0.64961,2.59842 h 2.59843 v 2.59843 h -2.59843 z m 6.49606,0 h 18.189 c 0.71976,0 1.29921,0.57945 1.29921,1.29922 v 12.99212 c 0,0.71977 -0.57945,1.29922 -1.29921,1.29922 h -18.189 c -0.71976,0 -1.29921,-0.57945 -1.29921,-1.29922 v -12.99212 c 0,-0.71977 0.57945,-1.29922 1.29921,-1.29922 z m 22.08663,0 h 2.59843 v 2.59843 h -2.59843 z m -28.58269,5.19685 h 2.59843 v 2.59842 h -2.59843 z m 28.58269,0 h 2.59843 v 2.59842 h -2.59843 z m -28.58269,5.19686 h 2.59843 v 2.59842 h -2.59843 z m 28.58269,0 h 2.59843 v 2.59842 h -2.59843 z m -28.58269,5.19685 h 2.59843 v 2.59842 h -2.59843 z m 28.58269,0 h 2.59843 v 2.59842 h -2.59843 z m -22.08663,2.59842 h 18.189 c 0.71976,0 1.29921,0.57945 1.29921,1.29921 v 12.99213 c 0,0.71976 -0.57945,1.29921 -1.29921,1.29921 h -18.189 c -0.71976,0 -1.29921,-0.57945 -1.29921,-1.29921 v -12.99213 c 0,-0.71976 0.57945,-1.29921 1.29921,-1.29921 z m -6.49606,2.59842 h 2.59843 v 2.59842 h -2.59843 z m 28.58269,0 h 2.59843 v 2.59842 h -2.59843 z m -28.58269,5.19685 h 2.59843 v 2.59842 h -2.59843 z m 28.58269,0 h 2.59843 v 2.59842 h -2.59843 z m -28.58269,5.19684 h 2.59843 v 2.59844 h -2.59843 z m 28.58269,0 h 2.59843 v 2.59844 h -2.59843 z"
       id="rect3032-7-5"
       style="color:#000000;display:inline;overflow:visible;visibility:visible;fill:#163950;fill-opacity:0.85098039;fill-rule:nonzero;stroke:none;stroke-width:2.55000019;marker:none;enable-background:accumulate" />
  </g>
</svg>
