<?xml version="1.0" encoding="UTF-8" standalone="no"?>
<!-- Created with Inkscape (http://www.inkscape.org/) -->

<svg
   xmlns:dc="http://purl.org/dc/elements/1.1/"
   xmlns:cc="http://creativecommons.org/ns#"
   xmlns:rdf="http://www.w3.org/1999/02/22-rdf-syntax-ns#"
   xmlns:svg="http://www.w3.org/2000/svg"
   xmlns="http://www.w3.org/2000/svg"
   xmlns:xlink="http://www.w3.org/1999/xlink"
   xmlns:sodipodi="http://sodipodi.sourceforge.net/DTD/sodipodi-0.dtd"
   xmlns:inkscape="http://www.inkscape.org/namespaces/inkscape"
   width="96"
   height="96"
   id="svg5453"
   version="1.1"
   inkscape:version="0.92.2 (5c3e80d, 2017-08-06)"
   sodipodi:docname="folder-pictures.svg">
  <defs
     id="defs5455">
    <linearGradient
       inkscape:collect="always"
       id="linearGradient4233">
      <stop
         style="stop-color:#345671;stop-opacity:1;"
         offset="0"
         id="stop4235" />
      <stop
         style="stop-color:#345671;stop-opacity:0;"
         offset="1"
         id="stop4237" />
    </linearGradient>
    <linearGradient
       id="linearGradient4232"
       inkscape:collect="always">
      <stop
         id="stop4234"
         offset="0"
         style="stop-color:#3d6584;stop-opacity:1" />
      <stop
         id="stop4236"
         offset="1"
         style="stop-color:#4a7ba3;stop-opacity:1" />
    </linearGradient>
    <linearGradient
       id="linearGradient4172">
      <stop
         style="stop-color:#7c92ba;stop-opacity:1;"
         offset="0"
         id="stop4174" />
      <stop
         style="stop-color:#8eb7dd;stop-opacity:1"
         offset="1"
         id="stop4176" />
    </linearGradient>
    <linearGradient
       inkscape:collect="always"
       xlink:href="#linearGradient4172"
       id="linearGradient4178"
       x1="414.57144"
       y1="541.79797"
       x2="414.57144"
       y2="499.798"
       gradientUnits="userSpaceOnUse"
       gradientTransform="matrix(1.5000005,0,0,1.4995114,-192.28593,-273.63414)" />
    <linearGradient
       inkscape:collect="always"
       xlink:href="#linearGradient4232"
       id="linearGradient4182"
       gradientUnits="userSpaceOnUse"
       x1="414.57144"
       y1="523.79797"
       x2="414.57144"
       y2="505.798"
       gradientTransform="matrix(1.5000005,0,0,1.4993163,-192.28593,-297.53388)" />
    <linearGradient
       inkscape:collect="always"
       xlink:href="#linearGradient4233"
       id="linearGradient4239"
       x1="384.57144"
       y1="477.798"
       x2="404.57144"
       y2="497.798"
       gradientUnits="userSpaceOnUse"
       gradientTransform="matrix(1.5000005,0,0,1.4999996,-192.28593,-273.89863)" />
  </defs>
  <sodipodi:namedview
     id="base"
     pagecolor="#ffffff"
     bordercolor="#666666"
     borderopacity="1.0"
     inkscape:pageopacity="0"
     inkscape:pageshadow="2"
     inkscape:zoom="5.656854"
     inkscape:cx="-136.28251"
     inkscape:cy="20.640887"
     inkscape:document-units="px"
     inkscape:current-layer="layer1"
     showgrid="true"
     fit-margin-top="0"
     fit-margin-left="0"
     fit-margin-right="0"
     fit-margin-bottom="0"
     inkscape:window-width="3738"
     inkscape:window-height="2041"
     inkscape:window-x="102"
     inkscape:window-y="55"
     inkscape:window-maximized="1"
     inkscape:showpageshadow="false"
     borderlayer="true"
     showguides="true">
    <sodipodi:guide
       position="6.0000117,57.999996"
       orientation="51.999969,0"
       id="guide4097"
       inkscape:locked="false" />
    <sodipodi:guide
       position="6.0000117,6.0000264"
       orientation="0,52"
       id="guide4099"
       inkscape:locked="false" />
    <sodipodi:guide
       position="58.000012,6.0000264"
       orientation="-51.999969,0"
       id="guide4101"
       inkscape:locked="false" />
    <sodipodi:guide
       position="58.000012,57.999996"
       orientation="0,-52"
       id="guide4103"
       inkscape:locked="false" />
    <sodipodi:guide
       position="3.0000117,60.999996"
       orientation="57.999969,0"
       id="guide4105"
       inkscape:locked="false" />
    <sodipodi:guide
       position="3.0000117,3.0000264"
       orientation="0,58"
       id="guide4107"
       inkscape:locked="false" />
    <sodipodi:guide
       position="61.000012,3.0000264"
       orientation="-57.999969,0"
       id="guide4109"
       inkscape:locked="false" />
    <sodipodi:guide
       position="61.000012,60.999996"
       orientation="0,-58"
       id="guide4111"
       inkscape:locked="false" />
    <inkscape:grid
       type="xygrid"
       id="grid4115" />
  </sodipodi:namedview>
  <metadata
     id="metadata5458">
    <rdf:RDF>
      <cc:Work
         rdf:about="">
        <dc:format>image/svg+xml</dc:format>
        <dc:type
           rdf:resource="http://purl.org/dc/dcmitype/StillImage" />
        <dc:title></dc:title>
      </cc:Work>
    </rdf:RDF>
  </metadata>
  <g
     inkscape:label="Capa 1"
     inkscape:groupmode="layer"
     id="layer1"
     transform="translate(-384.57143,-451.798)">
    <path
       style="fill:url(#linearGradient4182);fill-opacity:1;stroke:none;stroke-width:1.5"
       d="m 390.57143,460.79819 v 7.5 32.99999 c 0,0.8306 0.669,1.5 1.5,1.5 h 81.00003 c 0.83098,0 1.5,-0.6694 1.5,-1.5 v -32.98534 c 0,-0.005 -0.003,-0.009 -0.003,-0.015 h 0.003 v -1.5 h -42.00002 l -4.5,-5.99999 h -37.50001 z"
       id="rect4180"
       inkscape:connector-curvature="0" />
    <path
       style="fill:url(#linearGradient4239);fill-opacity:1;fill-rule:evenodd;stroke:none;stroke-width:1.5px;stroke-linecap:butt;stroke-linejoin:miter;stroke-opacity:1"
       d="m 390.57143,460.79819 39.00001,38.99999 1.5,1.5 43.50002,-25.11473 v -9.38526 h -42.00002 l -4.5,-6 z"
       id="path4230"
       inkscape:connector-curvature="0" />
    <path
       style="fill:url(#linearGradient4178);fill-opacity:1;stroke:none;stroke-width:1.5"
       d="m 417.57144,475.79819 -4.50001,6 h -24 v 1.5 h 0.003 c -8e-5,0.006 -0.003,0.012 -0.003,0.0176 v 53.9824 1.5 h 1.5 84.00003 1.5 v -1.5 -53.9824 -0.0176 -7.5 z"
       id="rect4113"
       inkscape:connector-curvature="0" />
    <path
       style="fill:#8fb1cc;fill-opacity:1;fill-rule:evenodd;stroke:none;stroke-width:1.5px;stroke-linecap:butt;stroke-linejoin:miter;stroke-opacity:1"
       d="m 474.57146,466.79819 v 1.5 h -43.50002 l -3,-7.5 4.5,6 z"
       id="path4222"
       inkscape:connector-curvature="0" />
    <path
       style="fill:#ffffff;fill-opacity:0.23529412;fill-rule:evenodd;stroke:none;stroke-width:1.5px;stroke-linecap:butt;stroke-linejoin:miter;stroke-opacity:1"
       d="m 389.07144,481.79819 v 1.5 h 25.49999 l 3.00001,-7.5 -4.50001,6 z"
       id="path4224"
       inkscape:connector-curvature="0" />
    <path
       style="fill:#345671;fill-opacity:1;fill-rule:evenodd;stroke:none;stroke-width:1.5px;stroke-linecap:butt;stroke-linejoin:miter;stroke-opacity:1"
       d="m 390.57143,480.29819 v 1.5 h 22.5 l 4.50001,-6 -7.50001,4.5 z"
       id="path4228"
       inkscape:connector-curvature="0" />
    <path
       inkscape:connector-curvature="0"
       style="fill:#466e9a;fill-opacity:1;stroke:none;stroke-width:1.5"
       d="m 389.07143,537.29814 v 1.5 h 1.5 84.00003 1.5 v -1.5 h -1.5 -84.00003 z"
       id="path4151-2" />
    <path
       inkscape:connector-curvature="0"
       d="m 436.3745,487.05108 c -0.23958,-0.0167 -0.50363,0.0523 -0.72815,0.18205 l -12.61263,7.28151 h 9.98609 l 2.60053,-1.50832 0.85818,1.50832 h 4.83702 l -3.95283,-6.83943 c -0.21606,-0.3742 -0.5889,-0.5962 -0.98821,-0.62413 z m -17.60566,9.93408 -6.89144,3.97882 c -0.59877,0.34569 -0.81379,1.09163 -0.46812,1.69035 l 7.35956,12.74266 v -8.32172 l -1.8724,-3.2507 1.8724,-1.09221 z m 3.74477,0.1041 c -0.69137,0 -1.24826,0.55689 -1.24826,1.24827 v 27.4357 c 0,0.69136 0.55689,1.24825 1.24826,1.24825 h 27.46174 c 0.69136,0 1.24825,-0.55689 1.24825,-1.24825 v -27.4357 c 0,-0.69138 -0.55689,-1.24827 -1.24825,-1.24827 z m 2.91261,4.96702 h 21.6365 v 17.47566 h -21.6365 z"
       id="rect6430-9-7"
       style="color:#000000;display:inline;overflow:visible;visibility:visible;opacity:0.3;fill:#ffffff;fill-opacity:1;fill-rule:nonzero;stroke:none;stroke-width:2.55000019;marker:none;enable-background:accumulate" />
    <path
       inkscape:connector-curvature="0"
       d="m 436.3745,486.21933 c -0.23958,-0.0167 -0.50363,0.0523 -0.72815,0.18202 l -12.61263,7.28153 h 9.98609 l 2.60053,-1.5083 0.85818,1.5083 h 4.83702 l -3.95283,-6.83942 c -0.21606,-0.3742 -0.5889,-0.59623 -0.98821,-0.62413 z m -17.60566,9.93408 -6.89144,3.97882 c -0.59877,0.34571 -0.81379,1.09161 -0.46812,1.69035 l 7.35956,12.74265 v -8.32173 l -1.8724,-3.25068 1.8724,-1.09222 z m 3.74477,0.1041 c -0.69137,0 -1.24826,0.55687 -1.24826,1.24825 v 27.4357 c 0,0.69137 0.55689,1.24827 1.24826,1.24827 h 27.46174 c 0.69136,0 1.24825,-0.5569 1.24825,-1.24827 v -27.4357 c 0,-0.69138 -0.55689,-1.24825 -1.24825,-1.24825 z m 2.91261,4.96702 h 21.6365 v 17.47564 h -21.6365 z"
       id="rect6430-9"
       style="color:#000000;display:inline;overflow:visible;visibility:visible;fill:#163950;fill-opacity:0.85098039;fill-rule:nonzero;stroke:none;stroke-width:2.55000019;marker:none;enable-background:accumulate" />
  </g>
</svg>
