<?xml version="1.0" encoding="UTF-8" standalone="no"?>
<!-- Created with Inkscape (http://www.inkscape.org/) -->

<svg
   xmlns:dc="http://purl.org/dc/elements/1.1/"
   xmlns:cc="http://creativecommons.org/ns#"
   xmlns:rdf="http://www.w3.org/1999/02/22-rdf-syntax-ns#"
   xmlns:svg="http://www.w3.org/2000/svg"
   xmlns="http://www.w3.org/2000/svg"
   xmlns:xlink="http://www.w3.org/1999/xlink"
   xmlns:sodipodi="http://sodipodi.sourceforge.net/DTD/sodipodi-0.dtd"
   xmlns:inkscape="http://www.inkscape.org/namespaces/inkscape"
   version="1.0"
   width="96"
   height="96"
   id="svg2"
   style="display:inline"
   sodipodi:docname="avatar-default.svg"
   inkscape:version="0.92.2 (5c3e80d, 2017-08-06)">
  <sodipodi:namedview
     pagecolor="#ffffff"
     bordercolor="#666666"
     borderopacity="1"
     objecttolerance="10"
     gridtolerance="10"
     guidetolerance="10"
     inkscape:pageopacity="0"
     inkscape:pageshadow="2"
     inkscape:window-width="1952"
     inkscape:window-height="1291"
     id="namedview36"
     showgrid="false"
     inkscape:zoom="1.6783854"
     inkscape:cx="52.244815"
     inkscape:cy="-75.966782"
     inkscape:window-x="1163"
     inkscape:window-y="417"
     inkscape:window-maximized="0"
     inkscape:current-layer="layer1" />
  <defs
     id="defs4">
    <clipPath
       id="clipPath3910">
      <path
         d="M 0,19 V 41 H 22 V 19 Z m 10.96875,2 c 2.688706,0 4.906254,2.01253 4.90625,4.5 -0.01073,0.312615 -0.06808,0.634228 -0.09375,1 0.367348,0.273322 0.391688,1.095693 0.03125,1.9375 -0.130093,0.303837 -0.261269,0.567734 -0.4375,0.78125 -0.05701,0.264083 -0.08285,0.504956 -0.15625,0.8125 -0.199702,0.593858 -0.996956,1.743723 -1.59375,2.65625 -0.03849,0.606892 -0.01307,1.19633 0.0625,1.8125 1.866195,1.60856 6.71115,2.498287 6.71875,3.875 L 20.5,39 H 1.5 L 1.59375,38.375 C 1.58655,36.766441 6.391892,36.053785 8.28125,34.5 8.41295,33.738867 8.37796,33.106639 8.3125,32.4375 7.656093,31.570098 6.930389,30.567676 6.75,30.03125 6.69177,29.767067 6.67315,29.546709 6.625,29.3125 6.6182,29.3052 6.60045,29.32 6.59375,29.3125 6.392039,29.087562 6.177606,28.779315 6.03125,28.4375 5.651701,27.551057 5.699491,26.693597 6.125,26.46875 6.0951,26.114173 6.1315,25.785068 6.125,25.5 6.125,23.012529 8.280046,21 10.96875,21 Z"
         inkscape:connector-curvature="0"
         id="path3912"
         style="color:#000000;display:inline;overflow:visible;visibility:visible;opacity:0.07999998;fill:#ff00ff;fill-opacity:1;fill-rule:nonzero;stroke:none;stroke-width:2;marker:none;enable-background:accumulate" />
    </clipPath>
    <linearGradient
       x1="25"
       y1="2"
       x2="29"
       y2="2"
       id="linearGradient3847"
       xlink:href="#LightGradient"
       gradientUnits="userSpaceOnUse"
       gradientTransform="translate(-20,-29)" />
    <linearGradient
       x1="10.710332"
       y1="1.9963325"
       x2="10.710332"
       y2="18.974037"
       id="LightGradient"
       gradientUnits="userSpaceOnUse"
       gradientTransform="matrix(0.9984539,0,0,0.9984539,-0.0459776,0.05767558)">
      <stop
         id="stop3277-0"
         style="stop-color:#ebebeb;stop-opacity:1"
         offset="0" />
      <stop
         id="stop3279-4"
         style="stop-color:#aaaaaa;stop-opacity:1"
         offset="1" />
    </linearGradient>
    <linearGradient
       x1="25"
       y1="2"
       x2="29"
       y2="2"
       id="linearGradient3843"
       xlink:href="#DarkGradient"
       gradientUnits="userSpaceOnUse"
       gradientTransform="translate(-25,-29)" />
    <linearGradient
       x1="10.710332"
       y1="1.9963325"
       x2="10.710332"
       y2="18.974037"
       id="DarkGradient"
       gradientUnits="userSpaceOnUse"
       gradientTransform="matrix(0.9984539,0,0,0.9984539,-0.0459776,0.05767558)">
      <stop
         id="stop3277"
         style="stop-color:#000000;stop-opacity:0.86274511"
         offset="0" />
      <stop
         id="stop3279"
         style="stop-color:#000000;stop-opacity:0.47058824"
         offset="1" />
    </linearGradient>
    <clipPath
       id="clipPath3924">
      <path
         d="M -30,0 V 22 H -8 V 0 Z m 10.96875,2 c 2.688706,0 4.906254,2.01253 4.90625,4.5 -0.01073,0.312615 -0.06808,0.634228 -0.09375,1 0.367348,0.273322 0.391688,1.095693 0.03125,1.9375 -0.130093,0.303837 -0.261269,0.567734 -0.4375,0.78125 -0.05701,0.264083 -0.08285,0.504956 -0.15625,0.8125 -0.199702,0.593858 -0.996956,1.743723 -1.59375,2.65625 -0.03849,0.606892 -0.01307,1.19633 0.0625,1.8125 1.866195,1.60856 6.71115,2.498287 6.71875,3.875 L -9.5,20 h -19 l 0.09375,-0.625 c -0.0072,-1.608559 4.798142,-2.321215 6.6875,-3.875 0.1317,-0.761133 0.09671,-1.393361 0.03125,-2.0625 -0.656407,-0.867402 -1.382111,-1.869824 -1.5625,-2.40625 -0.05823,-0.264183 -0.07685,-0.484541 -0.125,-0.71875 -0.0068,-0.0073 -0.02455,0.0075 -0.03125,0 -0.201711,-0.224938 -0.416144,-0.533185 -0.5625,-0.875 -0.379549,-0.886443 -0.331759,-1.743903 0.09375,-1.96875 -0.0299,-0.354577 0.0065,-0.683682 0,-0.96875 0,-2.487471 2.155046,-4.5 4.84375,-4.5 z"
         inkscape:connector-curvature="0"
         id="path3927"
         style="color:#000000;display:inline;overflow:visible;visibility:visible;opacity:0.07999998;fill:#ff00ff;fill-opacity:1;fill-rule:nonzero;stroke:none;stroke-width:2;marker:none;enable-background:accumulate" />
    </clipPath>
    <linearGradient
       x1="10.710332"
       y1="1.9963325"
       x2="10.710332"
       y2="18.974037"
       id="linearGradient3064"
       xlink:href="#DarkGradient"
       gradientUnits="userSpaceOnUse"
       gradientTransform="matrix(4.3569054,0,0,4.3568897,-1.0388979,-73.748326)" />
  </defs>
  <metadata
     id="metadata7">
    <rdf:RDF>
      <cc:Work
         rdf:about="">
        <dc:format>image/svg+xml</dc:format>
        <dc:type
           rdf:resource="http://purl.org/dc/dcmitype/StillImage" />
        <dc:title></dc:title>
      </cc:Work>
    </rdf:RDF>
  </metadata>
  <g
     id="layer1"
     style="display:inline"
     transform="translate(0,74)">
    <g
       transform="matrix(4.3636521,0,0,4.3636359,130.07129,-73.999995)"
       clip-path="url(#clipPath3924)"
       id="g3918"
       style="display:inline;opacity:0.5;fill:#ffffff">
      <path
         d="M 10.96875,1 C 8.2059067,0.93268261 5.5015885,2.943941 5.15625,5.78125 a 0.48122411,0.48122411 0 0 0 0,0.09375 c 0.064508,0.7840142 -0.2065407,1.5004344 -0.375,2.40625 a 0.48122411,0.48122411 0 0 0 0,0.03125 C 4.713164,8.9085383 4.9044025,9.4222442 5.125,9.84375 c 0.2205975,0.421506 0.4693523,0.791225 0.59375,1.09375 0.1127037,0.717042 0.5162498,1.278808 0.78125,1.75 a 0.48122411,0.48122411 0 0 0 0.0625,0.09375 c 0.313157,0.312288 0.6676618,0.830052 0.78125,1.28125 0.056794,0.225599 0.042192,0.442002 0,0.59375 -0.042192,0.151748 -0.099187,0.256171 -0.28125,0.375 -1.620056,0.969803 -3.6594469,1.355382 -5.4375,2.53125 -0.00808,0.0053 -0.023182,-0.0054 -0.03125,0 v 0.03125 c -0.67645873,0.461789 -0.94828288,1.219372 -1,1.9375 H 0.5625 c -0.007588,0.02847 0.006745,0.06465 0,0.09375 -0.0386709,0.166864 -0.083409,0.337255 -0.0625,0.53125 0.0202587,0.187961 0.11963555,0.433543 0.3125,0.59375 0.0371616,0.0355 0.0861782,0.03561 0.125,0.0625 0.2564282,0.177581 0.5401292,0.223858 0.75,0.21875 C 1.929144,21.025369 2.1373722,20.989171 2.21875,21 a 0.48122411,0.48122411 0 0 0 0.0625,0 h 18.375 A 0.48122411,0.48122411 0 0 0 20.875,20.96875 c 0.122641,-0.0664 0.278179,-0.146398 0.40625,-0.28125 0.128071,-0.134852 0.197978,-0.335647 0.21875,-0.53125 a 0.48122411,0.48122411 0 0 0 0,-0.09375 c -0.02749,-0.343313 -0.05805,-0.750532 -0.1875,-1.15625 -0.125533,-0.393435 -0.36256,-0.793775 -0.78125,-1.0625 -0.0063,-0.0041 0.0064,-0.02725 0,-0.03125 -0.0076,-0.0054 -0.02367,0.0054 -0.03125,0 -1.907409,-1.351423 -4.132221,-1.7707 -5.84375,-2.90625 -0.09358,-0.417361 -0.03883,-0.757468 0.15625,-1.15625 0.220333,-0.4504 0.589976,-0.925771 0.90625,-1.46875 0.305092,-0.508895 0.493872,-1.024486 0.59375,-1.625 0.01196,-0.01789 0.01937,-0.04429 0.03125,-0.0625 C 16.632431,10.151103 16.87939,9.6151487 17,9.03125 17.112781,8.4852542 17.065678,7.8894116 16.78125,7.34375 17.203982,5.0426857 15.920782,2.7095516 13.875,1.6875 12.978144,1.2128751 11.976718,0.99889428 10.96875,1 Z"
         transform="translate(-30)"
         id="path3926"
         style="display:inline;opacity:0.2;fill:#ffffff;fill-opacity:1;stroke:none;enable-background:new"
         inkscape:connector-curvature="0" />
      <path
         d="M 10.96875,1.21875 C 8.3268796,1.1543802 5.7036173,3.1125728 5.375,5.8125 a 0.24584315,0.24584315 0 0 0 0,0.0625 C 5.4444966,6.7196488 5.1636539,7.4637733 5,8.34375 4.9393773,8.8744558 5.1325396,9.3464305 5.34375,9.75 c 0.1993582,0.380923 0.4204687,0.710651 0.5625,1.03125 0.00844,0.01906 0.023472,0.04358 0.03125,0.0625 0.08262,0.684504 0.463659,1.209613 0.75,1.71875 a 0.24584315,0.24584315 0 0 0 0.03125,0.03125 0.24584315,0.24584315 0 0 0 0,0.03125 c 0.3432737,0.342321 0.7157376,0.866506 0.84375,1.375 0.064006,0.254247 0.056363,0.516033 0,0.71875 -0.056363,0.202717 -0.1497313,0.352972 -0.375,0.5 C 5.5120033,16.221741 3.4811805,16.596555 1.75,17.75 c -0.6351534,0.413652 -0.92624515,1.155321 -0.96875,1.84375 -0.001219,0.01974 8.4031e-4,0.04283 0,0.0625 C 0.7445607,19.810753 0.7325968,19.963532 0.75,20.125 c 0.0183064,0.169848 0.0783145,0.361733 0.25,0.46875 0.011299,0.01079 0.019601,0.02154 0.03125,0.03125 0.200942,0.167454 0.4451182,0.161389 0.65625,0.15625 0.2233713,-0.0054 0.432162,-0.01734 0.5625,0 a 0.24584315,0.24584315 0 0 0 0.03125,0 h 18.375 a 0.24584315,0.24584315 0 0 0 0.0625,0 0.24584315,0.24584315 0 0 0 0.0625,-0.03125 c 0.117105,-0.06341 0.216285,-0.117441 0.3125,-0.21875 0.09622,-0.101309 0.171064,-0.25148 0.1875,-0.40625 a 0.24584315,0.24584315 0 0 0 0,-0.0625 c -0.02743,-0.342512 -0.06928,-0.723222 -0.1875,-1.09375 -0.114152,-0.357766 -0.325153,-0.703367 -0.6875,-0.9375 C 20.39451,18.02285 20.38678,18.00831 20.375,18 18.493684,16.673098 16.211829,16.28199 14.4375,15.0625 14.297574,14.546221 14.40356,14.077672 14.625,13.625 c 0.235484,-0.481371 0.601076,-0.944828 0.90625,-1.46875 0.317204,-0.5291 0.510391,-1.03417 0.59375,-1.65625 0.0075,-0.01127 0.02375,-0.01985 0.03125,-0.03125 0.0027,-0.02158 -0.0024,-0.04062 0,-0.0625 0.269149,-0.4184623 0.515029,-0.9051058 0.625,-1.4375 0.108562,-0.5255715 0.06063,-1.0621607 -0.21875,-1.5625 0.451907,-2.2139884 -0.802688,-4.5115307 -2.78125,-5.5 -0.861068,-0.4556855 -1.841998,-0.6885646 -2.8125,-0.6875 z"
         transform="translate(-30)"
         id="path3924"
         style="display:inline;opacity:0.3;fill:#ffffff;fill-opacity:1;stroke:none;enable-background:new"
         inkscape:connector-curvature="0" />
      <path
         d="m 10.96875,1.46875 c -2.9590682,0 -5.375,2.2318143 -5.375,5.03125 0.00414,0.1814796 -0.00773,0.475785 0,0.78125 C 5.3835076,7.5251775 5.2670366,7.8473209 5.25,8.1875 5.226965,8.647462 5.313395,9.1474469 5.53125,9.65625 c 0.1522951,0.355686 0.3919532,0.635768 0.59375,0.875 0.00499,0.0059 -0.00498,0.0254 0,0.03125 1.127e-4,5.52e-4 -2.128e-4,0.03078 0,0.03125 4.91e-5,1.07e-4 -0.00357,0.02578 0,0.03125 0.020978,0.146505 0.046111,0.315124 0.09375,0.53125 a 0.25985533,0.25985533 0 0 0 0,0.03125 0.25985533,0.25985533 0 0 0 0.03125,0.03125 0.25985533,0.25985533 0 0 0 0,0.03125 c 0.00391,0.01127 0.027138,0.0199 0.03125,0.03125 0.00411,0.01135 0.026936,0.01983 0.03125,0.03125 0.1296272,0.343224 0.3200716,0.717309 0.59375,1.125 0.2721342,0.405391 0.5770517,0.793836 0.875,1.1875 0.046051,0.51577 0.039012,0.991717 -0.03125,1.53125 -0.8419563,0.619098 -2.3436655,1.201103 -3.71875,1.75 -0.7255903,0.289637 -1.4237725,0.576509 -1.96875,0.9375 -0.535019,0.354395 -0.9845331,0.848131 -1,1.5 -4.225e-4,0.01781 -3.59e-5,0.02327 0,0.03125 l -0.09375,0.5625 a 0.25985533,0.25985533 0 0 0 0,0.03125 c -5.28e-6,1.89e-4 0,0.03106 0,0.03125 1.08e-6,2.35e-4 -9.21e-6,0.03102 0,0.03125 1.733e-5,2.34e-4 -2.543e-5,0.03102 0,0.03125 3.351e-5,2.33e-4 -4.154e-5,0.03102 0,0.03125 4.154e-5,2.31e-4 -4.952e-5,0.03102 0,0.03125 5.744e-5,2.28e-4 -6.529e-5,0.03102 0,0.03125 6.529e-5,2.26e-4 0.0311769,-2.23e-4 0.03125,0 7.31e-5,2.23e-4 -8.075e-5,0.03103 0,0.03125 8.83e-5,2.18e-4 -9.582e-5,0.03103 0,0.03125 9.58e-5,2.15e-4 -1.0319e-4,0.03104 0,0.03125 1.032e-4,2.11e-4 0.03114,-2.07e-4 0.03125,0 1.104e-4,2.07e-4 -1.176e-4,0.03105 0,0.03125 1.245e-4,1.99e-4 0.031119,0.03105 0.03125,0.03125 1.38e-4,1.9e-4 -1.445e-4,0.03107 0,0.03125 1.445e-4,1.85e-4 0.031099,-1.8e-4 0.03125,0 1.508e-4,1.8e-4 -1.57e-4,0.03108 0,0.03125 1.57e-4,1.75e-4 0.031087,-1.69e-4 0.03125,0 1.687e-4,1.64e-4 -1.743e-4,0.03109 0,0.03125 1.743e-4,1.58e-4 0.03107,-1.51e-4 0.03125,0 1.796e-4,1.51e-4 -1.848e-4,0.03111 0,0.03125 1.848e-4,1.45e-4 0.03106,-1.39e-4 0.03125,0 1.944e-4,1.32e-4 0.031051,0.03112 0.03125,0.03125 2.03e-4,1.18e-4 0.031043,-1.11e-4 0.03125,0 2.641e-4,1.44e-4 0.03098,0.03112 0.03125,0.03125 2.758e-4,1.2e-4 0.030969,-1.08e-4 0.03125,0 2.808e-4,1.08e-4 0.030965,0.03115 0.03125,0.03125 2.853e-4,9.5e-5 0.030961,-8.2e-5 0.03125,0 2.926e-4,6.9e-5 0.030955,-5.6e-5 0.03125,0 2.954e-4,5.6e-5 0.030952,-4.3e-5 0.03125,0 a 0.25985533,0.25985533 0 0 0 0.03125,0 c 1.892e-4,5e-6 0.031061,0 0.03125,0 h 19 c 1.97e-4,-3e-6 0.03105,8e-6 0.03125,0 1.96e-4,-1.4e-5 0.03105,2e-5 0.03125,0 1.95e-4,-2.5e-5 0.03106,3.1e-5 0.03125,0 1.93e-4,-3.7e-5 0.03106,4.2e-5 0.03125,0 1.91e-4,-4.8e-5 0.03106,5.3e-5 0.03125,0 1.88e-4,-5.9e-5 0.03106,-0.03119 0.03125,-0.03125 1.82e-4,-7.5e-5 0.03107,8e-5 0.03125,0 1.77e-4,-8.5e-5 0.03108,-0.03116 0.03125,-0.03125 3.11e-4,-1.45e-4 0.03095,1.61e-4 0.03125,0 2.95e-4,-1.76e-4 0.03096,-0.03106 0.03125,-0.03125 2.86e-4,-1.9e-4 0.03097,2.05e-4 0.03125,0 2.76e-4,-2.05e-4 0.03099,-0.03103 0.03125,-0.03125 2.65e-4,-2.18e-4 -2.54e-4,-0.03102 0,-0.03125 2.54e-4,-2.32e-4 0.03101,2.44e-4 0.03125,0 a 0.25985533,0.25985533 0 0 0 0,-0.03125 c 1.4e-4,-1.61e-4 0.03111,1.66e-4 0.03125,0 1.3e-4,-1.7e-4 -1.24e-4,-0.03108 0,-0.03125 1.24e-4,-1.74e-4 0.03113,1.78e-4 0.03125,0 1.19e-4,-1.78e-4 -1.13e-4,-0.03107 0,-0.03125 1.07e-4,-1.85e-4 -1.02e-4,-0.03106 0,-0.03125 1.02e-4,-1.88e-4 0.03115,1.91e-4 0.03125,0 9.6e-5,-1.91e-4 -9e-5,-0.03106 0,-0.03125 8.3e-5,-1.97e-4 -7.7e-5,-0.03105 0,-0.03125 7.7e-5,-1.99e-4 0.03118,2.02e-4 0.03125,0 7.1e-5,-2.02e-4 -6.4e-5,-0.03105 0,-0.03125 5.8e-5,-2.06e-4 -5.1e-5,-0.03104 0,-0.03125 a 0.25985533,0.25985533 0 0 0 0,-0.03125 c 3.6e-5,-2.83e-4 -2.4e-5,-0.03097 0,-0.03125 2.4e-5,-2.84e-4 -1.2e-5,-0.03096 0,-0.03125 1.2e-5,-2.85e-4 0,-0.03096 0,-0.03125 -1.2e-5,-2.85e-4 2.4e-5,-0.03097 0,-0.03125 -2.4e-5,-2.84e-4 3.6e-5,-0.03097 0,-0.03125 L 20.9375,19.375 c -5e-6,-9.5e-4 0.0011,-0.0053 0,-0.03125 -0.01282,-0.315984 -0.155259,-0.593193 -0.34375,-0.8125 C 20.392153,18.296693 20.132414,18.129298 19.875,17.96875 19.341222,17.635834 18.67181,17.302566 17.9375,17 16.565577,16.434711 15.056596,15.861236 14.21875,15.21875 14.17028,14.760574 14.13769,14.315814 14.15625,13.875 c 0.280252,-0.427708 0.594931,-0.929174 0.875,-1.375 0.282549,-0.449774 0.487613,-0.820837 0.625,-1.1875 0.0043,-0.01156 0.0271,-0.01975 0.03125,-0.03125 1.82e-4,-1.97e-4 -1.74e-4,-0.03105 0,-0.03125 a 0.25985533,0.25985533 0 0 0 0.03125,0 c 0.0026,-0.0074 -0.0025,-0.02383 0,-0.03125 A 0.25985533,0.25985533 0 0 0 15.75,11.1875 a 0.25985533,0.25985533 0 0 0 0,-0.03125 c 0.07097,-0.297379 0.08357,-0.509064 0.125,-0.71875 0.0133,-0.01841 0.01829,-0.04393 0.03125,-0.0625 0.0044,-0.02098 -7.08e-4,-0.0183 0,-0.03125 0.146689,-0.213206 0.297812,-0.4342394 0.40625,-0.6875 C 16.519783,9.1721371 16.602628,8.6907576 16.59375,8.25 16.587366,7.9330272 16.475149,7.6513802 16.3125,7.40625 16.34013,7.1255274 16.395494,6.8133725 16.40625,6.5 c 4e-6,-2.8079422 -2.478717,-5.03125 -5.4375,-5.03125 z"
         transform="translate(-30)"
         id="path3910"
         style="display:inline;opacity:0.4;fill:#ffffff;fill-opacity:1;stroke:none;enable-background:new"
         inkscape:connector-curvature="0" />
      <path
         d="m 10.96875,1.71875 c -2.8285051,0 -5.125,2.1319673 -5.125,4.78125 0.00511,0.2242845 -0.014794,0.5461799 0,0.875 C 5.6339645,7.5776679 5.5163715,7.8606008 5.5,8.1875 c -0.020456,0.4084609 0.076936,0.8978202 0.28125,1.375 0.157503,0.3678489 0.3778878,0.662113 0.59375,0.90625 0.00526,0.006 -0.00525,0.02539 0,0.03125 0.030818,0.180726 0.042194,0.359854 0.09375,0.59375 A 0.28018576,0.28018576 0 0 0 6.5,11.125 c 0.1095674,0.325822 0.3336306,0.722205 0.625,1.15625 C 7.3962676,12.68535 7.722385,13.090356 8.03125,13.5 8.090941,14.118511 8.104417,14.672816 8,15.34375 7.1101132,16.030815 5.5290334,16.595797 4.125,17.15625 3.4014102,17.445088 2.7312192,17.723042 2.21875,18.0625 1.7162191,18.395375 1.3249939,18.81718 1.3125,19.34375 c -2.471e-4,0.01041 -4.73e-5,0.02074 0,0.03125 L 1.21875,19.96875 A 0.28018576,0.28018576 0 0 0 1.21875,20 0.28018576,0.28018576 0 0 0 1.375,20.25 0.28018576,0.28018576 0 0 0 1.5,20.28125 h 19 a 0.28018576,0.28018576 0 0 0 0.28125,-0.21875 0.28018576,0.28018576 0 0 0 0,-0.09375 L 20.6875,19.375 c -5.5e-5,-0.01 4.01e-4,-0.02136 0,-0.03125 -0.0098,-0.242377 -0.122373,-0.471398 -0.28125,-0.65625 -0.165361,-0.192397 -0.399428,-0.339821 -0.65625,-0.5 -0.513644,-0.320359 -1.18011,-0.6383 -1.90625,-0.9375 -1.408982,-0.580559 -2.99339,-1.191795 -3.875,-1.90625 -0.0596,-0.534028 -0.09187,-1.038731 -0.0625,-1.5625 0.288679,-0.440151 0.615756,-0.943828 0.90625,-1.40625 0.302561,-0.481631 0.53791,-0.898091 0.65625,-1.25 A 0.28018576,0.28018576 0 0 0 15.5,11.09375 c 0.07474,-0.31317 0.106741,-0.543529 0.15625,-0.78125 0.0019,-0.0092 -0.002,-0.0221 0,-0.03125 C 15.816568,10.059218 15.948045,9.8298133 16.0625,9.5625 16.25661,9.1091533 16.351706,8.6449806 16.34375,8.25 16.337347,7.9321067 16.239889,7.653969 16.0625,7.4375 16.08967,7.1247637 16.145625,6.8095579 16.15625,6.5 c 4e-6,-2.653975 -2.358993,-4.78125 -5.1875,-4.78125 z"
         transform="translate(-30)"
         id="path3906"
         style="display:inline;opacity:0.5;fill:#ffffff;fill-opacity:1;stroke:none;enable-background:new"
         inkscape:connector-curvature="0" />
    </g>
    <g
       transform="matrix(4.3636521,0,0,4.3636359,-0.83826769,-156.90908)"
       clip-path="url(#clipPath3910)"
       id="g3904"
       style="display:inline;opacity:0.5;fill:#ffffff">
      <path
         d="m 10.974504,22 c -2.688704,0 -4.844192,1.999781 -4.844192,4.487252 0.0065,0.285068 -0.0299,0.614262 0,0.968839 -0.425509,0.224847 -0.481532,1.102226 -0.101983,1.988669 0.146356,0.341815 0.359195,0.641916 0.560906,0.866854 0.0067,0.0075 0.04422,-0.0073 0.05099,0 0.04815,0.234209 0.04375,0.449699 0.101982,0.713882 0.180389,0.536426 0.92433,1.529198 1.580737,2.3966 0.06546,0.669139 0.08071,1.329519 -0.05099,2.090652 -1.889358,1.553785 -6.687129,2.266795 -6.679887,3.875354 L 1.490085,40 h 19.01983 l -0.101978,-0.611898 c -0.0076,-1.376713 -4.864684,-2.266794 -6.730879,-3.875354 -0.07557,-0.61617 -0.08947,-1.228802 -0.05098,-1.835694 0.596794,-0.912527 1.381035,-2.0577 1.580737,-2.651558 0.0734,-0.307544 0.09597,-0.551782 0.152983,-0.815865 0.176231,-0.213516 0.32883,-0.461034 0.458923,-0.764871 0.360438,-0.841807 0.316358,-1.664357 -0.05099,-1.937679 0.02567,-0.365772 0.09125,-0.707214 0.10198,-1.019829 C 15.869715,23.999782 13.663234,22 10.974528,22 Z"
         inkscape:connector-curvature="0"
         id="path3849"
         style="display:inline;opacity:0.25;fill:#ffffff;fill-opacity:1;stroke:none;enable-background:new" />
      <path
         d="m 10.974504,21.75 c -2.688704,0 -4.844192,1.999781 -4.844192,4.487252 0.0065,0.285068 -0.0299,0.614262 0,0.968839 -0.425509,0.224847 -0.481532,1.102226 -0.101983,1.988669 0.146356,0.341815 0.359195,0.641916 0.560906,0.866854 0.0067,0.0075 0.04422,-0.0073 0.05099,0 0.04815,0.234209 0.04375,0.449699 0.101982,0.713882 0.180389,0.536426 0.92433,1.529198 1.580737,2.3966 0.06546,0.669139 0.08071,1.329519 -0.05099,2.090652 -1.889358,1.553785 -6.687129,2.266795 -6.679887,3.875354 L 1.490085,39.75 h 19.01983 l -0.101978,-0.611898 c -0.0076,-1.376713 -4.864684,-2.266794 -6.730879,-3.875354 -0.07557,-0.61617 -0.08947,-1.228802 -0.05098,-1.835694 0.596794,-0.912527 1.381035,-2.0577 1.580737,-2.651558 0.0734,-0.307544 0.09597,-0.551782 0.152983,-0.815865 0.176231,-0.213516 0.32883,-0.461034 0.458923,-0.764871 0.360438,-0.841807 0.316358,-1.664357 -0.05099,-1.937679 0.02567,-0.365772 0.09125,-0.707214 0.10198,-1.019829 4e-6,-2.48747 -2.206477,-4.487252 -4.895183,-4.487252 z"
         inkscape:connector-curvature="0"
         id="path3853"
         style="display:inline;opacity:0.5;fill:#ffffff;fill-opacity:1;stroke:none;enable-background:new" />
      <path
         d="m 10.974504,21.5 c -2.688704,0 -4.844192,1.999781 -4.844192,4.487252 0.0065,0.285068 -0.0299,0.614262 0,0.968839 -0.425509,0.224847 -0.481532,1.102226 -0.101983,1.988669 0.146356,0.341815 0.359195,0.641916 0.560906,0.866854 0.0067,0.0075 0.04422,-0.0073 0.05099,0 0.04815,0.234209 0.04375,0.449699 0.101982,0.713882 0.180389,0.536426 0.92433,1.529198 1.580737,2.3966 0.06546,0.669139 0.08071,1.329519 -0.05099,2.090652 -1.889358,1.553785 -6.687129,2.266795 -6.679887,3.875354 L 1.490085,39.5 h 19.01983 l -0.101978,-0.611898 c -0.0076,-1.376713 -4.864684,-2.266794 -6.730879,-3.875354 -0.07557,-0.61617 -0.08947,-1.228802 -0.05098,-1.835694 0.596794,-0.912527 1.381035,-2.0577 1.580737,-2.651558 0.0734,-0.307544 0.09597,-0.551782 0.152983,-0.815865 0.176231,-0.213516 0.32883,-0.461034 0.458923,-0.764871 0.360438,-0.841807 0.316358,-1.664357 -0.05099,-1.937679 0.02567,-0.365772 0.09125,-0.707214 0.10198,-1.019829 C 15.869715,23.499782 13.663234,21.5 10.974528,21.5 Z"
         inkscape:connector-curvature="0"
         id="path3855"
         style="display:inline;opacity:0.75;fill:#ffffff;fill-opacity:1;stroke:none;enable-background:new" />
      <path
         d="m 10.974504,21.25 c -2.688704,0 -4.844192,1.999781 -4.844192,4.487252 0.0065,0.285068 -0.0299,0.614262 0,0.968839 -0.425509,0.224847 -0.481532,1.102226 -0.101983,1.988669 0.146356,0.341815 0.359195,0.641916 0.560906,0.866854 0.0067,0.0075 0.04422,-0.0073 0.05099,0 0.04815,0.234209 0.04375,0.449699 0.101982,0.713882 0.180389,0.536426 0.92433,1.529198 1.580737,2.3966 0.06546,0.669139 0.08071,1.329519 -0.05099,2.090652 -1.889358,1.553785 -6.687129,2.266795 -6.679887,3.875354 L 1.490085,39.25 h 19.01983 l -0.101978,-0.611898 c -0.0076,-1.376713 -4.864684,-2.266794 -6.730879,-3.875354 -0.07557,-0.61617 -0.08947,-1.228802 -0.05098,-1.835694 0.596794,-0.912527 1.381035,-2.0577 1.580737,-2.651558 0.0734,-0.307544 0.09597,-0.551782 0.152983,-0.815865 0.176231,-0.213516 0.32883,-0.461034 0.458923,-0.764871 0.360438,-0.841807 0.316358,-1.664357 -0.05099,-1.937679 0.02567,-0.365772 0.09125,-0.707214 0.10198,-1.019829 4e-6,-2.48747 -2.206477,-4.487252 -4.895183,-4.487252 z"
         inkscape:connector-curvature="0"
         id="path3857"
         style="display:inline;fill:#ffffff;fill-opacity:1;stroke:none;enable-background:new" />
    </g>
    <path
       d="m 47.050647,-65.272723 c -11.732566,0 -21.138367,8.726317 -21.138367,19.580734 0.02836,1.243933 -0.130473,2.680416 0,4.227661 -1.856772,0.98115 -2.101237,4.809712 -0.445018,8.677826 0.638647,1.491557 1.567402,2.801091 2.447599,3.782635 0.02924,0.03271 0.192961,-0.03176 0.222503,0 0.210109,1.022002 0.190909,1.962325 0.445013,3.115121 0.787156,2.340768 4.033455,6.672867 6.897787,10.457889 0.285644,2.91988 0.352189,5.8015385 -0.222502,9.1228459 C 27.01316,0.47214206 6.0773571,3.5834565 6.1089587,10.602622 l -0.445014,2.670101 H 88.659862 L 88.214866,10.602622 C 88.181703,4.5951488 66.987078,0.71115962 58.843652,-6.3080111 58.51389,-8.9967513 58.453236,-11.670057 58.621194,-14.318311 c 2.604201,-3.981937 6.026355,-8.979056 6.897786,-11.570435 0.320291,-1.342007 0.418779,-2.407777 0.667564,-3.560135 0.769011,-0.931707 1.434899,-2.011785 2.00258,-3.337621 1.572826,-3.673338 1.380477,-7.262647 -0.222502,-8.455325 0.112014,-1.596096 0.398183,-3.086024 0.445005,-4.450162 1.8e-5,-10.854413 -9.628298,-19.580734 -21.360875,-19.580734 z"
       inkscape:connector-curvature="0"
       id="path3798"
       style="display:inline;fill:url(#linearGradient3064);fill-opacity:1;stroke:none;stroke-width:4.36364365;enable-background:new" />
    <path
       d="m 47.025538,-65.272723 c -11.732566,0 -21.136437,8.781941 -21.136437,19.636361 0.02849,1.243931 -0.130473,2.680027 0,4.227273 0.07759,-10.791698 9.45254,-19.499998 21.136437,-19.499998 10.845304,0 19.966444,7.480681 21.272805,17.181816 0.07727,-0.641894 0.115919,-1.313519 0.136362,-1.909091 1.8e-5,-10.854413 -9.676589,-19.636361 -21.409167,-19.636361 z m -21.136437,23.863634 c -1.458891,0.770906 -1.89897,3.211753 -1.227277,6.136364 0.253925,-0.812467 0.629487,-1.456846 1.227277,-1.772729 -0.130473,-1.547245 0.02849,-2.983341 0,-4.227272 0,-0.04503 -3.23e-4,-0.09141 0,-0.136363 z m 42.545604,0.681818 c -0.08741,1.222153 -0.310953,2.41986 -0.409091,3.818182 0.455481,0.338894 0.598623,0.963518 0.818185,1.636364 0.52181,-2.292916 0.401718,-4.310925 -0.409094,-5.454546 z M 35.570953,-9.2272743 c -0.06757,0.9564637 -0.09515,1.8373109 -0.272727,2.8636364 C 27.053726,0.41651524 6.0846998,3.5262844 6.1163027,10.54545 L 5.7072104,13.272723 H 6.6617592 C 9.6513649,7.3994894 27.74887,4.2084724 35.298226,-2.000002 c 0.45785,-2.646059 0.415419,-4.8976724 0.272727,-7.2272723 z m 23.045536,0 c -0.117251,2.4241063 -0.0288,4.7700411 0.272729,7.2272723 7.338711,6.3255539 25.13868,10.1908238 28.636465,15.272725 h 1.090914 L 88.207504,10.54545 C 88.174343,4.5379766 67.032642,0.6555328 58.889218,-6.3636379 58.769915,-7.3363322 58.667281,-8.2590785 58.616489,-9.2272743 Z"
       inkscape:connector-curvature="0"
       id="path3850"
       style="display:inline;opacity:0.15;fill:#000000;fill-opacity:1;stroke:none;stroke-width:4.36364365;enable-background:new" />
    <path
       d="m 47.025538,-65.272723 c -11.732566,0 -21.136437,8.781941 -21.136437,19.636361 0.02209,0.963043 -0.01863,2.116816 0,3.272727 0,-10.85442 9.403871,-19.636361 21.136437,-19.636361 10.999292,0 20.172056,7.688443 21.272805,17.590907 0.04193,-0.403807 0.123172,-0.84299 0.136362,-1.227273 1.8e-5,-10.854413 -9.676589,-19.636361 -21.409167,-19.636361 z m -21.136437,23.863634 c -1.392578,0.735865 -1.906567,2.972637 -1.363642,5.727272 0.198429,-1.170185 0.600554,-2.051316 1.363642,-2.454546 -0.10101,-1.197867 -0.02466,-2.245589 0,-3.272726 z m 42.409242,0.545454 c -0.106649,0.950564 -0.199202,1.816054 -0.272729,2.863636 0.570817,0.424708 0.75749,1.253723 0.954548,2.181819 0.392597,-2.181518 0.169746,-4.029981 -0.681819,-5.045455 z m -32.72739,31.2272678 c -0.06167,1.08327 -0.06998,2.1010062 -0.272727,3.2727293 C 27.053726,0.41651524 6.0846998,3.5262844 6.1163027,10.54545 L 5.7072104,13.272723 H 6.2526668 C 7.3353727,6.6562089 27.284087,3.4997958 35.298226,-3.0909134 c 0.413129,-2.3875921 0.365526,-4.4347301 0.272727,-6.5454538 z m 23.045536,0.1363768 c -0.06475,2.154007 0.0053,4.2296767 0.272729,6.4090865 7.888941,6.7998253 27.900902,10.667489 29.181922,16.3636369 h 0.545457 L 88.207504,10.545459 C 88.174343,4.5379861 67.032642,0.65554228 58.889218,-6.3636284 58.758657,-7.428056 58.665188,-8.4410046 58.616489,-9.4999904 Z"
       inkscape:connector-curvature="0"
       id="path3859"
       style="display:inline;opacity:0.3;fill:#000000;fill-opacity:1;stroke:none;stroke-width:4.36364365;enable-background:new" />
    <path
       d="m 47.025538,-65.272723 c -11.732566,0 -21.136437,8.781941 -21.136437,19.636361 0.01471,0.64203 0.0196,1.448448 0,2.181819 0,-10.854422 9.403871,-19.636362 21.136437,-19.636362 11.291308,0 20.586048,8.125956 21.272805,18.409089 0.02901,-0.311709 0.126074,-0.654779 0.136362,-0.954546 1.8e-5,-10.854413 -9.676589,-19.636361 -21.409167,-19.636361 z m -21.136437,23.863634 c -1.246397,0.658619 -1.657498,2.533675 -1.363642,4.90909 0.162153,-1.317431 0.537153,-2.29054 1.363642,-2.727273 -0.06734,-0.798578 -0.02129,-1.453497 0,-2.181817 z m 42.272876,0.409092 c -0.08088,0.654736 -0.08747,1.212246 -0.136363,1.90909 0.658785,0.49016 0.93325,1.451687 1.090913,2.590908 0.232189,-1.992799 -0.0902,-3.634125 -0.95455,-4.499998 z m -32.591024,30.954542 c -0.05255,1.2086397 -0.04482,2.3646963 -0.272727,3.6818171 C 27.053726,0.41651524 6.0846998,3.5262844 6.1163027,10.54545 L 5.7072104,13.272723 H 5.9799386 L 6.1163027,12.727269 C 6.0847099,5.7081023 27.053726,2.5983333 35.298226,-4.1818199 c 0.368406,-2.1291253 0.320139,-3.9699678 0.272727,-5.8636351 z m 22.909172,0.272706 c -0.02138,1.8811962 0.176073,3.6909094 0.409093,5.5909102 8.143424,7.0191706 29.285123,10.9016145 29.318286,16.9090888 l 0.136365,0.545454 h 0.272728 L 88.207504,10.545431 C 88.174343,4.5379577 67.032642,0.65551384 58.889218,-6.3636568 58.746832,-7.524558 58.525419,-8.6183752 58.480125,-9.772749 Z"
       inkscape:connector-curvature="0"
       id="path3868"
       style="display:inline;opacity:0.45;fill:#000000;fill-opacity:1;stroke:none;stroke-width:4.36364365;enable-background:new" />
    <path
       d="m 47.025538,-65.272723 c -11.388635,0 -20.470694,8.272197 -21.000075,18.681816 1.076321,-9.902469 10.000793,-17.590907 21.000075,-17.590907 10.999292,0 20.172056,7.688443 21.272805,17.590907 C 67.75669,-57.00052 58.414186,-65.272723 47.025538,-65.272723 Z m -21.136439,23.863634 c -1.074567,0.567822 -1.561345,2.023625 -1.500006,3.954545 0.136028,-1.409087 0.635024,-2.406562 1.500006,-2.863637 -0.0336,-0.39929 0.0033,-0.707778 0,-1.090908 z m 42.272878,0.272726 c -0.03709,0.340273 -0.111752,0.603804 -0.136363,0.954545 0.713521,0.530884 0.967648,1.586999 1.090913,2.863636 0.06458,-1.698334 -0.149849,-3.091695 -0.95455,-3.818181 z m -32.454661,30.545452 c -0.03535,1.3776157 -0.146924,2.7120147 -0.409092,4.2272731 C 27.053727,0.41651524 6.084699,3.5262844 6.1163005,10.54545 L 5.7072082,13.272723 H 5.8435723 L 6.1163005,11.636362 C 6.0848825,4.6171957 27.053727,1.5074219 35.298224,-5.2727313 c 0.332074,-1.9191229 0.423753,-3.6004417 0.409092,-5.3181797 z m 22.772809,0.545456 c 0.01178,1.6088352 0.210153,3.1505394 0.409093,4.7727237 8.143424,7.0191707 29.285123,10.9016193 29.318286,16.9090933 l 0.272728,1.636361 h 0.136365 L 88.207504,10.54545 C 88.174343,4.5379766 67.032642,0.6555328 58.889218,-6.3636379 58.735574,-7.6162771 58.521055,-8.8004955 58.480125,-10.045455 Z"
       inkscape:connector-curvature="0"
       id="path3877"
       style="display:inline;opacity:0.6;fill:#000000;fill-opacity:1;stroke:none;stroke-width:4.36364365;enable-background:new" />
  </g>
</svg>
