/* XPM */
static char * close_prelight_xpm[] = {
"25 26 24 1",
" 	c None",
".	c #6A6A6A",
"+	c #D6D6D6",
"@	c #D5D5D5",
"#	c #A8A8A8",
"$	c #7B7B7B",
"%	c #616161",
"&	c #575757",
"*	c #A9A9A9",
"=	c #C4C4C4",
"-	c #6D6D6D",
";	c #555555",
">	c #6E6E6E",
",	c #5F5F5F",
"'	c #606060",
")	c #C5C5C5",
"!	c #7C7C7C",
"~	c #CFCFCF",
"{	c #989898",
"]	c #626262",
"^	c #585858",
"/	c #999999",
"(	c #6F6F6F",
"_	c #C6C6C6",
".........................",
"+++++++++++++++++++++++++",
"+++++++++++++++++++++++++",
"+++++++++++++++++++++++++",
"+++++++++++++++++++++++++",
"++++++++@#$%&%$*@++++++++",
"+++++++=-;;;;;;;>=+++++++",
"++++++=,;;;;;;;;;')++++++",
"+++++@-;;;;;;;;;;;>@+++++",
"+++++#;;;$$;;;$$;;;*+++++",
"+++++$;;;!~$;$~$;;;!+++++",
"+++++%;;;;$~{~$;;;;]+++++",
"+++++^;;;;;{+{;;;;;^+++++",
"+++++%;;;;$~/~$;;;;]+++++",
"+++++$;;;$~$;!~$;;;!+++++",
"+++++*;;;!$;;;!!;;;*+++++",
"+++++@>;;;;;;;;;;;(@+++++",
"++++++=';;;;;;;;;'_++++++",
"+++++++)>;;;;;;;()+++++++",
"++++++++@*!]^]!*@++++++++",
"+++++++++++++++++++++++++",
"+++++++++++++++++++++++++",
"+++++++++++++++++++++++++",
"+++++++++++++++++++++++++",
"+++++++++++++++++++++++++",
"+++++++++++++++++++++++++"};
