/* XPM */
static char * hide_prelight_xpm[] = {
"25 26 35 1",
" 	c None",
".	c #6A6A6A",
"+	c #D6D6D6",
"@	c #D5D5D5",
"#	c #B1B1B1",
"$	c #8E8E8E",
"%	c #787878",
"&	c #707070",
"*	c #777777",
"=	c #8C8C8C",
"-	c #AFAFAF",
";	c #D4D4D4",
">	c #C8C8C8",
",	c #838383",
"'	c #6C6C6C",
")	c #818181",
"!	c #C7C7C7",
"~	c #C9C9C9",
"{	c #757575",
"]	c #C6C6C6",
"^	c #848484",
"/	c #808080",
"(	c #B4B4B4",
"_	c #8F8F8F",
":	c #8A8A8A",
"<	c #797979",
"[	c #747474",
"}	c #737373",
"|	c #D3D3D3",
"1	c #6D6D6D",
"2	c #7B7B7B",
"3	c #909090",
"4	c #8B8B8B",
"5	c #B5B5B5",
"6	c #B3B3B3",
".........................",
"+++++++++++++++++++++++++",
"+++++++++++++++++++++++++",
"+++++++++++++++++++++++++",
"+++++++++++++++++++++++++",
"++++++++@#$%&*=-;++++++++",
"+++++++>,''''''')!+++++++",
"++++++~*'''''''''{]++++++",
"+++++@^'''''''''''/;+++++",
"+++++('''''''''''''-+++++",
"+++++_''''''''''''':+++++",
"+++++<'''''''''''''[+++++",
"+++++}'''|++++++&''1@++++",
"+++++2'''''''''''''{+++++",
"+++++3'''''''''''''4+++++",
"+++++5'''''''''''''-+++++",
"+++++@^''''''''''');+++++",
"++++++~%'''''''''{!++++++",
"+++++++~^'''''''/!+++++++",
"++++++++@6$*&%=#@++++++++",
"+++++++++++++++++++++++++",
"+++++++++++++++++++++++++",
"+++++++++++++++++++++++++",
"+++++++++++++++++++++++++",
"+++++++++++++++++++++++++",
"+++++++++++++++++++++++++"};
