/* XPM */
static char * hide_pressed_xpm[] = {
"25 26 38 1",
" 	c None",
".	c #6A6A6A",
"+	c #D6D6D6",
"@	c #D5D5D5",
"#	c #ABABAB",
"$	c #7D7D7D",
"%	c #636363",
"&	c #585858",
"*	c #7B7B7B",
"=	c #A7A7A7",
"-	c #D4D4D4",
";	c #C5C5C5",
">	c #707070",
",	c #565656",
"'	c #6C6C6C",
")	c #C3C3C3",
"!	c #C6C6C6",
"~	c #606060",
"{	c #C2C2C2",
"]	c #727272",
"^	c #D3D3D3",
"/	c #ACACAC",
"(	c #A6A6A6",
"_	c #7F7F7F",
":	c #797979",
"<	c #666666",
"[	c #5E5E5E",
"}	c #D2D2D2",
"|	c #5A5A5A",
"1	c #676767",
"2	c #818181",
"3	c #ADADAD",
"4	c #737373",
"5	c #C7C7C7",
"6	c #6E6E6E",
"7	c #C4C4C4",
"8	c #7E7E7E",
"9	c #A9A9A9",
".........................",
"+++++++++++++++++++++++++",
"+++++++++++++++++++++++++",
"+++++++++++++++++++++++++",
"+++++++++++++++++++++++++",
"++++++++@#$%&%*=-++++++++",
"+++++++;>,,,,,,,')+++++++",
"++++++!%,,,,,,,,,~{++++++",
"+++++@],,,,,,,,,,,'^+++++",
"+++++/,,,,,,,,,,,,,(+++++",
"+++++_,,,,,,,,,,,,,:+++++",
"+++++<,,,,,,,,,,,,,~+++++",
"+++++[,,,}++++++|,,,@++++",
"+++++1,,,,,,,,,,,,,~+++++",
"+++++2,,,,,,,,,,,,,*+++++",
"+++++3,,,,,,,,,,,,,(+++++",
"+++++@4,,,,,,,,,,,'-+++++",
"++++++5%,,,,,,,,,~)++++++",
"+++++++!],,,,,,,67+++++++",
"++++++++@#8%&%*9@++++++++",
"+++++++++++++++++++++++++",
"+++++++++++++++++++++++++",
"+++++++++++++++++++++++++",
"+++++++++++++++++++++++++",
"+++++++++++++++++++++++++",
"+++++++++++++++++++++++++"};
