/* XPM */
static char * maximize_prelight_xpm[] = {
"25 26 19 1",
" 	c None",
".	c #6A6A6A",
"+	c #D6D6D6",
"@	c #D5D5D5",
"#	c #B1B1B1",
"$	c #8C8C8C",
"%	c #777777",
"&	c #707070",
"*	c #C8C8C8",
"=	c #818181",
"-	c #6C6C6C",
";	c #757575",
">	c #828282",
",	c #B2B2B2",
"'	c #8B8B8B",
")	c #8D8D8D",
"!	c #767676",
"~	c #787878",
"{	c #8E8E8E",
".........................",
"+++++++++++++++++++++++++",
"+++++++++++++++++++++++++",
"+++++++++++++++++++++++++",
"+++++++++++++++++++++++++",
"++++++++@#$%&%$#@++++++++",
"+++++++*=-------=*+++++++",
"++++++*;---------;*++++++",
"+++++@=----------->@+++++",
"+++++#---+++++++---,+++++",
"+++++'---+-----+---)+++++",
"+++++!---+-----+---~+++++",
"+++++&---+-----+---&+++++",
"+++++%---+-----+---%+++++",
"+++++$---+-----+---{+++++",
"+++++#---+++++++---#+++++",
"+++++@=-----------=@+++++",
"++++++*;---------;*++++++",
"+++++++*>-------=*+++++++",
"++++++++@,)~&~{#@++++++++",
"+++++++++++++++++++++++++",
"+++++++++++++++++++++++++",
"+++++++++++++++++++++++++",
"+++++++++++++++++++++++++",
"+++++++++++++++++++++++++",
"+++++++++++++++++++++++++"};
