/* XPM */
static char * menu_pressed_xpm[] = {
"25 26 11 1",
" 	c None",
".	c #6A6A6A",
"+	c #D6D6D6",
"@	c #D5D5D5",
"#	c #D0D0D0",
"$	c #C8C8C8",
"%	c #C1C1C1",
"&	c #C6C6C6",
"*	c #D2D2D2",
"=	c #EDEDED",
"-	c #FFFFFF",
".........................",
"+++++++++++++++++++++++++",
"+++++++++++++++++++++++++",
"+++++++++++++++++++++++++",
"+++++++++++++++++++++++++",
"+++++++++++++++++++++++++",
"+++++++++++++++++++++++++",
"+++++++++++++++++++++++++",
"+++++++++++++++++++++++++",
"++++++++@#$%%$#@+++++++++",
"++++++++#&*==*&#+++++++++",
"++++++++$*----*$+++++++++",
"++++++++%=----=%+++++++++",
"++++++++%=----=%+++++++++",
"++++++++$*----*$+++++++++",
"++++++++#&*==*&#+++++++++",
"++++++++@#$%%$#@+++++++++",
"+++++++++++++++++++++++++",
"+++++++++++++++++++++++++",
"+++++++++++++++++++++++++",
"+++++++++++++++++++++++++",
"+++++++++++++++++++++++++",
"+++++++++++++++++++++++++",
"+++++++++++++++++++++++++",
"+++++++++++++++++++++++++",
"+++++++++++++++++++++++++"};
