<?xml version="1.0" encoding="UTF-8" standalone="no"?>
<!-- Created with Inkscape (http://www.inkscape.org/) -->

<svg
   xmlns:dc="http://purl.org/dc/elements/1.1/"
   xmlns:cc="http://creativecommons.org/ns#"
   xmlns:rdf="http://www.w3.org/1999/02/22-rdf-syntax-ns#"
   xmlns:svg="http://www.w3.org/2000/svg"
   xmlns="http://www.w3.org/2000/svg"
   xmlns:xlink="http://www.w3.org/1999/xlink"
   xmlns:sodipodi="http://sodipodi.sourceforge.net/DTD/sodipodi-0.dtd"
   xmlns:inkscape="http://www.inkscape.org/namespaces/inkscape"
   width="22"
   height="22"
   id="svg5453"
   version="1.1"
   inkscape:version="0.92.2 (5c3e80d, 2017-08-06)"
   sodipodi:docname="folder-saved-search.svg">
  <defs
     id="defs5455">
    <linearGradient
       inkscape:collect="always"
       id="linearGradient4233">
      <stop
         style="stop-color:#345671;stop-opacity:1;"
         offset="0"
         id="stop4235" />
      <stop
         style="stop-color:#345671;stop-opacity:0;"
         offset="1"
         id="stop4237" />
    </linearGradient>
    <linearGradient
       id="linearGradient4232"
       inkscape:collect="always">
      <stop
         id="stop4234"
         offset="0"
         style="stop-color:#3d6584;stop-opacity:1" />
      <stop
         id="stop4236"
         offset="1"
         style="stop-color:#4a7ba3;stop-opacity:1" />
    </linearGradient>
    <linearGradient
       id="linearGradient4172">
      <stop
         style="stop-color:#7c92ba;stop-opacity:1;"
         offset="0"
         id="stop4174" />
      <stop
         style="stop-color:#8eb7dd;stop-opacity:1"
         offset="1"
         id="stop4176" />
    </linearGradient>
    <linearGradient
       inkscape:collect="always"
       xlink:href="#linearGradient4172"
       id="linearGradient4178"
       x1="414.57144"
       y1="541.79797"
       x2="414.57144"
       y2="499.798"
       gradientUnits="userSpaceOnUse"
       gradientTransform="matrix(0.34375012,0,0,0.34363805,252.37496,359.55315)" />
    <linearGradient
       inkscape:collect="always"
       xlink:href="#linearGradient4232"
       id="linearGradient4182"
       gradientUnits="userSpaceOnUse"
       x1="414.57144"
       y1="523.79797"
       x2="414.57144"
       y2="505.798"
       gradientTransform="matrix(0.34375012,0,0,0.34359333,252.37496,354.07613)" />
    <linearGradient
       inkscape:collect="always"
       xlink:href="#linearGradient4233"
       id="linearGradient4239"
       x1="384.57144"
       y1="477.798"
       x2="404.57144"
       y2="497.798"
       gradientUnits="userSpaceOnUse"
       gradientTransform="matrix(0.34375012,0,0,0.34374992,252.37496,359.49254)" />
  </defs>
  <sodipodi:namedview
     id="base"
     pagecolor="#ffffff"
     bordercolor="#666666"
     borderopacity="1.0"
     inkscape:pageopacity="0"
     inkscape:pageshadow="2"
     inkscape:zoom="15.999999"
     inkscape:cx="-10.974923"
     inkscape:cy="12.314942"
     inkscape:document-units="px"
     inkscape:current-layer="layer1"
     showgrid="true"
     fit-margin-top="0"
     fit-margin-left="0"
     fit-margin-right="0"
     fit-margin-bottom="0"
     inkscape:window-width="3738"
     inkscape:window-height="2041"
     inkscape:window-x="102"
     inkscape:window-y="55"
     inkscape:window-maximized="1"
     inkscape:showpageshadow="false"
     borderlayer="true"
     showguides="true">
    <sodipodi:guide
       position="6.0000117,57.999996"
       orientation="51.999969,0"
       id="guide4097"
       inkscape:locked="false" />
    <sodipodi:guide
       position="6.0000117,6.0000264"
       orientation="0,52"
       id="guide4099"
       inkscape:locked="false" />
    <sodipodi:guide
       position="58.000012,6.0000264"
       orientation="-51.999969,0"
       id="guide4101"
       inkscape:locked="false" />
    <sodipodi:guide
       position="58.000012,57.999996"
       orientation="0,-52"
       id="guide4103"
       inkscape:locked="false" />
    <sodipodi:guide
       position="3.0000117,60.999996"
       orientation="57.999969,0"
       id="guide4105"
       inkscape:locked="false" />
    <sodipodi:guide
       position="3.0000117,3.0000264"
       orientation="0,58"
       id="guide4107"
       inkscape:locked="false" />
    <sodipodi:guide
       position="61.000012,3.0000264"
       orientation="-57.999969,0"
       id="guide4109"
       inkscape:locked="false" />
    <sodipodi:guide
       position="61.000012,60.999996"
       orientation="0,-58"
       id="guide4111"
       inkscape:locked="false" />
    <inkscape:grid
       type="xygrid"
       id="grid4115" />
  </sodipodi:namedview>
  <metadata
     id="metadata5458">
    <rdf:RDF>
      <cc:Work
         rdf:about="">
        <dc:format>image/svg+xml</dc:format>
        <dc:type
           rdf:resource="http://purl.org/dc/dcmitype/StillImage" />
        <dc:title></dc:title>
      </cc:Work>
    </rdf:RDF>
  </metadata>
  <g
     inkscape:label="Capa 1"
     inkscape:groupmode="layer"
     id="layer1"
     transform="translate(-384.57143,-525.798)">
    <path
       style="fill:url(#linearGradient4182);fill-opacity:1;stroke:none;stroke-width:0.34375003"
       d="m 385.94644,527.86056 v 1.71875 7.5625 c 0,0.19034 0.15331,0.34375 0.34375,0.34375 h 18.5625 c 0.19044,0 0.34376,-0.15341 0.34376,-0.34375 v -7.55914 c 0,-10e-4 -6.9e-4,-0.002 -6.9e-4,-0.003 h 6.9e-4 v -0.34375 h -9.62501 l -1.03125,-1.375 h -8.59375 z"
       id="rect4180"
       inkscape:connector-curvature="0" />
    <path
       style="fill:url(#linearGradient4239);fill-opacity:1;fill-rule:evenodd;stroke:none;stroke-width:0.34375003px;stroke-linecap:butt;stroke-linejoin:miter;stroke-opacity:1"
       d="m 385.94644,527.86056 8.9375,8.9375 0.34375,0.34375 9.96876,-5.75546 v -2.15079 h -9.62501 l -1.03125,-1.375 z"
       id="path4230"
       inkscape:connector-curvature="0" />
    <path
       style="fill:url(#linearGradient4178);fill-opacity:1;stroke:none;stroke-width:0.34375003"
       d="m 392.13394,531.29806 -1.03125,1.375 h -5.5 v 0.34375 h 6.9e-4 c -2e-5,0.001 -6.9e-4,0.003 -6.9e-4,0.004 v 12.37097 0.34375 h 0.34375 19.25001 0.34375 v -0.34375 -12.37097 -0.004 -1.71875 z"
       id="rect4113"
       inkscape:connector-curvature="0" />
    <path
       style="fill:#8fb1cc;fill-opacity:1;fill-rule:evenodd;stroke:none;stroke-width:0.34375003px;stroke-linecap:butt;stroke-linejoin:miter;stroke-opacity:1"
       d="m 405.19645,529.23556 v 0.34375 h -9.96876 l -0.6875,-1.71875 1.03125,1.375 z"
       id="path4222"
       inkscape:connector-curvature="0" />
    <path
       style="fill:#ffffff;fill-opacity:0.23529412;fill-rule:evenodd;stroke:none;stroke-width:0.34375003px;stroke-linecap:butt;stroke-linejoin:miter;stroke-opacity:1"
       d="m 385.60269,532.67306 v 0.34375 h 5.84375 l 0.6875,-1.71875 -1.03125,1.375 z"
       id="path4224"
       inkscape:connector-curvature="0" />
    <path
       style="fill:#345671;fill-opacity:1;fill-rule:evenodd;stroke:none;stroke-width:0.34375003px;stroke-linecap:butt;stroke-linejoin:miter;stroke-opacity:1"
       d="m 385.94644,532.32931 v 0.34375 h 5.15625 l 1.03125,-1.375 -1.71875,1.03125 z"
       id="path4228"
       inkscape:connector-curvature="0" />
    <path
       inkscape:connector-curvature="0"
       style="fill:#466e9a;fill-opacity:1;stroke:none;stroke-width:0.34375003"
       d="m 385.60269,545.3918 v 0.34375 h 0.34375 19.25001 0.34375 v -0.34375 h -0.34375 -19.25001 z"
       id="path4151-2" />
    <path
       d="m 394.90612,534.4348 c -0.15052,0 -0.27174,0.12119 -0.27174,0.27172 v 0.91705 c -0.29815,0.0765 -0.57333,0.20434 -0.83213,0.35664 l -0.66231,-0.66232 c -0.10642,-0.10644 -0.26715,-0.10644 -0.37362,0 l -0.78117,0.7812 c -0.10647,0.10644 -0.10647,0.26717 0,0.37361 l 0.66225,0.66232 c -0.15226,0.2588 -0.28012,0.53399 -0.35655,0.83213 h -0.91706 c -0.15055,0 -0.27172,0.1212 -0.27172,0.27173 v 1.08687 c 0,0.15054 0.12117,0.27172 0.27172,0.27172 h 0.91706 c 0.0765,0.29815 0.20429,0.57334 0.35655,0.83214 l -0.66225,0.66232 c -0.10647,0.10644 -0.10647,0.26717 0,0.37361 l 0.78117,0.78119 c 0.10647,0.10645 0.2672,0.10645 0.37362,0 l 0.66231,-0.66231 c 0.2588,0.15229 0.53398,0.28015 0.83213,0.35663 v 0.91705 c 0,0.15053 0.12122,0.27172 0.27174,0.27172 h 1.0869 c 0.15051,0 0.27168,-0.12119 0.27168,-0.27172 v -0.91705 c 0.29815,-0.0765 0.57335,-0.20434 0.83211,-0.35663 l 0.66238,0.66231 c 0.10645,0.10645 0.26718,0.10645 0.37361,0 l 0.78117,-0.78119 c 0.10647,-0.10644 0.10647,-0.26717 0,-0.37361 l -0.66233,-0.66232 c 0.15234,-0.2588 0.28016,-0.53399 0.35664,-0.83214 h 0.91708 c 0.15052,0 0.27173,-0.12118 0.27173,-0.27172 v -1.08687 c 0,-0.15053 -0.12121,-0.27173 -0.27173,-0.27173 h -0.91708 c -0.0765,-0.29814 -0.20428,-0.57333 -0.35664,-0.83213 l 0.66233,-0.66232 c 0.10647,-0.10644 0.10647,-0.26717 0,-0.37361 l -0.78117,-0.7812 c -0.10643,-0.10644 -0.26716,-0.10644 -0.37361,0 l -0.66238,0.66232 c -0.25876,-0.1523 -0.53396,-0.28015 -0.83211,-0.35664 v -0.91705 c 0,-0.15053 -0.12117,-0.27172 -0.27168,-0.27172 z m 0.54346,2.7172 c 0.90037,0 1.63032,0.72992 1.63032,1.63031 0,0.9004 -0.72995,1.63032 -1.63032,1.63032 -0.90043,0 -1.63034,-0.72992 -1.63034,-1.63032 0,-0.90039 0.72991,-1.63031 1.63034,-1.63031 z"
       id="path3575-5-8-4-7-7-5"
       style="color:#000000;display:inline;overflow:visible;visibility:visible;opacity:0.3;fill:#ffffff;fill-opacity:1;fill-rule:nonzero;stroke:none;stroke-width:0.58437508;marker:none;enable-background:accumulate"
       inkscape:connector-curvature="0" />
    <path
       d="m 394.90612,534.22778 c -0.15052,0 -0.27174,0.12119 -0.27174,0.27172 v 0.91705 c -0.29815,0.0765 -0.57333,0.20434 -0.83213,0.35663 l -0.66231,-0.66231 c -0.10642,-0.10645 -0.26715,-0.10645 -0.37362,0 l -0.78117,0.78119 c -0.10647,0.10644 -0.10647,0.26717 0,0.37362 l 0.66225,0.66231 c -0.15226,0.2588 -0.28012,0.53399 -0.35655,0.83214 h -0.91706 c -0.15055,0 -0.27172,0.12119 -0.27172,0.27172 v 1.08688 c 0,0.15053 0.12117,0.27172 0.27172,0.27172 h 0.91706 c 0.0765,0.29815 0.20429,0.57334 0.35655,0.83214 l -0.66225,0.66231 c -0.10647,0.10644 -0.10647,0.26717 0,0.37362 l 0.78117,0.78119 c 0.10647,0.10645 0.2672,0.10645 0.37362,0 l 0.66231,-0.66232 c 0.2588,0.1523 0.53398,0.28015 0.83213,0.35664 v 0.91705 c 0,0.15053 0.12122,0.27172 0.27174,0.27172 h 1.0869 c 0.15051,0 0.27168,-0.12119 0.27168,-0.27172 v -0.91705 c 0.29815,-0.0765 0.57335,-0.20434 0.83211,-0.35664 l 0.66238,0.66232 c 0.10645,0.10645 0.26718,0.10645 0.37361,0 l 0.78117,-0.78119 c 0.10647,-0.10645 0.10647,-0.26718 0,-0.37362 l -0.66233,-0.66231 c 0.15234,-0.2588 0.28016,-0.53399 0.35664,-0.83214 h 0.91708 c 0.15052,0 0.27173,-0.12119 0.27173,-0.27172 v -1.08688 c 0,-0.15053 -0.12121,-0.27172 -0.27173,-0.27172 h -0.91708 c -0.0765,-0.29815 -0.20428,-0.57334 -0.35664,-0.83214 l 0.66233,-0.66231 c 0.10647,-0.10645 0.10647,-0.26718 0,-0.37362 l -0.78117,-0.78119 c -0.10643,-0.10645 -0.26716,-0.10645 -0.37361,0 l -0.66238,0.66231 c -0.25876,-0.15229 -0.53396,-0.28015 -0.83211,-0.35663 v -0.91705 c 0,-0.15053 -0.12117,-0.27172 -0.27168,-0.27172 z m 0.54346,2.71719 c 0.90037,0 1.63032,0.72992 1.63032,1.63032 0,0.9004 -0.72995,1.63031 -1.63032,1.63031 -0.90043,0 -1.63034,-0.72991 -1.63034,-1.63031 0,-0.9004 0.72991,-1.63032 1.63034,-1.63032 z"
       id="path3575-5-8-4-7-7"
       style="color:#000000;display:inline;overflow:visible;visibility:visible;fill:#163950;fill-opacity:0.85098039;fill-rule:nonzero;stroke:none;stroke-width:0.58437508;marker:none;enable-background:accumulate"
       inkscape:connector-curvature="0" />
  </g>
</svg>
