<?xml version="1.0" encoding="UTF-8" standalone="no"?>
<svg
   xmlns:dc="http://purl.org/dc/elements/1.1/"
   xmlns:cc="http://creativecommons.org/ns#"
   xmlns:rdf="http://www.w3.org/1999/02/22-rdf-syntax-ns#"
   xmlns:svg="http://www.w3.org/2000/svg"
   xmlns="http://www.w3.org/2000/svg"
   xmlns:sodipodi="http://sodipodi.sourceforge.net/DTD/sodipodi-0.dtd"
   xmlns:inkscape="http://www.inkscape.org/namespaces/inkscape"
   viewBox="0 0 22 22"
   id="svg42"
   version="1.1"
   inkscape:version="0.91 r13725"
   sodipodi:docname="indicator-workspaces-19.svg">
  <metadata
     id="metadata60">
    <rdf:RDF>
      <cc:Work
         rdf:about="">
        <dc:format>image/svg+xml</dc:format>
        <dc:type
           rdf:resource="http://purl.org/dc/dcmitype/StillImage" />
      </cc:Work>
    </rdf:RDF>
  </metadata>
  <defs
     id="defs58" />
  <sodipodi:namedview
     pagecolor="#ffffff"
     bordercolor="#666666"
     borderopacity="1"
     objecttolerance="10"
     gridtolerance="10"
     guidetolerance="10"
     inkscape:pageopacity="0"
     inkscape:pageshadow="2"
     inkscape:window-width="640"
     inkscape:window-height="480"
     id="namedview56"
     showgrid="false"
     inkscape:zoom="10.727273"
     inkscape:cx="11"
     inkscape:cy="11"
     inkscape:window-x="57"
     inkscape:window-y="24"
     inkscape:window-maximized="0"
     inkscape:current-layer="svg42" />
  <g
     transform="translate(0,-1030.8622)"
     id="g44"
     style="fill:#333333">
    <path
       d="m 9 1046.86 -2 2 c -1 1 -1 1 0 1 l 8 0 c 1 0 1 0 0 -1 l -2 -2 0 -1 -4 0 z"
       style="fill:#333333;fill-opacity:1;stroke:none"
       id="path46" />
    <path
       d="m 5 1033.86 c -1.108 0 -2 0.892 -2 2 l 0 9 c 0 1.108 0.892 2 2 2 l 12 0 c 1.108 0 2 -0.892 2 -2 l 0 -9 c 0 -1.108 -0.892 -2 -2 -2 l -12 0 z m 0 2 12 0 0 9 -12 0 0 -9 z"
       style="fill:#333333;fill-opacity:1;stroke:none"
       id="path48" />
    <g
       transform="translate(-0.21575905,0)"
       style="fill:#333333;fill-opacity:1;stroke:none"
       id="g50">
      <path
         d="m 6.316 1042.42 1.453 0 0 -4.123 -1.491 0.308 0 -1.119 1.483 -0.308 1.564 0 0 5.242 1.453 0 0 1.136 -4.46 0 0 -1.136 z"
         id="path52"
         style="fill:#333333" />
      <path
         d="m 11.501 1043.41 0 -1.179 q 0.393 0.184 0.752 0.278 0.359 0.09 0.709 0.09 0.735 0 1.145 -0.406 0.41 -0.41 0.483 -1.213 -0.291 0.214 -0.62 0.32 -0.329 0.107 -0.714 0.107 -0.978 0 -1.581 -0.568 -0.598 -0.572 -0.598 -1.504 0 -1.03 0.667 -1.649 0.671 -0.62 1.794 -0.62 1.248 0 1.931 0.842 0.684 0.842 0.684 2.38 0 1.581 -0.799 2.486 -0.799 0.901 -2.192 0.901 -0.449 0 -0.859 -0.068 -0.41 -0.064 -0.803 -0.197 z m 2.029 -3.072 q 0.432 0 0.649 -0.278 0.218 -0.282 0.218 -0.842 0 -0.555 -0.218 -0.837 -0.218 -0.282 -0.649 -0.282 -0.432 0 -0.649 0.282 -0.218 0.282 -0.218 0.837 0 0.56 0.218 0.842 0.218 0.278 0.649 0.278 z"
         id="path54"
         style="fill:#333333" />
    </g>
  </g>
</svg>
