<?xml version="1.0" encoding="UTF-8" standalone="no"?>
<!-- Generator: Adobe Illustrator 16.0.0, SVG Export Plug-In . SVG Version: 6.00 Build 0)  -->

<svg
   xmlns:dc="http://purl.org/dc/elements/1.1/"
   xmlns:cc="http://creativecommons.org/ns#"
   xmlns:rdf="http://www.w3.org/1999/02/22-rdf-syntax-ns#"
   xmlns:svg="http://www.w3.org/2000/svg"
   xmlns="http://www.w3.org/2000/svg"
   xmlns:sodipodi="http://sodipodi.sourceforge.net/DTD/sodipodi-0.dtd"
   xmlns:inkscape="http://www.inkscape.org/namespaces/inkscape"
   viewBox="0 0 22 22"
   id="svg16"
   version="1.1"
   inkscape:version="0.91 r13725"
   sodipodi:docname="hangouts-available-missed.svg">
  <metadata
     id="metadata28">
    <rdf:RDF>
      <cc:Work
         rdf:about="">
        <dc:format>image/svg+xml</dc:format>
        <dc:type
           rdf:resource="http://purl.org/dc/dcmitype/StillImage" />
      </cc:Work>
    </rdf:RDF>
  </metadata>
  <defs
     id="defs26" />
  <sodipodi:namedview
     pagecolor="#ffffff"
     bordercolor="#666666"
     borderopacity="1"
     objecttolerance="10"
     gridtolerance="10"
     guidetolerance="10"
     inkscape:pageopacity="0"
     inkscape:pageshadow="2"
     inkscape:window-width="640"
     inkscape:window-height="480"
     id="namedview24"
     showgrid="false"
     inkscape:zoom="10.727273"
     inkscape:cx="11"
     inkscape:cy="11"
     inkscape:window-x="57"
     inkscape:window-y="24"
     inkscape:window-maximized="0"
     inkscape:current-layer="svg16" />
  <g
     transform="matrix(0.03690888,0,0,0.03690888,1.3529415,2.705883)"
     id="g18"
     style="fill:#333333">
    <g
       id="g20"
       style="fill:#333333">
      <path
         d="m 11 3 c -4.424 0 -8 3.576 -8 8 c 0 4.424 3.576 8 8 8 l 0 3 c 4.612 -2.165 8 -6.765 8 -11 c 0 -4.424 -3.576 -8 -8 -8 z m -5 5 l 4 0 l 0 4 l -1.334 2.668 l -2 0 l 1.334 -2.668 l -2 0 l 0 -4 z m 6 0 l 4 0 l 0 4 l -1.334 2.668 l -2 0 l 1.334 -2.668 l -2 0 l 0 -4 z"
         transform="matrix(27.093751,0,0,27.093751,-36.65626,-73.31252)"
         style="fill:#333333;fill-opacity:1"
         id="path22" />
    </g>
  </g>
</svg>
