<?xml version="1.0" encoding="UTF-8" standalone="no"?>
<svg
   xmlns:dc="http://purl.org/dc/elements/1.1/"
   xmlns:cc="http://creativecommons.org/ns#"
   xmlns:rdf="http://www.w3.org/1999/02/22-rdf-syntax-ns#"
   xmlns:svg="http://www.w3.org/2000/svg"
   xmlns="http://www.w3.org/2000/svg"
   xmlns:sodipodi="http://sodipodi.sourceforge.net/DTD/sodipodi-0.dtd"
   xmlns:inkscape="http://www.inkscape.org/namespaces/inkscape"
   viewBox="0 0 22 22"
   id="svg2"
   version="1.1"
   inkscape:version="0.91 r13725"
   sodipodi:docname="indicator-workspaces-25.svg">
  <metadata
     id="metadata20">
    <rdf:RDF>
      <cc:Work
         rdf:about="">
        <dc:format>image/svg+xml</dc:format>
        <dc:type
           rdf:resource="http://purl.org/dc/dcmitype/StillImage" />
      </cc:Work>
    </rdf:RDF>
  </metadata>
  <defs
     id="defs18" />
  <sodipodi:namedview
     pagecolor="#ffffff"
     bordercolor="#666666"
     borderopacity="1"
     objecttolerance="10"
     gridtolerance="10"
     guidetolerance="10"
     inkscape:pageopacity="0"
     inkscape:pageshadow="2"
     inkscape:window-width="640"
     inkscape:window-height="480"
     id="namedview16"
     showgrid="false"
     inkscape:zoom="10.727273"
     inkscape:cx="11"
     inkscape:cy="11"
     inkscape:window-x="563"
     inkscape:window-y="277"
     inkscape:window-maximized="0"
     inkscape:current-layer="svg2" />
  <g
     transform="translate(0,-1030.8622)"
     id="g4"
     style="fill:#333333">
    <path
       d="m 9 1046.86 -2 2 c -1 1 -1 1 0 1 l 8 0 c 1 0 1 0 0 -1 l -2 -2 0 -1 -4 0 z"
       style="fill:#333333;fill-opacity:1;stroke:none"
       id="path6" />
    <path
       d="m 5 1033.86 c -1.108 0 -2 0.892 -2 2 l 0 9 c 0 1.108 0.892 2 2 2 l 12 0 c 1.108 0 2 -0.892 2 -2 l 0 -9 c 0 -1.108 -0.892 -2 -2 -2 l -12 0 z m 0 2 12 0 0 9 -12 0 0 -9 z"
       style="fill:#333333;fill-opacity:1;stroke:none"
       id="path8" />
    <g
       style="fill:#333333;fill-opacity:1;stroke:none"
       id="g10">
      <path
         d="m 7.769 1042.34 2.807 0 0 1.209 -4.636 0 0 -1.209 2.328 -2.055 q 0.312 -0.282 0.461 -0.551 0.15 -0.269 0.15 -0.56 0 -0.449 -0.303 -0.722 -0.299 -0.273 -0.799 -0.273 -0.385 0 -0.842 0.167 -0.457 0.162 -0.978 0.487 l 0 -1.401 q 0.555 -0.184 1.098 -0.278 0.543 -0.098 1.064 -0.098 1.145 0 1.777 0.504 0.637 0.504 0.637 1.406 0 0.521 -0.269 0.974 -0.269 0.449 -1.132 1.205 l -1.363 1.196 z"
         id="path12"
         style="fill:#333333" />
      <path
         d="m 11.509 1037.17 4.089 0 0 1.209 -2.777 0 0 0.987 q 0.188 -0.051 0.376 -0.077 0.192 -0.03 0.397 -0.03 1.166 0 1.816 0.585 0.649 0.581 0.649 1.624 0 1.034 -0.709 1.619 -0.705 0.585 -1.961 0.585 -0.543 0 -1.077 -0.107 -0.53 -0.103 -1.055 -0.316 l 0 -1.295 q 0.521 0.299 0.987 0.449 0.47 0.15 0.884 0.15 0.598 0 0.94 -0.291 0.346 -0.295 0.346 -0.795 0 -0.504 -0.346 -0.795 -0.342 -0.291 -0.94 -0.291 -0.355 0 -0.756 0.094 -0.402 0.09 -0.863 0.282 l 0 -3.589 z"
         id="path14"
         style="fill:#333333" />
    </g>
  </g>
</svg>
