<?xml version="1.0" encoding="UTF-8" standalone="no"?>
<svg
   xmlns:dc="http://purl.org/dc/elements/1.1/"
   xmlns:cc="http://creativecommons.org/ns#"
   xmlns:rdf="http://www.w3.org/1999/02/22-rdf-syntax-ns#"
   xmlns:svg="http://www.w3.org/2000/svg"
   xmlns="http://www.w3.org/2000/svg"
   xmlns:sodipodi="http://sodipodi.sourceforge.net/DTD/sodipodi-0.dtd"
   xmlns:inkscape="http://www.inkscape.org/namespaces/inkscape"
   viewBox="0 0 22 22"
   id="svg42"
   version="1.1"
   inkscape:version="0.91 r13725"
   sodipodi:docname="indicator-workspaces-35.svg">
  <metadata
     id="metadata60">
    <rdf:RDF>
      <cc:Work
         rdf:about="">
        <dc:format>image/svg+xml</dc:format>
        <dc:type
           rdf:resource="http://purl.org/dc/dcmitype/StillImage" />
      </cc:Work>
    </rdf:RDF>
  </metadata>
  <defs
     id="defs58" />
  <sodipodi:namedview
     pagecolor="#ffffff"
     bordercolor="#666666"
     borderopacity="1"
     objecttolerance="10"
     gridtolerance="10"
     guidetolerance="10"
     inkscape:pageopacity="0"
     inkscape:pageshadow="2"
     inkscape:window-width="640"
     inkscape:window-height="480"
     id="namedview56"
     showgrid="false"
     inkscape:zoom="10.727273"
     inkscape:cx="11"
     inkscape:cy="11"
     inkscape:window-x="639"
     inkscape:window-y="285"
     inkscape:window-maximized="0"
     inkscape:current-layer="svg42" />
  <g
     transform="translate(0,-1030.8622)"
     id="g44"
     style="fill:#333333">
    <path
       d="m 9 1046.86 -2 2 c -1 1 -1 1 0 1 l 8 0 c 1 0 1 0 0 -1 l -2 -2 0 -1 -4 0 z"
       style="fill:#333333;fill-opacity:1;stroke:none"
       id="path46" />
    <path
       d="m 5 1033.86 c -1.108 0 -2 0.892 -2 2 l 0 9 c 0 1.108 0.892 2 2 2 l 12 0 c 1.108 0 2 -0.892 2 -2 l 0 -9 c 0 -1.108 -0.892 -2 -2 -2 l -12 0 z m 0 2 12 0 0 9 -12 0 0 -9 z"
       style="fill:#333333;fill-opacity:1;stroke:none"
       id="path48" />
    <g
       transform="translate(0.0106811,0)"
       style="fill:#333333;fill-opacity:1;stroke:none"
       id="g50">
      <path
         d="m 9.367 1040.11 q 0.645 0.167 0.978 0.581 0.338 0.41 0.338 1.047 0 0.948 -0.726 1.444 -0.726 0.491 -2.119 0.491 -0.491 0 -0.987 -0.081 -0.491 -0.077 -0.974 -0.235 l 0 -1.269 q 0.461 0.231 0.914 0.35 0.457 0.115 0.897 0.115 0.654 0 1 -0.226 0.35 -0.226 0.35 -0.649 0 -0.436 -0.359 -0.658 -0.355 -0.226 -1.051 -0.226 l -0.658 0 0 -1.06 0.692 0 q 0.62 0 0.923 -0.192 0.303 -0.197 0.303 -0.594 0 -0.367 -0.295 -0.568 -0.295 -0.201 -0.833 -0.201 -0.397 0 -0.803 0.09 -0.406 0.09 -0.807 0.265 l 0 -1.205 q 0.487 -0.137 0.966 -0.205 0.479 -0.068 0.94 -0.068 1.243 0 1.859 0.41 0.62 0.406 0.62 1.226 0 0.56 -0.295 0.919 -0.295 0.355 -0.872 0.5 z"
         id="path52"
         style="fill:#333333" />
      <path
         d="m 11.552 1037.17 4.089 0 0 1.209 -2.777 0 0 0.987 q 0.188 -0.051 0.376 -0.077 0.192 -0.03 0.397 -0.03 1.166 0 1.816 0.585 0.649 0.581 0.649 1.623 0 1.034 -0.709 1.619 -0.705 0.585 -1.961 0.585 -0.543 0 -1.077 -0.107 -0.53 -0.102 -1.055 -0.316 l 0 -1.295 q 0.521 0.299 0.987 0.449 0.47 0.15 0.884 0.15 0.598 0 0.94 -0.291 0.346 -0.295 0.346 -0.795 0 -0.504 -0.346 -0.795 -0.342 -0.291 -0.94 -0.291 -0.355 0 -0.756 0.094 -0.402 0.09 -0.863 0.282 l 0 -3.589 z"
         id="path54"
         style="fill:#333333" />
    </g>
  </g>
</svg>
