<?xml version="1.0" encoding="UTF-8" standalone="no"?>
<svg
   xmlns:dc="http://purl.org/dc/elements/1.1/"
   xmlns:cc="http://creativecommons.org/ns#"
   xmlns:rdf="http://www.w3.org/1999/02/22-rdf-syntax-ns#"
   xmlns:svg="http://www.w3.org/2000/svg"
   xmlns="http://www.w3.org/2000/svg"
   xmlns:sodipodi="http://sodipodi.sourceforge.net/DTD/sodipodi-0.dtd"
   xmlns:inkscape="http://www.inkscape.org/namespaces/inkscape"
   viewBox="0 0 22 22"
   id="svg120"
   version="1.1"
   inkscape:version="0.91 r13725"
   sodipodi:docname="indicator-workspaces-15.svg">
  <metadata
     id="metadata138">
    <rdf:RDF>
      <cc:Work
         rdf:about="">
        <dc:format>image/svg+xml</dc:format>
        <dc:type
           rdf:resource="http://purl.org/dc/dcmitype/StillImage" />
      </cc:Work>
    </rdf:RDF>
  </metadata>
  <defs
     id="defs136" />
  <sodipodi:namedview
     pagecolor="#ffffff"
     bordercolor="#666666"
     borderopacity="1"
     objecttolerance="10"
     gridtolerance="10"
     guidetolerance="10"
     inkscape:pageopacity="0"
     inkscape:pageshadow="2"
     inkscape:window-width="640"
     inkscape:window-height="480"
     id="namedview134"
     showgrid="false"
     inkscape:zoom="10.727273"
     inkscape:cx="11"
     inkscape:cy="11"
     inkscape:window-x="57"
     inkscape:window-y="24"
     inkscape:window-maximized="0"
     inkscape:current-layer="svg120" />
  <g
     transform="translate(0,-1030.8622)"
     id="g122"
     style="fill:#333333">
    <path
       d="m 9 1046.86 -2 2 c -1 1 -1 1 0 1 l 8 0 c 1 0 1 0 0 -1 l -2 -2 0 -1 -4 0 z"
       style="fill:#333333;fill-opacity:1;stroke:none"
       id="path124" />
    <path
       d="m 5 1033.86 c -1.108 0 -2 0.892 -2 2 l 0 9 c 0 1.108 0.892 2 2 2 l 12 0 c 1.108 0 2 -0.892 2 -2 l 0 -9 c 0 -1.108 -0.892 -2 -2 -2 l -12 0 z m 0 2 12 0 0 9 -12 0 0 -9 z"
       style="fill:#333333;fill-opacity:1;stroke:none"
       id="path126" />
    <g
       transform="translate(-0.19012455,0)"
       style="fill:#333333;fill-opacity:1;stroke:none"
       id="g128">
      <path
         d="m 6.316 1042.42 1.453 0 0 -4.123 -1.491 0.308 0 -1.119 1.483 -0.308 1.564 0 0 5.242 1.453 0 0 1.136 -4.46 0 0 -1.136 z"
         id="path130"
         style="fill:#333333" />
      <path
         d="m 11.552 1037.17 4.089 0 0 1.209 -2.777 0 0 0.987 q 0.188 -0.051 0.376 -0.077 0.192 -0.03 0.397 -0.03 1.166 0 1.816 0.585 0.649 0.581 0.649 1.623 0 1.034 -0.709 1.619 -0.705 0.585 -1.961 0.585 -0.543 0 -1.077 -0.107 -0.53 -0.102 -1.055 -0.316 l 0 -1.295 q 0.521 0.299 0.987 0.449 0.47 0.15 0.884 0.15 0.598 0 0.94 -0.291 0.346 -0.295 0.346 -0.795 0 -0.504 -0.346 -0.795 -0.342 -0.291 -0.94 -0.291 -0.355 0 -0.756 0.094 -0.402 0.09 -0.863 0.282 l 0 -3.589 z"
         id="path132"
         style="fill:#333333" />
    </g>
  </g>
</svg>
