<?xml version="1.0" encoding="UTF-8" standalone="no"?>
<svg
   xmlns:dc="http://purl.org/dc/elements/1.1/"
   xmlns:cc="http://creativecommons.org/ns#"
   xmlns:rdf="http://www.w3.org/1999/02/22-rdf-syntax-ns#"
   xmlns:svg="http://www.w3.org/2000/svg"
   xmlns="http://www.w3.org/2000/svg"
   xmlns:sodipodi="http://sodipodi.sourceforge.net/DTD/sodipodi-0.dtd"
   xmlns:inkscape="http://www.inkscape.org/namespaces/inkscape"
   viewBox="0 0 22 22"
   id="svg22"
   version="1.1"
   inkscape:version="0.91 r13725"
   sodipodi:docname="indicator-workspaces-18.svg">
  <metadata
     id="metadata40">
    <rdf:RDF>
      <cc:Work
         rdf:about="">
        <dc:format>image/svg+xml</dc:format>
        <dc:type
           rdf:resource="http://purl.org/dc/dcmitype/StillImage" />
      </cc:Work>
    </rdf:RDF>
  </metadata>
  <defs
     id="defs38" />
  <sodipodi:namedview
     pagecolor="#ffffff"
     bordercolor="#666666"
     borderopacity="1"
     objecttolerance="10"
     gridtolerance="10"
     guidetolerance="10"
     inkscape:pageopacity="0"
     inkscape:pageshadow="2"
     inkscape:window-width="640"
     inkscape:window-height="480"
     id="namedview36"
     showgrid="false"
     inkscape:zoom="10.727273"
     inkscape:cx="11"
     inkscape:cy="11"
     inkscape:window-x="57"
     inkscape:window-y="24"
     inkscape:window-maximized="0"
     inkscape:current-layer="svg22" />
  <g
     transform="translate(0,-1030.8622)"
     id="g24"
     style="fill:#333333">
    <path
       d="m 9 1046.86 -2 2 c -1 1 -1 1 0 1 l 8 0 c 1 0 1 0 0 -1 l -2 -2 0 -1 -4 0 z"
       style="fill:#333333;fill-opacity:1;stroke:none"
       id="path26" />
    <path
       d="m 5 1033.86 c -1.108 0 -2 0.892 -2 2 l 0 9 c 0 1.108 0.892 2 2 2 l 12 0 c 1.108 0 2 -0.892 2 -2 l 0 -9 c 0 -1.108 -0.892 -2 -2 -2 l -12 0 z m 0 2 12 0 0 9 -12 0 0 -9 z"
       style="fill:#333333;fill-opacity:1;stroke:none"
       id="path28" />
    <g
       transform="translate(-0.22430405,0)"
       style="fill:#333333;fill-opacity:1;stroke:none"
       id="g30">
      <path
         d="m 6.316 1042.42 1.453 0 0 -4.123 -1.491 0.308 0 -1.119 1.483 -0.308 1.564 0 0 5.242 1.453 0 0 1.136 -4.46 0 0 -1.136 z"
         id="path32"
         style="fill:#333333" />
      <path
         d="m 13.671 1040.7 q -0.461 0 -0.709 0.252 -0.248 0.252 -0.248 0.722 0 0.47 0.248 0.722 0.248 0.248 0.709 0.248 0.457 0 0.701 -0.248 0.244 -0.252 0.244 -0.722 0 -0.474 -0.244 -0.722 -0.244 -0.252 -0.701 -0.252 z m -1.201 -0.543 q -0.581 -0.175 -0.876 -0.538 -0.295 -0.363 -0.295 -0.906 0 -0.807 0.602 -1.23 0.602 -0.423 1.769 -0.423 1.158 0 1.76 0.423 0.602 0.419 0.602 1.23 0 0.543 -0.299 0.906 -0.295 0.363 -0.876 0.538 0.649 0.179 0.978 0.585 0.333 0.402 0.333 1.017 0 0.948 -0.632 1.436 -0.628 0.483 -1.867 0.483 -1.243 0 -1.88 -0.483 -0.632 -0.487 -0.632 -1.436 0 -0.615 0.329 -1.017 0.333 -0.406 0.983 -0.585 z m 0.385 -1.277 q 0 0.38 0.209 0.585 0.214 0.205 0.607 0.205 0.385 0 0.594 -0.205 0.209 -0.205 0.209 -0.585 0 -0.38 -0.209 -0.581 -0.209 -0.205 -0.594 -0.205 -0.393 0 -0.607 0.205 -0.209 0.205 -0.209 0.581 z"
         id="path34"
         style="fill:#333333" />
    </g>
  </g>
</svg>
