<?xml version="1.0" encoding="UTF-8" standalone="no"?>
<svg
   xmlns:dc="http://purl.org/dc/elements/1.1/"
   xmlns:cc="http://creativecommons.org/ns#"
   xmlns:rdf="http://www.w3.org/1999/02/22-rdf-syntax-ns#"
   xmlns:svg="http://www.w3.org/2000/svg"
   xmlns="http://www.w3.org/2000/svg"
   xmlns:sodipodi="http://sodipodi.sourceforge.net/DTD/sodipodi-0.dtd"
   xmlns:inkscape="http://www.inkscape.org/namespaces/inkscape"
   viewBox="0 0 22 22"
   id="svg20"
   version="1.1"
   inkscape:version="0.91 r13725"
   sodipodi:docname="indicator-workspaces-10.svg">
  <metadata
     id="metadata38">
    <rdf:RDF>
      <cc:Work
         rdf:about="">
        <dc:format>image/svg+xml</dc:format>
        <dc:type
           rdf:resource="http://purl.org/dc/dcmitype/StillImage" />
      </cc:Work>
    </rdf:RDF>
  </metadata>
  <defs
     id="defs36" />
  <sodipodi:namedview
     pagecolor="#ffffff"
     bordercolor="#666666"
     borderopacity="1"
     objecttolerance="10"
     gridtolerance="10"
     guidetolerance="10"
     inkscape:pageopacity="0"
     inkscape:pageshadow="2"
     inkscape:window-width="640"
     inkscape:window-height="480"
     id="namedview34"
     showgrid="false"
     inkscape:zoom="10.727273"
     inkscape:cx="11"
     inkscape:cy="11"
     inkscape:window-x="57"
     inkscape:window-y="24"
     inkscape:window-maximized="0"
     inkscape:current-layer="svg20" />
  <g
     transform="translate(0,-1030.8622)"
     id="g22"
     style="fill:#333333">
    <path
       d="m 9 1046.86 -2 2 c -1 1 -1 1 0 1 l 8 0 c 1 0 1 0 0 -1 l -2 -2 0 -1 -4 0 z"
       style="fill:#333333;fill-opacity:1;stroke:none"
       id="path24" />
    <path
       d="m 5 1033.86 c -1.108 0 -2 0.892 -2 2 l 0 9 c 0 1.108 0.892 2 2 2 l 12 0 c 1.108 0 2 -0.892 2 -2 l 0 -9 c 0 -1.108 -0.892 -2 -2 -2 l -12 0 z m 0 2 12 0 0 9 -12 0 0 -9 z"
       style="fill:#333333;fill-opacity:1;stroke:none"
       id="path26" />
    <g
       transform="translate(-0.28625505,0)"
       style="fill:#333333;fill-opacity:1;stroke:none"
       id="g28">
      <path
         d="m 6.316 1042.42 1.453 0 0 -4.123 -1.491 0.308 0 -1.119 1.483 -0.308 1.564 0 0 5.242 1.453 0 0 1.136 -4.46 0 0 -1.136 z"
         id="path30"
         style="fill:#333333" />
      <path
         d="m 14.65 1040.36 q 0 -1.196 -0.226 -1.683 -0.222 -0.491 -0.752 -0.491 -0.53 0 -0.756 0.491 -0.226 0.487 -0.226 1.683 0 1.209 0.226 1.705 0.226 0.496 0.756 0.496 0.526 0 0.752 -0.496 0.226 -0.496 0.226 -1.705 z m 1.645 0.013 q 0 1.585 -0.684 2.448 -0.684 0.859 -1.94 0.859 -1.26 0 -1.944 -0.859 -0.684 -0.863 -0.684 -2.448 0 -1.589 0.684 -2.448 0.684 -0.863 1.944 -0.863 1.256 0 1.94 0.863 0.684 0.859 0.684 2.448 z"
         id="path32"
         style="fill:#333333" />
    </g>
  </g>
</svg>
