<?xml version="1.0" encoding="UTF-8" standalone="no"?>
<!-- Created using Karbon, part of Calligra: http://www.calligra.org/karbon -->

<svg
   xmlns:dc="http://purl.org/dc/elements/1.1/"
   xmlns:cc="http://creativecommons.org/ns#"
   xmlns:rdf="http://www.w3.org/1999/02/22-rdf-syntax-ns#"
   xmlns:svg="http://www.w3.org/2000/svg"
   xmlns="http://www.w3.org/2000/svg"
   xmlns:sodipodi="http://sodipodi.sourceforge.net/DTD/sodipodi-0.dtd"
   xmlns:inkscape="http://www.inkscape.org/namespaces/inkscape"
   width="256"
   height="256"
   id="svg2"
   version="1.1"
   inkscape:version="0.92.2 (5c3e80d, 2017-08-06)"
   sodipodi:docname="start-here.svg">
  <metadata
     id="metadata13">
    <rdf:RDF>
      <cc:Work
         rdf:about="">
        <dc:format>image/svg+xml</dc:format>
        <dc:type
           rdf:resource="http://purl.org/dc/dcmitype/StillImage" />
        <dc:title />
      </cc:Work>
    </rdf:RDF>
  </metadata>
  <sodipodi:namedview
     pagecolor="#ffffff"
     bordercolor="#666666"
     borderopacity="1"
     objecttolerance="10"
     gridtolerance="10"
     guidetolerance="10"
     inkscape:pageopacity="0"
     inkscape:pageshadow="2"
     inkscape:window-width="3061"
     inkscape:window-height="1537"
     id="namedview11"
     showgrid="false"
     inkscape:zoom="0.99999999"
     inkscape:cx="-604.05706"
     inkscape:cy="3.785254"
     inkscape:window-x="306"
     inkscape:window-y="171"
     inkscape:window-maximized="0"
     inkscape:current-layer="layer1"
     units="px"
     inkscape:pagecheckerboard="false" />
  <defs
     id="defs4" />
  <g
     id="layer0"
     transform="translate(0,204.8)">
    <g
       id="layer1"
       transform="translate(0.87894,0.87894)"
       style="fill:none">
      <rect
         style="opacity:1;fill:#454545;fill-opacity:1;stroke-width:5.01347733"
         id="rect850"
         width="237.33333"
         height="237.33333"
         x="8.4543934"
         y="-196.34561" />
      <path
         id="gear_path"
         stroke-miterlimit="2.00000000000"
         d="m 77.497967,-137.25859 c -0.328,0.0336 2.978352,-3.19889 2.731738,-2.95371 l -15.064378,14.61785 c -0.478987,0.47574 -0.53744,1.20422 -0.185814,1.78006 l 13.32432,21.7936 c -2.36592,3.939729 -4.287253,8.166022 -5.63984,12.646395 l -24.479261,5.03392 c -0.681206,0.139574 -1.177488,0.78176 -1.177488,1.473494 v 15.961066 c 0,0.6752 0.518091,1.2528 1.177488,1.412267 l 23.735688,5.709333 c 1.269333,5.1872 3.230027,10.150934 5.825547,14.672 l -13.75808,20.749867 c -0.383734,0.579733 -0.308907,1.352533 0.185813,1.842133 l 11.4032,11.295467 c 0.480427,0.474133 1.21712,0.533867 1.797173,0.184 l 21.56656,-12.953067 c 4.230347,2.418667 8.809547,4.357334 13.634077,5.648 l 5.02027,23.9424003 c 0.14027,0.6757333 0.72747,1.1664 1.42507,1.1664 h 16.11253 c 0.6768,0 1.26507,-0.4506667 1.4256,-1.1066667 l 5.94933,-24.0639996 c 4.976,-1.329067 9.6672,-3.301867 14.0064,-5.832 l 21.25654,13.8128 c 0.58613,0.378133 1.36213,0.305066 1.8592,-0.184 l 11.34133,-11.296 c 0.4816,-0.476267 0.60053,-1.205334 0.24747,-1.780267 l -7.74667,-12.6464 c 0,0 -3.31413,0.746133 -3.53227,0.429867 0,0 -4.89333,-7.130667 -11.27946,-16.390934 -7.6368,14.8032 -23.21174,24.924267 -41.14987,24.924267 -25.49013,0 -46.169813,-20.485333 -46.169813,-45.735467 0,-18.573546 12.045493,-37.192855 28.101283,-44.350505 l -0.83334,-9.12032 c -2.9216,1.01312 -5.74506,2.23552 -8.4281,3.68341 -0.005,-0.003 0.005,-0.0586 0,-0.0613 l -21.752483,-14.1199 c -0.29264,-0.18938 -0.60176,-0.2176 -0.92976,-0.18405 l 5.35593,-0.0341 z"
         inkscape:connector-curvature="0"
         style="fill:#f9f9f9;stroke:#003bc3;stroke-width:0;stroke-linecap:butt;stroke-linejoin:miter;stroke-miterlimit:2"
         sodipodi:nodetypes="cccccccssccccccccccssccccccccccsscccccccc" />
      <path
         style="fill:#f9f9f9;stroke:#003bc3;stroke-width:0;stroke-linecap:butt;stroke-linejoin:miter;stroke-miterlimit:2"
         inkscape:connector-curvature="0"
         id="gear_path-1"
         stroke-miterlimit="2.00000000000"
         d="m 177.21499,-14.620277 c 0.32016,-0.02773 0.6673,-0.108694 0.91171,-0.343894 l -0.54238,-18.945733 c 0.47477,-0.456267 13.38116,11.826064 13.04808,11.25816 L 177.01806,-49.02592 c 2.37131,-3.805589 4.31415,-7.898304 5.70702,-12.248517 l 23.93835,-4.503387 c 0.66614,-0.124853 1.16048,-0.743296 1.17203,-1.418427 l 0.26651,-15.578042 c 0.0112,-0.659003 -0.48395,-1.231414 -1.12384,-1.398091 l -23.03437,-5.9696 c -1.15031,-5.083968 -2.97805,-9.961396 -5.43183,-14.417406 l 13.75331,-20.02165 c 0.38368,-0.55938 0.32357,-1.31491 -0.15035,-1.80104 l -10.92345,-11.21529 c -0.46021,-0.47072 -1.17714,-0.54138 -1.74823,-0.2096 l -21.23224,12.28126 c -4.08194,-2.43147 -8.51186,-4.40025 -13.19166,-5.7407 l -4.49231,-23.45188 c -0.12539,-0.66187 -0.68942,-1.15058 -1.36921,-1.16226 l -15.70116,-0.26971 c -0.65953,-0.0112 -1.2403,0.41867 -1.40769,1.05625 l -6.19926,23.38694 c -4.87115,1.2139 -9.47552,3.06084 -13.74619,5.45761 l -20.483193,-13.83711 c -0.564853,-0.37888 -1.322266,-0.32058 -1.814805,0.14843 l -12.426853,12.7334 c -0.477227,0.45669 0.58112,-0.73195 0.915616,-0.16491 l 7.337728,12.47258 c 0,0 3.241978,-0.67276 3.449264,-0.36048 0,0 -0.284587,11.32218 5.783845,20.467107 7.689013,-14.320127 25.618648,-24.437637 43.098798,-24.137387 24.83937,0.42667 45.70327,17.57504 45.28164,42.219233 -0.31013,18.127824 -8.81325,40.586848 -24.57865,47.304 l -1.58962,3.838 c 2.86394,-0.939904 5.63572,-2.085712 8.27445,-3.453952 0.005,0.0031 -0.006,0.05691 -0.001,0.05984 l 20.96135,14.145146 c 0.28203,0.18976 0.58277,0.222454 0.90296,0.195254 z"
         sodipodi:nodetypes="cccccccssccccccccccssccccccccccssccccccc" />
    </g>
  </g>
</svg>
