/* XPM */
static char * close_inactive_xpm[] = {
"25 26 34 1",
" 	c None",
".	c #6A6A6A",
"+	c #D6D6D6",
"@	c #D4D4D4",
"#	c #D5D5D5",
"$	c #D9D9D9",
"%	c #DEDEDE",
"&	c #E3E3E3",
"*	c #E2E2E2",
"=	c #E0E0E0",
"-	c #E4E4E4",
";	c #E5E5E5",
">	c #E6E6E6",
",	c #E1E1E1",
"'	c #DFDFDF",
")	c #CCCCCC",
"!	c #DBDBDB",
"~	c #878787",
"{	c #C8C8C8",
"]	c #D3D3D3",
"^	c #E7E7E7",
"/	c #CACACA",
"(	c #B3B3B3",
"_	c #C7C7C7",
":	c #B5B5B5",
"<	c #828282",
"[	c #B1B1B1",
"}	c #E8E8E8",
"|	c #CDCDCD",
"1	c #C9C9C9",
"2	c #DDDDDD",
"3	c #E9E9E9",
"4	c #DCDCDC",
"5	c #EAEAEA",
".........................",
"+++++++++++++++++++++++++",
"+++++++++++++++++++++++++",
"+++++++++++++++++++++++++",
"+++++++++@@@@@@##++++++++",
"+++++++#@$%&*&%$@@+++++++",
"++++++@+=-;;;;;-=+#++++++",
"+++++#+&>>>>>>>>>&+@+++++",
"++++#@*>>>>>>>>>>>,@+++++",
"++++@$;>>')>>>)'>>;!#++++",
"++++@'>>>)~{>{~)>>;=]++++",
"++++@-^^^^/~(~_^^^^-@++++",
"++++@>^^^^^:<[^^^^^;@++++",
"++++@-^^^^/~(~_^^^^-#++++",
"++++@*}}}|~1}1~|}}^*#++++",
"++++#!^}},|}}}|,}}^2#++++",
"++++#@>}}}}}}}}}}};@+++++",
"+++++@+^}}}}}}}}}^+#+++++",
"++++++#+>3}333}3;+#++++++",
"+++++++@@4-^5^-2@#+++++++",
"++++++++##]@@@###++++++++",
"+++++++++++++++++++++++++",
"+++++++++++++++++++++++++",
"+++++++++++++++++++++++++",
"+++++++++++++++++++++++++",
"+++++++++++++++++++++++++"};
