/* XPM */
static char * hide_inactive_xpm[] = {
"25 26 43 1",
" 	c None",
".	c #6A6A6A",
"+	c #D6D6D6",
"@	c #D4D4D4",
"#	c #D5D5D5",
"$	c #D8D8D6",
"%	c #DEDCDB",
"&	c #E2DFDD",
"*	c #E2DFDE",
"=	c #E0DEDC",
"-	c #E3E1E0",
";	c #E4E4E3",
">	c #E5E5E5",
",	c #E3E2E0",
"'	c #E2E0DE",
")	c #E5E5E4",
"!	c #E6E6E6",
"~	c #E1DFDF",
"{	c #DAD8D8",
"]	c #E4E3E2",
"^	c #E4E3E3",
"/	c #DCDADA",
"(	c #E0DEDD",
"_	c #E6E5E5",
":	c #E5E4E4",
"<	c #E1DFDE",
"[	c #D3D3D3",
"}	c #E4E2E1",
"|	c #E7E7E7",
"1	c #E6E4E4",
"2	c #828282",
"3	c #E2E2E1",
"4	c #E8E8E8",
"5	c #DBDBDB",
"6	c #E7E7E6",
"7	c #DDDDDD",
"8	c #E6E6E5",
"9	c #EAEAE9",
"0	c #E9E9E9",
"a	c #EAEAEA",
"b	c #DCDCDC",
"c	c #E8E8E7",
"d	c #EBEBEA",
".........................",
"+++++++++++++++++++++++++",
"+++++++++++++++++++++++++",
"+++++++++++++++++++++++++",
"+++++++++@@@@@@##++++++++",
"+++++++#@$%&*&%$@@+++++++",
"++++++@#=-;>>>;,=##++++++",
"+++++##')!!!!!!!)'#@+++++",
"++++#@~)!!!!!!!!!)~@+++++",
"++++@{]!!!!!!!!!!!^/#++++",
"++++@(_!!!!!!!!!!!:<[++++",
"++++@}|||||||||||||}@++++",
"++++@1|||2222222|||1@++++",
"++++@]|||||||||||||]#++++",
"++++@3444444444444|3#++++",
"++++#5644444444444|7#++++",
"++++#@844444444444_@+++++",
"+++++@+|444444444|+#+++++",
"++++++#+!940004a!+#++++++",
"+++++++@@b>cdc>7@#+++++++",
"++++++++##[@@@###++++++++",
"+++++++++++++++++++++++++",
"+++++++++++++++++++++++++",
"+++++++++++++++++++++++++",
"+++++++++++++++++++++++++",
"+++++++++++++++++++++++++"};
