/* XPM */
static char * hide_active_xpm[] = {
"25 26 40 1",
" 	c None",
".	c #6A6A6A",
"+	c #D6D6D6",
"@	c #D5D5D5",
"#	c #ADADAD",
"$	c #848484",
"%	c #696969",
"&	c #616161",
"*	c #818181",
"=	c #ABABAB",
"-	c #D4D4D4",
";	c #C6C6C6",
">	c #777777",
",	c #5E5E5E",
"'	c #757575",
")	c #C4C4C4",
"!	c #C7C7C7",
"~	c #676767",
"{	c #787878",
"]	c #737373",
"^	c #D3D3D3",
"/	c #AFAFAF",
"(	c #AAAAAA",
"_	c #858585",
":	c #7F7F7F",
"<	c #6C6C6C",
"[	c #656565",
"}	c #626262",
"|	c #606060",
"1	c #6E6E6E",
"2	c #878787",
"3	c #B0B0B0",
"4	c #797979",
"5	c #C8C8C8",
"6	c #747474",
"7	c #C5C5C5",
"8	c #AEAEAE",
"9	c #6B6B6B",
"0	c #828282",
"a	c #ACACAC",
".........................",
"+++++++++++++++++++++++++",
"+++++++++++++++++++++++++",
"+++++++++++++++++++++++++",
"+++++++++++++++++++++++++",
"++++++++@#$%&.*=-++++++++",
"+++++++;>,,,,,,,')+++++++",
"++++++!.,,,,,,,,,~)++++++",
"+++++@{,,,,,,,,,,,]^+++++",
"+++++/,,,,,,,,,,,,,(+++++",
"+++++_,,,,,,,,,,,,,:+++++",
"+++++<,,,,,,,,,,,,,~+++++",
"+++++[,,,^++++++},,|@++++",
"+++++1,,,,,,,,,,,,,~+++++",
"+++++2,,,,,,,,,,,,,:+++++",
"+++++3,,,,,,,,,,,,,(+++++",
"+++++@4,,,,,,,,,,,'-+++++",
"++++++5%,,,,,,,,,~)++++++",
"+++++++!{,,,,,,,67+++++++",
"++++++++@8_9&%0a@++++++++",
"+++++++++++++++++++++++++",
"+++++++++++++++++++++++++",
"+++++++++++++++++++++++++",
"+++++++++++++++++++++++++",
"+++++++++++++++++++++++++",
"+++++++++++++++++++++++++"};
