/* XPM */
static char * menu_inactive_xpm[] = {
"25 26 21 1",
" 	c None",
".	c #6A6A6A",
"+	c #D6D6D6",
"@	c #D5D5D5",
"#	c #D0D0D0",
"$	c #C8C8C8",
"%	c #C1C1C1",
"&	c #C4C4C4",
"*	c #CCCCCC",
"=	c #E2E2E2",
"-	c #CACACA",
";	c #F0F0F0",
">	c #DDDDDD",
",	c #EDEDED",
"'	c #DBDBDB",
")	c #E9E9E9",
"!	c #C5C5C5",
"~	c #E5E5E5",
"{	c #C3C3C3",
"]	c #C2C2C2",
"^	c #D4D4D4",
".........................",
"+++++++++++++++++++++++++",
"+++++++++++++++++++++++++",
"+++++++++++++++++++++++++",
"+++++++++++++++++++++++++",
"+++++++++++++++++++++++++",
"+++++++++++++++++++++++++",
"+++++++++++++++++++++++++",
"+++++++++++++++++++++++++",
"++++++++@#$%%$#@+++++++++",
"++++++++#&*==*&#+++++++++",
"++++++++$-;;;;-$+++++++++",
"++++++++%>,,,,>%+++++++++",
"++++++++%'))))'%+++++++++",
"++++++++$!~~~~!$+++++++++",
"++++++++#{]^^]{#+++++++++",
"++++++++@#$%%$#@+++++++++",
"+++++++++++++++++++++++++",
"+++++++++++++++++++++++++",
"+++++++++++++++++++++++++",
"+++++++++++++++++++++++++",
"+++++++++++++++++++++++++",
"+++++++++++++++++++++++++",
"+++++++++++++++++++++++++",
"+++++++++++++++++++++++++",
"+++++++++++++++++++++++++"};
