/* XPM */
static char * top_right_inactive_xpm[] = {
"4 26 6 1",
" 	c None",
".	c #6A6A6A",
"+	c #D6D6D6",
"@	c #D3D3D3",
"#	c #828282",
"$	c #696A6A",
"..  ",
"+@# ",
"++@.",
"+++$",
"+++.",
"+++.",
"+++.",
"+++.",
"+++.",
"+++.",
"+++.",
"+++.",
"+++.",
"+++.",
"+++.",
"+++.",
"+++.",
"+++.",
"+++.",
"+++.",
"+++.",
"+++.",
"+++.",
"+++.",
"+++.",
"+++."};
