<?xml version="1.0" encoding="UTF-8" standalone="no"?>
<!-- Created using Karbon, part of Calligra: http://www.calligra.org/karbon -->

<svg
   xmlns:dc="http://purl.org/dc/elements/1.1/"
   xmlns:cc="http://creativecommons.org/ns#"
   xmlns:rdf="http://www.w3.org/1999/02/22-rdf-syntax-ns#"
   xmlns:svg="http://www.w3.org/2000/svg"
   xmlns="http://www.w3.org/2000/svg"
   xmlns:sodipodi="http://sodipodi.sourceforge.net/DTD/sodipodi-0.dtd"
   xmlns:inkscape="http://www.inkscape.org/namespaces/inkscape"
   width="16"
   height="16"
   id="svg2"
   version="1.1"
   inkscape:version="0.92.2 (5c3e80d, 2017-08-06)"
   sodipodi:docname="start-here.svg">
  <metadata
     id="metadata13">
    <rdf:RDF>
      <cc:Work
         rdf:about="">
        <dc:format>image/svg+xml</dc:format>
        <dc:type
           rdf:resource="http://purl.org/dc/dcmitype/StillImage" />
        <dc:title />
      </cc:Work>
    </rdf:RDF>
  </metadata>
  <sodipodi:namedview
     pagecolor="#ffffff"
     bordercolor="#666666"
     borderopacity="1"
     objecttolerance="10"
     gridtolerance="10"
     guidetolerance="10"
     inkscape:pageopacity="0"
     inkscape:pageshadow="2"
     inkscape:window-width="3061"
     inkscape:window-height="1537"
     id="namedview11"
     showgrid="false"
     inkscape:zoom="32"
     inkscape:cx="13.042285"
     inkscape:cy="18.515802"
     inkscape:window-x="305"
     inkscape:window-y="170"
     inkscape:window-maximized="0"
     inkscape:current-layer="layer1"
     units="px"
     inkscape:pagecheckerboard="false" />
  <defs
     id="defs4" />
  <g
     id="layer0"
     transform="translate(0,-35.199999)">
    <g
       id="layer1"
       transform="translate(0.87894,0.87894)"
       style="fill:none">
      <rect
         style="opacity:1;fill:#454545;fill-opacity:1;stroke-width:0.31334233"
         id="rect850"
         width="14.833333"
         height="14.833333"
         x="-0.29560664"
         y="34.904392" />
      <path
         id="gear_path"
         stroke-miterlimit="2.00000000000"
         d="m 4.0196167,38.597331 c -0.0205,0.0021 0.186147,-0.19993 0.1707336,-0.184607 L 3.2488267,39.32634 c -0.029937,0.02973 -0.03359,0.07526 -0.011613,0.111254 l 0.83277,1.3621 c -0.14787,0.246233 -0.2679533,0.510376 -0.35249,0.7904 l -1.5299538,0.31462 c -0.042575,0.0087 -0.073593,0.04886 -0.073593,0.09209 v 0.997567 c 0,0.0422 0.032381,0.0783 0.073593,0.08827 l 1.4834805,0.356834 c 0.079333,0.3242 0.2018767,0.634433 0.3640967,0.917 l -0.85988,1.296866 c -0.023983,0.03623 -0.019307,0.08453 0.011613,0.115134 l 0.7127,0.705966 c 0.030027,0.02963 0.07607,0.03337 0.1123233,0.0115 l 1.34791,-0.809566 c 0.2643967,0.151166 0.5505967,0.272333 0.85213,0.353 l 0.3137667,1.4964 c 0.00877,0.04223 0.045467,0.0729 0.089067,0.0729 H 7.62178 c 0.0423,0 0.079067,-0.02817 0.0891,-0.06917 l 0.3718333,-1.504 c 0.311,-0.08307 0.6042,-0.206367 0.8754,-0.3645 l 1.3285337,0.8633 c 0.03663,0.02363 0.08513,0.01907 0.1162,-0.0115 l 0.708833,-0.706 c 0.0301,-0.02977 0.03753,-0.07533 0.01547,-0.111267 l -0.484167,-0.7904 c 0,0 -0.207133,0.04663 -0.220767,0.02687 0,0 -0.305833,-0.445667 -0.7049663,-1.024433 -0.4773,0.9252 -1.4507334,1.557766 -2.5718667,1.557766 -1.5931333,0 -2.8856133,-1.280333 -2.8856133,-2.858466 0,-1.160847 0.7528433,-2.324554 1.75633,-2.771907 l -0.052083,-0.57002 c -0.1826,0.06332 -0.3590666,0.13972 -0.5267566,0.230213 -3.234e-4,-1.9e-4 3.1e-4,-0.0037 0,-0.0038 l -1.35953,-0.882493 c -0.01829,-0.01184 -0.03761,-0.0136 -0.05811,-0.0115 l 0.3347456,-0.0021 z"
         inkscape:connector-curvature="0"
         style="fill:#f9f9f9;stroke:#003bc3;stroke-width:0;stroke-linecap:butt;stroke-linejoin:miter;stroke-miterlimit:2"
         sodipodi:nodetypes="cccccccssccccccccccssccccccccccsscccccccc" />
      <path
         style="fill:#f9f9f9;stroke:#003bc3;stroke-width:0;stroke-linecap:butt;stroke-linejoin:miter;stroke-miterlimit:2"
         inkscape:connector-curvature="0"
         id="gear_path-1"
         stroke-miterlimit="2.00000000000"
         d="m 10.251931,46.262226 c 0.02001,-0.0017 0.04171,-0.0068 0.05698,-0.02149 l -0.0339,-1.184109 c 0.02967,-0.02852 0.836322,0.739129 0.815505,0.703635 L 10.23962,44.111873 c 0.148206,-0.237849 0.269634,-0.493644 0.356688,-0.765532 l 1.496147,-0.281462 c 0.04163,-0.0078 0.07253,-0.04646 0.07325,-0.08865 l 0.01666,-0.973628 c 7e-4,-0.04119 -0.03025,-0.07696 -0.07024,-0.08738 l -1.439648,-0.3731 c -0.07189,-0.31775 -0.186127,-0.622589 -0.339487,-0.901089 l 0.859581,-1.251354 c 0.02398,-0.03496 0.02022,-0.08218 -0.0094,-0.112565 l -0.682715,-0.700955 c -0.02876,-0.02942 -0.07357,-0.03384 -0.109264,-0.0131 L 9.0641797,39.330636 C 8.809058,39.17867 8.532188,39.055621 8.2397003,38.971843 L 7.958931,37.5061 C 7.951091,37.46473 7.915843,37.43419 7.873355,37.43346 L 6.892033,37.4166 c -0.041221,-7e-4 -0.077519,0.02617 -0.087981,0.06602 l -0.3874536,1.461684 c -0.304447,0.07587 -0.59222,0.191302 -0.8591367,0.3411 L 4.2772623,38.420583 c -0.035303,-0.02368 -0.082642,-0.02004 -0.1134253,0.0093 L 3.3871587,39.22572 c -0.029827,0.02854 0.03632,-0.04575 0.057226,-0.01031 l 0.458608,0.779536 c 0,0 0.2026236,-0.04205 0.215579,-0.02253 0,0 -0.017787,0.707637 0.3614903,1.279195 0.4805633,-0.895008 1.6011653,-1.527353 2.693675,-1.508587 1.5524603,0.02667 2.856454,1.09844 2.830103,2.638702 -0.019384,1.132989 -0.550829,2.536678 -1.536166,2.9565 l -0.099351,0.239875 c 0.1789963,-0.05874 0.3522323,-0.130357 0.5171526,-0.215872 3.157e-4,1.91e-4 -3.666e-4,0.0036 -6.4e-5,0.0037 l 1.3100844,0.884072 c 0.01763,0.01186 0.03642,0.0139 0.05644,0.0122 z"
         sodipodi:nodetypes="cccccccssccccccccccssccccccccccssccccccc" />
    </g>
  </g>
</svg>
