<?xml version="1.0" encoding="UTF-8" standalone="no"?>
<!-- Created with Inkscape (http://www.inkscape.org/) -->

<svg
   xmlns:dc="http://purl.org/dc/elements/1.1/"
   xmlns:cc="http://creativecommons.org/ns#"
   xmlns:rdf="http://www.w3.org/1999/02/22-rdf-syntax-ns#"
   xmlns:svg="http://www.w3.org/2000/svg"
   xmlns="http://www.w3.org/2000/svg"
   xmlns:xlink="http://www.w3.org/1999/xlink"
   xmlns:sodipodi="http://sodipodi.sourceforge.net/DTD/sodipodi-0.dtd"
   xmlns:inkscape="http://www.inkscape.org/namespaces/inkscape"
   width="16"
   height="16"
   id="svg5453"
   version="1.1"
   inkscape:version="0.92.2 (5c3e80d, 2017-08-06)"
   sodipodi:docname="folder-pictures.svg">
  <defs
     id="defs5455">
    <linearGradient
       inkscape:collect="always"
       id="linearGradient4233">
      <stop
         style="stop-color:#345671;stop-opacity:1;"
         offset="0"
         id="stop4235" />
      <stop
         style="stop-color:#345671;stop-opacity:0;"
         offset="1"
         id="stop4237" />
    </linearGradient>
    <linearGradient
       id="linearGradient4232"
       inkscape:collect="always">
      <stop
         id="stop4234"
         offset="0"
         style="stop-color:#3d6584;stop-opacity:1" />
      <stop
         id="stop4236"
         offset="1"
         style="stop-color:#4a7ba3;stop-opacity:1" />
    </linearGradient>
    <linearGradient
       id="linearGradient4172">
      <stop
         style="stop-color:#7c92ba;stop-opacity:1;"
         offset="0"
         id="stop4174" />
      <stop
         style="stop-color:#8eb7dd;stop-opacity:1"
         offset="1"
         id="stop4176" />
    </linearGradient>
    <linearGradient
       inkscape:collect="always"
       xlink:href="#linearGradient4172"
       id="linearGradient4178"
       x1="414.57144"
       y1="541.79797"
       x2="414.57144"
       y2="499.798"
       gradientUnits="userSpaceOnUse"
       gradientTransform="matrix(0.25000009,0,0,0.24991858,288.42855,410.89266)" />
    <linearGradient
       inkscape:collect="always"
       xlink:href="#linearGradient4232"
       id="linearGradient4182"
       gradientUnits="userSpaceOnUse"
       x1="414.57144"
       y1="523.79797"
       x2="414.57144"
       y2="505.798"
       gradientTransform="matrix(0.25000009,0,0,0.24988606,288.42855,406.90937)" />
    <linearGradient
       inkscape:collect="always"
       xlink:href="#linearGradient4233"
       id="linearGradient4239"
       x1="384.57144"
       y1="477.798"
       x2="404.57144"
       y2="497.798"
       gradientUnits="userSpaceOnUse"
       gradientTransform="matrix(0.25000009,0,0,0.24999994,288.42855,410.84858)" />
  </defs>
  <sodipodi:namedview
     id="base"
     pagecolor="#ffffff"
     bordercolor="#666666"
     borderopacity="1.0"
     inkscape:pageopacity="0"
     inkscape:pageshadow="2"
     inkscape:zoom="31.999998"
     inkscape:cx="12.281293"
     inkscape:cy="7.8855061"
     inkscape:document-units="px"
     inkscape:current-layer="layer1"
     showgrid="true"
     fit-margin-top="0"
     fit-margin-left="0"
     fit-margin-right="0"
     fit-margin-bottom="0"
     inkscape:window-width="3738"
     inkscape:window-height="2041"
     inkscape:window-x="102"
     inkscape:window-y="55"
     inkscape:window-maximized="1"
     inkscape:showpageshadow="false"
     borderlayer="true"
     showguides="true">
    <sodipodi:guide
       position="6.0000117,57.999996"
       orientation="51.999969,0"
       id="guide4097"
       inkscape:locked="false" />
    <sodipodi:guide
       position="6.0000117,6.0000264"
       orientation="0,52"
       id="guide4099"
       inkscape:locked="false" />
    <sodipodi:guide
       position="58.000012,6.0000264"
       orientation="-51.999969,0"
       id="guide4101"
       inkscape:locked="false" />
    <sodipodi:guide
       position="58.000012,57.999996"
       orientation="0,-52"
       id="guide4103"
       inkscape:locked="false" />
    <sodipodi:guide
       position="3.0000117,60.999996"
       orientation="57.999969,0"
       id="guide4105"
       inkscape:locked="false" />
    <sodipodi:guide
       position="3.0000117,3.0000264"
       orientation="0,58"
       id="guide4107"
       inkscape:locked="false" />
    <sodipodi:guide
       position="61.000012,3.0000264"
       orientation="-57.999969,0"
       id="guide4109"
       inkscape:locked="false" />
    <sodipodi:guide
       position="61.000012,60.999996"
       orientation="0,-58"
       id="guide4111"
       inkscape:locked="false" />
    <inkscape:grid
       type="xygrid"
       id="grid4115" />
  </sodipodi:namedview>
  <metadata
     id="metadata5458">
    <rdf:RDF>
      <cc:Work
         rdf:about="">
        <dc:format>image/svg+xml</dc:format>
        <dc:type
           rdf:resource="http://purl.org/dc/dcmitype/StillImage" />
        <dc:title></dc:title>
      </cc:Work>
    </rdf:RDF>
  </metadata>
  <g
     inkscape:label="Capa 1"
     inkscape:groupmode="layer"
     id="layer1"
     transform="translate(-384.57143,-531.798)">
    <path
       style="fill:url(#linearGradient4182);fill-opacity:1;stroke:none;stroke-width:0.25000003"
       d="m 385.57144,533.29805 v 1.25 5.5 c 0,0.13843 0.1115,0.25 0.25,0.25 h 13.5 c 0.1385,0 0.25,-0.11157 0.25,-0.25 v -5.49756 c 0,-7.5e-4 -5e-4,-10e-4 -5e-4,-0.002 h 5e-4 v -0.25 h -7 l -0.75,-1 h -6.25 z"
       id="rect4180"
       inkscape:connector-curvature="0" />
    <path
       style="fill:url(#linearGradient4239);fill-opacity:1;fill-rule:evenodd;stroke:none;stroke-width:0.25000003px;stroke-linecap:butt;stroke-linejoin:miter;stroke-opacity:1"
       d="m 385.57144,533.29805 6.5,6.5 0.25,0.25 7.25,-4.18579 v -1.56421 h -7 l -0.75,-1 z"
       id="path4230"
       inkscape:connector-curvature="0" />
    <path
       style="fill:url(#linearGradient4178);fill-opacity:1;stroke:none;stroke-width:0.25000003"
       d="m 390.07144,535.79805 -0.75,1 h -4 v 0.25 h 5e-4 c -10e-6,10e-4 -5e-4,0.002 -5e-4,0.003 v 8.99707 0.25 h 0.25 14 0.25 v -0.25 -8.99707 -0.003 -1.25 z"
       id="rect4113"
       inkscape:connector-curvature="0" />
    <path
       style="fill:#8fb1cc;fill-opacity:1;fill-rule:evenodd;stroke:none;stroke-width:0.25000003px;stroke-linecap:butt;stroke-linejoin:miter;stroke-opacity:1"
       d="m 399.57144,534.29805 v 0.25 h -7.25 l -0.5,-1.25 0.75,1 z"
       id="path4222"
       inkscape:connector-curvature="0" />
    <path
       style="fill:#ffffff;fill-opacity:0.23529412;fill-rule:evenodd;stroke:none;stroke-width:0.25000003px;stroke-linecap:butt;stroke-linejoin:miter;stroke-opacity:1"
       d="m 385.32144,536.79805 v 0.25 h 4.25 l 0.5,-1.25 -0.75,1 z"
       id="path4224"
       inkscape:connector-curvature="0" />
    <path
       style="fill:#345671;fill-opacity:1;fill-rule:evenodd;stroke:none;stroke-width:0.25000003px;stroke-linecap:butt;stroke-linejoin:miter;stroke-opacity:1"
       d="m 385.57144,536.54805 v 0.25 h 3.75 l 0.75,-1 -1.25,0.75 z"
       id="path4228"
       inkscape:connector-curvature="0" />
    <path
       inkscape:connector-curvature="0"
       style="fill:#466e9a;fill-opacity:1;stroke:none;stroke-width:0.25000003"
       d="m 385.32144,546.04804 v 0.25 h 0.25 14 0.25 v -0.25 h -0.25 -14 z"
       id="path4151-2" />
    <path
       inkscape:connector-curvature="0"
       d="m 393.20528,537.67353 c -0.0399,-0.003 -0.0839,0.009 -0.12135,0.0303 l -2.10211,1.21359 h 1.66435 l 0.43342,-0.25139 0.14303,0.25139 h 0.80617 l -0.6588,-1.13991 c -0.036,-0.0624 -0.0981,-0.0994 -0.16471,-0.10402 z m -2.93427,1.65568 -1.14857,0.66314 c -0.0998,0.0576 -0.13564,0.18193 -0.078,0.28172 l 1.22659,2.12378 v -1.38696 l -0.31207,-0.54178 0.31207,-0.18203 z m 0.62413,0.0173 c -0.11523,0 -0.20805,0.0928 -0.20805,0.20804 v 4.57262 c 0,0.11523 0.0928,0.20804 0.20805,0.20804 h 4.57695 c 0.11523,0 0.20805,-0.0928 0.20805,-0.20804 v -4.57262 c 0,-0.11523 -0.0928,-0.20804 -0.20805,-0.20804 z m 0.48543,0.82784 h 3.60608 v 2.91261 h -3.60608 z"
       id="rect6430-9-7"
       style="color:#000000;display:inline;overflow:visible;visibility:visible;opacity:0.3;fill:#ffffff;fill-opacity:1;fill-rule:nonzero;stroke:none;stroke-width:0.42500004;marker:none;enable-background:accumulate" />
    <path
       inkscape:connector-curvature="0"
       d="m 393.20528,537.5349 c -0.0399,-0.003 -0.0839,0.009 -0.12135,0.0303 l -2.10211,1.21359 h 1.66435 l 0.43342,-0.25138 0.14303,0.25138 h 0.80617 l -0.6588,-1.1399 c -0.036,-0.0624 -0.0981,-0.0994 -0.16471,-0.10403 z m -2.93427,1.65568 -1.14857,0.66314 c -0.0998,0.0576 -0.13564,0.18194 -0.078,0.28173 l 1.22659,2.12377 v -1.38695 l -0.31207,-0.54178 0.31207,-0.18204 z m 0.62413,0.0174 c -0.11523,0 -0.20805,0.0928 -0.20805,0.20805 v 4.57261 c 0,0.11523 0.0928,0.20805 0.20805,0.20805 h 4.57695 c 0.11523,0 0.20805,-0.0928 0.20805,-0.20805 v -4.57261 c 0,-0.11523 -0.0928,-0.20805 -0.20805,-0.20805 z m 0.48543,0.82784 h 3.60608 v 2.91261 h -3.60608 z"
       id="rect6430-9"
       style="color:#000000;display:inline;overflow:visible;visibility:visible;fill:#163950;fill-opacity:0.85098039;fill-rule:nonzero;stroke:none;stroke-width:0.42500004;marker:none;enable-background:accumulate" />
  </g>
</svg>
