<?xml version="1.0" encoding="UTF-8" standalone="no"?>
<!-- Created with Inkscape (http://www.inkscape.org/) -->

<svg
   xmlns:dc="http://purl.org/dc/elements/1.1/"
   xmlns:cc="http://creativecommons.org/ns#"
   xmlns:rdf="http://www.w3.org/1999/02/22-rdf-syntax-ns#"
   xmlns:svg="http://www.w3.org/2000/svg"
   xmlns="http://www.w3.org/2000/svg"
   xmlns:xlink="http://www.w3.org/1999/xlink"
   xmlns:sodipodi="http://sodipodi.sourceforge.net/DTD/sodipodi-0.dtd"
   xmlns:inkscape="http://www.inkscape.org/namespaces/inkscape"
   width="96"
   height="96"
   id="svg2408"
   sodipodi:version="0.32"
   inkscape:version="0.92.1 r15371"
   version="1.0"
   sodipodi:docname="image-missing.svg"
   inkscape:output_extension="org.inkscape.output.svg.inkscape"
   style="display:inline">
  <defs
     id="defs2410">
    <linearGradient
       inkscape:collect="always"
       id="linearGradient3806">
      <stop
         style="stop-color:#fff6d5;stop-opacity:1;"
         offset="0"
         id="stop3808" />
      <stop
         style="stop-color:#fff6d5;stop-opacity:0;"
         offset="1"
         id="stop3810" />
    </linearGradient>
    <inkscape:perspective
       sodipodi:type="inkscape:persp3d"
       inkscape:vp_x="0 : 48 : 1"
       inkscape:vp_y="0 : 1000 : 0"
       inkscape:vp_z="96 : 48 : 1"
       inkscape:persp3d-origin="48 : 32 : 1"
       id="perspective144" />
    <linearGradient
       id="linearGradient3940">
      <stop
         id="stop3942"
         offset="0"
         style="stop-color:#272727;stop-opacity:1;" />
      <stop
         id="stop3944"
         offset="1"
         style="stop-color:#363636;stop-opacity:1;" />
    </linearGradient>
    <linearGradient
       id="linearGradient3928">
      <stop
         style="stop-color:#00ce99;stop-opacity:1;"
         offset="0"
         id="stop3930" />
      <stop
         style="stop-color:#00805f;stop-opacity:0;"
         offset="1"
         id="stop3932" />
    </linearGradient>
    <linearGradient
       inkscape:collect="always"
       id="linearGradient3827">
      <stop
         style="stop-color:#ffffff;stop-opacity:1;"
         offset="0"
         id="stop3829" />
      <stop
         style="stop-color:#ffffff;stop-opacity:0;"
         offset="1"
         id="stop3831" />
    </linearGradient>
    <linearGradient
       id="linearGradient3751">
      <stop
         style="stop-color:#80e5ff;stop-opacity:1;"
         offset="0"
         id="stop3754" />
      <stop
         id="stop3869"
         offset="0.5"
         style="stop-color:#80e5ff;stop-opacity:0.40310079;" />
      <stop
         style="stop-color:#80e5ff;stop-opacity:0;"
         offset="1"
         id="stop3756" />
    </linearGradient>
    <linearGradient
       inkscape:collect="always"
       id="linearGradient3739">
      <stop
         style="stop-color:#5fbcd3;stop-opacity:1;"
         offset="0"
         id="stop3742" />
      <stop
         style="stop-color:#5fbcd3;stop-opacity:0;"
         offset="1"
         id="stop3745" />
    </linearGradient>
    <linearGradient
       id="linearGradient3729">
      <stop
         style="stop-color:#5184cf;stop-opacity:1"
         offset="0"
         id="stop3731" />
      <stop
         style="stop-color:#194fa0;stop-opacity:1"
         offset="1"
         id="stop3733" />
    </linearGradient>
    <linearGradient
       inkscape:collect="always"
       id="linearGradient3718">
      <stop
         style="stop-color:#000000;stop-opacity:1;"
         offset="0"
         id="stop3720" />
      <stop
         style="stop-color:#000000;stop-opacity:0;"
         offset="1"
         id="stop3722" />
    </linearGradient>
    <linearGradient
       id="ButtonShadow"
       gradientTransform="scale(1.0058652,0.994169)"
       x1="45.447727"
       y1="92.539597"
       x2="45.447727"
       y2="7.0165396"
       gradientUnits="userSpaceOnUse">
      <stop
         style="stop-color:#000000;stop-opacity:1;"
         offset="0"
         id="stop3750" />
      <stop
         style="stop-color:#000000;stop-opacity:0.58823532;"
         offset="1"
         id="stop3752" />
    </linearGradient>
    <linearGradient
       id="linearGradient3700">
      <stop
         style="stop-color:#e6e6e6;stop-opacity:1;"
         offset="0"
         id="stop3702" />
      <stop
         style="stop-color:#f5f5f5;stop-opacity:1;"
         offset="1"
         id="stop3704" />
    </linearGradient>
    <linearGradient
       inkscape:collect="always"
       xlink:href="#linearGradient3700"
       id="linearGradient3706"
       x1="48"
       y1="90"
       x2="48"
       y2="5.9877172"
       gradientUnits="userSpaceOnUse" />
    <filter
       inkscape:collect="always"
       id="filter3174"
       color-interpolation-filters="sRGB">
      <feGaussianBlur
         inkscape:collect="always"
         stdDeviation="1.71"
         id="feGaussianBlur3176" />
    </filter>
    <linearGradient
       id="ButtonShadow-0"
       gradientTransform="matrix(1.0058652,0,0,0.994169,100,0)"
       x1="45.447727"
       y1="92.539597"
       x2="45.447727"
       y2="7.0165396"
       gradientUnits="userSpaceOnUse">
      <stop
         style="stop-color:#000000;stop-opacity:1;"
         offset="0"
         id="stop3750-8" />
      <stop
         style="stop-color:#000000;stop-opacity:0.58823532;"
         offset="1"
         id="stop3752-5" />
    </linearGradient>
    <linearGradient
       inkscape:collect="always"
       xlink:href="#ButtonShadow-0"
       id="linearGradient3780"
       gradientUnits="userSpaceOnUse"
       gradientTransform="matrix(1.0238095,0,0,1.0119048,-1.1428571,-98.071429)"
       x1="32.251034"
       y1="6.1317081"
       x2="32.251034"
       y2="90.238609" />
    <linearGradient
       inkscape:collect="always"
       xlink:href="#ButtonShadow-0"
       id="linearGradient3772"
       gradientUnits="userSpaceOnUse"
       gradientTransform="matrix(1.0238095,0,0,1.0119048,-1.1428571,-98.071429)"
       x1="32.251034"
       y1="6.1317081"
       x2="32.251034"
       y2="90.238609" />
    <linearGradient
       inkscape:collect="always"
       xlink:href="#ButtonShadow-0"
       id="linearGradient3725"
       gradientUnits="userSpaceOnUse"
       gradientTransform="matrix(1.0238095,0,0,1.0119048,-1.1428571,-98.071429)"
       x1="32.251034"
       y1="6.1317081"
       x2="32.251034"
       y2="90.238609" />
    <linearGradient
       inkscape:collect="always"
       xlink:href="#ButtonShadow-0"
       id="linearGradient3721"
       gradientUnits="userSpaceOnUse"
       gradientTransform="translate(0,-97)"
       x1="32.251034"
       y1="6.1317081"
       x2="32.251034"
       y2="90.238609" />
    <linearGradient
       y2="90.238609"
       x2="32.251034"
       y1="6.1317081"
       x1="32.251034"
       gradientTransform="matrix(1.0238095,0,0,1.0119048,-1.1428571,-98.071429)"
       gradientUnits="userSpaceOnUse"
       id="linearGradient3760"
       xlink:href="#ButtonShadow-0"
       inkscape:collect="always" />
    <linearGradient
       inkscape:collect="always"
       id="linearGradient3737-1">
      <stop
         style="stop-color:#ffffff;stop-opacity:1;"
         offset="0"
         id="stop3739-9" />
      <stop
         style="stop-color:#ffffff;stop-opacity:0;"
         offset="1"
         id="stop3741-3" />
    </linearGradient>
    <radialGradient
       r="42"
       fy="90.171875"
       fx="48"
       cy="90.171875"
       cx="48"
       gradientTransform="matrix(1.1573129,0,0,0.99590774,-7.551021,0.1971319)"
       gradientUnits="userSpaceOnUse"
       id="radialGradient2886"
       xlink:href="#linearGradient3737-0"
       inkscape:collect="always" />
    <linearGradient
       inkscape:collect="always"
       id="linearGradient3737-0">
      <stop
         style="stop-color:#ffffff;stop-opacity:1;"
         offset="0"
         id="stop3739-6" />
      <stop
         style="stop-color:#ffffff;stop-opacity:0;"
         offset="1"
         id="stop3741-0" />
    </linearGradient>
    <linearGradient
       y2="63.893143"
       x2="36.357143"
       y1="6"
       x1="36.357143"
       gradientUnits="userSpaceOnUse"
       id="linearGradient3923"
       xlink:href="#linearGradient3737-1"
       inkscape:collect="always" />
    <linearGradient
       inkscape:collect="always"
       xlink:href="#linearGradient3718"
       id="linearGradient3724"
       x1="32"
       y1="72"
       x2="32"
       y2="-16"
       gradientUnits="userSpaceOnUse" />
    <radialGradient
       inkscape:collect="always"
       xlink:href="#linearGradient3729"
       id="radialGradient3735"
       cx="80"
       cy="78.857147"
       fx="80"
       fy="78.857147"
       r="36"
       gradientTransform="matrix(-7.7472024e-8,-1.3333334,1.7777778,-1.0329603e-7,-60.190477,178.66668)"
       gradientUnits="userSpaceOnUse" />
    <radialGradient
       inkscape:collect="always"
       xlink:href="#linearGradient3739"
       id="radialGradient3747"
       cx="47.977352"
       cy="64.057671"
       fx="47.977352"
       fy="64.057671"
       r="24.022646"
       gradientUnits="userSpaceOnUse" />
    <radialGradient
       inkscape:collect="always"
       xlink:href="#linearGradient3751"
       id="radialGradient3758"
       cx="60.562889"
       cy="49.720657"
       fx="60.562889"
       fy="49.720657"
       r="19.437111"
       gradientUnits="userSpaceOnUse" />
    <linearGradient
       inkscape:collect="always"
       xlink:href="#linearGradient3737-1"
       id="linearGradient3768"
       x1="20.91045"
       y1="0.75683123"
       x2="40"
       y2="72"
       gradientUnits="userSpaceOnUse" />
    <linearGradient
       inkscape:collect="always"
       xlink:href="#linearGradient3737-1"
       id="linearGradient3773"
       gradientUnits="userSpaceOnUse"
       x1="20.91045"
       y1="0.75683123"
       x2="40"
       y2="72" />
    <linearGradient
       inkscape:collect="always"
       xlink:href="#linearGradient3737-1"
       id="linearGradient3777"
       gradientUnits="userSpaceOnUse"
       x1="23.304348"
       y1="7.1304359"
       x2="29.565218"
       y2="94.782608" />
    <radialGradient
       inkscape:collect="always"
       xlink:href="#linearGradient3827"
       id="radialGradient3833"
       cx="58.5"
       cy="37.5"
       fx="58.5"
       fy="37.5"
       r="2.5"
       gradientUnits="userSpaceOnUse" />
    <radialGradient
       inkscape:collect="always"
       xlink:href="#linearGradient3827"
       id="radialGradient3837"
       gradientUnits="userSpaceOnUse"
       cx="58.5"
       cy="37.5"
       fx="58.5"
       fy="37.5"
       r="2.5" />
    <radialGradient
       inkscape:collect="always"
       xlink:href="#linearGradient3827"
       id="radialGradient3841"
       gradientUnits="userSpaceOnUse"
       cx="58.5"
       cy="37.5"
       fx="58.5"
       fy="37.5"
       r="2.5" />
    <radialGradient
       inkscape:collect="always"
       xlink:href="#linearGradient3827"
       id="radialGradient3845"
       gradientUnits="userSpaceOnUse"
       cx="58.5"
       cy="37.5"
       fx="58.5"
       fy="37.5"
       r="2.5" />
    <radialGradient
       inkscape:collect="always"
       xlink:href="#linearGradient3827"
       id="radialGradient3849"
       gradientUnits="userSpaceOnUse"
       cx="58.5"
       cy="37.5"
       fx="58.5"
       fy="37.5"
       r="2.5" />
    <radialGradient
       inkscape:collect="always"
       xlink:href="#linearGradient3827"
       id="radialGradient3853"
       gradientUnits="userSpaceOnUse"
       cx="58.5"
       cy="37.5"
       fx="58.5"
       fy="37.5"
       r="2.5" />
    <radialGradient
       inkscape:collect="always"
       xlink:href="#linearGradient3827"
       id="radialGradient3857"
       gradientUnits="userSpaceOnUse"
       cx="58.5"
       cy="37.5"
       fx="58.5"
       fy="37.5"
       r="2.5" />
    <radialGradient
       inkscape:collect="always"
       xlink:href="#linearGradient3827"
       id="radialGradient3861"
       gradientUnits="userSpaceOnUse"
       cx="58.5"
       cy="37.5"
       fx="58.5"
       fy="37.5"
       r="2.5" />
    <radialGradient
       inkscape:collect="always"
       xlink:href="#linearGradient3751"
       id="radialGradient3867"
       gradientUnits="userSpaceOnUse"
       cx="60.562889"
       cy="49.720657"
       fx="60.562889"
       fy="49.720657"
       r="19.437111" />
    <radialGradient
       inkscape:collect="always"
       xlink:href="#linearGradient3928"
       id="radialGradient3934"
       cx="56"
       cy="24"
       fx="56"
       fy="24"
       r="16"
       gradientUnits="userSpaceOnUse" />
    <linearGradient
       inkscape:collect="always"
       xlink:href="#linearGradient3940"
       id="linearGradient3938"
       x1="48"
       y1="48"
       x2="48"
       y2="72"
       gradientUnits="userSpaceOnUse"
       spreadMethod="reflect" />
    <radialGradient
       inkscape:collect="always"
       xlink:href="#linearGradient3827"
       id="radialGradient3948"
       gradientUnits="userSpaceOnUse"
       cx="58.5"
       cy="37.5"
       fx="58.5"
       fy="37.5"
       r="2.5" />
    <clipPath
       clipPathUnits="userSpaceOnUse"
       id="clipPath2952">
      <rect
         style="opacity:0.65163933;color:#000000;fill:#ff0000;fill-opacity:1;fill-rule:nonzero;stroke:none;stroke-width:1;marker:none;visibility:visible;display:inline;overflow:visible;enable-background:accumulate"
         id="rect2954"
         width="72"
         height="55.999996"
         x="12"
         y="20"
         rx="3"
         ry="3" />
    </clipPath>
    <clipPath
       clipPathUnits="userSpaceOnUse"
       id="clipPath2956">
      <rect
         style="opacity:0.65163933;color:#000000;fill:#ff0000;fill-opacity:1;fill-rule:nonzero;stroke:none;stroke-width:1;marker:none;visibility:visible;display:inline;overflow:visible;enable-background:accumulate"
         id="rect2958"
         width="72"
         height="55.999996"
         x="12"
         y="20"
         rx="3"
         ry="3" />
    </clipPath>
    <linearGradient
       inkscape:collect="always"
       xlink:href="#linearGradient3718"
       id="linearGradient3748"
       x1="64"
       y1="80"
       x2="64"
       y2="-40.066647"
       gradientUnits="userSpaceOnUse"
       gradientTransform="translate(-20,0)" />
    <inkscape:perspective
       id="perspective3080"
       inkscape:persp3d-origin="0.5 : 0.33333333 : 1"
       inkscape:vp_z="1 : 0.5 : 1"
       inkscape:vp_y="0 : 1000 : 0"
       inkscape:vp_x="0 : 0.5 : 1"
       sodipodi:type="inkscape:persp3d" />
    <linearGradient
       inkscape:collect="always"
       xlink:href="#linearGradient5452"
       id="linearGradient3324"
       gradientUnits="userSpaceOnUse"
       x1="59.4375"
       y1="8.96875"
       x2="59.4375"
       y2="87.50676"
       gradientTransform="matrix(0.36936935,0,0,0.36936934,24.360359,24.360363)" />
    <linearGradient
       id="linearGradient5452">
      <stop
         id="stop5454"
         offset="0"
         style="stop-color:#ffffff;stop-opacity:1;" />
      <stop
         id="stop5456"
         offset="1"
         style="stop-color:#ffffff;stop-opacity:0;" />
    </linearGradient>
    <linearGradient
       id="linearGradient3089">
      <stop
         id="stop3091"
         offset="0"
         style="stop-color:#ffffff;stop-opacity:1;" />
      <stop
         id="stop3093"
         offset="1"
         style="stop-color:#ffffff;stop-opacity:0;" />
    </linearGradient>
    <linearGradient
       inkscape:collect="always"
       xlink:href="#linearGradient3290-7"
       id="linearGradient3330"
       gradientUnits="userSpaceOnUse"
       gradientTransform="matrix(0.36607141,0,0,0.36607137,24.571431,24.571434)"
       x1="47.609753"
       y1="121.36586"
       x2="47.609753"
       y2="6.6341324" />
    <linearGradient
       id="linearGradient3290">
      <stop
         id="stop3292"
         offset="0"
         style="stop-color:#a50000;stop-opacity:1;" />
      <stop
         id="stop3294"
         offset="1"
         style="stop-color:#ff3e01;stop-opacity:1;" />
    </linearGradient>
    <linearGradient
       inkscape:collect="always"
       xlink:href="#linearGradient3806"
       id="linearGradient3812"
       x1="52"
       y1="28"
       x2="52"
       y2="91.007935"
       gradientUnits="userSpaceOnUse" />
    <inkscape:perspective
       id="perspective3885"
       inkscape:persp3d-origin="0.5 : 0.33333333 : 1"
       inkscape:vp_z="1 : 0.5 : 1"
       inkscape:vp_y="0 : 1000 : 0"
       inkscape:vp_x="0 : 0.5 : 1"
       sodipodi:type="inkscape:persp3d" />
    <linearGradient
       inkscape:collect="always"
       xlink:href="#linearGradient3290-7"
       id="linearGradient3330-4"
       gradientUnits="userSpaceOnUse"
       gradientTransform="matrix(-0.25892856,0,0,-0.25892856,64.571427,56.571426)"
       x1="68.457626"
       y1="8"
       x2="68.457626"
       y2="120.01277" />
    <linearGradient
       id="linearGradient3290-7">
      <stop
         id="stop3292-2"
         offset="0"
         style="stop-color:#ba0000;stop-opacity:1;" />
      <stop
         id="stop3294-3"
         offset="1"
         style="stop-color:#ff331e;stop-opacity:1;" />
    </linearGradient>
    <linearGradient
       y2="120.01277"
       x2="68.457626"
       y1="8"
       x1="68.457626"
       gradientTransform="matrix(-0.25892856,0,0,-0.25892856,80.571427,72.571426)"
       gradientUnits="userSpaceOnUse"
       id="linearGradient3894"
       xlink:href="#linearGradient3290-7"
       inkscape:collect="always" />
  </defs>
  <sodipodi:namedview
     id="base"
     pagecolor="#ffffff"
     bordercolor="#666666"
     borderopacity="1.0"
     inkscape:pageopacity="0.0"
     inkscape:pageshadow="2"
     inkscape:zoom="3.9650059"
     inkscape:cx="82.356603"
     inkscape:cy="-23.192511"
     inkscape:document-units="px"
     inkscape:current-layer="g3871"
     showgrid="true"
     showborder="true"
     inkscape:showpageshadow="false"
     inkscape:window-width="3742"
     inkscape:window-height="2112"
     inkscape:window-x="98"
     inkscape:window-y="48"
     inkscape:window-maximized="1"
     inkscape:snap-global="true">
    <inkscape:grid
       type="xygrid"
       id="grid3732"
       visible="true"
       enabled="true" />
  </sodipodi:namedview>
  <metadata
     id="metadata2413">
    <rdf:RDF>
      <cc:Work
         rdf:about="">
        <dc:format>image/svg+xml</dc:format>
        <dc:type
           rdf:resource="http://purl.org/dc/dcmitype/StillImage" />
        <dc:title />
      </cc:Work>
    </rdf:RDF>
  </metadata>
  <g
     inkscape:groupmode="layer"
     id="layer2"
     inkscape:label="Blur Shadow"
     sodipodi:insensitive="true"
     style="display:none">
    <rect
       style="opacity:0.9;fill:url(#ButtonShadow);fill-opacity:1;fill-rule:nonzero;stroke:none;filter:url(#filter3174)"
       id="rect3745"
       width="86"
       height="85"
       x="5"
       y="7"
       rx="6"
       ry="6" />
  </g>
  <g
     inkscape:groupmode="layer"
     id="layer6"
     inkscape:label="Shadow"
     style="display:inline"
     sodipodi:insensitive="true">
    <path
       sodipodi:type="inkscape:offset"
       inkscape:radius="0.99097413"
       inkscape:original="M 12 -94.03125 C 7.028367 -94.03125 2.96875 -89.971633 2.96875 -85 L 2.96875 -14 C 2.96875 -9.0283671 7.0283671 -4.96875 12 -4.96875 L 84 -4.96875 C 88.971633 -4.96875 93.03125 -9.028367 93.03125 -14 L 93.03125 -85 C 93.03125 -89.971633 88.971633 -94.03125 84 -94.03125 L 12 -94.03125 z "
       style="display:inline;opacity:0.07999998;fill:url(#linearGradient3760);fill-opacity:1;fill-rule:nonzero;stroke:none"
       id="path3786"
       d="M 12,-95.021484 C 6.4889097,-95.021484 1.9785156,-90.51109 1.9785156,-85 v 71 c 0,5.5110902 4.5103942,10.0214844 10.0214844,10.0214844 h 72 c 5.51109,0 10.021484,-4.5103941 10.021484,-10.0214844 v -71 c 0,-5.51109 -4.510394,-10.021484 -10.021484,-10.021484 z"
       transform="scale(1,-1)" />
    <path
       sodipodi:type="inkscape:offset"
       inkscape:radius="1.0360184"
       inkscape:original="M 12 -93 C 7.5908667 -93 4 -89.409133 4 -85 L 4 -14 C 4 -9.5908667 7.5908667 -6 12 -6 L 84 -6 C 88.409133 -6 92 -9.5908667 92 -14 L 92 -85 C 92 -89.409133 88.409133 -93 84 -93 L 12 -93 z "
       style="display:inline;opacity:0.1;fill:url(#linearGradient3780);fill-opacity:1;fill-rule:nonzero;stroke:none"
       id="path3778"
       d="m 12,-94.035156 c -4.971633,0 -9.0351562,4.063523 -9.0351562,9.035156 v 71 c 0,4.9716329 4.0635233,9.0351562 9.0351562,9.0351562 h 72 c 4.971633,0 9.035156,-4.0635232 9.035156,-9.0351562 v -71 c 0,-4.971633 -4.063523,-9.035156 -9.035156,-9.035156 z"
       transform="scale(1,-1)" />
    <path
       sodipodi:type="inkscape:offset"
       inkscape:radius="0.98962283"
       inkscape:original="M 12 -92 C 8.122 -92 5 -88.878 5 -85 L 5 -14 C 5 -10.122 8.122 -7 12 -7 L 84 -7 C 87.878 -7 91 -10.122 91 -14 L 91 -85 C 91 -88.878 87.878 -92 84 -92 L 12 -92 z "
       style="display:inline;opacity:0.2;fill:url(#linearGradient3772);fill-opacity:1;fill-rule:nonzero;stroke:none"
       id="path3770"
       d="m 12,-92.990234 c -4.4091333,0 -7.9902344,3.581101 -7.9902344,7.990234 v 71 c 0,4.4091333 3.5811011,7.9902344 7.9902344,7.9902344 h 72 c 4.409133,0 7.990234,-3.5811011 7.990234,-7.9902344 v -71 c 0,-4.409133 -3.581101,-7.990234 -7.990234,-7.990234 z"
       transform="scale(1,-1)" />
    <rect
       style="display:inline;opacity:0.3;fill:url(#linearGradient3725);fill-opacity:1;fill-rule:nonzero;stroke:none"
       id="rect3723"
       width="86"
       height="85"
       x="5"
       y="-92"
       rx="7"
       ry="7"
       transform="scale(1,-1)" />
    <rect
       transform="scale(1,-1)"
       ry="6"
       rx="6"
       y="-91"
       x="6"
       height="84"
       width="84"
       id="rect3716"
       style="display:inline;opacity:0.45;fill:url(#linearGradient3721);fill-opacity:1;fill-rule:nonzero;stroke:none" />
  </g>
  <g
     inkscape:label="Button"
     inkscape:groupmode="layer"
     id="layer1"
     style="display:inline">
    <rect
       style="fill:url(#linearGradient3706);fill-opacity:1;fill-rule:nonzero;stroke:none"
       id="rect2419"
       width="84"
       height="84"
       x="6"
       y="6"
       rx="6"
       ry="6" />
    <path
       style="display:inline;opacity:0.5;fill:url(#linearGradient3923);fill-opacity:1;fill-rule:nonzero;stroke:none"
       d="M 12,6 C 8.676,6 6,8.676 6,12 v 2 68 2 c 0,0.334721 0.04135,0.6507 0.09375,0.96875 0.0487,0.295596 0.09704,0.596915 0.1875,0.875 0.0099,0.03038 0.02089,0.0636 0.03125,0.09375 0.09886,0.287771 0.23488,0.547452 0.375,0.8125 0.144592,0.273507 0.315616,0.535615 0.5,0.78125 0.184384,0.245635 0.373776,0.473472 0.59375,0.6875 0.439947,0.428056 0.94291,0.814526 1.5,1.09375 0.278545,0.139612 0.573473,0.246947 0.875,0.34375 -0.256202,-0.100222 -0.486711,-0.236272 -0.71875,-0.375 -0.0074,-0.0044 -0.02387,0.0045 -0.03125,0 -0.03193,-0.0193 -0.06229,-0.04251 -0.09375,-0.0625 -0.120395,-0.0767 -0.231023,-0.163513 -0.34375,-0.25 -0.106173,-0.0808 -0.213281,-0.161112 -0.3125,-0.25 C 8.47832,88.557317 8.30879,88.373362 8.15625,88.1875 8.048671,88.057245 7.937856,87.922215 7.84375,87.78125 7.81866,87.74287 7.8053,87.69538 7.78125,87.65625 7.71649,87.553218 7.651022,87.451733 7.59375,87.34375 7.492742,87.149044 7.388075,86.928049 7.3125,86.71875 7.3045,86.69694 7.28891,86.6782 7.28125,86.65625 7.24942,86.5643 7.24545,86.469419 7.21875,86.375 7.188418,86.268382 7.148361,86.171969 7.125,86.0625 7.052121,85.720988 7,85.364295 7,85 V 83 15 13 C 7,10.218152 9.218152,8 12,8 h 2 68 2 c 2.781848,0 5,2.218152 5,5 v 2 68 2 c 0,0.364295 -0.05212,0.720988 -0.125,1.0625 -0.04415,0.206893 -0.08838,0.397658 -0.15625,0.59375 -0.0077,0.02195 -0.0233,0.04069 -0.03125,0.0625 -0.06274,0.173739 -0.138383,0.367449 -0.21875,0.53125 -0.04158,0.0828 -0.07904,0.169954 -0.125,0.25 -0.0546,0.09721 -0.126774,0.18835 -0.1875,0.28125 -0.09411,0.140965 -0.204921,0.275995 -0.3125,0.40625 -0.143174,0.17445 -0.303141,0.346998 -0.46875,0.5 -0.01117,0.0102 -0.01998,0.02115 -0.03125,0.03125 -0.138386,0.125556 -0.285091,0.234436 -0.4375,0.34375 -0.102571,0.07315 -0.204318,0.153364 -0.3125,0.21875 -0.0074,0.0045 -0.02384,-0.0044 -0.03125,0 -0.232039,0.138728 -0.462548,0.274778 -0.71875,0.375 0.301527,-0.0968 0.596455,-0.204138 0.875,-0.34375 0.55709,-0.279224 1.060053,-0.665694 1.5,-1.09375 0.219973,-0.214028 0.409366,-0.441865 0.59375,-0.6875 0.184384,-0.245635 0.355408,-0.507743 0.5,-0.78125 0.14012,-0.265048 0.276135,-0.524729 0.375,-0.8125 0.01041,-0.03078 0.02133,-0.06274 0.03125,-0.09375 0.09046,-0.278085 0.1388,-0.579404 0.1875,-0.875 C 89.95865,84.6507 90,84.334721 90,84 V 82 14 12 C 90,8.676 87.324,6 84,6 Z"
       id="rect3728"
       inkscape:connector-curvature="0" />
    <path
       id="path3615"
       d="M 12,90 C 8.676,90 6,87.324 6,84 V 82 14 12 c 0,-0.334721 0.04135,-0.6507 0.09375,-0.96875 0.0487,-0.295596 0.09704,-0.596915 0.1875,-0.875 C 6.29113,10.12587 6.302142,10.09265 6.3125,10.0625 6.411365,9.774729 6.5473802,9.515048 6.6875,9.25 6.8320918,8.976493 7.0031161,8.714385 7.1875,8.46875 7.3718839,8.223115 7.5612765,7.995278 7.78125,7.78125 8.221197,7.353194 8.72416,6.966724 9.28125,6.6875 9.559795,6.547888 9.8547231,6.440553 10.15625,6.34375 9.9000482,6.443972 9.6695391,6.580022 9.4375,6.71875 c -0.00741,0.0044 -0.023866,-0.0045 -0.03125,0 -0.031933,0.0193 -0.062293,0.04251 -0.09375,0.0625 -0.120395,0.0767 -0.2310226,0.163513 -0.34375,0.25 -0.1061728,0.0808 -0.2132809,0.161112 -0.3125,0.25 C 8.4783201,7.442683 8.3087904,7.626638 8.15625,7.8125 8.0486711,7.942755 7.9378561,8.077785 7.84375,8.21875 7.818661,8.25713 7.805304,8.30462 7.78125,8.34375 7.716487,8.446782 7.6510225,8.548267 7.59375,8.65625 7.4927417,8.850956 7.3880752,9.071951 7.3125,9.28125 7.30454,9.30306 7.288911,9.3218 7.28125,9.34375 7.2494249,9.4357 7.2454455,9.530581 7.21875,9.625 7.1884177,9.731618 7.1483606,9.828031 7.125,9.9375 7.0521214,10.279012 7,10.635705 7,11 v 2 68 2 c 0,2.781848 2.2181517,5 5,5 h 2 68 2 c 2.781848,0 5,-2.218152 5,-5 V 81 13 11 C 89,10.635705 88.94788,10.279012 88.875,9.9375 88.83085,9.730607 88.78662,9.539842 88.71875,9.34375 88.71105,9.3218 88.69545,9.30306 88.6875,9.28125 88.62476,9.107511 88.549117,8.913801 88.46875,8.75 88.42717,8.6672 88.38971,8.580046 88.34375,8.5 88.28915,8.40279 88.216976,8.31165 88.15625,8.21875 88.06214,8.077785 87.951329,7.942755 87.84375,7.8125 87.700576,7.63805 87.540609,7.465502 87.375,7.3125 87.36383,7.3023 87.35502,7.29135 87.34375,7.28125 87.205364,7.155694 87.058659,7.046814 86.90625,6.9375 86.803679,6.86435 86.701932,6.784136 86.59375,6.71875 c -0.0074,-0.0045 -0.02384,0.0044 -0.03125,0 -0.232039,-0.138728 -0.462548,-0.274778 -0.71875,-0.375 0.301527,0.0968 0.596455,0.204138 0.875,0.34375 0.55709,0.279224 1.060053,0.665694 1.5,1.09375 0.219973,0.214028 0.409366,0.441865 0.59375,0.6875 0.184384,0.245635 0.355408,0.507743 0.5,0.78125 0.14012,0.265048 0.276135,0.524729 0.375,0.8125 0.01041,0.03078 0.02133,0.06274 0.03125,0.09375 0.09046,0.278085 0.1388,0.579404 0.1875,0.875 C 89.95865,11.3493 90,11.665279 90,12 v 2 68 2 c 0,3.324 -2.676,6 -6,6 z"
       style="display:inline;opacity:0.4;fill:url(#radialGradient2886);fill-opacity:1;fill-rule:nonzero;stroke:none"
       inkscape:connector-curvature="0" />
  </g>
  <g
     inkscape:groupmode="layer"
     id="layer3"
     inkscape:label="Image"
     style="display:inline">
    <rect
       style="color:#000000;display:inline;overflow:visible;visibility:visible;opacity:0.65163933;fill:#ff0000;fill-opacity:1;fill-rule:nonzero;stroke:none;stroke-width:1;marker:none;enable-background:accumulate"
       id="rect3727"
       width="72"
       height="55.999996"
       x="-88"
       y="20"
       clip-path="url(#clipPath2956)" />
    <g
       id="g3871"
       clip-path="url(#clipPath2952)">
      <rect
         style="color:#000000;display:inline;overflow:visible;visibility:visible;fill:url(#linearGradient3938);fill-opacity:1;fill-rule:nonzero;stroke:none;stroke-width:1;marker:none;enable-background:accumulate"
         id="rect3966"
         width="72"
         height="55.999996"
         x="12"
         y="20" />
    </g>
  </g>
  <g
     inkscape:groupmode="layer"
     id="layer4"
     inkscape:label="Reflection &amp; borders"
     style="display:inline">
    <path
       sodipodi:type="inkscape:offset"
       inkscape:radius="0.81513637"
       inkscape:original="M 48 26.96875 C 35.85329 26.96875 25.96875 36.853291 25.96875 49 C 25.96875 61.146707 35.85329 71.03125 48 71.03125 C 60.146709 71.03125 70.03125 61.146707 70.03125 49 C 70.03125 36.853291 60.146709 26.96875 48 26.96875 z M 48 37.34375 C 54.443426 37.34375 59.65625 42.556575 59.65625 49 C 59.65625 49.867734 59.35582 50.656275 59.15625 51.46875 L 45.53125 37.84375 C 46.342738 37.644295 47.12962 37.34375 48 37.34375 z M 36.84375 46 L 51 60.15625 C 50.031743 60.440136 49.045015 60.65625 48 60.65625 C 41.556575 60.65625 36.34375 55.443423 36.34375 49 C 36.34375 47.957928 36.559796 46.969402 36.84375 46 z "
       style="display:inline;opacity:0.1;fill:#000000;fill-opacity:1;stroke:none"
       id="path3799"
       d="M 48,26.154297 C 35.411072,26.154297 25.154297,36.411073 25.154297,49 25.154297,61.588926 35.411071,71.845703 48,71.845703 60.588928,71.845703 70.845703,61.588926 70.845703,49 70.845703,36.411073 60.588927,26.154297 48,26.154297 Z m 0,12.003906 c 6.003788,0 10.841797,4.83801 10.841797,10.841797 0,0.247562 -0.119396,0.564691 -0.173828,0.828125 L 47.171875,38.332031 C 47.435303,38.2776 47.751292,38.158203 48,38.158203 Z M 37.380859,47.689453 49.3125,59.621094 C 48.877194,59.695876 48.44165,59.841797 48,59.841797 41.996213,59.841797 37.158203,55.003785 37.158203,49 c 0,-0.439542 0.148046,-0.875562 0.222656,-1.310547 z" />
    <path
       sodipodi:type="inkscape:offset"
       inkscape:radius="0.96724075"
       inkscape:original="M 48 27.9375 C 36.376978 27.9375 26.9375 37.376979 26.9375 49 C 26.9375 60.623019 36.376978 70.0625 48 70.0625 C 59.623021 70.0625 69.0625 60.623019 69.0625 49 C 69.0625 37.376979 59.623021 27.9375 48 27.9375 z M 48 36.375 C 54.967085 36.375 60.625 42.032916 60.625 49 C 60.625 50.577229 60.283926 52.045362 59.75 53.4375 L 43.5625 37.25 C 44.954494 36.715161 46.419083 36.375 48 36.375 z M 36.40625 44.1875 L 52.8125 60.59375 C 51.320395 61.218498 49.718363 61.625 48 61.625 C 41.032916 61.625 35.375 55.967082 35.375 49 C 35.375 47.285314 35.782579 45.679626 36.40625 44.1875 z "
       style="display:inline;opacity:0.15;fill:#000000;fill-opacity:1;stroke:none"
       id="path3795"
       d="M 48,26.970703 C 35.85329,26.970703 25.970703,36.853291 25.970703,49 25.970703,61.146707 35.85329,71.029297 48,71.029297 60.146709,71.029297 70.029297,61.146707 70.029297,49 70.029297,36.853291 60.146709,26.970703 48,26.970703 Z m 0,10.371094 c 6.443426,0 11.658203,5.214778 11.658203,11.658203 0,0.87363 -0.290072,1.668625 -0.492187,2.486328 L 45.513672,37.833984 C 46.330732,37.631808 47.123302,37.341797 48,37.341797 Z M 36.837891,45.986328 51.013672,60.162109 C 50.042236,60.447847 49.048709,60.658203 48,60.658203 41.556575,60.658203 36.341797,55.443423 36.341797,49 c 0,-1.046042 0.210148,-2.04084 0.496094,-3.013672 z" />
    <path
       sodipodi:type="inkscape:offset"
       inkscape:radius="0.56744033"
       inkscape:original="M 48 28.5 C 36.683999 28.5 27.5 37.684 27.5 49 C 27.5 60.315998 36.683999 69.5 48 69.5 C 59.316 69.5 68.5 60.315998 68.5 49 C 68.5 37.684 59.316 28.5 48 28.5 z M 48 35.8125 C 55.27457 35.8125 61.1875 41.725431 61.1875 49 C 61.1875 50.965932 60.741657 52.823737 59.96875 54.5 L 42.5 37.03125 C 44.178707 36.2556 46.03036 35.8125 48 35.8125 z M 36.1875 43.15625 L 53.84375 60.8125 C 52.080905 61.687867 50.100532 62.1875 48 62.1875 C 40.725431 62.1875 34.8125 56.274567 34.8125 49 C 34.8125 46.903103 35.314968 44.916816 36.1875 43.15625 z "
       style="display:inline;opacity:0.3;fill:#000000;fill-opacity:1;stroke:none"
       id="path3791"
       d="M 48,27.931641 C 36.376978,27.931641 26.931641,37.376979 26.931641,49 26.931641,60.623019 36.376978,70.068359 48,70.068359 59.623021,70.068359 69.068359,60.623019 69.068359,49 69.068359,37.376979 59.623021,27.931641 48,27.931641 Z m 0,8.449218 c 6.967085,0 12.619141,5.652057 12.619141,12.619141 0,1.580921 -0.356303,3.062158 -0.892579,4.457031 L 43.541016,37.271484 C 44.936137,36.733961 46.414882,36.380859 48,36.380859 Z M 36.414062,44.183594 52.816406,60.585938 C 51.323631,61.211337 49.719315,61.619141 48,61.619141 41.032916,61.619141 35.380859,55.967082 35.380859,49 c 0,-1.715567 0.408931,-3.323662 1.033203,-4.816406 z" />
    <path
       style="color:#000000;display:inline;overflow:visible;visibility:visible;opacity:0.3;fill:url(#linearGradient3748);fill-opacity:1;fill-rule:nonzero;stroke:none;stroke-width:0.5;marker:none;enable-background:accumulate"
       d="m 15,20 c -1.662,0 -3,1.338 -3,3 v 50 c 0,1.662 1.338,3 3,3 h 66 c 1.662,0 3,-1.338 3,-3 V 23 c 0,-1.662 -1.338,-3 -3,-3 z m 0,0.96875 h 66 c 1.14652,0 2.03125,0.884731 2.03125,2.03125 v 50 c 0,1.146519 -0.88473,2.03125 -2.03125,2.03125 H 15 c -1.146519,0 -2.03125,-0.884731 -2.03125,-2.03125 V 23 c 0,-1.146519 0.884731,-2.03125 2.03125,-2.03125 z"
       id="rect2960"
       inkscape:connector-curvature="0" />
    <path
       style="color:#000000;display:inline;overflow:visible;visibility:visible;opacity:0.7;fill:#ffffff;fill-opacity:1;fill-rule:nonzero;stroke:none;stroke-width:0.5;marker:none;enable-background:accumulate"
       d="m 12,73 v 1 c 0,1.662 1.338,3 3,3 h 66 c 1.662,0 3,-1.338 3,-3 v -1 c 0,1.662 -1.338,3 -3,3 H 15 c -1.662,0 -3,-1.338 -3,-3 z"
       id="rect3750"
       inkscape:connector-curvature="0" />
    <path
       style="display:inline;fill:url(#linearGradient3330);fill-opacity:1;stroke:#a00000;stroke-width:0.99999994;stroke-linecap:round;stroke-linejoin:miter;stroke-miterlimit:4;stroke-dasharray:none;stroke-opacity:1"
       d="M 48,27.500001 C 36.683999,27.500001 27.500001,36.684 27.500001,48 27.500001,59.315998 36.683999,68.499999 48,68.499999 59.316,68.499999 68.5,59.315998 68.5,48 68.5,36.684 59.316,27.500001 48,27.500001 Z m 0,7.321432 c 7.27457,0 13.178571,5.903998 13.178571,13.178567 0,1.965932 -0.439706,3.82625 -1.212613,5.502513 L 42.486047,36.034036 C 44.164754,35.258386 46.03036,34.821432 48,34.821433 Z M 36.194198,42.165734 53.845703,59.805801 C 52.082858,60.681168 50.100532,61.178566 48,61.178566 c -7.274569,0 -13.178569,-5.904 -13.178569,-13.178567 0,-2.096897 0.500235,-4.073699 1.372767,-5.834265 z"
       id="path2424"
       inkscape:connector-curvature="0" />
    <path
       style="display:inline;opacity:0.5;fill:url(#linearGradient3812);fill-opacity:1;stroke:none;stroke-width:0.99999994;stroke-linecap:round;stroke-linejoin:miter;stroke-miterlimit:4;stroke-dasharray:none;stroke-opacity:1"
       d="m 48,27.5 c -11.316001,0 -20.5,9.184 -20.5,20.5 0,0.166268 -0.0039,0.334675 0,0.5 0.264419,-11.086501 9.350267,-20 20.5,-20 11.149732,0 20.235581,8.913499 20.5,20 0.0039,-0.165325 0,-0.333732 0,-0.5 C 68.5,36.684 59.316,27.5 48,27.5 Z m -4.78125,9.25 C 42.976109,36.845215 42.735513,36.922431 42.5,37.03125 L 59.96875,54.5 c 0.772907,-1.676263 1.21875,-3.534068 1.21875,-5.5 0,-0.200954 -0.02233,-0.394984 -0.03125,-0.59375 -0.05617,1.81592 -0.468083,3.533495 -1.1875,5.09375 z m -8.375,11.8125 C 34.83885,48.708171 34.8125,48.853117 34.8125,49 c 0,7.274567 5.912931,13.1875 13.1875,13.1875 2.100532,0 4.080905,-0.499633 5.84375,-1.375 L 53.125,60.09375 C 51.542974,60.768261 49.827742,61.1875 48,61.1875 c -7.084166,0 -12.858304,-5.613728 -13.15625,-12.625 z"
       id="path3801"
       inkscape:connector-curvature="0" />
  </g>
</svg>
