<?xml version="1.0" encoding="UTF-8" standalone="no"?>
<svg
   xmlns:dc="http://purl.org/dc/elements/1.1/"
   xmlns:cc="http://creativecommons.org/ns#"
   xmlns:rdf="http://www.w3.org/1999/02/22-rdf-syntax-ns#"
   xmlns:svg="http://www.w3.org/2000/svg"
   xmlns="http://www.w3.org/2000/svg"
   xmlns:sodipodi="http://sodipodi.sourceforge.net/DTD/sodipodi-0.dtd"
   xmlns:inkscape="http://www.inkscape.org/namespaces/inkscape"
   width="96"
   height="96"
   viewBox="0 0 96 96"
   version="1.1"
   id="svg2"
   inkscape:version="0.92.2 (5c3e80d, 2017-08-06)"
   sodipodi:docname="application-x-rar.svg">
  <metadata
     id="metadata35">
    <rdf:RDF>
      <cc:Work
         rdf:about="">
        <dc:format>image/svg+xml</dc:format>
        <dc:type
           rdf:resource="http://purl.org/dc/dcmitype/StillImage" />
        <dc:title></dc:title>
      </cc:Work>
    </rdf:RDF>
  </metadata>
  <defs
     id="defs33" />
  <sodipodi:namedview
     pagecolor="#ffffff"
     bordercolor="#666666"
     borderopacity="1"
     objecttolerance="10"
     gridtolerance="10"
     guidetolerance="10"
     inkscape:pageopacity="0"
     inkscape:pageshadow="2"
     inkscape:window-width="2108"
     inkscape:window-height="1247"
     id="namedview31"
     showgrid="false"
     inkscape:zoom="1.84375"
     inkscape:cx="-174.64407"
     inkscape:cy="64"
     inkscape:window-x="446"
     inkscape:window-y="240"
     inkscape:window-maximized="0"
     inkscape:current-layer="surface1" />
  <g
     id="surface1"
     transform="translate(0,-32)">
    <path
       style="fill:#45606e;fill-opacity:1;fill-rule:nonzero;stroke:none;stroke-width:0.75"
       d="M 16.007812,32 C 13.945313,32 12,34.033203 12,36.183594 V 123.81641 C 12,125.84961 14.0625,128 16.007812,128 H 79.992187 C 81.9375,128 84,125.84961 84,123.81641 V 59 L 57,32 Z m 0,0"
       id="path5"
       inkscape:connector-curvature="0" />
    <path
       style="fill:#000000;fill-opacity:0.19607801;fill-rule:nonzero;stroke:none;stroke-width:0.75"
       d="m 12,104 v 20.00391 C 12,125.94922 14.0625,128 15.996094,128 H 80.00391 C 81.9375,128 84,125.94922 84,124.00391 V 104 Z m 0,0"
       id="path7"
       inkscape:connector-curvature="0" />
    <path
       style="fill:#ffffff;fill-opacity:1;fill-rule:nonzero;stroke:none;stroke-width:0.75"
       d="m 31.693359,108.17188 c 1.03711,0 1.97461,0.0996 2.8125,0.32226 0.837891,0.21094 1.564453,0.54492 2.167969,1.00196 0.603516,0.43944 1.072266,1.00781 1.382813,1.71093 0.333984,0.67969 0.492187,1.49414 0.492187,2.41407 0,0.97851 -0.210937,1.85156 -0.638672,2.64257 -0.433594,0.78516 -1.148437,1.38868 -2.132812,1.79883 0.322265,0.46875 0.679687,0.98437 1.048827,1.56445 0.369141,0.55078 0.738282,1.14258 1.083985,1.7754 0.357422,0.60351 0.691406,1.21875 0.996094,1.84569 0.333984,0.61524 0.615234,1.19532 0.849609,1.75196 h -3.785156 c -0.439453,-1.07227 -0.972657,-2.10938 -1.576172,-3.09375 -0.591797,-0.99609 -1.21875,-2.00977 -1.910156,-3.03515 h -1.875 V 125 H 27 v -16.39453 c 0.357421,-0.0762 0.738281,-0.13476 1.148437,-0.19922 0.427734,-0.0586 0.861329,-0.10546 1.294922,-0.13477 0.427735,-0.0234 0.837891,-0.0586 1.230469,-0.0703 0.380859,-0.0234 0.726563,-0.0234 1.019531,-0.0234 m 3.19336,5.41993 c 0,-0.87306 -0.292969,-1.51758 -0.873048,-1.9336 -0.591796,-0.41015 -1.353515,-0.61524 -2.320312,-0.61524 -0.134765,0 -0.304688,0.0117 -0.503906,0.0234 -0.181641,0 -0.380859,0.0234 -0.580078,0.0586 v 4.99219 h 0.791016 c 1.230468,0 2.121093,-0.20508 2.677734,-0.63867 0.539062,-0.44531 0.808594,-1.07227 0.808594,-1.88672"
       id="path9"
       inkscape:connector-curvature="0" />
    <path
       style="fill:#000000;fill-opacity:0.19607801;fill-rule:nonzero;stroke:none;stroke-width:0.75"
       d="M 63,59 84,80 V 59 Z m 0,0"
       id="path11"
       inkscape:connector-curvature="0" />
    <path
       style="fill:#ffffff;fill-opacity:1;fill-rule:nonzero;stroke:none;stroke-width:0.75"
       d="m 50.607421,125 -0.855468,-3.84375 H 44.923828 L 44.097656,125 h -3.75 c 0.84961,-3.28125 1.728515,-6.26367 2.601563,-8.94727 0.890625,-2.71288 1.740234,-5.27929 2.554687,-7.69335 h 3.93164 c 0.861329,2.44335 1.710938,5.02734 2.548829,7.76367 0.861328,2.72461 1.6875,5.68359 2.490234,8.87695 h -3.867188 m -3.234375,-13.41211 c -0.18164,0.62696 -0.36914,1.21875 -0.55078,1.79883 -0.152345,0.55664 -0.310547,1.11328 -0.46875,1.66406 -0.134766,0.54492 -0.275391,1.08399 -0.410157,1.64063 -0.123047,0.55663 -0.234375,1.13671 -0.357422,1.72851 h 3.550782 c -0.111328,-0.5918 -0.234375,-1.17188 -0.345703,-1.72851 -0.123047,-0.55664 -0.257813,-1.09571 -0.416016,-1.64063 -0.134766,-0.55078 -0.287109,-1.10742 -0.46875,-1.66406 -0.146484,-0.58008 -0.333984,-1.17187 -0.533204,-1.79883"
       id="path13"
       inkscape:connector-curvature="0" />
    <path
       style="fill:#ffffff;fill-opacity:0.39215698;fill-rule:nonzero;stroke:none;stroke-width:0.75"
       d="M 57,32 83.976562,59 H 61.136719 C 59.115234,59 57,56.861328 57,54.839844 Z m 0,0"
       id="path15"
       inkscape:connector-curvature="0" />
    <path
       style="fill:#ffffff;fill-opacity:1;fill-rule:nonzero;stroke:none;stroke-width:0.75"
       d="m 61.019531,108.17188 c 1.03711,0 1.97461,0.0996 2.8125,0.32226 0.83789,0.21094 1.564453,0.54492 2.167969,1.00196 0.603516,0.43944 1.060546,1.00781 1.382812,1.71093 0.328125,0.67969 0.492188,1.49414 0.492188,2.41407 0,0.97851 -0.210938,1.85156 -0.644531,2.64257 -0.427735,0.78516 -1.142578,1.38868 -2.144532,1.79883 0.333984,0.46875 0.691407,0.98437 1.060547,1.56445 0.369141,0.55078 0.726562,1.14258 1.083985,1.7754 0.345702,0.60351 0.679687,1.21875 1.001952,1.84569 0.333985,0.61524 0.615235,1.19532 0.84961,1.75196 h -3.785156 c -0.457031,-1.07227 -0.972656,-2.10938 -1.587891,-3.09375 -0.580078,-0.99609 -1.224609,-2.00977 -1.898438,-3.03515 h -1.875 V 125 h -3.609375 v -16.39453 c 0.345704,-0.0762 0.726563,-0.13476 1.142579,-0.19922 0.433594,-0.0586 0.849609,-0.10546 1.283203,-0.13477 0.433593,-0.0234 0.849609,-0.0586 1.230468,-0.0703 0.398438,-0.0234 0.744141,-0.0234 1.03711,-0.0234 m 3.19336,5.41993 c 0,-0.87306 -0.298829,-1.51758 -0.884766,-1.9336 -0.580079,-0.41015 -1.359375,-0.61524 -2.308594,-0.61524 -0.146485,0 -0.304687,0.0117 -0.503906,0.0234 -0.199219,0 -0.392579,0.0234 -0.580079,0.0586 v 4.99219 h 0.791016 c 1.230469,0 2.115234,-0.20508 2.660157,-0.63867 0.55664,-0.44531 0.826172,-1.07227 0.826172,-1.88672"
       id="path17"
       inkscape:connector-curvature="0" />
    <path
       style="fill:#f8f8f8;fill-opacity:1;fill-rule:evenodd;stroke:none;stroke-width:0.75"
       d="m 27,32 h 9 v 9 h -9 z m 0,0"
       id="path19"
       inkscape:connector-curvature="0" />
    <path
       style="fill:#f8f8f8;fill-opacity:1;fill-rule:evenodd;stroke:none;stroke-width:0.75"
       d="m 36,41 h 9 v 9 h -9 z m 0,0"
       id="path21"
       inkscape:connector-curvature="0" />
    <path
       style="fill:#f8f8f8;fill-opacity:1;fill-rule:evenodd;stroke:none;stroke-width:0.75"
       d="m 27,50 h 9 v 9 h -9 z m 0,0"
       id="path23"
       inkscape:connector-curvature="0" />
    <path
       style="fill:#f8f8f8;fill-opacity:1;fill-rule:evenodd;stroke:none;stroke-width:0.75"
       d="m 36,59 h 9 v 9 h -9 z m 0,0"
       id="path25"
       inkscape:connector-curvature="0" />
    <path
       style="fill:#f8f8f8;fill-opacity:1;fill-rule:evenodd;stroke:none;stroke-width:0.75"
       d="m 27,68 h 9 v 9 h -9 z m 0,0"
       id="path27"
       inkscape:connector-curvature="0" />
    <path
       style="fill:#f8f8f8;fill-opacity:1;fill-rule:evenodd;stroke:none;stroke-width:0.75"
       d="M 27,80 H 45 V 98 H 27 Z m 0,0"
       id="path29"
       inkscape:connector-curvature="0" />
  </g>
</svg>
