<?xml version="1.0" encoding="UTF-8" standalone="no"?>
<svg
   xmlns:dc="http://purl.org/dc/elements/1.1/"
   xmlns:cc="http://creativecommons.org/ns#"
   xmlns:rdf="http://www.w3.org/1999/02/22-rdf-syntax-ns#"
   xmlns:svg="http://www.w3.org/2000/svg"
   xmlns="http://www.w3.org/2000/svg"
   xmlns:sodipodi="http://sodipodi.sourceforge.net/DTD/sodipodi-0.dtd"
   xmlns:inkscape="http://www.inkscape.org/namespaces/inkscape"
   width="96"
   height="96"
   viewBox="0 0 96 96"
   version="1.1"
   id="svg2"
   inkscape:version="0.92.2 (5c3e80d, 2017-08-06)"
   sodipodi:docname="application-image-bmp.svg">
  <metadata
     id="metadata25">
    <rdf:RDF>
      <cc:Work
         rdf:about="">
        <dc:format>image/svg+xml</dc:format>
        <dc:type
           rdf:resource="http://purl.org/dc/dcmitype/StillImage" />
        <dc:title></dc:title>
      </cc:Work>
    </rdf:RDF>
  </metadata>
  <defs
     id="defs23" />
  <sodipodi:namedview
     pagecolor="#ffffff"
     bordercolor="#666666"
     borderopacity="1"
     objecttolerance="10"
     gridtolerance="10"
     guidetolerance="10"
     inkscape:pageopacity="0"
     inkscape:pageshadow="2"
     inkscape:window-width="2254"
     inkscape:window-height="1248"
     id="namedview21"
     showgrid="false"
     inkscape:zoom="1.84375"
     inkscape:cx="-55.59322"
     inkscape:cy="64"
     inkscape:window-x="670"
     inkscape:window-y="293"
     inkscape:window-maximized="0"
     inkscape:current-layer="surface1" />
  <g
     id="surface1"
     transform="translate(0,-32)">
    <path
       style="fill:#075e65;fill-opacity:1;fill-rule:nonzero;stroke:none;stroke-width:0.75"
       d="M 16.007812,32 C 13.945313,32 12,34.033203 12,36.183594 V 123.81641 C 12,125.84961 14.0625,128 16.007812,128 H 79.992187 C 81.9375,128 84,125.84961 84,123.81641 V 59 L 57,32 Z m 0,0"
       id="path5"
       inkscape:connector-curvature="0" />
    <path
       style="fill:#000000;fill-opacity:0.19607801;fill-rule:nonzero;stroke:none;stroke-width:0.75"
       d="M 63,59 84,80 V 59 Z m 0,0"
       id="path7"
       inkscape:connector-curvature="0" />
    <path
       style="fill:#ffffff;fill-opacity:0.39215698;fill-rule:nonzero;stroke:none;stroke-width:0.75"
       d="M 57,32 83.976562,59 H 61.136719 C 59.115234,59 57,56.861328 57,54.839844 Z m 0,0"
       id="path9"
       inkscape:connector-curvature="0" />
    <path
       style="fill:#ffffff;fill-opacity:1;fill-rule:nonzero;stroke:none;stroke-width:0.75"
       d="M 34.933594,65 C 33.878906,65.099609 32.976562,66.21875 33,67.408203 V 92.650391 C 33.01172,93.892578 34.001953,95.011719 35.109375,95 H 60.943359 C 62.033203,94.976562 62.988281,93.880859 63,92.650391 V 67.408203 C 63.023437,66.154296 62.056641,65.011719 60.943359,65 Z M 36,68 h 24 v 17.103516 l -7.054688,-7.97461 -1.769531,1.699219 -2.701172,2.460937 L 46.822266,79.642578 42.580078,73.90625 36,82.396484 Z m 0,0"
       id="path11"
       inkscape:connector-curvature="0" />
    <path
       style="fill:#000000;fill-opacity:0.19607801;fill-rule:nonzero;stroke:none;stroke-width:0.75"
       d="m 12,104 v 20.00391 C 12,125.94922 14.0625,128 15.996094,128 H 80.00391 C 81.9375,128 84,125.94922 84,124.00391 V 104 Z m 0,0"
       id="path13"
       inkscape:connector-curvature="0" />
    <path
       style="fill:#ffffff;fill-opacity:1;fill-rule:nonzero;stroke:none;stroke-width:0.75"
       d="m 39.298828,120.03125 c 0,0.98438 -0.1875,1.82227 -0.556641,2.48438 -0.380859,0.66797 -0.896484,1.19531 -1.546875,1.5996 -0.626953,0.38087 -1.388671,0.66798 -2.273437,0.84962 -0.873047,0.1582 -1.810547,0.23437 -2.818359,0.23437 -0.796875,0 -1.646485,-0.0469 -2.507813,-0.13476 -0.873047,-0.0762 -1.734375,-0.1875 -2.583984,-0.34571 v -15.91406 c 0.703125,-0.11133 1.453125,-0.19922 2.285156,-0.26953 0.826171,-0.0879 1.652344,-0.12305 2.449219,-0.12305 1.388672,0 2.507812,0.12305 3.380859,0.39258 0.873047,0.2461 1.552734,0.58008 2.044922,1.00781 0.492187,0.4043 0.820312,0.86133 1.007812,1.37696 0.169922,0.5039 0.257813,1.01952 0.269532,1.54101 -0.01172,0.77344 -0.222657,1.45899 -0.650391,2.0625 -0.421875,0.5918 -0.984375,1.07226 -1.699219,1.42969 1.242187,0.4043 2.091797,0.94336 2.519532,1.63476 0.45703,0.68555 0.679687,1.41212 0.679687,2.17383 m -8.648437,-2.22656 v 4.45312 c 0.257812,0.041 0.544921,0.0644 0.83789,0.0762 0.310547,0.0234 0.615235,0.0352 0.908203,0.0352 0.421875,0 0.826172,-0.0352 1.21875,-0.082 0.392578,-0.0762 0.738282,-0.1875 1.03125,-0.3457 0.322266,-0.17578 0.580078,-0.42187 0.779297,-0.71484 0.19336,-0.32227 0.292969,-0.71484 0.292969,-1.19532 0,-0.79687 -0.28125,-1.36523 -0.861329,-1.69335 -0.55078,-0.34571 -1.30078,-0.52735 -2.25,-0.52735 h -1.95703 m 1.429687,-2.70703 c 0.919922,0 1.623047,-0.17578 2.103516,-0.5332 0.46289,-0.36915 0.708984,-0.87305 0.708984,-1.5 0,-0.39258 -0.07031,-0.69727 -0.205078,-0.93165 -0.134766,-0.24608 -0.333984,-0.43358 -0.568359,-0.55663 -0.234375,-0.13477 -0.515625,-0.22852 -0.820313,-0.25781 -0.322266,-0.0586 -0.644532,-0.082 -0.984375,-0.082 -0.275391,0 -0.568359,0.0117 -0.861328,0.0234 -0.298829,0.0234 -0.556641,0.0469 -0.802734,0.0879 v 3.75 h 1.429687"
       id="path15"
       inkscape:connector-curvature="0" />
    <path
       style="fill:#ffffff;fill-opacity:1;fill-rule:nonzero;stroke:none;stroke-width:0.75"
       d="m 44.982421,108.59375 c 0.146485,0.36914 0.304688,0.84961 0.503907,1.42969 0.216797,0.57422 0.451172,1.20703 0.685547,1.88086 0.234375,0.66211 0.46875,1.35351 0.714844,2.03906 0.234375,0.69141 0.457031,1.31836 0.673827,1.91016 0.234375,-0.65039 0.48047,-1.33008 0.738282,-2.01563 0.257813,-0.70312 0.503906,-1.38281 0.738281,-2.02148 0.246094,-0.65039 0.457032,-1.25391 0.65625,-1.81641 0.19336,-0.56836 0.38086,-1.03711 0.539062,-1.40625 h 3.01172 c 0.134765,1.42969 0.26953,2.81836 0.380859,4.1836 0.146484,1.36523 0.246094,2.70703 0.333984,4.04882 0.09961,1.32422 0.169922,2.66602 0.234375,4.03125 0.0586,1.3418 0.111328,2.71875 0.146485,4.13087 h -3.345703 l 0.1875,-12.73829 -2.25586,6.9375 h -2.666015 l -2.16211,-6.9375 0.146485,12.73829 h -3.345704 c 0.0586,-1.33594 0.123047,-2.74219 0.181641,-4.18946 0.07617,-1.44141 0.164063,-2.88281 0.234375,-4.31836 0.07617,-1.42968 0.175781,-2.81836 0.269531,-4.16016 0.111328,-1.33593 0.246094,-2.57812 0.38086,-3.72656 h 3.017577"
       id="path17"
       inkscape:connector-curvature="0" />
    <path
       style="fill:#ffffff;fill-opacity:1;fill-rule:nonzero;stroke:none;stroke-width:0.75"
       d="m 61.658203,108.41211 c 2.326172,0 4.130859,0.42774 5.408203,1.28906 1.294922,0.84962 1.933594,2.25 1.933594,4.1836 0,1.96875 -0.650391,3.38086 -1.957031,4.26562 -1.289063,0.86133 -3.111328,1.30665 -5.484375,1.30665 h -1.289063 v 5.53125 h -3.65625 v -16.1836 c 0.357422,-0.0762 0.75,-0.13477 1.195313,-0.18164 0.457031,-0.0527 0.908202,-0.0879 1.365234,-0.11133 0.439453,-0.041 0.896484,-0.0644 1.330078,-0.0762 0.427735,-0.0234 0.808594,-0.0234 1.154297,-0.0234 m 0.404297,2.83004 c -0.210938,0 -0.515625,0.0117 -0.908204,0.0234 -0.380859,0 -0.679687,0.0234 -0.884765,0.0586 v 5.29101 h 1.476563 c 1.166015,0 2.039062,-0.19921 2.630859,-0.60351 0.591797,-0.42774 0.884766,-1.14258 0.884766,-2.15039 0,-0.94922 -0.292969,-1.62304 -0.884766,-2.00391 -0.568359,-0.41015 -1.341797,-0.61523 -2.314453,-0.61523"
       id="path19"
       inkscape:connector-curvature="0" />
  </g>
</svg>
