<?xml version="1.0" encoding="UTF-8" standalone="no"?>
<svg
   xmlns:dc="http://purl.org/dc/elements/1.1/"
   xmlns:cc="http://creativecommons.org/ns#"
   xmlns:rdf="http://www.w3.org/1999/02/22-rdf-syntax-ns#"
   xmlns:svg="http://www.w3.org/2000/svg"
   xmlns="http://www.w3.org/2000/svg"
   xmlns:sodipodi="http://sodipodi.sourceforge.net/DTD/sodipodi-0.dtd"
   xmlns:inkscape="http://www.inkscape.org/namespaces/inkscape"
   width="96"
   height="96"
   viewBox="0 0 96 96"
   version="1.1"
   id="svg13"
   sodipodi:docname="application-x-blender.svg"
   inkscape:version="0.92.2 (5c3e80d, 2017-08-06)">
  <metadata
     id="metadata19">
    <rdf:RDF>
      <cc:Work
         rdf:about="">
        <dc:format>image/svg+xml</dc:format>
        <dc:type
           rdf:resource="http://purl.org/dc/dcmitype/StillImage" />
        <dc:title></dc:title>
      </cc:Work>
    </rdf:RDF>
  </metadata>
  <defs
     id="defs17" />
  <sodipodi:namedview
     pagecolor="#ffffff"
     bordercolor="#666666"
     borderopacity="1"
     objecttolerance="10"
     gridtolerance="10"
     guidetolerance="10"
     inkscape:pageopacity="0"
     inkscape:pageshadow="2"
     inkscape:window-width="2007"
     inkscape:window-height="1280"
     id="namedview15"
     showgrid="false"
     inkscape:zoom="1.84375"
     inkscape:cx="-55.59322"
     inkscape:cy="64"
     inkscape:window-x="102"
     inkscape:window-y="55"
     inkscape:window-maximized="0"
     inkscape:current-layer="svg13" />
  <g
     id="surface1"
     transform="scale(0.75)">
    <path
       style="fill:#cc5900;fill-opacity:1;fill-rule:nonzero;stroke:none"
       d="M 21.34375,0 C 18.59375,0 16,2.710938 16,5.578125 V 122.42188 C 16,125.13281 18.75,128 21.34375,128 h 85.3125 C 109.25,128 112,125.13281 112,122.42188 V 36 L 76,0 Z m 0,0"
       id="path2"
       inkscape:connector-curvature="0" />
    <path
       style="fill:#000000;fill-opacity:0.19607801;fill-rule:nonzero;stroke:none"
       d="m 84,36 28,28 V 36 Z m 0,0"
       id="path4"
       inkscape:connector-curvature="0" />
    <path
       style="fill:#ffffff;fill-opacity:0.39215698;fill-rule:nonzero;stroke:none"
       d="m 76,0 35.96875,36 H 81.515625 C 78.820312,36 76,33.148438 76,30.453125 Z m 0,0"
       id="path6"
       inkscape:connector-curvature="0" />
    <path
       style="fill:#ffffff;fill-opacity:1;fill-rule:evenodd;stroke:none"
       d="m 62.9375,43.15625 c -1,0 -2.039062,0.375 -2.882812,1.023438 -0.859376,0.664062 -1.414063,1.523437 -1.484376,2.5625 -0.07031,1.015624 0.320313,2.054687 1.109376,2.773437 v 0.07031 c 1.84375,1.59375 3.757812,3.242187 5.625,4.875 H 44.453125 c -1.484375,0 -2.742187,0.335937 -3.710937,1.109374 -0.945313,0.75 -1.570313,1.882813 -1.773438,3.132813 -0.390625,2.453125 1.367188,5.25 4.210938,5.25 H 52.28125 L 33.273438,79.429688 c 0,0 -0.01563,-0.03906 -0.07031,0 -1.164063,0.984374 -1.984375,2.328124 -2.289063,3.726562 -0.304687,1.375 -0.164062,2.84375 0.664063,4.007812 1.679687,2.367188 5.046875,2.296876 7.390625,0.21875 l 9.984375,-8.976562 c 0.01563,1.039062 0.265625,2.6875 0.679687,4.085938 0.804688,2.867187 2.203126,5.554687 4.132813,7.882812 1.976563,2.398438 4.375,4.335938 7.164063,5.695312 2.9375,1.429688 6.109374,2.117188 9.40625,2.117188 3.296874,0 6.453124,-0.757812 9.390624,-2.1875 2.789063,-1.382812 5.28125,-3.296875 7.25,-5.695312 1.914063,-2.351563 3.242188,-5.015626 4.070313,-7.882813 0.40625,-1.453125 0.695313,-2.976563 0.804687,-4.460937 0.109376,-1.453126 0.05469,-2.921876 -0.148437,-4.367188 -0.351563,-2.851562 -1.210937,-5.539062 -2.59375,-7.953125 -1.078125,-1.898437 -2.492187,-3.570313 -4.0625,-5.039063 L 85.117188,60.53125 84.3125,59.867188 65.820312,44.25 c 0,0 -0.07031,-0.05469 -0.07031,-0.07031 -0.01563,0 -0.07031,0 -0.07031,0 C 64.875,43.515625 63.921875,43.15625 62.9375,43.15625 Z m 7.164062,16.429688 c 9.570313,0 17.304688,7.648437 17.304688,17.070312 0,9.4375 -7.734375,17.085938 -17.304688,17.085938 -9.546874,0 -17.296874,-7.648438 -17.296874,-17.085938 0,-9.421875 7.75,-17.070312 17.296874,-17.070312 z m 0,0"
       id="path8"
       inkscape:connector-curvature="0" />
    <path
       style="fill:#ffffff;fill-opacity:1;fill-rule:nonzero;stroke:none"
       d="m 75.085938,76.796875 c 0,2.828125 -2.3125,5.125 -5.179688,5.125 -2.84375,0 -5.171875,-2.296875 -5.171875,-5.125 0,-2.8125 2.328125,-5.101563 5.171875,-5.101563 2.867188,0 5.179688,2.289063 5.179688,5.101563 z m 0,0"
       id="path10"
       inkscape:connector-curvature="0" />
  </g>
</svg>
