<?xml version="1.0" encoding="UTF-8" standalone="no"?>
<svg
   xmlns:dc="http://purl.org/dc/elements/1.1/"
   xmlns:cc="http://creativecommons.org/ns#"
   xmlns:rdf="http://www.w3.org/1999/02/22-rdf-syntax-ns#"
   xmlns:svg="http://www.w3.org/2000/svg"
   xmlns="http://www.w3.org/2000/svg"
   xmlns:sodipodi="http://sodipodi.sourceforge.net/DTD/sodipodi-0.dtd"
   xmlns:inkscape="http://www.inkscape.org/namespaces/inkscape"
   width="96"
   height="96"
   viewBox="0 0 96 96"
   version="1.1"
   id="svg25"
   sodipodi:docname="application-vnd.oasis.opendocument.presentation.svg"
   inkscape:version="0.92.2 (5c3e80d, 2017-08-06)">
  <metadata
     id="metadata31">
    <rdf:RDF>
      <cc:Work
         rdf:about="">
        <dc:format>image/svg+xml</dc:format>
        <dc:type
           rdf:resource="http://purl.org/dc/dcmitype/StillImage" />
        <dc:title></dc:title>
      </cc:Work>
    </rdf:RDF>
  </metadata>
  <defs
     id="defs29" />
  <sodipodi:namedview
     pagecolor="#ffffff"
     bordercolor="#666666"
     borderopacity="1"
     objecttolerance="10"
     gridtolerance="10"
     guidetolerance="10"
     inkscape:pageopacity="0"
     inkscape:pageshadow="2"
     inkscape:window-width="1955"
     inkscape:window-height="1200"
     id="namedview27"
     showgrid="false"
     inkscape:zoom="1.84375"
     inkscape:cx="-55.59322"
     inkscape:cy="64"
     inkscape:window-x="102"
     inkscape:window-y="55"
     inkscape:window-maximized="0"
     inkscape:current-layer="svg25" />
  <g
     id="surface1"
     transform="scale(0.75)">
    <path
       style="fill:#cf4523;fill-opacity:1;fill-rule:nonzero;stroke:none"
       d="M 21.34375,0 C 18.59375,0 16,2.710938 16,5.578125 V 122.42188 C 16,125.13281 18.75,128 21.34375,128 h 85.3125 C 109.25,128 112,125.13281 112,122.42188 V 36 L 76,0 Z m 0,0"
       id="path2"
       inkscape:connector-curvature="0" />
    <path
       style="fill:#000000;fill-opacity:0.19607801;fill-rule:nonzero;stroke:none"
       d="m 84,36 28,28 V 36 Z m 0,0"
       id="path4"
       inkscape:connector-curvature="0" />
    <path
       style="fill:#ffffff;fill-opacity:0.39215698;fill-rule:nonzero;stroke:none"
       d="m 76,0 35.96875,36 H 81.515625 C 78.820312,36 76,33.148438 76,30.453125 Z m 0,0"
       id="path6"
       inkscape:connector-curvature="0" />
    <path
       style="fill:#000000;fill-opacity:0.19607801;fill-rule:nonzero;stroke:none"
       d="m 16,96 v 26.67188 C 16,125.26563 18.75,128 21.328125,128 H 106.67188 C 109.25,128 112,125.26563 112,122.67188 V 96 Z m 0,0"
       id="path8"
       inkscape:connector-curvature="0" />
    <path
       style="fill:#ffffff;fill-opacity:1;fill-rule:nonzero;stroke:none"
       d="M 32,48 H 52 V 60 H 32 Z m 0,0"
       id="path10"
       inkscape:connector-curvature="0" />
    <path
       style="fill:#ffffff;fill-opacity:1;fill-rule:nonzero;stroke:none"
       d="m 40.609375,112.74219 c 0,1.05469 0.03906,2.04687 0.117187,2.96875 0.101563,0.90625 0.28125,1.69531 0.546876,2.375 0.28125,0.67187 0.671874,1.20312 1.171874,1.59375 0.492188,0.39844 1.148438,0.59375 1.976563,0.59375 0.804687,0 1.445313,-0.19531 1.945313,-0.59375 0.523437,-0.39063 0.90625,-0.92188 1.164062,-1.59375 0.28125,-0.71094 0.46875,-1.5 0.546875,-2.40625 0.101563,-0.90625 0.164063,-1.88281 0.164063,-2.9375 0,-1.03906 -0.0625,-2.00781 -0.164063,-2.91406 C 48,108.89063 47.8125,108.09375 47.53125,107.42188 c -0.257812,-0.67969 -0.640625,-1.20313 -1.117188,-1.60157 -0.492187,-0.39062 -1.171874,-0.59375 -1.992187,-0.59375 -0.828125,0 -1.484375,0.20313 -1.976563,0.59375 -0.5,0.39844 -0.890624,0.9375 -1.171874,1.63282 -0.265626,0.67968 -0.445313,1.46875 -0.546876,2.375 -0.07812,0.90625 -0.117187,1.875 -0.117187,2.91406 m -4.875,0 c 0,-3.70313 0.773437,-6.50781 2.304687,-8.39063 1.539063,-1.90625 3.664063,-2.85156 6.382813,-2.85156 2.835937,0 4.976563,0.94531 6.460937,2.85156 1.484376,1.88282 2.21875,4.6875 2.21875,8.39063 0,3.72656 -0.757812,6.53125 -2.257812,8.4375 -1.5,1.88281 -3.640625,2.82031 -6.390625,2.82031 -2.820313,0 -4.992187,-0.9375 -6.492187,-2.82031 -1.484376,-1.90625 -2.226563,-4.71094 -2.226563,-8.4375"
       id="path12"
       inkscape:connector-curvature="0" />
    <path
       style="fill:#ffffff;fill-opacity:1;fill-rule:nonzero;stroke:none"
       d="m 61.046875,120.0625 c 0.132813,0.0312 0.265625,0.0312 0.429687,0.0312 0.148438,0 0.296876,0 0.429688,0 1.085938,0 1.992188,-0.17969 2.71875,-0.54687 0.757812,-0.375 1.351562,-0.89063 1.796875,-1.53125 0.460937,-0.65625 0.789063,-1.41407 0.96875,-2.30469 0.203125,-0.90625 0.320313,-1.89844 0.320313,-2.96875 0,-0.92188 -0.08594,-1.82813 -0.234376,-2.70313 -0.164062,-0.89062 -0.429687,-1.66406 -0.820312,-2.33593 -0.398438,-0.67969 -0.929688,-1.20313 -1.601562,-1.60157 -0.679688,-0.42968 -1.546876,-0.625 -2.601563,-0.625 -0.21875,0 -0.445313,0 -0.710937,0.0312 -0.25,0 -0.492188,0.0156 -0.695313,0.0703 v 14.48437 m 11.523437,-7.32031 c 0,2.01562 -0.28125,3.71094 -0.859374,5.125 -0.539063,1.40625 -1.320313,2.53906 -2.289063,3.41406 -0.992187,0.89063 -2.179687,1.53125 -3.546875,1.96094 -1.351562,0.375 -2.851562,0.57812 -4.476562,0.57812 -0.859376,0 -1.703126,-0.0312 -2.539063,-0.13281 -0.796875,-0.0703 -1.664063,-0.19531 -2.609375,-0.38281 v -21.03906 c 1.09375,-0.20313 2.132812,-0.35157 3.085938,-0.41407 0.953124,-0.0703 1.84375,-0.11718 2.6875,-0.11718 1.578124,0 3.015624,0.21093 4.3125,0.64062 1.320312,0.41406 2.445312,1.07031 3.351562,1.97656 0.90625,0.89063 1.609375,2.03125 2.109375,3.41407 0.507813,1.36718 0.773437,3.03125 0.773437,4.97656"
       id="path14"
       inkscape:connector-curvature="0" />
    <path
       style="fill:#ffffff;fill-opacity:1;fill-rule:nonzero;stroke:none"
       d="m 82.34375,101.73438 c 3.0625,0 5.4375,0.57812 7.117188,1.71093 1.679687,1.125 2.539062,2.95313 2.539062,5.50782 0,2.57031 -0.859375,4.45312 -2.570312,5.60156 -1.695313,1.14062 -4.085938,1.71875 -7.203126,1.71875 h -1.710937 v 7.28125 H 75.71875 v -21.28906 c 0.476562,-0.0859 0.984375,-0.17188 1.5625,-0.25 0.59375,-0.0703 1.1875,-0.11719 1.78125,-0.13282 0.609375,-0.0469 1.1875,-0.0859 1.765625,-0.10156 0.554687,-0.0312 1.070313,-0.0469 1.515625,-0.0469 m 0.539062,3.74218 c -0.273437,0 -0.6875,0 -1.203124,0.0312 -0.492188,0 -0.882813,0.0156 -1.164063,0.0703 v 6.96875 h 1.945313 c 1.53125,0 2.679687,-0.28125 3.460937,-0.8125 0.773437,-0.55469 1.164063,-1.49219 1.164063,-2.8125 0,-1.25782 -0.390626,-2.14063 -1.164063,-2.65625 -0.742187,-0.52344 -1.765625,-0.78907 -3.039063,-0.78907"
       id="path16"
       inkscape:connector-curvature="0" />
    <path
       style="fill:#ffffff;fill-opacity:1;fill-rule:nonzero;stroke:none"
       d="M 32,68 H 52 V 80 H 32 Z m 0,0"
       id="path18"
       inkscape:connector-curvature="0" />
    <path
       style="fill:#ffffff;fill-opacity:1;fill-rule:nonzero;stroke:none"
       d="M 80,43.96875 V 60 H 96 C 96,51.140625 88.835938,43.96875 80,43.96875 Z m 0,0"
       id="path20"
       inkscape:connector-curvature="0" />
    <path
       style="fill:#ffffff;fill-opacity:1;fill-rule:nonzero;stroke:none"
       d="M 76.007812,48 C 67.171875,48 60,55.15625 60,64 60,72.84375 67.171875,80 76.007812,80 84.84375,80 92,72.84375 92,64 H 76.007812 Z m 0,0"
       id="path22"
       inkscape:connector-curvature="0" />
  </g>
</svg>
