<?xml version="1.0" encoding="UTF-8" standalone="no"?>
<svg
   xmlns:dc="http://purl.org/dc/elements/1.1/"
   xmlns:cc="http://creativecommons.org/ns#"
   xmlns:rdf="http://www.w3.org/1999/02/22-rdf-syntax-ns#"
   xmlns:svg="http://www.w3.org/2000/svg"
   xmlns="http://www.w3.org/2000/svg"
   xmlns:sodipodi="http://sodipodi.sourceforge.net/DTD/sodipodi-0.dtd"
   xmlns:inkscape="http://www.inkscape.org/namespaces/inkscape"
   width="96"
   height="96"
   viewBox="0 0 96 96"
   version="1.1"
   id="svg15"
   sodipodi:docname="application-vnd.oasis.opendocument.drawing-template.svg"
   inkscape:version="0.92.2 (5c3e80d, 2017-08-06)">
  <metadata
     id="metadata21">
    <rdf:RDF>
      <cc:Work
         rdf:about="">
        <dc:format>image/svg+xml</dc:format>
        <dc:type
           rdf:resource="http://purl.org/dc/dcmitype/StillImage" />
        <dc:title></dc:title>
      </cc:Work>
    </rdf:RDF>
  </metadata>
  <defs
     id="defs19" />
  <sodipodi:namedview
     pagecolor="#ffffff"
     bordercolor="#666666"
     borderopacity="1"
     objecttolerance="10"
     gridtolerance="10"
     guidetolerance="10"
     inkscape:pageopacity="0"
     inkscape:pageshadow="2"
     inkscape:window-width="2171"
     inkscape:window-height="1385"
     id="namedview17"
     showgrid="false"
     inkscape:zoom="1.84375"
     inkscape:cx="-55.59322"
     inkscape:cy="64"
     inkscape:window-x="102"
     inkscape:window-y="55"
     inkscape:window-maximized="0"
     inkscape:current-layer="svg15" />
  <g
     id="surface1"
     transform="scale(0.75)">
    <path
       style="fill:#ebae00;fill-opacity:1;fill-rule:nonzero;stroke:none"
       d="M 21.375,0 C 18.625,0 16,2.757812 16,5.625 v 116.75 c 0,2.70313 2.78125,5.625 5.375,5.625 h 85.25 c 2.59375,0 5.375,-2.92187 5.375,-5.625 V 5.5 C 112,2.804688 109.19531,0 106.5,0 Z m 0,0"
       id="path2"
       inkscape:connector-curvature="0" />
    <path
       style="fill:#000000;fill-opacity:0.19607801;fill-rule:nonzero;stroke:none"
       d="m 16,96 v 26.67188 C 16,125.26563 18.75,128 21.328125,128 H 106.67188 C 109.25,128 112,125.26563 112,122.67188 V 96 Z m 0,0"
       id="path4"
       inkscape:connector-curvature="0" />
    <path
       style="fill:#ffffff;fill-opacity:1;fill-rule:nonzero;stroke:none"
       d="M 40,84 V 36 H 88 V 84 H 60 V 60 h 12 v 8 h -4 v 8 H 80 V 44 H 48 v 40 z m 0,0"
       id="path6"
       inkscape:connector-curvature="0" />
    <path
       style="fill:#ffffff;fill-opacity:1;fill-rule:nonzero;stroke:none"
       d="m 40.882812,113.23438 c 0,1.05468 0.05469,2.03906 0.117188,2.95312 0.117188,0.90625 0.296875,1.6875 0.554688,2.35938 0.28125,0.67968 0.679687,1.20312 1.164062,1.59375 0.492188,0.39062 1.148438,0.59375 1.984375,0.59375 0.804687,0 1.460937,-0.20313 1.953125,-0.59375 0.507812,-0.39063 0.90625,-0.91407 1.164062,-1.59375 0.28125,-0.70313 0.476563,-1.49219 0.546876,-2.39063 0.109374,-0.89844 0.164062,-1.86719 0.164062,-2.92187 0,-1.03125 -0.05469,-2 -0.164062,-2.89844 -0.07031,-0.9375 -0.265626,-1.72656 -0.546876,-2.39844 -0.257812,-0.67187 -0.640624,-1.19531 -1.132812,-1.58594 -0.492188,-0.39843 -1.140625,-0.59375 -1.984375,-0.59375 -0.835937,0 -1.492187,0.19532 -1.984375,0.59375 -0.484375,0.39063 -0.882812,0.92969 -1.164062,1.625 -0.257813,0.67188 -0.4375,1.45313 -0.554688,2.35938 -0.0625,0.89844 -0.117188,1.86719 -0.117188,2.89844 m -4.867187,0 c 0,-3.6875 0.773437,-6.47657 2.296875,-8.34375 1.539062,-1.89844 3.671875,-2.83594 6.390625,-2.83594 2.84375,0 4.992187,0.9375 6.460937,2.83594 1.492188,1.86718 2.234376,4.65625 2.234376,8.34375 0,3.71093 -0.757813,6.5 -2.265626,8.39843 -1.507812,1.86719 -3.640624,2.80469 -6.390624,2.80469 -2.820313,0 -4.984376,-0.9375 -6.5,-2.80469 -1.492188,-1.89843 -2.226563,-4.6875 -2.226563,-8.39843"
       id="path8"
       inkscape:connector-curvature="0" />
    <path
       style="fill:#ffffff;fill-opacity:1;fill-rule:nonzero;stroke:none"
       d="m 72.945312,102.53125 v 3.53906 h -6.34375 v 17.90625 h -4.84375 v -17.90625 h -6.34375 v -3.53906 h 17.53125"
       id="path10"
       inkscape:connector-curvature="0" />
    <path
       style="fill:#ffffff;fill-opacity:1;fill-rule:nonzero;stroke:none"
       d="m 86.078125,105.75781 c -1.148437,0 -2.117187,0.17969 -2.882813,0.5625 -0.789062,0.35938 -1.429687,0.88282 -1.953124,1.55469 -0.492188,0.64063 -0.851563,1.42969 -1.078126,2.34375 -0.21875,0.90625 -0.3125,1.92188 -0.3125,3.01563 0,2.57812 0.4375,4.46093 1.359376,5.69531 0.898437,1.19531 2.242187,1.80469 4,1.80469 0.296874,0 0.609374,-0.0156 0.9375,-0.0391 0.34375,-0.0312 0.65625,-0.0625 0.929687,-0.10937 v -7.82031 h 4.804687 v 10.70312 c -0.570312,0.17969 -1.476562,0.39844 -2.6875,0.625 -1.195312,0.22656 -2.65625,0.34375 -4.359374,0.34375 -1.507813,0 -2.875,-0.22656 -4.101563,-0.6875 -1.195313,-0.49219 -2.210937,-1.19531 -3.070313,-2.11719 -0.867187,-0.95312 -1.523437,-2.11718 -2,-3.50781 -0.453124,-1.41406 -0.6875,-3.03125 -0.6875,-4.89062 0,-1.82032 0.265626,-3.42188 0.820313,-4.80469 0.539063,-1.40625 1.28125,-2.58594 2.21875,-3.53906 0.929687,-0.95313 2.03125,-1.65625 3.3125,-2.11719 1.257813,-0.49219 2.632813,-0.71875 4.078125,-0.71875 0.9375,0 1.773438,0.0625 2.492188,0.19531 0.757812,0.11719 1.414062,0.26563 1.953124,0.42969 0.539063,0.16406 0.984376,0.32812 1.328126,0.50781 0.359374,0.19531 0.640624,0.32813 0.820312,0.42188 l -1.25,3.39843 c -0.570312,-0.32812 -1.273438,-0.60937 -2.109375,-0.86718 -0.820313,-0.25 -1.6875,-0.38282 -2.5625,-0.38282"
       id="path12"
       inkscape:connector-curvature="0" />
  </g>
</svg>
