<?xml version="1.0" encoding="UTF-8" standalone="no"?>
<svg
   xmlns:dc="http://purl.org/dc/elements/1.1/"
   xmlns:cc="http://creativecommons.org/ns#"
   xmlns:rdf="http://www.w3.org/1999/02/22-rdf-syntax-ns#"
   xmlns:svg="http://www.w3.org/2000/svg"
   xmlns="http://www.w3.org/2000/svg"
   xmlns:sodipodi="http://sodipodi.sourceforge.net/DTD/sodipodi-0.dtd"
   xmlns:inkscape="http://www.inkscape.org/namespaces/inkscape"
   width="96"
   height="96"
   viewBox="0 0 96 96"
   version="1.1"
   id="svg19"
   sodipodi:docname="application-text-template.svg"
   inkscape:version="0.92.2 (5c3e80d, 2017-08-06)">
  <metadata
     id="metadata25">
    <rdf:RDF>
      <cc:Work
         rdf:about="">
        <dc:format>image/svg+xml</dc:format>
        <dc:type
           rdf:resource="http://purl.org/dc/dcmitype/StillImage" />
        <dc:title></dc:title>
      </cc:Work>
    </rdf:RDF>
  </metadata>
  <defs
     id="defs23" />
  <sodipodi:namedview
     pagecolor="#ffffff"
     bordercolor="#666666"
     borderopacity="1"
     objecttolerance="10"
     gridtolerance="10"
     guidetolerance="10"
     inkscape:pageopacity="0"
     inkscape:pageshadow="2"
     inkscape:window-width="2457"
     inkscape:window-height="1481"
     id="namedview21"
     showgrid="false"
     inkscape:zoom="3.6875"
     inkscape:cx="-18.755771"
     inkscape:cy="78.113082"
     inkscape:window-x="102"
     inkscape:window-y="55"
     inkscape:window-maximized="0"
     inkscape:current-layer="svg19" />
  <g
     id="surface1"
     transform="scale(0.75)">
    <path
       style="fill:#dcdcdc;fill-opacity:1;fill-rule:nonzero;stroke:none"
       d="M 21.375,0 C 18.625,0 16,2.757812 16,5.625 v 116.75 c 0,2.70313 2.78125,5.625 5.375,5.625 h 85.25 c 2.59375,0 5.375,-2.92187 5.375,-5.625 V 5.5 C 112,2.804688 109.19531,0 106.5,0 Z m 0,0"
       id="path2"
       inkscape:connector-curvature="0" />
    <path
       style="fill:#878787;fill-opacity:1;fill-rule:evenodd;stroke:none"
       d="m 40,40 h 48 v 4 H 40 Z m 0,0"
       id="path4"
       inkscape:connector-curvature="0" />
    <path
       style="fill:#878787;fill-opacity:1;fill-rule:evenodd;stroke:none"
       d="m 40,48 h 48 v 4 H 40 Z m 0,0"
       id="path6"
       inkscape:connector-curvature="0" />
    <path
       style="fill:#878787;fill-opacity:1;fill-rule:evenodd;stroke:none"
       d="m 40,56 h 48 v 4 H 40 Z m 0,0"
       id="path8"
       inkscape:connector-curvature="0" />
    <path
       style="fill:#878787;fill-opacity:1;fill-rule:evenodd;stroke:none"
       d="m 40,64 h 48 v 4 H 40 Z m 0,0"
       id="path10"
       inkscape:connector-curvature="0" />
    <path
       style="fill:#878787;fill-opacity:1;fill-rule:evenodd;stroke:none"
       d="m 40,72 h 48 v 4 H 40 Z m 0,0"
       id="path12"
       inkscape:connector-curvature="0" />
    <path
       style="fill:#878787;fill-opacity:1;fill-rule:evenodd;stroke:none"
       d="m 40,80 h 48 v 4 H 40 Z m 0,0"
       id="path14"
       inkscape:connector-curvature="0" />
    <path
       style="fill:#878787;fill-opacity:1;fill-rule:evenodd;stroke:none"
       d="m 40,88 h 48 v 4 H 40 Z m 0,0"
       id="path16"
       inkscape:connector-curvature="0" />
  </g>
</svg>
