<?xml version="1.0" encoding="UTF-8" standalone="no"?>
<svg
   xmlns:dc="http://purl.org/dc/elements/1.1/"
   xmlns:cc="http://creativecommons.org/ns#"
   xmlns:rdf="http://www.w3.org/1999/02/22-rdf-syntax-ns#"
   xmlns:svg="http://www.w3.org/2000/svg"
   xmlns="http://www.w3.org/2000/svg"
   xmlns:sodipodi="http://sodipodi.sourceforge.net/DTD/sodipodi-0.dtd"
   xmlns:inkscape="http://www.inkscape.org/namespaces/inkscape"
   width="96"
   height="96"
   viewBox="0 0 96 96"
   version="1.1"
   id="svg19"
   sodipodi:docname="application-vnd.oasis.opendocument.drawing.svg"
   inkscape:version="0.92.2 (5c3e80d, 2017-08-06)">
  <metadata
     id="metadata25">
    <rdf:RDF>
      <cc:Work
         rdf:about="">
        <dc:format>image/svg+xml</dc:format>
        <dc:type
           rdf:resource="http://purl.org/dc/dcmitype/StillImage" />
        <dc:title></dc:title>
      </cc:Work>
    </rdf:RDF>
  </metadata>
  <defs
     id="defs23" />
  <sodipodi:namedview
     pagecolor="#ffffff"
     bordercolor="#666666"
     borderopacity="1"
     objecttolerance="10"
     gridtolerance="10"
     guidetolerance="10"
     inkscape:pageopacity="0"
     inkscape:pageshadow="2"
     inkscape:window-width="2142"
     inkscape:window-height="1268"
     id="namedview21"
     showgrid="false"
     inkscape:zoom="1.84375"
     inkscape:cx="-55.59322"
     inkscape:cy="64"
     inkscape:window-x="102"
     inkscape:window-y="55"
     inkscape:window-maximized="0"
     inkscape:current-layer="svg19" />
  <g
     id="surface1"
     transform="scale(0.75)">
    <path
       style="fill:#ebae00;fill-opacity:1;fill-rule:nonzero;stroke:none"
       d="M 21.34375,0 C 18.59375,0 16,2.710938 16,5.578125 V 122.42188 C 16,125.13281 18.75,128 21.34375,128 h 85.3125 C 109.25,128 112,125.13281 112,122.42188 V 36 L 76,0 Z m 0,0"
       id="path2"
       inkscape:connector-curvature="0" />
    <path
       style="fill:#000000;fill-opacity:0.19607801;fill-rule:nonzero;stroke:none"
       d="m 84,36 28,28 V 36 Z m 0,0"
       id="path4"
       inkscape:connector-curvature="0" />
    <path
       style="fill:#ffffff;fill-opacity:0.39215698;fill-rule:nonzero;stroke:none"
       d="m 76,0 35.96875,36 H 81.515625 C 78.820312,36 76,33.148438 76,30.453125 Z m 0,0"
       id="path6"
       inkscape:connector-curvature="0" />
    <path
       style="fill:#000000;fill-opacity:0.19607801;fill-rule:nonzero;stroke:none"
       d="m 16,96 v 26.67188 C 16,125.26563 18.75,128 21.328125,128 H 106.67188 C 109.25,128 112,125.26563 112,122.67188 V 96 Z m 0,0"
       id="path8"
       inkscape:connector-curvature="0" />
    <path
       style="fill:#ffffff;fill-opacity:1;fill-rule:nonzero;stroke:none"
       d="M 40,88 V 44 H 88 V 88 H 60 V 64 h 12 v 8 h -4 v 8 H 80 V 52 H 48 v 36 z m 0,0"
       id="path10"
       inkscape:connector-curvature="0" />
    <path
       style="fill:#ffffff;fill-opacity:1;fill-rule:nonzero;stroke:none"
       d="m 40.585938,112.73438 c 0,1.05468 0.04687,2.04687 0.117187,2.96875 0.117187,0.90625 0.296875,1.69531 0.5625,2.375 0.28125,0.67968 0.671875,1.20312 1.171875,1.60156 0.492188,0.39844 1.148438,0.59375 1.992188,0.59375 0.804687,0 1.46875,-0.19531 1.960937,-0.59375 0.515625,-0.39844 0.90625,-0.92188 1.171875,-1.60156 0.28125,-0.71094 0.476562,-1.5 0.546875,-2.40625 0.117187,-0.90625 0.164063,-1.88282 0.164063,-2.9375 0,-1.03907 -0.04688,-2.01563 -0.164063,-2.92188 -0.07031,-0.9375 -0.265625,-1.72656 -0.546875,-2.40625 -0.265625,-0.67969 -0.640625,-1.20312 -1.140625,-1.60156 -0.492187,-0.39063 -1.148437,-0.59375 -1.992187,-0.59375 -0.84375,0 -1.5,0.20312 -1.992188,0.59375 -0.5,0.39844 -0.890625,0.94531 -1.171875,1.63281 -0.265625,0.67969 -0.445313,1.46875 -0.5625,2.375 -0.07031,0.90625 -0.117187,1.88281 -0.117187,2.92188 m -4.898438,0 c 0,-3.71094 0.773438,-6.51563 2.3125,-8.39844 1.546875,-1.91406 3.695312,-2.85156 6.429688,-2.85156 2.851562,0 5.015624,0.9375 6.5,2.85156 1.5,1.88281 2.242187,4.6875 2.242187,8.39844 0,3.72656 -0.757813,6.53125 -2.273437,8.44531 C 49.375,123.0625 47.234375,124 44.460938,124 c -2.835938,0 -5.015626,-0.9375 -6.53125,-2.82031 -1.5,-1.91406 -2.242188,-4.71875 -2.242188,-8.44531"
       id="path12"
       inkscape:connector-curvature="0" />
    <path
       style="fill:#ffffff;fill-opacity:1;fill-rule:nonzero;stroke:none"
       d="m 61.15625,120.05469 c 0.132812,0.0391 0.28125,0.0391 0.429688,0.0391 0.164062,0 0.3125,0 0.445312,0 1.085938,0 1.992188,-0.1875 2.734375,-0.5625 0.757813,-0.36719 1.351563,-0.875 1.796875,-1.53906 0.484375,-0.64063 0.796875,-1.41406 0.976562,-2.28906 0.210938,-0.90625 0.3125,-1.89844 0.3125,-2.96875 0,-0.92188 -0.0625,-1.82813 -0.234374,-2.71875 -0.148438,-0.875 -0.421876,-1.65625 -0.820313,-2.32813 -0.382813,-0.67969 -0.921875,-1.20312 -1.601563,-1.60156 -0.671874,-0.42969 -1.546874,-0.625 -2.625,-0.625 -0.210937,0 -0.445312,0 -0.703124,0.0312 -0.265626,0 -0.5,0.0156 -0.710938,0.0703 v 14.49219 M 72.75,112.73438 c 0,1.99218 -0.28125,3.71093 -0.859375,5.13281 -0.539063,1.39844 -1.320313,2.53906 -2.304687,3.41406 -0.992188,0.89063 -2.179688,1.53125 -3.5625,1.94531 -1.375,0.39063 -2.875,0.59375 -4.507813,0.59375 -0.875,0 -1.710937,-0.0312 -2.554687,-0.13281 -0.804688,-0.0703 -1.679688,-0.19531 -2.625,-0.38281 v -21.0625 c 1.109374,-0.21094 2.132812,-0.34375 3.101562,-0.41406 0.960938,-0.0625 1.867188,-0.10938 2.710938,-0.10938 1.578124,0 3.03125,0.21094 4.335937,0.625 1.335937,0.42969 2.453125,1.08594 3.382813,1.99219 0.90625,0.875 1.617187,2.03125 2.109374,3.41406 C 72.5,109.125 72.75,110.78906 72.75,112.73438"
       id="path14"
       inkscape:connector-curvature="0" />
    <path
       style="fill:#ffffff;fill-opacity:1;fill-rule:nonzero;stroke:none"
       d="m 86.046875,105.21094 c -1.15625,0 -2.132813,0.17969 -2.90625,0.5625 -0.789063,0.35937 -1.429687,0.89062 -1.960937,1.57031 -0.492188,0.64063 -0.859376,1.42969 -1.085938,2.35156 -0.21875,0.91407 -0.3125,1.9375 -0.3125,3.03907 0,2.58593 0.445312,4.48437 1.367188,5.72656 0.90625,1.20312 2.257812,1.8125 4.023437,1.8125 0.296875,0 0.609375,-0.0156 0.9375,-0.0312 0.351563,-0.0391 0.664063,-0.0703 0.945313,-0.11719 v -7.86719 h 4.828124 v 10.76563 c -0.578124,0.1875 -1.484374,0.39844 -2.703124,0.63281 -1.203126,0.22651 -2.671876,0.3437 -4.390626,0.3437 -1.515624,0 -2.882812,-0.23437 -4.117187,-0.69531 -1.210937,-0.49219 -2.226563,-1.20313 -3.085937,-2.125 -0.875,-0.95313 -1.539063,-2.125 -2.015626,-3.53125 -0.460937,-1.41406 -0.695312,-3.04688 -0.695312,-4.91406 0,-1.82813 0.265625,-3.44532 0.828125,-4.83594 0.546875,-1.41406 1.289063,-2.60156 2.226563,-3.5625 0.9375,-0.95313 2.046874,-1.66406 3.335937,-2.125 1.265625,-0.49219 2.648437,-0.72656 4.101563,-0.72656 0.945312,0 1.78125,0.0703 2.507812,0.19531 0.757812,0.11719 1.421875,0.26562 1.960938,0.42969 0.546874,0.16406 0.992187,0.33593 1.335937,0.51562 0.367187,0.19531 0.648437,0.32813 0.828125,0.42969 l -1.25,3.41406 c -0.578125,-0.33594 -1.289062,-0.60937 -2.132812,-0.875 -0.820313,-0.25 -1.695313,-0.38281 -2.570313,-0.38281"
       id="path16"
       inkscape:connector-curvature="0" />
  </g>
</svg>
