<?xml version="1.0" encoding="UTF-8" standalone="no"?>
<svg
   xmlns:dc="http://purl.org/dc/elements/1.1/"
   xmlns:cc="http://creativecommons.org/ns#"
   xmlns:rdf="http://www.w3.org/1999/02/22-rdf-syntax-ns#"
   xmlns:svg="http://www.w3.org/2000/svg"
   xmlns="http://www.w3.org/2000/svg"
   xmlns:sodipodi="http://sodipodi.sourceforge.net/DTD/sodipodi-0.dtd"
   xmlns:inkscape="http://www.inkscape.org/namespaces/inkscape"
   width="96"
   height="96"
   viewBox="0 0 96 96"
   version="1.1"
   id="svg2"
   inkscape:version="0.92.2 (5c3e80d, 2017-08-06)"
   sodipodi:docname="application-vnd.ms-cab-compressed.svg">
  <metadata
     id="metadata35">
    <rdf:RDF>
      <cc:Work
         rdf:about="">
        <dc:format>image/svg+xml</dc:format>
        <dc:type
           rdf:resource="http://purl.org/dc/dcmitype/StillImage" />
        <dc:title></dc:title>
      </cc:Work>
    </rdf:RDF>
  </metadata>
  <defs
     id="defs33" />
  <sodipodi:namedview
     pagecolor="#ffffff"
     bordercolor="#666666"
     borderopacity="1"
     objecttolerance="10"
     gridtolerance="10"
     guidetolerance="10"
     inkscape:pageopacity="0"
     inkscape:pageshadow="2"
     inkscape:window-width="2023"
     inkscape:window-height="1335"
     id="namedview31"
     showgrid="false"
     inkscape:zoom="1.84375"
     inkscape:cx="-55.59322"
     inkscape:cy="64"
     inkscape:window-x="102"
     inkscape:window-y="55"
     inkscape:window-maximized="0"
     inkscape:current-layer="surface1" />
  <g
     id="surface1"
     transform="translate(0,-32)">
    <path
       style="fill:#45606e;fill-opacity:1;fill-rule:nonzero;stroke:none;stroke-width:0.75"
       d="M 16.007812,32 C 13.945313,32 12,34.033203 12,36.183594 V 123.81641 C 12,125.84961 14.0625,128 16.007812,128 H 79.992187 C 81.9375,128 84,125.84961 84,123.81641 V 59 L 57,32 Z m 0,0"
       id="path5"
       inkscape:connector-curvature="0" />
    <path
       style="fill:#000000;fill-opacity:0.19607801;fill-rule:nonzero;stroke:none;stroke-width:0.75"
       d="m 12,104 v 20.00391 C 12,125.94922 14.0625,128 15.996094,128 H 80.00391 C 81.9375,128 84,125.94922 84,124.00391 V 104 Z m 0,0"
       id="path7"
       inkscape:connector-curvature="0" />
    <path
       style="fill:#000000;fill-opacity:0.19607801;fill-rule:nonzero;stroke:none;stroke-width:0.75"
       d="M 63,59 84,80 V 59 Z m 0,0"
       id="path9"
       inkscape:connector-curvature="0" />
    <path
       style="fill:#ffffff;fill-opacity:1;fill-rule:nonzero;stroke:none;stroke-width:0.75"
       d="m 34.833984,125 c -2.542968,0 -4.476563,-0.72656 -5.818359,-2.1914 C 27.673828,121.36133 27,119.29297 27,116.59766 c 0,-1.33008 0.210937,-2.51953 0.615234,-3.55664 0.404297,-1.04297 0.972657,-1.91602 1.6875,-2.63086 0.738282,-0.72656 1.611328,-1.26562 2.595703,-1.63477 1.007813,-0.38085 2.103516,-0.56835 3.28125,-0.56835 0.65625,0 1.21875,0.0469 1.722657,0.14648 0.527343,0.0879 0.984375,0.19921 1.365234,0.32227 0.392578,0.12304 0.714843,0.24609 0.972656,0.38085 0.269532,0.14649 0.46875,0.24609 0.603516,0.32227 l -0.9375,2.54297 c -0.439454,-0.25782 -0.984375,-0.48047 -1.623047,-0.6504 -0.626953,-0.1875 -1.341797,-0.28125 -2.150391,-0.28125 -0.568359,0 -1.119141,0.0937 -1.664062,0.28125 -0.527344,0.16993 -0.996094,0.48048 -1.423829,0.90821 -0.404296,0.42187 -0.75,0.98437 -1.01953,1.6875 -0.263672,0.71485 -0.38672,1.59961 -0.38672,2.65429 0,1.83399 0.357423,3.25196 1.048829,4.23633 0.726562,0.97266 1.892578,1.45899 3.492187,1.45899 0.9375,0 1.710938,-0.0937 2.302734,-0.28125 0.626954,-0.19336 1.119141,-0.38086 1.488282,-0.57422 l 0.908203,2.51953 c -0.503906,0.28125 -1.189453,0.53906 -2.0625,0.78516 C 36.955078,124.88867 35.970703,125 34.833984,125"
       id="path11"
       inkscape:connector-curvature="0" />
    <path
       style="fill:#ffffff;fill-opacity:0.39215698;fill-rule:nonzero;stroke:none;stroke-width:0.75"
       d="M 57,32 83.976562,59 H 61.136719 C 59.115234,59 57,56.861328 57,54.839844 Z m 0,0"
       id="path13"
       inkscape:connector-curvature="0" />
    <path
       style="fill:#ffffff;fill-opacity:1;fill-rule:nonzero;stroke:none;stroke-width:0.75"
       d="m 51.234375,124.66602 -0.849609,-3.72657 h -4.798829 l -0.820312,3.72657 h -3.726563 c 0.861329,-3.16992 1.722657,-6.06446 2.595704,-8.66016 0.873046,-2.61914 1.722655,-5.10351 2.53125,-7.44141 h 3.902343 c 0.861328,2.36133 1.69336,4.85743 2.53125,7.51758 0.84961,2.63086 1.6875,5.49609 2.472657,8.58399 H 51.234375 M 48.023437,111.6875 c -0.181641,0.60352 -0.369141,1.1836 -0.550781,1.73438 -0.146485,0.54492 -0.310547,1.08398 -0.457031,1.62304 -0.146484,0.52149 -0.28125,1.04883 -0.416016,1.57618 -0.111328,0.54492 -0.234375,1.0957 -0.345703,1.67578 h 3.515625 c -0.111328,-0.58008 -0.234375,-1.13086 -0.339844,-1.67578 -0.111328,-0.52735 -0.263671,-1.05469 -0.410156,-1.57618 -0.134765,-0.53906 -0.292969,-1.07812 -0.46875,-1.62304 -0.158203,-0.55078 -0.328125,-1.13086 -0.527344,-1.73438"
       id="path15"
       inkscape:connector-curvature="0" />
    <path
       style="fill:#f8f8f8;fill-opacity:1;fill-rule:evenodd;stroke:none;stroke-width:0.75"
       d="m 27,32 h 9 v 9 h -9 z m 0,0"
       id="path17"
       inkscape:connector-curvature="0" />
    <path
       style="fill:#ffffff;fill-opacity:1;fill-rule:nonzero;stroke:none;stroke-width:0.75"
       d="m 69,119.79688 c 0,0.97266 -0.181641,1.78125 -0.550781,2.44922 -0.369141,0.63867 -0.878907,1.15429 -1.517578,1.55859 -0.626954,0.38086 -1.376954,0.65625 -2.25,0.82617 -0.84961,0.1582 -1.769532,0.23437 -2.765625,0.23437 -0.791016,0 -1.611329,-0.0352 -2.472657,-0.12304 -0.849609,-0.0762 -1.699218,-0.1875 -2.537109,-0.34571 v -15.62109 c 0.691406,-0.0996 1.429687,-0.1875 2.25,-0.25781 0.814453,-0.0879 1.611328,-0.14062 2.414062,-0.14062 1.365234,0 2.460938,0.14062 3.322266,0.39843 0.849609,0.24609 1.523438,0.57422 2.003906,0.98438 0.492187,0.40429 0.826172,0.86133 0.996094,1.35352 0.169922,0.5039 0.257813,1.00781 0.257813,1.51171 0,0.76172 -0.210938,1.43555 -0.638672,2.02735 -0.404298,0.59179 -0.960938,1.06054 -1.658203,1.40625 1.21289,0.39257 2.05078,0.93163 2.472655,1.61132 C 68.777344,118.34375 69,119.0586 69,119.79688 m -8.513672,-2.17969 v 4.3711 c 0.257813,0.0352 0.527343,0.0586 0.826172,0.0703 0.304687,0.0234 0.603516,0.0234 0.896484,0.0234 0.404297,0 0.814453,-0.0234 1.195312,-0.0703 0.392579,-0.0762 0.726563,-0.1875 1.019532,-0.34571 0.304688,-0.16992 0.568359,-0.40429 0.761718,-0.70312 0.1875,-0.30469 0.28125,-0.69727 0.28125,-1.16602 0,-0.77344 -0.28125,-1.33008 -0.83203,-1.66406 -0.556641,-0.33984 -1.294922,-0.51563 -2.214845,-0.51563 h -1.933593 m 1.400391,-2.65429 c 0.914062,0 1.599609,-0.17579 2.068359,-0.51563 0.46875,-0.36914 0.703125,-0.86133 0.703125,-1.48828 0,-0.38672 -0.07617,-0.67969 -0.210937,-0.91407 -0.134766,-0.23437 -0.316407,-0.41601 -0.550782,-0.53906 -0.222656,-0.13476 -0.503906,-0.22265 -0.814453,-0.25781 -0.304687,-0.0527 -0.626953,-0.0762 -0.960937,-0.0762 -0.269532,0 -0.550782,0 -0.84961,0.0234 -0.28125,0.0117 -0.550781,0.041 -0.785156,0.0762 v 3.69141 h 1.400391"
       id="path19"
       inkscape:connector-curvature="0" />
    <path
       style="fill:#f8f8f8;fill-opacity:1;fill-rule:evenodd;stroke:none;stroke-width:0.75"
       d="m 36,41 h 9 v 9 h -9 z m 0,0"
       id="path21"
       inkscape:connector-curvature="0" />
    <path
       style="fill:#f8f8f8;fill-opacity:1;fill-rule:evenodd;stroke:none;stroke-width:0.75"
       d="m 27,50 h 9 v 9 h -9 z m 0,0"
       id="path23"
       inkscape:connector-curvature="0" />
    <path
       style="fill:#f8f8f8;fill-opacity:1;fill-rule:evenodd;stroke:none;stroke-width:0.75"
       d="m 36,59 h 9 v 9 h -9 z m 0,0"
       id="path25"
       inkscape:connector-curvature="0" />
    <path
       style="fill:#f8f8f8;fill-opacity:1;fill-rule:evenodd;stroke:none;stroke-width:0.75"
       d="m 27,68 h 9 v 9 h -9 z m 0,0"
       id="path27"
       inkscape:connector-curvature="0" />
    <path
       style="fill:#f8f8f8;fill-opacity:1;fill-rule:evenodd;stroke:none;stroke-width:0.75"
       d="M 27,80 H 45 V 98 H 27 Z m 0,0"
       id="path29"
       inkscape:connector-curvature="0" />
  </g>
</svg>
