<?xml version="1.0" encoding="UTF-8" standalone="no"?>
<svg
   xmlns:dc="http://purl.org/dc/elements/1.1/"
   xmlns:cc="http://creativecommons.org/ns#"
   xmlns:rdf="http://www.w3.org/1999/02/22-rdf-syntax-ns#"
   xmlns:svg="http://www.w3.org/2000/svg"
   xmlns="http://www.w3.org/2000/svg"
   xmlns:sodipodi="http://sodipodi.sourceforge.net/DTD/sodipodi-0.dtd"
   xmlns:inkscape="http://www.inkscape.org/namespaces/inkscape"
   width="96"
   height="96"
   viewBox="0 0 96 96"
   version="1.1"
   id="svg2"
   inkscape:version="0.92.2 (5c3e80d, 2017-08-06)"
   sodipodi:docname="application-x-shar.svg">
  <metadata
     id="metadata37">
    <rdf:RDF>
      <cc:Work
         rdf:about="">
        <dc:format>image/svg+xml</dc:format>
        <dc:type
           rdf:resource="http://purl.org/dc/dcmitype/StillImage" />
        <dc:title></dc:title>
      </cc:Work>
    </rdf:RDF>
  </metadata>
  <defs
     id="defs35" />
  <sodipodi:namedview
     pagecolor="#ffffff"
     bordercolor="#666666"
     borderopacity="1"
     objecttolerance="10"
     gridtolerance="10"
     guidetolerance="10"
     inkscape:pageopacity="0"
     inkscape:pageshadow="2"
     inkscape:window-width="1915"
     inkscape:window-height="1321"
     id="namedview33"
     showgrid="false"
     inkscape:zoom="1.84375"
     inkscape:cx="-55.59322"
     inkscape:cy="64"
     inkscape:window-x="782"
     inkscape:window-y="392"
     inkscape:window-maximized="0"
     inkscape:current-layer="surface1" />
  <g
     id="surface1"
     transform="translate(0,-32)">
    <path
       style="fill:#45606e;fill-opacity:1;fill-rule:nonzero;stroke:none;stroke-width:0.75"
       d="M 16.007812,32 C 13.945313,32 12,34.033203 12,36.183594 V 123.81641 C 12,125.84961 14.0625,128 16.007812,128 H 79.992187 C 81.9375,128 84,125.84961 84,123.81641 V 59 L 57,32 Z m 0,0"
       id="path5"
       inkscape:connector-curvature="0" />
    <path
       style="fill:#000000;fill-opacity:0.19607801;fill-rule:nonzero;stroke:none;stroke-width:0.75"
       d="m 12,104 v 20.00391 C 12,125.94922 14.0625,128 15.996094,128 H 80.00391 C 81.9375,128 84,125.94922 84,124.00391 V 104 Z m 0,0"
       id="path7"
       inkscape:connector-curvature="0" />
    <path
       style="fill:#000000;fill-opacity:0.19607801;fill-rule:nonzero;stroke:none;stroke-width:0.75"
       d="M 63,59 84,80 V 59 Z m 0,0"
       id="path9"
       inkscape:connector-curvature="0" />
    <path
       style="fill:#ffffff;fill-opacity:0.39215698;fill-rule:nonzero;stroke:none;stroke-width:0.75"
       d="M 57,32 83.976562,59 H 61.136719 C 59.115234,59 57,56.861328 57,54.839844 Z m 0,0"
       id="path11"
       inkscape:connector-curvature="0" />
    <path
       style="fill:#f8f8f8;fill-opacity:1;fill-rule:evenodd;stroke:none;stroke-width:0.75"
       d="m 27,32 h 9 v 9 h -9 z m 0,0"
       id="path13"
       inkscape:connector-curvature="0" />
    <path
       style="fill:#f8f8f8;fill-opacity:1;fill-rule:evenodd;stroke:none;stroke-width:0.75"
       d="m 36,41 h 9 v 9 h -9 z m 0,0"
       id="path15"
       inkscape:connector-curvature="0" />
    <path
       style="fill:#f8f8f8;fill-opacity:1;fill-rule:evenodd;stroke:none;stroke-width:0.75"
       d="m 27,50 h 9 v 9 h -9 z m 0,0"
       id="path17"
       inkscape:connector-curvature="0" />
    <path
       style="fill:#f8f8f8;fill-opacity:1;fill-rule:evenodd;stroke:none;stroke-width:0.75"
       d="m 36,59 h 9 v 9 h -9 z m 0,0"
       id="path19"
       inkscape:connector-curvature="0" />
    <path
       style="fill:#f8f8f8;fill-opacity:1;fill-rule:evenodd;stroke:none;stroke-width:0.75"
       d="m 27,68 h 9 v 9 h -9 z m 0,0"
       id="path21"
       inkscape:connector-curvature="0" />
    <path
       style="fill:#f8f8f8;fill-opacity:1;fill-rule:evenodd;stroke:none;stroke-width:0.75"
       d="M 27,80 H 45 V 98 H 27 Z m 0,0"
       id="path23"
       inkscape:connector-curvature="0" />
    <path
       style="fill:#ffffff;fill-opacity:1;fill-rule:nonzero;stroke:none;stroke-width:0.75"
       d="m 28.722656,122.77344 c 0.515625,0 0.9375,-0.0469 1.265625,-0.14063 0.339844,-0.11718 0.609375,-0.26952 0.808594,-0.44531 0.199219,-0.19921 0.328125,-0.42187 0.398437,-0.64453 0.08203,-0.25781 0.117188,-0.50391 0.117188,-0.75 0,-0.31641 -0.09375,-0.59766 -0.269531,-0.84375 -0.175782,-0.24609 -0.410157,-0.45703 -0.691407,-0.64453 -0.28125,-0.19922 -0.585937,-0.36328 -0.9375,-0.51563 -0.339843,-0.16406 -0.691406,-0.3164 -1.03125,-0.44531 -0.457031,-0.16406 -0.9375,-0.35156 -1.429687,-0.57421 -0.492188,-0.21094 -0.9375,-0.48048 -1.347656,-0.8086 -0.398438,-0.33984 -0.726563,-0.73828 -0.984375,-1.21875 -0.269532,-0.49219 -0.398438,-1.10156 -0.398438,-1.82813 0,-1.4414 0.457031,-2.5664 1.382813,-3.375 0.925781,-0.80859 2.214843,-1.20702 3.832031,-1.20702 0.9375,0 1.757812,0.10546 2.4375,0.3164 0.714844,0.21094 1.300781,0.45703 1.78125,0.71485 l -0.890625,2.35546 c -0.410156,-0.23437 -0.867188,-0.42187 -1.382813,-0.59765 -0.492187,-0.16406 -1.066406,-0.2461 -1.722656,-0.2461 -1.605469,0 -2.414062,0.58594 -2.414062,1.75781 0,0.30469 0.08203,0.5625 0.246093,0.79688 0.164063,0.21094 0.375,0.41016 0.621094,0.59766 0.257813,0.16406 0.550781,0.3164 0.867188,0.44531 0.328125,0.1289 0.644531,0.25781 0.949218,0.36328 0.480469,0.1875 0.972657,0.39844 1.488282,0.6211 0.515625,0.22265 0.996093,0.51562 1.417968,0.89062 0.445313,0.36328 0.808594,0.83203 1.089844,1.39453 0.28125,0.53906 0.421875,1.23047 0.421875,2.07422 0,1.4414 -0.46875,2.55469 -1.40625,3.35156 -0.925781,0.77344 -2.320312,1.16016 -4.21875,1.16016 -1.253906,0 -2.273437,-0.12891 -3.023437,-0.39844 C 24.949219,124.64844 24.375,124.39063 24,124.16797 l 0.890625,-2.48437 c 0.433594,0.26953 0.960937,0.51562 1.570312,0.75 0.621094,0.22265 1.382813,0.33984 2.261719,0.33984"
       id="path25"
       inkscape:connector-curvature="0" />
    <path
       style="fill:#ffffff;fill-opacity:1;fill-rule:nonzero;stroke:none;stroke-width:0.75"
       d="M 46.535156,109.67188 V 125 H 43.5 v -6.75 H 39.46875 V 125 h -3.035156 v -15.32812 h 3.035156 v 6.04687 H 43.5 v -6.04687 h 3.035156"
       id="path27"
       inkscape:connector-curvature="0" />
    <path
       style="fill:#ffffff;fill-opacity:1;fill-rule:nonzero;stroke:none;stroke-width:0.75"
       d="m 56.484375,125 -0.714844,-3.53906 H 51.703125 L 51.011719,125 h -3.152344 c 0.726562,-3.01171 1.453125,-5.76562 2.191406,-8.23828 0.75,-2.49609 1.453125,-4.86328 2.144531,-7.08984 H 55.5 c 0.726562,2.25 1.441406,4.62891 2.144531,7.16016 0.714844,2.50781 1.417969,5.23827 2.085938,8.16796 h -3.246094 m -2.707031,-12.35156 c -0.164063,0.57422 -0.328125,1.125 -0.46875,1.65235 -0.128907,0.51562 -0.269532,1.03125 -0.398438,1.53515 -0.117187,0.50391 -0.222656,1.00781 -0.339844,1.51172 -0.105468,0.51563 -0.199218,1.04297 -0.292968,1.59375 h 2.976562 c -0.105469,-0.55078 -0.199219,-1.07812 -0.292969,-1.59375 -0.105468,-0.50391 -0.222656,-1.00781 -0.351562,-1.51172 -0.117188,-0.5039 -0.246094,-1.01953 -0.386719,-1.53515 -0.140625,-0.52735 -0.28125,-1.07813 -0.445312,-1.65235"
       id="path29"
       inkscape:connector-curvature="0" />
    <path
       style="fill:#ffffff;fill-opacity:1;fill-rule:nonzero;stroke:none;stroke-width:0.75"
       d="m 65.226562,109.4961 c 0.867188,0 1.664063,0.10546 2.367188,0.30469 0.703125,0.19921 1.3125,0.5039 1.816406,0.91406 0.515625,0.41015 0.902344,0.9375 1.160156,1.58203 0.28125,0.63281 0.421875,1.37109 0.421875,2.22656 0,0.90235 -0.1875,1.71094 -0.539062,2.4375 -0.363281,0.72656 -0.960938,1.27735 -1.804688,1.65235 0.28125,0.43359 0.574219,0.91406 0.890625,1.4414 0.304688,0.50391 0.609375,1.05469 0.914063,1.62891 0.292969,0.5625 0.574219,1.13671 0.832031,1.71094 C 71.566406,123.95704 71.800781,124.4961 72,125 h -3.175781 c -0.375,-0.98437 -0.820313,-1.93359 -1.335938,-2.84765 -0.492187,-0.91406 -1.019531,-1.85156 -1.59375,-2.78906 H 64.3125 V 125 h -3.023438 v -15.10546 c 0.292969,-0.0586 0.609375,-0.11719 0.960938,-0.17579 0.363281,-0.0586 0.714844,-0.10546 1.078125,-0.11719 0.363281,-0.0352 0.703125,-0.0586 1.03125,-0.0703 0.339844,-0.0234 0.621094,-0.0352 0.867187,-0.0352 M 67.910156,114.5 c 0,-0.80859 -0.246094,-1.39453 -0.738281,-1.78125 -0.492188,-0.375 -1.136719,-0.5625 -1.945313,-0.5625 -0.117187,0 -0.257812,0 -0.421875,0.0234 -0.164062,0 -0.328125,0.0117 -0.492187,0.0469 v 4.60548 h 0.667969 c 1.03125,0 1.78125,-0.19923 2.238281,-0.59766 0.457031,-0.41012 0.691406,-0.98434 0.691406,-1.73434"
       id="path31"
       inkscape:connector-curvature="0" />
  </g>
</svg>
