<?xml version="1.0" encoding="UTF-8" standalone="no"?>
<svg
   xmlns:dc="http://purl.org/dc/elements/1.1/"
   xmlns:cc="http://creativecommons.org/ns#"
   xmlns:rdf="http://www.w3.org/1999/02/22-rdf-syntax-ns#"
   xmlns:svg="http://www.w3.org/2000/svg"
   xmlns="http://www.w3.org/2000/svg"
   xmlns:sodipodi="http://sodipodi.sourceforge.net/DTD/sodipodi-0.dtd"
   xmlns:inkscape="http://www.inkscape.org/namespaces/inkscape"
   width="96"
   height="96"
   viewBox="0 0 96 96"
   version="1.1"
   id="svg11"
   sodipodi:docname="application-certificate.svg"
   inkscape:version="0.92.2 (5c3e80d, 2017-08-06)">
  <metadata
     id="metadata17">
    <rdf:RDF>
      <cc:Work
         rdf:about="">
        <dc:format>image/svg+xml</dc:format>
        <dc:type
           rdf:resource="http://purl.org/dc/dcmitype/StillImage" />
        <dc:title></dc:title>
      </cc:Work>
    </rdf:RDF>
  </metadata>
  <defs
     id="defs15" />
  <sodipodi:namedview
     pagecolor="#ffffff"
     bordercolor="#666666"
     borderopacity="1"
     objecttolerance="10"
     gridtolerance="10"
     guidetolerance="10"
     inkscape:pageopacity="0"
     inkscape:pageshadow="2"
     inkscape:window-width="1931"
     inkscape:window-height="1155"
     id="namedview13"
     showgrid="false"
     inkscape:zoom="1.84375"
     inkscape:cx="-54.508475"
     inkscape:cy="64"
     inkscape:window-x="883"
     inkscape:window-y="451"
     inkscape:window-maximized="0"
     inkscape:current-layer="svg11" />
  <g
     id="surface1"
     transform="scale(0.75)">
    <path
       style="fill:#cc681e;fill-opacity:1;fill-rule:nonzero;stroke:none"
       d="M 21.34375,0 C 18.59375,0 16,2.710938 16,5.578125 V 122.42188 C 16,125.13281 18.75,128 21.34375,128 h 85.3125 C 109.25,128 112,125.13281 112,122.42188 V 36 L 76,0 Z m 0,0"
       id="path2"
       inkscape:connector-curvature="0" />
    <path
       style="fill:#000000;fill-opacity:0.19607801;fill-rule:nonzero;stroke:none"
       d="m 84,36 28,28 V 36 Z m 0,0"
       id="path4"
       inkscape:connector-curvature="0" />
    <path
       style="fill:#ffffff;fill-opacity:0.39215698;fill-rule:nonzero;stroke:none"
       d="m 76,0 35.96875,36 H 81.515625 C 78.820312,36 76,33.148438 76,30.453125 Z m 0,0"
       id="path6"
       inkscape:connector-curvature="0" />
    <path
       style="fill:#ffffff;fill-opacity:1;fill-rule:nonzero;stroke:none"
       d="m 64,40 c -2.171875,0 -4,1.25 -4.828125,3.007812 -1.65625,-1.140624 -3.953125,-1.34375 -5.84375,-0.304687 -1.859375,1.007813 -2.84375,2.984375 -2.65625,4.890625 -2.015625,-0.179688 -4.09375,0.765625 -5.171875,2.539062 -1.078125,1.773438 -0.859375,3.960938 0.328125,5.523438 -1.859375,0.789062 -3.15625,2.53125 -3.15625,4.585938 0,2.0625 1.296875,3.789062 3.15625,4.585937 -1.1875,1.570313 -1.40625,3.742187 -0.328125,5.53125 1.078125,1.773437 3.15625,2.703125 5.171875,2.523437 -0.1875,1.921876 0.796875,3.882813 2.65625,4.90625 C 54.171875,78.25 55.09375,78.429688 56,78.429688 V 100 L 64,92.40625 72,100 V 78.429688 c 0.90625,0 1.828125,-0.179688 2.671875,-0.640626 1.859375,-1.023437 2.84375,-2.984374 2.65625,-4.90625 2.015625,0.179688 4.09375,-0.75 5.171875,-2.523437 1.078125,-1.789063 0.859375,-3.960937 -0.328125,-5.53125 1.859375,-0.796875 3.15625,-2.523437 3.15625,-4.585937 0,-2.054688 -1.296875,-3.796876 -3.15625,-4.585938 1.1875,-1.5625 1.40625,-3.75 0.328125,-5.523438 -1.078125,-1.773437 -3.15625,-2.71875 -5.171875,-2.539062 0.1875,-1.90625 -0.796875,-3.882812 -2.65625,-4.890625 -1.890625,-1.039063 -4.1875,-0.835937 -5.84375,0.304687 C 68,41.25 66.171875,40 64,40 Z m 0,7.507812 c 7.359375,0 13.328125,5.671876 13.328125,12.65625 0,6.984376 -5.96875,12.640626 -13.328125,12.640626 -7.359375,0 -13.328125,-5.65625 -13.328125,-12.640626 0,-6.984374 5.96875,-12.65625 13.328125,-12.65625 z m 0,2.539063 c -5.890625,0 -10.671875,4.523437 -10.671875,10.117187 0,5.578126 4.78125,10.117188 10.671875,10.117188 5.890625,0 10.671875,-4.539062 10.671875,-10.117188 0,-5.59375 -4.78125,-10.117187 -10.671875,-10.117187 z m 0,0"
       id="path8"
       inkscape:connector-curvature="0" />
  </g>
</svg>
