<?xml version="1.0" encoding="UTF-8" standalone="no"?>
<svg
   xmlns:dc="http://purl.org/dc/elements/1.1/"
   xmlns:cc="http://creativecommons.org/ns#"
   xmlns:rdf="http://www.w3.org/1999/02/22-rdf-syntax-ns#"
   xmlns:svg="http://www.w3.org/2000/svg"
   xmlns="http://www.w3.org/2000/svg"
   xmlns:sodipodi="http://sodipodi.sourceforge.net/DTD/sodipodi-0.dtd"
   xmlns:inkscape="http://www.inkscape.org/namespaces/inkscape"
   width="96"
   height="96"
   viewBox="0 0 96 96"
   version="1.1"
   id="svg33"
   sodipodi:docname="application-x-jar.svg"
   inkscape:version="0.92.2 (5c3e80d, 2017-08-06)">
  <metadata
     id="metadata39">
    <rdf:RDF>
      <cc:Work
         rdf:about="">
        <dc:format>image/svg+xml</dc:format>
        <dc:type
           rdf:resource="http://purl.org/dc/dcmitype/StillImage" />
        <dc:title></dc:title>
      </cc:Work>
    </rdf:RDF>
  </metadata>
  <defs
     id="defs37" />
  <sodipodi:namedview
     pagecolor="#ffffff"
     bordercolor="#666666"
     borderopacity="1"
     objecttolerance="10"
     gridtolerance="10"
     guidetolerance="10"
     inkscape:pageopacity="0"
     inkscape:pageshadow="2"
     inkscape:window-width="2317"
     inkscape:window-height="1363"
     id="namedview35"
     showgrid="false"
     inkscape:zoom="1.84375"
     inkscape:cx="-55.59322"
     inkscape:cy="64"
     inkscape:window-x="102"
     inkscape:window-y="55"
     inkscape:window-maximized="0"
     inkscape:current-layer="svg33" />
  <g
     id="surface1"
     transform="scale(0.75)">
    <path
       style="fill:#e66e00;fill-opacity:1;fill-rule:nonzero;stroke:none"
       d="M 21.34375,0 C 18.59375,0 16,2.710938 16,5.578125 V 122.42188 C 16,125.13281 18.75,128 21.34375,128 h 85.3125 C 109.25,128 112,125.13281 112,122.42188 V 36 L 76,0 Z m 0,0"
       id="path2"
       inkscape:connector-curvature="0" />
    <path
       style="fill:#000000;fill-opacity:0.19607801;fill-rule:nonzero;stroke:none"
       d="m 84,36 28,28 V 36 Z m 0,0"
       id="path4"
       inkscape:connector-curvature="0" />
    <path
       style="fill:#ffffff;fill-opacity:0.39215698;fill-rule:nonzero;stroke:none"
       d="m 76,0 35.96875,36 H 81.515625 C 78.820312,36 76,33.148438 76,30.453125 Z m 0,0"
       id="path6"
       inkscape:connector-curvature="0" />
    <path
       style="fill:#ffffff;fill-opacity:1;fill-rule:evenodd;stroke:none"
       d="m 57.359375,77.125 c 0,0 -1.9375,1.0625 1.375,1.421875 4.015625,0.4375 6.0625,0.375 10.484375,-0.421875 0,0 1.15625,0.6875 2.78125,1.296875 C 62.09375,83.4375 49.578125,79.1875 57.359375,77.125"
       id="path8"
       inkscape:connector-curvature="0" />
    <path
       style="fill:#ffffff;fill-opacity:1;fill-rule:evenodd;stroke:none"
       d="m 56.140625,71.859375 c 0,0 -2.171875,1.53125 1.140625,1.859375 4.296875,0.421875 7.671875,0.453125 13.53125,-0.625 0,0 0.8125,0.78125 2.078125,1.203125 -11.96875,3.328125 -25.328125,0.265625 -16.75,-2.4375"
       id="path10"
       inkscape:connector-curvature="0" />
    <path
       style="fill:#ffffff;fill-opacity:1;fill-rule:evenodd;stroke:none"
       d="m 66.359375,62.953125 c 2.4375,2.65625 -0.65625,5.0625 -0.65625,5.0625 0,0 6.203125,-3.03125 3.359375,-6.828125 -2.65625,-3.546875 -4.703125,-5.3125 6.34375,-11.390625 0,0 -17.328125,4.109375 -9.046875,13.15625"
       id="path12"
       inkscape:connector-curvature="0" />
    <path
       style="fill:#ffffff;fill-opacity:1;fill-rule:evenodd;stroke:none"
       d="m 79.453125,81.015625 c 0,0 1.4375,1.109375 -1.578125,1.96875 -5.71875,1.65625 -23.796875,2.140625 -28.828125,0.07813 -1.796875,-0.75 1.578125,-1.78125 2.65625,-2 C 52.8125,80.828125 53.4375,80.875 53.4375,80.875 c -2,-1.34375 -12.984375,2.640625 -5.5625,3.78125 C 68.078125,87.75 84.703125,83.25 79.453125,81.015625"
       id="path14"
       inkscape:connector-curvature="0" />
    <path
       style="fill:#ffffff;fill-opacity:1;fill-rule:evenodd;stroke:none"
       d="m 58.28125,66.421875 c 0,0 -9.203125,2.078125 -3.25,2.828125 2.5,0.3125 7.5,0.234375 12.171875,-0.125 3.796875,-0.3125 7.625,-0.953125 7.625,-0.953125 0,0 -1.34375,0.546875 -2.3125,1.171875 -9.34375,2.328125 -27.390625,1.25 -22.203125,-1.140625 4.40625,-2.015625 7.96875,-1.78125 7.96875,-1.78125"
       id="path16"
       inkscape:connector-curvature="0" />
    <path
       style="fill:#ffffff;fill-opacity:1;fill-rule:evenodd;stroke:none"
       d="m 74.78125,75.171875 c 9.5,-4.6875 5.109375,-9.1875 2.046875,-8.578125 C 76.078125,66.75 75.75,66.875 75.75,66.875 c 0,0 0.265625,-0.421875 0.8125,-0.59375 6.0625,-2.015625 10.71875,5.96875 -1.96875,9.125 0,0 0.15625,-0.125 0.1875,-0.234375"
       id="path18"
       inkscape:connector-curvature="0" />
    <path
       style="fill:#ffffff;fill-opacity:1;fill-rule:evenodd;stroke:none"
       d="m 69.0625,40 c 0,0 5.265625,4.984375 -4.984375,12.65625 -8.21875,6.15625 -1.875,9.671875 0,13.671875 C 59.28125,62.234375 55.75,58.609375 58.109375,55.25 61.578125,50.3125 71.1875,47.921875 69.0625,40"
       id="path20"
       inkscape:connector-curvature="0" />
    <path
       style="fill:#ffffff;fill-opacity:1;fill-rule:evenodd;stroke:none"
       d="m 59.21875,87.84375 c 9.109375,0.5625 23.109375,-0.296875 23.453125,-4.390625 0,0 -0.640625,1.546875 -7.546875,2.78125 -7.78125,1.390625 -17.375,1.21875 -23.0625,0.34375 0,-0.01563 1.171875,0.90625 7.15625,1.265625"
       id="path22"
       inkscape:connector-curvature="0" />
    <path
       style="fill:#000000;fill-opacity:0.19607801;fill-rule:nonzero;stroke:none"
       d="m 16,96 v 26.67188 C 16,125.26563 18.75,128 21.328125,128 H 106.67188 C 109.25,128 112,125.26563 112,122.67188 V 96 Z m 0,0"
       id="path24"
       inkscape:connector-curvature="0" />
    <path
       style="fill:#ffffff;fill-opacity:1;fill-rule:nonzero;stroke:none"
       d="m 51.796875,116.44531 c 0,1.08594 -0.15625,2.125 -0.476563,3.09375 -0.296874,0.95313 -0.804687,1.80469 -1.539062,2.53907 -0.679688,0.72656 -1.59375,1.30468 -2.71875,1.75 -1.125,0.40625 -2.484375,0.61718 -4.101562,0.61718 -1.6875,0 -3.078126,-0.1875 -4.203126,-0.58593 -1.125,-0.39063 -2.078124,-0.86719 -2.859374,-1.42969 L 37.789062,118.875 C 38.46875,119.26563 39.203125,119.64063 40,120 c 0.835938,0.375 1.664062,0.54688 2.539062,0.54688 1.273438,0 2.3125,-0.28907 3.078126,-0.90625 0.796874,-0.625 1.203124,-1.78125 1.203124,-3.45313 v -11.00781 h -8.304687 v -3.71094 h 13.28125 v 14.97656"
       id="path26"
       inkscape:connector-curvature="0" />
    <path
       style="fill:#ffffff;fill-opacity:1;fill-rule:nonzero;stroke:none"
       d="m 68.710938,123.96875 -1.179688,-5.19531 h -6.617188 l -1.125,5.19531 h -5.140624 c 1.179687,-4.42969 2.367187,-8.47656 3.578124,-12.10156 1.210938,-3.66406 2.367188,-7.13281 3.484376,-10.39844 h 5.382812 c 1.171875,3.28125 2.34375,6.78906 3.484375,10.5 1.195313,3.69531 2.3125,7.6875 3.421875,12 H 68.710938 M 64.28125,105.82813 c -0.273438,0.84375 -0.523438,1.66406 -0.765625,2.42968 -0.203125,0.75 -0.421875,1.5 -0.640625,2.26563 -0.1875,0.71094 -0.375,1.46094 -0.5625,2.21094 -0.15625,0.75 -0.3125,1.53125 -0.476562,2.32812 h 4.867187 c -0.171875,-0.79687 -0.328125,-1.57812 -0.5,-2.32812 -0.148437,-0.75 -0.335937,-1.5 -0.554687,-2.21094 -0.1875,-0.76563 -0.398438,-1.51563 -0.632813,-2.26563 -0.21875,-0.76562 -0.460937,-1.58593 -0.734375,-2.42968"
       id="path28"
       inkscape:connector-curvature="0" />
    <path
       style="fill:#ffffff;fill-opacity:1;fill-rule:nonzero;stroke:none"
       d="m 82.953125,101.21094 c 1.414063,0 2.703125,0.14062 3.84375,0.42969 1.15625,0.28906 2.148437,0.75 2.976563,1.34375 0.835937,0.60937 1.46875,1.39062 1.890624,2.32812 0.460938,0.92188 0.679688,2.00781 0.679688,3.26563 0,1.3125 -0.289062,2.50781 -0.882812,3.57812 -0.59375,1.05469 -1.5625,1.86719 -2.929688,2.42969 0.460938,0.63281 0.9375,1.32812 1.445312,2.10937 0.515626,0.75 1.007813,1.55469 1.484376,2.40625 0.476562,0.8125 0.9375,1.64844 1.359374,2.5 0.460938,0.82813 0.851563,1.61719 1.171876,2.36719 h -5.1875 c -0.609376,-1.45312 -1.328126,-2.84375 -2.164063,-4.1875 -0.796875,-1.34375 -1.664063,-2.72656 -2.601563,-4.10156 H 81.46875 v 8.28906 h -4.929688 v -22.17969 c 0.476563,-0.10156 0.984376,-0.1875 1.5625,-0.25 0.578126,-0.10156 1.171876,-0.15625 1.75,-0.1875 0.601563,-0.0547 1.15625,-0.0859 1.6875,-0.10156 0.546876,-0.0391 1.007813,-0.0391 1.414063,-0.0391 m 4.375,7.33594 c 0,-1.1875 -0.414063,-2.05469 -1.210937,-2.61719 -0.796876,-0.54688 -1.851563,-0.83594 -3.164063,-0.83594 -0.1875,0 -0.40625,0.0156 -0.679687,0.0312 -0.273438,0 -0.546876,0.0391 -0.804688,0.0859 v 6.75781 h 1.078125 c 1.679687,0 2.90625,-0.28906 3.65625,-0.86719 0.75,-0.61718 1.125,-1.46875 1.125,-2.55468"
       id="path30"
       inkscape:connector-curvature="0" />
  </g>
</svg>
