<?xml version="1.0" encoding="UTF-8" standalone="no"?>
<svg
   xmlns:dc="http://purl.org/dc/elements/1.1/"
   xmlns:cc="http://creativecommons.org/ns#"
   xmlns:rdf="http://www.w3.org/1999/02/22-rdf-syntax-ns#"
   xmlns:svg="http://www.w3.org/2000/svg"
   xmlns="http://www.w3.org/2000/svg"
   xmlns:sodipodi="http://sodipodi.sourceforge.net/DTD/sodipodi-0.dtd"
   xmlns:inkscape="http://www.inkscape.org/namespaces/inkscape"
   width="96"
   height="96"
   viewBox="0 0 96 96"
   version="1.1"
   id="svg2"
   inkscape:version="0.92.2 (5c3e80d, 2017-08-06)"
   sodipodi:docname="application-image-gif.svg">
  <metadata
     id="metadata25">
    <rdf:RDF>
      <cc:Work
         rdf:about="">
        <dc:format>image/svg+xml</dc:format>
        <dc:type
           rdf:resource="http://purl.org/dc/dcmitype/StillImage" />
        <dc:title></dc:title>
      </cc:Work>
    </rdf:RDF>
  </metadata>
  <defs
     id="defs23" />
  <sodipodi:namedview
     pagecolor="#ffffff"
     bordercolor="#666666"
     borderopacity="1"
     objecttolerance="10"
     gridtolerance="10"
     guidetolerance="10"
     inkscape:pageopacity="0"
     inkscape:pageshadow="2"
     inkscape:window-width="2136"
     inkscape:window-height="1151"
     id="namedview21"
     showgrid="false"
     inkscape:zoom="1.84375"
     inkscape:cx="-55.59322"
     inkscape:cy="64"
     inkscape:window-x="102"
     inkscape:window-y="55"
     inkscape:window-maximized="0"
     inkscape:current-layer="surface1" />
  <g
     id="surface1"
     transform="translate(0,-32)">
    <path
       style="fill:#075e65;fill-opacity:1;fill-rule:nonzero;stroke:none;stroke-width:0.75"
       d="M 16.007812,32 C 13.945313,32 12,34.033203 12,36.183594 V 123.81641 C 12,125.84961 14.0625,128 16.007812,128 H 79.992187 C 81.9375,128 84,125.84961 84,123.81641 V 59 L 57,32 Z m 0,0"
       id="path5"
       inkscape:connector-curvature="0" />
    <path
       style="fill:#000000;fill-opacity:0.19607801;fill-rule:nonzero;stroke:none;stroke-width:0.75"
       d="M 63,59 84,80 V 59 Z m 0,0"
       id="path7"
       inkscape:connector-curvature="0" />
    <path
       style="fill:#ffffff;fill-opacity:0.39215698;fill-rule:nonzero;stroke:none;stroke-width:0.75"
       d="M 57,32 83.976562,59 H 61.136719 C 59.115234,59 57,56.861328 57,54.839844 Z m 0,0"
       id="path9"
       inkscape:connector-curvature="0" />
    <path
       style="fill:#ffffff;fill-opacity:1;fill-rule:nonzero;stroke:none;stroke-width:0.75"
       d="M 34.933594,65 C 33.878906,65.099609 32.976562,66.21875 33,67.408203 V 92.650391 C 33.01172,93.892578 34.001953,95.011719 35.109375,95 H 60.943359 C 62.033203,94.976562 62.988281,93.880859 63,92.650391 V 67.408203 C 63.023437,66.154296 62.056641,65.011719 60.943359,65 Z M 36,68 h 24 v 17.103516 l -7.054688,-7.97461 -1.769531,1.699219 -2.701172,2.460937 L 46.822266,79.642578 42.580078,73.90625 36,82.396484 Z m 0,0"
       id="path11"
       inkscape:connector-curvature="0" />
    <path
       style="fill:#000000;fill-opacity:0.19607801;fill-rule:nonzero;stroke:none;stroke-width:0.75"
       d="m 12,104 v 20.00391 C 12,125.94922 14.0625,128 15.996094,128 H 80.00391 C 81.9375,128 84,125.94922 84,124.00391 V 104 Z m 0,0"
       id="path13"
       inkscape:connector-curvature="0" />
    <path
       style="fill:#ffffff;fill-opacity:1;fill-rule:nonzero;stroke:none;stroke-width:0.75"
       d="m 35.537109,111.35938 c -0.867188,0 -1.59375,0.13476 -2.197265,0.41016 -0.585938,0.28125 -1.078125,0.67382 -1.470703,1.16601 -0.38086,0.48633 -0.650391,1.07812 -0.837891,1.76367 -0.158204,0.67383 -0.228516,1.42383 -0.228516,2.26172 0,1.91016 0.339844,3.33985 1.03125,4.25976 0.697266,0.89649 1.705078,1.34766 3.052735,1.34766 0.210937,0 0.457031,-0.0117 0.714843,-0.0352 0.257813,-0.0117 0.492188,-0.041 0.708984,-0.0762 v -5.86524 h 3.632813 v 8.02735 c -0.427734,0.13477 -1.113281,0.29296 -2.033203,0.46875 -0.908203,0.16992 -2.015625,0.25781 -3.316406,0.25781 -1.154297,0 -2.185547,-0.17578 -3.117188,-0.5332 -0.908203,-0.35156 -1.681641,-0.8789 -2.332031,-1.57031 -0.65039,-0.70899 -1.154297,-1.58203 -1.511719,-2.625 -0.357421,-1.05469 -0.539062,-2.27344 -0.539062,-3.65625 0,-1.36524 0.210937,-2.56641 0.626953,-3.60938 0.416016,-1.05469 0.978516,-1.93945 1.681641,-2.64258 0.708984,-0.70898 1.558593,-1.23632 2.52539,-1.58203 0.960937,-0.36914 2.003907,-0.55078 3.105469,-0.55078 0.714843,0 1.341797,0.0586 1.892578,0.1582 0.574219,0.0879 1.066406,0.19923 1.488281,0.30469 0.416016,0.12305 0.744141,0.25781 1.001954,0.39844 0.26953,0.13476 0.480468,0.24023 0.615234,0.31641 l -0.943359,2.54296 c -0.433595,-0.24609 -0.960938,-0.46875 -1.59961,-0.65039 -0.621094,-0.19921 -1.271485,-0.28711 -1.951172,-0.28711"
       id="path15"
       inkscape:connector-curvature="0" />
    <path
       style="fill:#ffffff;fill-opacity:1;fill-rule:nonzero;stroke:none;stroke-width:0.75"
       d="m 42.708984,125 v -2.64258 h 3.990235 v -10.76367 h -3.990235 v -2.64844 h 11.636719 v 2.64844 h -3.978516 v 10.76367 h 3.978516 V 125 H 42.708984"
       id="path17"
       inkscape:connector-curvature="0" />
    <path
       style="fill:#ffffff;fill-opacity:1;fill-rule:nonzero;stroke:none;stroke-width:0.75"
       d="M 57.767578,125 V 108.94531 H 69 v 2.64844 h -7.587891 v 3.89063 h 6.632812 v 2.64257 H 61.412109 V 125 h -3.644531"
       id="path19"
       inkscape:connector-curvature="0" />
  </g>
</svg>
