<?xml version="1.0" encoding="UTF-8" standalone="no"?>
<svg
   xmlns:dc="http://purl.org/dc/elements/1.1/"
   xmlns:cc="http://creativecommons.org/ns#"
   xmlns:rdf="http://www.w3.org/1999/02/22-rdf-syntax-ns#"
   xmlns:svg="http://www.w3.org/2000/svg"
   xmlns="http://www.w3.org/2000/svg"
   xmlns:sodipodi="http://sodipodi.sourceforge.net/DTD/sodipodi-0.dtd"
   xmlns:inkscape="http://www.inkscape.org/namespaces/inkscape"
   width="96"
   height="96"
   viewBox="0 0 96 96"
   version="1.1"
   id="svg25"
   sodipodi:docname="application-vnd.oasis.opendocument.master-document.svg"
   inkscape:version="0.92.2 (5c3e80d, 2017-08-06)">
  <metadata
     id="metadata31">
    <rdf:RDF>
      <cc:Work
         rdf:about="">
        <dc:format>image/svg+xml</dc:format>
        <dc:type
           rdf:resource="http://purl.org/dc/dcmitype/StillImage" />
        <dc:title></dc:title>
      </cc:Work>
    </rdf:RDF>
  </metadata>
  <defs
     id="defs29" />
  <sodipodi:namedview
     pagecolor="#ffffff"
     bordercolor="#666666"
     borderopacity="1"
     objecttolerance="10"
     gridtolerance="10"
     guidetolerance="10"
     inkscape:pageopacity="0"
     inkscape:pageshadow="2"
     inkscape:window-width="2486"
     inkscape:window-height="1452"
     id="namedview27"
     showgrid="false"
     inkscape:zoom="1.84375"
     inkscape:cx="-55.59322"
     inkscape:cy="64"
     inkscape:window-x="102"
     inkscape:window-y="55"
     inkscape:window-maximized="0"
     inkscape:current-layer="svg25" />
  <g
     id="surface1"
     transform="scale(0.75)">
    <path
       style="fill:#35669e;fill-opacity:1;fill-rule:nonzero;stroke:none"
       d="M 21.34375,0 C 18.59375,0 16,2.710938 16,5.578125 V 122.42188 C 16,125.13281 18.75,128 21.34375,128 h 85.3125 C 109.25,128 112,125.13281 112,122.42188 V 36 L 76,0 Z m 0,0"
       id="path2"
       inkscape:connector-curvature="0" />
    <path
       style="fill:#000000;fill-opacity:0.19607801;fill-rule:nonzero;stroke:none"
       d="m 84,36 28,28 V 36 Z m 0,0"
       id="path4"
       inkscape:connector-curvature="0" />
    <path
       style="fill:#ffffff;fill-opacity:0.39215698;fill-rule:nonzero;stroke:none"
       d="m 76,0 35.96875,36 H 81.515625 C 78.820312,36 76,33.148438 76,30.453125 Z m 0,0"
       id="path6"
       inkscape:connector-curvature="0" />
    <path
       style="fill:#ffffff;fill-opacity:1;fill-rule:nonzero;stroke:none"
       d="M 43.992188,43.992188 44,60 h 4 V 48 h 12 v -4 z m 0,0"
       id="path8"
       inkscape:connector-curvature="0" />
    <path
       style="fill:#ffffff;fill-opacity:1;fill-rule:nonzero;stroke:none"
       d="M 84.007812,43.992188 84,60 H 80 V 48 H 68 v -4 z m 0,0"
       id="path10"
       inkscape:connector-curvature="0" />
    <path
       style="fill:#000000;fill-opacity:0.19607801;fill-rule:nonzero;stroke:none"
       d="m 16,96 v 26.67188 C 16,125.26563 18.75,128 21.328125,128 H 106.67188 C 109.25,128 112,125.26563 112,122.67188 V 96 Z m 0,0"
       id="path12"
       inkscape:connector-curvature="0" />
    <path
       style="fill:#ffffff;fill-opacity:1;fill-rule:nonzero;stroke:none"
       d="m 40.195312,113.00781 c 0,1.07032 0.03125,2.07813 0.117188,3.01563 0.101562,0.92187 0.28125,1.72656 0.554688,2.41406 0.28125,0.6875 0.671874,1.22656 1.171874,1.625 0.5,0.39844 1.171876,0.60156 2.007813,0.60156 0.820313,0 1.476563,-0.20312 1.976563,-0.60156 0.523437,-0.39844 0.921874,-0.9375 1.195312,-1.625 0.28125,-0.71875 0.46875,-1.52344 0.546875,-2.44531 0.101563,-0.92188 0.15625,-1.91406 0.15625,-2.98438 0,-1.05468 -0.05469,-2.04687 -0.15625,-2.96875 -0.07813,-0.95312 -0.265625,-1.75781 -0.546875,-2.44531 -0.273438,-0.6875 -0.65625,-1.21875 -1.15625,-1.625 -0.492188,-0.39844 -1.171875,-0.60156 -2.015625,-0.60156 -0.835937,0 -1.507813,0.20312 -2.007813,0.60156 -0.5,0.40625 -0.890624,0.95313 -1.171874,1.66406 -0.273438,0.67969 -0.453126,1.48438 -0.554688,2.40625 -0.08594,0.92188 -0.117188,1.91407 -0.117188,2.96875 m -4.945312,0 c 0,-3.77343 0.789062,-6.61718 2.328125,-8.53125 1.5625,-1.9375 3.703125,-2.89843 6.46875,-2.89843 2.867187,0 5.0625,0.96093 6.554687,2.89843 1.492188,1.91407 2.242188,4.75782 2.242188,8.53125 0,3.78907 -0.75,6.63282 -2.273438,8.57813 -1.53125,1.91406 -3.6875,2.86719 -6.46875,2.86719 -2.867187,0 -5.0625,-0.95313 -6.585937,-2.86719 C 36.007812,119.64063 35.25,116.79688 35.25,113.00781"
       id="path14"
       inkscape:connector-curvature="0" />
    <path
       style="fill:#ffffff;fill-opacity:1;fill-rule:nonzero;stroke:none"
       d="m 60.890625,120.44531 c 0.132813,0.0391 0.28125,0.0391 0.4375,0.0391 0.164063,0 0.296875,0 0.429687,0 1.109376,0 2.03125,-0.1875 2.765626,-0.57032 0.773437,-0.375 1.375,-0.89062 1.8125,-1.5625 0.484374,-0.64843 0.804687,-1.42187 0.984374,-2.32812 0.21875,-0.92188 0.320313,-1.92969 0.320313,-3.01563 0,-0.9375 -0.08594,-1.85937 -0.234375,-2.76562 -0.164062,-0.89063 -0.4375,-1.67188 -0.835938,-2.35938 -0.382812,-0.6875 -0.921874,-1.22656 -1.609374,-1.625 -0.6875,-0.4375 -1.5625,-0.64062 -2.648438,-0.64062 -0.203125,0 -0.453125,0 -0.703125,0.0312 -0.265625,0 -0.5,0.0234 -0.71875,0.0703 v 14.72656 m 11.679687,-7.4375 c 0,2.04688 -0.289062,3.77344 -0.875,5.21094 -0.554687,1.42188 -1.320312,2.57813 -2.3125,3.46875 -1.007812,0.90625 -2.195312,1.55469 -3.601562,1.97656 -1.359375,0.40625 -2.882812,0.60157 -4.523438,0.60157 -0.875,0 -1.726562,-0.0312 -2.5625,-0.13282 -0.820312,-0.0625 -1.710937,-0.20312 -2.648437,-0.38281 v -21.39844 c 1.101563,-0.21875 2.140625,-0.35156 3.117187,-0.42187 0.96875,-0.0625 1.875,-0.11719 2.710938,-0.11719 1.609375,0 3.070312,0.21875 4.390625,0.65625 1.34375,0.42188 2.46875,1.08594 3.382813,2.00781 0.921874,0.90625 1.632812,2.0625 2.132812,3.46875 0.53125,1.39063 0.789062,3.08594 0.789062,5.0625"
       id="path16"
       inkscape:connector-curvature="0" />
    <path
       style="fill:#ffffff;fill-opacity:1;fill-rule:nonzero;stroke:none"
       d="m 79.992188,102.0625 c 0.179687,0.50781 0.398437,1.14063 0.671874,1.91406 0.28125,0.78907 0.585938,1.625 0.898438,2.51563 0.320312,0.90625 0.640625,1.80469 0.945312,2.72656 0.3125,0.92188 0.617188,1.78125 0.914063,2.54688 0.304687,-0.86719 0.640625,-1.75782 0.976563,-2.67969 0.351562,-0.95313 0.671874,-1.84375 0.984374,-2.69531 0.320313,-0.875 0.609376,-1.69532 0.875,-2.44532 0.265626,-0.75781 0.5,-1.375 0.703126,-1.88281 H 91 c 0.1875,1.91406 0.351562,3.78906 0.5,5.60156 0.1875,1.82813 0.335938,3.61719 0.4375,5.42969 0.132812,1.75781 0.234375,3.54688 0.320312,5.375 0.07813,1.79688 0.148438,3.64063 0.203126,5.53125 H 88 l 0.234375,-17.03906 -3,9.28125 h -3.554687 l -2.875,-9.28125 L 79,124 h -4.453125 c 0.07813,-1.8125 0.148437,-3.67187 0.234375,-5.59375 0.101562,-1.94531 0.21875,-3.875 0.320312,-5.78125 0.09375,-1.91406 0.210938,-3.77344 0.351563,-5.5625 0.148437,-1.79687 0.328125,-3.45312 0.515625,-5 h 4.023438"
       id="path18"
       inkscape:connector-curvature="0" />
    <path
       style="fill:#ffffff;fill-opacity:1;fill-rule:nonzero;stroke:none"
       d="M 84.007812,84.007812 84,68 H 80 V 80 H 68 v 4 z m 0,0"
       id="path20"
       inkscape:connector-curvature="0" />
    <path
       style="fill:#ffffff;fill-opacity:1;fill-rule:nonzero;stroke:none"
       d="M 43.992188,84.007812 44,68 h 4 v 12 h 12 v 4 z m 0,0"
       id="path22"
       inkscape:connector-curvature="0" />
  </g>
</svg>
