<?xml version="1.0" encoding="UTF-8" standalone="no"?>
<svg
   xmlns:dc="http://purl.org/dc/elements/1.1/"
   xmlns:cc="http://creativecommons.org/ns#"
   xmlns:rdf="http://www.w3.org/1999/02/22-rdf-syntax-ns#"
   xmlns:svg="http://www.w3.org/2000/svg"
   xmlns="http://www.w3.org/2000/svg"
   xmlns:sodipodi="http://sodipodi.sourceforge.net/DTD/sodipodi-0.dtd"
   xmlns:inkscape="http://www.inkscape.org/namespaces/inkscape"
   width="96"
   height="96"
   viewBox="0 0 96 96"
   version="1.1"
   id="svg21"
   sodipodi:docname="application-vnd.oasis.opendocument.chart-template.svg"
   inkscape:version="0.92.2 (5c3e80d, 2017-08-06)">
  <metadata
     id="metadata27">
    <rdf:RDF>
      <cc:Work
         rdf:about="">
        <dc:format>image/svg+xml</dc:format>
        <dc:type
           rdf:resource="http://purl.org/dc/dcmitype/StillImage" />
        <dc:title></dc:title>
      </cc:Work>
    </rdf:RDF>
  </metadata>
  <defs
     id="defs25" />
  <sodipodi:namedview
     pagecolor="#ffffff"
     bordercolor="#666666"
     borderopacity="1"
     objecttolerance="10"
     gridtolerance="10"
     guidetolerance="10"
     inkscape:pageopacity="0"
     inkscape:pageshadow="2"
     inkscape:window-width="2321"
     inkscape:window-height="1346"
     id="namedview23"
     showgrid="false"
     inkscape:zoom="1.84375"
     inkscape:cx="-55.59322"
     inkscape:cy="64"
     inkscape:window-x="102"
     inkscape:window-y="55"
     inkscape:window-maximized="0"
     inkscape:current-layer="svg21" />
  <g
     id="surface1"
     transform="scale(0.75)">
    <path
       style="fill:#b8c200;fill-opacity:1;fill-rule:nonzero;stroke:none"
       d="M 21.375,0 C 18.625,0 16,2.757812 16,5.625 v 116.75 c 0,2.70313 2.78125,5.625 5.375,5.625 h 85.25 c 2.59375,0 5.375,-2.92187 5.375,-5.625 V 5.5 C 112,2.804688 109.19531,0 106.5,0 Z m 0,0"
       id="path2"
       inkscape:connector-curvature="0" />
    <path
       style="fill:#000000;fill-opacity:0.19607801;fill-rule:nonzero;stroke:none"
       d="m 16,96 v 26.67188 C 16,125.26563 18.75,128 21.328125,128 H 106.67188 C 109.25,128 112,125.26563 112,122.67188 V 96 Z m 0,0"
       id="path4"
       inkscape:connector-curvature="0" />
    <path
       style="fill:#ffffff;fill-opacity:1;fill-rule:nonzero;stroke:none"
       d="M 68,84 V 52 h 8 v 32 z m 0,0"
       id="path6"
       inkscape:connector-curvature="0" />
    <path
       style="fill:#ffffff;fill-opacity:1;fill-rule:nonzero;stroke:none"
       d="M 56,84 V 40 h 8 v 44 z m 0,0"
       id="path8"
       inkscape:connector-curvature="0" />
    <path
       style="fill:#ffffff;fill-opacity:1;fill-rule:nonzero;stroke:none"
       d="M 44,84 V 60 h 8 v 24 z m 0,0"
       id="path10"
       inkscape:connector-curvature="0" />
    <path
       style="fill:#ffffff;fill-opacity:1;fill-rule:nonzero;stroke:none"
       d="M 80,84 V 72 h 8 v 12 z m 0,0"
       id="path12"
       inkscape:connector-curvature="0" />
    <path
       style="fill:#ffffff;fill-opacity:1;fill-rule:nonzero;stroke:none"
       d="m 40.65625,112.5625 c 0,1.07031 0.05469,2.07813 0.117188,3.01563 0.117187,0.92187 0.304687,1.72656 0.554687,2.41406 0.304687,0.67969 0.6875,1.21875 1.1875,1.61719 0.507813,0.40625 1.195313,0.60937 2.03125,0.60937 0.820313,0 1.484375,-0.20312 1.992187,-0.60937 0.515626,-0.39844 0.921876,-0.9375 1.1875,-1.61719 0.28125,-0.72656 0.46875,-1.53125 0.554688,-2.44531 0.101562,-0.92188 0.148438,-1.91407 0.148438,-2.98438 0,-1.05469 -0.04688,-2.03906 -0.148438,-2.96094 -0.08594,-0.95312 -0.273438,-1.75781 -0.554688,-2.44531 -0.265624,-0.6875 -0.65625,-1.22656 -1.15625,-1.625 -0.5,-0.40625 -1.171874,-0.60156 -2.023437,-0.60156 -0.835937,0 -1.523437,0.19531 -2.03125,0.60156 -0.5,0.39844 -0.882813,0.95313 -1.1875,1.65625 -0.25,0.6875 -0.4375,1.49219 -0.554687,2.41406 -0.0625,0.92188 -0.117188,1.90625 -0.117188,2.96094 m -4.953125,0 c 0,-3.76562 0.789063,-6.61719 2.34375,-8.52344 1.554687,-1.94531 3.734375,-2.89843 6.5,-2.89843 2.875,0 5.070313,0.95312 6.578125,2.89843 1.507812,1.90625 2.257812,4.75782 2.257812,8.52344 0,3.78125 -0.765624,6.63281 -2.289062,8.57031 -1.539062,1.91407 -3.703125,2.86719 -6.5,2.86719 -2.882812,0 -5.085938,-0.95312 -6.632812,-2.86719 -1.507813,-1.9375 -2.257813,-4.78906 -2.257813,-8.57031"
       id="path14"
       inkscape:connector-curvature="0" />
    <path
       style="fill:#ffffff;fill-opacity:1;fill-rule:nonzero;stroke:none"
       d="m 73.28125,101.625 v 3.61719 h -6.445312 v 18.30469 H 61.90625 V 105.24219 H 55.445312 V 101.625 H 73.28125"
       id="path16"
       inkscape:connector-curvature="0" />
    <path
       style="fill:#ffffff;fill-opacity:1;fill-rule:nonzero;stroke:none"
       d="m 86.007812,124 c -3.46875,0 -6.101562,-0.98437 -7.921874,-2.98437 -1.828126,-1.96875 -2.75,-4.78907 -2.75,-8.45313 0,-1.80469 0.289062,-3.42969 0.84375,-4.83594 0.546874,-1.42968 1.320312,-2.61718 2.289062,-3.58593 1.007812,-0.98438 2.195312,-1.72657 3.53125,-2.22657 1.375,-0.52343 2.867188,-0.77343 4.492188,-0.77343 0.867187,0 1.640624,0.0703 2.328124,0.20312 0.71875,0.11719 1.335938,0.26563 1.859376,0.4375 0.53125,0.16406 0.96875,0.33594 1.320312,0.51563 0.367188,0.20312 0.632812,0.33593 0.820312,0.4375 l -1.257812,3.46875 c -0.617188,-0.35157 -1.351562,-0.65625 -2.226562,-0.89063 -0.835938,-0.25 -1.820313,-0.38281 -2.929688,-0.38281 -0.765625,0 -1.523438,0.13281 -2.257812,0.38281 -0.71875,0.23438 -1.359376,0.65625 -1.945313,1.24219 -0.554687,0.5625 -1.023437,1.33594 -1.390625,2.28906 -0.335938,0.97656 -0.515625,2.17969 -0.515625,3.61719 0,2.5 0.484375,4.42187 1.4375,5.76562 0.96875,1.32032 2.5625,1.99219 4.757813,1.99219 1.257812,0 2.3125,-0.14062 3.132812,-0.39062 0.835938,-0.26563 1.507812,-0.51563 2.007812,-0.78125 l 1.234376,3.42968 C 92.1875,122.85938 91.25,123.21094 90.054688,123.54688 88.882812,123.85156 87.546875,124 86.007812,124"
       id="path18"
       inkscape:connector-curvature="0" />
  </g>
</svg>
