<?xml version="1.0" encoding="UTF-8" standalone="no"?>
<svg
   xmlns:dc="http://purl.org/dc/elements/1.1/"
   xmlns:cc="http://creativecommons.org/ns#"
   xmlns:rdf="http://www.w3.org/1999/02/22-rdf-syntax-ns#"
   xmlns:svg="http://www.w3.org/2000/svg"
   xmlns="http://www.w3.org/2000/svg"
   xmlns:sodipodi="http://sodipodi.sourceforge.net/DTD/sodipodi-0.dtd"
   xmlns:inkscape="http://www.inkscape.org/namespaces/inkscape"
   width="96"
   height="96"
   viewBox="0 0 96 96"
   version="1.1"
   id="svg15"
   sodipodi:docname="application-postscript.svg"
   inkscape:version="0.92.2 (5c3e80d, 2017-08-06)">
  <metadata
     id="metadata21">
    <rdf:RDF>
      <cc:Work
         rdf:about="">
        <dc:format>image/svg+xml</dc:format>
        <dc:type
           rdf:resource="http://purl.org/dc/dcmitype/StillImage" />
        <dc:title></dc:title>
      </cc:Work>
    </rdf:RDF>
  </metadata>
  <defs
     id="defs19" />
  <sodipodi:namedview
     pagecolor="#ffffff"
     bordercolor="#666666"
     borderopacity="1"
     objecttolerance="10"
     gridtolerance="10"
     guidetolerance="10"
     inkscape:pageopacity="0"
     inkscape:pageshadow="2"
     inkscape:window-width="2139"
     inkscape:window-height="1306"
     id="namedview17"
     showgrid="false"
     inkscape:zoom="1.84375"
     inkscape:cx="-55.59322"
     inkscape:cy="64"
     inkscape:window-x="102"
     inkscape:window-y="55"
     inkscape:window-maximized="0"
     inkscape:current-layer="svg15" />
  <g
     id="surface1"
     transform="scale(0.75)">
    <path
       style="fill:#eb1921;fill-opacity:1;fill-rule:nonzero;stroke:none"
       d="M 21.34375,0 C 18.59375,0 16,2.710938 16,5.578125 V 122.42188 C 16,125.13281 18.75,128 21.34375,128 h 85.3125 C 109.25,128 112,125.13281 112,122.42188 V 36 L 76,0 Z m 0,0"
       id="path2"
       inkscape:connector-curvature="0" />
    <path
       style="fill:#000000;fill-opacity:0.19607801;fill-rule:nonzero;stroke:none"
       d="m 84,36 28,28 V 36 Z m 0,0"
       id="path4"
       inkscape:connector-curvature="0" />
    <path
       style="fill:#ffffff;fill-opacity:0.39215698;fill-rule:nonzero;stroke:none"
       d="m 76,0 35.96875,36 H 81.515625 C 78.820312,36 76,33.148438 76,30.453125 Z m 0,0"
       id="path6"
       inkscape:connector-curvature="0" />
    <path
       style="fill:#ffffff;fill-opacity:1;fill-rule:nonzero;stroke:none"
       d="m 46.265625,67.4375 c 2.0625,0.09375 4.328125,1.40625 6.015625,2.53125 4.9375,3.28125 8.890625,8.734375 8.109375,14.984375 0.734375,-1.1875 0.78125,-2.921875 0.78125,-4.296875 0,-4.390625 -2.359375,-8.90625 -5.34375,-11.96875 C 54.84375,67.65625 53.796875,66.484375 52.5,65.859375 l 14.703125,-17.40625 3.53125,-4.171875 C 71,43.953125 71.90625,43.21875 71.703125,42.734375 71.53125,42.296875 70.6875,42.015625 70.28125,41.828125 69.828125,41.625 69.015625,41.1875 68.5,41.375 68,41.5625 67.5625,42.296875 67.21875,42.703125 l -2.703125,3.15625 -12.71875,14.921875 -3.765625,4.40625 c -0.59375,0.703125 -1.375,1.40625 -1.765625,2.25 z m 0,0"
       id="path8"
       inkscape:connector-curvature="0" />
    <path
       style="fill:#ffffff;fill-opacity:1;fill-rule:nonzero;stroke:none"
       d="m 37.9375,72.53125 c 5.046875,-5.375 9.515625,-11.375 14.359375,-16.953125 L 58.40625,48.34375 c 1.40625,-1.609375 3.078125,-3.25 4.203125,-5.078125 -0.734375,-0.21875 -2.40625,-0.359375 -3.109375,0 -0.75,0.375 -1.375,1.40625 -1.921875,2.03125 L 54.09375,49.25 c -0.5,0.609375 -1.109375,1.546875 -1.8125,1.921875 -1.03125,0.515625 -2.890625,0.3125 -4.015625,0.34375 L 44.15625,51.84375 c -3.0625,0.21875 -6.5625,0.21875 -8.078125,3.515625 -1.21875,2.625 -1.03125,6.390625 -1.15625,9.25 -0.25,6 -0.453125,12.09375 0.109375,18.078125 0.234375,2.578125 -0.04687,5.84375 1.265625,8.140625 1.28125,2.25 3.75,2.734375 6.078125,2.953125 4.515625,0.421875 9.921875,0.296875 13.5625,-2.875 4.328125,-3.765625 3.71875,-10.484375 -0.21875,-14.1875 -4.296875,-4.0625 -12.1875,-6.109375 -17.78125,-4.1875 z m 0,0"
       id="path10"
       inkscape:connector-curvature="0" />
    <path
       style="fill:#ffffff;fill-opacity:1;fill-rule:nonzero;stroke:none"
       d="m 53.15625,94.328125 c 0.828125,0.359375 2.21875,0.234375 3.125,0.234375 l 5.671875,0.109375 c 7.1875,0 14.28125,-0.453125 21.453125,-0.78125 3.40625,-0.15625 7.25,-0.28125 8.65625,-4.078125 0.90625,-2.40625 0.734375,-5.484375 0.90625,-8.015625 0.40625,-5.875 0.5625,-11.890625 0.01563,-17.75 -0.265625,-2.734375 0.0625,-6.15625 -1.125,-8.6875 -1.828125,-3.9375 -7.375,-3.640625 -11.015625,-3.734375 -0.90625,-0.03125 -2.578125,-0.5625 -3.40625,-0.15625 -0.625,0.296875 -1,1.921875 -1.296875,2.53125 l -3.21875,7.109375 c -3.8125,8.421875 -7.375,17.046875 -11.5,25.3125 -1.609375,3.203125 -4.5,7.25 -8.265625,7.90625 z m 0,0"
       id="path12"
       inkscape:connector-curvature="0" />
  </g>
</svg>
