<?xml version="1.0" encoding="UTF-8" standalone="no"?>
<svg
   xmlns:dc="http://purl.org/dc/elements/1.1/"
   xmlns:cc="http://creativecommons.org/ns#"
   xmlns:rdf="http://www.w3.org/1999/02/22-rdf-syntax-ns#"
   xmlns:svg="http://www.w3.org/2000/svg"
   xmlns="http://www.w3.org/2000/svg"
   xmlns:sodipodi="http://sodipodi.sourceforge.net/DTD/sodipodi-0.dtd"
   xmlns:inkscape="http://www.inkscape.org/namespaces/inkscape"
   width="96"
   height="96"
   viewBox="0 0 96 96"
   version="1.1"
   id="svg19"
   sodipodi:docname="application-ascii.svg"
   inkscape:version="0.92.2 (5c3e80d, 2017-08-06)">
  <metadata
     id="metadata25">
    <rdf:RDF>
      <cc:Work
         rdf:about="">
        <dc:format>image/svg+xml</dc:format>
        <dc:type
           rdf:resource="http://purl.org/dc/dcmitype/StillImage" />
        <dc:title></dc:title>
      </cc:Work>
    </rdf:RDF>
  </metadata>
  <defs
     id="defs23" />
  <sodipodi:namedview
     pagecolor="#ffffff"
     bordercolor="#666666"
     borderopacity="1"
     objecttolerance="10"
     gridtolerance="10"
     guidetolerance="10"
     inkscape:pageopacity="0"
     inkscape:pageshadow="2"
     inkscape:window-width="1794"
     inkscape:window-height="1216"
     id="namedview21"
     showgrid="false"
     inkscape:zoom="1.84375"
     inkscape:cx="-54.508475"
     inkscape:cy="62.915254"
     inkscape:window-x="869"
     inkscape:window-y="315"
     inkscape:window-maximized="0"
     inkscape:current-layer="svg19" />
  <g
     id="surface1"
     transform="scale(0.75)">
    <path
       style="fill:#dcdcdc;fill-opacity:1;fill-rule:nonzero;stroke:none"
       d="M 21.34375,0 C 18.59375,0 16,2.710938 16,5.578125 V 122.42188 C 16,125.13281 18.75,128 21.34375,128 h 85.3125 C 109.25,128 112,125.13281 112,122.42188 V 36 L 76,0 Z m 0,0"
       id="path2"
       inkscape:connector-curvature="0" />
    <path
       style="fill:#000000;fill-opacity:0.19607801;fill-rule:nonzero;stroke:none"
       d="m 84,36 28,28 V 36 Z m 0,0"
       id="path4"
       inkscape:connector-curvature="0" />
    <path
       style="fill:#ffffff;fill-opacity:0.39215698;fill-rule:nonzero;stroke:none"
       d="m 76,0 35.96875,36 H 81.515625 C 78.820312,36 76,33.148438 76,30.453125 Z m 0,0"
       id="path6"
       inkscape:connector-curvature="0" />
    <path
       style="fill:#515151;fill-opacity:1;fill-rule:nonzero;stroke:none"
       d="m 36.4375,87.976562 -0.929688,-5.523437 h -5.265624 l -0.882813,5.523437 H 25.28125 c 0.929688,-4.710937 1.867188,-9 2.828125,-12.859374 0.960937,-3.898438 1.882813,-7.570313 2.78125,-11.054688 h 4.257813 c 0.945312,3.5 1.867187,7.21875 2.78125,11.171875 0.929687,3.921875 1.835937,8.164063 2.695312,12.742187 h -4.1875 m -3.515625,-19.28125 c -0.210937,0.898438 -0.40625,1.773438 -0.601563,2.585938 -0.179687,0.796875 -0.34375,1.609375 -0.523437,2.40625 -0.140625,0.765625 -0.289063,1.5625 -0.4375,2.359375 -0.125,0.796875 -0.257813,1.625 -0.375,2.46875 H 34.84375 C 34.710938,77.671875 34.578125,76.84375 34.453125,76.046875 34.320312,75.25 34.171875,74.453125 34.007812,73.6875 33.867188,72.890625 33.6875,72.078125 33.492188,71.28125 c -0.164063,-0.8125 -0.359376,-1.6875 -0.570313,-2.585938"
       id="path8"
       inkscape:connector-curvature="0" />
    <path
       style="fill:#515151;fill-opacity:1;fill-rule:nonzero;stroke:none"
       d="m 48.320312,84.5 c 0.648438,0 1.203126,-0.0625 1.625,-0.226562 0.4375,-0.179688 0.796876,-0.40625 1.039063,-0.695313 0.257813,-0.3125 0.4375,-0.640625 0.523437,-0.992187 0.09375,-0.390626 0.15625,-0.78125 0.15625,-1.171876 0,-0.492187 -0.125,-0.929687 -0.351562,-1.320312 -0.234375,-0.375 -0.539062,-0.710938 -0.898438,-0.992188 -0.359374,-0.304687 -0.765624,-0.585937 -1.203124,-0.8125 C 48.757812,78.03125 48.320312,77.804688 47.859375,77.59375 47.28125,77.328125 46.65625,77.039062 46.023438,76.695312 45.375,76.375 44.804688,75.9375 44.273438,75.429688 43.75,74.90625 43.328125,74.273438 42.984375,73.53125 c -0.320313,-0.765625 -0.5,-1.726562 -0.5,-2.867188 0,-2.242187 0.601563,-3.984374 1.789063,-5.25 1.203124,-1.265624 2.859374,-1.898437 4.96875,-1.898437 1.203124,0 2.265624,0.179687 3.15625,0.5 0.914062,0.34375 1.671874,0.71875 2.289062,1.125 L 53.539062,68.8125 C 53.015625,68.453125 52.414062,68.148438 51.75,67.882812 51.117188,67.625 50.382812,67.492188 49.523438,67.492188 c -2.085938,0 -3.125,0.929687 -3.125,2.75 0,0.476562 0.117187,0.882812 0.328124,1.234374 0.210938,0.34375 0.46875,0.65625 0.796876,0.929688 0.335937,0.257812 0.710937,0.484375 1.101562,0.695312 0.4375,0.210938 0.84375,0.40625 1.25,0.585938 0.625,0.28125 1.257812,0.601562 1.90625,0.960938 0.679688,0.34375 1.296875,0.796874 1.851562,1.398437 0.570313,0.570313 1.039063,1.28125 1.398438,2.164063 0.375,0.84375 0.554688,1.929687 0.554688,3.25 0,2.242187 -0.617188,3.984374 -1.820313,5.21875 -1.1875,1.203124 -3.007813,1.804687 -5.445313,1.804687 -1.640624,0 -2.945312,-0.195313 -3.921874,-0.617187 -0.976563,-0.4375 -1.703126,-0.828126 -2.210938,-1.1875 L 43.34375,82.8125 c 0.570312,0.40625 1.25,0.796875 2.03125,1.148438 C 46.1875,84.320312 47.164062,84.5 48.320312,84.5"
       id="path10"
       inkscape:connector-curvature="0" />
    <path
       style="fill:#515151;fill-opacity:1;fill-rule:nonzero;stroke:none"
       d="M 66.28125,88.484375 C 63.5,88.484375 61.375,87.414062 59.90625,85.25 58.445312,83.085938 57.710938,80 57.710938,76 c 0,-1.984375 0.234374,-3.742188 0.671874,-5.28125 0.453126,-1.546875 1.070313,-2.867188 1.851563,-3.921875 0.8125,-1.070313 1.757813,-1.882813 2.828125,-2.421875 1.109375,-0.570312 2.3125,-0.859375 3.609375,-0.859375 0.703125,0 1.320313,0.07813 1.867187,0.242187 0.585938,0.132813 1.078126,0.273438 1.515626,0.453126 0.421874,0.179687 0.765624,0.375 1.039062,0.585937 0.3125,0.210937 0.523438,0.359375 0.664062,0.453125 L 70.75,69.039062 C 70.265625,68.664062 69.664062,68.34375 68.96875,68.078125 68.28125,67.804688 67.5,67.65625 66.609375,67.65625 c -0.617187,0 -1.21875,0.148438 -1.820313,0.421875 -0.570312,0.265625 -1.09375,0.71875 -1.5625,1.351563 -0.4375,0.617187 -0.8125,1.460937 -1.125,2.523437 -0.257812,1.054687 -0.40625,2.367187 -0.40625,3.929687 0,2.734376 0.390626,4.828126 1.15625,6.3125 0.78125,1.445313 2.046876,2.15625 3.820313,2.15625 1.023437,0 1.851563,-0.140624 2.523437,-0.421874 0.664063,-0.289063 1.21875,-0.570313 1.625,-0.84375 l 0.976563,3.742187 C 71.242188,87.25 70.492188,87.625 69.53125,87.976562 c -0.921875,0.34375 -2.015625,0.507813 -3.25,0.507813"
       id="path12"
       inkscape:connector-curvature="0" />
    <path
       style="fill:#515151;fill-opacity:1;fill-rule:nonzero;stroke:none"
       d="m 74.507812,87.976562 v -3.929687 h 4.3125 V 68 h -4.3125 V 64.0625 H 87.023438 V 68 h -4.257813 v 16.046875 h 4.257813 v 3.929687 H 74.507812"
       id="path14"
       inkscape:connector-curvature="0" />
    <path
       style="fill:#515151;fill-opacity:1;fill-rule:nonzero;stroke:none"
       d="M 90.4375,87.976562 V 84.046875 H 94.75 V 68 h -4.3125 v -3.9375 h 12.52344 V 68 h -4.257815 v 16.046875 h 4.257815 v 3.929687 H 90.4375"
       id="path16"
       inkscape:connector-curvature="0" />
  </g>
</svg>
