<?xml version="1.0" encoding="UTF-8" standalone="no"?>
<svg
   xmlns:dc="http://purl.org/dc/elements/1.1/"
   xmlns:cc="http://creativecommons.org/ns#"
   xmlns:rdf="http://www.w3.org/1999/02/22-rdf-syntax-ns#"
   xmlns:svg="http://www.w3.org/2000/svg"
   xmlns="http://www.w3.org/2000/svg"
   xmlns:sodipodi="http://sodipodi.sourceforge.net/DTD/sodipodi-0.dtd"
   xmlns:inkscape="http://www.inkscape.org/namespaces/inkscape"
   width="96"
   height="96"
   viewBox="0 0 96 96"
   version="1.1"
   id="svg11"
   sodipodi:docname="application-vector.svg"
   inkscape:version="0.92.2 (5c3e80d, 2017-08-06)">
  <metadata
     id="metadata17">
    <rdf:RDF>
      <cc:Work
         rdf:about="">
        <dc:format>image/svg+xml</dc:format>
        <dc:type
           rdf:resource="http://purl.org/dc/dcmitype/StillImage" />
        <dc:title></dc:title>
      </cc:Work>
    </rdf:RDF>
  </metadata>
  <defs
     id="defs15" />
  <sodipodi:namedview
     pagecolor="#ffffff"
     bordercolor="#666666"
     borderopacity="1"
     objecttolerance="10"
     gridtolerance="10"
     guidetolerance="10"
     inkscape:pageopacity="0"
     inkscape:pageshadow="2"
     inkscape:window-width="1905"
     inkscape:window-height="1186"
     id="namedview13"
     showgrid="false"
     inkscape:zoom="1.84375"
     inkscape:cx="-55.59322"
     inkscape:cy="64"
     inkscape:window-x="694"
     inkscape:window-y="451"
     inkscape:window-maximized="0"
     inkscape:current-layer="svg11" />
  <g
     id="surface1"
     transform="scale(0.75)">
    <path
       style="fill:#02a89c;fill-opacity:1;fill-rule:nonzero;stroke:none"
       d="M 21.34375,0 C 18.59375,0 16,2.710938 16,5.578125 V 122.42188 C 16,125.13281 18.75,128 21.34375,128 h 85.3125 C 109.25,128 112,125.13281 112,122.42188 V 36 L 76,0 Z m 0,0"
       id="path2"
       inkscape:connector-curvature="0" />
    <path
       style="fill:#000000;fill-opacity:0.19607801;fill-rule:nonzero;stroke:none"
       d="m 84,36 28,28 V 36 Z m 0,0"
       id="path4"
       inkscape:connector-curvature="0" />
    <path
       style="fill:#ffffff;fill-opacity:0.39215698;fill-rule:nonzero;stroke:none"
       d="m 76,0 35.96875,36 H 81.515625 C 78.820312,36 76,33.148438 76,30.453125 Z m 0,0"
       id="path6"
       inkscape:connector-curvature="0" />
    <path
       style="fill:#ffffff;fill-opacity:1;fill-rule:nonzero;stroke:none"
       d="m 80,45.546875 c -1.6875,0 -3.210938,1.140625 -4,2.453125 H 60 c 0,0 -3.890625,-0.304688 -7.28125,1.335938 -3.40625,1.632812 -7.007812,5.390624 -7.007812,11.640624 0,6.25 3.601562,10.007813 7.007812,11.640626 1.601562,0.78125 3.1875,1.101562 4.429688,1.3125 v 0.960937 l -6.289063,6.0625 C 50.671875,80.90625 50.5,80.820312 50.289062,80.820312 49.015625,80.820312 48,81.796875 48,83.023438 c 0,1.21875 1.015625,2.203124 2.289062,2.203124 1.257813,0 2.273438,-0.984374 2.273438,-2.203124 0,-0.210938 -0.08594,-0.359376 -0.132812,-0.554688 l 6.28125,-6.0625 h 7.578124 V 74.203125 H 68.5625 c 0,0 2.414062,0.05469 4.71875,1.171875 2.328125,1.117188 4.429688,2.875 4.429688,7.648438 0,4.773437 -2.101563,6.523437 -4.429688,7.648437 C 70.976562,91.789062 68,92 68,92 H 52 c -0.789062,-1.3125 -2.3125,-2.367188 -4,-2.367188 -2.53125,0 -4.578125,1.984376 -4.578125,4.414063 0,2.429687 2.046875,4.40625 4.578125,4.40625 1.6875,0 3.210938,-1.140625 4,-2.453125 h 16 c 0,0 3.890625,0.304688 7.28125,-1.335938 3.40625,-1.632812 7.007812,-5.390624 7.007812,-11.640624 0,-6.25 -3.601562,-10.007813 -7.007812,-11.640626 -3.390625,-1.640624 -6.71875,-1.585937 -6.71875,-1.585937 h -2.273438 v -0.6875 l 6.289063,-6.0625 c 0.1875,0.04687 0.359375,0.132813 0.570313,0.132813 1.257812,0 2.289062,-0.976563 2.289062,-2.203126 0,-1.21875 -1.03125,-2.203124 -2.289062,-2.203124 -1.257813,0 -2.296876,0.984374 -2.296876,2.203124 0,0.210938 0.08594,0.359376 0.15625,0.554688 l -6.304687,6.0625 h -7.554687 v 1.859375 C 56.390625,69.28125 55.5625,69.039062 54.71875,68.625 52.390625,67.507812 50.289062,65.75 50.289062,60.976562 c 0,-4.773437 2.101563,-6.523437 4.429688,-7.648437 C 57.023438,52.210938 60,52 60,52 h 16 c 0.789062,1.3125 2.3125,2.367188 4,2.367188 2.53125,0 4.578125,-1.984376 4.578125,-4.414063 0,-2.429687 -2.046875,-4.40625 -4.578125,-4.40625 z m 0,0"
       id="path8"
       inkscape:connector-curvature="0" />
  </g>
</svg>
