<?xml version="1.0" encoding="UTF-8" standalone="no"?>
<svg
   xmlns:dc="http://purl.org/dc/elements/1.1/"
   xmlns:cc="http://creativecommons.org/ns#"
   xmlns:rdf="http://www.w3.org/1999/02/22-rdf-syntax-ns#"
   xmlns:svg="http://www.w3.org/2000/svg"
   xmlns="http://www.w3.org/2000/svg"
   xmlns:sodipodi="http://sodipodi.sourceforge.net/DTD/sodipodi-0.dtd"
   xmlns:inkscape="http://www.inkscape.org/namespaces/inkscape"
   width="96"
   height="96"
   viewBox="0 0 96 96"
   version="1.1"
   id="svg2"
   inkscape:version="0.92.2 (5c3e80d, 2017-08-06)"
   sodipodi:docname="application-x-cpio.svg">
  <metadata
     id="metadata37">
    <rdf:RDF>
      <cc:Work
         rdf:about="">
        <dc:format>image/svg+xml</dc:format>
        <dc:type
           rdf:resource="http://purl.org/dc/dcmitype/StillImage" />
        <dc:title></dc:title>
      </cc:Work>
    </rdf:RDF>
  </metadata>
  <defs
     id="defs35" />
  <sodipodi:namedview
     pagecolor="#ffffff"
     bordercolor="#666666"
     borderopacity="1"
     objecttolerance="10"
     gridtolerance="10"
     guidetolerance="10"
     inkscape:pageopacity="0"
     inkscape:pageshadow="2"
     inkscape:window-width="2376"
     inkscape:window-height="1441"
     id="namedview33"
     showgrid="false"
     inkscape:zoom="1.84375"
     inkscape:cx="-55.59322"
     inkscape:cy="62.915254"
     inkscape:window-x="102"
     inkscape:window-y="55"
     inkscape:window-maximized="0"
     inkscape:current-layer="surface1" />
  <g
     id="surface1"
     transform="translate(0,-32)">
    <path
       style="fill:#45606e;fill-opacity:1;fill-rule:nonzero;stroke:none;stroke-width:0.75"
       d="M 16.007812,32 C 13.945313,32 12,34.033203 12,36.183594 V 123.81641 C 12,125.84961 14.0625,128 16.007812,128 H 79.992187 C 81.9375,128 84,125.84961 84,123.81641 V 59 L 57,32 Z m 0,0"
       id="path5"
       inkscape:connector-curvature="0" />
    <path
       style="fill:#000000;fill-opacity:0.19607801;fill-rule:nonzero;stroke:none;stroke-width:0.75"
       d="m 12,104 v 20.00391 C 12,125.94922 14.0625,128 15.996094,128 H 80.00391 C 81.9375,128 84,125.94922 84,124.00391 V 104 Z m 0,0"
       id="path7"
       inkscape:connector-curvature="0" />
    <path
       style="fill:#000000;fill-opacity:0.19607801;fill-rule:nonzero;stroke:none;stroke-width:0.75"
       d="M 63,59 84,80 V 59 Z m 0,0"
       id="path9"
       inkscape:connector-curvature="0" />
    <path
       style="fill:#ffffff;fill-opacity:1;fill-rule:nonzero;stroke:none;stroke-width:0.75"
       d="m 30.632812,125.29883 c -2.15625,0 -3.796875,-0.69141 -4.933593,-2.08594 C 24.5625,121.83008 24,119.86133 24,117.29492 c 0,-1.26562 0.175781,-2.40234 0.515625,-3.38671 0.351562,-0.9961 0.820312,-1.82813 1.429687,-2.50782 0.632813,-0.69141 1.359375,-1.20703 2.203125,-1.55859 0.855469,-0.36328 1.78125,-0.53907 2.777344,-0.53907 0.550781,0 1.03125,0.0469 1.464844,0.14063 0.445312,0.082 0.820312,0.1875 1.160156,0.30469 0.328125,0.11718 0.597656,0.23437 0.808594,0.36328 0.234375,0.14063 0.398437,0.23438 0.515625,0.30469 l -0.785156,2.42578 c -0.375,-0.24609 -0.84375,-0.45703 -1.382813,-0.62109 -0.527344,-0.17579 -1.136719,-0.26954 -1.828125,-0.26954 -0.46875,0 -0.9375,0.0937 -1.40625,0.26954 -0.445312,0.16406 -0.84375,0.45702 -1.207031,0.86718 -0.339844,0.39844 -0.632813,0.9375 -0.867188,1.60547 -0.210937,0.67969 -0.316406,1.52344 -0.316406,2.53125 0,1.7461 0.292969,3.09375 0.890625,4.03125 0.609375,0.92578 1.59375,1.39453 2.953125,1.39453 0.796875,0 1.441406,-0.0937 1.957031,-0.26953 0.527344,-0.1875 0.9375,-0.36328 1.253907,-0.55078 l 0.761718,2.40234 c -0.421875,0.26954 -1.007812,0.51563 -1.746093,0.75 -0.726563,0.21094 -1.558594,0.31641 -2.519532,0.31641"
       id="path11"
       inkscape:connector-curvature="0" />
    <path
       style="fill:#ffffff;fill-opacity:0.39215698;fill-rule:nonzero;stroke:none;stroke-width:0.75"
       d="M 57,32 83.976562,59 H 61.136719 C 59.115234,59 57,56.861328 57,54.839844 Z m 0,0"
       id="path13"
       inkscape:connector-curvature="0" />
    <path
       style="fill:#ffffff;fill-opacity:1;fill-rule:nonzero;stroke:none;stroke-width:0.75"
       d="m 41.191406,109.4668 c 1.945313,0 3.445313,0.41016 4.511719,1.21875 1.066406,0.79687 1.605469,2.09766 1.605469,3.91406 0,1.82812 -0.539063,3.16406 -1.628907,3.98437 -1.066406,0.8086 -2.589843,1.21875 -4.558593,1.21875 H 40.03125 v 5.17969 H 36.996094 V 109.8418 c 0.292968,-0.0586 0.632812,-0.11719 0.984375,-0.17578 0.386718,-0.0469 0.761718,-0.082 1.136718,-0.0937 0.386719,-0.0352 0.75,-0.0586 1.113282,-0.0703 0.363281,-0.0234 0.679687,-0.0352 0.960937,-0.0352 m 0.351563,2.66016 c -0.1875,0 -0.445313,0 -0.773438,0.0234 -0.304687,0 -0.550781,0.0117 -0.738281,0.0469 v 4.95703 h 1.230469 c 0.972656,0 1.710937,-0.19921 2.203125,-0.57421 0.492187,-0.39844 0.738281,-1.06641 0.738281,-2.00391 0,-0.89063 -0.246094,-1.52344 -0.738281,-1.88672 -0.480469,-0.375 -1.125,-0.5625 -1.921875,-0.5625"
       id="path15"
       inkscape:connector-curvature="0" />
    <path
       style="fill:#f8f8f8;fill-opacity:1;fill-rule:evenodd;stroke:none;stroke-width:0.75"
       d="m 27,32 h 9 v 9 h -9 z m 0,0"
       id="path17"
       inkscape:connector-curvature="0" />
    <path
       style="fill:#ffffff;fill-opacity:1;fill-rule:nonzero;stroke:none;stroke-width:0.75"
       d="m 49.335937,124.98242 v -2.53125 h 3.328125 v -10.27734 h -3.328125 v -2.53125 h 9.691407 v 2.53125 h -3.304688 v 10.27734 h 3.304688 v 2.53125 h -9.691407"
       id="path19"
       inkscape:connector-curvature="0" />
    <path
       style="fill:#f8f8f8;fill-opacity:1;fill-rule:evenodd;stroke:none;stroke-width:0.75"
       d="m 36,41 h 9 v 9 h -9 z m 0,0"
       id="path21"
       inkscape:connector-curvature="0" />
    <path
       style="fill:#ffffff;fill-opacity:1;fill-rule:nonzero;stroke:none;stroke-width:0.75"
       d="m 64.078125,117.29492 c 0,0.75 0.02344,1.45313 0.08203,2.10938 0.0586,0.64453 0.175781,1.20703 0.339844,1.6875 0.1875,0.48047 0.433594,0.85547 0.738281,1.13672 0.316406,0.28125 0.738281,0.42187 1.265625,0.42187 0.503906,0 0.914063,-0.14062 1.230469,-0.42187 0.328125,-0.28125 0.574219,-0.65625 0.738281,-1.13672 0.175781,-0.50391 0.292969,-1.06641 0.339844,-1.71094 0.07031,-0.64453 0.105469,-1.33594 0.105469,-2.08594 0,-0.73828 -0.03515,-1.42969 -0.105469,-2.07421 -0.04687,-0.66798 -0.164063,-1.23048 -0.339844,-1.71094 -0.164062,-0.48047 -0.398437,-0.85547 -0.714844,-1.13672 -0.316406,-0.28125 -0.726562,-0.42188 -1.253906,-0.42188 -0.527344,0 -0.949219,0.14063 -1.265625,0.42188 -0.304687,0.28125 -0.550781,0.66797 -0.738281,1.16016 -0.164063,0.48046 -0.28125,1.04296 -0.339844,1.6875 -0.0586,0.64452 -0.08203,1.33593 -0.08203,2.07421 m -3.082031,0 c 0,-2.63671 0.492187,-4.6289 1.453125,-5.96484 0.972656,-1.35937 2.320312,-2.02735 4.054687,-2.02735 1.792969,0 3.152344,0.66798 4.089844,2.02735 0.9375,1.33594 1.40625,3.32813 1.40625,5.96484 0,2.64844 -0.480469,4.64063 -1.429688,6 -0.949218,1.33594 -2.308593,2.00391 -4.042968,2.00391 -1.792969,0 -3.164063,-0.66797 -4.125,-2.00391 -0.9375,-1.35937 -1.40625,-3.35156 -1.40625,-6"
       id="path23"
       inkscape:connector-curvature="0" />
    <path
       style="fill:#f8f8f8;fill-opacity:1;fill-rule:evenodd;stroke:none;stroke-width:0.75"
       d="m 27,50 h 9 v 9 h -9 z m 0,0"
       id="path25"
       inkscape:connector-curvature="0" />
    <path
       style="fill:#f8f8f8;fill-opacity:1;fill-rule:evenodd;stroke:none;stroke-width:0.75"
       d="m 36,59 h 9 v 9 h -9 z m 0,0"
       id="path27"
       inkscape:connector-curvature="0" />
    <path
       style="fill:#f8f8f8;fill-opacity:1;fill-rule:evenodd;stroke:none;stroke-width:0.75"
       d="m 27,68 h 9 v 9 h -9 z m 0,0"
       id="path29"
       inkscape:connector-curvature="0" />
    <path
       style="fill:#f8f8f8;fill-opacity:1;fill-rule:evenodd;stroke:none;stroke-width:0.75"
       d="M 27,80 H 45 V 98 H 27 Z m 0,0"
       id="path31"
       inkscape:connector-curvature="0" />
  </g>
</svg>
