<?xml version="1.0" encoding="UTF-8" standalone="no"?>
<svg
   xmlns:dc="http://purl.org/dc/elements/1.1/"
   xmlns:cc="http://creativecommons.org/ns#"
   xmlns:rdf="http://www.w3.org/1999/02/22-rdf-syntax-ns#"
   xmlns:svg="http://www.w3.org/2000/svg"
   xmlns="http://www.w3.org/2000/svg"
   xmlns:sodipodi="http://sodipodi.sourceforge.net/DTD/sodipodi-0.dtd"
   xmlns:inkscape="http://www.inkscape.org/namespaces/inkscape"
   width="96"
   height="96"
   viewBox="0 0 96 96"
   version="1.1"
   id="svg2"
   inkscape:version="0.92.2 (5c3e80d, 2017-08-06)"
   sodipodi:docname="application-x-bzip.svg">
  <metadata
     id="metadata37">
    <rdf:RDF>
      <cc:Work
         rdf:about="">
        <dc:format>image/svg+xml</dc:format>
        <dc:type
           rdf:resource="http://purl.org/dc/dcmitype/StillImage" />
        <dc:title></dc:title>
      </cc:Work>
    </rdf:RDF>
  </metadata>
  <defs
     id="defs35" />
  <sodipodi:namedview
     pagecolor="#ffffff"
     bordercolor="#666666"
     borderopacity="1"
     objecttolerance="10"
     gridtolerance="10"
     guidetolerance="10"
     inkscape:pageopacity="0"
     inkscape:pageshadow="2"
     inkscape:window-width="2770"
     inkscape:window-height="1490"
     id="namedview33"
     showgrid="false"
     inkscape:zoom="1.84375"
     inkscape:cx="-55.59322"
     inkscape:cy="62.915254"
     inkscape:window-x="102"
     inkscape:window-y="55"
     inkscape:window-maximized="0"
     inkscape:current-layer="surface1" />
  <g
     id="surface1"
     transform="translate(0,-32)">
    <path
       style="fill:#45606e;fill-opacity:1;fill-rule:nonzero;stroke:none;stroke-width:0.75"
       d="M 16.007812,32 C 13.945313,32 12,34.033203 12,36.183594 V 123.81641 C 12,125.84961 14.0625,128 16.007812,128 H 79.992187 C 81.9375,128 84,125.84961 84,123.81641 V 59 L 57,32 Z m 0,0"
       id="path5"
       inkscape:connector-curvature="0" />
    <path
       style="fill:#000000;fill-opacity:0.19607801;fill-rule:nonzero;stroke:none;stroke-width:0.75"
       d="m 12,104 v 20.00391 C 12,125.94922 14.0625,128 15.996094,128 H 80.00391 C 81.9375,128 84,125.94922 84,124.00391 V 104 Z m 0,0"
       id="path7"
       inkscape:connector-curvature="0" />
    <path
       style="fill:#ffffff;fill-opacity:1;fill-rule:nonzero;stroke:none;stroke-width:0.75"
       d="m 34.400391,120.27735 c 0,0.9375 -0.152345,1.73437 -0.46875,2.3789 -0.316407,0.6211 -0.75,1.125 -1.300782,1.51172 -0.539063,0.36328 -1.183593,0.63282 -1.933593,0.80859 -0.726563,0.15235 -1.523438,0.22266 -2.378907,0.22266 -0.679688,0 -1.394531,-0.0469 -2.121093,-0.12891 -0.738282,-0.0586 -1.464845,-0.17577 -2.179688,-0.32812 v -15.16406 c 0.585938,-0.10547 1.230468,-0.1875 1.921875,-0.25782 0.703125,-0.082 1.394531,-0.11718 2.085938,-0.11718 1.160155,0 2.109375,0.11718 2.847655,0.375 0.738282,0.23437 1.3125,0.55078 1.722657,0.96093 0.421875,0.38673 0.703125,0.82032 0.855468,1.3125 0.152345,0.48048 0.222657,0.97266 0.222657,1.46485 0,0.73828 -0.175782,1.39453 -0.550782,1.96875 -0.351562,0.5625 -0.820312,1.01953 -1.417968,1.35938 1.042968,0.38671 1.757813,0.91406 2.121093,1.55859 0.38672,0.65625 0.57422,1.34766 0.57422,2.07422 m -7.300782,-2.1211 v 4.24219 c 0.210937,0.0352 0.445312,0.0586 0.691407,0.0703 0.26953,0.0234 0.527343,0.0352 0.785155,0.0352 0.351563,0 0.691407,-0.0352 1.019532,-0.082 0.339843,-0.0703 0.632813,-0.17578 0.878906,-0.32812 0.269532,-0.16406 0.480469,-0.39844 0.644532,-0.67969 0.17578,-0.30469 0.257812,-0.67969 0.257812,-1.13672 0,-0.76172 -0.246094,-1.28906 -0.726562,-1.61718 -0.46875,-0.32813 -1.101563,-0.50391 -1.898438,-0.50391 h -1.652344 m 1.195312,-2.56641 c 0.785157,0 1.382813,-0.17578 1.78125,-0.51562 0.398438,-0.35156 0.597657,-0.83203 0.597657,-1.42969 0,-0.375 -0.0586,-0.66797 -0.175782,-0.89062 -0.117187,-0.23438 -0.26953,-0.41016 -0.46875,-0.52735 -0.210937,-0.1289 -0.433593,-0.22265 -0.703125,-0.24609 -0.26953,-0.0586 -0.55078,-0.082 -0.83203,-0.082 -0.234375,0 -0.46875,0.0117 -0.726563,0.0234 -0.246094,0.0234 -0.46875,0.0469 -0.667969,0.082 v 3.58594 h 1.195312"
       id="path9"
       inkscape:connector-curvature="0" />
    <path
       style="fill:#000000;fill-opacity:0.19607801;fill-rule:nonzero;stroke:none;stroke-width:0.75"
       d="M 63,59 84,80 V 59 Z m 0,0"
       id="path11"
       inkscape:connector-curvature="0" />
    <path
       style="fill:#ffffff;fill-opacity:1;fill-rule:nonzero;stroke:none;stroke-width:0.75"
       d="m 46.318359,111.54688 c -0.714843,1.11328 -1.382813,2.15625 -1.980468,3.12891 -0.597657,0.97265 -1.160157,1.91015 -1.675782,2.80077 -0.515625,0.87891 -1.007813,1.72266 -1.476563,2.55469 -0.445312,0.79688 -0.878905,1.60547 -1.30078,2.39063 h 6.65625 V 125 H 36.333984 v -1.79296 c 0.363282,-0.72657 0.75,-1.47657 1.171875,-2.27344 0.421875,-0.8086 0.890625,-1.66406 1.40625,-2.57813 0.515625,-0.90234 1.066407,-1.88672 1.675782,-2.95312 0.609375,-1.05469 1.289062,-2.20313 2.027343,-3.45704 h -5.964843 v -2.5664 h 9.667968 v 2.16797"
       id="path13"
       inkscape:connector-curvature="0" />
    <path
       style="fill:#ffffff;fill-opacity:0.39215698;fill-rule:nonzero;stroke:none;stroke-width:0.75"
       d="M 57,32 83.976562,59 H 61.136719 C 59.115234,59 57,56.861328 57,54.839844 Z m 0,0"
       id="path15"
       inkscape:connector-curvature="0" />
    <path
       style="fill:#ffffff;fill-opacity:1;fill-rule:nonzero;stroke:none;stroke-width:0.75"
       d="m 49.048828,125 v -2.57812 h 3.375 v -10.47657 h -3.375 v -2.5664 h 9.832031 v 2.5664 h -3.351563 v 10.47657 h 3.351563 V 125 h -9.832031"
       id="path17"
       inkscape:connector-curvature="0" />
    <path
       style="fill:#f8f8f8;fill-opacity:1;fill-rule:evenodd;stroke:none;stroke-width:0.75"
       d="m 27,32 h 9 v 9 h -9 z m 0,0"
       id="path19"
       inkscape:connector-curvature="0" />
    <path
       style="fill:#ffffff;fill-opacity:1;fill-rule:nonzero;stroke:none;stroke-width:0.75"
       d="m 65.806641,109.20313 c 1.96875,0 3.503905,0.41016 4.58203,1.23047 1.089845,0.80859 1.628907,2.14453 1.628907,3.98437 0,1.875 -0.550782,3.22266 -1.652344,4.06641 -1.078125,0.83203 -2.625,1.24218 -4.628906,1.24218 H 64.634766 V 125 h -3.082032 v -15.42187 c 0.304687,-0.0703 0.632812,-0.12891 1.007812,-0.17578 0.38672,-0.0469 0.76172,-0.082 1.148438,-0.10547 0.386719,-0.0352 0.761719,-0.0586 1.125,-0.0703 0.363282,-0.0234 0.691407,-0.0234 0.972657,-0.0234 m 0.351562,2.69531 c -0.175782,0 -0.433594,0.0117 -0.773437,0.0234 -0.316407,0 -0.5625,0.0234 -0.75,0.0586 v 5.03906 h 1.253905 c 0.984375,0 1.722657,-0.1875 2.226563,-0.57422 0.503907,-0.41015 0.75,-1.08984 0.75,-2.05078 0,-0.90235 -0.246093,-1.54687 -0.75,-1.91016 -0.480468,-0.38671 -1.136718,-0.58594 -1.957031,-0.58594"
       id="path21"
       inkscape:connector-curvature="0" />
    <path
       style="fill:#f8f8f8;fill-opacity:1;fill-rule:evenodd;stroke:none;stroke-width:0.75"
       d="m 36,41 h 9 v 9 h -9 z m 0,0"
       id="path23"
       inkscape:connector-curvature="0" />
    <path
       style="fill:#f8f8f8;fill-opacity:1;fill-rule:evenodd;stroke:none;stroke-width:0.75"
       d="m 27,50 h 9 v 9 h -9 z m 0,0"
       id="path25"
       inkscape:connector-curvature="0" />
    <path
       style="fill:#f8f8f8;fill-opacity:1;fill-rule:evenodd;stroke:none;stroke-width:0.75"
       d="m 36,59 h 9 v 9 h -9 z m 0,0"
       id="path27"
       inkscape:connector-curvature="0" />
    <path
       style="fill:#f8f8f8;fill-opacity:1;fill-rule:evenodd;stroke:none;stroke-width:0.75"
       d="m 27,68 h 9 v 9 h -9 z m 0,0"
       id="path29"
       inkscape:connector-curvature="0" />
    <path
       style="fill:#f8f8f8;fill-opacity:1;fill-rule:evenodd;stroke:none;stroke-width:0.75"
       d="M 27,80 H 45 V 98 H 27 Z m 0,0"
       id="path31"
       inkscape:connector-curvature="0" />
  </g>
</svg>
