<?xml version="1.0" encoding="UTF-8" standalone="no"?>
<svg
   xmlns:dc="http://purl.org/dc/elements/1.1/"
   xmlns:cc="http://creativecommons.org/ns#"
   xmlns:rdf="http://www.w3.org/1999/02/22-rdf-syntax-ns#"
   xmlns:svg="http://www.w3.org/2000/svg"
   xmlns="http://www.w3.org/2000/svg"
   xmlns:sodipodi="http://sodipodi.sourceforge.net/DTD/sodipodi-0.dtd"
   xmlns:inkscape="http://www.inkscape.org/namespaces/inkscape"
   width="96"
   height="96"
   viewBox="0 0 96 96"
   version="1.1"
   id="svg17"
   sodipodi:docname="application-x-php.svg"
   inkscape:version="0.92.2 (5c3e80d, 2017-08-06)">
  <metadata
     id="metadata23">
    <rdf:RDF>
      <cc:Work
         rdf:about="">
        <dc:format>image/svg+xml</dc:format>
        <dc:type
           rdf:resource="http://purl.org/dc/dcmitype/StillImage" />
        <dc:title></dc:title>
      </cc:Work>
    </rdf:RDF>
  </metadata>
  <defs
     id="defs21" />
  <sodipodi:namedview
     pagecolor="#ffffff"
     bordercolor="#666666"
     borderopacity="1"
     objecttolerance="10"
     gridtolerance="10"
     guidetolerance="10"
     inkscape:pageopacity="0"
     inkscape:pageshadow="2"
     inkscape:window-width="1783"
     inkscape:window-height="1193"
     id="namedview19"
     showgrid="false"
     inkscape:zoom="1.3037281"
     inkscape:cx="-114.79066"
     inkscape:cy="51.868457"
     inkscape:window-x="1086"
     inkscape:window-y="495"
     inkscape:window-maximized="0"
     inkscape:current-layer="svg17" />
  <g
     id="surface1"
     transform="scale(0.75)">
    <path
       style="fill:#5966a3;fill-opacity:1;fill-rule:nonzero;stroke:none"
       d="M 21.34375,0 C 18.59375,0 16,2.710938 16,5.578125 V 122.42188 C 16,125.13281 18.75,128 21.34375,128 h 85.3125 C 109.25,128 112,125.13281 112,122.42188 V 36 L 76,0 Z m 0,0"
       id="path2"
       inkscape:connector-curvature="0" />
    <path
       style="fill:#000000;fill-opacity:0.19607801;fill-rule:nonzero;stroke:none"
       d="m 84,36 28,28 V 36 Z m 0,0"
       id="path4"
       inkscape:connector-curvature="0" />
    <path
       style="fill:#ffffff;fill-opacity:0.39215698;fill-rule:nonzero;stroke:none"
       d="m 76,0 35.96875,36 H 81.515625 C 78.820312,36 76,33.148438 76,30.453125 Z m 0,0"
       id="path6"
       inkscape:connector-curvature="0" />
    <path
       style="fill:#ffffff;fill-opacity:1;fill-rule:evenodd;stroke:none"
       d="M 96,74 C 96,86.15625 81.671875,96 64,96 46.328125,96 32,86.15625 32,74 32,61.84375 46.328125,52 64,52 c 17.671875,0 32,9.84375 32,22 z m 0,0"
       id="path8"
       inkscape:connector-curvature="0" />
    <path
       style="fill:#5966a3;fill-opacity:1;fill-rule:nonzero;stroke:none"
       d="m 55.015625,65.84375 c 1.359375,0 2.4375,0.484375 3.234375,1.453125 0.78125,0.96875 1.1875,2.304687 1.1875,4.03125 0,1.703125 -0.328125,3.367187 -0.96875,4.945313 -0.640625,1.578124 -1.515625,2.820312 -2.625,3.757812 -1.109375,0.914062 -2.328125,1.382812 -3.671875,1.382812 -0.78125,0 -1.4375,-0.164062 -2,-0.5 -0.5625,-0.320312 -1.078125,-0.882812 -1.5625,-1.695312 H 48.5 c -0.109375,1.4375 -0.3125,2.742188 -0.609375,3.96875 l -1,4.5625 h -4.21875 L 47.46875,66.132812 h 3.21875 l -0.234375,2.273438 h 0.125 c 1.28125,-1.710938 2.765625,-2.5625 4.4375,-2.5625 m -1.6875,3.289062 c -0.640625,0 -1.265625,0.289063 -1.859375,0.90625 -0.59375,0.59375 -1.0625,1.398438 -1.421875,2.414063 -0.359375,1 -0.53125,2.109375 -0.53125,3.335937 0,0.710938 0.171875,1.289063 0.515625,1.726563 0.34375,0.414063 0.8125,0.640625 1.421875,0.640625 0.625,0 1.234375,-0.320312 1.796875,-0.929688 0.578125,-0.617187 1.03125,-1.46875 1.375,-2.53125 0.359375,-1.101562 0.53125,-2.164062 0.53125,-3.210937 0,-1.578125 -0.609375,-2.351563 -1.828125,-2.351563"
       id="path10"
       inkscape:connector-curvature="0" />
    <path
       style="fill:#5966a3;fill-opacity:1;fill-rule:nonzero;stroke:none"
       d="M 70.15625,81.140625 H 65.9375 L 67.859375,72.375 c 0.140625,-0.617188 0.21875,-1.148438 0.21875,-1.601562 0,-1.09375 -0.5,-1.640626 -1.515625,-1.640626 -0.859375,0 -1.640625,0.5 -2.34375,1.53125 -0.703125,1.015626 -1.25,2.429688 -1.65625,4.273438 l -1.359375,6.203125 H 56.96875 L 61.609375,60.25 h 4.21875 c -0.375,1.617188 -0.65625,2.851562 -0.84375,3.726562 -0.203125,0.867188 -0.59375,2.257813 -1.203125,4.15625 h 0.109375 c 0.578125,-0.695312 1.21875,-1.242187 1.9375,-1.65625 0.703125,-0.421874 1.53125,-0.632812 2.46875,-0.632812 1.28125,0 2.28125,0.390625 2.984375,1.132812 0.703125,0.734376 1.0625,1.804688 1.0625,3.203126 0,0.648437 -0.109375,1.453124 -0.328125,2.421874 l -1.859375,8.539063"
       id="path12"
       inkscape:connector-curvature="0" />
    <path
       style="fill:#5966a3;fill-opacity:1;fill-rule:nonzero;stroke:none"
       d="m 80.921875,65.84375 c 1.359375,0 2.4375,0.484375 3.21875,1.453125 0.796875,0.96875 1.1875,2.304687 1.1875,4.03125 0,1.703125 -0.3125,3.367187 -0.96875,4.945313 -0.625,1.578124 -1.5,2.820312 -2.609375,3.757812 -1.125,0.914062 -2.34375,1.382812 -3.671875,1.382812 -0.78125,0 -1.453125,-0.164062 -2.015625,-0.5 C 75.5,80.59375 74.984375,80.03125 74.515625,79.21875 h -0.125 c -0.109375,1.4375 -0.3125,2.742188 -0.59375,3.96875 L 72.78125,87.75 H 68.5625 l 4.796875,-21.617188 h 3.21875 L 76.34375,68.40625 h 0.125 c 1.296875,-1.710938 2.78125,-2.5625 4.453125,-2.5625 m -1.703125,3.289062 c -0.640625,0 -1.25,0.289063 -1.84375,0.90625 -0.59375,0.59375 -1.078125,1.398438 -1.4375,2.414063 -0.359375,1 -0.53125,2.109375 -0.53125,3.335937 0,0.710938 0.171875,1.289063 0.515625,1.726563 0.34375,0.414063 0.828125,0.640625 1.4375,0.640625 0.625,0 1.21875,-0.320312 1.796875,-0.929688 0.5625,-0.617187 1.015625,-1.46875 1.375,-2.53125 0.34375,-1.101562 0.53125,-2.164062 0.53125,-3.210937 0,-1.578125 -0.625,-2.351563 -1.84375,-2.351563"
       id="path14"
       inkscape:connector-curvature="0" />
  </g>
</svg>
