<?xml version="1.0" encoding="UTF-8" standalone="no"?>
<svg
   xmlns:dc="http://purl.org/dc/elements/1.1/"
   xmlns:cc="http://creativecommons.org/ns#"
   xmlns:rdf="http://www.w3.org/1999/02/22-rdf-syntax-ns#"
   xmlns:svg="http://www.w3.org/2000/svg"
   xmlns="http://www.w3.org/2000/svg"
   xmlns:sodipodi="http://sodipodi.sourceforge.net/DTD/sodipodi-0.dtd"
   xmlns:inkscape="http://www.inkscape.org/namespaces/inkscape"
   width="96"
   height="96"
   viewBox="0 0 96 96"
   version="1.1"
   id="svg2"
   inkscape:version="0.92.2 (5c3e80d, 2017-08-06)"
   sodipodi:docname="application-x-stuffit.svg">
  <metadata
     id="metadata37">
    <rdf:RDF>
      <cc:Work
         rdf:about="">
        <dc:format>image/svg+xml</dc:format>
        <dc:type
           rdf:resource="http://purl.org/dc/dcmitype/StillImage" />
        <dc:title></dc:title>
      </cc:Work>
    </rdf:RDF>
  </metadata>
  <defs
     id="defs35" />
  <sodipodi:namedview
     pagecolor="#ffffff"
     bordercolor="#666666"
     borderopacity="1"
     objecttolerance="10"
     gridtolerance="10"
     guidetolerance="10"
     inkscape:pageopacity="0"
     inkscape:pageshadow="2"
     inkscape:window-width="2377"
     inkscape:window-height="1438"
     id="namedview33"
     showgrid="false"
     inkscape:zoom="1.84375"
     inkscape:cx="-55.59322"
     inkscape:cy="64"
     inkscape:window-x="721"
     inkscape:window-y="422"
     inkscape:window-maximized="0"
     inkscape:current-layer="surface1" />
  <g
     id="surface1"
     transform="translate(0,-32)">
    <path
       style="fill:#45606e;fill-opacity:1;fill-rule:nonzero;stroke:none;stroke-width:0.75"
       d="M 16.007812,32 C 13.945313,32 12,34.033203 12,36.183594 V 123.81641 C 12,125.84961 14.0625,128 16.007812,128 H 79.992187 C 81.9375,128 84,125.84961 84,123.81641 V 59 L 57,32 Z m 0,0"
       id="path5"
       inkscape:connector-curvature="0" />
    <path
       style="fill:#000000;fill-opacity:0.19607801;fill-rule:nonzero;stroke:none;stroke-width:0.75"
       d="m 12,104 v 20.00391 C 12,125.94922 14.0625,128 15.996094,128 H 80.00391 C 81.9375,128 84,125.94922 84,124.00391 V 104 Z m 0,0"
       id="path7"
       inkscape:connector-curvature="0" />
    <path
       style="fill:#000000;fill-opacity:0.19607801;fill-rule:nonzero;stroke:none;stroke-width:0.75"
       d="M 63,59 84,80 V 59 Z m 0,0"
       id="path9"
       inkscape:connector-curvature="0" />
    <path
       style="fill:#ffffff;fill-opacity:0.39215698;fill-rule:nonzero;stroke:none;stroke-width:0.75"
       d="M 57,32 83.976562,59 H 61.136719 C 59.115234,59 57,56.861328 57,54.839844 Z m 0,0"
       id="path11"
       inkscape:connector-curvature="0" />
    <path
       style="fill:#f8f8f8;fill-opacity:1;fill-rule:evenodd;stroke:none;stroke-width:0.75"
       d="m 27,32 h 9 v 9 h -9 z m 0,0"
       id="path13"
       inkscape:connector-curvature="0" />
    <path
       style="fill:#f8f8f8;fill-opacity:1;fill-rule:evenodd;stroke:none;stroke-width:0.75"
       d="m 36,41 h 9 v 9 h -9 z m 0,0"
       id="path15"
       inkscape:connector-curvature="0" />
    <path
       style="fill:#f8f8f8;fill-opacity:1;fill-rule:evenodd;stroke:none;stroke-width:0.75"
       d="m 27,50 h 9 v 9 h -9 z m 0,0"
       id="path17"
       inkscape:connector-curvature="0" />
    <path
       style="fill:#f8f8f8;fill-opacity:1;fill-rule:evenodd;stroke:none;stroke-width:0.75"
       d="m 36,59 h 9 v 9 h -9 z m 0,0"
       id="path19"
       inkscape:connector-curvature="0" />
    <path
       style="fill:#f8f8f8;fill-opacity:1;fill-rule:evenodd;stroke:none;stroke-width:0.75"
       d="m 27,68 h 9 v 9 h -9 z m 0,0"
       id="path21"
       inkscape:connector-curvature="0" />
    <path
       style="fill:#f8f8f8;fill-opacity:1;fill-rule:evenodd;stroke:none;stroke-width:0.75"
       d="M 27,80 H 45 V 98 H 27 Z m 0,0"
       id="path23"
       inkscape:connector-curvature="0" />
    <path
       style="fill:#ffffff;fill-opacity:1;fill-rule:nonzero;stroke:none;stroke-width:0.75"
       d="m 28.722656,122.77344 c 0.515625,0 0.9375,-0.0469 1.265625,-0.14063 0.339844,-0.11718 0.609375,-0.26952 0.808594,-0.44531 0.199219,-0.19921 0.328125,-0.42187 0.398437,-0.64453 0.08203,-0.25781 0.117188,-0.50391 0.117188,-0.75 0,-0.31641 -0.09375,-0.59766 -0.269531,-0.84375 -0.175782,-0.24609 -0.410157,-0.45703 -0.691407,-0.64453 -0.28125,-0.19922 -0.585937,-0.36328 -0.9375,-0.51563 -0.339843,-0.16406 -0.691406,-0.3164 -1.03125,-0.44531 -0.457031,-0.16406 -0.9375,-0.35156 -1.429687,-0.57421 -0.492188,-0.21094 -0.9375,-0.48048 -1.347656,-0.8086 -0.398438,-0.33984 -0.726563,-0.73828 -0.984375,-1.21875 -0.269532,-0.49219 -0.398438,-1.10156 -0.398438,-1.82813 0,-1.4414 0.457031,-2.5664 1.382813,-3.375 0.925781,-0.80859 2.214843,-1.20702 3.832031,-1.20702 0.9375,0 1.757812,0.10546 2.4375,0.3164 0.714844,0.21094 1.300781,0.45703 1.78125,0.71485 l -0.890625,2.35546 c -0.410156,-0.23437 -0.867188,-0.42187 -1.382813,-0.59765 -0.492187,-0.16406 -1.066406,-0.2461 -1.722656,-0.2461 -1.605469,0 -2.414062,0.58594 -2.414062,1.75781 0,0.30469 0.08203,0.5625 0.246093,0.79688 0.164063,0.21094 0.375,0.41016 0.621094,0.59766 0.257813,0.16406 0.550781,0.3164 0.867188,0.44531 0.328125,0.1289 0.644531,0.25781 0.949218,0.36328 0.480469,0.1875 0.972657,0.39844 1.488282,0.6211 0.515625,0.22265 0.996093,0.51562 1.417968,0.89062 0.445313,0.36328 0.808594,0.83203 1.089844,1.39453 0.28125,0.53906 0.421875,1.23047 0.421875,2.07422 0,1.4414 -0.46875,2.55469 -1.40625,3.35156 -0.925781,0.77344 -2.320312,1.16016 -4.21875,1.16016 -1.253906,0 -2.273437,-0.12891 -3.023437,-0.39844 C 24.949219,124.64844 24.375,124.39063 24,124.16797 l 0.890625,-2.48437 c 0.433594,0.26953 0.960937,0.51562 1.570312,0.75 0.621094,0.22265 1.382813,0.33984 2.261719,0.33984"
       id="path25"
       inkscape:connector-curvature="0" />
    <path
       style="fill:#ffffff;fill-opacity:1;fill-rule:nonzero;stroke:none;stroke-width:0.75"
       d="m 36.65625,125 v -2.51953 h 3.328125 V 112.20313 H 36.65625 v -2.53125 h 9.679687 v 2.53125 h -3.292968 v 10.27734 h 3.292968 V 125 H 36.65625"
       id="path27"
       inkscape:connector-curvature="0" />
    <path
       style="fill:#ffffff;fill-opacity:1;fill-rule:nonzero;stroke:none;stroke-width:0.75"
       d="m 59.34375,109.67188 v 2.53125 H 55.324219 V 125 h -3.046875 v -12.79687 h -4.019532 v -2.53125 H 59.34375"
       id="path29"
       inkscape:connector-curvature="0" />
    <path
       style="fill:#ffffff;fill-opacity:1;fill-rule:nonzero;stroke:none;stroke-width:0.75"
       d="m 68.71875,125 c -0.304688,-0.83203 -0.691406,-1.76953 -1.148438,-2.78906 -0.445312,-1.03125 -0.914062,-2.05078 -1.40625,-3.07031 -0.480468,0.97266 -0.949218,1.98047 -1.429687,3.04687 -0.480469,1.03125 -0.890625,1.98047 -1.230469,2.8125 h -3.28125 c 0.164063,-0.44531 0.410156,-0.97265 0.714844,-1.60546 0.328125,-0.6211 0.691406,-1.30079 1.066406,-2.02735 0.386719,-0.72656 0.796875,-1.47656 1.230469,-2.22656 0.421875,-0.78516 0.832031,-1.52344 1.230469,-2.23828 L 60.46875,109.67188 H 63.75 l 2.414062,4.91016 2.53125,-4.91016 h 3.058594 l -3.890625,7.16016 c 0.445313,0.71484 0.878906,1.45312 1.300781,2.22656 0.433594,0.77344 0.820313,1.53515 1.183594,2.28515 0.375,0.72656 0.703125,1.40625 0.984375,2.05079 C 71.613281,124.02735 71.835937,124.55469 72,125 h -3.28125"
       id="path31"
       inkscape:connector-curvature="0" />
  </g>
</svg>
