<?xml version="1.0" encoding="UTF-8" standalone="no"?>
<svg
   xmlns:dc="http://purl.org/dc/elements/1.1/"
   xmlns:cc="http://creativecommons.org/ns#"
   xmlns:rdf="http://www.w3.org/1999/02/22-rdf-syntax-ns#"
   xmlns:svg="http://www.w3.org/2000/svg"
   xmlns="http://www.w3.org/2000/svg"
   xmlns:sodipodi="http://sodipodi.sourceforge.net/DTD/sodipodi-0.dtd"
   xmlns:inkscape="http://www.inkscape.org/namespaces/inkscape"
   width="96"
   height="96"
   viewBox="0 0 96 96"
   version="1.1"
   id="svg2"
   inkscape:version="0.92.2 (5c3e80d, 2017-08-06)"
   sodipodi:docname="audio-x-smart-playlist.svg">
  <metadata
     id="metadata25">
    <rdf:RDF>
      <cc:Work
         rdf:about="">
        <dc:format>image/svg+xml</dc:format>
        <dc:type
           rdf:resource="http://purl.org/dc/dcmitype/StillImage" />
        <dc:title></dc:title>
      </cc:Work>
    </rdf:RDF>
  </metadata>
  <defs
     id="defs23" />
  <sodipodi:namedview
     pagecolor="#ffffff"
     bordercolor="#666666"
     borderopacity="1"
     objecttolerance="10"
     gridtolerance="10"
     guidetolerance="10"
     inkscape:pageopacity="0"
     inkscape:pageshadow="2"
     inkscape:window-width="2416"
     inkscape:window-height="1303"
     id="namedview21"
     showgrid="false"
     inkscape:zoom="1.84375"
     inkscape:cx="-55.59322"
     inkscape:cy="64"
     inkscape:window-x="600"
     inkscape:window-y="298"
     inkscape:window-maximized="0"
     inkscape:current-layer="surface1" />
  <g
     id="surface1"
     transform="translate(0,-32)">
    <path
       style="fill:#2e4c7e;fill-opacity:1;fill-rule:nonzero;stroke:none;stroke-width:0.75"
       d="M 16.007812,32 C 13.945313,32 12,34.033203 12,36.183594 V 123.81641 C 12,125.84961 14.0625,128 16.007812,128 H 79.992187 C 81.9375,128 84,125.84961 84,123.81641 V 59 L 57,32 Z m 0,0"
       id="path5"
       inkscape:connector-curvature="0" />
    <path
       style="fill:#000000;fill-opacity:0.19607801;fill-rule:nonzero;stroke:none;stroke-width:0.75"
       d="M 63,59 84,80 V 59 Z m 0,0"
       id="path7"
       inkscape:connector-curvature="0" />
    <path
       style="fill:#ffffff;fill-opacity:0.39215698;fill-rule:nonzero;stroke:none;stroke-width:0.75"
       d="M 57,32 83.976562,59 H 61.136719 C 59.115234,59 57,56.861328 57,54.839844 Z m 0,0"
       id="path9"
       inkscape:connector-curvature="0" />
    <path
       style="fill:#ffffff;fill-opacity:1;fill-rule:nonzero;stroke:none;stroke-width:0.75"
       d="m 40.40625,72.359375 c -2.332031,0.585937 -4.289063,2.730469 -4.289063,2.730469 l 0.0586,0.0586 3.738281,13.875 c -2.671881,-1.453129 -6.480474,-1.089847 -9.632818,1.195309 -4.078125,2.941406 -5.496094,7.957031 -3.140625,11.191407 2.367187,3.24609 7.570312,3.46875 11.648437,0.52734 C 42,99.605469 43.78125,95.949219 43.136719,92.949219 c -0.01172,-0.09375 -0.04687,-0.1875 -0.07031,-0.28125 l -3.58594,-13.863282 c 0.08203,-0.117187 1.136718,-0.597656 4.511718,-0.832031 3.585938,-0.234375 6.011719,-5.976562 6.011719,-5.976562 0,0 -4.03125,1.546875 -7.195312,0.433593 -0.796875,-0.28125 -1.628907,-0.269531 -2.402344,-0.07031 z m 0,0"
       id="path11"
       inkscape:connector-curvature="0" />
    <path
       style="fill:#ffffff;fill-opacity:1;fill-rule:nonzero;stroke:none;stroke-width:0.75"
       d="m 48,89 v 3 h 21 v -3 z m 0,0"
       id="path13"
       inkscape:connector-curvature="0" />
    <path
       style="fill:#ffffff;fill-opacity:1;fill-rule:nonzero;stroke:none;stroke-width:0.75"
       d="m 48,95 v 3 h 21 v -3 z m 0,0"
       id="path15"
       inkscape:connector-curvature="0" />
    <path
       style="fill:#ffffff;fill-opacity:1;fill-rule:nonzero;stroke:none;stroke-width:0.75"
       d="m 45,101 v 3 h 24 v -3 z m 0,0"
       id="path17"
       inkscape:connector-curvature="0" />
    <path
       style="fill:#ffffff;fill-opacity:1;fill-rule:nonzero;stroke:none;stroke-width:0.75"
       d="m 59.167969,70.660156 c -0.375,0 -0.667969,0.304688 -0.667969,0.667969 v 1.5 C 57.832031,72.980469 57.210937,73.25 56.648437,73.601562 l -1.066406,-1.066406 c -0.257812,-0.257812 -0.679687,-0.257812 -0.9375,0 l -0.9375,0.9375 c -0.257812,0.269531 -0.257812,0.679688 0,0.9375 l 1.066406,1.066406 C 54.410156,76.039062 54.152344,76.660156 54,77.328125 h -1.5 c -0.375,0 -0.667969,0.304687 -0.667969,0.667969 v 1.335937 C 51.832031,79.695312 52.125,80 52.5,80 H 54 c 0.152344,0.667969 0.410156,1.289062 0.773437,1.851562 l -1.066406,1.066407 c -0.257812,0.257812 -0.257812,0.667968 0,0.9375 l 0.9375,0.9375 c 0.257813,0.257812 0.679688,0.257812 0.9375,0 l 1.066406,-1.066407 C 57.210937,84.078125 57.832031,84.347656 58.5,84.5 V 86 c 0,0.363281 0.292969,0.667969 0.667969,0.667969 h 1.335937 c 0.363281,0 0.65625,-0.304688 0.65625,-0.667969 v -1.5 c 0.679688,-0.152344 1.300781,-0.421875 1.863281,-0.773438 l 1.054688,1.066407 c 0.269531,0.257812 0.679687,0.257812 0.9375,0 l 0.9375,-0.9375 c 0.269531,-0.269532 0.269531,-0.679688 0,-0.9375 L 64.898437,81.851562 C 65.25,81.289062 65.507812,80.667969 65.660156,80 h 1.5 c 0.375,0 0.667969,-0.304688 0.667969,-0.667969 v -1.335937 c 0,-0.363282 -0.292969,-0.667969 -0.667969,-0.667969 h -1.5 C 65.507812,76.660156 65.25,76.039062 64.898437,75.476562 l 1.054688,-1.066406 c 0.269531,-0.257812 0.269531,-0.667969 0,-0.9375 l -0.9375,-0.9375 c -0.257813,-0.257812 -0.667969,-0.257812 -0.9375,0 l -1.054688,1.066406 C 62.460937,73.25 61.839844,72.980469 61.160156,72.828125 v -1.5 c 0,-0.363281 -0.292969,-0.667969 -0.65625,-0.667969 z m 0.667968,5.332031 c 1.464844,0 2.660157,1.195313 2.660157,2.671875 0,1.476563 -1.195313,2.671875 -2.660157,2.671875 -1.476562,0 -2.671875,-1.195312 -2.671875,-2.671875 0,-1.476562 1.195313,-2.671875 2.671875,-2.671875 z m 0,0"
       id="path19"
       inkscape:connector-curvature="0" />
  </g>
</svg>
