<?xml version="1.0" encoding="UTF-8" standalone="no"?>
<svg
   xmlns:dc="http://purl.org/dc/elements/1.1/"
   xmlns:cc="http://creativecommons.org/ns#"
   xmlns:rdf="http://www.w3.org/1999/02/22-rdf-syntax-ns#"
   xmlns:svg="http://www.w3.org/2000/svg"
   xmlns="http://www.w3.org/2000/svg"
   xmlns:sodipodi="http://sodipodi.sourceforge.net/DTD/sodipodi-0.dtd"
   xmlns:inkscape="http://www.inkscape.org/namespaces/inkscape"
   width="96"
   height="96"
   viewBox="0 0 96 96"
   id="svg2"
   version="1.1"
   inkscape:version="0.92.2 (5c3e80d, 2017-08-06)"
   sodipodi:docname="encrypted.svg">
  <metadata
     id="metadata14">
    <rdf:RDF>
      <cc:Work
         rdf:about="">
        <dc:format>image/svg+xml</dc:format>
        <dc:type
           rdf:resource="http://purl.org/dc/dcmitype/StillImage" />
        <dc:title></dc:title>
      </cc:Work>
    </rdf:RDF>
  </metadata>
  <defs
     id="defs12" />
  <sodipodi:namedview
     pagecolor="#ffffff"
     bordercolor="#666666"
     borderopacity="1"
     objecttolerance="10"
     gridtolerance="10"
     guidetolerance="10"
     inkscape:pageopacity="0"
     inkscape:pageshadow="2"
     inkscape:window-width="3738"
     inkscape:window-height="2041"
     id="namedview10"
     showgrid="true"
     inkscape:zoom="8"
     inkscape:cx="-1.222656"
     inkscape:cy="62.105063"
     inkscape:window-x="102"
     inkscape:window-y="55"
     inkscape:window-maximized="1"
     inkscape:current-layer="svg2">
    <inkscape:grid
       type="xygrid"
       id="grid2991"
       empspacing="5"
       visible="true"
       enabled="true"
       snapvisiblegridlinesonly="true" />
  </sodipodi:namedview>
  <path
     style="fill:#dcdcdc;fill-opacity:1;stroke-width:0.75"
     d="M 16.007664,8.91e-4 C 13.945242,9.345e-4 12,2.030364 12,4.182093 V 91.81881 C 12,93.848265 14.062422,96 16.007664,96 H 79.98966 c 1.945245,0 4.007662,-2.151735 4.007662,-4.18119 L 84,27 57,0 Z"
     id="path4-1"
     inkscape:connector-curvature="0"
     sodipodi:nodetypes="ssssssccs" />
  <path
     style="fill:#000000;fill-opacity:0.19599998;stroke-width:0.75"
     d="M 63,27 84,48 V 27 Z"
     id="path6-4"
     inkscape:connector-curvature="0"
     sodipodi:nodetypes="cccc" />
  <path
     style="fill:#ffffff;fill-opacity:0.39200003;stroke-width:0.75"
     d="M 57.000918,8.91e-4 83.9757,27 H 61.135914 c -2.018853,0 -4.134996,-2.14047 -4.134996,-4.159322 z"
     id="path8-6"
     inkscape:connector-curvature="0"
     sodipodi:nodetypes="ccssc" />
  <path
     style="color:#000000;fill:#888888;fill-opacity:1;stroke-width:0.75"
     inkscape:connector-curvature="0"
     id="path30"
     d="m 48.000063,33 c 0,0 14.986233,-0.949635 14.999937,9 v 9 c 0,0 3.000069,0.19752 3.000063,2.45445 l -6.6e-5,20.965815 C 65.999793,76.313535 64.162398,77.99979 62.142852,78 H 33.857127 c -2.019531,-2.1e-4 -3.856941,-1.686465 -3.85713,-3.579735 l 6.6e-5,-20.965815 C 30.000069,51.197508 33,51 33,51 v -9 c 0,-9 15.000075,-9 15.000063,-9 z m 0,6.136333 c 0,0 -9.000063,-0.347883 -9.000063,7.123105 V 51 h 18 v -4.704606 c 0,-7.47099 -8.999937,-7.159061 -8.999937,-7.159061 z"
     sodipodi:nodetypes="cccsccccsccccsccsc" />
</svg>
