<?xml version="1.0" encoding="UTF-8" standalone="no"?>
<svg
   xmlns:dc="http://purl.org/dc/elements/1.1/"
   xmlns:cc="http://creativecommons.org/ns#"
   xmlns:rdf="http://www.w3.org/1999/02/22-rdf-syntax-ns#"
   xmlns:svg="http://www.w3.org/2000/svg"
   xmlns="http://www.w3.org/2000/svg"
   xmlns:sodipodi="http://sodipodi.sourceforge.net/DTD/sodipodi-0.dtd"
   xmlns:inkscape="http://www.inkscape.org/namespaces/inkscape"
   width="96"
   height="96"
   viewBox="0 0 96 96"
   id="svg2"
   version="1.1"
   inkscape:version="0.92.2 (5c3e80d, 2017-08-06)"
   sodipodi:docname="encrypted-key.svg">
  <metadata
     id="metadata14">
    <rdf:RDF>
      <cc:Work
         rdf:about="">
        <dc:format>image/svg+xml</dc:format>
        <dc:type
           rdf:resource="http://purl.org/dc/dcmitype/StillImage" />
        <dc:title></dc:title>
      </cc:Work>
    </rdf:RDF>
  </metadata>
  <defs
     id="defs12" />
  <sodipodi:namedview
     pagecolor="#ffffff"
     bordercolor="#666666"
     borderopacity="1"
     objecttolerance="10"
     gridtolerance="10"
     guidetolerance="10"
     inkscape:pageopacity="0"
     inkscape:pageshadow="2"
     inkscape:window-width="3738"
     inkscape:window-height="2041"
     id="namedview10"
     showgrid="true"
     inkscape:zoom="3.6875"
     inkscape:cx="-61.555059"
     inkscape:cy="-15.137462"
     inkscape:window-x="102"
     inkscape:window-y="55"
     inkscape:window-maximized="1"
     inkscape:current-layer="svg2">
    <inkscape:grid
       type="xygrid"
       id="grid2991"
       empspacing="5"
       visible="true"
       enabled="true"
       snapvisiblegridlinesonly="true" />
  </sodipodi:namedview>
  <path
     style="fill:#dcdcdc;fill-opacity:1;stroke-width:0.75"
     d="M 16.007664,8.91e-4 C 13.945242,9.36e-4 12,2.030364 12,4.182093 V 91.81881 C 12,93.848265 14.062422,96 16.007664,96 H 79.98966 c 1.945245,0 4.007662,-2.151735 4.007662,-4.18119 L 84,27 57,0 Z"
     id="path4-1"
     inkscape:connector-curvature="0"
     sodipodi:nodetypes="ssssssccs" />
  <path
     style="fill:#000000;fill-opacity:0.19599998;stroke-width:0.75"
     d="M 63,27 84,48 V 27 Z"
     id="path6-4"
     inkscape:connector-curvature="0"
     sodipodi:nodetypes="cccc" />
  <path
     style="fill:#ffffff;fill-opacity:0.39200003;stroke-width:0.75"
     d="M 57.000918,8.91e-4 83.9757,27 H 61.135914 c -2.018853,0 -4.134996,-2.14047 -4.134996,-4.15932 z"
     id="path8-6"
     inkscape:connector-curvature="0"
     sodipodi:nodetypes="ccssc" />
  <path
     style="fill:#888888;fill-opacity:1;stroke-width:0.75"
     inkscape:connector-curvature="0"
     d="m 57.749826,36.000162 c -6.213168,0 -11.249934,4.676967 -11.249934,10.446264 0,1.802997 0.493431,3.50367 1.359363,4.983828 0.003,0.0039 -0.003,0.0168 0,0.0219 L 27,70.821495 V 75 h 4.499973 l 1.499994,-1.39278 v -2.785725 h 2.999985 l 1.499991,-1.392885 h 2.999982 l 1.499991,-1.392825 V 65.25012 l 1.499991,-1.392885 h 2.999985 V 61.07157 l 5.859342,-5.44083 c 0.0057,0.003 0.0174,-0.003 0.0237,0 1.594041,0.804075 3.425547,1.262265 5.367165,1.262265 C 63.963228,56.893005 69,52.215984 69,46.446633 v -0.0438 C 68.979921,40.646439 63.949167,36 57.750015,36 Z m 2.249991,5.571381 c 1.653105,0 2.994708,1.250619 2.999985,2.785662 0,1.53849 -1.343139,2.785662 -2.999985,2.785662 -1.656849,0 -2.999985,-1.247172 -2.999985,-2.785662 0,-1.538541 1.343136,-2.785662 2.999985,-2.785662 z"
     id="path30-2" />
</svg>
