<?xml version="1.0" encoding="UTF-8" standalone="no"?>
<svg
   xmlns:dc="http://purl.org/dc/elements/1.1/"
   xmlns:cc="http://creativecommons.org/ns#"
   xmlns:rdf="http://www.w3.org/1999/02/22-rdf-syntax-ns#"
   xmlns:svg="http://www.w3.org/2000/svg"
   xmlns="http://www.w3.org/2000/svg"
   xmlns:sodipodi="http://sodipodi.sourceforge.net/DTD/sodipodi-0.dtd"
   xmlns:inkscape="http://www.inkscape.org/namespaces/inkscape"
   width="96"
   height="96"
   viewBox="0 0 96 96"
   version="1.1"
   id="svg15"
   sodipodi:docname="extension.svg"
   inkscape:version="0.92.2 (5c3e80d, 2017-08-06)">
  <metadata
     id="metadata21">
    <rdf:RDF>
      <cc:Work
         rdf:about="">
        <dc:format>image/svg+xml</dc:format>
        <dc:type
           rdf:resource="http://purl.org/dc/dcmitype/StillImage" />
        <dc:title></dc:title>
      </cc:Work>
    </rdf:RDF>
  </metadata>
  <defs
     id="defs19" />
  <sodipodi:namedview
     pagecolor="#ffffff"
     bordercolor="#666666"
     borderopacity="1"
     objecttolerance="10"
     gridtolerance="10"
     guidetolerance="10"
     inkscape:pageopacity="0"
     inkscape:pageshadow="2"
     inkscape:window-width="2155"
     inkscape:window-height="1141"
     id="namedview17"
     showgrid="false"
     inkscape:zoom="1.84375"
     inkscape:cx="-54.508475"
     inkscape:cy="64"
     inkscape:window-x="102"
     inkscape:window-y="55"
     inkscape:window-maximized="0"
     inkscape:current-layer="svg15" />
  <g
     id="surface1"
     transform="scale(0.75)">
    <path
       style="fill:#878787;fill-opacity:1;fill-rule:nonzero;stroke:none"
       d="M 21.34375,0 C 18.59375,0 16,2.710938 16,5.578125 V 122.42188 C 16,125.13281 18.75,128 21.34375,128 h 85.3125 C 109.25,128 112,125.13281 112,122.42188 V 36 L 76,0 Z m 0,0"
       id="path2"
       inkscape:connector-curvature="0" />
    <path
       style="fill:#000000;fill-opacity:0.19607801;fill-rule:nonzero;stroke:none"
       d="m 84,36 28,28 V 36 Z m 0,0"
       id="path4"
       inkscape:connector-curvature="0" />
    <path
       style="fill:#ffffff;fill-opacity:0.39215698;fill-rule:nonzero;stroke:none"
       d="m 76,0 35.96875,36 H 81.515625 C 78.820312,36 76,33.148438 76,30.453125 Z m 0,0"
       id="path6"
       inkscape:connector-curvature="0" />
    <path
       style="fill:#ffffff;fill-opacity:1;fill-rule:nonzero;stroke:none"
       d="m 48,60 v 16 c 0,-2.953125 2.390625,-5.34375 5.328125,-5.34375 2.953125,0 5.34375,2.390625 5.34375,5.34375 0,2.9375 -2.390625,5.328125 -5.34375,5.328125 C 50.390625,81.328125 48,78.9375 48,76 v 16 h 16 c -2.953125,0 -5.328125,-2.390625 -5.328125,-5.34375 0,-2.9375 2.375,-5.328125 5.328125,-5.328125 2.953125,0 5.328125,2.390625 5.328125,5.328125 C 69.328125,89.609375 66.953125,92 64,92 H 80 V 60 Z m 0,0"
       id="path8"
       inkscape:connector-curvature="0" />
    <path
       style="fill:#ffffff;fill-opacity:1;fill-rule:nonzero;stroke:none"
       d="M 69.328125,54.65625 C 69.328125,57.609375 66.9375,60 64,60 c -2.953125,0 -5.328125,-2.390625 -5.328125,-5.34375 0,-2.9375 2.375,-5.328125 5.328125,-5.328125 2.9375,0 5.328125,2.390625 5.328125,5.328125 z m 0,0"
       id="path10"
       inkscape:connector-curvature="0" />
    <path
       style="fill:#ffffff;fill-opacity:1;fill-rule:nonzero;stroke:none"
       d="m 90.671875,76 c 0,2.9375 -2.390625,5.328125 -5.34375,5.328125 C 82.390625,81.328125 80,78.9375 80,76 c 0,-2.953125 2.390625,-5.34375 5.328125,-5.34375 2.953125,0 5.34375,2.390625 5.34375,5.34375 z m 0,0"
       id="path12"
       inkscape:connector-curvature="0" />
  </g>
</svg>
