<?xml version="1.0" encoding="UTF-8" standalone="no"?>
<svg
   xmlns:dc="http://purl.org/dc/elements/1.1/"
   xmlns:cc="http://creativecommons.org/ns#"
   xmlns:rdf="http://www.w3.org/1999/02/22-rdf-syntax-ns#"
   xmlns:svg="http://www.w3.org/2000/svg"
   xmlns="http://www.w3.org/2000/svg"
   xmlns:sodipodi="http://sodipodi.sourceforge.net/DTD/sodipodi-0.dtd"
   xmlns:inkscape="http://www.inkscape.org/namespaces/inkscape"
   width="96"
   height="96"
   viewBox="0 0 96 96"
   version="1.1"
   id="svg15"
   sodipodi:docname="gnome-mime-text-x-makefile.svg"
   inkscape:version="0.92.2 (5c3e80d, 2017-08-06)">
  <metadata
     id="metadata21">
    <rdf:RDF>
      <cc:Work
         rdf:about="">
        <dc:format>image/svg+xml</dc:format>
        <dc:type
           rdf:resource="http://purl.org/dc/dcmitype/StillImage" />
        <dc:title></dc:title>
      </cc:Work>
    </rdf:RDF>
  </metadata>
  <defs
     id="defs19" />
  <sodipodi:namedview
     pagecolor="#ffffff"
     bordercolor="#666666"
     borderopacity="1"
     objecttolerance="10"
     gridtolerance="10"
     guidetolerance="10"
     inkscape:pageopacity="0"
     inkscape:pageshadow="2"
     inkscape:window-width="2323"
     inkscape:window-height="1387"
     id="namedview17"
     showgrid="false"
     inkscape:zoom="1.84375"
     inkscape:cx="-55.59322"
     inkscape:cy="62.915254"
     inkscape:window-x="102"
     inkscape:window-y="55"
     inkscape:window-maximized="0"
     inkscape:current-layer="svg15" />
  <g
     id="surface1"
     transform="scale(0.75)">
    <path
       style="fill:#dcdcdc;fill-opacity:1;fill-rule:nonzero;stroke:none"
       d="M 21.34375,0 C 18.59375,0 16,2.710938 16,5.578125 V 122.42188 C 16,125.13281 18.75,128 21.34375,128 h 85.3125 C 109.25,128 112,125.13281 112,122.42188 V 36 L 76,0 Z m 0,0"
       id="path2"
       inkscape:connector-curvature="0" />
    <path
       style="fill:#000000;fill-opacity:0.19607801;fill-rule:nonzero;stroke:none"
       d="m 84,36 28,28 V 36 Z m 0,0"
       id="path4"
       inkscape:connector-curvature="0" />
    <path
       style="fill:#ffffff;fill-opacity:0.39215698;fill-rule:nonzero;stroke:none"
       d="m 76,0 35.96875,36 H 81.515625 C 78.820312,36 76,33.148438 76,30.453125 Z m 0,0"
       id="path6"
       inkscape:connector-curvature="0" />
    <path
       style="fill:#878787;fill-opacity:1;fill-rule:nonzero;stroke:none"
       d="m 81.015625,58.828125 c 3.015625,0.921875 0.375,5.234375 4.703125,7.34375 4.9375,2.40625 7.390625,-3.6875 10.359375,0.671875 2.96875,4.34375 -4.09375,3.671875 -3.90625,8.78125 0.203125,5.109375 7.203125,4.03125 4.578125,8.546875 -2.625,4.5 -5.546875,-1.421875 -10.28125,1.28125 -4.75,2.703125 -0.203125,7.703125 -5.796875,7.875 -5.59375,0.171875 -1.4375,-5.078125 -6.390625,-7.5 -4.9375,-2.40625 -7.390625,3.6875 -10.359375,-0.65625 C 60.953125,80.8125 68.015625,81.5 67.828125,76.375 67.625,71.265625 60.625,72.34375 63.25,67.84375 c 2.625,-4.515625 5.546875,1.40625 10.28125,-1.296875 4.75,-2.703125 0.203125,-7.703125 5.796875,-7.875 0.703125,-0.01563 1.25,0.01563 1.6875,0.15625 z m -0.0625,13.015625 c -2.484375,-0.484375 -4.9375,0.984375 -5.46875,3.28125 -0.53125,2.28125 1.0625,4.546875 3.5625,5.03125 2.484375,0.484375 4.9375,-0.96875 5.46875,-3.265625 0.53125,-2.296875 -1.0625,-4.5625 -3.5625,-5.046875 z m 0,0"
       id="path8"
       inkscape:connector-curvature="0" />
    <path
       style="fill:#878787;fill-opacity:1;fill-rule:nonzero;stroke:none"
       d="m 57.015625,37.484375 c 3.015625,0.921875 0.375,5.234375 4.703125,7.34375 C 66.65625,47.25 69.109375,41.15625 72.078125,45.5 c 2.96875,4.34375 -4.09375,3.671875 -3.90625,8.796875 C 68.375,59.40625 75.375,58.3125 72.75,62.828125 70.125,67.34375 67.203125,61.421875 62.46875,64.125 c -4.75,2.703125 -0.203125,7.703125 -5.796875,7.875 -5.59375,0.15625 -1.4375,-5.078125 -6.390625,-7.5 -4.9375,-2.40625 -7.390625,3.671875 -10.359375,-0.671875 -2.96875,-4.34375 4.09375,-3.671875 3.90625,-8.78125 C 43.625,49.9375 36.625,51.015625 39.25,46.5 41.875,41.984375 44.796875,47.90625 49.53125,45.203125 54.28125,42.5 49.734375,37.5 55.328125,37.34375 c 0.703125,-0.03125 1.25,0.01563 1.6875,0.140625 z m -0.0625,13.03125 c -2.484375,-0.5 -4.9375,0.96875 -5.46875,3.265625 -0.53125,2.296875 1.0625,4.5625 3.5625,5.046875 2.484375,0.484375 4.9375,-0.984375 5.46875,-3.28125 C 61.046875,53.25 59.453125,51 56.953125,50.515625 Z m 0,0"
       id="path10"
       inkscape:connector-curvature="0" />
    <path
       style="fill:#878787;fill-opacity:1;fill-rule:nonzero;stroke:none"
       d="m 49.015625,66.828125 c 3.015625,0.921875 0.375,5.234375 4.703125,7.34375 4.9375,2.40625 7.390625,-3.6875 10.359375,0.671875 2.96875,4.34375 -4.09375,3.671875 -3.90625,8.78125 0.203125,5.109375 7.203125,4.03125 4.578125,8.546875 -2.625,4.5 -5.546875,-1.421875 -10.28125,1.28125 -4.75,2.703125 -0.203125,7.703125 -5.796875,7.875005 -5.59375,0.17187 -1.4375,-5.07813 -6.390625,-7.500005 -4.9375,-2.40625 -7.390625,3.6875 -10.359375,-0.65625 C 28.953125,88.8125 36.015625,89.5 35.828125,84.375 35.625,79.265625 28.625,80.34375 31.25,75.84375 c 2.625,-4.515625 5.546875,1.40625 10.28125,-1.296875 4.75,-2.703125 0.203125,-7.703125 5.796875,-7.875 0.703125,-0.01563 1.25,0.01563 1.6875,0.15625 z m -0.0625,13.015625 c -2.484375,-0.484375 -4.9375,0.984375 -5.46875,3.28125 -0.53125,2.28125 1.0625,4.546875 3.5625,5.03125 2.484375,0.484375 4.9375,-0.96875 5.46875,-3.265625 0.53125,-2.296875 -1.0625,-4.5625 -3.5625,-5.046875 z m 0,0"
       id="path12"
       inkscape:connector-curvature="0" />
  </g>
</svg>
