<?xml version="1.0" encoding="UTF-8" standalone="no"?>
<svg
   xmlns:dc="http://purl.org/dc/elements/1.1/"
   xmlns:cc="http://creativecommons.org/ns#"
   xmlns:rdf="http://www.w3.org/1999/02/22-rdf-syntax-ns#"
   xmlns:svg="http://www.w3.org/2000/svg"
   xmlns="http://www.w3.org/2000/svg"
   xmlns:sodipodi="http://sodipodi.sourceforge.net/DTD/sodipodi-0.dtd"
   xmlns:inkscape="http://www.inkscape.org/namespaces/inkscape"
   width="96"
   height="96"
   viewBox="0 0 96 96"
   version="1.1"
   id="svg23"
   sodipodi:docname="libreoffice-extension.svg"
   inkscape:version="0.92.2 (5c3e80d, 2017-08-06)">
  <metadata
     id="metadata29">
    <rdf:RDF>
      <cc:Work
         rdf:about="">
        <dc:format>image/svg+xml</dc:format>
        <dc:type
           rdf:resource="http://purl.org/dc/dcmitype/StillImage" />
        <dc:title></dc:title>
      </cc:Work>
    </rdf:RDF>
  </metadata>
  <defs
     id="defs27" />
  <sodipodi:namedview
     pagecolor="#ffffff"
     bordercolor="#666666"
     borderopacity="1"
     objecttolerance="10"
     gridtolerance="10"
     guidetolerance="10"
     inkscape:pageopacity="0"
     inkscape:pageshadow="2"
     inkscape:window-width="2442"
     inkscape:window-height="1402"
     id="namedview25"
     showgrid="false"
     inkscape:zoom="1.84375"
     inkscape:cx="-54.508475"
     inkscape:cy="64"
     inkscape:window-x="378"
     inkscape:window-y="264"
     inkscape:window-maximized="0"
     inkscape:current-layer="svg23" />
  <g
     id="surface1"
     transform="scale(0.75)">
    <path
       style="fill:#878787;fill-opacity:1;fill-rule:nonzero;stroke:none"
       d="M 21.34375,0 C 18.59375,0 16,2.710938 16,5.578125 V 122.42188 C 16,125.13281 18.75,128 21.34375,128 h 85.3125 C 109.25,128 112,125.13281 112,122.42188 V 36 L 76,0 Z m 0,0"
       id="path2"
       inkscape:connector-curvature="0" />
    <path
       style="fill:#000000;fill-opacity:0.19607801;fill-rule:nonzero;stroke:none"
       d="m 84,36 28,28 V 36 Z m 0,0"
       id="path4"
       inkscape:connector-curvature="0" />
    <path
       style="fill:#ffffff;fill-opacity:0.39215698;fill-rule:nonzero;stroke:none"
       d="m 76,0 35.96875,36 H 81.515625 C 78.820312,36 76,33.148438 76,30.453125 Z m 0,0"
       id="path6"
       inkscape:connector-curvature="0" />
    <path
       style="fill:#ffffff;fill-opacity:1;fill-rule:nonzero;stroke:none"
       d="m 48,52 v 16 c 0,-2.953125 2.390625,-5.34375 5.328125,-5.34375 2.953125,0 5.34375,2.390625 5.34375,5.34375 0,2.9375 -2.390625,5.328125 -5.34375,5.328125 C 50.390625,73.328125 48,70.9375 48,68 v 16 h 16 c -2.953125,0 -5.328125,-2.390625 -5.328125,-5.34375 0,-2.9375 2.375,-5.328125 5.328125,-5.328125 2.953125,0 5.328125,2.390625 5.328125,5.328125 C 69.328125,81.609375 66.953125,84 64,84 H 80 V 52 Z m 0,0"
       id="path8"
       inkscape:connector-curvature="0" />
    <path
       style="fill:#ffffff;fill-opacity:1;fill-rule:nonzero;stroke:none"
       d="M 69.328125,46.65625 C 69.328125,49.609375 66.9375,52 64,52 c -2.953125,0 -5.328125,-2.390625 -5.328125,-5.34375 0,-2.9375 2.375,-5.328125 5.328125,-5.328125 2.9375,0 5.328125,2.390625 5.328125,5.328125 z m 0,0"
       id="path10"
       inkscape:connector-curvature="0" />
    <path
       style="fill:#ffffff;fill-opacity:1;fill-rule:nonzero;stroke:none"
       d="m 90.671875,68 c 0,2.9375 -2.390625,5.328125 -5.34375,5.328125 C 82.390625,73.328125 80,70.9375 80,68 c 0,-2.953125 2.390625,-5.34375 5.328125,-5.34375 2.953125,0 5.34375,2.390625 5.34375,5.34375 z m 0,0"
       id="path12"
       inkscape:connector-curvature="0" />
    <path
       style="fill:#000000;fill-opacity:0.19607801;fill-rule:nonzero;stroke:none"
       d="m 16,96 v 26.67188 C 16,125.26563 18.75,128 21.328125,128 H 106.67188 C 109.25,128 112,125.26563 112,122.67188 V 96 Z m 0,0"
       id="path14"
       inkscape:connector-curvature="0" />
    <path
       style="fill:#ffffff;fill-opacity:1;fill-rule:nonzero;stroke:none"
       d="m 40.28125,113.10938 c 0,1.0625 0.03125,2.0625 0.117188,2.98437 0.101562,0.91406 0.28125,1.71094 0.546874,2.39063 0.28125,0.67968 0.679688,1.21093 1.179688,1.60937 0.492188,0.39844 1.15625,0.59375 1.984375,0.59375 0.8125,0 1.460937,-0.19531 1.960937,-0.59375 0.515626,-0.39844 0.914063,-0.92969 1.179688,-1.60937 0.28125,-0.71094 0.460938,-1.50782 0.546875,-2.42188 0.09375,-0.91406 0.148437,-1.89062 0.148437,-2.95312 0,-1.03907 -0.05469,-2.02344 -0.148437,-2.92969 -0.08594,-0.94531 -0.265625,-1.74219 -0.546875,-2.42188 -0.265625,-0.67968 -0.648438,-1.21093 -1.148438,-1.60937 -0.5,-0.39844 -1.15625,-0.59375 -1.992187,-0.59375 -0.828125,0 -1.492187,0.19531 -1.984375,0.59375 -0.5,0.39844 -0.898438,0.94531 -1.179688,1.64062 -0.265624,0.67969 -0.445312,1.47657 -0.546874,2.39063 -0.08594,0.90625 -0.117188,1.89062 -0.117188,2.92969 m -4.890625,0 c 0,-3.72657 0.78125,-6.54688 2.304687,-8.4375 1.539063,-1.92188 3.679688,-2.86719 6.414063,-2.86719 2.835937,0 5.007813,0.94531 6.484375,2.86719 1.492188,1.89062 2.242188,4.71093 2.242188,8.4375 0,3.75 -0.765626,6.57031 -2.273438,8.49218 -1.507812,1.89063 -3.648438,2.83594 -6.414062,2.83594 -2.835938,0 -5.007813,-0.94531 -6.515626,-2.83594 -1.492187,-1.92187 -2.242187,-4.74218 -2.242187,-8.49218"
       id="path16"
       inkscape:connector-curvature="0" />
    <path
       style="fill:#ffffff;fill-opacity:1;fill-rule:nonzero;stroke:none"
       d="m 67.804688,123.97656 c -0.492188,-1.17968 -1.109376,-2.50781 -1.835938,-3.95312 -0.710938,-1.45313 -1.460938,-2.89844 -2.242188,-4.34375 -0.742187,1.38281 -1.507812,2.80469 -2.25,4.3125 -0.765624,1.46094 -1.414062,2.80469 -1.960937,3.98437 H 54.3125 c 0.265625,-0.63281 0.640625,-1.38281 1.140625,-2.27343 0.515625,-0.88282 1.078125,-1.84375 1.679687,-2.86719 0.625,-1.03125 1.273438,-2.09375 1.953126,-3.15625 0.679687,-1.10938 1.328124,-2.15625 1.953124,-3.16406 l -6.328124,-10.23438 h 5.1875 l 3.828124,6.95313 4.03125,-6.95313 h 4.84375 l -6.171874,10.13281 c 0.695312,1.01563 1.390624,2.05469 2.078124,3.14844 0.679688,1.10156 1.304688,2.17969 1.867188,3.23438 0.601562,1.03125 1.132812,1.99218 1.5625,2.90625 0.445312,0.89062 0.796875,1.64062 1.0625,2.27343 h -5.195312"
       id="path18"
       inkscape:connector-curvature="0" />
    <path
       style="fill:#ffffff;fill-opacity:1;fill-rule:nonzero;stroke:none"
       d="m 92,102.28125 v 3.58594 h -6.382812 v 18.10937 h -4.84375 V 105.86719 H 74.40625 v -3.58594 H 92"
       id="path20"
       inkscape:connector-curvature="0" />
  </g>
</svg>
