<?xml version="1.0" encoding="UTF-8" standalone="no"?>
<svg
   xmlns:dc="http://purl.org/dc/elements/1.1/"
   xmlns:cc="http://creativecommons.org/ns#"
   xmlns:rdf="http://www.w3.org/1999/02/22-rdf-syntax-ns#"
   xmlns:svg="http://www.w3.org/2000/svg"
   xmlns="http://www.w3.org/2000/svg"
   xmlns:sodipodi="http://sodipodi.sourceforge.net/DTD/sodipodi-0.dtd"
   xmlns:inkscape="http://www.inkscape.org/namespaces/inkscape"
   width="96"
   height="96"
   viewBox="0 0 96 96"
   version="1.1"
   id="svg13"
   sodipodi:docname="text-x-csharp.svg"
   inkscape:version="0.92.2 (5c3e80d, 2017-08-06)">
  <metadata
     id="metadata19">
    <rdf:RDF>
      <cc:Work
         rdf:about="">
        <dc:format>image/svg+xml</dc:format>
        <dc:type
           rdf:resource="http://purl.org/dc/dcmitype/StillImage" />
        <dc:title></dc:title>
      </cc:Work>
    </rdf:RDF>
  </metadata>
  <defs
     id="defs17" />
  <sodipodi:namedview
     pagecolor="#ffffff"
     bordercolor="#666666"
     borderopacity="1"
     objecttolerance="10"
     gridtolerance="10"
     guidetolerance="10"
     inkscape:pageopacity="0"
     inkscape:pageshadow="2"
     inkscape:window-width="2400"
     inkscape:window-height="1537"
     id="namedview15"
     showgrid="false"
     inkscape:zoom="1.84375"
     inkscape:cx="-55.59322"
     inkscape:cy="64"
     inkscape:window-x="102"
     inkscape:window-y="55"
     inkscape:window-maximized="0"
     inkscape:current-layer="svg13" />
  <g
     id="surface1"
     transform="scale(0.75)">
    <path
       style="fill:#2b2b2b;fill-opacity:1;fill-rule:nonzero;stroke:none"
       d="M 21.34375,0 C 18.59375,0 16,2.710938 16,5.578125 V 122.42188 C 16,125.13281 18.75,128 21.34375,128 h 85.3125 C 109.25,128 112,125.13281 112,122.42188 V 36 L 76,0 Z m 0,0"
       id="path2"
       inkscape:connector-curvature="0" />
    <path
       style="fill:#000000;fill-opacity:0.19607801;fill-rule:nonzero;stroke:none"
       d="m 84,36 28,28 V 36 Z m 0,0"
       id="path4"
       inkscape:connector-curvature="0" />
    <path
       style="fill:#ffffff;fill-opacity:0.39215698;fill-rule:nonzero;stroke:none"
       d="m 76,0 35.96875,36 H 81.515625 C 78.820312,36 76,33.148438 76,30.453125 Z m 0,0"
       id="path6"
       inkscape:connector-curvature="0" />
    <path
       style="fill:#dcdcdc;fill-opacity:1;fill-rule:nonzero;stroke:none"
       d="m 29.328125,74.3125 c 0,-2.5625 0.40625,-5.09375 1.203125,-7.59375 C 31.34375,64.203125 32.5,61.953125 34,59.96875 35.53125,58 37.390625,56.390625 39.59375,55.171875 c 2.203125,-1.21875 4.71875,-1.84375 7.546875,-1.84375 3.3125,0 6.171875,0.859375 8.59375,2.546875 2.4375,1.703125 4.234375,3.921875 5.390625,6.640625 l -5.546875,4.328125 c -0.421875,-1.1875 -0.96875,-2.171875 -1.625,-2.96875 -0.671875,-0.828125 -1.40625,-1.46875 -2.203125,-1.953125 -0.765625,-0.46875 -1.578125,-0.8125 -2.40625,-1 C 48.5,60.6875 47.703125,60.5625 46.921875,60.5625 c -1.703125,0 -3.203125,0.421875 -4.5,1.25 -1.28125,0.828125 -2.375,1.90625 -3.25,3.25 -0.828125,1.3125 -1.484375,2.8125 -1.9375,4.515625 -0.40625,1.65625 -0.625,3.3125 -0.625,4.96875 0,1.859375 0.25,3.65625 0.734375,5.390625 0.53125,1.703125 1.234375,3.203125 2.15625,4.5 0.9375,1.3125 2.046875,2.359375 3.34375,3.140625 1.296875,0.796875 2.703125,1.1875 4.25,1.1875 0.796875,0 1.609375,-0.109375 2.453125,-0.34375 0.84375,-0.25 1.640625,-0.625 2.40625,-1.125 C 52.765625,86.78125 53.5,86.125 54.15625,85.328125 54.8125,84.5 55.359375,83.515625 55.78125,82.375 l 5.921875,3.84375 c -0.5625,1.578125 -1.390625,2.984375 -2.46875,4.21875 -1.046875,1.171875 -2.25,2.1875 -3.609375,3.015625 C 54.265625,94.28125 52.828125,94.90625 51.328125,95.34375 49.828125,95.78125 48.34375,96 46.875,96 44.296875,96 41.921875,95.375 39.75,94.109375 37.625,92.84375 35.78125,91.203125 34.203125,89.1875 32.671875,87.125 31.46875,84.8125 30.59375,82.25 29.75,79.640625 29.328125,77 29.328125,74.3125"
       id="path8"
       inkscape:connector-curvature="0" />
    <path
       style="fill:#dcdcdc;fill-opacity:1;fill-rule:nonzero;stroke:none"
       d="m 98.671875,70.515625 h -7.59375 l -1.734375,8.125 h 6.859375 V 84.5625 H 88.09375 l -2.421875,11.078125 h -5.65625 L 82.484375,84.5625 h -6.28125 L 73.84375,95.640625 H 68.1875 L 70.59375,84.5625 h -5.859375 v -5.921875 h 7.125 l 1.71875,-8.125 H 67.1875 v -5.5625 h 7.59375 l 2.46875,-11.375 h 5.65625 l -2.515625,11.375 h 6.28125 l 2.40625,-11.375 h 5.65625 l -2.453125,11.375 h 6.390625 v 5.5625 m -14.9375,8.125 1.6875,-8.125 H 79.1875 l -1.734375,8.125 h 6.28125"
       id="path10"
       inkscape:connector-curvature="0" />
  </g>
</svg>
