<?xml version="1.0" encoding="UTF-8" standalone="no"?>
<svg
   xmlns:dc="http://purl.org/dc/elements/1.1/"
   xmlns:cc="http://creativecommons.org/ns#"
   xmlns:rdf="http://www.w3.org/1999/02/22-rdf-syntax-ns#"
   xmlns:svg="http://www.w3.org/2000/svg"
   xmlns="http://www.w3.org/2000/svg"
   xmlns:sodipodi="http://sodipodi.sourceforge.net/DTD/sodipodi-0.dtd"
   xmlns:inkscape="http://www.inkscape.org/namespaces/inkscape"
   width="96"
   height="96"
   viewBox="0 0 96 96"
   version="1.1"
   id="svg15"
   sodipodi:docname="text-x-readme.svg"
   inkscape:version="0.92.2 (5c3e80d, 2017-08-06)">
  <metadata
     id="metadata21">
    <rdf:RDF>
      <cc:Work
         rdf:about="">
        <dc:format>image/svg+xml</dc:format>
        <dc:type
           rdf:resource="http://purl.org/dc/dcmitype/StillImage" />
        <dc:title></dc:title>
      </cc:Work>
    </rdf:RDF>
  </metadata>
  <defs
     id="defs19" />
  <sodipodi:namedview
     pagecolor="#ffffff"
     bordercolor="#666666"
     borderopacity="1"
     objecttolerance="10"
     gridtolerance="10"
     guidetolerance="10"
     inkscape:pageopacity="0"
     inkscape:pageshadow="2"
     inkscape:window-width="2251"
     inkscape:window-height="1199"
     id="namedview17"
     showgrid="false"
     inkscape:zoom="1.84375"
     inkscape:cx="-54.508475"
     inkscape:cy="64"
     inkscape:window-x="102"
     inkscape:window-y="55"
     inkscape:window-maximized="0"
     inkscape:current-layer="svg15" />
  <g
     id="surface1"
     transform="scale(0.75)">
    <path
       style="fill:#dcdcdc;fill-opacity:1;fill-rule:nonzero;stroke:none"
       d="M 21.34375,0 C 18.59375,0 16,2.710938 16,5.578125 V 122.42188 C 16,125.13281 18.75,128 21.34375,128 h 85.3125 C 109.25,128 112,125.13281 112,122.42188 V 36 L 76,0 Z m 0,0"
       id="path2"
       inkscape:connector-curvature="0" />
    <path
       style="fill:#000000;fill-opacity:0.19607801;fill-rule:nonzero;stroke:none"
       d="m 84,36 28,28 V 36 Z m 0,0"
       id="path4"
       inkscape:connector-curvature="0" />
    <path
       style="fill:#ffffff;fill-opacity:0.39215698;fill-rule:nonzero;stroke:none"
       d="m 76,0 35.96875,36 H 81.515625 C 78.820312,36 76,33.148438 76,30.453125 Z m 0,0"
       id="path6"
       inkscape:connector-curvature="0" />
    <path
       style="fill:#878787;fill-opacity:1;fill-rule:nonzero;stroke:none"
       d="M 64,48 C 48.53125,48 36,60.539062 36,75.992188 36,91.460938 48.53125,104 64,104 79.46875,104 92,91.460938 92,75.992188 92,60.539062 79.46875,48 64,48 Z m 0,5.59375 c 12.367188,0 22.390625,10.023438 22.390625,22.398438 0,12.375 -10.023437,22.414062 -22.390625,22.414062 -12.367188,0 -22.390625,-10.039062 -22.390625,-22.414062 0,-12.375 10.023437,-22.398438 22.390625,-22.398438 z m 0,0"
       id="path8"
       inkscape:connector-curvature="0" />
    <path
       style="fill:#878787;fill-opacity:1;fill-rule:nonzero;stroke:none"
       d="m 69.59375,64.804688 c 0,3.078124 -2.507812,5.59375 -5.59375,5.59375 -3.101562,0 -5.59375,-2.515626 -5.59375,-5.59375 0,-3.101563 2.492188,-5.617188 5.59375,-5.617188 3.085938,0 5.59375,2.515625 5.59375,5.617188 z m 0,0"
       id="path10"
       inkscape:connector-curvature="0" />
    <path
       style="fill:#878787;fill-opacity:1;fill-rule:nonzero;stroke:none"
       d="m 61.195312,73.203125 h 5.609376 c 2.789062,0 2.789062,-0.01563 2.789062,2.789063 v 14.015624 c 0,2.789063 0.01563,2.789063 -2.789062,2.789063 h -5.609376 c -2.789062,0 -2.789062,0.01563 -2.789062,-2.789063 V 75.992188 c 0,-2.789063 -0.01563,-2.789063 2.789062,-2.789063 z m 0,0"
       id="path12"
       inkscape:connector-curvature="0" />
  </g>
</svg>
