<?xml version="1.0" encoding="UTF-8" standalone="no"?>
<svg
   xmlns:dc="http://purl.org/dc/elements/1.1/"
   xmlns:cc="http://creativecommons.org/ns#"
   xmlns:rdf="http://www.w3.org/1999/02/22-rdf-syntax-ns#"
   xmlns:svg="http://www.w3.org/2000/svg"
   xmlns="http://www.w3.org/2000/svg"
   xmlns:sodipodi="http://sodipodi.sourceforge.net/DTD/sodipodi-0.dtd"
   xmlns:inkscape="http://www.inkscape.org/namespaces/inkscape"
   width="96"
   height="96"
   viewBox="0 0 96 96"
   version="1.1"
   id="svg11"
   sodipodi:docname="text-x-vcard.svg"
   inkscape:version="0.92.2 (5c3e80d, 2017-08-06)">
  <metadata
     id="metadata17">
    <rdf:RDF>
      <cc:Work
         rdf:about="">
        <dc:format>image/svg+xml</dc:format>
        <dc:type
           rdf:resource="http://purl.org/dc/dcmitype/StillImage" />
        <dc:title></dc:title>
      </cc:Work>
    </rdf:RDF>
  </metadata>
  <defs
     id="defs15" />
  <sodipodi:namedview
     pagecolor="#ffffff"
     bordercolor="#666666"
     borderopacity="1"
     objecttolerance="10"
     gridtolerance="10"
     guidetolerance="10"
     inkscape:pageopacity="0"
     inkscape:pageshadow="2"
     inkscape:window-width="1799"
     inkscape:window-height="1338"
     id="namedview13"
     showgrid="false"
     inkscape:zoom="1.84375"
     inkscape:cx="-55.59322"
     inkscape:cy="62.915254"
     inkscape:window-x="653"
     inkscape:window-y="287"
     inkscape:window-maximized="0"
     inkscape:current-layer="svg11" />
  <g
     id="surface1"
     transform="scale(0.75)">
    <path
       style="fill:#dcdcdc;fill-opacity:1;fill-rule:nonzero;stroke:none"
       d="M 21.34375,0 C 18.59375,0 16,2.710938 16,5.578125 V 122.42188 C 16,125.13281 18.75,128 21.34375,128 h 85.3125 C 109.25,128 112,125.13281 112,122.42188 V 36 L 76,0 Z m 0,0"
       id="path2"
       inkscape:connector-curvature="0" />
    <path
       style="fill:#000000;fill-opacity:0.19607801;fill-rule:nonzero;stroke:none"
       d="m 84,36 28,28 V 36 Z m 0,0"
       id="path4"
       inkscape:connector-curvature="0" />
    <path
       style="fill:#ffffff;fill-opacity:0.39215698;fill-rule:nonzero;stroke:none"
       d="m 76,0 35.96875,36 H 81.515625 C 78.820312,36 76,33.148438 76,30.453125 Z m 0,0"
       id="path6"
       inkscape:connector-curvature="0" />
    <path
       style="fill:#878787;fill-opacity:1;fill-rule:nonzero;stroke:none"
       d="m 57.695312,83.765625 c 0,2.5625 0.539063,4.585937 1.625,6.0625 1.101563,1.484375 2.59375,2.21875 4.46875,2.21875 1.851563,0 3.328126,-0.734375 4.4375,-2.21875 1.101563,-1.5 1.65625,-3.515625 1.65625,-6.0625 0,-2.515625 -0.5625,-4.507813 -1.6875,-5.96875 -1.109374,-1.476563 -2.59375,-2.21875 -4.46875,-2.21875 -1.835937,0 -3.304687,0.742187 -4.40625,2.21875 -1.085937,1.460937 -1.625,3.453125 -1.625,5.96875 z m 12.8125,9.40625 c -0.625,1.484375 -1.640624,2.640625 -3.03125,3.46875 -1.375,0.8125 -2.992187,1.21875 -4.84375,1.21875 -3.585937,0 -6.5,-1.289063 -8.75,-3.875 C 51.648438,91.382812 50.539062,88 50.539062,83.828125 c 0,-4.164063 1.125,-7.546875 3.375,-10.15625 2.25,-2.601563 5.15625,-3.90625 8.71875,-3.90625 1.851563,0 3.46875,0.421875 4.84375,1.25 1.390626,0.835937 2.40625,1.992187 3.03125,3.46875 v -4.09375 h 6.53125 v 21.65625 c 2.578126,-0.390625 4.609376,-1.632813 6.09375,-3.71875 1.476563,-2.101563 2.21875,-4.789063 2.21875,-8.0625 0,-2.078125 -0.304687,-4.03125 -0.90625,-5.84375 -0.609374,-1.828125 -1.523437,-3.507813 -2.75,-5.03125 -1.984374,-2.539063 -4.460937,-4.5 -7.4375,-5.875 -2.960937,-1.375 -6.171874,-2.0625 -9.625,-2.0625 -2.421874,0 -4.734374,0.328125 -6.9375,0.96875 -2.210937,0.625 -4.25,1.554687 -6.125,2.78125 -3.085937,2.046875 -5.492187,4.6875 -7.21875,7.9375 -1.710937,3.234375 -2.5625,6.734375 -2.5625,10.5 0,3.109375 0.546876,6.023437 1.65625,8.75 1.125,2.710937 2.734376,5.109375 4.84375,7.1875 2.078126,2.039065 4.46875,3.593755 7.15625,4.656255 2.703126,1.07812 5.59375,1.625 8.65625,1.625 2.625,0 5.25,-0.49219 7.875,-1.46875 2.625,-0.98438 4.859376,-2.30469 6.71875,-3.96875 l 3.34375,5.0625 c -2.609374,2.01562 -5.453124,3.5625 -8.53125,4.625 -3.0625,1.07812 -6.179687,1.625 -9.34375,1.625 -3.859374,0 -7.492187,-0.6875 -10.90625,-2.0625 -3.421874,-1.35938 -6.460937,-3.33594 -9.125,-5.9375 -2.671874,-2.60938 -4.703124,-5.60938 -6.09375,-9.031255 -1.398437,-3.4375 -2.09375,-7.125 -2.09375,-11.0625 0,-3.789063 0.703126,-7.40625 2.125,-10.84375 1.414063,-3.4375 3.4375,-6.453125 6.0625,-9.0625 2.625,-2.578125 5.671876,-4.578125 9.15625,-6 3.5,-1.414063 7.125,-2.125 10.875,-2.125 4.664063,0 8.90625,0.898437 12.71875,2.6875 3.8125,1.773437 7,4.335937 9.5625,7.6875 1.5625,2.046875 2.734376,4.265625 3.53125,6.65625 0.8125,2.375 1.21875,4.875 1.21875,7.5 0,5.648437 -1.703124,10.03125 -5.09375,13.15625 -3.398437,3.125 -8.1875,4.6875 -14.375,4.6875 h -1.21875 z m 0,0"
       id="path8"
       inkscape:connector-curvature="0" />
  </g>
</svg>
