<?xml version="1.0" encoding="UTF-8" standalone="no"?>
<svg
   xmlns:dc="http://purl.org/dc/elements/1.1/"
   xmlns:cc="http://creativecommons.org/ns#"
   xmlns:rdf="http://www.w3.org/1999/02/22-rdf-syntax-ns#"
   xmlns:svg="http://www.w3.org/2000/svg"
   xmlns="http://www.w3.org/2000/svg"
   xmlns:sodipodi="http://sodipodi.sourceforge.net/DTD/sodipodi-0.dtd"
   xmlns:inkscape="http://www.inkscape.org/namespaces/inkscape"
   width="96"
   height="96"
   viewBox="0 0 96 96"
   version="1.1"
   id="svg17"
   sodipodi:docname="text-x-gtkrc.svg"
   inkscape:version="0.92.2 (5c3e80d, 2017-08-06)">
  <metadata
     id="metadata23">
    <rdf:RDF>
      <cc:Work
         rdf:about="">
        <dc:format>image/svg+xml</dc:format>
        <dc:type
           rdf:resource="http://purl.org/dc/dcmitype/StillImage" />
        <dc:title></dc:title>
      </cc:Work>
    </rdf:RDF>
  </metadata>
  <defs
     id="defs21" />
  <sodipodi:namedview
     pagecolor="#ffffff"
     bordercolor="#666666"
     borderopacity="1"
     objecttolerance="10"
     gridtolerance="10"
     guidetolerance="10"
     inkscape:pageopacity="0"
     inkscape:pageshadow="2"
     inkscape:window-width="1993"
     inkscape:window-height="1223"
     id="namedview19"
     showgrid="false"
     inkscape:zoom="1.84375"
     inkscape:cx="-55.59322"
     inkscape:cy="64"
     inkscape:window-x="102"
     inkscape:window-y="55"
     inkscape:window-maximized="0"
     inkscape:current-layer="svg17" />
  <g
     id="surface1"
     transform="scale(0.75)">
    <path
       style="fill:#dc302e;fill-opacity:1;fill-rule:nonzero;stroke:none"
       d="M 21.34375,0 C 18.59375,0 16,2.710938 16,5.578125 V 122.42188 C 16,125.13281 18.75,128 21.34375,128 h 85.3125 C 109.25,128 112,125.13281 112,122.42188 V 36 L 76,0 Z m 0,0"
       id="path2"
       inkscape:connector-curvature="0" />
    <path
       style="fill:#000000;fill-opacity:0.19607801;fill-rule:nonzero;stroke:none"
       d="m 84,36 28,28 V 36 Z m 0,0"
       id="path4"
       inkscape:connector-curvature="0" />
    <path
       style="fill:#ffffff;fill-opacity:0.39215698;fill-rule:nonzero;stroke:none"
       d="m 76,0 35.96875,36 H 81.515625 C 78.820312,36 76,33.148438 76,30.453125 Z m 0,0"
       id="path6"
       inkscape:connector-curvature="0" />
    <path
       style="fill:#ffffff;fill-opacity:1;fill-rule:nonzero;stroke:none"
       d="M 85.328125,50.671875 V 48 h -42.65625 v 2.671875 H 40 V 64 h 2.671875 v 2.671875 h 42.65625 V 64 H 88 V 50.671875 Z m -42.65625,0 h 26.65625 V 64 h -26.65625 z m 32,2.65625 h 8 v 5.34375 H 80 v 2.65625 h -2.671875 v -2.65625 h -2.65625 z m 0,0"
       id="path8"
       inkscape:connector-curvature="0" />
    <path
       style="fill:#ffffff;fill-opacity:1;fill-rule:nonzero;stroke:none"
       d="m 42.671875,74.671875 v 2.65625 H 40 v 16 h 2.671875 V 96 h 16 v -2.671875 h 2.65625 v -16 h -2.65625 v -2.65625 z M 56,80 h 2.671875 v 2.671875 L 56,82.578125 v 2.75 H 53.328125 V 88 h -2.65625 v 2.671875 H 48 V 88 H 45.328125 V 85.328125 H 48 V 88 h 2.671875 v -2.671875 h 2.65625 v -2.65625 H 56 Z m 0,0"
       id="path10"
       inkscape:connector-curvature="0" />
    <path
       style="fill:#ffffff;fill-opacity:1;fill-rule:nonzero;stroke:none"
       d="m 71.953125,74.671875 v 2.65625 H 82.625 v -2.65625 z M 82.625,77.328125 V 80 h 2.671875 V 77.328125 Z M 85.296875,80 v 10.671875 h 2.65625 V 80 Z m 0,10.671875 H 82.625 v 2.65625 h 2.671875 z M 82.625,93.328125 H 71.953125 V 96 H 82.625 Z m -10.671875,0 v -2.65625 h -2.65625 v 2.65625 z m -2.65625,-2.65625 V 80 H 66.625 v 10.671875 z m 0,-10.671875 h 2.65625 v -2.671875 h -2.65625 z m 0,0"
       id="path12"
       inkscape:connector-curvature="0" />
    <path
       style="fill:#ffffff;fill-opacity:1;fill-rule:nonzero;stroke:none"
       d="M 74.625,88 H 71.953125 V 82.671875 H 74.625 V 80 h 5.328125 v 2.671875 H 82.625 V 88 h -2.671875 v 2.671875 H 74.625 Z m 0,0"
       id="path14"
       inkscape:connector-curvature="0" />
  </g>
</svg>
