<?xml version="1.0" encoding="UTF-8" standalone="no"?>
<svg
   xmlns:dc="http://purl.org/dc/elements/1.1/"
   xmlns:cc="http://creativecommons.org/ns#"
   xmlns:rdf="http://www.w3.org/1999/02/22-rdf-syntax-ns#"
   xmlns:svg="http://www.w3.org/2000/svg"
   xmlns="http://www.w3.org/2000/svg"
   xmlns:sodipodi="http://sodipodi.sourceforge.net/DTD/sodipodi-0.dtd"
   xmlns:inkscape="http://www.inkscape.org/namespaces/inkscape"
   width="96"
   height="96"
   viewBox="0 0 96 96"
   version="1.1"
   id="svg2"
   inkscape:version="0.92.2 (5c3e80d, 2017-08-06)"
   sodipodi:docname="wps-office-wpt.svg">
  <metadata
     id="metadata33">
    <rdf:RDF>
      <cc:Work
         rdf:about="">
        <dc:format>image/svg+xml</dc:format>
        <dc:type
           rdf:resource="http://purl.org/dc/dcmitype/StillImage" />
        <dc:title></dc:title>
      </cc:Work>
    </rdf:RDF>
  </metadata>
  <defs
     id="defs31" />
  <sodipodi:namedview
     pagecolor="#ffffff"
     bordercolor="#666666"
     borderopacity="1"
     objecttolerance="10"
     gridtolerance="10"
     guidetolerance="10"
     inkscape:pageopacity="0"
     inkscape:pageshadow="2"
     inkscape:window-width="2282"
     inkscape:window-height="1551"
     id="namedview29"
     showgrid="false"
     inkscape:zoom="1.3037281"
     inkscape:cx="-333.98477"
     inkscape:cy="110.01032"
     inkscape:window-x="309"
     inkscape:window-y="98"
     inkscape:window-maximized="0"
     inkscape:current-layer="surface1" />
  <g
     id="surface1"
     transform="translate(0,-32)">
    <path
       style="fill:#5062b0;fill-opacity:1;fill-rule:nonzero;stroke:none;stroke-width:0.75"
       d="M 16.03125,32 C 13.96875,32 12,34.068359 12,36.21875 v 87.5625 C 12,125.8086 14.085938,128 16.03125,128 h 63.9375 C 81.914062,128 84,125.8086 84,123.78125 V 36.125 C 84,34.103516 81.896483,32 79.875,32 Z m 0,0"
       id="path5"
       inkscape:connector-curvature="0" />
    <path
       style="fill:#000000;fill-opacity:0.19607801;fill-rule:nonzero;stroke:none;stroke-width:0.75"
       d="m 12,104 v 20.00391 C 12,125.94922 14.0625,128 15.996094,128 H 80.00391 C 81.9375,128 84,125.94922 84,124.00391 V 104 Z m 0,0"
       id="path21"
       inkscape:connector-curvature="0" />
    <path
       style="fill:#ffffff;fill-opacity:1;fill-rule:nonzero;stroke:none;stroke-width:0.75"
       d="m 34.828125,114.24805 c 0.07617,0.33399 0.199219,0.75586 0.345703,1.25976 0.158203,0.50391 0.322266,1.06055 0.492188,1.66407 0.199218,0.61523 0.392578,1.27148 0.615234,1.9746 0.222656,0.68556 0.445312,1.40625 0.667969,2.14454 0,-0.9375 -0.01172,-1.92188 -0.03515,-2.98242 -0.01172,-1.07227 -0.04102,-2.17383 -0.05273,-3.28125 -0.02344,-1.10743 -0.03516,-2.23243 -0.0586,-3.36329 -0.02344,-1.14843 -0.02344,-2.24414 -0.02344,-3.30468 h 3.298826 c -0.0586,1.35351 -0.123047,2.77148 -0.181641,4.21289 -0.05273,1.4414 -0.123047,2.87695 -0.199218,4.30664 -0.07031,1.41211 -0.169922,2.81836 -0.28125,4.20117 -0.09961,1.38281 -0.222657,2.68945 -0.357422,3.91992 h -2.947266 c -0.433594,-1.13671 -0.849609,-2.34375 -1.283203,-3.62695 -0.416016,-1.31836 -0.849609,-2.56055 -1.271484,-3.74414 -0.427735,1.13086 -0.873047,2.36719 -1.330079,3.68555 -0.46875,1.33008 -0.896484,2.54883 -1.283203,3.68554 h -2.958984 c -0.146484,-1.23046 -0.28125,-2.53711 -0.404297,-3.91992 -0.111328,-1.40625 -0.222657,-2.8125 -0.310547,-4.23047 -0.08203,-1.42969 -0.146485,-2.87109 -0.205078,-4.30078 C 27,111.0957 26.953125,109.70117 26.912109,108.35938 h 3.304687 c -0.01171,1.06054 -0.03515,2.14453 -0.04687,3.27539 -0.02344,1.13671 -0.05273,2.25586 -0.06445,3.39258 -0.02344,1.10742 -0.03515,2.20898 -0.0586,3.28125 -0.01172,1.06054 -0.02344,2.04492 -0.02344,2.98242 0.169922,-0.58008 0.369141,-1.19532 0.574219,-1.88673 0.234375,-0.67968 0.445313,-1.34179 0.644531,-2.00976 0.210938,-0.66797 0.404297,-1.27149 0.580079,-1.83984 0.169921,-0.55078 0.304687,-0.98438 0.404296,-1.30665 h 2.601563"
       id="path23"
       inkscape:connector-curvature="0" />
    <path
       style="fill:#ffffff;fill-opacity:1;fill-rule:nonzero;stroke:none;stroke-width:0.75"
       d="m 47.232421,108.17188 c 2.279298,0 4.054688,0.43359 5.296875,1.31835 1.259766,0.85548 1.88672,2.26758 1.88672,4.24219 0,1.99805 -0.638672,3.43946 -1.910157,4.33008 -1.259765,0.88477 -3.046875,1.31836 -5.361328,1.31836 H 45.873046 V 125 h -3.5625 v -16.42969 c 0.345704,-0.0644 0.726563,-0.14062 1.160157,-0.1875 0.445313,-0.0469 0.884766,-0.0879 1.330078,-0.11133 0.445313,-0.0352 0.873047,-0.0586 1.30664,-0.0762 0.421875,-0.0234 0.802735,-0.0234 1.125,-0.0234 m 0.404298,2.8711 c -0.210938,0 -0.503907,0.0175 -0.902344,0.0293 -0.369141,0 -0.650391,0.0234 -0.861329,0.0586 v 5.37305 h 1.441407 c 1.148438,0 1.998047,-0.20508 2.578125,-0.61524 0.591797,-0.42773 0.873047,-1.16015 0.873047,-2.17968 0,-0.97266 -0.28125,-1.65234 -0.873047,-2.04492 -0.556641,-0.41016 -1.306641,-0.62109 -2.255859,-0.62109"
       id="path25"
       inkscape:connector-curvature="0" />
    <path
       style="fill:#ffffff;fill-opacity:1;fill-rule:nonzero;stroke:none;stroke-width:0.75"
       d="m 69,108.35938 v 2.73632 H 64.265625 V 125 h -3.585938 v -13.9043 h -4.722656 v -2.73632 H 69"
       id="path27"
       inkscape:connector-curvature="0" />
    <text
       xml:space="preserve"
       style="font-style:normal;font-variant:normal;font-weight:normal;font-stretch:normal;font-size:8.99999905px;line-height:0%;font-family:Ubuntu;-inkscape-font-specification:Ubuntu;text-align:start;letter-spacing:0px;word-spacing:0px;writing-mode:lr-tb;text-anchor:start;fill:#ffffff;fill-opacity:1;stroke:none;stroke-width:0.75"
       x="17.656019"
       y="99.075584"
       id="text3043"><tspan
         sodipodi:role="line"
         id="tspan3045"
         x="17.656019"
         y="99.075584"
         style="font-size:47.37629318px;line-height:1.25;stroke-width:0.75">W</tspan></text>
  </g>
</svg>
