<?xml version="1.0" encoding="UTF-8" standalone="no"?>
<svg
   xmlns:dc="http://purl.org/dc/elements/1.1/"
   xmlns:cc="http://creativecommons.org/ns#"
   xmlns:rdf="http://www.w3.org/1999/02/22-rdf-syntax-ns#"
   xmlns:svg="http://www.w3.org/2000/svg"
   xmlns="http://www.w3.org/2000/svg"
   xmlns:sodipodi="http://sodipodi.sourceforge.net/DTD/sodipodi-0.dtd"
   xmlns:inkscape="http://www.inkscape.org/namespaces/inkscape"
   width="96"
   height="96"
   viewBox="0 0 96 96"
   version="1.1"
   id="svg21"
   sodipodi:docname="wps-office-dpt.svg"
   inkscape:version="0.92.2 (5c3e80d, 2017-08-06)">
  <metadata
     id="metadata27">
    <rdf:RDF>
      <cc:Work
         rdf:about="">
        <dc:format>image/svg+xml</dc:format>
        <dc:type
           rdf:resource="http://purl.org/dc/dcmitype/StillImage" />
        <dc:title></dc:title>
      </cc:Work>
    </rdf:RDF>
  </metadata>
  <defs
     id="defs25" />
  <sodipodi:namedview
     pagecolor="#ffffff"
     bordercolor="#666666"
     borderopacity="1"
     objecttolerance="10"
     gridtolerance="10"
     guidetolerance="10"
     inkscape:pageopacity="0"
     inkscape:pageshadow="2"
     inkscape:window-width="2149"
     inkscape:window-height="1421"
     id="namedview23"
     showgrid="false"
     inkscape:zoom="1.84375"
     inkscape:cx="-55.59322"
     inkscape:cy="64"
     inkscape:window-x="102"
     inkscape:window-y="56"
     inkscape:window-maximized="0"
     inkscape:current-layer="svg21" />
  <g
     id="surface1"
     transform="scale(0.75)">
    <path
       style="fill:#cf4523;fill-opacity:1;fill-rule:nonzero;stroke:none"
       d="M 21.375,0 C 18.625,0 16,2.757812 16,5.625 v 116.75 c 0,2.70313 2.78125,5.625 5.375,5.625 h 85.25 c 2.59375,0 5.375,-2.92187 5.375,-5.625 V 5.5 C 112,2.804688 109.19531,0 106.5,0 Z m 0,0"
       id="path2"
       inkscape:connector-curvature="0" />
    <path
       style="fill:#000000;fill-opacity:0.19607801;fill-rule:nonzero;stroke:none"
       d="m 16,96 v 26.67188 C 16,125.26563 18.75,128 21.328125,128 H 106.67188 C 109.25,128 112,125.26563 112,122.67188 V 96 Z m 0,0"
       id="path4"
       inkscape:connector-curvature="0" />
    <path
       style="fill:#ffffff;fill-opacity:1;fill-rule:nonzero;stroke:none"
       d="M 32,44 H 52 V 56 H 32 Z m 0,0"
       id="path6"
       inkscape:connector-curvature="0" />
    <path
       style="fill:#ffffff;fill-opacity:1;fill-rule:nonzero;stroke:none"
       d="M 32,64 H 52 V 76 H 32 Z m 0,0"
       id="path8"
       inkscape:connector-curvature="0" />
    <path
       style="fill:#ffffff;fill-opacity:1;fill-rule:nonzero;stroke:none"
       d="M 80,39.96875 V 56 H 96 C 96,47.140625 88.835938,39.96875 80,39.96875 Z m 0,0"
       id="path10"
       inkscape:connector-curvature="0" />
    <path
       style="fill:#ffffff;fill-opacity:1;fill-rule:nonzero;stroke:none"
       d="m 40.851562,120.44531 c 0.132813,0.0312 0.28125,0.0469 0.429688,0.0469 0.164062,0 0.3125,0 0.445312,0 1.09375,0 2.015626,-0.19531 2.75,-0.57031 0.757813,-0.38282 1.367188,-0.89063 1.804688,-1.5625 0.476562,-0.65625 0.804688,-1.42969 0.984375,-2.32813 0.21875,-0.92187 0.328125,-1.92187 0.328125,-3 0,-0.9375 -0.07813,-1.85156 -0.242188,-2.75781 -0.148437,-0.88281 -0.429687,-1.67188 -0.820312,-2.35938 -0.390625,-0.6875 -0.9375,-1.23437 -1.625,-1.625 -0.671875,-0.42968 -1.554688,-0.64062 -2.640625,-0.64062 -0.210937,0 -0.445313,0.0156 -0.703125,0.0312 -0.265625,0 -0.492188,0.0312 -0.710938,0.0859 v 14.67968 m 11.664063,-7.41406 c 0,2.03125 -0.296875,3.75781 -0.867187,5.19531 -0.554688,1.41407 -1.328126,2.5625 -2.328126,3.46094 -1,0.89063 -2.179687,1.5625 -3.578124,1.96875 -1.375,0.41406 -2.882813,0.60938 -4.539063,0.60938 -0.859375,0 -1.710937,-0.0469 -2.5625,-0.14844 -0.804687,-0.0625 -1.6875,-0.19531 -2.640625,-0.375 v -21.34375 c 1.117188,-0.21094 2.148438,-0.35938 3.117188,-0.42188 0.96875,-0.0703 1.882812,-0.10156 2.71875,-0.10156 1.609374,0 3.054687,0.21094 4.367187,0.625 1.34375,0.42188 2.476563,1.10156 3.398437,2.01563 0.914063,0.90625 1.617188,2.05468 2.132813,3.46093 0.523437,1.39844 0.78125,3.08594 0.78125,5.05469"
       id="path12"
       inkscape:connector-curvature="0" />
    <path
       style="fill:#ffffff;fill-opacity:1;fill-rule:nonzero;stroke:none"
       d="m 62.40625,101.875 c 3.101562,0 5.5,0.57813 7.203125,1.72656 1.703125,1.125 2.5625,3 2.5625,5.57032 0,2.625 -0.859375,4.51562 -2.59375,5.69531 -1.703125,1.14844 -4.132813,1.73437 -7.28125,1.73437 h -1.742187 v 7.38282 h -4.851563 v -21.58594 c 0.46875,-0.0937 1,-0.17969 1.570313,-0.24219 0.609374,-0.0703 1.21875,-0.11719 1.820312,-0.14844 0.609375,-0.0469 1.195312,-0.0859 1.773438,-0.10156 0.570312,-0.0312 1.085937,-0.0312 1.539062,-0.0312 m 0.546875,3.77344 c -0.28125,0 -0.695313,0.0156 -1.21875,0.0312 -0.507813,0 -0.898437,0.0312 -1.179687,0.0859 v 7.04687 h 1.96875 c 1.539062,0 2.726562,-0.25781 3.507812,-0.79687 0.789062,-0.57813 1.1875,-1.53125 1.1875,-2.875 0,-1.25782 -0.398438,-2.16407 -1.1875,-2.67188 -0.765625,-0.53906 -1.789062,-0.82031 -3.078125,-0.82031"
       id="path14"
       inkscape:connector-curvature="0" />
    <path
       style="fill:#ffffff;fill-opacity:1;fill-rule:nonzero;stroke:none"
       d="m 92,102.125 v 3.58594 h -6.429688 v 18.27344 H 80.679688 V 105.71094 H 74.265625 V 102.125 H 92"
       id="path16"
       inkscape:connector-curvature="0" />
    <path
       style="fill:#ffffff;fill-opacity:1;fill-rule:nonzero;stroke:none"
       d="M 76.007812,44 C 67.171875,44 60,51.15625 60,60 60,68.84375 67.171875,76 76.007812,76 84.84375,76 92,68.84375 92,60 H 76.007812 Z m 0,0"
       id="path18"
       inkscape:connector-curvature="0" />
  </g>
</svg>
