<?xml version="1.0" encoding="UTF-8" standalone="no"?>
<svg
   xmlns:dc="http://purl.org/dc/elements/1.1/"
   xmlns:cc="http://creativecommons.org/ns#"
   xmlns:rdf="http://www.w3.org/1999/02/22-rdf-syntax-ns#"
   xmlns:svg="http://www.w3.org/2000/svg"
   xmlns="http://www.w3.org/2000/svg"
   xmlns:sodipodi="http://sodipodi.sourceforge.net/DTD/sodipodi-0.dtd"
   xmlns:inkscape="http://www.inkscape.org/namespaces/inkscape"
   width="96"
   height="96"
   viewBox="0 0 96 96"
   version="1.1"
   id="svg2"
   inkscape:version="0.92.2 (5c3e80d, 2017-08-06)"
   sodipodi:docname="wps-office-wps.svg">
  <metadata
     id="metadata37">
    <rdf:RDF>
      <cc:Work
         rdf:about="">
        <dc:format>image/svg+xml</dc:format>
        <dc:type
           rdf:resource="http://purl.org/dc/dcmitype/StillImage" />
        <dc:title></dc:title>
      </cc:Work>
    </rdf:RDF>
  </metadata>
  <defs
     id="defs35" />
  <sodipodi:namedview
     pagecolor="#ffffff"
     bordercolor="#666666"
     borderopacity="1"
     objecttolerance="10"
     gridtolerance="10"
     guidetolerance="10"
     inkscape:pageopacity="0"
     inkscape:pageshadow="2"
     inkscape:window-width="2114"
     inkscape:window-height="1134"
     id="namedview33"
     showgrid="false"
     inkscape:zoom="1.84375"
     inkscape:cx="-155.38983"
     inkscape:cy="64"
     inkscape:window-x="516"
     inkscape:window-y="252"
     inkscape:window-maximized="0"
     inkscape:current-layer="surface1" />
  <g
     id="surface1"
     transform="translate(0,-32)">
    <path
       style="fill:#5062b0;fill-opacity:1;fill-rule:nonzero;stroke:none;stroke-width:0.75"
       d="M 16.007812,32 C 13.945313,32 12,34.033203 12,36.183594 V 123.81641 C 12,125.84961 14.0625,128 16.007812,128 H 79.992187 C 81.9375,128 84,125.84961 84,123.81641 V 59 L 57,32 Z m 0,0"
       id="path5"
       inkscape:connector-curvature="0" />
    <path
       style="fill:#000000;fill-opacity:0.19607801;fill-rule:nonzero;stroke:none;stroke-width:0.75"
       d="M 63,59 84,80 V 59 Z m 0,0"
       id="path7"
       inkscape:connector-curvature="0" />
    <path
       style="fill:#ffffff;fill-opacity:0.39215698;fill-rule:nonzero;stroke:none;stroke-width:0.75"
       d="M 57,32 83.976562,59 H 61.136719 C 59.115234,59 57,56.861328 57,54.839844 Z m 0,0"
       id="path9"
       inkscape:connector-curvature="0" />
    <path
       style="fill:#000000;fill-opacity:0.19607801;fill-rule:nonzero;stroke:none;stroke-width:0.75"
       d="m 12,104 v 20.00391 C 12,125.94922 14.0625,128 15.996094,128 H 80.00391 C 81.9375,128 84,125.94922 84,124.00391 V 104 Z m 0,0"
       id="path15"
       inkscape:connector-curvature="0" />
    <path
       style="fill:#ffffff;fill-opacity:1;fill-rule:nonzero;stroke:none;stroke-width:0.75"
       d="m 35.285156,114.41797 c 0.07617,0.33984 0.199219,0.75 0.351563,1.23633 0.164062,0.50391 0.322265,1.04883 0.509765,1.64062 0.199219,0.59766 0.398437,1.24805 0.626953,1.9336 0.234375,0.6914 0.462891,1.38867 0.673829,2.11523 0,-0.91406 -0.01172,-1.89844 -0.02344,-2.93554 -0.02344,-1.05469 -0.04102,-2.12696 -0.06446,-3.22852 -0.02344,-1.08398 -0.03515,-2.18555 -0.06445,-3.29883 -0.01172,-1.125 -0.02344,-2.20898 -0.02344,-3.24609 H 40.6582 c -0.06446,1.33594 -0.123047,2.72461 -0.1875,4.14844 -0.04687,1.4121 -0.123047,2.8125 -0.199219,4.2246 -0.07617,1.4004 -0.175781,2.75977 -0.298828,4.11915 -0.09961,1.35351 -0.210937,2.63671 -0.351562,3.8496 h -3.035154 c -0.439453,-1.0957 -0.861328,-2.28515 -1.300781,-3.5625 -0.439453,-1.2832 -0.873047,-2.50781 -1.3125,-3.67383 -0.433594,1.11329 -0.884765,2.32618 -1.359375,3.62696 -0.47461,1.30078 -0.914062,2.51367 -1.300781,3.60937 h -3.035156 c -0.152344,-1.21289 -0.304688,-2.49609 -0.416016,-3.8496 -0.123047,-1.3711 -0.222657,-2.75977 -0.322266,-4.14844 -0.07617,-1.41211 -0.152343,-2.80664 -0.210937,-4.21875 -0.06445,-1.42969 -0.09961,-2.80079 -0.152344,-4.125 H 30.5625 c -0.01172,1.03711 -0.03515,2.10937 -0.06445,3.22265 -0.01172,1.11329 -0.03515,2.22656 -0.04687,3.32227 -0.0293,1.10156 -0.05273,2.17383 -0.06446,3.22852 -0.02344,1.0371 -0.03515,2.02148 -0.03515,2.93554 0.1875,-0.5625 0.386719,-1.18945 0.597657,-1.85156 0.240234,-0.67383 0.451172,-1.32422 0.65039,-1.98633 0.222657,-0.65039 0.421875,-1.24805 0.597657,-1.78711 0.17578,-0.55078 0.316405,-0.98437 0.416015,-1.30078 h 2.671875"
       id="path19"
       inkscape:connector-curvature="0" />
    <path
       style="fill:#ffffff;fill-opacity:1;fill-rule:nonzero;stroke:none;stroke-width:0.75"
       d="m 47.982421,108.44727 c 2.337891,0 4.148438,0.43359 5.4375,1.30077 1.283204,0.84962 1.933595,2.23243 1.933595,4.17188 0,1.95118 -0.66211,3.375 -1.962891,4.24805 -1.283204,0.86132 -3.123047,1.30078 -5.496094,1.30078 H 46.59375 v 5.50781 H 42.943359 V 108.8457 c 0.351562,-0.0644 0.75,-0.12304 1.189453,-0.1875 0.451172,-0.0469 0.902344,-0.0879 1.359375,-0.0996 0.451172,-0.0352 0.902344,-0.0644 1.341797,-0.0762 0.433594,-0.0234 0.820312,-0.0352 1.148437,-0.0352 m 0.421875,2.83594 c -0.222655,0 -0.521484,0 -0.919921,0.0234 -0.375,0 -0.679688,0.0117 -0.890625,0.0527 v 5.28516 h 1.488281 c 1.160156,0 2.039063,-0.21094 2.636719,-0.61524 0.585937,-0.42188 0.884766,-1.13672 0.884766,-2.13281 0,-0.94922 -0.298829,-1.62891 -0.884766,-2.01563 -0.574219,-0.39844 -1.347656,-0.59765 -2.314454,-0.59765"
       id="path21"
       inkscape:connector-curvature="0" />
    <path
       style="fill:#ffffff;fill-opacity:1;fill-rule:nonzero;stroke:none;stroke-width:0.75"
       d="m 63.064453,122.60352 c 0.609375,0 1.125,-0.0469 1.511718,-0.15235 0.427735,-0.12305 0.75,-0.28711 0.990235,-0.47461 0.234375,-0.21094 0.386719,-0.44531 0.47461,-0.68554 0.09961,-0.2754 0.146484,-0.53907 0.146484,-0.79688 0,-0.33985 -0.111329,-0.63867 -0.333984,-0.90235 -0.216797,-0.26367 -0.492188,-0.48632 -0.826172,-0.68554 -0.339844,-0.21094 -0.714844,-0.38672 -1.125,-0.55078 -0.427735,-0.17578 -0.837891,-0.33985 -1.248048,-0.47461 -0.55078,-0.17578 -1.125,-0.375 -1.728515,-0.61524 -0.585937,-0.22265 -1.136719,-0.50976 -1.634765,-0.86133 -0.47461,-0.36327 -0.861329,-0.78515 -1.189454,-1.30077 -0.310546,-0.52149 -0.474609,-1.17188 -0.474609,-1.94532 0,-1.54101 0.5625,-2.73633 1.664063,-3.59766 1.136718,-0.86718 2.671875,-1.28906 4.634765,-1.28906 1.125,0 2.115235,0.11133 2.935547,0.33985 0.849609,0.22265 1.564453,0.48633 2.138672,0.76171 l -1.060547,2.50782 c -0.503907,-0.24609 -1.048828,-0.45117 -1.664062,-0.63867 -0.597657,-0.16992 -1.289063,-0.25782 -2.085938,-0.25782 -1.939453,0 -2.900391,0.6211 -2.900391,1.875 0,0.32227 0.09961,0.59766 0.287109,0.84961 0.19922,0.22266 0.451173,0.4336 0.75,0.63281 0.310548,0.17579 0.66211,0.33985 1.03711,0.47462 0.398438,0.14062 0.773438,0.27538 1.148438,0.39257 0.574218,0.19922 1.177734,0.42188 1.787109,0.66212 0.638672,0.23437 1.212891,0.54492 1.728516,0.94921 0.533202,0.38672 0.960937,0.88477 1.294922,1.48242 0.339843,0.58008 0.515625,1.3125 0.515625,2.21485 0,1.53515 -0.5625,2.72461 -1.69922,3.57421 -1.101562,0.82618 -2.80078,1.23633 -5.074218,1.23633 -1.523437,0 -2.736328,-0.13476 -3.650391,-0.42773 -0.908203,-0.29883 -1.599609,-0.57422 -2.050781,-0.8086 l 1.078125,-2.64843 c 0.521485,0.28711 1.160156,0.55078 1.898438,0.79687 0.75,0.24024 1.664062,0.36329 2.724609,0.36329"
       id="path23"
       inkscape:connector-curvature="0" />
    <text
       xml:space="preserve"
       style="font-style:normal;font-variant:normal;font-weight:normal;font-stretch:normal;font-size:8.99999905px;line-height:0%;font-family:Ubuntu;-inkscape-font-specification:Ubuntu;text-align:start;letter-spacing:0px;word-spacing:0px;writing-mode:lr-tb;text-anchor:start;fill:#ffffff;fill-opacity:1;stroke:none;stroke-width:0.75"
       x="17.656019"
       y="99.075584"
       id="text3043"><tspan
         sodipodi:role="line"
         id="tspan3045"
         x="17.656019"
         y="99.075584"
         style="font-size:47.37629318px;line-height:1.25;stroke-width:0.75">W</tspan></text>
  </g>
</svg>
