<?xml version="1.0" encoding="UTF-8" standalone="no"?>
<!-- Created using Karbon, part of Calligra: http://www.calligra.org/karbon -->

<svg
   xmlns:dc="http://purl.org/dc/elements/1.1/"
   xmlns:cc="http://creativecommons.org/ns#"
   xmlns:rdf="http://www.w3.org/1999/02/22-rdf-syntax-ns#"
   xmlns:svg="http://www.w3.org/2000/svg"
   xmlns="http://www.w3.org/2000/svg"
   xmlns:sodipodi="http://sodipodi.sourceforge.net/DTD/sodipodi-0.dtd"
   xmlns:inkscape="http://www.inkscape.org/namespaces/inkscape"
   width="64"
   height="64"
   id="svg2"
   version="1.1"
   inkscape:version="0.92.2 (5c3e80d, 2017-08-06)"
   sodipodi:docname="start-here.svg">
  <metadata
     id="metadata13">
    <rdf:RDF>
      <cc:Work
         rdf:about="">
        <dc:format>image/svg+xml</dc:format>
        <dc:type
           rdf:resource="http://purl.org/dc/dcmitype/StillImage" />
        <dc:title />
      </cc:Work>
    </rdf:RDF>
  </metadata>
  <sodipodi:namedview
     pagecolor="#ffffff"
     bordercolor="#666666"
     borderopacity="1"
     objecttolerance="10"
     gridtolerance="10"
     guidetolerance="10"
     inkscape:pageopacity="0"
     inkscape:pageshadow="2"
     inkscape:window-width="3061"
     inkscape:window-height="1537"
     id="namedview11"
     showgrid="false"
     inkscape:zoom="11.313709"
     inkscape:cx="11.547627"
     inkscape:cy="17.684555"
     inkscape:window-x="305"
     inkscape:window-y="170"
     inkscape:window-maximized="0"
     inkscape:current-layer="layer1"
     units="px"
     inkscape:pagecheckerboard="false" />
  <defs
     id="defs4" />
  <g
     id="layer0"
     transform="translate(0,12.800001)">
    <g
       id="layer1"
       transform="translate(0.87894,0.87894)"
       style="fill:none">
      <rect
         style="opacity:1;fill:#454545;fill-opacity:1;stroke-width:1.25336933"
         id="rect850"
         width="59.333332"
         height="59.333332"
         x="1.4543934"
         y="-11.345608" />
      <path
         id="gear_path"
         stroke-miterlimit="2.00000000000"
         d="m 18.715287,3.4261468 c -0.082,0.0084 0.744588,-0.7997214 0.682934,-0.738428 l -3.766094,3.654464 c -0.119747,0.1189333 -0.13436,0.3010533 -0.04645,0.4450133 l 3.33108,5.4483999 c -0.59148,0.984933 -1.071813,2.041507 -1.40996,3.1616 l -6.119815,1.25848 c -0.170302,0.03489 -0.294372,0.19544 -0.294372,0.368373 v 3.990267 c 0,0.1688 0.129523,0.3132 0.294372,0.353067 l 5.933922,1.427333 c 0.317333,1.2968 0.807507,2.537733 1.456387,3.668 l -3.43952,5.187467 c -0.09593,0.144933 -0.07723,0.338133 0.04645,0.460533 l 2.8508,2.823867 c 0.120107,0.118533 0.30428,0.133466 0.449293,0.046 l 5.39164,-3.238267 c 1.057587,0.604667 2.202387,1.089333 3.40852,1.412 l 1.255067,5.9856 c 0.03507,0.168933 0.181867,0.2916 0.356267,0.2916 h 4.028133 c 0.1692,0 0.316267,-0.112667 0.3564,-0.276667 l 1.487333,-6.016 c 1.244,-0.332266 2.4168,-0.825466 3.5016,-1.458 l 5.314134,3.4532 c 0.146533,0.09453 0.340533,0.07627 0.4648,-0.046 l 2.835333,-2.824 c 0.1204,-0.119066 0.150133,-0.301333 0.06187,-0.445066 l -1.936667,-3.1616 c 0,0 -0.828533,0.186533 -0.883067,0.107466 0,0 -1.223333,-1.782666 -2.819866,-4.097733 -1.9092,3.7008 -5.802934,6.231067 -10.287467,6.231067 -6.372533,0 -11.542453,-5.121334 -11.542453,-11.433867 0,-4.643387 3.011373,-9.298213 7.02532,-11.0876266 l -0.208334,-2.28008 c -0.7304,0.25328 -1.436266,0.55888 -2.107026,0.9208534 -0.0013,-7.6e-4 0.0012,-0.01464 0,-0.01532 l -5.43812,-3.5299747 c -0.07316,-0.047347 -0.15044,-0.0544 -0.23244,-0.046013 l 1.338982,-0.00853 z"
         inkscape:connector-curvature="0"
         style="fill:#f9f9f9;stroke:#003bc3;stroke-width:0;stroke-linecap:butt;stroke-linejoin:miter;stroke-miterlimit:2"
         sodipodi:nodetypes="cccccccssccccccccccssccccccccccsscccccccc" />
      <path
         style="fill:#f9f9f9;stroke:#003bc3;stroke-width:0;stroke-linecap:butt;stroke-linejoin:miter;stroke-miterlimit:2"
         inkscape:connector-curvature="0"
         id="gear_path-1"
         stroke-miterlimit="2.00000000000"
         d="m 43.644543,34.085725 c 0.08004,-0.0069 0.166824,-0.02717 0.227926,-0.08597 l -0.135594,-4.736433 c 0.118693,-0.114067 3.34529,2.956516 3.262021,2.81454 l -3.403585,-6.593544 c 0.592826,-0.951398 1.078537,-1.974576 1.426754,-3.06213 l 5.984587,-1.125846 c 0.166536,-0.03121 0.29012,-0.185824 0.293008,-0.354607 l 0.06663,-3.894511 c 0.0028,-0.16475 -0.120987,-0.307853 -0.28096,-0.349522 l -5.758592,-1.4924 c -0.287576,-1.270992 -0.744514,-2.49035 -1.357956,-3.604351 l 3.438325,-5.0054132 c 0.09592,-0.139844 0.08089,-0.3287267 -0.03759,-0.45026 L 44.638655,3.3414521 c -0.115054,-0.11768 -0.294284,-0.135344 -0.437056,-0.0524 l -5.30806,3.0703147 C 37.873052,5.7515001 36.765572,5.2593054 35.595621,4.9241921 L 34.472544,-0.93877723 C 34.441194,-1.1042452 34.300191,-1.2264239 34.130241,-1.2293426 l -3.925289,-0.067427 c -0.164883,-0.0028 -0.310075,0.1046666 -0.351923,0.2640613 l -1.549814,5.846736 c -1.217788,0.3034733 -2.36888,0.765208 -3.436547,1.3644027 l -5.120799,-3.459277 c -0.141213,-0.09472 -0.330566,-0.080147 -0.453701,0.037107 l -3.106713,3.1833493 c -0.119307,0.1141734 0.14528,-0.1829866 0.228904,-0.041227 l 1.834432,3.118144 c 0,0 0.810494,-0.1681894 0.862316,-0.09012 0,0 -0.07115,2.8305463 1.445961,5.1167773 1.922253,-3.580032 6.404661,-6.1094093 10.7747,-6.0343467 6.209841,0.1066667 11.425817,4.3937597 11.320411,10.5548077 -0.07753,4.531956 -2.203315,10.146712 -6.144663,11.826 l -0.397405,0.9595 c 0.715985,-0.234976 1.408929,-0.521428 2.06861,-0.863488 0.0013,7.64e-4 -0.0015,0.01423 -2.56e-4,0.01496 l 5.240338,3.536287 c 0.07051,0.04744 0.145693,0.05561 0.22574,0.04881 z"
         sodipodi:nodetypes="cccccccssccccccccccssccccccccccssccccccc" />
    </g>
  </g>
</svg>
