<?xml version="1.0" encoding="UTF-8" standalone="no"?>
<!-- Created using Karbon, part of Calligra: http://www.calligra.org/karbon -->

<svg
   xmlns:dc="http://purl.org/dc/elements/1.1/"
   xmlns:cc="http://creativecommons.org/ns#"
   xmlns:rdf="http://www.w3.org/1999/02/22-rdf-syntax-ns#"
   xmlns:svg="http://www.w3.org/2000/svg"
   xmlns="http://www.w3.org/2000/svg"
   xmlns:sodipodi="http://sodipodi.sourceforge.net/DTD/sodipodi-0.dtd"
   xmlns:inkscape="http://www.inkscape.org/namespaces/inkscape"
   width="64"
   height="64"
   id="svg2"
   version="1.1"
   inkscape:version="0.92.4 (5da689c313, 2019-01-14)"
   sodipodi:docname="start-here.svg">
  <metadata
     id="metadata13">
    <rdf:RDF>
      <cc:Work
         rdf:about="">
        <dc:format>image/svg+xml</dc:format>
        <dc:type
           rdf:resource="http://purl.org/dc/dcmitype/StillImage" />
        <dc:title />
      </cc:Work>
    </rdf:RDF>
  </metadata>
  <sodipodi:namedview
     pagecolor="#ffffff"
     bordercolor="#666666"
     borderopacity="1"
     objecttolerance="10"
     gridtolerance="10"
     guidetolerance="10"
     inkscape:pageopacity="0"
     inkscape:pageshadow="2"
     inkscape:window-width="3061"
     inkscape:window-height="1537"
     id="namedview11"
     showgrid="false"
     inkscape:zoom="8.0000004"
     inkscape:cx="-4.9283443"
     inkscape:cy="-1.0371012"
     inkscape:window-x="305"
     inkscape:window-y="170"
     inkscape:window-maximized="0"
     inkscape:current-layer="layer1"
     units="px"
     inkscape:pagecheckerboard="false" />
  <defs
     id="defs4" />
  <g
     id="layer0"
     transform="translate(0,12.800001)">
    <g
       id="layer1"
       transform="translate(0.87894,0.87894)"
       style="fill:none">
      <rect
         style="opacity:1;fill:#454545;fill-opacity:1;stroke-width:1.25336933"
         id="rect850"
         width="59.333332"
         height="59.333332"
         x="1.4543934"
         y="-11.345608" />
      <path
         inkscape:connector-curvature="0"
         style="fill:#ffffff;fill-opacity:1;stroke-width:1.41855967"
         sodipodi:nodetypes="cccccccccccccccc"
         id="path5"
         d="M 2.8626873,8.9898888 C 3.4617455,-4.0042602 0.69163133,-2.7883707 10.424146,3.6043702 c 1.99946,1.6385492 4.222505,2.9864213 6.464691,4.2704314 -0.0057,-2.1176541 -0.386456,-4.1969511 -0.667522,-6.2858505 3.347339,3.8008876 6.991714,7.3302931 10.27197,11.1982359 2.609524,0.04114 5.219031,0.07391 7.838138,0.11831 2.24859,3.871163 4.803799,7.550679 7.311123,11.258936 0.597373,1.018286 1.005483,1.696769 1.443188,2.86603 0.617613,1.374911 -2.384843,0.575142 -1.669962,1.455487 4.532309,5.659812 11.332393,8.956045 18.24426,10.680817 -2.660606,1.328707 -5.781174,1.759907 -7.863691,3.944631 -3.887113,4.292776 3.685904,-5.877008 -1.581044,2.571182 -2.75641,-2.491317 -5.151925,-5.359546 -8.048914,-7.697588 -3.912652,-3.18763 -8.275685,-5.800348 -12.875077,-7.863698 -2.414687,-1.121104 -5.1328,-2.318849 -6.397646,-4.807002 -0.942224,-2.433839 -1.149846,-5.072105 -1.382997,-7.6433" />
      <path
         inkscape:connector-curvature="0"
         style="fill:#454545;fill-opacity:1;stroke-width:0.3757453"
         sodipodi:nodetypes="csccc"
         id="path14"
         d="m 33.561898,19.995839 c 6.955306,7.246671 -0.205058,-0.265879 6.36054,6.621894 0.182618,0.191592 0.123515,0.06214 -0.126919,0.678838 -2.111689,-0.841673 -4.155745,-1.84115 -6.214827,-2.780519 -0.01503,-1.510496 -0.02253,-3.017233 -0.01879,-4.520213 z" />
      <path
         inkscape:connector-curvature="0"
         style="fill:#ffffff;fill-opacity:1;stroke-width:1.41855967"
         id="path11"
         d="M 8.9909377,-7.3777378 C 16.664176,-3.3649012 23.800215,1.7836906 29.983416,7.8508989 31.205783,9.1312474 32.77612,10.152865 33.637129,11.741056 32.872034,11.622891 31.888345,12.120252 31.292776,11.468921 29.028724,8.6226795 26.410008,6.0619668 23.610614,3.7399129 15.87046,-2.6262009 12.252802,-5.2876025 3.0895326,-9.2937436 3.7851722,-9.9044749 -0.08021394,-12.306069 8.9909377,-7.3777378 Z"
         sodipodi:nodetypes="ccccccc" />
    </g>
  </g>
</svg>
