/* XPM */
static char * close_pressed_xpm[] = {
"25 26 23 1",
" 	c None",
".	c #6A6A6A",
"+	c #D6D6D6",
"@	c #D4D4D4",
"#	c #9E9E9E",
"$	c #676767",
"%	c #484848",
"&	c #3B3B3B",
"*	c #9F9F9F",
"=	c #C0C0C0",
"-	c #565656",
";	c #383838",
">	c #454545",
",	c #C1C1C1",
"'	c #575757",
")	c #686868",
"!	c #CECECE",
"~	c #8B8B8B",
"{	c #3C3C3C",
"]	c #696969",
"^	c #A0A0A0",
"/	c #595959",
"(	c #C2C2C2",
".........................",
"+++++++++++++++++++++++++",
"+++++++++++++++++++++++++",
"+++++++++++++++++++++++++",
"+++++++++++++++++++++++++",
"++++++++@#$%&%$*@++++++++",
"+++++++=-;;;;;;;-=+++++++",
"++++++=>;;;;;;;;;>,++++++",
"+++++@-;;;;;;;;;;;'@+++++",
"+++++#;;;$$;;;$$;;;*+++++",
"+++++$;;;)!$;$!$;;;)+++++",
"+++++%;;;;$!~!$;;;;%+++++",
"+++++&;;;;;~+~;;;;;{+++++",
"+++++%;;;;$!~!$;;;;%+++++",
"+++++$;;;$!$;)!$;;;]+++++",
"+++++*;;;)$;;;));;;^+++++",
"+++++@-;;;;;;;;;;;/@+++++",
"++++++=>;;;;;;;;;>(++++++",
"+++++++,';;;;;;;/,+++++++",
"++++++++@*)%&%]^@++++++++",
"+++++++++++++++++++++++++",
"+++++++++++++++++++++++++",
"+++++++++++++++++++++++++",
"+++++++++++++++++++++++++",
"+++++++++++++++++++++++++",
"+++++++++++++++++++++++++"};
