/* XPM */
static char * maximize_pressed_xpm[] = {
"25 26 22 1",
" 	c None",
".	c #6A6A6A",
"+	c #D6D6D6",
"@	c #D5D5D5",
"#	c #A9A9A9",
"$	c #7B7B7B",
"%	c #636363",
"&	c #585858",
"*	c #7C7C7C",
"=	c #AAAAAA",
"-	c #C4C4C4",
";	c #6D6D6D",
">	c #565656",
",	c #6E6E6E",
"'	c #606060",
")	c #616161",
"!	c #6F6F6F",
"~	c #7D7D7D",
"{	c #626262",
"]	c #7E7E7E",
"^	c #707070",
"/	c #C5C5C5",
".........................",
"+++++++++++++++++++++++++",
"+++++++++++++++++++++++++",
"+++++++++++++++++++++++++",
"+++++++++++++++++++++++++",
"++++++++@#$%&%*=@++++++++",
"+++++++-;>>>>>>>,-+++++++",
"++++++-'>>>>>>>>>)-++++++",
"+++++@;>>>>>>>>>>>!@+++++",
"+++++#>>>+++++++>>>=+++++",
"+++++$>>>+>>>>>+>>>~+++++",
"+++++{>>>+>>>>>+>>>%+++++",
"+++++&>>>+>>>>>+>>>&+++++",
"+++++%>>>+>>>>>+>>>%+++++",
"+++++*>>>+>>>>>+>>>]+++++",
"+++++=>>>+++++++>>>=+++++",
"+++++@,>>>>>>>>>>>^@+++++",
"++++++-)>>>>>>>>>)/++++++",
"+++++++-!>>>>>>>^-+++++++",
"++++++++@=~%&%~=@++++++++",
"+++++++++++++++++++++++++",
"+++++++++++++++++++++++++",
"+++++++++++++++++++++++++",
"+++++++++++++++++++++++++",
"+++++++++++++++++++++++++",
"+++++++++++++++++++++++++"};
