<?xml version="1.0" encoding="UTF-8" standalone="no"?>
<!-- Created using Karbon, part of Calligra: http://www.calligra.org/karbon -->

<svg
   xmlns:dc="http://purl.org/dc/elements/1.1/"
   xmlns:cc="http://creativecommons.org/ns#"
   xmlns:rdf="http://www.w3.org/1999/02/22-rdf-syntax-ns#"
   xmlns:svg="http://www.w3.org/2000/svg"
   xmlns="http://www.w3.org/2000/svg"
   xmlns:sodipodi="http://sodipodi.sourceforge.net/DTD/sodipodi-0.dtd"
   xmlns:inkscape="http://www.inkscape.org/namespaces/inkscape"
   width="22"
   height="22"
   id="svg2"
   version="1.1"
   inkscape:version="0.92.2 (5c3e80d, 2017-08-06)"
   sodipodi:docname="start-here.svg">
  <metadata
     id="metadata13">
    <rdf:RDF>
      <cc:Work
         rdf:about="">
        <dc:format>image/svg+xml</dc:format>
        <dc:type
           rdf:resource="http://purl.org/dc/dcmitype/StillImage" />
        <dc:title />
      </cc:Work>
    </rdf:RDF>
  </metadata>
  <sodipodi:namedview
     pagecolor="#ffffff"
     bordercolor="#666666"
     borderopacity="1"
     objecttolerance="10"
     gridtolerance="10"
     guidetolerance="10"
     inkscape:pageopacity="0"
     inkscape:pageshadow="2"
     inkscape:window-width="3738"
     inkscape:window-height="2041"
     id="namedview11"
     showgrid="false"
     inkscape:zoom="45.254834"
     inkscape:cx="22.749347"
     inkscape:cy="20.810126"
     inkscape:window-x="102"
     inkscape:window-y="55"
     inkscape:window-maximized="1"
     inkscape:current-layer="layer1"
     units="px"
     inkscape:pagecheckerboard="false" />
  <defs
     id="defs4" />
  <g
     id="layer0"
     transform="translate(0,-29.199999)">
    <g
       id="layer1"
       transform="translate(0.87894,0.87894)"
       style="fill:none">
      <rect
         style="opacity:1;fill:#454545;fill-opacity:1;stroke-width:0.43084577"
         id="rect850"
         width="20.395834"
         height="20.395834"
         x="-0.07685665"
         y="29.123142" />
      <path
         id="gear_path"
         stroke-miterlimit="2.00000000000"
         d="m 5.8565754,34.200933 c -0.028187,0.0029 0.2559521,-0.274904 0.2347588,-0.253834 l -1.294595,1.256222 c -0.041163,0.04088 -0.046186,0.103487 -0.015968,0.152973 L 5.92583,37.229182 c -0.2033213,0.33857 -0.3684358,0.701768 -0.4846738,1.0868 l -2.1036865,0.432602 c -0.058541,0.01199 -0.1011904,0.06718 -0.1011904,0.126628 v 1.371655 c 0,0.05803 0.044523,0.107662 0.1011904,0.121366 l 2.0397857,0.490646 c 0.1090833,0.445775 0.2775804,0.872346 0.5006329,1.260875 l -1.182335,1.783192 c -0.032977,0.04982 -0.026547,0.116233 0.015968,0.158308 l 0.9799625,0.970704 c 0.041287,0.04075 0.1045962,0.04588 0.1544445,0.01581 l 1.8533763,-1.113154 c 0.3635454,0.207854 0.7570704,0.374458 1.1716787,0.485375 l 0.4314292,2.05755 c 0.012054,0.05807 0.062517,0.100237 0.1224667,0.100237 H 10.80955 c 0.05816,0 0.108717,-0.03873 0.122513,-0.0951 l 0.51127,-2.068 c 0.427625,-0.114217 0.830775,-0.283754 1.203675,-0.501188 l 1.826734,1.187038 c 0.05037,0.0325 0.117058,0.02622 0.159775,-0.01581 l 0.974646,-0.97075 c 0.04139,-0.04093 0.05161,-0.103583 0.02127,-0.152991 l -0.665729,-1.0868 c 0,0 -0.284808,0.06412 -0.303554,0.03694 0,0 -0.420521,-0.612791 -0.969329,-1.408595 -0.656288,1.27215 -1.994759,2.141929 -3.536317,2.141929 -2.1905583,0 -3.9677183,-1.760459 -3.9677183,-3.930392 0,-1.596164 1.0351596,-3.196261 2.4149537,-3.811372 l -0.071615,-0.783777 c -0.251075,0.08707 -0.4937166,0.192115 -0.7242904,0.316543 -4.446e-4,-2.61e-4 4.263e-4,-0.005 0,-0.0053 L 5.9364767,34.216753 c -0.025149,-0.01628 -0.051714,-0.0187 -0.079901,-0.01582 l 0.4602753,-0.0029 z"
         inkscape:connector-curvature="0"
         style="fill:#f9f9f9;stroke:#003bc3;stroke-width:0;stroke-linecap:butt;stroke-linejoin:miter;stroke-miterlimit:2"
         sodipodi:nodetypes="cccccccssccccccccccssccccccccccsscccccccc" />
      <path
         style="fill:#f9f9f9;stroke:#003bc3;stroke-width:0;stroke-linecap:butt;stroke-linejoin:miter;stroke-miterlimit:2"
         inkscape:connector-curvature="0"
         id="gear_path-1"
         stroke-miterlimit="2.00000000000"
         d="m 14.426007,44.740164 c 0.02751,-0.0024 0.05735,-0.0093 0.07835,-0.02955 l -0.04661,-1.628149 c 0.0408,-0.03921 1.149944,1.016303 1.12132,0.967498 l -1.169982,-2.26653 c 0.203784,-0.327043 0.370747,-0.678761 0.490447,-1.052607 l 2.057201,-0.38701 c 0.05725,-0.01073 0.09973,-0.06388 0.100722,-0.121896 l 0.0229,-1.338738 c 9.62e-4,-0.05663 -0.04159,-0.105825 -0.09658,-0.120149 l -1.979516,-0.513012 c -0.09886,-0.436904 -0.255927,-0.856058 -0.466798,-1.238996 l 1.181925,-1.72061 c 0.03297,-0.04807 0.02781,-0.113 -0.01292,-0.154777 L 14.767732,34.17182 c -0.03955,-0.04045 -0.10116,-0.04652 -0.150238,-0.01801 l -1.824644,1.055421 c -0.350793,-0.208954 -0.731489,-0.378146 -1.13366,-0.493342 l -0.386057,-2.015395 c -0.01078,-0.05688 -0.05925,-0.09888 -0.117667,-0.09988 l -1.3493181,-0.02318 c -0.056678,-9.62e-4 -0.1065882,0.03598 -0.1209734,0.09077 L 9.1524257,34.678018 C 8.733811,34.782337 8.3381232,34.941058 7.9711128,35.147031 L 6.2108382,33.957904 c -0.048542,-0.03256 -0.1136323,-0.02755 -0.1559598,0.01276 L 4.9869457,35.06494 c -0.041012,0.03925 0.04994,-0.0629 0.078686,-0.01417 l 0.630586,1.071862 c 0,0 0.2786076,-0.05782 0.2964211,-0.03098 0,0 -0.024457,0.973 0.4970493,1.758892 0.6607745,-1.230636 2.2016023,-2.100109 3.7038029,-2.074307 2.134633,0.03667 3.927625,1.510355 3.891391,3.628216 -0.02665,1.557859 -0.757389,3.487932 -2.112228,4.065187 l -0.136608,0.329828 c 0.24612,-0.08077 0.48432,-0.179241 0.711085,-0.296824 4.34e-4,2.63e-4 -5.04e-4,0.0049 -8.8e-5,0.0051 l 1.801366,1.215598 c 0.02424,0.01631 0.05008,0.01912 0.0776,0.01678 z"
         sodipodi:nodetypes="cccccccssccccccccccssccccccccccssccccccc" />
    </g>
  </g>
</svg>
