<?xml version="1.0" encoding="UTF-8" standalone="no"?>
<svg
   xmlns:dc="http://purl.org/dc/elements/1.1/"
   xmlns:cc="http://creativecommons.org/ns#"
   xmlns:rdf="http://www.w3.org/1999/02/22-rdf-syntax-ns#"
   xmlns:svg="http://www.w3.org/2000/svg"
   xmlns="http://www.w3.org/2000/svg"
   xmlns:sodipodi="http://sodipodi.sourceforge.net/DTD/sodipodi-0.dtd"
   xmlns:inkscape="http://www.inkscape.org/namespaces/inkscape"
   viewBox="0 0 48 48"
   id="svg2"
   version="1.1"
   inkscape:version="0.91 r13725"
   sodipodi:docname="notification-input-touchpad-symbolic.svg">
  <metadata
     id="metadata10">
    <rdf:RDF>
      <cc:Work
         rdf:about="">
        <dc:format>image/svg+xml</dc:format>
        <dc:type
           rdf:resource="http://purl.org/dc/dcmitype/StillImage" />
      </cc:Work>
    </rdf:RDF>
  </metadata>
  <defs
     id="defs8" />
  <sodipodi:namedview
     pagecolor="#ffffff"
     bordercolor="#666666"
     borderopacity="1"
     objecttolerance="10"
     gridtolerance="10"
     guidetolerance="10"
     inkscape:pageopacity="0"
     inkscape:pageshadow="2"
     inkscape:window-width="737"
     inkscape:window-height="480"
     id="namedview6"
     showgrid="false"
     inkscape:zoom="4.9166667"
     inkscape:cx="-0.61016949"
     inkscape:cy="24"
     inkscape:window-x="57"
     inkscape:window-y="24"
     inkscape:window-maximized="0"
     inkscape:current-layer="svg2" />
  <path
     d="m 9.5 6 c -1.913 0 -3.5 1.587 -3.5 3.5 l 0 29 c 0 1.913 1.587 3.5 3.5 3.5 l 29 0 c 1.913 0 3.5 -1.587 3.5 -3.5 l 0 -29 c 0 -1.913 -1.587 -3.5 -3.5 -3.5 m -29 3 29 0 c 0.303 0 0.5 0.197 0.5 0.5 l 0 20.5 -30 0 0 -20.5 c 0 -0.303 0.197 -0.5 0.5 -0.5 m -0.5 24 14 0 0 6 -13.5 0 c -0.303 0 -0.5 -0.197 -0.5 -0.5 m 16 -5.5 14 0 0 5.5 c 0 0.303 -0.197 0.5 -0.5 0.5 l -13.5 0"
     mix-blend-mode="normal"
     isolation="auto"
     white-space="normal"
     solid-opacity="1"
     solid-color="#000000"
     style="visibility:visible;shape-rendering:auto;color-interpolation-filters:linearRGB;fill:#cccccc;opacity:1;image-rendering:auto;fill-opacity:1;stroke:none;display:inline;color:#000;fill-rule:nonzero;color-rendering:auto;color-interpolation:sRGB"
     id="path4" />
</svg>
