<?xml version="1.0" encoding="UTF-8" standalone="no"?>
<!-- Created with Inkscape (http://www.inkscape.org/) -->

<svg
   xmlns:dc="http://purl.org/dc/elements/1.1/"
   xmlns:cc="http://creativecommons.org/ns#"
   xmlns:rdf="http://www.w3.org/1999/02/22-rdf-syntax-ns#"
   xmlns:svg="http://www.w3.org/2000/svg"
   xmlns="http://www.w3.org/2000/svg"
   xmlns:xlink="http://www.w3.org/1999/xlink"
   xmlns:sodipodi="http://sodipodi.sourceforge.net/DTD/sodipodi-0.dtd"
   xmlns:inkscape="http://www.inkscape.org/namespaces/inkscape"
   version="1.0"
   width="96"
   height="96"
   id="svg2408"
   sodipodi:docname="media-playlist-shuffle.svg"
   inkscape:version="0.92.1 r15371">
  <sodipodi:namedview
     pagecolor="#ffffff"
     bordercolor="#666666"
     borderopacity="1"
     objecttolerance="10"
     gridtolerance="10"
     guidetolerance="10"
     inkscape:pageopacity="0"
     inkscape:pageshadow="2"
     inkscape:window-width="2024"
     inkscape:window-height="1320"
     id="namedview139"
     showgrid="false"
     inkscape:zoom="2.4583333"
     inkscape:cx="199.93502"
     inkscape:cy="58.491496"
     inkscape:window-x="1117"
     inkscape:window-y="623"
     inkscape:window-maximized="0"
     inkscape:current-layer="layer4" />
  <defs
     id="defs2410">
    <linearGradient
       x1="45.447727"
       y1="92.539597"
       x2="45.447727"
       y2="7.0165396"
       id="ButtonShadow"
       gradientUnits="userSpaceOnUse"
       gradientTransform="scale(1.0058652,0.994169)">
      <stop
         id="stop3750"
         style="stop-color:#000000;stop-opacity:1"
         offset="0" />
      <stop
         id="stop3752"
         style="stop-color:#000000;stop-opacity:0.58823532"
         offset="1" />
    </linearGradient>
    <linearGradient
       id="linearGradient3737">
      <stop
         id="stop3739"
         style="stop-color:#ffffff;stop-opacity:1"
         offset="0" />
      <stop
         id="stop3741"
         style="stop-color:#ffffff;stop-opacity:0"
         offset="1" />
    </linearGradient>
    <filter
       color-interpolation-filters="sRGB"
       id="filter3174">
      <feGaussianBlur
         id="feGaussianBlur3176"
         stdDeviation="1.71" />
    </filter>
    <linearGradient
       x1="36.357143"
       y1="6"
       x2="36.357143"
       y2="63.893143"
       id="linearGradient3188"
       xlink:href="#linearGradient3737"
       gradientUnits="userSpaceOnUse" />
    <filter
       x="-0.192"
       y="-0.192"
       width="1.3839999"
       height="1.3839999"
       color-interpolation-filters="sRGB"
       id="filter3794">
      <feGaussianBlur
         id="feGaussianBlur3796"
         stdDeviation="5.28" />
    </filter>
    <linearGradient
       x1="48"
       y1="20.220806"
       x2="48"
       y2="138.66119"
       id="linearGradient3613"
       xlink:href="#linearGradient3737"
       gradientUnits="userSpaceOnUse" />
    <radialGradient
       cx="48"
       cy="90.171875"
       r="42"
       fx="48"
       fy="90.171875"
       id="radialGradient3619"
       xlink:href="#linearGradient3737"
       gradientUnits="userSpaceOnUse"
       gradientTransform="matrix(1.1573129,0,0,0.99590774,-7.5510206,0.19713193)" />
    <clipPath
       id="clipPath3613">
      <rect
         width="84"
         height="84"
         rx="6"
         ry="6"
         x="6"
         y="6"
         id="rect3615"
         style="fill:#ffffff;fill-opacity:1;fill-rule:nonzero;stroke:none" />
    </clipPath>
    <linearGradient
       x1="48"
       y1="90"
       x2="48"
       y2="5.9877172"
       id="linearGradient3617"
       xlink:href="#linearGradient4081"
       gradientUnits="userSpaceOnUse" />
    <linearGradient
       x1="45.447727"
       y1="92.539597"
       x2="45.447727"
       y2="7.0165396"
       id="ButtonShadow-0"
       gradientUnits="userSpaceOnUse"
       gradientTransform="matrix(1.0058652,0,0,0.994169,100,0)">
      <stop
         id="stop3750-8"
         style="stop-color:#000000;stop-opacity:1"
         offset="0" />
      <stop
         id="stop3752-5"
         style="stop-color:#000000;stop-opacity:0.58823532"
         offset="1" />
    </linearGradient>
    <linearGradient
       x1="32.251034"
       y1="6.1317081"
       x2="32.251034"
       y2="90.238609"
       id="linearGradient3780"
       xlink:href="#ButtonShadow-0"
       gradientUnits="userSpaceOnUse"
       gradientTransform="matrix(1.0238095,0,0,1.0119048,-1.1428571,-98.071429)" />
    <linearGradient
       x1="32.251034"
       y1="6.1317081"
       x2="32.251034"
       y2="90.238609"
       id="linearGradient3772"
       xlink:href="#ButtonShadow-0"
       gradientUnits="userSpaceOnUse"
       gradientTransform="matrix(1.0238095,0,0,1.0119048,-1.1428571,-98.071429)" />
    <linearGradient
       x1="32.251034"
       y1="6.1317081"
       x2="32.251034"
       y2="90.238609"
       id="linearGradient3725"
       xlink:href="#ButtonShadow-0"
       gradientUnits="userSpaceOnUse"
       gradientTransform="matrix(1.0238095,0,0,1.0119048,-1.1428571,-98.071429)" />
    <linearGradient
       x1="32.251034"
       y1="6.1317081"
       x2="32.251034"
       y2="90.238609"
       id="linearGradient3721"
       xlink:href="#ButtonShadow-0"
       gradientUnits="userSpaceOnUse"
       gradientTransform="translate(0,-97)" />
    <linearGradient
       x1="32.251034"
       y1="6.1317081"
       x2="32.251034"
       y2="90.238609"
       id="linearGradient3026"
       xlink:href="#ButtonShadow-0"
       gradientUnits="userSpaceOnUse"
       gradientTransform="matrix(1.0238095,0,0,1.0119048,-1.1428571,-98.071429)" />
    <linearGradient
       id="linearGradient4081">
      <stop
         id="stop4083"
         style="stop-color:#8c8c8c;stop-opacity:1"
         offset="0" />
      <stop
         id="stop4085"
         style="stop-color:#dcdcdc;stop-opacity:1"
         offset="1" />
    </linearGradient>
    <linearGradient
       id="linearGradient4281-6">
      <stop
         id="stop4283-9"
         style="stop-color:#dbdbdb;stop-opacity:1;"
         offset="0" />
      <stop
         id="stop4285-8"
         style="stop-color:#e8e8e8;stop-opacity:1;"
         offset="1" />
    </linearGradient>
    <clipPath
       id="clipPath4194-1">
      <rect
         width="84"
         height="84"
         rx="6"
         ry="6"
         x="6"
         y="6"
         id="rect4196-1"
         style="fill:#ff00ff;fill-opacity:1;fill-rule:nonzero;stroke:none" />
    </clipPath>
    <linearGradient
       x1="48.233639"
       y1="48.047016"
       x2="126.13924"
       y2="66.232674"
       id="linearGradient4077-0"
       xlink:href="#linearGradient4071-3"
       gradientUnits="userSpaceOnUse" />
    <linearGradient
       id="linearGradient4071-3">
      <stop
         id="stop4073-8"
         style="stop-color:#000000;stop-opacity:1"
         offset="0" />
      <stop
         id="stop4075-4"
         style="stop-color:#000000;stop-opacity:0"
         offset="1" />
    </linearGradient>
    <linearGradient
       x1="48.055065"
       y1="48.031517"
       x2="126.67282"
       y2="62.838562"
       id="linearGradient4069-9"
       xlink:href="#linearGradient4047-2"
       gradientUnits="userSpaceOnUse" />
    <linearGradient
       id="linearGradient4047-2">
      <stop
         id="stop4049-0"
         style="stop-color:#000000;stop-opacity:1"
         offset="0" />
      <stop
         id="stop4051-5"
         style="stop-color:#000000;stop-opacity:0"
         offset="1" />
    </linearGradient>
    <linearGradient
       x1="47.997307"
       y1="48.028725"
       x2="127.05216"
       y2="60.289631"
       id="linearGradient4061-6"
       xlink:href="#linearGradient4047-2"
       gradientUnits="userSpaceOnUse" />
    <linearGradient
       x1="47.99826"
       y1="48.028797"
       x2="127.41583"
       y2="57.664623"
       id="linearGradient4053-2"
       xlink:href="#linearGradient4047-2"
       gradientUnits="userSpaceOnUse" />
    <linearGradient
       x1="48.233643"
       y1="48.04702"
       x2="126.13924"
       y2="66.232674"
       id="linearGradient4145-0"
       xlink:href="#linearGradient4115-2"
       gradientUnits="userSpaceOnUse" />
    <linearGradient
       id="linearGradient4115-2">
      <stop
         id="stop4117-3"
         style="stop-color:#ffffff;stop-opacity:1"
         offset="0" />
      <stop
         id="stop4119-6"
         style="stop-color:#ffffff;stop-opacity:0"
         offset="1" />
    </linearGradient>
    <linearGradient
       x1="48.055069"
       y1="48.031521"
       x2="126.67282"
       y2="62.838566"
       id="linearGradient4137-7"
       xlink:href="#linearGradient4115-2"
       gradientUnits="userSpaceOnUse" />
    <linearGradient
       x1="47.997311"
       y1="48.028728"
       x2="127.05216"
       y2="60.289635"
       id="linearGradient4129-8"
       xlink:href="#linearGradient4115-2"
       gradientUnits="userSpaceOnUse" />
    <linearGradient
       x1="47.998264"
       y1="48.028801"
       x2="127.41583"
       y2="57.664627"
       id="linearGradient4121-6"
       xlink:href="#linearGradient4115-2"
       gradientUnits="userSpaceOnUse" />
    <linearGradient
       x1="48.233639"
       y1="48.047016"
       x2="126.13924"
       y2="66.232674"
       id="linearGradient4089-7"
       xlink:href="#linearGradient4071-3"
       gradientUnits="userSpaceOnUse" />
    <linearGradient
       x1="48.055065"
       y1="48.031517"
       x2="126.67282"
       y2="62.838562"
       id="linearGradient4091-0"
       xlink:href="#linearGradient4047-2"
       gradientUnits="userSpaceOnUse" />
    <linearGradient
       x1="47.997307"
       y1="48.028725"
       x2="127.05216"
       y2="60.289631"
       id="linearGradient4093-5"
       xlink:href="#linearGradient4047-2"
       gradientUnits="userSpaceOnUse" />
    <linearGradient
       x1="47.99826"
       y1="48.028797"
       x2="127.41583"
       y2="57.664623"
       id="linearGradient4095-8"
       xlink:href="#linearGradient4047-2"
       gradientUnits="userSpaceOnUse" />
    <linearGradient
       x1="48.233639"
       y1="48.047016"
       x2="126.13924"
       y2="66.232674"
       id="linearGradient4107-8"
       xlink:href="#linearGradient4071-3"
       gradientUnits="userSpaceOnUse" />
    <linearGradient
       x1="48.055065"
       y1="48.031517"
       x2="126.67282"
       y2="62.838562"
       id="linearGradient4109-3"
       xlink:href="#linearGradient4047-2"
       gradientUnits="userSpaceOnUse" />
    <linearGradient
       x1="47.997307"
       y1="48.028725"
       x2="127.05216"
       y2="60.289631"
       id="linearGradient4111-3"
       xlink:href="#linearGradient4047-2"
       gradientUnits="userSpaceOnUse" />
    <linearGradient
       x1="47.99826"
       y1="48.028797"
       x2="127.41583"
       y2="57.664623"
       id="linearGradient4113-5"
       xlink:href="#linearGradient4047-2"
       gradientUnits="userSpaceOnUse" />
    <linearGradient
       x1="48.233643"
       y1="48.04702"
       x2="126.13924"
       y2="66.232674"
       id="linearGradient4157-8"
       xlink:href="#linearGradient4115-2"
       gradientUnits="userSpaceOnUse" />
    <linearGradient
       x1="48.055069"
       y1="48.031521"
       x2="126.67282"
       y2="62.838566"
       id="linearGradient4159-8"
       xlink:href="#linearGradient4115-2"
       gradientUnits="userSpaceOnUse" />
    <linearGradient
       x1="47.997311"
       y1="48.028728"
       x2="127.05216"
       y2="60.289635"
       id="linearGradient4161-2"
       xlink:href="#linearGradient4115-2"
       gradientUnits="userSpaceOnUse" />
    <linearGradient
       x1="47.998264"
       y1="48.028801"
       x2="127.41583"
       y2="57.664627"
       id="linearGradient4163-3"
       xlink:href="#linearGradient4115-2"
       gradientUnits="userSpaceOnUse" />
    <radialGradient
       cx="48"
       cy="90.171875"
       r="42"
       fx="48"
       fy="90.171875"
       id="radialGradient3619-8"
       xlink:href="#linearGradient3737-6"
       gradientUnits="userSpaceOnUse"
       gradientTransform="matrix(1.1573129,0,0,0.99590774,-7.551021,0.1971319)" />
    <linearGradient
       id="linearGradient3737-6">
      <stop
         id="stop3739-9"
         style="stop-color:#ffffff;stop-opacity:1"
         offset="0" />
      <stop
         id="stop3741-6"
         style="stop-color:#ffffff;stop-opacity:0"
         offset="1" />
    </linearGradient>
    <linearGradient
       x1="36.357143"
       y1="6"
       x2="36.357143"
       y2="63.893143"
       id="linearGradient3047"
       xlink:href="#linearGradient3737-6"
       gradientUnits="userSpaceOnUse" />
    <radialGradient
       cx="48.410488"
       cy="47.59774"
       r="30.640047"
       fx="48.410488"
       fy="47.59774"
       id="radialGradient3814-9"
       xlink:href="#linearGradient3796-9"
       gradientUnits="userSpaceOnUse"
       gradientTransform="matrix(1,0,0,0.98495914,-30,0.71591078)" />
    <linearGradient
       id="linearGradient3796-9">
      <stop
         id="stop3798-4"
         style="stop-color:#ffffff;stop-opacity:0"
         offset="0" />
      <stop
         id="stop3800-9"
         style="stop-color:#ffffff;stop-opacity:1"
         offset="1" />
    </linearGradient>
    <linearGradient
       id="linearGradient3780-6-5">
      <stop
         id="stop3782-4"
         style="stop-color:#000000;stop-opacity:0"
         offset="0" />
      <stop
         id="stop3784-9"
         style="stop-color:#000000;stop-opacity:1"
         offset="1" />
    </linearGradient>
    <radialGradient
       cx="48.265148"
       cy="47.886696"
       r="28.878813"
       fx="48.265148"
       fy="47.886696"
       id="radialGradient5008"
       xlink:href="#linearGradient3780-6-5"
       gradientUnits="userSpaceOnUse"
       gradientTransform="matrix(1,0,0,1.013812,-30,-0.66140908)" />
    <linearGradient
       x1="38"
       y1="28"
       x2="38"
       y2="68"
       id="linearGradient3935"
       xlink:href="#linearGradient4281-6"
       gradientUnits="userSpaceOnUse"
       gradientTransform="translate(-90,0)" />
    <linearGradient
       x1="7.9406605"
       y1="5.0990195"
       x2="7.9406605"
       y2="19.219381"
       id="linearGradient4057"
       xlink:href="#linearGradient4281-6"
       gradientUnits="userSpaceOnUse"
       gradientTransform="matrix(3.5300904,0,0,2.5495098,16,18)" />
    <linearGradient
       inkscape:collect="always"
       xlink:href="#ButtonShadow-0-3"
       id="linearGradient4671"
       gradientUnits="userSpaceOnUse"
       gradientTransform="matrix(1.0238095,0,0,-1.0119048,-1.1428571,98.071429)"
       x1="32.251034"
       y1="6.1317081"
       x2="32.251034"
       y2="90.238609" />
    <linearGradient
       x1="45.447727"
       y1="92.539597"
       x2="45.447727"
       y2="7.0165396"
       id="ButtonShadow-0-3"
       gradientUnits="userSpaceOnUse"
       gradientTransform="matrix(1.0058652,0,0,0.994169,100,0)">
      <stop
         id="stop3750-8-6"
         style="stop-color:#020202;stop-opacity:1;"
         offset="0" />
      <stop
         id="stop3752-5-7"
         style="stop-color:#000000;stop-opacity:0.58823532"
         offset="1" />
    </linearGradient>
    <linearGradient
       x1="32.251034"
       y1="6.1317081"
       x2="32.251034"
       y2="90.238609"
       id="linearGradient3721-4"
       xlink:href="#ButtonShadow-0-3"
       gradientUnits="userSpaceOnUse"
       gradientTransform="matrix(1,0,0,-1,0,97)" />
    <radialGradient
       cx="48"
       cy="90.171875"
       r="42"
       fx="48"
       fy="90.171875"
       id="radialGradient3619-5"
       xlink:href="#linearGradient3737"
       gradientUnits="userSpaceOnUse"
       gradientTransform="matrix(1.1573129,0,0,0.99590774,-7.551021,0.1971319)" />
    <linearGradient
       inkscape:collect="always"
       xlink:href="#linearGradient3737"
       id="linearGradient4686"
       gradientUnits="userSpaceOnUse"
       x1="36.357143"
       y1="6"
       x2="36.357143"
       y2="63.893143" />
    <linearGradient
       inkscape:collect="always"
       xlink:href="#ButtonShadow-0-3"
       id="linearGradient4688"
       gradientUnits="userSpaceOnUse"
       gradientTransform="matrix(1.0238095,0,0,-1.0119048,-1.1428571,98.071429)"
       x1="32.251034"
       y1="6.1317081"
       x2="32.251034"
       y2="90.238609" />
    <linearGradient
       inkscape:collect="always"
       xlink:href="#ButtonShadow-0-3"
       id="linearGradient4690"
       gradientUnits="userSpaceOnUse"
       gradientTransform="matrix(1.0238095,0,0,-1.0119048,-1.1428571,98.071429)"
       x1="32.251034"
       y1="6.1317081"
       x2="32.251034"
       y2="90.238609" />
    <linearGradient
       inkscape:collect="always"
       xlink:href="#ButtonShadow-0-3"
       id="linearGradient4692"
       gradientUnits="userSpaceOnUse"
       gradientTransform="matrix(1.0238095,0,0,-1.0119048,-1.1428571,98.071429)"
       x1="32.251034"
       y1="6.1317081"
       x2="32.251034"
       y2="90.238609" />
  </defs>
  <metadata
     id="metadata2413">
    <rdf:RDF>
      <cc:Work
         rdf:about="">
        <dc:format>image/svg+xml</dc:format>
        <dc:type
           rdf:resource="http://purl.org/dc/dcmitype/StillImage" />
        <dc:title />
      </cc:Work>
    </rdf:RDF>
  </metadata>
  <g
     id="layer2"
     style="display:none">
    <rect
       width="86"
       height="85"
       rx="6"
       ry="6"
       x="5"
       y="7"
       id="rect3745"
       style="opacity:0.9;fill:url(#ButtonShadow);fill-opacity:1;fill-rule:nonzero;stroke:none;filter:url(#filter3174)" />
  </g>
  <g
     id="layer5"
     style="display:none">
    <rect
       width="66"
       height="66"
       rx="12"
       ry="12"
       x="15"
       y="15"
       clip-path="url(#clipPath3613)"
       id="rect3171"
       style="opacity:0.3;fill:url(#linearGradient3613);fill-opacity:1;fill-rule:nonzero;stroke:#ffffff;stroke-width:0.5;stroke-linecap:round;stroke-linejoin:miter;stroke-miterlimit:4;stroke-opacity:1;stroke-dasharray:none;stroke-dashoffset:0;filter:url(#filter3794)" />
  </g>
  <g
     id="layer6"
     style="display:inline">
    <path
       d="M 12,90 C 8.676,90 6,87.324 6,84 L 6,82 6,14 6,12 c 0,-0.334721 0.04135,-0.6507 0.09375,-0.96875 0.0487,-0.295596 0.09704,-0.596915 0.1875,-0.875 C 6.29113,10.12587 6.302142,10.09265 6.3125,10.0625 6.411365,9.774729 6.5473802,9.515048 6.6875,9.25 6.8320918,8.976493 7.0031161,8.714385 7.1875,8.46875 7.3718839,8.223115 7.5612765,7.995278 7.78125,7.78125 8.221197,7.353194 8.72416,6.966724 9.28125,6.6875 9.559795,6.547888 9.8547231,6.440553 10.15625,6.34375 9.9000482,6.443972 9.6695391,6.580022 9.4375,6.71875 c -0.00741,0.0044 -0.023866,-0.0045 -0.03125,0 -0.031933,0.0193 -0.062293,0.04251 -0.09375,0.0625 -0.120395,0.0767 -0.2310226,0.163513 -0.34375,0.25 -0.1061728,0.0808 -0.2132809,0.161112 -0.3125,0.25 C 8.4783201,7.442683 8.3087904,7.626638 8.15625,7.8125 8.0486711,7.942755 7.9378561,8.077785 7.84375,8.21875 7.818661,8.25713 7.805304,8.30462 7.78125,8.34375 7.716487,8.446782 7.6510225,8.548267 7.59375,8.65625 7.4927417,8.850956 7.3880752,9.071951 7.3125,9.28125 7.30454,9.30306 7.288911,9.3218 7.28125,9.34375 7.2494249,9.4357 7.2454455,9.530581 7.21875,9.625 7.1884177,9.731618 7.1483606,9.828031 7.125,9.9375 7.0521214,10.279012 7,10.635705 7,11 l 0,2 0,68 0,2 c 0,2.781848 2.2181517,5 5,5 l 2,0 68,0 2,0 c 2.781848,0 5,-2.218152 5,-5 l 0,-2 0,-68 0,-2 C 89,10.635705 88.94788,10.279012 88.875,9.9375 88.83085,9.730607 88.78662,9.539842 88.71875,9.34375 88.71105,9.3218 88.69545,9.30306 88.6875,9.28125 88.62476,9.107511 88.549117,8.913801 88.46875,8.75 88.42717,8.6672 88.38971,8.580046 88.34375,8.5 88.28915,8.40279 88.216976,8.31165 88.15625,8.21875 88.06214,8.077785 87.951329,7.942755 87.84375,7.8125 87.700576,7.63805 87.540609,7.465502 87.375,7.3125 87.36383,7.3023 87.35502,7.29135 87.34375,7.28125 87.205364,7.155694 87.058659,7.046814 86.90625,6.9375 86.803679,6.86435 86.701932,6.784136 86.59375,6.71875 c -0.0074,-0.0045 -0.02384,0.0044 -0.03125,0 -0.232039,-0.138728 -0.462548,-0.274778 -0.71875,-0.375 0.301527,0.0968 0.596455,0.204138 0.875,0.34375 0.55709,0.279224 1.060053,0.665694 1.5,1.09375 0.219973,0.214028 0.409366,0.441865 0.59375,0.6875 0.184384,0.245635 0.355408,0.507743 0.5,0.78125 0.14012,0.265048 0.276135,0.524729 0.375,0.8125 0.01041,0.03078 0.02133,0.06274 0.03125,0.09375 0.09046,0.278085 0.1388,0.579404 0.1875,0.875 C 89.95865,11.3493 90,11.665279 90,12 l 0,2 0,68 0,2 c 0,3.324 -2.676,6 -6,6 l -72,0 z"
       inkscape:connector-curvature="0"
       id="path3615"
       style="opacity:0.25;fill:url(#radialGradient3619);fill-opacity:1;fill-rule:nonzero;stroke:none;display:none" />
    <path
       d="M 12,6 C 8.676,6 6,8.676 6,12 l 0,2 0,68 0,2 c 0,0.334721 0.04135,0.6507 0.09375,0.96875 0.0487,0.295596 0.09704,0.596915 0.1875,0.875 0.0099,0.03038 0.02089,0.0636 0.03125,0.09375 0.09886,0.287771 0.23488,0.547452 0.375,0.8125 0.144592,0.273507 0.315616,0.535615 0.5,0.78125 0.184384,0.245635 0.373776,0.473472 0.59375,0.6875 0.439947,0.428056 0.94291,0.814526 1.5,1.09375 0.278545,0.139612 0.573473,0.246947 0.875,0.34375 -0.256202,-0.100222 -0.486711,-0.236272 -0.71875,-0.375 -0.0074,-0.0044 -0.02387,0.0045 -0.03125,0 -0.03193,-0.0193 -0.06229,-0.04251 -0.09375,-0.0625 -0.120395,-0.0767 -0.231023,-0.163513 -0.34375,-0.25 -0.106173,-0.0808 -0.213281,-0.161112 -0.3125,-0.25 C 8.47832,88.557317 8.30879,88.373362 8.15625,88.1875 8.048671,88.057245 7.937856,87.922215 7.84375,87.78125 7.81866,87.74287 7.8053,87.69538 7.78125,87.65625 7.71649,87.553218 7.651022,87.451733 7.59375,87.34375 7.492742,87.149044 7.388075,86.928049 7.3125,86.71875 7.3045,86.69694 7.28891,86.6782 7.28125,86.65625 7.24942,86.5643 7.24545,86.469419 7.21875,86.375 7.188418,86.268382 7.148361,86.171969 7.125,86.0625 7.052121,85.720988 7,85.364295 7,85 L 7,83 7,15 7,13 C 7,10.218152 9.218152,8 12,8 l 2,0 68,0 2,0 c 2.78185,0 5,2.218152 5,5 l 0,2 0,68 0,2 c 0,0.364295 -0.0521,0.720988 -0.125,1.0625 -0.0442,0.206893 -0.0884,0.397658 -0.15625,0.59375 -0.008,0.02195 -0.0233,0.04069 -0.0312,0.0625 -0.0627,0.173739 -0.13838,0.367449 -0.21875,0.53125 -0.0416,0.0828 -0.079,0.169954 -0.125,0.25 -0.0546,0.09721 -0.12677,0.18835 -0.1875,0.28125 -0.0941,0.140965 -0.20492,0.275995 -0.3125,0.40625 -0.14317,0.17445 -0.30314,0.346998 -0.46875,0.5 -0.0112,0.0102 -0.02,0.02115 -0.0312,0.03125 -0.13839,0.125556 -0.28509,0.234436 -0.4375,0.34375 -0.10257,0.07315 -0.20432,0.153364 -0.3125,0.21875 -0.007,0.0045 -0.0238,-0.0044 -0.0312,0 -0.23204,0.138728 -0.46255,0.274778 -0.71875,0.375 0.30153,-0.0968 0.59646,-0.204138 0.875,-0.34375 0.55709,-0.279224 1.06005,-0.665694 1.5,-1.09375 0.21997,-0.214028 0.40937,-0.441865 0.59375,-0.6875 0.18438,-0.245635 0.35541,-0.507743 0.5,-0.78125 0.14012,-0.265048 0.27613,-0.524729 0.375,-0.8125 0.0104,-0.03078 0.0213,-0.06274 0.0312,-0.09375 0.0905,-0.278085 0.1388,-0.579404 0.1875,-0.875 C 89.95865,84.6507 90,84.334721 90,84 l 0,-2 0,-68 0,-2 C 90,8.676 87.324,6 84,6 L 12,6 z"
       inkscape:connector-curvature="0"
       id="rect3728"
       style="opacity:0.5;fill:url(#linearGradient3188);fill-opacity:1;fill-rule:nonzero;stroke:none;display:none" />
    <path
       d="M 12,6 C 8.676,6 6,8.676 6,12 l 0,2 0,68 0,2 c 0,0.334721 0.04135,0.6507 0.09375,0.96875 0.0487,0.295596 0.09704,0.596915 0.1875,0.875 0.00988,0.03038 0.020892,0.0636 0.03125,0.09375 0.098865,0.287771 0.2348802,0.547452 0.375,0.8125 0.1445918,0.273507 0.3156161,0.535615 0.5,0.78125 0.1843839,0.245635 0.3737765,0.473472 0.59375,0.6875 0.439947,0.428056 0.94291,0.814526 1.5,1.09375 0.278545,0.139612 0.5734731,0.246947 0.875,0.34375 -0.2562018,-0.100222 -0.4867109,-0.236272 -0.71875,-0.375 -0.00741,-0.0044 -0.023866,0.0045 -0.03125,0 -0.031933,-0.0193 -0.062293,-0.04251 -0.09375,-0.0625 -0.120395,-0.0767 -0.2310226,-0.163513 -0.34375,-0.25 -0.1061728,-0.0808 -0.2132809,-0.161112 -0.3125,-0.25 C 8.4783201,88.557317 8.3087904,88.373362 8.15625,88.1875 8.0486711,88.057245 7.9378561,87.922215 7.84375,87.78125 7.818661,87.74287 7.805304,87.69538 7.78125,87.65625 7.716487,87.553218 7.6510225,87.451733 7.59375,87.34375 7.4927417,87.149044 7.3880752,86.928049 7.3125,86.71875 7.30454,86.69694 7.288911,86.6782 7.28125,86.65625 7.2494249,86.5643 7.2454455,86.469419 7.21875,86.375 7.1884177,86.268382 7.1483606,86.171969 7.125,86.0625 7.0521214,85.720988 7,85.364295 7,85 L 7,83 7,15 7,13 C 7,10.218152 9.2181517,8 12,8 l 2,0 68,0 2,0 c 2.781848,0 5,2.218152 5,5 l 0,2 0,68 0,2 c 0,0.364295 -0.05212,0.720988 -0.125,1.0625 -0.04415,0.206893 -0.08838,0.397658 -0.15625,0.59375 -0.0077,0.02195 -0.0233,0.04069 -0.03125,0.0625 -0.06274,0.173739 -0.138383,0.367449 -0.21875,0.53125 -0.04158,0.0828 -0.07904,0.169954 -0.125,0.25 -0.0546,0.09721 -0.126774,0.18835 -0.1875,0.28125 -0.09411,0.140965 -0.204921,0.275995 -0.3125,0.40625 -0.143174,0.17445 -0.303141,0.346998 -0.46875,0.5 -0.01117,0.0102 -0.01998,0.02115 -0.03125,0.03125 -0.138386,0.125556 -0.285091,0.234436 -0.4375,0.34375 -0.102571,0.07315 -0.204318,0.153364 -0.3125,0.21875 -0.0074,0.0045 -0.02384,-0.0044 -0.03125,0 -0.232039,0.138728 -0.462548,0.274778 -0.71875,0.375 0.301527,-0.0968 0.596455,-0.204138 0.875,-0.34375 0.55709,-0.279224 1.060053,-0.665694 1.5,-1.09375 0.219973,-0.214028 0.409366,-0.441865 0.59375,-0.6875 0.184384,-0.245635 0.355408,-0.507743 0.5,-0.78125 0.14012,-0.265048 0.276135,-0.524729 0.375,-0.8125 0.01041,-0.03078 0.02133,-0.06274 0.03125,-0.09375 0.09046,-0.278085 0.1388,-0.579404 0.1875,-0.875 C 89.95865,84.6507 90,84.334721 90,84 l 0,-2 0,-68 0,-2 C 90,8.676 87.324,6 84,6 L 12,6 z"
       inkscape:connector-curvature="0"
       id="rect3728-1"
       style="opacity:0.5;fill:url(#linearGradient3047);fill-opacity:1;fill-rule:nonzero;stroke:none" />
    <path
       d="M 12,90 C 8.676,90 6,87.324 6,84 L 6,82 6,14 6,12 c 0,-0.334721 0.04135,-0.6507 0.09375,-0.96875 0.0487,-0.295596 0.09704,-0.596915 0.1875,-0.875 C 6.29113,10.12587 6.302142,10.09265 6.3125,10.0625 6.411365,9.774729 6.5473802,9.515048 6.6875,9.25 6.8320918,8.976493 7.0031161,8.714385 7.1875,8.46875 7.3718839,8.223115 7.5612765,7.995278 7.78125,7.78125 8.221197,7.353194 8.72416,6.966724 9.28125,6.6875 9.559795,6.547888 9.8547231,6.440553 10.15625,6.34375 9.9000482,6.443972 9.6695391,6.580022 9.4375,6.71875 c -0.00741,0.0044 -0.023866,-0.0045 -0.03125,0 -0.031933,0.0193 -0.062293,0.04251 -0.09375,0.0625 -0.120395,0.0767 -0.2310226,0.163513 -0.34375,0.25 -0.1061728,0.0808 -0.2132809,0.161112 -0.3125,0.25 C 8.4783201,7.442683 8.3087904,7.626638 8.15625,7.8125 8.0486711,7.942755 7.9378561,8.077785 7.84375,8.21875 7.818661,8.25713 7.805304,8.30462 7.78125,8.34375 7.716487,8.446782 7.6510225,8.548267 7.59375,8.65625 7.4927417,8.850956 7.3880752,9.071951 7.3125,9.28125 7.30454,9.30306 7.288911,9.3218 7.28125,9.34375 7.2494249,9.4357 7.2454455,9.530581 7.21875,9.625 7.1884177,9.731618 7.1483606,9.828031 7.125,9.9375 7.0521214,10.279012 7,10.635705 7,11 l 0,2 0,68 0,2 c 0,2.781848 2.2181517,5 5,5 l 2,0 68,0 2,0 c 2.781848,0 5,-2.218152 5,-5 l 0,-2 0,-68 0,-2 C 89,10.635705 88.94788,10.279012 88.875,9.9375 88.83085,9.730607 88.78662,9.539842 88.71875,9.34375 88.71105,9.3218 88.69545,9.30306 88.6875,9.28125 88.62476,9.107511 88.549117,8.913801 88.46875,8.75 88.42717,8.6672 88.38971,8.580046 88.34375,8.5 88.28915,8.40279 88.216976,8.31165 88.15625,8.21875 88.06214,8.077785 87.951329,7.942755 87.84375,7.8125 87.700576,7.63805 87.540609,7.465502 87.375,7.3125 87.36383,7.3023 87.35502,7.29135 87.34375,7.28125 87.205364,7.155694 87.058659,7.046814 86.90625,6.9375 86.803679,6.86435 86.701932,6.784136 86.59375,6.71875 c -0.0074,-0.0045 -0.02384,0.0044 -0.03125,0 -0.232039,-0.138728 -0.462548,-0.274778 -0.71875,-0.375 0.301527,0.0968 0.596455,0.204138 0.875,0.34375 0.55709,0.279224 1.060053,0.665694 1.5,1.09375 0.219973,0.214028 0.409366,0.441865 0.59375,0.6875 0.184384,0.245635 0.355408,0.507743 0.5,0.78125 0.14012,0.265048 0.276135,0.524729 0.375,0.8125 0.01041,0.03078 0.02133,0.06274 0.03125,0.09375 0.09046,0.278085 0.1388,0.579404 0.1875,0.875 C 89.95865,11.3493 90,11.665279 90,12 l 0,2 0,68 0,2 c 0,3.324 -2.676,6 -6,6 l -72,0 z"
       inkscape:connector-curvature="0"
       id="path3615-9"
       style="opacity:0.2;fill:url(#radialGradient3619-8);fill-opacity:1;fill-rule:nonzero;stroke:none" />
  </g>
  <g
     id="layer4"
     style="display:inline">
    <g
       id="layer11"
       style="display:inline">
      <rect
         width="84"
         height="84"
         rx="6"
         ry="6"
         x="6"
         y="6"
         id="rect2419-1"
         style="display:inline;opacity:0.6;fill:#000000;fill-opacity:1;fill-rule:nonzero;stroke:none" />
      <path
         d="M 12,6 C 8.676,6 6,8.676 6,12 v 2 68 2 c 0,0.334721 0.04135,0.6507 0.09375,0.96875 0.0487,0.295596 0.09704,0.596915 0.1875,0.875 0.00988,0.03038 0.020892,0.0636 0.03125,0.09375 0.098865,0.287771 0.2348802,0.547452 0.375,0.8125 0.1445918,0.273507 0.3156161,0.535615 0.5,0.78125 0.1843839,0.245635 0.3737765,0.473472 0.59375,0.6875 0.439947,0.428056 0.94291,0.814526 1.5,1.09375 0.278545,0.139612 0.5734731,0.246947 0.875,0.34375 -0.2562018,-0.100222 -0.4867109,-0.236272 -0.71875,-0.375 -0.00741,-0.0044 -0.023866,0.0045 -0.03125,0 -0.031933,-0.0193 -0.062293,-0.04251 -0.09375,-0.0625 -0.120395,-0.0767 -0.2310226,-0.163513 -0.34375,-0.25 -0.1061728,-0.0808 -0.2132809,-0.161112 -0.3125,-0.25 C 8.4783201,88.557317 8.3087904,88.373362 8.15625,88.1875 8.0486711,88.057245 7.9378561,87.922215 7.84375,87.78125 7.818661,87.74287 7.805304,87.69538 7.78125,87.65625 7.716487,87.553218 7.6510225,87.451733 7.59375,87.34375 7.4927417,87.149044 7.3880752,86.928049 7.3125,86.71875 7.30454,86.69694 7.288911,86.6782 7.28125,86.65625 7.2494249,86.5643 7.2454455,86.469419 7.21875,86.375 7.1884177,86.268382 7.1483606,86.171969 7.125,86.0625 7.0521214,85.720988 7,85.364295 7,85 V 83 15 13 C 7,10.218152 9.2181517,8 12,8 h 2 68 2 c 2.781848,0 5,2.218152 5,5 v 2 68 2 c 0,0.364295 -0.05212,0.720988 -0.125,1.0625 -0.04415,0.206893 -0.08838,0.397658 -0.15625,0.59375 -0.0077,0.02195 -0.0233,0.04069 -0.03125,0.0625 -0.06274,0.173739 -0.138383,0.367449 -0.21875,0.53125 -0.04158,0.0828 -0.07904,0.169954 -0.125,0.25 -0.0546,0.09721 -0.126774,0.18835 -0.1875,0.28125 -0.09411,0.140965 -0.204921,0.275995 -0.3125,0.40625 -0.143174,0.17445 -0.303141,0.346998 -0.46875,0.5 -0.01117,0.0102 -0.01998,0.02115 -0.03125,0.03125 -0.138386,0.125556 -0.285091,0.234436 -0.4375,0.34375 -0.102571,0.07315 -0.204318,0.153364 -0.3125,0.21875 -0.0074,0.0045 -0.02384,-0.0044 -0.03125,0 -0.232039,0.138728 -0.462548,0.274778 -0.71875,0.375 0.301527,-0.0968 0.596455,-0.204138 0.875,-0.34375 0.55709,-0.279224 1.060053,-0.665694 1.5,-1.09375 0.219973,-0.214028 0.409366,-0.441865 0.59375,-0.6875 0.184384,-0.245635 0.355408,-0.507743 0.5,-0.78125 0.14012,-0.265048 0.276135,-0.524729 0.375,-0.8125 0.01041,-0.03078 0.02133,-0.06274 0.03125,-0.09375 0.09046,-0.278085 0.1388,-0.579404 0.1875,-0.875 C 89.95865,84.6507 90,84.334721 90,84 V 82 14 12 C 90,8.676 87.324,6 84,6 Z"
         inkscape:connector-curvature="0"
         id="rect3728-9"
         style="display:inline;opacity:0.01000001;fill:url(#linearGradient4686);fill-opacity:1;fill-rule:nonzero;stroke:none" />
      <path
         d="M 12,90 C 8.676,90 6,87.324 6,84 V 82 14 12 c 0,-0.334721 0.04135,-0.6507 0.09375,-0.96875 0.0487,-0.295596 0.09704,-0.596915 0.1875,-0.875 C 6.29113,10.12587 6.302142,10.09265 6.3125,10.0625 6.411365,9.774729 6.5473802,9.515048 6.6875,9.25 6.8320918,8.976493 7.0031161,8.714385 7.1875,8.46875 7.3718839,8.223115 7.5612765,7.995278 7.78125,7.78125 8.221197,7.353194 8.72416,6.966724 9.28125,6.6875 9.559795,6.547888 9.8547231,6.440553 10.15625,6.34375 9.9000482,6.443972 9.6695391,6.580022 9.4375,6.71875 c -0.00741,0.0044 -0.023866,-0.0045 -0.03125,0 -0.031933,0.0193 -0.062293,0.04251 -0.09375,0.0625 -0.120395,0.0767 -0.2310226,0.163513 -0.34375,0.25 -0.1061728,0.0808 -0.2132809,0.161112 -0.3125,0.25 C 8.4783201,7.442683 8.3087904,7.626638 8.15625,7.8125 8.0486711,7.942755 7.9378561,8.077785 7.84375,8.21875 7.818661,8.25713 7.805304,8.30462 7.78125,8.34375 7.716487,8.446782 7.6510225,8.548267 7.59375,8.65625 7.4927417,8.850956 7.3880752,9.071951 7.3125,9.28125 7.30454,9.30306 7.288911,9.3218 7.28125,9.34375 7.2494249,9.4357 7.2454455,9.530581 7.21875,9.625 7.1884177,9.731618 7.1483606,9.828031 7.125,9.9375 7.0521214,10.279012 7,10.635705 7,11 v 2 68 2 c 0,2.781848 2.2181517,5 5,5 h 2 68 2 c 2.781848,0 5,-2.218152 5,-5 V 81 13 11 C 89,10.635705 88.94788,10.279012 88.875,9.9375 88.83085,9.730607 88.78662,9.539842 88.71875,9.34375 88.71105,9.3218 88.69545,9.30306 88.6875,9.28125 88.62476,9.107511 88.549117,8.913801 88.46875,8.75 88.42717,8.6672 88.38971,8.580046 88.34375,8.5 88.28915,8.40279 88.216976,8.31165 88.15625,8.21875 88.06214,8.077785 87.951329,7.942755 87.84375,7.8125 87.700576,7.63805 87.540609,7.465502 87.375,7.3125 87.36383,7.3023 87.35502,7.29135 87.34375,7.28125 87.205364,7.155694 87.058659,7.046814 86.90625,6.9375 86.803679,6.86435 86.701932,6.784136 86.59375,6.71875 c -0.0074,-0.0045 -0.02384,0.0044 -0.03125,0 -0.232039,-0.138728 -0.462548,-0.274778 -0.71875,-0.375 0.301527,0.0968 0.596455,0.204138 0.875,0.34375 0.55709,0.279224 1.060053,0.665694 1.5,1.09375 0.219973,0.214028 0.409366,0.441865 0.59375,0.6875 0.184384,0.245635 0.355408,0.507743 0.5,0.78125 0.14012,0.265048 0.276135,0.524729 0.375,0.8125 0.01041,0.03078 0.02133,0.06274 0.03125,0.09375 0.09046,0.278085 0.1388,0.579404 0.1875,0.875 C 89.95865,11.3493 90,11.665279 90,12 v 2 68 2 c 0,3.324 -2.676,6 -6,6 z"
         inkscape:connector-curvature="0"
         id="path3615-0"
         style="display:inline;opacity:0.15;fill:url(#radialGradient3619-5);fill-opacity:1;fill-rule:nonzero;stroke:none" />
    </g>
    <path
       d="m 61,30 0,6 -6.09375,0 c -3.68067,0 -6.769734,1.621299 -9,3.65625 -1.459462,1.331649 -2.589935,2.82195 -3.65625,4.3125 L 38.03125,49.875 c -0.624445,0.774408 -1.2356,1.497354 -1.875,2.0625 C 34.646556,53.27187 33.192491,54 30.90625,54 L 22,54 l 0,6 8.90625,0 c 3.769531,0 6.886194,-1.528446 9.1875,-3.5625 0.629359,-0.556272 1.153142,-1.17165 1.6875,-1.78125 1.321211,-1.739436 2.626176,-3.500124 3.9375,-5.25 1.444548,-2.13639 2.820723,-4.068156 4.21875,-5.34375 C 51.398959,42.729027 52.769695,42 54.90625,42 L 61,42 61,48 76,39 61,30 z M 62.625,32.84375 72.875,39 62.625,45.15625 62.625,42 A 1.6218146,1.6218146 0 0 0 61,40.375 l -6.09375,0 c -2.505444,0 -4.44548,1.024589 -6.0625,2.5 -1.594038,1.45444 -2.993706,3.428466 -4.4375,5.5625 -0.01336,0.01975 -0.01788,0.04272 -0.03125,0.0625 -1.278085,1.705907 -2.535752,3.411448 -3.8125,5.09375 -0.02258,0.02975 -0.03991,0.06401 -0.0625,0.09375 -0.511549,0.584113 -0.975362,1.095159 -1.46875,1.53125 -2.058979,1.819868 -4.793827,3.15625 -8.125,3.15625 l -7.28125,0 0,-2.75 7.28125,0 c 2.630554,0 4.634999,-0.98606 6.3125,-2.46875 0.76939,-0.68004 1.423077,-1.457017 2.0625,-2.25 a 1.6218146,1.6218146 0 0 0 0.0625,-0.09375 L 43.5625,44.90625 C 44.610856,43.440804 45.677548,42.050388 47,40.84375 48.996318,39.022259 51.701795,37.625 54.90625,37.625 L 61,37.625 A 1.6218146,1.6218146 0 0 0 62.625,36 l 0,-3.15625 z M 22,38 l 0,6 8.90625,0 c 2.286241,0 3.740306,0.72813 5.25,2.0625 0.245103,0.216639 0.479608,0.461725 0.71875,0.71875 L 40.03125,42.375 c 0.119679,-0.167293 0.251387,-0.330318 0.375,-0.5 -0.106314,-0.102734 -0.200114,-0.213166 -0.3125,-0.3125 C 37.792444,39.528446 34.675781,38 30.90625,38 L 22,38 z m 1.625,1.625 7.28125,0 c 2.92258,0 5.301319,1.112483 7.25,2.59375 L 36.5625,44.4375 C 35.007819,43.236358 33.229474,42.375 30.90625,42.375 l -7.28125,0 0,-2.75 z M 61,50 l 0,6 -6.09375,0 c -2.136555,0 -3.507291,-0.729027 -4.96875,-2.0625 -0.760113,-0.693546 -1.519555,-1.584833 -2.28125,-2.59375 -1.220453,1.629497 -2.443019,3.298679 -3.6875,4.9375 0.590542,0.713447 1.219127,1.407039 1.9375,2.0625 2.230266,2.034951 5.31933,3.65625 9,3.65625 L 61,62 61,68 76,59 61,50 z M 62.625,52.84375 72.875,59 62.625,65.15625 62.625,62 A 1.6218146,1.6218146 0 0 0 61,60.375 l -6.09375,0 c -3.204455,0 -5.909932,-1.397259 -7.90625,-3.21875 -0.339163,-0.309461 -0.628944,-0.66621 -0.9375,-1 0.56939,-0.759658 1.158687,-1.495918 1.71875,-2.25 0.358112,0.400097 0.68496,0.874273 1.0625,1.21875 1.61702,1.475411 3.557056,2.5 6.0625,2.5 L 61,57.625 A 1.6218146,1.6218146 0 0 0 62.625,56 l 0,-3.15625 z"
       inkscape:connector-curvature="0"
       id="path4082"
       style="opacity:0.1;fill:#000000;fill-opacity:1;fill-rule:nonzero;stroke:none" />
    <g
       id="layer7"
       style="display:inline">
      <path
         d="M 12,3.96875 C 6.4889098,3.96875 1.96875,8.4889098 1.96875,14 v 71 c 0,5.51109 4.5201597,10.03125 10.03125,10.03125 h 72 c 5.51109,0 10.03125,-4.52016 10.03125,-10.03125 V 14 C 94.03125,8.4889097 89.51109,3.96875 84,3.96875 Z M 12,6 h 72 c 3.324,0 6,2.676 6,6 v 72 c 0,3.324 -2.676,6 -6,6 H 12 C 8.676,90 6,87.324 6,84 V 12 C 6,8.676 8.676,6 12,6 Z"
         inkscape:connector-curvature="0"
         id="path3786"
         style="display:inline;opacity:0.07999998;fill:url(#linearGradient4688);fill-opacity:1;fill-rule:nonzero;stroke:none" />
      <path
         d="M 12,4.96875 C 7.0283671,4.96875 2.96875,9.0283671 2.96875,14 v 71 c 0,4.971633 4.059617,9.03125 9.03125,9.03125 h 72 c 4.971633,0 9.03125,-4.059617 9.03125,-9.03125 V 14 C 93.03125,9.028367 88.971633,4.96875 84,4.96875 Z M 12,6 h 72 c 3.324,0 6,2.676 6,6 v 72 c 0,3.324 -2.676,6 -6,6 H 12 C 8.676,90 6,87.324 6,84 V 12 C 6,8.676 8.676,6 12,6 Z"
         inkscape:connector-curvature="0"
         id="path3778"
         style="display:inline;opacity:0.1;fill:url(#linearGradient4690);fill-opacity:1;fill-rule:nonzero;stroke:none" />
      <path
         d="M 11.1875,6.03125 C 7.159982,6.4419011 4,9.8664375 4,14 v 71 c 0,4.409133 3.590867,8 8,8 h 72 c 4.409133,0 8,-3.590867 8,-8 V 14 C 92,9.8029382 88.741028,6.3539584 84.625,6.03125 87.657886,6.337417 90,8.88375 90,12 v 72 c 0,3.324 -2.676,6 -6,6 H 12 C 8.676,90 6,87.324 6,84 V 12 c 0,-3.11625 2.342114,-5.662583 5.375,-5.96875 -0.06227,0.00488 -0.12563,-0.00631 -0.1875,0 z"
         inkscape:connector-curvature="0"
         id="path3770"
         style="display:inline;opacity:0.2;fill:url(#linearGradient4692);fill-opacity:1;fill-rule:nonzero;stroke:none" />
      <path
         d="M 6.4375,9.75 C 5.5380109,10.927446 5,12.397277 5,14 v 71 c 0,3.878 3.122,7 7,7 h 72 c 3.878,0 7,-3.122 7,-7 V 14 C 91,12.397277 90.461989,10.927446 89.5625,9.75 89.841816,10.444095 90,11.203625 90,12 v 72 c 0,3.324 -2.676,6 -6,6 H 12 C 8.676,90 6,87.324 6,84 V 12 C 6,11.203625 6.1581836,10.444095 6.4375,9.75 Z"
         inkscape:connector-curvature="0"
         id="rect3723"
         style="display:inline;opacity:0.3;fill:url(#linearGradient4671);fill-opacity:1;fill-rule:nonzero;stroke:none" />
      <path
         d="m 6,84 v 1 c 0,3.324 2.676,6 6,6 h 72 c 3.324,0 6,-2.676 6,-6 v -1 c 0,3.324 -2.676,6 -6,6 H 12 C 8.676,90 6,87.324 6,84 Z"
         inkscape:connector-curvature="0"
         id="rect3716"
         style="display:inline;opacity:0.45;fill:url(#linearGradient3721-4);fill-opacity:1;fill-rule:nonzero;stroke:none" />
    </g>
    <path
       d="m 61,30 0,6 -6.09375,0 c -3.68067,0 -6.769734,1.621299 -9,3.65625 -1.459462,1.331649 -2.589935,2.82195 -3.65625,4.3125 L 38.03125,49.875 c -0.624445,0.774408 -1.2356,1.497354 -1.875,2.0625 C 34.646556,53.27187 33.192491,54 30.90625,54 L 22,54 l 0,6 8.90625,0 c 3.769531,0 6.886194,-1.528446 9.1875,-3.5625 0.629359,-0.556272 1.153142,-1.17165 1.6875,-1.78125 1.321211,-1.739436 2.626176,-3.500124 3.9375,-5.25 1.444548,-2.13639 2.820723,-4.068156 4.21875,-5.34375 C 51.398959,42.729027 52.769695,42 54.90625,42 L 61,42 61,48 76,39 61,30 z m -39,8 0,6 8.90625,0 c 2.286241,0 3.740306,0.72813 5.25,2.0625 0.245103,0.216639 0.479608,0.461725 0.71875,0.71875 L 40.03125,42.375 c 0.119679,-0.167293 0.251387,-0.330318 0.375,-0.5 -0.106314,-0.102734 -0.200114,-0.213166 -0.3125,-0.3125 C 37.792444,39.528446 34.675781,38 30.90625,38 L 22,38 z m 39,12 0,6 -6.09375,0 c -2.136555,0 -3.507291,-0.729027 -4.96875,-2.0625 -0.760113,-0.693546 -1.519555,-1.584833 -2.28125,-2.59375 -1.220453,1.629497 -2.443019,3.298679 -3.6875,4.9375 0.590542,0.713447 1.219127,1.407039 1.9375,2.0625 2.230266,2.034951 5.31933,3.65625 9,3.65625 L 61,62 61,68 76,59 61,50 z"
       inkscape:connector-curvature="0"
       id="path4034"
       style="fill:url(#linearGradient4057);fill-opacity:1;fill-rule:nonzero;stroke:none" />
    <path
       d="M 75.15625,39.5 61,48 l 0,1 15,-9 -0.84375,-0.5 z m -20.25,2.5 c -2.136555,0 -3.507291,0.729027 -4.96875,2.0625 -1.398027,1.275594 -2.774202,3.20736 -4.21875,5.34375 -1.311324,1.749876 -2.616289,3.510564 -3.9375,5.25 -0.534358,0.6096 -1.058141,1.224978 -1.6875,1.78125 C 37.792444,58.471554 34.675781,60 30.90625,60 L 22,60 l 0,1 8.90625,0 c 3.769531,0 6.886194,-1.528446 9.1875,-3.5625 0.629359,-0.556272 1.153142,-1.17165 1.6875,-1.78125 1.321211,-1.739436 2.626176,-3.500124 3.9375,-5.25 1.444548,-2.13639 2.820723,-4.068156 4.21875,-5.34375 C 51.398959,43.729027 52.769695,43 54.90625,43 L 61,43 l 0,-1 -6.09375,0 z m -14.9375,0.46875 -3.09375,4.3125 C 36.635858,46.524225 36.401353,46.279139 36.15625,46.0625 34.646556,44.72813 33.192491,44 30.90625,44 L 22,44 l 0,1 8.90625,0 c 2.286241,0 3.740306,0.72813 5.25,2.0625 0.245103,0.216639 0.479608,0.461725 0.71875,0.71875 L 40.03125,43.375 c 0.119679,-0.167293 0.251387,-0.330318 0.375,-0.5 -0.106314,-0.102734 -0.200114,-0.213166 -0.3125,-0.3125 -0.03817,-0.03373 -0.08639,-0.0603 -0.125,-0.09375 z M 44.375,56.75 c -0.134556,0.178465 -0.271203,0.35341 -0.40625,0.53125 0.590542,0.713447 1.219127,1.407039 1.9375,2.0625 2.230266,2.034951 5.31933,3.65625 9,3.65625 L 61,63 l 0,-1 -6.09375,0 c -3.68067,0 -6.769734,-1.621299 -9,-3.65625 C 45.347416,57.833856 44.849523,57.297441 44.375,56.75 z M 75.15625,59.5 61,68 l 0,1 15,-9 -0.84375,-0.5 z"
       inkscape:connector-curvature="0"
       id="path4059"
       style="opacity:0.6;fill:#ffffff;fill-opacity:1;fill-rule:nonzero;stroke:none" />
    <path
       d="m 61,30 0,6 -6.09375,0 c -3.68067,0 -6.769734,1.621299 -9,3.65625 -1.459462,1.331649 -2.589935,2.82195 -3.65625,4.3125 L 38.03125,49.875 c -0.624445,0.774408 -1.2356,1.497354 -1.875,2.0625 C 34.646556,53.27187 33.192491,54 30.90625,54 L 22,54 l 0,6 8.90625,0 c 3.769531,0 6.886194,-1.528446 9.1875,-3.5625 0.629359,-0.556272 1.153142,-1.17165 1.6875,-1.78125 1.321211,-1.739436 2.626176,-3.500124 3.9375,-5.25 1.444548,-2.13639 2.820723,-4.068156 4.21875,-5.34375 C 51.398959,42.729027 52.769695,42 54.90625,42 L 61,42 61,48 76,39 61,30 z M 61.875,31.53125 74.3125,39 61.875,46.46875 61.875,42 A 0.86496782,0.86496782 0 0 0 61,41.125 l -6.09375,0 c -2.333296,0 -4.018075,0.903327 -5.5625,2.3125 -1.501587,1.370085 -2.869909,3.304992 -4.3125,5.4375 -0.0085,0.01257 -0.02275,0.01867 -0.03125,0.03125 -1.295524,1.729043 -2.575641,3.476276 -3.875,5.1875 -0.0088,0.01156 -0.02247,0.01969 -0.03125,0.03125 -0.528126,0.602927 -1.002741,1.161495 -1.5625,1.65625 -2.172065,1.919822 -5.08926,3.34375 -8.625,3.34375 l -8.03125,0 0,-4.25 8.03125,0 c 2.469875,0 4.213309,-0.867776 5.8125,-2.28125 0.708728,-0.626423 1.367567,-1.403185 2,-2.1875 A 0.86496782,0.86496782 0 0 0 38.75,50.375 l 4.21875,-5.90625 C 44.025487,42.991589 45.11361,41.546226 46.5,40.28125 48.605494,38.360144 51.479561,36.875 54.90625,36.875 L 61,36.875 A 0.86496782,0.86496782 0 0 0 61.875,36 l 0,-4.46875 z M 22,38 l 0,6 8.90625,0 c 2.286241,0 3.740306,0.72813 5.25,2.0625 0.245103,0.216639 0.479608,0.461725 0.71875,0.71875 L 40.03125,42.375 c 0.119679,-0.167293 0.251387,-0.330318 0.375,-0.5 -0.106314,-0.102734 -0.200114,-0.213166 -0.3125,-0.3125 C 37.792444,39.528446 34.675781,38 30.90625,38 L 22,38 z m 0.875,0.875 8.03125,0 c 3.39287,0 6.171382,1.353772 8.3125,3.15625 l -2.4375,3.4375 c -0.02222,-0.02017 -0.0399,-0.04252 -0.0625,-0.0625 C 35.119559,43.992776 33.376125,43.125 30.90625,43.125 l -8.03125,0 0,-4.25 z M 61,50 l 0,6 -6.09375,0 c -2.136555,0 -3.507291,-0.729027 -4.96875,-2.0625 -0.760113,-0.693546 -1.519555,-1.584833 -2.28125,-2.59375 -1.220453,1.629497 -2.443019,3.298679 -3.6875,4.9375 0.590542,0.713447 1.219127,1.407039 1.9375,2.0625 2.230266,2.034951 5.31933,3.65625 9,3.65625 L 61,62 61,68 76,59 61,50 z M 61.875,51.53125 74.3125,59 61.875,66.46875 61.875,62 A 0.86496782,0.86496782 0 0 0 61,61.125 l -6.09375,0 c -3.426689,0 -6.300756,-1.485144 -8.40625,-3.40625 -0.509647,-0.465014 -0.96332,-0.992328 -1.40625,-1.5 0.88345,-1.17249 1.759117,-2.336967 2.625,-3.5 0.539577,0.658042 1.062577,1.330581 1.625,1.84375 1.544425,1.409173 3.229204,2.3125 5.5625,2.3125 L 61,56.875 A 0.86496782,0.86496782 0 0 0 61.875,56 l 0,-4.46875 z"
       inkscape:connector-curvature="0"
       id="path4077"
       style="opacity:0.2;fill:#000000;fill-opacity:1;fill-rule:nonzero;stroke:none" />
    <path
       d="m 61,30 0,1 14.15625,8.5 L 76,39 61,30 z m -6.09375,6 c -3.68067,0 -6.769734,1.621299 -9,3.65625 -1.459462,1.331649 -2.589935,2.82195 -3.65625,4.3125 L 38.03125,49.875 c -0.624445,0.774408 -1.2356,1.497354 -1.875,2.0625 C 34.646556,53.27187 33.192491,54 30.90625,54 L 22,54 l 0,1 8.90625,0 c 2.286241,0 3.740306,-0.72813 5.25,-2.0625 0.6394,-0.565146 1.250555,-1.288092 1.875,-2.0625 L 42.25,44.96875 c 1.066315,-1.49055 2.196788,-2.980851 3.65625,-4.3125 C 48.136516,38.621299 51.22558,37 54.90625,37 L 61,37 61,36 54.90625,36 z M 22,38 l 0,1 8.90625,0 c 3.707016,0 6.772808,1.485198 9.0625,3.46875 l 0.0625,-0.09375 c 0.119679,-0.167293 0.251387,-0.330318 0.375,-0.5 -0.106314,-0.102734 -0.200114,-0.213166 -0.3125,-0.3125 C 37.792444,39.528446 34.675781,38 30.90625,38 L 22,38 z m 39,12 0,1 14.15625,8.5 L 76,59 61,50 z m -13.34375,1.34375 c -1.220453,1.629497 -2.443019,3.298679 -3.6875,4.9375 0.131149,0.158445 0.270781,0.312464 0.40625,0.46875 1.105402,-1.46612 2.193237,-2.953581 3.28125,-4.40625 0.761695,1.008917 1.521137,1.900204 2.28125,2.59375 C 51.398959,56.270973 52.769695,57 54.90625,57 L 61,57 l 0,-1 -6.09375,0 c -2.136555,0 -3.507291,-0.729027 -4.96875,-2.0625 -0.760113,-0.693546 -1.519555,-1.584833 -2.28125,-2.59375 z"
       inkscape:connector-curvature="0"
       id="path4068"
       style="opacity:0.6;fill:#000000;fill-opacity:1;fill-rule:nonzero;stroke:none" />
  </g>
</svg>
