<?xml version="1.0" encoding="UTF-8" standalone="no"?>
<!-- Created with Inkscape (http://www.inkscape.org/) -->

<svg
   xmlns:dc="http://purl.org/dc/elements/1.1/"
   xmlns:cc="http://creativecommons.org/ns#"
   xmlns:rdf="http://www.w3.org/1999/02/22-rdf-syntax-ns#"
   xmlns:svg="http://www.w3.org/2000/svg"
   xmlns="http://www.w3.org/2000/svg"
   xmlns:xlink="http://www.w3.org/1999/xlink"
   xmlns:sodipodi="http://sodipodi.sourceforge.net/DTD/sodipodi-0.dtd"
   xmlns:inkscape="http://www.inkscape.org/namespaces/inkscape"
   width="32"
   height="32"
   id="svg5453"
   version="1.1"
   inkscape:version="0.92.2 (5c3e80d, 2017-08-06)"
   sodipodi:docname="folder-saved-search.svg">
  <defs
     id="defs5455">
    <linearGradient
       inkscape:collect="always"
       id="linearGradient4233">
      <stop
         style="stop-color:#345671;stop-opacity:1;"
         offset="0"
         id="stop4235" />
      <stop
         style="stop-color:#345671;stop-opacity:0;"
         offset="1"
         id="stop4237" />
    </linearGradient>
    <linearGradient
       id="linearGradient4232"
       inkscape:collect="always">
      <stop
         id="stop4234"
         offset="0"
         style="stop-color:#3d6584;stop-opacity:1" />
      <stop
         id="stop4236"
         offset="1"
         style="stop-color:#4a7ba3;stop-opacity:1" />
    </linearGradient>
    <linearGradient
       id="linearGradient4172">
      <stop
         style="stop-color:#7c92ba;stop-opacity:1;"
         offset="0"
         id="stop4174" />
      <stop
         style="stop-color:#8eb7dd;stop-opacity:1"
         offset="1"
         id="stop4176" />
    </linearGradient>
    <linearGradient
       inkscape:collect="always"
       xlink:href="#linearGradient4172"
       id="linearGradient4178"
       x1="414.57144"
       y1="541.79797"
       x2="414.57144"
       y2="499.798"
       gradientUnits="userSpaceOnUse"
       gradientTransform="matrix(0.50000018,0,0,0.49983716,192.28565,273.9873)" />
    <linearGradient
       inkscape:collect="always"
       xlink:href="#linearGradient4232"
       id="linearGradient4182"
       gradientUnits="userSpaceOnUse"
       x1="414.57144"
       y1="523.79797"
       x2="414.57144"
       y2="505.798"
       gradientTransform="matrix(0.50000018,0,0,0.49977211,192.28565,266.02072)" />
    <linearGradient
       inkscape:collect="always"
       xlink:href="#linearGradient4233"
       id="linearGradient4239"
       x1="384.57144"
       y1="477.798"
       x2="404.57144"
       y2="497.798"
       gradientUnits="userSpaceOnUse"
       gradientTransform="matrix(0.50000018,0,0,0.49999988,192.28565,273.89914)" />
  </defs>
  <sodipodi:namedview
     id="base"
     pagecolor="#ffffff"
     bordercolor="#666666"
     borderopacity="1.0"
     inkscape:pageopacity="0"
     inkscape:pageshadow="2"
     inkscape:zoom="15.999999"
     inkscape:cx="4.862914"
     inkscape:cy="22.848668"
     inkscape:document-units="px"
     inkscape:current-layer="layer1"
     showgrid="true"
     fit-margin-top="0"
     fit-margin-left="0"
     fit-margin-right="0"
     fit-margin-bottom="0"
     inkscape:window-width="3738"
     inkscape:window-height="2041"
     inkscape:window-x="102"
     inkscape:window-y="55"
     inkscape:window-maximized="1"
     inkscape:showpageshadow="false"
     borderlayer="true"
     showguides="true">
    <sodipodi:guide
       position="6.0000117,57.999996"
       orientation="51.999969,0"
       id="guide4097"
       inkscape:locked="false" />
    <sodipodi:guide
       position="6.0000117,6.0000264"
       orientation="0,52"
       id="guide4099"
       inkscape:locked="false" />
    <sodipodi:guide
       position="58.000012,6.0000264"
       orientation="-51.999969,0"
       id="guide4101"
       inkscape:locked="false" />
    <sodipodi:guide
       position="58.000012,57.999996"
       orientation="0,-52"
       id="guide4103"
       inkscape:locked="false" />
    <sodipodi:guide
       position="3.0000117,60.999996"
       orientation="57.999969,0"
       id="guide4105"
       inkscape:locked="false" />
    <sodipodi:guide
       position="3.0000117,3.0000264"
       orientation="0,58"
       id="guide4107"
       inkscape:locked="false" />
    <sodipodi:guide
       position="61.000012,3.0000264"
       orientation="-57.999969,0"
       id="guide4109"
       inkscape:locked="false" />
    <sodipodi:guide
       position="61.000012,60.999996"
       orientation="0,-58"
       id="guide4111"
       inkscape:locked="false" />
    <inkscape:grid
       type="xygrid"
       id="grid4115" />
  </sodipodi:namedview>
  <metadata
     id="metadata5458">
    <rdf:RDF>
      <cc:Work
         rdf:about="">
        <dc:format>image/svg+xml</dc:format>
        <dc:type
           rdf:resource="http://purl.org/dc/dcmitype/StillImage" />
        <dc:title></dc:title>
      </cc:Work>
    </rdf:RDF>
  </metadata>
  <g
     inkscape:label="Capa 1"
     inkscape:groupmode="layer"
     id="layer1"
     transform="translate(-384.57143,-515.798)">
    <path
       style="fill:url(#linearGradient4182);fill-opacity:1;stroke:none;stroke-width:0.5"
       d="m 386.57144,518.79808 v 2.5 10.99999 c 0,0.27687 0.223,0.5 0.5,0.5 h 27.00001 c 0.27699,0 0.5,-0.22313 0.5,-0.5 v -10.99511 c 0,-10e-4 -0.001,-0.003 -0.001,-0.005 h 0.001 v -0.5 h -14.00001 l -1.5,-2 h -12.5 z"
       id="rect4180"
       inkscape:connector-curvature="0" />
    <path
       style="fill:url(#linearGradient4239);fill-opacity:1;fill-rule:evenodd;stroke:none;stroke-width:0.5px;stroke-linecap:butt;stroke-linejoin:miter;stroke-opacity:1"
       d="m 386.57144,518.79808 13,12.99999 0.5,0.5 14.50001,-8.37157 v -3.12842 h -14.00001 l -1.5,-2 z"
       id="path4230"
       inkscape:connector-curvature="0" />
    <path
       style="fill:url(#linearGradient4178);fill-opacity:1;stroke:none;stroke-width:0.5"
       d="m 395.57144,523.79808 -1.5,1.99999 h -8 v 0.5 h 10e-4 c -3e-5,0.002 -10e-4,0.004 -10e-4,0.006 v 17.99414 0.5 h 0.5 28.00001 0.5 v -0.5 -17.99414 -0.006 -2.49999 z"
       id="rect4113"
       inkscape:connector-curvature="0" />
    <path
       style="fill:#8fb1cc;fill-opacity:1;fill-rule:evenodd;stroke:none;stroke-width:0.5px;stroke-linecap:butt;stroke-linejoin:miter;stroke-opacity:1"
       d="m 414.57145,520.79808 v 0.5 h -14.50001 l -1,-2.5 1.5,2 z"
       id="path4222"
       inkscape:connector-curvature="0" />
    <path
       style="fill:#ffffff;fill-opacity:0.23529412;fill-rule:evenodd;stroke:none;stroke-width:0.5px;stroke-linecap:butt;stroke-linejoin:miter;stroke-opacity:1"
       d="m 386.07144,525.79807 v 0.5 h 8.5 l 1,-2.49999 -1.5,1.99999 z"
       id="path4224"
       inkscape:connector-curvature="0" />
    <path
       style="fill:#345671;fill-opacity:1;fill-rule:evenodd;stroke:none;stroke-width:0.5px;stroke-linecap:butt;stroke-linejoin:miter;stroke-opacity:1"
       d="m 386.57144,525.29808 v 0.49999 h 7.5 l 1.5,-1.99999 -2.5,1.5 z"
       id="path4228"
       inkscape:connector-curvature="0" />
    <path
       inkscape:connector-curvature="0"
       style="fill:#466e9a;fill-opacity:1;stroke:none;stroke-width:0.5"
       d="m 386.07144,544.29806 v 0.5 h 0.5 28.00001 0.5 v -0.5 h -0.5 -28.00001 z"
       id="path4151-2" />
    <path
       d="m 399.60371,528.36061 c -0.21895,0 -0.39526,0.17627 -0.39526,0.39523 v 1.33389 c -0.43368,0.11125 -0.83394,0.29722 -1.21038,0.51874 l -0.96336,-0.96337 c -0.15478,-0.15482 -0.38857,-0.15482 -0.54344,0 l -1.13625,1.13629 c -0.15487,0.15482 -0.15487,0.38861 0,0.54344 l 0.96328,0.96337 c -0.22148,0.37643 -0.40746,0.77671 -0.51864,1.21038 h -1.33389 c -0.21898,0 -0.39523,0.17628 -0.39523,0.39523 v 1.58091 c 0,0.21896 0.17625,0.39523 0.39523,0.39523 h 1.33389 c 0.11121,0.43367 0.29716,0.83395 0.51864,1.21039 l -0.96328,0.96336 c -0.15487,0.15483 -0.15487,0.38862 0,0.54344 l 1.13625,1.13628 c 0.15487,0.15483 0.38866,0.15483 0.54344,0 l 0.96336,-0.96337 c 0.37644,0.22152 0.7767,0.40749 1.21038,0.51874 v 1.3339 c 0,0.21895 0.17631,0.39522 0.39526,0.39522 h 1.58094 c 0.21892,0 0.39517,-0.17627 0.39517,-0.39522 v -1.3339 c 0.43368,-0.11125 0.83397,-0.29722 1.21034,-0.51874 l 0.96346,0.96337 c 0.15484,0.15483 0.38863,0.15483 0.54344,0 l 1.13624,-1.13628 c 0.15487,-0.15482 0.15487,-0.38861 0,-0.54344 l -0.96339,-0.96336 c 0.22159,-0.37644 0.40751,-0.77672 0.51875,-1.21039 h 1.33393 c 0.21894,0 0.39525,-0.17627 0.39525,-0.39523 v -1.58091 c 0,-0.21895 -0.17631,-0.39523 -0.39525,-0.39523 h -1.33393 c -0.11124,-0.43367 -0.29713,-0.83395 -0.51875,-1.21038 l 0.96339,-0.96337 c 0.15487,-0.15483 0.15487,-0.38862 0,-0.54344 l -1.13624,-1.13629 c -0.15481,-0.15482 -0.3886,-0.15482 -0.54344,0 l -0.96346,0.96337 c -0.37637,-0.22152 -0.77666,-0.40749 -1.21034,-0.51874 v -1.33389 c 0,-0.21896 -0.17625,-0.39523 -0.39517,-0.39523 z m 0.79048,3.95229 c 1.30963,0 2.37137,1.0617 2.37137,2.37136 0,1.30967 -1.06174,2.37138 -2.37137,2.37138 -1.30972,0 -2.3714,-1.06171 -2.3714,-2.37138 0,-1.30966 1.06168,-2.37136 2.3714,-2.37136 z"
       id="path3575-5-8-4-7-7-5"
       style="color:#000000;display:inline;overflow:visible;visibility:visible;opacity:0.3;fill:#ffffff;fill-opacity:1;fill-rule:nonzero;stroke:none;stroke-width:0.85000008;marker:none;enable-background:accumulate"
       inkscape:connector-curvature="0" />
    <path
       d="m 399.60371,528.05949 c -0.21895,0 -0.39526,0.17627 -0.39526,0.39522 v 1.3339 c -0.43368,0.11125 -0.83394,0.29722 -1.21038,0.51874 l -0.96336,-0.96337 c -0.15478,-0.15483 -0.38857,-0.15483 -0.54344,0 l -1.13625,1.13628 c -0.15487,0.15483 -0.15487,0.38861 0,0.54344 l 0.96328,0.96337 c -0.22148,0.37644 -0.40746,0.77671 -0.51864,1.21038 h -1.33389 c -0.21898,0 -0.39523,0.17628 -0.39523,0.39523 v 1.58091 c 0,0.21897 0.17625,0.39523 0.39523,0.39523 h 1.33389 c 0.11121,0.43368 0.29716,0.83395 0.51864,1.21039 l -0.96328,0.96337 c -0.15487,0.15482 -0.15487,0.38861 0,0.54344 l 1.13625,1.13628 c 0.15487,0.15483 0.38866,0.15483 0.54344,0 l 0.96336,-0.96337 c 0.37644,0.22152 0.7767,0.40749 1.21038,0.51874 v 1.33389 c 0,0.21896 0.17631,0.39523 0.39526,0.39523 h 1.58094 c 0.21892,0 0.39517,-0.17627 0.39517,-0.39523 v -1.33389 c 0.43368,-0.11125 0.83397,-0.29722 1.21034,-0.51874 l 0.96346,0.96337 c 0.15484,0.15483 0.38863,0.15483 0.54344,0 l 1.13624,-1.13628 c 0.15487,-0.15483 0.15487,-0.38862 0,-0.54344 l -0.96339,-0.96337 c 0.22159,-0.37644 0.40751,-0.77671 0.51875,-1.21039 h 1.33393 c 0.21894,0 0.39525,-0.17626 0.39525,-0.39523 v -1.58091 c 0,-0.21895 -0.17631,-0.39523 -0.39525,-0.39523 h -1.33393 c -0.11124,-0.43367 -0.29713,-0.83394 -0.51875,-1.21038 l 0.96339,-0.96337 c 0.15487,-0.15483 0.15487,-0.38861 0,-0.54344 l -1.13624,-1.13628 c -0.15481,-0.15483 -0.3886,-0.15483 -0.54344,0 l -0.96346,0.96337 c -0.37637,-0.22152 -0.77666,-0.40749 -1.21034,-0.51874 v -1.3339 c 0,-0.21895 -0.17625,-0.39522 -0.39517,-0.39522 z m 0.79048,3.95228 c 1.30963,0 2.37137,1.0617 2.37137,2.37137 0,1.30967 -1.06174,2.37137 -2.37137,2.37137 -1.30972,0 -2.3714,-1.0617 -2.3714,-2.37137 0,-1.30967 1.06168,-2.37137 2.3714,-2.37137 z"
       id="path3575-5-8-4-7-7"
       style="color:#000000;display:inline;overflow:visible;visibility:visible;fill:#163950;fill-opacity:0.85098039;fill-rule:nonzero;stroke:none;stroke-width:0.85000008;marker:none;enable-background:accumulate"
       inkscape:connector-curvature="0" />
  </g>
</svg>
