<?xml version="1.0" encoding="UTF-8" standalone="no"?>
<!-- Created using Karbon, part of Calligra: http://www.calligra.org/karbon -->

<svg
   xmlns:dc="http://purl.org/dc/elements/1.1/"
   xmlns:cc="http://creativecommons.org/ns#"
   xmlns:rdf="http://www.w3.org/1999/02/22-rdf-syntax-ns#"
   xmlns:svg="http://www.w3.org/2000/svg"
   xmlns="http://www.w3.org/2000/svg"
   xmlns:sodipodi="http://sodipodi.sourceforge.net/DTD/sodipodi-0.dtd"
   xmlns:inkscape="http://www.inkscape.org/namespaces/inkscape"
   width="24"
   height="24"
   id="svg2"
   version="1.1"
   inkscape:version="0.92.4 (5da689c313, 2019-01-14)"
   sodipodi:docname="start-here.svg">
  <metadata
     id="metadata13">
    <rdf:RDF>
      <cc:Work
         rdf:about="">
        <dc:format>image/svg+xml</dc:format>
        <dc:type
           rdf:resource="http://purl.org/dc/dcmitype/StillImage" />
        <dc:title />
      </cc:Work>
    </rdf:RDF>
  </metadata>
  <sodipodi:namedview
     pagecolor="#ffffff"
     bordercolor="#666666"
     borderopacity="1"
     objecttolerance="10"
     gridtolerance="10"
     guidetolerance="10"
     inkscape:pageopacity="0"
     inkscape:pageshadow="2"
     inkscape:window-width="2563"
     inkscape:window-height="1687"
     id="namedview11"
     showgrid="false"
     inkscape:zoom="22.627417"
     inkscape:cx="-1.0019416"
     inkscape:cy="6.130952"
     inkscape:window-x="683"
     inkscape:window-y="248"
     inkscape:window-maximized="0"
     inkscape:current-layer="layer1"
     units="px"
     inkscape:pagecheckerboard="false" />
  <defs
     id="defs4" />
  <g
     id="layer0"
     transform="translate(0,-27.199999)">
    <g
       id="layer1"
       transform="translate(0.87894,0.87894)"
       style="fill:none">
      <rect
         style="opacity:1;fill:#454545;fill-opacity:1;stroke-width:0.47001353"
         id="rect850"
         width="22.25"
         height="22.25"
         x="-0.0039399862"
         y="27.19606" />
      <path
         inkscape:connector-curvature="0"
         style="fill:#ffffff;fill-opacity:1;stroke-width:0.53533709"
         sodipodi:nodetypes="cccccccccccccccc"
         id="path5"
         d="m 0.48921543,35.076831 c 0.22607312,-4.903742 -0.8193148,-4.444889 2.85354897,-2.032392 0.7545577,0.618358 1.5934921,1.127018 2.43965,1.611579 -0.00215,-0.799162 -0.1458411,-1.583848 -0.25191,-2.372159 1.2632209,1.434382 2.6385379,2.766312 3.8764432,4.225998 0.9847844,0.01553 1.9695624,0.02789 2.9579634,0.04465 0.848574,1.460902 1.812861,2.849481 2.759076,4.248905 0.225438,0.384281 0.37945,0.640328 0.544631,1.081585 0.233076,0.518865 -0.899993,0.217047 -0.630211,0.549272 1.710407,2.135905 4.276627,3.37984 6.885033,4.030735 -1.004062,0.501429 -2.181704,0.664155 -2.967605,1.488629 -1.466922,1.62001 1.390988,-2.21787 -0.596656,0.970313 -1.040216,-0.940173 -1.944237,-2.022587 -3.037506,-2.904919 -1.476559,-1.20295 -3.123083,-2.18894 -4.858806,-2.967609 C 9.551611,42.628335 8.5258476,42.176328 8.048519,41.237348 7.6929417,40.318863 7.6145888,39.323233 7.5266028,38.352913" />
      <path
         inkscape:connector-curvature="0"
         style="fill:#454545;fill-opacity:1;stroke-width:0.14179903"
         sodipodi:nodetypes="csccc"
         id="path14"
         d="m 12.074506,39.230264 c 2.6248,2.734754 -0.07738,-0.100337 2.400345,2.498976 0.06892,0.0723 0.04661,0.02345 -0.0479,0.25618 -0.796911,-0.317631 -1.568299,-0.694814 -2.345356,-1.049314 -0.0057,-0.570032 -0.0085,-1.138646 -0.0071,-1.705842 z" />
      <path
         inkscape:connector-curvature="0"
         style="fill:#ffffff;fill-opacity:1;stroke-width:0.53533709"
         id="path11"
         d="m 2.8018992,28.900003 c 2.8957324,1.514367 5.588736,3.457347 7.9221568,5.746995 0.461298,0.483179 1.053913,0.868717 1.378841,1.46807 -0.288732,-0.0446 -0.659957,0.143102 -0.884713,-0.102698 -0.85441,-1.074117 -1.8426632,-2.04048 -2.8991006,-2.916779 -2.920985,-2.402448 -4.2862194,-3.40681 -7.74426082,-4.918652 0.262521,-0.230477 -1.19620115,-1.136793 2.22707662,0.723064 z"
         sodipodi:nodetypes="ccccccc" />
    </g>
  </g>
</svg>
