<?xml version="1.0" encoding="UTF-8" standalone="no"?>
<!-- Created using Karbon, part of Calligra: http://www.calligra.org/karbon -->

<svg
   xmlns:dc="http://purl.org/dc/elements/1.1/"
   xmlns:cc="http://creativecommons.org/ns#"
   xmlns:rdf="http://www.w3.org/1999/02/22-rdf-syntax-ns#"
   xmlns:svg="http://www.w3.org/2000/svg"
   xmlns="http://www.w3.org/2000/svg"
   xmlns:sodipodi="http://sodipodi.sourceforge.net/DTD/sodipodi-0.dtd"
   xmlns:inkscape="http://www.inkscape.org/namespaces/inkscape"
   width="24"
   height="24"
   id="svg2"
   version="1.1"
   inkscape:version="0.92.2 (5c3e80d, 2017-08-06)"
   sodipodi:docname="start-here.svg">
  <metadata
     id="metadata13">
    <rdf:RDF>
      <cc:Work
         rdf:about="">
        <dc:format>image/svg+xml</dc:format>
        <dc:type
           rdf:resource="http://purl.org/dc/dcmitype/StillImage" />
        <dc:title />
      </cc:Work>
    </rdf:RDF>
  </metadata>
  <sodipodi:namedview
     pagecolor="#ffffff"
     bordercolor="#666666"
     borderopacity="1"
     objecttolerance="10"
     gridtolerance="10"
     guidetolerance="10"
     inkscape:pageopacity="0"
     inkscape:pageshadow="2"
     inkscape:window-width="3738"
     inkscape:window-height="2041"
     id="namedview11"
     showgrid="false"
     inkscape:zoom="16"
     inkscape:cx="22.97529"
     inkscape:cy="20.467504"
     inkscape:window-x="102"
     inkscape:window-y="55"
     inkscape:window-maximized="1"
     inkscape:current-layer="layer1"
     units="px"
     inkscape:pagecheckerboard="false" />
  <defs
     id="defs4" />
  <g
     id="layer0"
     transform="translate(0,-27.199999)">
    <g
       id="layer1"
       transform="translate(0.87894,0.87894)"
       style="fill:none">
      <rect
         style="opacity:1;fill:#454545;fill-opacity:1;stroke-width:0.47001353"
         id="rect850"
         width="22.25"
         height="22.25"
         x="-0.0039399862"
         y="27.19606" />
      <path
         id="gear_path"
         stroke-miterlimit="2.00000000000"
         d="m 6.468895,32.735467 c -0.03075,0.0031 0.2792205,-0.299895 0.2561005,-0.27691 L 5.31271,33.828981 c -0.044905,0.0446 -0.050385,0.112895 -0.01742,0.16688 l 1.249155,2.04315 c -0.221805,0.36935 -0.40193,0.765565 -0.528735,1.1856 l -2.2949307,0.47193 c -0.063863,0.01308 -0.1103895,0.07329 -0.1103895,0.13814 v 1.49635 c 0,0.0633 0.048571,0.11745 0.1103895,0.1324 L 5.946,39.998681 c 0.119,0.4863 0.302815,0.95165 0.546145,1.3755 l -1.28982,1.9453 c -0.035975,0.05435 -0.02896,0.1268 0.01742,0.1727 l 1.06905,1.05895 c 0.04504,0.04445 0.114105,0.05005 0.168485,0.01725 l 2.021865,-1.21435 c 0.396595,0.22675 0.825895,0.4085 1.278195,0.5295 l 0.47065,2.2446 c 0.01315,0.06335 0.0682,0.10935 0.1336,0.10935 h 1.51055 c 0.06345,0 0.1186,-0.04225 0.13365,-0.10375 l 0.55775,-2.256 c 0.4665,-0.1246 0.9063,-0.30955 1.3131,-0.54675 l 1.9928,1.29495 c 0.05495,0.03545 0.1277,0.0286 0.1743,-0.01725 l 1.06325,-1.059 c 0.04515,-0.04465 0.0563,-0.113 0.0232,-0.1669 l -0.72625,-1.1856 c 0,0 -0.3107,0.06995 -0.33115,0.0403 0,0 -0.45875,-0.6685 -1.05745,-1.53665 -0.71595,1.3878 -2.1761,2.33665 -3.8578,2.33665 -2.3897,0 -4.32842,-1.9205 -4.32842,-4.2877 0,-1.74127 1.129265,-3.48683 2.634495,-4.15786 L 9.38549,33.736891 c -0.2739,0.09498 -0.5386,0.20958 -0.790135,0.34532 -4.85e-4,-2.85e-4 4.65e-4,-0.0055 0,-0.0057 L 6.55606,32.752725 C 6.528625,32.73497 6.499645,32.732325 6.468895,32.73547 l 0.5021185,-0.0032 z"
         inkscape:connector-curvature="0"
         style="fill:#f9f9f9;stroke:#003bc3;stroke-width:0;stroke-linecap:butt;stroke-linejoin:miter;stroke-miterlimit:2"
         sodipodi:nodetypes="cccccccssccccccccccssccccccccccsscccccccc" />
      <path
         style="fill:#f9f9f9;stroke:#003bc3;stroke-width:0;stroke-linecap:butt;stroke-linejoin:miter;stroke-miterlimit:2"
         inkscape:connector-curvature="0"
         id="gear_path-1"
         stroke-miterlimit="2.00000000000"
         d="m 15.817366,44.232809 c 0.03002,-0.0026 0.06256,-0.01019 0.08547,-0.03224 l -0.05085,-1.776162 c 0.04451,-0.04277 1.254484,1.108693 1.223258,1.055452 L 15.798899,41.00728 c 0.22231,-0.356774 0.404452,-0.740466 0.535033,-1.148298 l 2.24422,-0.422193 c 0.06245,-0.0117 0.108795,-0.06968 0.109878,-0.132977 l 0.02499,-1.460442 c 0.001,-0.06178 -0.04537,-0.115445 -0.10536,-0.131071 l -2.159472,-0.55965 c -0.107841,-0.476622 -0.279192,-0.933881 -0.509233,-1.351631 l 1.289372,-1.87703 c 0.03597,-0.05244 0.03034,-0.123273 -0.0141,-0.168848 l -1.024074,-1.051433 c -0.04314,-0.04413 -0.110356,-0.05075 -0.163896,-0.01965 l -1.990517,1.151368 c -0.382683,-0.22795 -0.797988,-0.412523 -1.236719,-0.538191 l -0.421154,-2.198613 c -0.01176,-0.06205 -0.06463,-0.107868 -0.128364,-0.108962 l -1.471983,-0.02529 c -0.06183,-0.001 -0.116278,0.03925 -0.131971,0.09902 l -0.581181,2.192526 c -0.4566705,0.113802 -0.88833,0.286953 -1.288705,0.511651 L 6.8553635,32.470345 C 6.8024085,32.434825 6.731401,32.44029 6.6852255,32.48426 L 5.520208,33.678016 c -0.04474,0.04281 0.05448,-0.06862 0.085839,-0.01546 l 0.687912,1.169304 c 0,0 0.3039355,-0.06307 0.3233685,-0.03379 0,0 -0.02668,1.061455 0.5422355,1.918791 0.720845,-1.342512 2.401748,-2.291028 4.040513,-2.26288 2.32869,0.04 4.284681,1.64766 4.245154,3.958053 -0.02908,1.699484 -0.826243,3.805017 -2.304249,4.43475 l -0.149027,0.359813 c 0.268495,-0.08812 0.528349,-0.195536 0.775729,-0.323808 4.74e-4,2.86e-4 -5.5e-4,0.0053 -9.6e-5,0.0056 l 1.965127,1.326107 c 0.02644,0.01779 0.05464,0.02086 0.08465,0.0183 z"
         sodipodi:nodetypes="cccccccssccccccccccssccccccccccssccccccc" />
    </g>
  </g>
</svg>
