<?xml version="1.0" encoding="UTF-8" standalone="no"?>
<!-- Created with Inkscape (http://www.inkscape.org/) -->

<svg
   xmlns:dc="http://purl.org/dc/elements/1.1/"
   xmlns:cc="http://creativecommons.org/ns#"
   xmlns:rdf="http://www.w3.org/1999/02/22-rdf-syntax-ns#"
   xmlns:svg="http://www.w3.org/2000/svg"
   xmlns="http://www.w3.org/2000/svg"
   xmlns:sodipodi="http://sodipodi.sourceforge.net/DTD/sodipodi-0.dtd"
   xmlns:inkscape="http://www.inkscape.org/namespaces/inkscape"
   width="48"
   height="48"
   id="svg3022"
   version="1.1"
   inkscape:version="0.92.2 (5c3e80d, 2017-08-06)"
   sodipodi:docname="bookmark-missing.svg">
  <defs
     id="defs3024" />
  <sodipodi:namedview
     id="base"
     pagecolor="#ffffff"
     bordercolor="#666666"
     borderopacity="1.0"
     inkscape:pageopacity="0.0"
     inkscape:pageshadow="2"
     inkscape:zoom="8.0343727"
     inkscape:cx="-30.654068"
     inkscape:cy="23.859039"
     inkscape:document-units="px"
     inkscape:current-layer="layer1"
     showgrid="false"
     inkscape:window-width="3738"
     inkscape:window-height="2041"
     inkscape:window-x="102"
     inkscape:window-y="55"
     inkscape:window-maximized="1">
    <sodipodi:guide
       position="11,41.000017"
       orientation="34,0"
       id="guide3359"
       inkscape:locked="false" />
    <sodipodi:guide
       position="11,7.0000174"
       orientation="0,26"
       id="guide3361"
       inkscape:locked="false" />
    <sodipodi:guide
       position="37,7.0000174"
       orientation="-34,0"
       id="guide3363"
       inkscape:locked="false" />
    <sodipodi:guide
       position="37,41.000017"
       orientation="0,-26"
       id="guide3365"
       inkscape:locked="false" />
  </sodipodi:namedview>
  <metadata
     id="metadata3027">
    <rdf:RDF>
      <cc:Work
         rdf:about="">
        <dc:format>image/svg+xml</dc:format>
        <dc:type
           rdf:resource="http://purl.org/dc/dcmitype/StillImage" />
        <dc:title></dc:title>
      </cc:Work>
    </rdf:RDF>
  </metadata>
  <g
     inkscape:label="Capa 1"
     inkscape:groupmode="layer"
     id="layer1"
     transform="translate(0,-1004.3622)">
    <path
       sodipodi:type="arc"
       style="fill:none;fill-opacity:1;fill-rule:evenodd;stroke:none"
       id="path3265"
       sodipodi:cx="23.997576"
       sodipodi:cy="1048.8622"
       sodipodi:rx="3.502425"
       sodipodi:ry="3.5001078"
       d="m 27.500001,1048.8622 a 3.502425,3.5001078 0 0 1 -3.502425,3.5001 3.502425,3.5001078 0 0 1 -3.502425,-3.5001 3.502425,3.5001078 0 0 1 3.502425,-3.5001 3.502425,3.5001078 0 0 1 3.502425,3.5001 z" />
    <path
       d="m 27.500001,1007.8622 a 3.502425,3.5001078 0 0 1 -3.502425,3.5001 3.502425,3.5001078 0 0 1 -3.502425,-3.5001 3.502425,3.5001078 0 0 1 3.502425,-3.5001 3.502425,3.5001078 0 0 1 3.502425,3.5001 z"
       sodipodi:ry="3.5001078"
       sodipodi:rx="3.502425"
       sodipodi:cy="1007.8622"
       sodipodi:cx="23.997576"
       id="path3267"
       style="fill:none;fill-opacity:1;fill-rule:evenodd;stroke:none"
       sodipodi:type="arc" />
    <path
       sodipodi:type="arc"
       style="fill:none;fill-opacity:1;fill-rule:evenodd;stroke:none"
       id="path3269"
       sodipodi:cx="5.4961891"
       sodipodi:cy="1028.3622"
       sodipodi:rx="5.5038109"
       sodipodi:ry="5.5001693"
       d="m 11,1028.3622 a 5.5038109,5.5001693 0 0 1 -5.5038109,5.5002 5.5038109,5.5001693 0 0 1 -5.50381087,-5.5002 A 5.5038109,5.5001693 0 0 1 5.4961891,1022.862 5.5038109,5.5001693 0 0 1 11,1028.3622 Z" />
    <path
       d="m 48,1028.3622 a 5.5038109,5.5001693 0 0 1 -5.503811,5.5002 5.5038109,5.5001693 0 0 1 -5.503811,-5.5002 5.5038109,5.5001693 0 0 1 5.503811,-5.5002 A 5.5038109,5.5001693 0 0 1 48,1028.3622 Z"
       sodipodi:ry="5.5001693"
       sodipodi:rx="5.5038109"
       sodipodi:cy="1028.3622"
       sodipodi:cx="42.496189"
       id="path3271"
       style="fill:none;fill-opacity:1;fill-rule:evenodd;stroke:none"
       sodipodi:type="arc" />
    <path
       style="fill:#e74c3c;fill-opacity:1;stroke:none"
       d="M 24 7 L 24 34 L 37 41 L 37 7 L 24 7 z "
       id="path3291"
       transform="translate(0,1004.3622)" />
    <path
       style="fill:#c0392b;fill-opacity:1;stroke:none"
       d="M 11 7 L 11 41 L 24 34 L 24 7 L 11 7 z "
       id="rect3283"
       transform="translate(0,1004.3622)" />
    <path
       d="m 27.500001,1048.8622 a 3.502425,3.5001078 0 0 1 -3.502425,3.5001 3.502425,3.5001078 0 0 1 -3.502425,-3.5001 3.502425,3.5001078 0 0 1 3.502425,-3.5001 3.502425,3.5001078 0 0 1 3.502425,3.5001 z"
       sodipodi:ry="3.5001078"
       sodipodi:rx="3.502425"
       sodipodi:cy="1048.8622"
       sodipodi:cx="23.997576"
       id="path3293"
       style="fill:none;fill-opacity:1;fill-rule:evenodd;stroke:none"
       sodipodi:type="arc" />
    <path
       sodipodi:type="arc"
       style="fill:none;fill-opacity:1;fill-rule:evenodd;stroke:none"
       id="path3295"
       sodipodi:cx="23.997576"
       sodipodi:cy="1007.8622"
       sodipodi:rx="3.502425"
       sodipodi:ry="3.5001078"
       d="m 27.500001,1007.8622 a 3.502425,3.5001078 0 0 1 -3.502425,3.5001 3.502425,3.5001078 0 0 1 -3.502425,-3.5001 3.502425,3.5001078 0 0 1 3.502425,-3.5001 3.502425,3.5001078 0 0 1 3.502425,3.5001 z" />
    <path
       d="m 11,1028.3622 a 5.5038109,5.5001693 0 0 1 -5.5038109,5.5002 5.5038109,5.5001693 0 0 1 -5.50381087,-5.5002 A 5.5038109,5.5001693 0 0 1 5.4961891,1022.862 5.5038109,5.5001693 0 0 1 11,1028.3622 Z"
       sodipodi:ry="5.5001693"
       sodipodi:rx="5.5038109"
       sodipodi:cy="1028.3622"
       sodipodi:cx="5.4961891"
       id="path3297"
       style="fill:none;fill-opacity:1;fill-rule:evenodd;stroke:none"
       sodipodi:type="arc" />
    <path
       sodipodi:type="arc"
       style="fill:none;fill-opacity:1;fill-rule:evenodd;stroke:none"
       id="path3299"
       sodipodi:cx="42.496189"
       sodipodi:cy="1028.3622"
       sodipodi:rx="5.5038109"
       sodipodi:ry="5.5001693"
       d="m 48,1028.3622 a 5.5038109,5.5001693 0 0 1 -5.503811,5.5002 5.5038109,5.5001693 0 0 1 -5.503811,-5.5002 5.5038109,5.5001693 0 0 1 5.503811,-5.5002 A 5.5038109,5.5001693 0 0 1 48,1028.3622 Z" />
    <path
       transform="translate(0,1004.3622)"
       id="path3333"
       d="M 24 7 L 24 34 L 37 41 L 37 7 L 24 7 z "
       style="fill:#e74c3c;fill-opacity:1;stroke:none" />
    <path
       transform="translate(0,1004.3622)"
       id="path3335"
       d="M 11 7 L 11 41 L 24 34 L 24 7 L 11 7 z "
       style="fill:#c0392b;fill-opacity:1;stroke:none" />
  </g>
</svg>
