<?xml version="1.0" encoding="UTF-8" standalone="no"?>
<!-- Created with Inkscape (http://www.inkscape.org/) -->

<svg
   xmlns:dc="http://purl.org/dc/elements/1.1/"
   xmlns:cc="http://creativecommons.org/ns#"
   xmlns:rdf="http://www.w3.org/1999/02/22-rdf-syntax-ns#"
   xmlns:svg="http://www.w3.org/2000/svg"
   xmlns="http://www.w3.org/2000/svg"
   xmlns:xlink="http://www.w3.org/1999/xlink"
   xmlns:sodipodi="http://sodipodi.sourceforge.net/DTD/sodipodi-0.dtd"
   xmlns:inkscape="http://www.inkscape.org/namespaces/inkscape"
   width="48"
   height="48"
   id="svg5453"
   version="1.1"
   inkscape:version="0.92.2 (5c3e80d, 2017-08-06)"
   sodipodi:docname="folder-pictures.svg">
  <defs
     id="defs5455">
    <linearGradient
       inkscape:collect="always"
       id="linearGradient4233">
      <stop
         style="stop-color:#345671;stop-opacity:1;"
         offset="0"
         id="stop4235" />
      <stop
         style="stop-color:#345671;stop-opacity:0;"
         offset="1"
         id="stop4237" />
    </linearGradient>
    <linearGradient
       id="linearGradient4232"
       inkscape:collect="always">
      <stop
         id="stop4234"
         offset="0"
         style="stop-color:#3d6584;stop-opacity:1" />
      <stop
         id="stop4236"
         offset="1"
         style="stop-color:#4a7ba3;stop-opacity:1" />
    </linearGradient>
    <linearGradient
       id="linearGradient4172">
      <stop
         style="stop-color:#7c92ba;stop-opacity:1;"
         offset="0"
         id="stop4174" />
      <stop
         style="stop-color:#8eb7dd;stop-opacity:1"
         offset="1"
         id="stop4176" />
    </linearGradient>
    <linearGradient
       inkscape:collect="always"
       xlink:href="#linearGradient4172"
       id="linearGradient4178"
       x1="414.57144"
       y1="541.79797"
       x2="414.57144"
       y2="499.798"
       gradientUnits="userSpaceOnUse"
       gradientTransform="matrix(0.75000027,0,0,0.74975573,96.142757,137.08194)" />
    <linearGradient
       inkscape:collect="always"
       xlink:href="#linearGradient4232"
       id="linearGradient4182"
       gradientUnits="userSpaceOnUse"
       x1="414.57144"
       y1="523.79797"
       x2="414.57144"
       y2="505.798"
       gradientTransform="matrix(0.75000027,0,0,0.74965817,96.142757,125.13206)" />
    <linearGradient
       inkscape:collect="always"
       xlink:href="#linearGradient4233"
       id="linearGradient4239"
       x1="384.57144"
       y1="477.798"
       x2="404.57144"
       y2="497.798"
       gradientUnits="userSpaceOnUse"
       gradientTransform="matrix(0.75000027,0,0,0.74999982,96.142757,136.94969)" />
  </defs>
  <sodipodi:namedview
     id="base"
     pagecolor="#ffffff"
     bordercolor="#666666"
     borderopacity="1.0"
     inkscape:pageopacity="0"
     inkscape:pageshadow="2"
     inkscape:zoom="15.999999"
     inkscape:cx="26.296981"
     inkscape:cy="35.153803"
     inkscape:document-units="px"
     inkscape:current-layer="layer1"
     showgrid="true"
     fit-margin-top="0"
     fit-margin-left="0"
     fit-margin-right="0"
     fit-margin-bottom="0"
     inkscape:window-width="3738"
     inkscape:window-height="2041"
     inkscape:window-x="102"
     inkscape:window-y="55"
     inkscape:window-maximized="1"
     inkscape:showpageshadow="false"
     borderlayer="true"
     showguides="true">
    <sodipodi:guide
       position="6.0000117,57.999996"
       orientation="51.999969,0"
       id="guide4097"
       inkscape:locked="false" />
    <sodipodi:guide
       position="6.0000117,6.0000264"
       orientation="0,52"
       id="guide4099"
       inkscape:locked="false" />
    <sodipodi:guide
       position="58.000012,6.0000264"
       orientation="-51.999969,0"
       id="guide4101"
       inkscape:locked="false" />
    <sodipodi:guide
       position="58.000012,57.999996"
       orientation="0,-52"
       id="guide4103"
       inkscape:locked="false" />
    <sodipodi:guide
       position="3.0000117,60.999996"
       orientation="57.999969,0"
       id="guide4105"
       inkscape:locked="false" />
    <sodipodi:guide
       position="3.0000117,3.0000264"
       orientation="0,58"
       id="guide4107"
       inkscape:locked="false" />
    <sodipodi:guide
       position="61.000012,3.0000264"
       orientation="-57.999969,0"
       id="guide4109"
       inkscape:locked="false" />
    <sodipodi:guide
       position="61.000012,60.999996"
       orientation="0,-58"
       id="guide4111"
       inkscape:locked="false" />
    <inkscape:grid
       type="xygrid"
       id="grid4115" />
  </sodipodi:namedview>
  <metadata
     id="metadata5458">
    <rdf:RDF>
      <cc:Work
         rdf:about="">
        <dc:format>image/svg+xml</dc:format>
        <dc:type
           rdf:resource="http://purl.org/dc/dcmitype/StillImage" />
        <dc:title></dc:title>
      </cc:Work>
    </rdf:RDF>
  </metadata>
  <g
     inkscape:label="Capa 1"
     inkscape:groupmode="layer"
     id="layer1"
     transform="translate(-384.57143,-499.798)">
    <path
       style="fill:url(#linearGradient4182);fill-opacity:1;stroke:none;stroke-width:0.75000006"
       d="m 387.57143,504.29811 v 3.74999 16.5 c 0,0.4153 0.3345,0.75 0.75,0.75 h 40.50002 c 0.41549,0 0.75,-0.3347 0.75,-0.75 v -16.49267 c 0,-0.002 -0.002,-0.005 -0.002,-0.007 h 0.002 v -0.75 h -21.00001 l -2.25,-3 h -18.75001 z"
       id="rect4180"
       inkscape:connector-curvature="0" />
    <path
       style="fill:url(#linearGradient4239);fill-opacity:1;fill-rule:evenodd;stroke:none;stroke-width:0.75000006px;stroke-linecap:butt;stroke-linejoin:miter;stroke-opacity:1"
       d="m 387.57143,504.29811 19.50001,19.49999 0.75,0.75 21.75001,-12.55737 v -4.69263 h -21.00001 l -2.25,-2.99999 z"
       id="path4230"
       inkscape:connector-curvature="0" />
    <path
       style="fill:url(#linearGradient4178);fill-opacity:1;stroke:none;stroke-width:0.75000006"
       d="m 401.07144,511.7981 -2.25,3 h -12.00001 v 0.75 h 10e-4 c -3e-5,0.003 -10e-4,0.006 -10e-4,0.009 v 26.9912 0.75 h 0.75 42.00002 0.75 v -0.75 -26.9912 -0.009 -3.75 z"
       id="rect4113"
       inkscape:connector-curvature="0" />
    <path
       style="fill:#8fb1cc;fill-opacity:1;fill-rule:evenodd;stroke:none;stroke-width:0.75000006px;stroke-linecap:butt;stroke-linejoin:miter;stroke-opacity:1"
       d="m 429.57145,507.2981 v 0.75 h -21.75001 l -1.5,-3.74999 2.25,2.99999 z"
       id="path4222"
       inkscape:connector-curvature="0" />
    <path
       style="fill:#ffffff;fill-opacity:0.23529412;fill-rule:evenodd;stroke:none;stroke-width:0.75000006px;stroke-linecap:butt;stroke-linejoin:miter;stroke-opacity:1"
       d="m 386.82144,514.7981 v 0.75 h 12.75 l 1.5,-3.75 -2.25,3 z"
       id="path4224"
       inkscape:connector-curvature="0" />
    <path
       style="fill:#345671;fill-opacity:1;fill-rule:evenodd;stroke:none;stroke-width:0.75000006px;stroke-linecap:butt;stroke-linejoin:miter;stroke-opacity:1"
       d="m 387.57143,514.0481 v 0.75 h 11.25001 l 2.25,-3 -3.75,2.25 z"
       id="path4228"
       inkscape:connector-curvature="0" />
    <path
       inkscape:connector-curvature="0"
       style="fill:#466e9a;fill-opacity:1;stroke:none;stroke-width:0.75000006"
       d="m 386.82143,542.54808 v 0.75 h 0.75 42.00002 0.75 v -0.75 h -0.75 -42.00002 z"
       id="path4151-2" />
    <path
       inkscape:connector-curvature="0"
       d="m 410.47297,517.42455 c -0.11979,-0.008 -0.25181,0.0262 -0.36407,0.091 l -6.30632,3.64075 h 4.99304 l 1.30027,-0.75416 0.42909,0.75416 h 2.41851 l -1.97641,-3.41971 c -0.10803,-0.18711 -0.29445,-0.29811 -0.49411,-0.31207 z m -8.80283,4.96704 -3.44572,1.98941 c -0.29938,0.17285 -0.40689,0.54581 -0.23406,0.84518 l 3.67978,6.37133 v -4.16087 l -0.9362,-1.62534 0.9362,-0.54611 z m 1.87238,0.0521 c -0.34568,0 -0.62412,0.27844 -0.62412,0.62413 v 13.71785 c 0,0.34568 0.27844,0.62413 0.62412,0.62413 h 13.73087 c 0.34569,0 0.62413,-0.27845 0.62413,-0.62413 v -13.71785 c 0,-0.34569 -0.27844,-0.62413 -0.62413,-0.62413 z m 1.45631,2.48351 h 10.81825 v 8.73783 h -10.81825 z"
       id="rect6430-9-7"
       style="color:#000000;display:inline;overflow:visible;visibility:visible;opacity:0.3;fill:#ffffff;fill-opacity:1;fill-rule:nonzero;stroke:none;stroke-width:1.27500021;marker:none;enable-background:accumulate" />
    <path
       inkscape:connector-curvature="0"
       d="m 410.47297,517.00867 c -0.11979,-0.008 -0.25181,0.0262 -0.36407,0.091 l -6.30632,3.64076 h 4.99304 l 1.30027,-0.75415 0.42909,0.75415 h 2.41851 l -1.97641,-3.41971 c -0.10803,-0.1871 -0.29445,-0.29812 -0.49411,-0.31207 z m -8.80283,4.96704 -3.44572,1.98942 c -0.29938,0.17285 -0.40689,0.5458 -0.23406,0.84517 l 3.67978,6.37132 v -4.16086 l -0.9362,-1.62534 0.9362,-0.54611 z m 1.87238,0.052 c -0.34568,0 -0.62412,0.27844 -0.62412,0.62413 v 13.71785 c 0,0.34568 0.27844,0.62413 0.62412,0.62413 h 13.73087 c 0.34569,0 0.62413,-0.27845 0.62413,-0.62413 v -13.71785 c 0,-0.34569 -0.27844,-0.62413 -0.62413,-0.62413 z m 1.45631,2.48352 h 10.81825 v 8.73782 h -10.81825 z"
       id="rect6430-9"
       style="color:#000000;display:inline;overflow:visible;visibility:visible;fill:#163950;fill-opacity:0.85098039;fill-rule:nonzero;stroke:none;stroke-width:1.27500021;marker:none;enable-background:accumulate" />
  </g>
</svg>
