<?xml version="1.0" encoding="UTF-8" standalone="no"?>
<!-- Created with Inkscape (http://www.inkscape.org/) -->

<svg
   xmlns:dc="http://purl.org/dc/elements/1.1/"
   xmlns:cc="http://creativecommons.org/ns#"
   xmlns:rdf="http://www.w3.org/1999/02/22-rdf-syntax-ns#"
   xmlns:svg="http://www.w3.org/2000/svg"
   xmlns="http://www.w3.org/2000/svg"
   xmlns:xlink="http://www.w3.org/1999/xlink"
   xmlns:sodipodi="http://sodipodi.sourceforge.net/DTD/sodipodi-0.dtd"
   xmlns:inkscape="http://www.inkscape.org/namespaces/inkscape"
   width="32"
   height="32"
   id="svg5453"
   version="1.1"
   inkscape:version="0.92.2 (5c3e80d, 2017-08-06)"
   sodipodi:docname="folder-pictures.svg">
  <defs
     id="defs5455">
    <linearGradient
       inkscape:collect="always"
       id="linearGradient4233">
      <stop
         style="stop-color:#345671;stop-opacity:1;"
         offset="0"
         id="stop4235" />
      <stop
         style="stop-color:#345671;stop-opacity:0;"
         offset="1"
         id="stop4237" />
    </linearGradient>
    <linearGradient
       id="linearGradient4232"
       inkscape:collect="always">
      <stop
         id="stop4234"
         offset="0"
         style="stop-color:#3d6584;stop-opacity:1" />
      <stop
         id="stop4236"
         offset="1"
         style="stop-color:#4a7ba3;stop-opacity:1" />
    </linearGradient>
    <linearGradient
       id="linearGradient4172">
      <stop
         style="stop-color:#7c92ba;stop-opacity:1;"
         offset="0"
         id="stop4174" />
      <stop
         style="stop-color:#8eb7dd;stop-opacity:1"
         offset="1"
         id="stop4176" />
    </linearGradient>
    <linearGradient
       inkscape:collect="always"
       xlink:href="#linearGradient4172"
       id="linearGradient4178"
       x1="414.57144"
       y1="541.79797"
       x2="414.57144"
       y2="499.798"
       gradientUnits="userSpaceOnUse"
       gradientTransform="matrix(0.50000018,0,0,0.49983716,192.28565,273.9873)" />
    <linearGradient
       inkscape:collect="always"
       xlink:href="#linearGradient4232"
       id="linearGradient4182"
       gradientUnits="userSpaceOnUse"
       x1="414.57144"
       y1="523.79797"
       x2="414.57144"
       y2="505.798"
       gradientTransform="matrix(0.50000018,0,0,0.49977211,192.28565,266.02072)" />
    <linearGradient
       inkscape:collect="always"
       xlink:href="#linearGradient4233"
       id="linearGradient4239"
       x1="384.57144"
       y1="477.798"
       x2="404.57144"
       y2="497.798"
       gradientUnits="userSpaceOnUse"
       gradientTransform="matrix(0.50000018,0,0,0.49999988,192.28565,273.89914)" />
  </defs>
  <sodipodi:namedview
     id="base"
     pagecolor="#ffffff"
     bordercolor="#666666"
     borderopacity="1.0"
     inkscape:pageopacity="0"
     inkscape:pageshadow="2"
     inkscape:zoom="7.9999996"
     inkscape:cx="-82.490468"
     inkscape:cy="34.328993"
     inkscape:document-units="px"
     inkscape:current-layer="layer1"
     showgrid="true"
     fit-margin-top="0"
     fit-margin-left="0"
     fit-margin-right="0"
     fit-margin-bottom="0"
     inkscape:window-width="3738"
     inkscape:window-height="2041"
     inkscape:window-x="102"
     inkscape:window-y="55"
     inkscape:window-maximized="1"
     inkscape:showpageshadow="false"
     borderlayer="true"
     showguides="true">
    <sodipodi:guide
       position="6.0000117,57.999996"
       orientation="51.999969,0"
       id="guide4097"
       inkscape:locked="false" />
    <sodipodi:guide
       position="6.0000117,6.0000264"
       orientation="0,52"
       id="guide4099"
       inkscape:locked="false" />
    <sodipodi:guide
       position="58.000012,6.0000264"
       orientation="-51.999969,0"
       id="guide4101"
       inkscape:locked="false" />
    <sodipodi:guide
       position="58.000012,57.999996"
       orientation="0,-52"
       id="guide4103"
       inkscape:locked="false" />
    <sodipodi:guide
       position="3.0000117,60.999996"
       orientation="57.999969,0"
       id="guide4105"
       inkscape:locked="false" />
    <sodipodi:guide
       position="3.0000117,3.0000264"
       orientation="0,58"
       id="guide4107"
       inkscape:locked="false" />
    <sodipodi:guide
       position="61.000012,3.0000264"
       orientation="-57.999969,0"
       id="guide4109"
       inkscape:locked="false" />
    <sodipodi:guide
       position="61.000012,60.999996"
       orientation="0,-58"
       id="guide4111"
       inkscape:locked="false" />
    <inkscape:grid
       type="xygrid"
       id="grid4115" />
  </sodipodi:namedview>
  <metadata
     id="metadata5458">
    <rdf:RDF>
      <cc:Work
         rdf:about="">
        <dc:format>image/svg+xml</dc:format>
        <dc:type
           rdf:resource="http://purl.org/dc/dcmitype/StillImage" />
        <dc:title></dc:title>
      </cc:Work>
    </rdf:RDF>
  </metadata>
  <g
     inkscape:label="Capa 1"
     inkscape:groupmode="layer"
     id="layer1"
     transform="translate(-384.57143,-515.798)">
    <path
       style="fill:url(#linearGradient4182);fill-opacity:1;stroke:none;stroke-width:0.5"
       d="m 386.57144,518.79808 v 2.5 10.99999 c 0,0.27687 0.223,0.5 0.5,0.5 h 27.00001 c 0.27699,0 0.5,-0.22313 0.5,-0.5 v -10.99511 c 0,-10e-4 -0.001,-0.003 -0.001,-0.005 h 0.001 v -0.5 h -14.00001 l -1.5,-2 h -12.5 z"
       id="rect4180"
       inkscape:connector-curvature="0" />
    <path
       style="fill:url(#linearGradient4239);fill-opacity:1;fill-rule:evenodd;stroke:none;stroke-width:0.5px;stroke-linecap:butt;stroke-linejoin:miter;stroke-opacity:1"
       d="m 386.57144,518.79808 13,12.99999 0.5,0.5 14.50001,-8.37157 v -3.12842 h -14.00001 l -1.5,-2 z"
       id="path4230"
       inkscape:connector-curvature="0" />
    <path
       style="fill:url(#linearGradient4178);fill-opacity:1;stroke:none;stroke-width:0.5"
       d="m 395.57144,523.79808 -1.5,1.99999 h -8 v 0.5 h 10e-4 c -3e-5,0.002 -10e-4,0.004 -10e-4,0.006 v 17.99414 0.5 h 0.5 28.00001 0.5 v -0.5 -17.99414 -0.006 -2.49999 z"
       id="rect4113"
       inkscape:connector-curvature="0" />
    <path
       style="fill:#8fb1cc;fill-opacity:1;fill-rule:evenodd;stroke:none;stroke-width:0.5px;stroke-linecap:butt;stroke-linejoin:miter;stroke-opacity:1"
       d="m 414.57145,520.79808 v 0.5 h -14.50001 l -1,-2.5 1.5,2 z"
       id="path4222"
       inkscape:connector-curvature="0" />
    <path
       style="fill:#ffffff;fill-opacity:0.23529412;fill-rule:evenodd;stroke:none;stroke-width:0.5px;stroke-linecap:butt;stroke-linejoin:miter;stroke-opacity:1"
       d="m 386.07144,525.79807 v 0.5 h 8.5 l 1,-2.49999 -1.5,1.99999 z"
       id="path4224"
       inkscape:connector-curvature="0" />
    <path
       style="fill:#345671;fill-opacity:1;fill-rule:evenodd;stroke:none;stroke-width:0.5px;stroke-linecap:butt;stroke-linejoin:miter;stroke-opacity:1"
       d="m 386.57144,525.29808 v 0.49999 h 7.5 l 1.5,-1.99999 -2.5,1.5 z"
       id="path4228"
       inkscape:connector-curvature="0" />
    <path
       inkscape:connector-curvature="0"
       style="fill:#466e9a;fill-opacity:1;stroke:none;stroke-width:0.5"
       d="m 386.07144,544.29806 v 0.5 h 0.5 28.00001 0.5 v -0.5 h -0.5 -28.00001 z"
       id="path4151-2" />
    <path
       inkscape:connector-curvature="0"
       d="m 401.83913,527.54904 c -0.0799,-0.006 -0.16788,0.0175 -0.24272,0.0607 l -4.20421,2.42717 h 3.3287 l 0.86684,-0.50277 0.28606,0.50277 h 1.61234 l -1.31761,-2.27981 c -0.072,-0.12473 -0.1963,-0.19873 -0.3294,-0.20804 z m -5.86856,3.31136 -2.29714,1.32627 c -0.19959,0.11523 -0.27127,0.36388 -0.15604,0.56345 l 2.45318,4.24756 v -2.77391 l -0.62413,-1.08357 0.62413,-0.36407 z m 1.24826,0.0347 c -0.23045,0 -0.41608,0.18563 -0.41608,0.41609 v 9.14523 c 0,0.23046 0.18563,0.41609 0.41608,0.41609 h 9.15391 c 0.23046,0 0.41609,-0.18563 0.41609,-0.41609 v -9.14523 c 0,-0.23046 -0.18563,-0.41609 -0.41609,-0.41609 z m 0.97087,1.65567 h 7.21217 v 5.82522 h -7.21217 z"
       id="rect6430-9-7"
       style="color:#000000;display:inline;overflow:visible;visibility:visible;opacity:0.3;fill:#ffffff;fill-opacity:1;fill-rule:nonzero;stroke:none;stroke-width:0.85000008;marker:none;enable-background:accumulate" />
    <path
       inkscape:connector-curvature="0"
       d="m 401.83913,527.27179 c -0.0799,-0.006 -0.16788,0.0174 -0.24272,0.0607 l -4.20421,2.42718 h 3.3287 l 0.86684,-0.50277 0.28606,0.50277 h 1.61234 l -1.31761,-2.27981 c -0.072,-0.12473 -0.1963,-0.19874 -0.3294,-0.20804 z m -5.86856,3.31136 -2.29714,1.32627 c -0.19959,0.11524 -0.27127,0.36387 -0.15604,0.56345 l 2.45318,4.24755 v -2.77391 l -0.62413,-1.08356 0.62413,-0.36407 z m 1.24826,0.0347 c -0.23045,0 -0.41608,0.18562 -0.41608,0.41608 v 9.14524 c 0,0.23045 0.18563,0.41609 0.41608,0.41609 h 9.15391 c 0.23046,0 0.41609,-0.18564 0.41609,-0.41609 v -9.14524 c 0,-0.23046 -0.18563,-0.41608 -0.41609,-0.41608 z m 0.97087,1.65567 h 7.21217 v 5.82522 h -7.21217 z"
       id="rect6430-9"
       style="color:#000000;display:inline;overflow:visible;visibility:visible;fill:#163950;fill-opacity:0.85098039;fill-rule:nonzero;stroke:none;stroke-width:0.85000008;marker:none;enable-background:accumulate" />
  </g>
</svg>
