<?xml version="1.0" encoding="UTF-8" standalone="no"?>
<!-- Created using Karbon, part of Calligra: http://www.calligra.org/karbon -->

<svg
   xmlns:dc="http://purl.org/dc/elements/1.1/"
   xmlns:cc="http://creativecommons.org/ns#"
   xmlns:rdf="http://www.w3.org/1999/02/22-rdf-syntax-ns#"
   xmlns:svg="http://www.w3.org/2000/svg"
   xmlns="http://www.w3.org/2000/svg"
   xmlns:sodipodi="http://sodipodi.sourceforge.net/DTD/sodipodi-0.dtd"
   xmlns:inkscape="http://www.inkscape.org/namespaces/inkscape"
   width="32"
   height="32"
   id="svg2"
   version="1.1"
   inkscape:version="0.92.2 (5c3e80d, 2017-08-06)"
   sodipodi:docname="start-here.svg">
  <metadata
     id="metadata13">
    <rdf:RDF>
      <cc:Work
         rdf:about="">
        <dc:format>image/svg+xml</dc:format>
        <dc:type
           rdf:resource="http://purl.org/dc/dcmitype/StillImage" />
        <dc:title />
      </cc:Work>
    </rdf:RDF>
  </metadata>
  <sodipodi:namedview
     pagecolor="#ffffff"
     bordercolor="#666666"
     borderopacity="1"
     objecttolerance="10"
     gridtolerance="10"
     guidetolerance="10"
     inkscape:pageopacity="0"
     inkscape:pageshadow="2"
     inkscape:window-width="3061"
     inkscape:window-height="1537"
     id="namedview11"
     showgrid="false"
     inkscape:zoom="16"
     inkscape:cx="22.97529"
     inkscape:cy="20.592504"
     inkscape:window-x="305"
     inkscape:window-y="170"
     inkscape:window-maximized="0"
     inkscape:current-layer="layer1"
     units="px"
     inkscape:pagecheckerboard="false" />
  <defs
     id="defs4" />
  <g
     id="layer0"
     transform="translate(0,-19.199999)">
    <g
       id="layer1"
       transform="translate(0.87894,0.87894)"
       style="fill:none">
      <rect
         style="opacity:1;fill:#454545;fill-opacity:1;stroke-width:0.62668473"
         id="rect850"
         width="29.666666"
         height="29.666666"
         x="0.28772667"
         y="19.487726" />
      <path
         id="gear_path"
         stroke-miterlimit="2.00000000000"
         d="m 8.9181733,26.873603 c -0.041,0.0042 0.372294,-0.39986 0.3414674,-0.369214 l -1.8830474,1.827232 c -0.059873,0.05947 -0.06718,0.150527 -0.023227,0.222507 l 1.66554,2.7242 c -0.29574,0.492467 -0.5359067,1.020753 -0.70498,1.5808 l -3.0599077,0.62924 c -0.085151,0.01745 -0.147186,0.09772 -0.147186,0.184187 v 1.995133 c 0,0.0844 0.064761,0.1566 0.147186,0.176533 l 2.966961,0.713667 c 0.1586667,0.6484 0.4037533,1.268867 0.7281933,1.834 l -1.71976,2.593733 c -0.047967,0.07247 -0.038613,0.169067 0.023227,0.230267 l 1.4254,1.411933 c 0.060053,0.05927 0.15214,0.06673 0.2246467,0.023 l 2.6958204,-1.619133 c 0.528793,0.302333 1.101193,0.544667 1.70426,0.706 l 0.627533,2.9928 c 0.01753,0.08447 0.09093,0.1458 0.178133,0.1458 H 16.1225 c 0.0846,0 0.158133,-0.05633 0.1782,-0.138333 l 0.743667,-3.008 c 0.622,-0.166134 1.2084,-0.412734 1.7508,-0.729 l 2.657066,1.7266 c 0.07327,0.04727 0.170267,0.03813 0.2324,-0.023 l 1.417667,-1.412 c 0.0602,-0.05953 0.07507,-0.150667 0.03093,-0.222534 l -0.968333,-1.5808 c 0,0 -0.414267,0.09327 -0.441533,0.05373 0,0 -0.611667,-0.891334 -1.409934,-2.048867 -0.9546,1.8504 -2.901466,3.115533 -5.143733,3.115533 -3.186267,0 -5.7712267,-2.560666 -5.7712267,-5.716933 0,-2.321693 1.5056867,-4.649107 3.5126597,-5.543813 l -0.104166,-1.14004 c -0.3652,0.12664 -0.718134,0.27944 -1.053514,0.460426 -6.46e-4,-3.8e-4 6.2e-4,-0.0073 0,-0.0077 L 9.0343933,26.896614 c -0.03658,-0.02367 -0.07522,-0.0272 -0.11622,-0.02301 l 0.6694914,-0.0043 z"
         inkscape:connector-curvature="0"
         style="fill:#f9f9f9;stroke:#003bc3;stroke-width:0;stroke-linecap:butt;stroke-linejoin:miter;stroke-miterlimit:2"
         sodipodi:nodetypes="cccccccssccccccccccssccccccccccsscccccccc" />
      <path
         style="fill:#f9f9f9;stroke:#003bc3;stroke-width:0;stroke-linecap:butt;stroke-linejoin:miter;stroke-miterlimit:2"
         inkscape:connector-curvature="0"
         id="gear_path-1"
         stroke-miterlimit="2.00000000000"
         d="m 21.382801,42.203393 c 0.04002,-0.0035 0.08341,-0.01359 0.113964,-0.04299 l -0.0678,-2.368217 c 0.05935,-0.05703 1.672646,1.478258 1.631011,1.40727 l -1.701793,-3.296772 c 0.296414,-0.475698 0.539269,-0.987288 0.713378,-1.531064 l 2.992293,-0.562924 c 0.08327,-0.01561 0.14506,-0.09291 0.146504,-0.177303 l 0.03331,-1.947255 c 0.0014,-0.08238 -0.06049,-0.153927 -0.14048,-0.174762 l -2.879296,-0.7462 C 22.080104,32.12768 21.851636,31.518002 21.544914,30.961001 l 1.719163,-2.502707 c 0.04796,-0.06992 0.04045,-0.164363 -0.01879,-0.22513 l -1.365432,-1.401911 c -0.05753,-0.05884 -0.147142,-0.06767 -0.218528,-0.0262 l -2.65403,1.535157 C 18.497054,28.03628 17.943314,27.790183 17.358339,27.622626 L 16.7968,24.691141 c -0.01567,-0.08273 -0.08618,-0.143823 -0.171151,-0.145282 l -1.962645,-0.03371 c -0.08244,-0.0014 -0.155037,0.05233 -0.175961,0.132031 l -0.774908,2.923368 c -0.608894,0.151737 -1.18444,0.382604 -1.718273,0.682201 L 9.4334647,26.520107 C 9.362858,26.472747 9.2681813,26.480033 9.206614,26.53866 l -1.5533567,1.591675 c -0.059653,0.05709 0.07264,-0.09149 0.114452,-0.02061 l 0.917216,1.559072 c 0,0 0.4052474,-0.08409 0.431158,-0.04506 0,0 -0.035573,1.415274 0.7229807,2.558389 0.961127,-1.790016 3.202331,-3.054705 5.38735,-3.017173 3.104921,0.05333 5.712909,2.19688 5.660205,5.277404 -0.03877,2.265978 -1.101657,5.073356 -3.072331,5.913 l -0.198703,0.47975 c 0.357993,-0.117488 0.704465,-0.260714 1.034306,-0.431744 6.31e-4,3.82e-4 -7.34e-4,0.0071 -1.28e-4,0.0075 l 2.620168,1.768143 c 0.03525,0.02372 0.07285,0.02781 0.11287,0.02441 z"
         sodipodi:nodetypes="cccccccssccccccccccssccccccccccssccccccc" />
    </g>
  </g>
</svg>
