<?xml version="1.0" encoding="UTF-8" standalone="no"?>
<!-- Created using Karbon, part of Calligra: http://www.calligra.org/karbon -->

<svg
   xmlns:dc="http://purl.org/dc/elements/1.1/"
   xmlns:cc="http://creativecommons.org/ns#"
   xmlns:rdf="http://www.w3.org/1999/02/22-rdf-syntax-ns#"
   xmlns:svg="http://www.w3.org/2000/svg"
   xmlns="http://www.w3.org/2000/svg"
   xmlns:sodipodi="http://sodipodi.sourceforge.net/DTD/sodipodi-0.dtd"
   xmlns:inkscape="http://www.inkscape.org/namespaces/inkscape"
   width="32"
   height="32"
   id="svg2"
   version="1.1"
   inkscape:version="0.92.4 (5da689c313, 2019-01-14)"
   sodipodi:docname="start-here.svg">
  <metadata
     id="metadata13">
    <rdf:RDF>
      <cc:Work
         rdf:about="">
        <dc:format>image/svg+xml</dc:format>
        <dc:type
           rdf:resource="http://purl.org/dc/dcmitype/StillImage" />
        <dc:title />
      </cc:Work>
    </rdf:RDF>
  </metadata>
  <sodipodi:namedview
     pagecolor="#ffffff"
     bordercolor="#666666"
     borderopacity="1"
     objecttolerance="10"
     gridtolerance="10"
     guidetolerance="10"
     inkscape:pageopacity="0"
     inkscape:pageshadow="2"
     inkscape:window-width="3061"
     inkscape:window-height="1537"
     id="namedview11"
     showgrid="false"
     inkscape:zoom="22.627417"
     inkscape:cx="0.18195339"
     inkscape:cy="27.084677"
     inkscape:window-x="305"
     inkscape:window-y="170"
     inkscape:window-maximized="0"
     inkscape:current-layer="layer1"
     units="px"
     inkscape:pagecheckerboard="false" />
  <defs
     id="defs4" />
  <g
     id="layer0"
     transform="translate(0,-19.199999)">
    <g
       id="layer1"
       transform="translate(0.87894,0.87894)"
       style="fill:none">
      <rect
         style="opacity:1;fill:#454545;fill-opacity:1;stroke-width:0.62668473"
         id="rect850"
         width="29.666666"
         height="29.666666"
         x="0.28772667"
         y="19.487726" />
      <path
         inkscape:connector-curvature="0"
         style="fill:#ffffff;fill-opacity:1;stroke-width:0.71671182"
         sodipodi:nodetypes="cccccccccccccccc"
         id="path5"
         d="M 0.82420388,29.888224 C 1.1268716,23.323072 -0.27269858,23.937386 4.6445488,27.16725 c 1.0102054,0.827858 2.1333748,1.508856 3.2662148,2.157588 -0.0029,-1.069921 -0.1952527,-2.120463 -0.3372585,-3.175857 1.6912075,1.920357 3.5324879,3.703551 5.1898019,5.657787 1.318433,0.02079 2.636858,0.03735 3.960134,0.05978 1.136076,1.955862 2.427067,3.814898 3.693866,5.688455 0.301815,0.514478 0.508009,0.857274 0.729155,1.44803 0.312042,0.694659 -1.204917,0.290584 -0.84373,0.73537 2.289899,2.859558 5.725568,4.524944 9.217714,5.396366 -1.344243,0.671315 -2.920875,0.889174 -3.973045,1.992982 -1.963922,2.168878 1.862263,-2.969294 -0.798805,1.299062 C 23.35595,47.168102 22.145642,45.718961 20.681969,44.53769 18.705144,42.927175 16.50077,41.607127 14.176977,40.564642 12.956982,39.998216 11.583685,39.393069 10.944636,38.135957 10.468587,36.906286 10.363688,35.57333 10.245891,34.274262" />
      <path
         inkscape:connector-curvature="0"
         style="fill:#454545;fill-opacity:1;stroke-width:0.18984123"
         sodipodi:nodetypes="csccc"
         id="path14"
         d="m 16.334646,35.448862 c 3.514094,3.661301 -0.103603,-0.134333 3.213594,3.345639 0.09226,0.0968 0.0624,0.0314 -0.06412,0.342976 -1.066908,-0.425246 -2.099645,-0.930222 -3.139974,-1.404828 -0.0076,-0.763161 -0.01138,-1.524424 -0.0095,-2.283787 z" />
      <path
         inkscape:connector-curvature="0"
         style="fill:#ffffff;fill-opacity:1;stroke-width:0.71671182"
         id="path11"
         d="m 3.9204359,21.618658 c 3.8768202,2.027442 7.4822271,4.628712 10.6062211,7.694104 0.617589,0.646882 1.410984,1.163043 1.846,1.965459 -0.386556,-0.0597 -0.883555,0.191586 -1.18446,-0.137493 C 14.04431,29.702696 12.721232,28.408924 11.306869,27.235731 7.3962398,24.019321 5.5684574,22.674677 0.93881507,20.650618 1.2902793,20.342052 -0.66266499,19.128673 3.9204359,21.618658 Z"
         sodipodi:nodetypes="ccccccc" />
    </g>
  </g>
</svg>
