<?xml version="1.0" encoding="UTF-8" standalone="no"?>
<!-- Created with Inkscape (http://www.inkscape.org/) -->

<svg
   xmlns:dc="http://purl.org/dc/elements/1.1/"
   xmlns:cc="http://creativecommons.org/ns#"
   xmlns:rdf="http://www.w3.org/1999/02/22-rdf-syntax-ns#"
   xmlns:svg="http://www.w3.org/2000/svg"
   xmlns="http://www.w3.org/2000/svg"
   xmlns:xlink="http://www.w3.org/1999/xlink"
   xmlns:sodipodi="http://sodipodi.sourceforge.net/DTD/sodipodi-0.dtd"
   xmlns:inkscape="http://www.inkscape.org/namespaces/inkscape"
   width="256"
   height="256"
   id="svg5453"
   version="1.1"
   inkscape:version="0.92.2 (5c3e80d, 2017-08-06)"
   sodipodi:docname="folder-remote.svg">
  <defs
     id="defs5455">
    <linearGradient
       inkscape:collect="always"
       id="linearGradient4233">
      <stop
         style="stop-color:#345671;stop-opacity:1;"
         offset="0"
         id="stop4235" />
      <stop
         style="stop-color:#345671;stop-opacity:0;"
         offset="1"
         id="stop4237" />
    </linearGradient>
    <linearGradient
       id="linearGradient4232"
       inkscape:collect="always">
      <stop
         id="stop4234"
         offset="0"
         style="stop-color:#3d6584;stop-opacity:1" />
      <stop
         id="stop4236"
         offset="1"
         style="stop-color:#4a7ba3;stop-opacity:1" />
    </linearGradient>
    <linearGradient
       id="linearGradient4172">
      <stop
         style="stop-color:#7c92ba;stop-opacity:1;"
         offset="0"
         id="stop4174" />
      <stop
         style="stop-color:#8eb7dd;stop-opacity:1"
         offset="1"
         id="stop4176" />
    </linearGradient>
    <linearGradient
       inkscape:collect="always"
       xlink:href="#linearGradient4172"
       id="linearGradient4178"
       x1="414.57144"
       y1="541.79797"
       x2="414.57144"
       y2="499.798"
       gradientUnits="userSpaceOnUse"
       gradientTransform="matrix(4.0000014,0,0,3.9986972,-1153.7149,-1642.6877)" />
    <linearGradient
       inkscape:collect="always"
       xlink:href="#linearGradient4232"
       id="linearGradient4182"
       gradientUnits="userSpaceOnUse"
       x1="414.57144"
       y1="523.79797"
       x2="414.57144"
       y2="505.798"
       gradientTransform="matrix(4.0000014,0,0,3.9981768,-1153.7149,-1706.4204)" />
    <linearGradient
       inkscape:collect="always"
       xlink:href="#linearGradient4233"
       id="linearGradient4239"
       x1="384.57144"
       y1="477.798"
       x2="404.57144"
       y2="497.798"
       gradientUnits="userSpaceOnUse"
       gradientTransform="matrix(4.0000014,0,0,3.999999,-1153.7149,-1643.393)" />
  </defs>
  <sodipodi:namedview
     id="base"
     pagecolor="#ffffff"
     bordercolor="#666666"
     borderopacity="1.0"
     inkscape:pageopacity="0"
     inkscape:pageshadow="2"
     inkscape:zoom="2.828427"
     inkscape:cx="55.015364"
     inkscape:cy="121.73847"
     inkscape:document-units="px"
     inkscape:current-layer="layer1"
     showgrid="true"
     fit-margin-top="0"
     fit-margin-left="0"
     fit-margin-right="0"
     fit-margin-bottom="0"
     inkscape:window-width="3738"
     inkscape:window-height="2041"
     inkscape:window-x="102"
     inkscape:window-y="55"
     inkscape:window-maximized="1"
     inkscape:showpageshadow="false"
     borderlayer="true"
     showguides="true">
    <sodipodi:guide
       position="6.0000117,57.999996"
       orientation="51.999969,0"
       id="guide4097"
       inkscape:locked="false" />
    <sodipodi:guide
       position="6.0000117,6.0000264"
       orientation="0,52"
       id="guide4099"
       inkscape:locked="false" />
    <sodipodi:guide
       position="58.000012,6.0000264"
       orientation="-51.999969,0"
       id="guide4101"
       inkscape:locked="false" />
    <sodipodi:guide
       position="58.000012,57.999996"
       orientation="0,-52"
       id="guide4103"
       inkscape:locked="false" />
    <sodipodi:guide
       position="3.0000117,60.999996"
       orientation="57.999969,0"
       id="guide4105"
       inkscape:locked="false" />
    <sodipodi:guide
       position="3.0000117,3.0000264"
       orientation="0,58"
       id="guide4107"
       inkscape:locked="false" />
    <sodipodi:guide
       position="61.000012,3.0000264"
       orientation="-57.999969,0"
       id="guide4109"
       inkscape:locked="false" />
    <sodipodi:guide
       position="61.000012,60.999996"
       orientation="0,-58"
       id="guide4111"
       inkscape:locked="false" />
    <inkscape:grid
       type="xygrid"
       id="grid4115" />
  </sodipodi:namedview>
  <metadata
     id="metadata5458">
    <rdf:RDF>
      <cc:Work
         rdf:about="">
        <dc:format>image/svg+xml</dc:format>
        <dc:type
           rdf:resource="http://purl.org/dc/dcmitype/StillImage" />
        <dc:title></dc:title>
      </cc:Work>
    </rdf:RDF>
  </metadata>
  <g
     inkscape:label="Capa 1"
     inkscape:groupmode="layer"
     id="layer1"
     transform="translate(-384.57143,-291.798)">
    <path
       style="fill:url(#linearGradient4182);fill-opacity:1;stroke:none;stroke-width:4.00000048"
       d="m 400.5714,315.79848 v 19.99999 87.99998 c 0,2.21492 1.784,4 4,4 h 216.00008 c 2.21596,0 4,-1.78508 4,-4 v -87.9609 c 0,-0.012 -0.008,-0.024 -0.008,-0.04 h 0.008 v -4 H 512.57144 l -12,-15.99999 H 400.5714 Z"
       id="rect4180"
       inkscape:connector-curvature="0" />
    <path
       style="fill:url(#linearGradient4239);fill-opacity:1;fill-rule:evenodd;stroke:none;stroke-width:4.00000048px;stroke-linecap:butt;stroke-linejoin:miter;stroke-opacity:1"
       d="m 400.5714,315.79848 104.00004,103.99997 4,4 116.00004,-66.97262 V 331.79847 H 512.57144 l -12,-15.99999 z"
       id="path4230"
       inkscape:connector-curvature="0" />
    <path
       style="fill:url(#linearGradient4178);fill-opacity:1;stroke:none;stroke-width:4.00000048"
       d="m 472.57143,355.79847 -12.00001,15.99999 H 396.5714 v 4 h 0.008 c -2e-4,0.016 -0.008,0.032 -0.008,0.0468 v 143.95309 4 h 4 224.00008 4 v -4 -143.95309 -0.0468 -19.99999 z"
       id="rect4113"
       inkscape:connector-curvature="0" />
    <path
       style="fill:#8fb1cc;fill-opacity:1;fill-rule:evenodd;stroke:none;stroke-width:4.00000048px;stroke-linecap:butt;stroke-linejoin:miter;stroke-opacity:1"
       d="m 624.57148,331.79847 v 4 H 508.57144 l -8,-19.99999 12,15.99999 z"
       id="path4222"
       inkscape:connector-curvature="0" />
    <path
       style="fill:#ffffff;fill-opacity:0.23529412;fill-rule:evenodd;stroke:none;stroke-width:4.00000048px;stroke-linecap:butt;stroke-linejoin:miter;stroke-opacity:1"
       d="m 396.57144,371.79846 v 4 h 67.99998 l 8.00001,-19.99999 -12.00001,15.99999 z"
       id="path4224"
       inkscape:connector-curvature="0" />
    <path
       style="fill:#345671;fill-opacity:1;fill-rule:evenodd;stroke:none;stroke-width:4.00000048px;stroke-linecap:butt;stroke-linejoin:miter;stroke-opacity:1"
       d="m 400.5714,367.79846 v 4 h 60.00002 l 12.00001,-15.99999 -20.00001,11.99999 z"
       id="path4228"
       inkscape:connector-curvature="0" />
    <path
       inkscape:connector-curvature="0"
       style="fill:#466e9a;fill-opacity:1;stroke:none;stroke-width:4.00000048"
       d="m 396.5714,519.79835 v 4 h 4 224.00008 4 v -4 h -4 -224.00008 z"
       id="path4151-2" />
    <path
       style="color:#000000;display:inline;overflow:visible;visibility:visible;opacity:0.9;fill:#abbfe8;fill-opacity:0.85098039;fill-rule:nonzero;stroke:none;stroke-width:6.80000067;marker:none;enable-background:accumulate"
       id="path4112-19-69-3-1-46-9-4"
       d="m 512.72056,470.69676 c -6.8436,0 -13.61524,3.64068 -16.4044,6.76692 l 16.4044,18.10883 16.56369,-17.94719 c -2.7892,-3.28788 -9.72005,-6.92856 -16.56369,-6.92856 z m 0,-31.44359 c -14.30912,0 -27.13425,5.78944 -37.67169,14.63039 l 10.25652,11.11308 c 7.01848,-5.10308 17.94033,-10.02168 27.00109,-10.02168 9.27996,0 20.72185,5.02972 27.83997,10.36124 l 10.56708,-11.61572 c -10.53744,-8.84091 -23.6838,-14.46731 -37.99297,-14.46731 z m 0,-31.44355 c -22.09549,0 -42.34401,8.61823 -58.07634,22.97563 l 10.03492,11.47192 c 14.02909,-12.48664 28.78777,-18.7258 48.04142,-18.7258 19.25365,0 33.56337,5.87608 48.2643,18.97848 l 9.81208,-11.7246 c -15.73232,-14.3574 -35.98081,-22.97563 -58.07638,-22.97563 z"
       inkscape:connector-curvature="0" />
    <g
       id="layer1-0-71-6"
       transform="matrix(7.7435156,0,0,7.8608949,450.77246,389.66798)"
       style="color:#000000;display:inline;overflow:visible;visibility:visible;fill:#163950;fill-opacity:0.85098039;fill-rule:nonzero;stroke:none;stroke-width:1.70000005;marker:none;enable-background:accumulate">
      <g
         style="color:#000000;display:inline;overflow:visible;visibility:visible;opacity:0.9;fill:#163950;fill-opacity:0.85098039;fill-rule:nonzero;stroke:none;stroke-width:1.70000005;marker:none;enable-background:accumulate"
         id="layer1-6-9-4"
         transform="translate(-0.02867384,-0.7867384)">
        <path
           style="color:#000000;display:inline;overflow:visible;visibility:visible;fill:#163950;fill-opacity:0.85098039;fill-rule:nonzero;stroke:none;stroke-width:1.70000005;marker:none;enable-background:accumulate"
           id="path4112-19-69-3-1-46-9"
           d="m 8.0286738,10.786738 c -0.8837844,0 -1.7582785,0.463138 -2.1184755,0.860829 l 2.1184755,2.303665 2.1390372,-2.283103 C 9.8075138,11.249876 8.9124582,10.786738 8.0286738,10.786738 Z m 0,-3.9999996 c -1.847888,0 -3.5041267,0.736481 -4.8649357,1.861156 l 1.3245282,1.4137196 c 0.90637,-0.6491716 2.3168195,-1.2748756 3.4869315,-1.2748756 1.198417,0 2.6760272,0.639835 3.5952572,1.3180686 L 12.935091,8.6271534 C 11.574282,7.5024784 9.8765618,6.7867384 8.0286738,6.7867384 Z m 0,-3.999999 c -2.853422,0 -5.468321,1.09634 -7.49999996,2.922777 l 1.29591676,1.459363 c 1.8117159,-1.588448 3.7176605,-2.382141 6.2040832,-2.382141 2.4864232,0 4.3343812,0.747499 6.2328602,2.414286 l 1.26714,-1.491508 C 13.496995,3.8830794 10.882095,2.7867394 8.0286738,2.7867394 Z"
           inkscape:connector-curvature="0" />
      </g>
    </g>
  </g>
</svg>
